%TF.GenerationSoftware,KiCad,Pcbnew,5.1.6-c6e7f7d~87~ubuntu18.04.1*%
%TF.CreationDate,2020-12-30T11:42:15-08:00*%
%TF.ProjectId,front-panel,66726f6e-742d-4706-916e-656c2e6b6963,rev?*%
%TF.SameCoordinates,Original*%
%TF.FileFunction,Legend,Top*%
%TF.FilePolarity,Positive*%
%FSLAX46Y46*%
G04 Gerber Fmt 4.6, Leading zero omitted, Abs format (unit mm)*
G04 Created by KiCad (PCBNEW 5.1.6-c6e7f7d~87~ubuntu18.04.1) date 2020-12-30 11:42:15*
%MOMM*%
%LPD*%
G01*
G04 APERTURE LIST*
%ADD10C,0.300000*%
%ADD11C,1.000000*%
G04 APERTURE END LIST*
D10*
X82859714Y-132518571D02*
X83359714Y-134018571D01*
X83859714Y-132518571D01*
X85145428Y-134018571D02*
X84288285Y-134018571D01*
X84716857Y-134018571D02*
X84716857Y-132518571D01*
X84574000Y-132732857D01*
X84431142Y-132875714D01*
X84288285Y-132947142D01*
X76788285Y-135211428D02*
X76859714Y-135140000D01*
X77002571Y-135068571D01*
X77359714Y-135068571D01*
X77502571Y-135140000D01*
X77574000Y-135211428D01*
X77645428Y-135354285D01*
X77645428Y-135497142D01*
X77574000Y-135711428D01*
X76716857Y-136568571D01*
X77645428Y-136568571D01*
X78574000Y-135068571D02*
X78716857Y-135068571D01*
X78859714Y-135140000D01*
X78931142Y-135211428D01*
X79002571Y-135354285D01*
X79074000Y-135640000D01*
X79074000Y-135997142D01*
X79002571Y-136282857D01*
X78931142Y-136425714D01*
X78859714Y-136497142D01*
X78716857Y-136568571D01*
X78574000Y-136568571D01*
X78431142Y-136497142D01*
X78359714Y-136425714D01*
X78288285Y-136282857D01*
X78216857Y-135997142D01*
X78216857Y-135640000D01*
X78288285Y-135354285D01*
X78359714Y-135211428D01*
X78431142Y-135140000D01*
X78574000Y-135068571D01*
X79645428Y-135211428D02*
X79716857Y-135140000D01*
X79859714Y-135068571D01*
X80216857Y-135068571D01*
X80359714Y-135140000D01*
X80431142Y-135211428D01*
X80502571Y-135354285D01*
X80502571Y-135497142D01*
X80431142Y-135711428D01*
X79574000Y-136568571D01*
X80502571Y-136568571D01*
X81431142Y-135068571D02*
X81574000Y-135068571D01*
X81716857Y-135140000D01*
X81788285Y-135211428D01*
X81859714Y-135354285D01*
X81931142Y-135640000D01*
X81931142Y-135997142D01*
X81859714Y-136282857D01*
X81788285Y-136425714D01*
X81716857Y-136497142D01*
X81574000Y-136568571D01*
X81431142Y-136568571D01*
X81288285Y-136497142D01*
X81216857Y-136425714D01*
X81145428Y-136282857D01*
X81074000Y-135997142D01*
X81074000Y-135640000D01*
X81145428Y-135354285D01*
X81216857Y-135211428D01*
X81288285Y-135140000D01*
X81431142Y-135068571D01*
X82574000Y-135997142D02*
X83716857Y-135997142D01*
X85216857Y-136568571D02*
X84359714Y-136568571D01*
X84788285Y-136568571D02*
X84788285Y-135068571D01*
X84645428Y-135282857D01*
X84502571Y-135425714D01*
X84359714Y-135497142D01*
X85788285Y-135211428D02*
X85859714Y-135140000D01*
X86002571Y-135068571D01*
X86359714Y-135068571D01*
X86502571Y-135140000D01*
X86574000Y-135211428D01*
X86645428Y-135354285D01*
X86645428Y-135497142D01*
X86574000Y-135711428D01*
X85716857Y-136568571D01*
X86645428Y-136568571D01*
X87288285Y-135997142D02*
X88431142Y-135997142D01*
X89074000Y-135211428D02*
X89145428Y-135140000D01*
X89288285Y-135068571D01*
X89645428Y-135068571D01*
X89788285Y-135140000D01*
X89859714Y-135211428D01*
X89931142Y-135354285D01*
X89931142Y-135497142D01*
X89859714Y-135711428D01*
X89002571Y-136568571D01*
X89931142Y-136568571D01*
X90645428Y-136568571D02*
X90931142Y-136568571D01*
X91074000Y-136497142D01*
X91145428Y-136425714D01*
X91288285Y-136211428D01*
X91359714Y-135925714D01*
X91359714Y-135354285D01*
X91288285Y-135211428D01*
X91216857Y-135140000D01*
X91074000Y-135068571D01*
X90788285Y-135068571D01*
X90645428Y-135140000D01*
X90574000Y-135211428D01*
X90502571Y-135354285D01*
X90502571Y-135711428D01*
X90574000Y-135854285D01*
X90645428Y-135925714D01*
X90788285Y-135997142D01*
X91074000Y-135997142D01*
X91216857Y-135925714D01*
X91288285Y-135854285D01*
X91359714Y-135711428D01*
X76895428Y-139118571D02*
X76895428Y-137618571D01*
X77752571Y-139118571D02*
X77109714Y-138261428D01*
X77752571Y-137618571D02*
X76895428Y-138475714D01*
X78395428Y-138118571D02*
X78395428Y-139118571D01*
X78395428Y-138261428D02*
X78466857Y-138190000D01*
X78609714Y-138118571D01*
X78824000Y-138118571D01*
X78966857Y-138190000D01*
X79038285Y-138332857D01*
X79038285Y-139118571D01*
X79966857Y-139118571D02*
X79824000Y-139047142D01*
X79752571Y-138975714D01*
X79681142Y-138832857D01*
X79681142Y-138404285D01*
X79752571Y-138261428D01*
X79824000Y-138190000D01*
X79966857Y-138118571D01*
X80181142Y-138118571D01*
X80324000Y-138190000D01*
X80395428Y-138261428D01*
X80466857Y-138404285D01*
X80466857Y-138832857D01*
X80395428Y-138975714D01*
X80324000Y-139047142D01*
X80181142Y-139118571D01*
X79966857Y-139118571D01*
X81109714Y-139118571D02*
X81109714Y-137618571D01*
X81109714Y-138190000D02*
X81252571Y-138118571D01*
X81538285Y-138118571D01*
X81681142Y-138190000D01*
X81752571Y-138261428D01*
X81824000Y-138404285D01*
X81824000Y-138832857D01*
X81752571Y-138975714D01*
X81681142Y-139047142D01*
X81538285Y-139118571D01*
X81252571Y-139118571D01*
X81109714Y-139047142D01*
X84109714Y-138332857D02*
X83609714Y-138332857D01*
X83609714Y-139118571D02*
X83609714Y-137618571D01*
X84324000Y-137618571D01*
X85109714Y-139118571D02*
X84966857Y-139047142D01*
X84895428Y-138975714D01*
X84824000Y-138832857D01*
X84824000Y-138404285D01*
X84895428Y-138261428D01*
X84966857Y-138190000D01*
X85109714Y-138118571D01*
X85324000Y-138118571D01*
X85466857Y-138190000D01*
X85538285Y-138261428D01*
X85609714Y-138404285D01*
X85609714Y-138832857D01*
X85538285Y-138975714D01*
X85466857Y-139047142D01*
X85324000Y-139118571D01*
X85109714Y-139118571D01*
X86252571Y-138118571D02*
X86252571Y-139118571D01*
X86252571Y-138261428D02*
X86324000Y-138190000D01*
X86466857Y-138118571D01*
X86681142Y-138118571D01*
X86824000Y-138190000D01*
X86895428Y-138332857D01*
X86895428Y-139118571D01*
X88252571Y-139118571D02*
X88252571Y-137618571D01*
X88252571Y-139047142D02*
X88109714Y-139118571D01*
X87824000Y-139118571D01*
X87681142Y-139047142D01*
X87609714Y-138975714D01*
X87538285Y-138832857D01*
X87538285Y-138404285D01*
X87609714Y-138261428D01*
X87681142Y-138190000D01*
X87824000Y-138118571D01*
X88109714Y-138118571D01*
X88252571Y-138190000D01*
X89181142Y-139118571D02*
X89038285Y-139047142D01*
X88966857Y-138904285D01*
X88966857Y-137618571D01*
X90324000Y-139047142D02*
X90181142Y-139118571D01*
X89895428Y-139118571D01*
X89752571Y-139047142D01*
X89681142Y-138904285D01*
X89681142Y-138332857D01*
X89752571Y-138190000D01*
X89895428Y-138118571D01*
X90181142Y-138118571D01*
X90324000Y-138190000D01*
X90395428Y-138332857D01*
X90395428Y-138475714D01*
X89681142Y-138618571D01*
X91038285Y-139118571D02*
X91038285Y-138118571D01*
X91038285Y-138404285D02*
X91109714Y-138261428D01*
X91181142Y-138190000D01*
X91324000Y-138118571D01*
X91466857Y-138118571D01*
D11*
X80417238Y-19311714D02*
X80179142Y-19549809D01*
X79464857Y-19787904D01*
X78988666Y-19787904D01*
X78274380Y-19549809D01*
X77798190Y-19073619D01*
X77560095Y-18597428D01*
X77322000Y-17645047D01*
X77322000Y-16930761D01*
X77560095Y-15978380D01*
X77798190Y-15502190D01*
X78274380Y-15026000D01*
X78988666Y-14787904D01*
X79464857Y-14787904D01*
X80179142Y-15026000D01*
X80417238Y-15264095D01*
X81845809Y-14787904D02*
X83512476Y-19787904D01*
X85179142Y-14787904D01*
X90655333Y-17168857D02*
X92322000Y-17168857D01*
X93036285Y-19787904D02*
X90655333Y-19787904D01*
X90655333Y-14787904D01*
X93036285Y-14787904D01*
X94702952Y-19787904D02*
X97322000Y-16454571D01*
X94702952Y-16454571D02*
X97322000Y-19787904D01*
X98512476Y-16454571D02*
X100417238Y-16454571D01*
X99226761Y-14787904D02*
X99226761Y-19073619D01*
X99464857Y-19549809D01*
X99941047Y-19787904D01*
X100417238Y-19787904D01*
X102083904Y-19787904D02*
X102083904Y-16454571D01*
X102083904Y-17406952D02*
X102322000Y-16930761D01*
X102560095Y-16692666D01*
X103036285Y-16454571D01*
X103512476Y-16454571D01*
X107322000Y-19787904D02*
X107322000Y-17168857D01*
X107083904Y-16692666D01*
X106607714Y-16454571D01*
X105655333Y-16454571D01*
X105179142Y-16692666D01*
X107322000Y-19549809D02*
X106845809Y-19787904D01*
X105655333Y-19787904D01*
X105179142Y-19549809D01*
X104941047Y-19073619D01*
X104941047Y-18597428D01*
X105179142Y-18121238D01*
X105655333Y-17883142D01*
X106845809Y-17883142D01*
X107322000Y-17645047D01*
X111845809Y-19549809D02*
X111369619Y-19787904D01*
X110417238Y-19787904D01*
X109941047Y-19549809D01*
X109702952Y-19311714D01*
X109464857Y-18835523D01*
X109464857Y-17406952D01*
X109702952Y-16930761D01*
X109941047Y-16692666D01*
X110417238Y-16454571D01*
X111369619Y-16454571D01*
X111845809Y-16692666D01*
X113274380Y-16454571D02*
X115179142Y-16454571D01*
X113988666Y-14787904D02*
X113988666Y-19073619D01*
X114226761Y-19549809D01*
X114702952Y-19787904D01*
X115179142Y-19787904D01*
X117560095Y-19787904D02*
X117083904Y-19549809D01*
X116845809Y-19311714D01*
X116607714Y-18835523D01*
X116607714Y-17406952D01*
X116845809Y-16930761D01*
X117083904Y-16692666D01*
X117560095Y-16454571D01*
X118274380Y-16454571D01*
X118750571Y-16692666D01*
X118988666Y-16930761D01*
X119226761Y-17406952D01*
X119226761Y-18835523D01*
X118988666Y-19311714D01*
X118750571Y-19549809D01*
X118274380Y-19787904D01*
X117560095Y-19787904D01*
X121369619Y-19787904D02*
X121369619Y-16454571D01*
X121369619Y-17406952D02*
X121607714Y-16930761D01*
X121845809Y-16692666D01*
X122322000Y-16454571D01*
X122798190Y-16454571D01*
D10*
X84157428Y-61384571D02*
X84157428Y-59884571D01*
X84871714Y-60384571D02*
X84871714Y-61384571D01*
X84871714Y-60527428D02*
X84943142Y-60456000D01*
X85086000Y-60384571D01*
X85300285Y-60384571D01*
X85443142Y-60456000D01*
X85514571Y-60598857D01*
X85514571Y-61384571D01*
X112542000Y-60138571D02*
X112827714Y-60138571D01*
X112970571Y-60210000D01*
X113113428Y-60352857D01*
X113184857Y-60638571D01*
X113184857Y-61138571D01*
X113113428Y-61424285D01*
X112970571Y-61567142D01*
X112827714Y-61638571D01*
X112542000Y-61638571D01*
X112399142Y-61567142D01*
X112256285Y-61424285D01*
X112184857Y-61138571D01*
X112184857Y-60638571D01*
X112256285Y-60352857D01*
X112399142Y-60210000D01*
X112542000Y-60138571D01*
X114470571Y-60638571D02*
X114470571Y-61638571D01*
X113827714Y-60638571D02*
X113827714Y-61424285D01*
X113899142Y-61567142D01*
X114042000Y-61638571D01*
X114256285Y-61638571D01*
X114399142Y-61567142D01*
X114470571Y-61495714D01*
X114970571Y-60638571D02*
X115542000Y-60638571D01*
X115184857Y-60138571D02*
X115184857Y-61424285D01*
X115256285Y-61567142D01*
X115399142Y-61638571D01*
X115542000Y-61638571D01*
X94897428Y-58447714D02*
X94826000Y-58519142D01*
X94611714Y-58590571D01*
X94468857Y-58590571D01*
X94254571Y-58519142D01*
X94111714Y-58376285D01*
X94040285Y-58233428D01*
X93968857Y-57947714D01*
X93968857Y-57733428D01*
X94040285Y-57447714D01*
X94111714Y-57304857D01*
X94254571Y-57162000D01*
X94468857Y-57090571D01*
X94611714Y-57090571D01*
X94826000Y-57162000D01*
X94897428Y-57233428D01*
X96183142Y-57590571D02*
X96183142Y-58590571D01*
X95540285Y-57590571D02*
X95540285Y-58376285D01*
X95611714Y-58519142D01*
X95754571Y-58590571D01*
X95968857Y-58590571D01*
X96111714Y-58519142D01*
X96183142Y-58447714D01*
X96683142Y-57590571D02*
X97254571Y-57590571D01*
X96897428Y-57090571D02*
X96897428Y-58376285D01*
X96968857Y-58519142D01*
X97111714Y-58590571D01*
X97254571Y-58590571D01*
X97968857Y-58590571D02*
X97826000Y-58519142D01*
X97754571Y-58447714D01*
X97683142Y-58304857D01*
X97683142Y-57876285D01*
X97754571Y-57733428D01*
X97826000Y-57662000D01*
X97968857Y-57590571D01*
X98183142Y-57590571D01*
X98326000Y-57662000D01*
X98397428Y-57733428D01*
X98468857Y-57876285D01*
X98468857Y-58304857D01*
X98397428Y-58447714D01*
X98326000Y-58519142D01*
X98183142Y-58590571D01*
X97968857Y-58590571D01*
X98897428Y-57590571D02*
X99468857Y-57590571D01*
X99111714Y-58590571D02*
X99111714Y-57304857D01*
X99183142Y-57162000D01*
X99326000Y-57090571D01*
X99468857Y-57090571D01*
X99754571Y-57590571D02*
X100326000Y-57590571D01*
X99968857Y-58590571D02*
X99968857Y-57304857D01*
X100040285Y-57162000D01*
X100183142Y-57090571D01*
X100326000Y-57090571D01*
X102468857Y-57804857D02*
X101968857Y-57804857D01*
X101968857Y-58590571D02*
X101968857Y-57090571D01*
X102683142Y-57090571D01*
X103254571Y-58590571D02*
X103254571Y-57590571D01*
X103254571Y-57876285D02*
X103326000Y-57733428D01*
X103397428Y-57662000D01*
X103540285Y-57590571D01*
X103683142Y-57590571D01*
X104754571Y-58519142D02*
X104611714Y-58590571D01*
X104326000Y-58590571D01*
X104183142Y-58519142D01*
X104111714Y-58376285D01*
X104111714Y-57804857D01*
X104183142Y-57662000D01*
X104326000Y-57590571D01*
X104611714Y-57590571D01*
X104754571Y-57662000D01*
X104826000Y-57804857D01*
X104826000Y-57947714D01*
X104111714Y-58090571D01*
X106111714Y-57590571D02*
X106111714Y-59090571D01*
X106111714Y-58519142D02*
X105968857Y-58590571D01*
X105683142Y-58590571D01*
X105540285Y-58519142D01*
X105468857Y-58447714D01*
X105397428Y-58304857D01*
X105397428Y-57876285D01*
X105468857Y-57733428D01*
X105540285Y-57662000D01*
X105683142Y-57590571D01*
X105968857Y-57590571D01*
X106111714Y-57662000D01*
M02*
