M48
; DRILL file {KiCad 5.1.7-a382d34a8~88~ubuntu18.04.1} date Tue Apr 19 18:24:55 2022
; FORMAT={-:-/ absolute / inch / decimal}
; #@! TF.CreationDate,2022-04-19T18:24:55-07:00
; #@! TF.GenerationSoftware,Kicad,Pcbnew,5.1.7-a382d34a8~88~ubuntu18.04.1
; #@! TF.FileFunction,Plated,1,2,PTH
FMAT,2
INCH
T1C0.0157
T2C0.0197
T3C0.0236
T4C0.0354
T5C0.0430
T6C0.0433
T7C0.0748
T8C0.1024
T9C0.1181
%
G90
G05
T1
X3.4528Y-3.1142
X3.5285Y-3.44
X3.5285Y-3.5778
X3.6024Y-3.435
X3.6024Y-3.5531
X3.6464Y-2.9023
X3.6516Y-3.5138
X3.7008Y-1.9646
X3.7087Y-2.6024
X3.7087Y-3.0591
X3.7442Y-3.4232
X3.7835Y-3.2913
X3.7953Y-3.7441
X3.8386Y-3.3583
X3.8593Y-2.9439
X3.8681Y-3.4941
X3.9311Y-3.4981
X3.9488Y-2.5354
X3.9646Y-4.2087
X3.9764Y-3.4793
X3.9921Y-1.9449
X4.0197Y-2.7835
X4.0374Y-2.9547
X4.0394Y-2.5748
X4.1102Y-3.0472
X4.2047Y-3.4134
X4.2362Y-2.6102
X4.2638Y-3.6535
X4.3209Y-3.7992
X4.3307Y-3.5925
X4.3858Y-3.1575
X4.3917Y-2.6909
X4.4488Y-3.2717
T4
X3.7402Y-3.1713
X3.8189Y-3.1713
X3.8976Y-3.1713
X3.9764Y-3.1713
X4.0551Y-3.1713
X4.1339Y-3.1713
T5
X3.737Y-4.4776
X3.737Y-4.5776
X3.837Y-4.4776
X3.837Y-4.5776
X3.937Y-4.4776
X3.937Y-4.5776
X4.037Y-4.4776
X4.037Y-4.5776
X4.137Y-4.4776
X4.137Y-4.5776
T6
X3.8386Y-2.4409
X3.937Y-2.4409
X4.0354Y-2.4409
X3.8386Y-1.8386
X3.937Y-1.8386
X4.0354Y-1.8386
T9
X3.937Y-1.0827
X3.937Y-4.0846
T2
G00X3.9606Y-1.2764
M15
G01X3.9134Y-1.2764
M16
G05
G00X3.9606Y-4.2783
M15
G01X3.9134Y-4.2783
M16
G05
T3
G00X3.9547Y-0.8276
M15
G01X3.9193Y-0.8276
M16
G05
G00X3.9587Y-0.9496
M15
G01X3.9154Y-0.9496
M16
G05
G00X3.9547Y-3.8295
M15
G01X3.9193Y-3.8295
M16
G05
G00X3.9587Y-3.9516
M15
G01X3.9154Y-3.9516
M16
G05
T7
G00X3.6358Y-2.7461
M15
G01X3.6358Y-2.8091
M16
G05
G00X4.2382Y-2.7461
M15
G01X4.2382Y-2.8091
M16
G05
T8
G00X3.7283Y-2.1594
M15
G01X3.7283Y-2.1713
M16
G05
G00X4.1457Y-2.1594
M15
G01X4.1457Y-2.1713
M16
G05
G00X3.7283Y-1.5571
M15
G01X3.7283Y-1.5689
M16
G05
G00X4.1457Y-1.5571
M15
G01X4.1457Y-1.5689
M16
G05
T0
M30
