%TF.GenerationSoftware,KiCad,Pcbnew,5.1.7-a382d34a8~88~ubuntu18.04.1*%
%TF.CreationDate,2022-04-19T18:24:53-07:00*%
%TF.ProjectId,cv-extractor,63762d65-7874-4726-9163-746f722e6b69,rev?*%
%TF.SameCoordinates,Original*%
%TF.FileFunction,Legend,Top*%
%TF.FilePolarity,Positive*%
%FSLAX46Y46*%
G04 Gerber Fmt 4.6, Leading zero omitted, Abs format (unit mm)*
G04 Created by KiCad (PCBNEW 5.1.7-a382d34a8~88~ubuntu18.04.1) date 2022-04-19 18:24:53*
%MOMM*%
%LPD*%
G01*
G04 APERTURE LIST*
%ADD10C,0.300000*%
%ADD11C,0.120000*%
%ADD12C,0.150000*%
G04 APERTURE END LIST*
D10*
X109285714Y-37321428D02*
X109357142Y-37392857D01*
X109428571Y-37607142D01*
X109428571Y-37750000D01*
X109357142Y-37964285D01*
X109214285Y-38107142D01*
X109071428Y-38178571D01*
X108785714Y-38250000D01*
X108571428Y-38250000D01*
X108285714Y-38178571D01*
X108142857Y-38107142D01*
X108000000Y-37964285D01*
X107928571Y-37750000D01*
X107928571Y-37607142D01*
X108000000Y-37392857D01*
X108071428Y-37321428D01*
X107928571Y-36892857D02*
X109428571Y-36392857D01*
X107928571Y-35892857D01*
X108642857Y-34250000D02*
X108642857Y-33750000D01*
X109428571Y-33535714D02*
X109428571Y-34250000D01*
X107928571Y-34250000D01*
X107928571Y-33535714D01*
X109428571Y-33035714D02*
X108428571Y-32250000D01*
X108428571Y-33035714D02*
X109428571Y-32250000D01*
X108428571Y-31892857D02*
X108428571Y-31321428D01*
X107928571Y-31678571D02*
X109214285Y-31678571D01*
X109357142Y-31607142D01*
X109428571Y-31464285D01*
X109428571Y-31321428D01*
X109428571Y-30821428D02*
X108428571Y-30821428D01*
X108714285Y-30821428D02*
X108571428Y-30750000D01*
X108500000Y-30678571D01*
X108428571Y-30535714D01*
X108428571Y-30392857D01*
X109428571Y-29250000D02*
X108642857Y-29250000D01*
X108500000Y-29321428D01*
X108428571Y-29464285D01*
X108428571Y-29750000D01*
X108500000Y-29892857D01*
X109357142Y-29250000D02*
X109428571Y-29392857D01*
X109428571Y-29750000D01*
X109357142Y-29892857D01*
X109214285Y-29964285D01*
X109071428Y-29964285D01*
X108928571Y-29892857D01*
X108857142Y-29750000D01*
X108857142Y-29392857D01*
X108785714Y-29250000D01*
X109357142Y-27892857D02*
X109428571Y-28035714D01*
X109428571Y-28321428D01*
X109357142Y-28464285D01*
X109285714Y-28535714D01*
X109142857Y-28607142D01*
X108714285Y-28607142D01*
X108571428Y-28535714D01*
X108500000Y-28464285D01*
X108428571Y-28321428D01*
X108428571Y-28035714D01*
X108500000Y-27892857D01*
X108428571Y-27464285D02*
X108428571Y-26892857D01*
X107928571Y-27250000D02*
X109214285Y-27250000D01*
X109357142Y-27178571D01*
X109428571Y-27035714D01*
X109428571Y-26892857D01*
X109428571Y-26178571D02*
X109357142Y-26321428D01*
X109285714Y-26392857D01*
X109142857Y-26464285D01*
X108714285Y-26464285D01*
X108571428Y-26392857D01*
X108500000Y-26321428D01*
X108428571Y-26178571D01*
X108428571Y-25964285D01*
X108500000Y-25821428D01*
X108571428Y-25750000D01*
X108714285Y-25678571D01*
X109142857Y-25678571D01*
X109285714Y-25750000D01*
X109357142Y-25821428D01*
X109428571Y-25964285D01*
X109428571Y-26178571D01*
X109428571Y-25035714D02*
X108428571Y-25035714D01*
X108714285Y-25035714D02*
X108571428Y-24964285D01*
X108500000Y-24892857D01*
X108428571Y-24750000D01*
X108428571Y-24607142D01*
X110478571Y-40857142D02*
X111978571Y-40357142D01*
X110478571Y-39857142D01*
X110978571Y-38714285D02*
X111978571Y-38714285D01*
X110407142Y-39071428D02*
X111478571Y-39428571D01*
X111478571Y-38500000D01*
X110621428Y-36857142D02*
X110550000Y-36785714D01*
X110478571Y-36642857D01*
X110478571Y-36285714D01*
X110550000Y-36142857D01*
X110621428Y-36071428D01*
X110764285Y-36000000D01*
X110907142Y-36000000D01*
X111121428Y-36071428D01*
X111978571Y-36928571D01*
X111978571Y-36000000D01*
X110478571Y-35071428D02*
X110478571Y-34928571D01*
X110550000Y-34785714D01*
X110621428Y-34714285D01*
X110764285Y-34642857D01*
X111050000Y-34571428D01*
X111407142Y-34571428D01*
X111692857Y-34642857D01*
X111835714Y-34714285D01*
X111907142Y-34785714D01*
X111978571Y-34928571D01*
X111978571Y-35071428D01*
X111907142Y-35214285D01*
X111835714Y-35285714D01*
X111692857Y-35357142D01*
X111407142Y-35428571D01*
X111050000Y-35428571D01*
X110764285Y-35357142D01*
X110621428Y-35285714D01*
X110550000Y-35214285D01*
X110478571Y-35071428D01*
X110621428Y-34000000D02*
X110550000Y-33928571D01*
X110478571Y-33785714D01*
X110478571Y-33428571D01*
X110550000Y-33285714D01*
X110621428Y-33214285D01*
X110764285Y-33142857D01*
X110907142Y-33142857D01*
X111121428Y-33214285D01*
X111978571Y-34071428D01*
X111978571Y-33142857D01*
X110621428Y-32571428D02*
X110550000Y-32500000D01*
X110478571Y-32357142D01*
X110478571Y-32000000D01*
X110550000Y-31857142D01*
X110621428Y-31785714D01*
X110764285Y-31714285D01*
X110907142Y-31714285D01*
X111121428Y-31785714D01*
X111978571Y-32642857D01*
X111978571Y-31714285D01*
X111407142Y-31071428D02*
X111407142Y-29928571D01*
X110478571Y-28928571D02*
X110478571Y-28785714D01*
X110550000Y-28642857D01*
X110621428Y-28571428D01*
X110764285Y-28500000D01*
X111050000Y-28428571D01*
X111407142Y-28428571D01*
X111692857Y-28500000D01*
X111835714Y-28571428D01*
X111907142Y-28642857D01*
X111978571Y-28785714D01*
X111978571Y-28928571D01*
X111907142Y-29071428D01*
X111835714Y-29142857D01*
X111692857Y-29214285D01*
X111407142Y-29285714D01*
X111050000Y-29285714D01*
X110764285Y-29214285D01*
X110621428Y-29142857D01*
X110550000Y-29071428D01*
X110478571Y-28928571D01*
X110978571Y-27142857D02*
X111978571Y-27142857D01*
X110407142Y-27500000D02*
X111478571Y-27857142D01*
X111478571Y-26928571D01*
X111407142Y-26357142D02*
X111407142Y-25214285D01*
X110621428Y-24571428D02*
X110550000Y-24500000D01*
X110478571Y-24357142D01*
X110478571Y-24000000D01*
X110550000Y-23857142D01*
X110621428Y-23785714D01*
X110764285Y-23714285D01*
X110907142Y-23714285D01*
X111121428Y-23785714D01*
X111978571Y-24642857D01*
X111978571Y-23714285D01*
X110478571Y-22785714D02*
X110478571Y-22642857D01*
X110550000Y-22500000D01*
X110621428Y-22428571D01*
X110764285Y-22357142D01*
X111050000Y-22285714D01*
X111407142Y-22285714D01*
X111692857Y-22357142D01*
X111835714Y-22428571D01*
X111907142Y-22500000D01*
X111978571Y-22642857D01*
X111978571Y-22785714D01*
X111907142Y-22928571D01*
X111835714Y-23000000D01*
X111692857Y-23071428D01*
X111407142Y-23142857D01*
X111050000Y-23142857D01*
X110764285Y-23071428D01*
X110621428Y-23000000D01*
X110550000Y-22928571D01*
X110478571Y-22785714D01*
X114528571Y-38678571D02*
X113028571Y-38678571D01*
X114528571Y-37821428D02*
X113671428Y-38464285D01*
X113028571Y-37821428D02*
X113885714Y-38678571D01*
X113528571Y-37178571D02*
X114528571Y-37178571D01*
X113671428Y-37178571D02*
X113600000Y-37107142D01*
X113528571Y-36964285D01*
X113528571Y-36750000D01*
X113600000Y-36607142D01*
X113742857Y-36535714D01*
X114528571Y-36535714D01*
X114528571Y-35607142D02*
X114457142Y-35750000D01*
X114385714Y-35821428D01*
X114242857Y-35892857D01*
X113814285Y-35892857D01*
X113671428Y-35821428D01*
X113600000Y-35750000D01*
X113528571Y-35607142D01*
X113528571Y-35392857D01*
X113600000Y-35250000D01*
X113671428Y-35178571D01*
X113814285Y-35107142D01*
X114242857Y-35107142D01*
X114385714Y-35178571D01*
X114457142Y-35250000D01*
X114528571Y-35392857D01*
X114528571Y-35607142D01*
X114528571Y-34464285D02*
X113028571Y-34464285D01*
X113600000Y-34464285D02*
X113528571Y-34321428D01*
X113528571Y-34035714D01*
X113600000Y-33892857D01*
X113671428Y-33821428D01*
X113814285Y-33750000D01*
X114242857Y-33750000D01*
X114385714Y-33821428D01*
X114457142Y-33892857D01*
X114528571Y-34035714D01*
X114528571Y-34321428D01*
X114457142Y-34464285D01*
X113742857Y-31464285D02*
X113742857Y-31964285D01*
X114528571Y-31964285D02*
X113028571Y-31964285D01*
X113028571Y-31250000D01*
X114528571Y-30464285D02*
X114457142Y-30607142D01*
X114385714Y-30678571D01*
X114242857Y-30750000D01*
X113814285Y-30750000D01*
X113671428Y-30678571D01*
X113600000Y-30607142D01*
X113528571Y-30464285D01*
X113528571Y-30250000D01*
X113600000Y-30107142D01*
X113671428Y-30035714D01*
X113814285Y-29964285D01*
X114242857Y-29964285D01*
X114385714Y-30035714D01*
X114457142Y-30107142D01*
X114528571Y-30250000D01*
X114528571Y-30464285D01*
X113528571Y-29321428D02*
X114528571Y-29321428D01*
X113671428Y-29321428D02*
X113600000Y-29250000D01*
X113528571Y-29107142D01*
X113528571Y-28892857D01*
X113600000Y-28750000D01*
X113742857Y-28678571D01*
X114528571Y-28678571D01*
X114528571Y-27321428D02*
X113028571Y-27321428D01*
X114457142Y-27321428D02*
X114528571Y-27464285D01*
X114528571Y-27750000D01*
X114457142Y-27892857D01*
X114385714Y-27964285D01*
X114242857Y-28035714D01*
X113814285Y-28035714D01*
X113671428Y-27964285D01*
X113600000Y-27892857D01*
X113528571Y-27750000D01*
X113528571Y-27464285D01*
X113600000Y-27321428D01*
X114528571Y-26392857D02*
X114457142Y-26535714D01*
X114314285Y-26607142D01*
X113028571Y-26607142D01*
X114457142Y-25250000D02*
X114528571Y-25392857D01*
X114528571Y-25678571D01*
X114457142Y-25821428D01*
X114314285Y-25892857D01*
X113742857Y-25892857D01*
X113600000Y-25821428D01*
X113528571Y-25678571D01*
X113528571Y-25392857D01*
X113600000Y-25250000D01*
X113742857Y-25178571D01*
X113885714Y-25178571D01*
X114028571Y-25892857D01*
X114528571Y-24535714D02*
X113528571Y-24535714D01*
X113814285Y-24535714D02*
X113671428Y-24464285D01*
X113600000Y-24392857D01*
X113528571Y-24250000D01*
X113528571Y-24107142D01*
D11*
%TO.C,J2*%
X104500000Y-109750000D02*
X95500000Y-109750000D01*
X104500000Y-96450000D02*
X95500000Y-96450000D01*
X95500000Y-109750000D02*
X95500000Y-96450000D01*
X104500000Y-109750000D02*
X104500000Y-96450000D01*
%TO.C,J1*%
X104500000Y-33500000D02*
X95500000Y-33500000D01*
X104500000Y-20200000D02*
X95500000Y-20200000D01*
X95500000Y-33500000D02*
X95500000Y-20200000D01*
X104500000Y-33500000D02*
X104500000Y-20200000D01*
%TO.C,RV1*%
X106000000Y-70550000D02*
G75*
G03*
X106000000Y-70550000I-6000000J0D01*
G01*
X90033000Y-64294000D02*
X110033000Y-64294000D01*
X110000000Y-64350000D02*
X110000000Y-81550000D01*
X90000000Y-81550000D02*
X110000000Y-81550000D01*
X89967000Y-81550000D02*
X89967000Y-64350000D01*
%TO.C,RV2*%
X107500000Y-33700000D02*
X107500000Y-48700000D01*
X107500000Y-48700000D02*
X92500000Y-48700000D01*
X92500000Y-48700000D02*
X92500000Y-33700000D01*
X92500000Y-33700000D02*
X107500000Y-33700000D01*
%TO.C,RV3*%
X107500000Y-49000000D02*
X107500000Y-64000000D01*
X107500000Y-64000000D02*
X92500000Y-64000000D01*
X92500000Y-64000000D02*
X92500000Y-49000000D01*
X92500000Y-49000000D02*
X107500000Y-49000000D01*
%TO.C,J2*%
D12*
X94682142Y-105336904D02*
X94729761Y-105384523D01*
X94777380Y-105527380D01*
X94777380Y-105622619D01*
X94729761Y-105765476D01*
X94634523Y-105860714D01*
X94539285Y-105908333D01*
X94348809Y-105955952D01*
X94205952Y-105955952D01*
X94015476Y-105908333D01*
X93920238Y-105860714D01*
X93825000Y-105765476D01*
X93777380Y-105622619D01*
X93777380Y-105527380D01*
X93825000Y-105384523D01*
X93872619Y-105336904D01*
X93777380Y-105051190D02*
X94777380Y-104717857D01*
X93777380Y-104384523D01*
X93777380Y-103098809D02*
X93777380Y-102908333D01*
X93825000Y-102813095D01*
X93920238Y-102717857D01*
X94110714Y-102670238D01*
X94444047Y-102670238D01*
X94634523Y-102717857D01*
X94729761Y-102813095D01*
X94777380Y-102908333D01*
X94777380Y-103098809D01*
X94729761Y-103194047D01*
X94634523Y-103289285D01*
X94444047Y-103336904D01*
X94110714Y-103336904D01*
X93920238Y-103289285D01*
X93825000Y-103194047D01*
X93777380Y-103098809D01*
X94110714Y-101813095D02*
X94777380Y-101813095D01*
X94110714Y-102241666D02*
X94634523Y-102241666D01*
X94729761Y-102194047D01*
X94777380Y-102098809D01*
X94777380Y-101955952D01*
X94729761Y-101860714D01*
X94682142Y-101813095D01*
X94110714Y-101479761D02*
X94110714Y-101098809D01*
X93777380Y-101336904D02*
X94634523Y-101336904D01*
X94729761Y-101289285D01*
X94777380Y-101194047D01*
X94777380Y-101098809D01*
%TO.C,J1*%
X93852380Y-29626904D02*
X94852380Y-29388809D01*
X94138095Y-29198333D01*
X94852380Y-29007857D01*
X93852380Y-28769761D01*
X94852380Y-27960238D02*
X94328571Y-27960238D01*
X94233333Y-28007857D01*
X94185714Y-28103095D01*
X94185714Y-28293571D01*
X94233333Y-28388809D01*
X94804761Y-27960238D02*
X94852380Y-28055476D01*
X94852380Y-28293571D01*
X94804761Y-28388809D01*
X94709523Y-28436428D01*
X94614285Y-28436428D01*
X94519047Y-28388809D01*
X94471428Y-28293571D01*
X94471428Y-28055476D01*
X94423809Y-27960238D01*
X94185714Y-27579285D02*
X94852380Y-27341190D01*
X94185714Y-27103095D01*
X94804761Y-26341190D02*
X94852380Y-26436428D01*
X94852380Y-26626904D01*
X94804761Y-26722142D01*
X94709523Y-26769761D01*
X94328571Y-26769761D01*
X94233333Y-26722142D01*
X94185714Y-26626904D01*
X94185714Y-26436428D01*
X94233333Y-26341190D01*
X94328571Y-26293571D01*
X94423809Y-26293571D01*
X94519047Y-26769761D01*
X94852380Y-25103095D02*
X93852380Y-25103095D01*
X94185714Y-24626904D02*
X94852380Y-24626904D01*
X94280952Y-24626904D02*
X94233333Y-24579285D01*
X94185714Y-24484047D01*
X94185714Y-24341190D01*
X94233333Y-24245952D01*
X94328571Y-24198333D01*
X94852380Y-24198333D01*
%TO.C,RV1*%
X111232142Y-73227380D02*
X111279761Y-73275000D01*
X111327380Y-73417857D01*
X111327380Y-73513095D01*
X111279761Y-73655952D01*
X111184523Y-73751190D01*
X111089285Y-73798809D01*
X110898809Y-73846428D01*
X110755952Y-73846428D01*
X110565476Y-73798809D01*
X110470238Y-73751190D01*
X110375000Y-73655952D01*
X110327380Y-73513095D01*
X110327380Y-73417857D01*
X110375000Y-73275000D01*
X110422619Y-73227380D01*
X110660714Y-72370238D02*
X111327380Y-72370238D01*
X110660714Y-72798809D02*
X111184523Y-72798809D01*
X111279761Y-72751190D01*
X111327380Y-72655952D01*
X111327380Y-72513095D01*
X111279761Y-72417857D01*
X111232142Y-72370238D01*
X110660714Y-72036904D02*
X110660714Y-71655952D01*
X110327380Y-71894047D02*
X111184523Y-71894047D01*
X111279761Y-71846428D01*
X111327380Y-71751190D01*
X111327380Y-71655952D01*
X111327380Y-71179761D02*
X111279761Y-71275000D01*
X111232142Y-71322619D01*
X111136904Y-71370238D01*
X110851190Y-71370238D01*
X110755952Y-71322619D01*
X110708333Y-71275000D01*
X110660714Y-71179761D01*
X110660714Y-71036904D01*
X110708333Y-70941666D01*
X110755952Y-70894047D01*
X110851190Y-70846428D01*
X111136904Y-70846428D01*
X111232142Y-70894047D01*
X111279761Y-70941666D01*
X111327380Y-71036904D01*
X111327380Y-71179761D01*
X110660714Y-70560714D02*
X110660714Y-70179761D01*
X111327380Y-70417857D02*
X110470238Y-70417857D01*
X110375000Y-70370238D01*
X110327380Y-70275000D01*
X110327380Y-70179761D01*
X110660714Y-69989285D02*
X110660714Y-69608333D01*
X111327380Y-69846428D02*
X110470238Y-69846428D01*
X110375000Y-69798809D01*
X110327380Y-69703571D01*
X110327380Y-69608333D01*
%TO.C,RV2*%
X91852380Y-36095238D02*
X91376190Y-36428571D01*
X91852380Y-36666666D02*
X90852380Y-36666666D01*
X90852380Y-36285714D01*
X90900000Y-36190476D01*
X90947619Y-36142857D01*
X91042857Y-36095238D01*
X91185714Y-36095238D01*
X91280952Y-36142857D01*
X91328571Y-36190476D01*
X91376190Y-36285714D01*
X91376190Y-36666666D01*
X90852380Y-35809523D02*
X91852380Y-35476190D01*
X90852380Y-35142857D01*
X90947619Y-34857142D02*
X90900000Y-34809523D01*
X90852380Y-34714285D01*
X90852380Y-34476190D01*
X90900000Y-34380952D01*
X90947619Y-34333333D01*
X91042857Y-34285714D01*
X91138095Y-34285714D01*
X91280952Y-34333333D01*
X91852380Y-34904761D01*
X91852380Y-34285714D01*
X92052380Y-47495238D02*
X92052380Y-48066666D01*
X92052380Y-47780952D02*
X91052380Y-47780952D01*
X91195238Y-47876190D01*
X91290476Y-47971428D01*
X91338095Y-48066666D01*
X91052380Y-46876190D02*
X91052380Y-46780952D01*
X91100000Y-46685714D01*
X91147619Y-46638095D01*
X91242857Y-46590476D01*
X91433333Y-46542857D01*
X91671428Y-46542857D01*
X91861904Y-46590476D01*
X91957142Y-46638095D01*
X92004761Y-46685714D01*
X92052380Y-46780952D01*
X92052380Y-46876190D01*
X92004761Y-46971428D01*
X91957142Y-47019047D01*
X91861904Y-47066666D01*
X91671428Y-47114285D01*
X91433333Y-47114285D01*
X91242857Y-47066666D01*
X91147619Y-47019047D01*
X91100000Y-46971428D01*
X91052380Y-46876190D01*
X92052380Y-46114285D02*
X91052380Y-46114285D01*
X91671428Y-46019047D02*
X92052380Y-45733333D01*
X91385714Y-45733333D02*
X91766666Y-46114285D01*
X92052380Y-44666666D02*
X91052380Y-44666666D01*
X91385714Y-44190476D02*
X92052380Y-44190476D01*
X91480952Y-44190476D02*
X91433333Y-44142857D01*
X91385714Y-44047619D01*
X91385714Y-43904761D01*
X91433333Y-43809523D01*
X91528571Y-43761904D01*
X92052380Y-43761904D01*
X91385714Y-43285714D02*
X92385714Y-43285714D01*
X91433333Y-43285714D02*
X91385714Y-43190476D01*
X91385714Y-43000000D01*
X91433333Y-42904761D01*
X91480952Y-42857142D01*
X91576190Y-42809523D01*
X91861904Y-42809523D01*
X91957142Y-42857142D01*
X92004761Y-42904761D01*
X92052380Y-43000000D01*
X92052380Y-43190476D01*
X92004761Y-43285714D01*
X91385714Y-41952380D02*
X92052380Y-41952380D01*
X91385714Y-42380952D02*
X91909523Y-42380952D01*
X92004761Y-42333333D01*
X92052380Y-42238095D01*
X92052380Y-42095238D01*
X92004761Y-42000000D01*
X91957142Y-41952380D01*
X91385714Y-41619047D02*
X91385714Y-41238095D01*
X91052380Y-41476190D02*
X91909523Y-41476190D01*
X92004761Y-41428571D01*
X92052380Y-41333333D01*
X92052380Y-41238095D01*
X91100000Y-39619047D02*
X91052380Y-39714285D01*
X91052380Y-39857142D01*
X91100000Y-40000000D01*
X91195238Y-40095238D01*
X91290476Y-40142857D01*
X91480952Y-40190476D01*
X91623809Y-40190476D01*
X91814285Y-40142857D01*
X91909523Y-40095238D01*
X92004761Y-40000000D01*
X92052380Y-39857142D01*
X92052380Y-39761904D01*
X92004761Y-39619047D01*
X91957142Y-39571428D01*
X91623809Y-39571428D01*
X91623809Y-39761904D01*
X92052380Y-38714285D02*
X91528571Y-38714285D01*
X91433333Y-38761904D01*
X91385714Y-38857142D01*
X91385714Y-39047619D01*
X91433333Y-39142857D01*
X92004761Y-38714285D02*
X92052380Y-38809523D01*
X92052380Y-39047619D01*
X92004761Y-39142857D01*
X91909523Y-39190476D01*
X91814285Y-39190476D01*
X91719047Y-39142857D01*
X91671428Y-39047619D01*
X91671428Y-38809523D01*
X91623809Y-38714285D01*
X92052380Y-38238095D02*
X91385714Y-38238095D01*
X91052380Y-38238095D02*
X91100000Y-38285714D01*
X91147619Y-38238095D01*
X91100000Y-38190476D01*
X91052380Y-38238095D01*
X91147619Y-38238095D01*
X91385714Y-37761904D02*
X92052380Y-37761904D01*
X91480952Y-37761904D02*
X91433333Y-37714285D01*
X91385714Y-37619047D01*
X91385714Y-37476190D01*
X91433333Y-37380952D01*
X91528571Y-37333333D01*
X92052380Y-37333333D01*
%TO.C,RV3*%
X92027380Y-57095238D02*
X91551190Y-57428571D01*
X92027380Y-57666666D02*
X91027380Y-57666666D01*
X91027380Y-57285714D01*
X91075000Y-57190476D01*
X91122619Y-57142857D01*
X91217857Y-57095238D01*
X91360714Y-57095238D01*
X91455952Y-57142857D01*
X91503571Y-57190476D01*
X91551190Y-57285714D01*
X91551190Y-57666666D01*
X91027380Y-56809523D02*
X92027380Y-56476190D01*
X91027380Y-56142857D01*
X91027380Y-55904761D02*
X91027380Y-55285714D01*
X91408333Y-55619047D01*
X91408333Y-55476190D01*
X91455952Y-55380952D01*
X91503571Y-55333333D01*
X91598809Y-55285714D01*
X91836904Y-55285714D01*
X91932142Y-55333333D01*
X91979761Y-55380952D01*
X92027380Y-55476190D01*
X92027380Y-55761904D01*
X91979761Y-55857142D01*
X91932142Y-55904761D01*
X91827380Y-61045238D02*
X91827380Y-61616666D01*
X91827380Y-61330952D02*
X90827380Y-61330952D01*
X90970238Y-61426190D01*
X91065476Y-61521428D01*
X91113095Y-61616666D01*
X90827380Y-60426190D02*
X90827380Y-60330952D01*
X90875000Y-60235714D01*
X90922619Y-60188095D01*
X91017857Y-60140476D01*
X91208333Y-60092857D01*
X91446428Y-60092857D01*
X91636904Y-60140476D01*
X91732142Y-60188095D01*
X91779761Y-60235714D01*
X91827380Y-60330952D01*
X91827380Y-60426190D01*
X91779761Y-60521428D01*
X91732142Y-60569047D01*
X91636904Y-60616666D01*
X91446428Y-60664285D01*
X91208333Y-60664285D01*
X91017857Y-60616666D01*
X90922619Y-60569047D01*
X90875000Y-60521428D01*
X90827380Y-60426190D01*
X91827380Y-59664285D02*
X90827380Y-59664285D01*
X91446428Y-59569047D02*
X91827380Y-59283333D01*
X91160714Y-59283333D02*
X91541666Y-59664285D01*
X107852380Y-57547619D02*
X107852380Y-57357142D01*
X107900000Y-57261904D01*
X107995238Y-57166666D01*
X108185714Y-57119047D01*
X108519047Y-57119047D01*
X108709523Y-57166666D01*
X108804761Y-57261904D01*
X108852380Y-57357142D01*
X108852380Y-57547619D01*
X108804761Y-57642857D01*
X108709523Y-57738095D01*
X108519047Y-57785714D01*
X108185714Y-57785714D01*
X107995238Y-57738095D01*
X107900000Y-57642857D01*
X107852380Y-57547619D01*
X108185714Y-56261904D02*
X108852380Y-56261904D01*
X108185714Y-56690476D02*
X108709523Y-56690476D01*
X108804761Y-56642857D01*
X108852380Y-56547619D01*
X108852380Y-56404761D01*
X108804761Y-56309523D01*
X108757142Y-56261904D01*
X108185714Y-55928571D02*
X108185714Y-55547619D01*
X107852380Y-55785714D02*
X108709523Y-55785714D01*
X108804761Y-55738095D01*
X108852380Y-55642857D01*
X108852380Y-55547619D01*
X108185714Y-55214285D02*
X109185714Y-55214285D01*
X108233333Y-55214285D02*
X108185714Y-55119047D01*
X108185714Y-54928571D01*
X108233333Y-54833333D01*
X108280952Y-54785714D01*
X108376190Y-54738095D01*
X108661904Y-54738095D01*
X108757142Y-54785714D01*
X108804761Y-54833333D01*
X108852380Y-54928571D01*
X108852380Y-55119047D01*
X108804761Y-55214285D01*
X108185714Y-53880952D02*
X108852380Y-53880952D01*
X108185714Y-54309523D02*
X108709523Y-54309523D01*
X108804761Y-54261904D01*
X108852380Y-54166666D01*
X108852380Y-54023809D01*
X108804761Y-53928571D01*
X108757142Y-53880952D01*
X108185714Y-53547619D02*
X108185714Y-53166666D01*
X107852380Y-53404761D02*
X108709523Y-53404761D01*
X108804761Y-53357142D01*
X108852380Y-53261904D01*
X108852380Y-53166666D01*
X107900000Y-51547619D02*
X107852380Y-51642857D01*
X107852380Y-51785714D01*
X107900000Y-51928571D01*
X107995238Y-52023809D01*
X108090476Y-52071428D01*
X108280952Y-52119047D01*
X108423809Y-52119047D01*
X108614285Y-52071428D01*
X108709523Y-52023809D01*
X108804761Y-51928571D01*
X108852380Y-51785714D01*
X108852380Y-51690476D01*
X108804761Y-51547619D01*
X108757142Y-51500000D01*
X108423809Y-51500000D01*
X108423809Y-51690476D01*
X108852380Y-50642857D02*
X108328571Y-50642857D01*
X108233333Y-50690476D01*
X108185714Y-50785714D01*
X108185714Y-50976190D01*
X108233333Y-51071428D01*
X108804761Y-50642857D02*
X108852380Y-50738095D01*
X108852380Y-50976190D01*
X108804761Y-51071428D01*
X108709523Y-51119047D01*
X108614285Y-51119047D01*
X108519047Y-51071428D01*
X108471428Y-50976190D01*
X108471428Y-50738095D01*
X108423809Y-50642857D01*
X108852380Y-50166666D02*
X108185714Y-50166666D01*
X107852380Y-50166666D02*
X107900000Y-50214285D01*
X107947619Y-50166666D01*
X107900000Y-50119047D01*
X107852380Y-50166666D01*
X107947619Y-50166666D01*
X108185714Y-49690476D02*
X108852380Y-49690476D01*
X108280952Y-49690476D02*
X108233333Y-49642857D01*
X108185714Y-49547619D01*
X108185714Y-49404761D01*
X108233333Y-49309523D01*
X108328571Y-49261904D01*
X108852380Y-49261904D01*
%TD*%
M02*
