M48
; DRILL file {KiCad 5.1.6-c6e7f7d~87~ubuntu18.04.1} date Tue Dec 29 19:32:28 2020
; FORMAT={-:-/ absolute / inch / decimal}
; #@! TF.CreationDate,2020-12-29T19:32:28-08:00
; #@! TF.GenerationSoftware,Kicad,Pcbnew,5.1.6-c6e7f7d~87~ubuntu18.04.1
; #@! TF.FileFunction,Plated,1,2,PTH
FMAT,2
INCH
T1C0.0157
T2C0.0197
T3C0.0236
T4C0.0354
T5C0.0430
T6C0.0748
T7C0.1181
%
G90
G05
T1
X3.5423Y-3.5335
X3.6594Y-3.5315
X3.7303Y-3.6939
X3.7923Y-3.3071
X3.8445Y-3.6073
X3.8445Y-4.1299
X3.8971Y-3.7397
X3.9022Y-4.037
X3.938Y-3.1043
X3.9606Y-3.4734
X3.9685Y-3.8868
X3.9783Y-3.9862
X4.1496Y-3.8091
X4.2313Y-3.6634
X4.2431Y-4.125
T4
X3.7402Y-3.0
X3.8189Y-3.0
X3.8976Y-3.0
X3.9764Y-3.0
X4.0551Y-3.0
X4.1339Y-3.0
T5
X3.737Y-4.4776
X3.737Y-4.5776
X3.837Y-4.4776
X3.837Y-4.5776
X3.937Y-4.4776
X3.937Y-4.5776
X4.037Y-4.4776
X4.037Y-4.5776
X4.137Y-4.4776
X4.137Y-4.5776
T7
X3.3465Y-2.7559
X4.5276Y-2.7559
T2
G00X3.3701Y-2.9496
M15
G01X3.3228Y-2.9496
M16
G05
G00X4.5512Y-2.9496
M15
G01X4.5039Y-2.9496
M16
G05
T3
G00X3.3642Y-2.5008
M15
G01X3.3287Y-2.5008
M16
G05
G00X3.3681Y-2.6228
M15
G01X3.3248Y-2.6228
M16
G05
G00X4.5453Y-2.5008
M15
G01X4.5098Y-2.5008
M16
G05
G00X4.5492Y-2.6228
M15
G01X4.5059Y-2.6228
M16
G05
T6
G00X3.6358Y-2.5748
M15
G01X3.6358Y-2.6378
M16
G05
G00X4.2382Y-2.5748
M15
G01X4.2382Y-2.6378
M16
G05
T0
M30
