%TF.GenerationSoftware,KiCad,Pcbnew,5.1.7-a382d34a8~88~ubuntu18.04.1*%
%TF.CreationDate,2021-10-27T00:47:39-07:00*%
%TF.ProjectId,cv-extractor,63762d65-7874-4726-9163-746f722e6b69,rev?*%
%TF.SameCoordinates,Original*%
%TF.FileFunction,Legend,Top*%
%TF.FilePolarity,Positive*%
%FSLAX46Y46*%
G04 Gerber Fmt 4.6, Leading zero omitted, Abs format (unit mm)*
G04 Created by KiCad (PCBNEW 5.1.7-a382d34a8~88~ubuntu18.04.1) date 2021-10-27 00:47:39*
%MOMM*%
%LPD*%
G01*
G04 APERTURE LIST*
%ADD10C,0.300000*%
%ADD11C,0.100000*%
%ADD12C,0.120000*%
%ADD13C,0.152400*%
%ADD14C,0.150000*%
%ADD15C,0.060000*%
G04 APERTURE END LIST*
D10*
X97371428Y-23060714D02*
X97300000Y-23132142D01*
X97085714Y-23203571D01*
X96942857Y-23203571D01*
X96728571Y-23132142D01*
X96585714Y-22989285D01*
X96514285Y-22846428D01*
X96442857Y-22560714D01*
X96442857Y-22346428D01*
X96514285Y-22060714D01*
X96585714Y-21917857D01*
X96728571Y-21775000D01*
X96942857Y-21703571D01*
X97085714Y-21703571D01*
X97300000Y-21775000D01*
X97371428Y-21846428D01*
X98657142Y-22203571D02*
X98657142Y-23203571D01*
X98014285Y-22203571D02*
X98014285Y-22989285D01*
X98085714Y-23132142D01*
X98228571Y-23203571D01*
X98442857Y-23203571D01*
X98585714Y-23132142D01*
X98657142Y-23060714D01*
X99157142Y-22203571D02*
X99728571Y-22203571D01*
X99371428Y-21703571D02*
X99371428Y-22989285D01*
X99442857Y-23132142D01*
X99585714Y-23203571D01*
X99728571Y-23203571D01*
X100442857Y-23203571D02*
X100300000Y-23132142D01*
X100228571Y-23060714D01*
X100157142Y-22917857D01*
X100157142Y-22489285D01*
X100228571Y-22346428D01*
X100300000Y-22275000D01*
X100442857Y-22203571D01*
X100657142Y-22203571D01*
X100800000Y-22275000D01*
X100871428Y-22346428D01*
X100942857Y-22489285D01*
X100942857Y-22917857D01*
X100871428Y-23060714D01*
X100800000Y-23132142D01*
X100657142Y-23203571D01*
X100442857Y-23203571D01*
X101371428Y-22203571D02*
X101942857Y-22203571D01*
X101585714Y-23203571D02*
X101585714Y-21917857D01*
X101657142Y-21775000D01*
X101800000Y-21703571D01*
X101942857Y-21703571D01*
X102228571Y-22203571D02*
X102800000Y-22203571D01*
X102442857Y-23203571D02*
X102442857Y-21917857D01*
X102514285Y-21775000D01*
X102657142Y-21703571D01*
X102800000Y-21703571D01*
X106064285Y-59578571D02*
X106350000Y-59578571D01*
X106492857Y-59650000D01*
X106635714Y-59792857D01*
X106707142Y-60078571D01*
X106707142Y-60578571D01*
X106635714Y-60864285D01*
X106492857Y-61007142D01*
X106350000Y-61078571D01*
X106064285Y-61078571D01*
X105921428Y-61007142D01*
X105778571Y-60864285D01*
X105707142Y-60578571D01*
X105707142Y-60078571D01*
X105778571Y-59792857D01*
X105921428Y-59650000D01*
X106064285Y-59578571D01*
X107992857Y-60078571D02*
X107992857Y-61078571D01*
X107350000Y-60078571D02*
X107350000Y-60864285D01*
X107421428Y-61007142D01*
X107564285Y-61078571D01*
X107778571Y-61078571D01*
X107921428Y-61007142D01*
X107992857Y-60935714D01*
X108492857Y-60078571D02*
X109064285Y-60078571D01*
X108707142Y-59578571D02*
X108707142Y-60864285D01*
X108778571Y-61007142D01*
X108921428Y-61078571D01*
X109064285Y-61078571D01*
X109564285Y-60078571D02*
X109564285Y-61578571D01*
X109564285Y-60150000D02*
X109707142Y-60078571D01*
X109992857Y-60078571D01*
X110135714Y-60150000D01*
X110207142Y-60221428D01*
X110278571Y-60364285D01*
X110278571Y-60792857D01*
X110207142Y-60935714D01*
X110135714Y-61007142D01*
X109992857Y-61078571D01*
X109707142Y-61078571D01*
X109564285Y-61007142D01*
X111564285Y-60078571D02*
X111564285Y-61078571D01*
X110921428Y-60078571D02*
X110921428Y-60864285D01*
X110992857Y-61007142D01*
X111135714Y-61078571D01*
X111350000Y-61078571D01*
X111492857Y-61007142D01*
X111564285Y-60935714D01*
X112064285Y-60078571D02*
X112635714Y-60078571D01*
X112278571Y-59578571D02*
X112278571Y-60864285D01*
X112350000Y-61007142D01*
X112492857Y-61078571D01*
X112635714Y-61078571D01*
X105410714Y-48128571D02*
X105410714Y-46628571D01*
X106125000Y-47128571D02*
X106125000Y-48128571D01*
X106125000Y-47271428D02*
X106196428Y-47200000D01*
X106339285Y-47128571D01*
X106553571Y-47128571D01*
X106696428Y-47200000D01*
X106767857Y-47342857D01*
X106767857Y-48128571D01*
X107482142Y-47128571D02*
X107482142Y-48628571D01*
X107482142Y-47200000D02*
X107625000Y-47128571D01*
X107910714Y-47128571D01*
X108053571Y-47200000D01*
X108125000Y-47271428D01*
X108196428Y-47414285D01*
X108196428Y-47842857D01*
X108125000Y-47985714D01*
X108053571Y-48057142D01*
X107910714Y-48128571D01*
X107625000Y-48128571D01*
X107482142Y-48057142D01*
X109482142Y-47128571D02*
X109482142Y-48128571D01*
X108839285Y-47128571D02*
X108839285Y-47914285D01*
X108910714Y-48057142D01*
X109053571Y-48128571D01*
X109267857Y-48128571D01*
X109410714Y-48057142D01*
X109482142Y-47985714D01*
X109982142Y-47128571D02*
X110553571Y-47128571D01*
X110196428Y-46628571D02*
X110196428Y-47914285D01*
X110267857Y-48057142D01*
X110410714Y-48128571D01*
X110553571Y-48128571D01*
D11*
%TO.C,C7*%
X112100000Y-99822000D02*
G75*
G03*
X112100000Y-99822000I-3150000J0D01*
G01*
X112250000Y-103122000D02*
X112250000Y-96522000D01*
X106650000Y-103122000D02*
X112250000Y-103122000D01*
X106650000Y-96522000D02*
X112250000Y-96522000D01*
X105650000Y-102122000D02*
X105650000Y-97522000D01*
X105650000Y-102122000D02*
X106650000Y-103122000D01*
X105650000Y-97522000D02*
X106650000Y-96522000D01*
X106245162Y-101152000D02*
X106875162Y-101152000D01*
X106560162Y-101467000D02*
X106560162Y-100837000D01*
%TO.C,C8*%
X93150000Y-99525000D02*
G75*
G03*
X93150000Y-99525000I-3150000J0D01*
G01*
X93300000Y-102825000D02*
X93300000Y-96225000D01*
X87700000Y-102825000D02*
X93300000Y-102825000D01*
X87700000Y-96225000D02*
X93300000Y-96225000D01*
X86700000Y-101825000D02*
X86700000Y-97225000D01*
X86700000Y-101825000D02*
X87700000Y-102825000D01*
X86700000Y-97225000D02*
X87700000Y-96225000D01*
X87295162Y-100855000D02*
X87925162Y-100855000D01*
X87610162Y-101170000D02*
X87610162Y-100540000D01*
%TO.C,C9*%
X104100000Y-103390500D02*
X104900000Y-103390500D01*
X104900000Y-103390500D02*
X104900000Y-101790500D01*
X104900000Y-101790500D02*
X104100000Y-101790500D01*
X104100000Y-101790500D02*
X104100000Y-103390500D01*
%TO.C,C10*%
X95900000Y-100950000D02*
X95100000Y-100950000D01*
X95100000Y-100950000D02*
X95100000Y-102550000D01*
X95100000Y-102550000D02*
X95900000Y-102550000D01*
X95900000Y-102550000D02*
X95900000Y-100950000D01*
D12*
%TO.C,J3*%
X99238000Y-111698000D02*
X99238000Y-110428000D01*
X101016000Y-111698000D02*
X99238000Y-111698000D01*
X101016000Y-110428000D02*
X101016000Y-111698000D01*
D13*
X94920000Y-110326400D02*
X95555000Y-109056400D01*
X95555000Y-109056400D02*
X94285000Y-109056400D01*
X94285000Y-109056400D02*
X94920000Y-110326400D01*
X110185400Y-119419600D02*
X89814600Y-119419600D01*
X89814600Y-119419600D02*
X89814600Y-110580400D01*
X89814600Y-110580400D02*
X110185400Y-110580400D01*
X110185400Y-110580400D02*
X110185400Y-119419600D01*
D11*
%TO.C,R1*%
X105702000Y-94114000D02*
X105702000Y-93314000D01*
X105702000Y-93314000D02*
X104102000Y-93314000D01*
X104102000Y-93314000D02*
X104102000Y-94114000D01*
X104102000Y-94114000D02*
X105702000Y-94114000D01*
%TO.C,R2*%
X104102000Y-91790000D02*
X104102000Y-92590000D01*
X104102000Y-92590000D02*
X105702000Y-92590000D01*
X105702000Y-92590000D02*
X105702000Y-91790000D01*
X105702000Y-91790000D02*
X104102000Y-91790000D01*
%TO.C,R3*%
X104102000Y-89516000D02*
X104102000Y-90316000D01*
X104102000Y-90316000D02*
X105702000Y-90316000D01*
X105702000Y-90316000D02*
X105702000Y-89516000D01*
X105702000Y-89516000D02*
X104102000Y-89516000D01*
%TO.C,R4*%
X104102000Y-87992000D02*
X104102000Y-88792000D01*
X104102000Y-88792000D02*
X105702000Y-88792000D01*
X105702000Y-88792000D02*
X105702000Y-87992000D01*
X105702000Y-87992000D02*
X104102000Y-87992000D01*
%TO.C,R5*%
X104102000Y-86468000D02*
X104102000Y-87268000D01*
X104102000Y-87268000D02*
X105702000Y-87268000D01*
X105702000Y-87268000D02*
X105702000Y-86468000D01*
X105702000Y-86468000D02*
X104102000Y-86468000D01*
%TO.C,R6*%
X105702000Y-85744000D02*
X105702000Y-84944000D01*
X105702000Y-84944000D02*
X104102000Y-84944000D01*
X104102000Y-84944000D02*
X104102000Y-85744000D01*
X104102000Y-85744000D02*
X105702000Y-85744000D01*
%TO.C,R7*%
X104102000Y-82770000D02*
X104102000Y-83570000D01*
X104102000Y-83570000D02*
X105702000Y-83570000D01*
X105702000Y-83570000D02*
X105702000Y-82770000D01*
X105702000Y-82770000D02*
X104102000Y-82770000D01*
%TO.C,R8*%
X104102000Y-81246000D02*
X104102000Y-82046000D01*
X104102000Y-82046000D02*
X105702000Y-82046000D01*
X105702000Y-82046000D02*
X105702000Y-81246000D01*
X105702000Y-81246000D02*
X104102000Y-81246000D01*
%TO.C,U1*%
X100975000Y-95675000D02*
X98050000Y-95675000D01*
X98050000Y-95675000D02*
X98050000Y-104325000D01*
X98050000Y-104325000D02*
X101950000Y-104325000D01*
X101950000Y-104325000D02*
X101950000Y-96650000D01*
X101950000Y-96650000D02*
X100975000Y-95675000D01*
%TO.C,C1*%
X92025000Y-83750000D02*
X93625000Y-83750000D01*
X92025000Y-82950000D02*
X92025000Y-83750000D01*
X93625000Y-82950000D02*
X92025000Y-82950000D01*
X93625000Y-83750000D02*
X93625000Y-82950000D01*
%TO.C,C5*%
X99800000Y-82700000D02*
X99800000Y-81900000D01*
X99800000Y-81900000D02*
X98200000Y-81900000D01*
X98200000Y-81900000D02*
X98200000Y-82700000D01*
X98200000Y-82700000D02*
X99800000Y-82700000D01*
%TO.C,C6*%
X98200000Y-84225000D02*
X99800000Y-84225000D01*
X98200000Y-83425000D02*
X98200000Y-84225000D01*
X99800000Y-83425000D02*
X98200000Y-83425000D01*
X99800000Y-84225000D02*
X99800000Y-83425000D01*
%TO.C,R9*%
X109912500Y-81650000D02*
X109087500Y-81650000D01*
X109087500Y-81650000D02*
X109087500Y-83250000D01*
X109087500Y-83250000D02*
X109912500Y-83250000D01*
X109912500Y-83250000D02*
X109912500Y-81650000D01*
%TO.C,R10*%
X104450000Y-35537500D02*
X106050000Y-35537500D01*
X104450000Y-34712500D02*
X104450000Y-35537500D01*
X106050000Y-34712500D02*
X104450000Y-34712500D01*
X106050000Y-35537500D02*
X106050000Y-34712500D01*
%TO.C,R11*%
X100412500Y-71300000D02*
X100412500Y-69700000D01*
X99587500Y-71300000D02*
X100412500Y-71300000D01*
X99587500Y-69700000D02*
X99587500Y-71300000D01*
X100412500Y-69700000D02*
X99587500Y-69700000D01*
%TO.C,J2*%
D14*
X106466666Y-61677380D02*
X106466666Y-62391666D01*
X106419047Y-62534523D01*
X106323809Y-62629761D01*
X106180952Y-62677380D01*
X106085714Y-62677380D01*
X106895238Y-61772619D02*
X106942857Y-61725000D01*
X107038095Y-61677380D01*
X107276190Y-61677380D01*
X107371428Y-61725000D01*
X107419047Y-61772619D01*
X107466666Y-61867857D01*
X107466666Y-61963095D01*
X107419047Y-62105952D01*
X106847619Y-62677380D01*
X107466666Y-62677380D01*
%TO.C,RV1*%
X107029761Y-43027380D02*
X106696428Y-42551190D01*
X106458333Y-43027380D02*
X106458333Y-42027380D01*
X106839285Y-42027380D01*
X106934523Y-42075000D01*
X106982142Y-42122619D01*
X107029761Y-42217857D01*
X107029761Y-42360714D01*
X106982142Y-42455952D01*
X106934523Y-42503571D01*
X106839285Y-42551190D01*
X106458333Y-42551190D01*
X107315476Y-42027380D02*
X107648809Y-43027380D01*
X107982142Y-42027380D01*
X108839285Y-43027380D02*
X108267857Y-43027380D01*
X108553571Y-43027380D02*
X108553571Y-42027380D01*
X108458333Y-42170238D01*
X108363095Y-42265476D01*
X108267857Y-42313095D01*
%TO.C,C7*%
X109116666Y-100179142D02*
X109164285Y-100226761D01*
X109307142Y-100274380D01*
X109402380Y-100274380D01*
X109545238Y-100226761D01*
X109640476Y-100131523D01*
X109688095Y-100036285D01*
X109735714Y-99845809D01*
X109735714Y-99702952D01*
X109688095Y-99512476D01*
X109640476Y-99417238D01*
X109545238Y-99322000D01*
X109402380Y-99274380D01*
X109307142Y-99274380D01*
X109164285Y-99322000D01*
X109116666Y-99369619D01*
X108783333Y-99274380D02*
X108116666Y-99274380D01*
X108545238Y-100274380D01*
%TO.C,C8*%
X90166666Y-99882142D02*
X90214285Y-99929761D01*
X90357142Y-99977380D01*
X90452380Y-99977380D01*
X90595238Y-99929761D01*
X90690476Y-99834523D01*
X90738095Y-99739285D01*
X90785714Y-99548809D01*
X90785714Y-99405952D01*
X90738095Y-99215476D01*
X90690476Y-99120238D01*
X90595238Y-99025000D01*
X90452380Y-98977380D01*
X90357142Y-98977380D01*
X90214285Y-99025000D01*
X90166666Y-99072619D01*
X89595238Y-99405952D02*
X89690476Y-99358333D01*
X89738095Y-99310714D01*
X89785714Y-99215476D01*
X89785714Y-99167857D01*
X89738095Y-99072619D01*
X89690476Y-99025000D01*
X89595238Y-98977380D01*
X89404761Y-98977380D01*
X89309523Y-99025000D01*
X89261904Y-99072619D01*
X89214285Y-99167857D01*
X89214285Y-99215476D01*
X89261904Y-99310714D01*
X89309523Y-99358333D01*
X89404761Y-99405952D01*
X89595238Y-99405952D01*
X89690476Y-99453571D01*
X89738095Y-99501190D01*
X89785714Y-99596428D01*
X89785714Y-99786904D01*
X89738095Y-99882142D01*
X89690476Y-99929761D01*
X89595238Y-99977380D01*
X89404761Y-99977380D01*
X89309523Y-99929761D01*
X89261904Y-99882142D01*
X89214285Y-99786904D01*
X89214285Y-99596428D01*
X89261904Y-99501190D01*
X89309523Y-99453571D01*
X89404761Y-99405952D01*
%TO.C,C9*%
D15*
X104642857Y-102523833D02*
X104661904Y-102504785D01*
X104680952Y-102447642D01*
X104680952Y-102409547D01*
X104661904Y-102352404D01*
X104623809Y-102314309D01*
X104585714Y-102295261D01*
X104509523Y-102276214D01*
X104452380Y-102276214D01*
X104376190Y-102295261D01*
X104338095Y-102314309D01*
X104300000Y-102352404D01*
X104280952Y-102409547D01*
X104280952Y-102447642D01*
X104300000Y-102504785D01*
X104319047Y-102523833D01*
X104680952Y-102714309D02*
X104680952Y-102790500D01*
X104661904Y-102828595D01*
X104642857Y-102847642D01*
X104585714Y-102885738D01*
X104509523Y-102904785D01*
X104357142Y-102904785D01*
X104319047Y-102885738D01*
X104300000Y-102866690D01*
X104280952Y-102828595D01*
X104280952Y-102752404D01*
X104300000Y-102714309D01*
X104319047Y-102695261D01*
X104357142Y-102676214D01*
X104452380Y-102676214D01*
X104490476Y-102695261D01*
X104509523Y-102714309D01*
X104528571Y-102752404D01*
X104528571Y-102828595D01*
X104509523Y-102866690D01*
X104490476Y-102885738D01*
X104452380Y-102904785D01*
%TO.C,C10*%
X95642857Y-101492857D02*
X95661904Y-101473809D01*
X95680952Y-101416666D01*
X95680952Y-101378571D01*
X95661904Y-101321428D01*
X95623809Y-101283333D01*
X95585714Y-101264285D01*
X95509523Y-101245238D01*
X95452380Y-101245238D01*
X95376190Y-101264285D01*
X95338095Y-101283333D01*
X95300000Y-101321428D01*
X95280952Y-101378571D01*
X95280952Y-101416666D01*
X95300000Y-101473809D01*
X95319047Y-101492857D01*
X95680952Y-101873809D02*
X95680952Y-101645238D01*
X95680952Y-101759523D02*
X95280952Y-101759523D01*
X95338095Y-101721428D01*
X95376190Y-101683333D01*
X95395238Y-101645238D01*
X95280952Y-102121428D02*
X95280952Y-102159523D01*
X95300000Y-102197619D01*
X95319047Y-102216666D01*
X95357142Y-102235714D01*
X95433333Y-102254761D01*
X95528571Y-102254761D01*
X95604761Y-102235714D01*
X95642857Y-102216666D01*
X95661904Y-102197619D01*
X95680952Y-102159523D01*
X95680952Y-102121428D01*
X95661904Y-102083333D01*
X95642857Y-102064285D01*
X95604761Y-102045238D01*
X95528571Y-102026190D01*
X95433333Y-102026190D01*
X95357142Y-102045238D01*
X95319047Y-102064285D01*
X95300000Y-102083333D01*
X95280952Y-102121428D01*
%TO.C,J1*%
D14*
X105491666Y-49052380D02*
X105491666Y-49766666D01*
X105444047Y-49909523D01*
X105348809Y-50004761D01*
X105205952Y-50052380D01*
X105110714Y-50052380D01*
X106491666Y-50052380D02*
X105920238Y-50052380D01*
X106205952Y-50052380D02*
X106205952Y-49052380D01*
X106110714Y-49195238D01*
X106015476Y-49290476D01*
X105920238Y-49338095D01*
%TO.C,J3*%
X100000000Y-114452380D02*
X100000000Y-114690476D01*
X100238095Y-114595238D02*
X100000000Y-114690476D01*
X99761904Y-114595238D01*
X100142857Y-114880952D02*
X100000000Y-114690476D01*
X99857142Y-114880952D01*
%TO.C,R1*%
D15*
X104968666Y-93894952D02*
X105102000Y-93704476D01*
X105197238Y-93894952D02*
X105197238Y-93494952D01*
X105044857Y-93494952D01*
X105006761Y-93514000D01*
X104987714Y-93533047D01*
X104968666Y-93571142D01*
X104968666Y-93628285D01*
X104987714Y-93666380D01*
X105006761Y-93685428D01*
X105044857Y-93704476D01*
X105197238Y-93704476D01*
X104587714Y-93894952D02*
X104816285Y-93894952D01*
X104702000Y-93894952D02*
X104702000Y-93494952D01*
X104740095Y-93552095D01*
X104778190Y-93590190D01*
X104816285Y-93609238D01*
%TO.C,R2*%
X104968666Y-92370952D02*
X105102000Y-92180476D01*
X105197238Y-92370952D02*
X105197238Y-91970952D01*
X105044857Y-91970952D01*
X105006761Y-91990000D01*
X104987714Y-92009047D01*
X104968666Y-92047142D01*
X104968666Y-92104285D01*
X104987714Y-92142380D01*
X105006761Y-92161428D01*
X105044857Y-92180476D01*
X105197238Y-92180476D01*
X104816285Y-92009047D02*
X104797238Y-91990000D01*
X104759142Y-91970952D01*
X104663904Y-91970952D01*
X104625809Y-91990000D01*
X104606761Y-92009047D01*
X104587714Y-92047142D01*
X104587714Y-92085238D01*
X104606761Y-92142380D01*
X104835333Y-92370952D01*
X104587714Y-92370952D01*
%TO.C,R3*%
X104968666Y-90096952D02*
X105102000Y-89906476D01*
X105197238Y-90096952D02*
X105197238Y-89696952D01*
X105044857Y-89696952D01*
X105006761Y-89716000D01*
X104987714Y-89735047D01*
X104968666Y-89773142D01*
X104968666Y-89830285D01*
X104987714Y-89868380D01*
X105006761Y-89887428D01*
X105044857Y-89906476D01*
X105197238Y-89906476D01*
X104835333Y-89696952D02*
X104587714Y-89696952D01*
X104721047Y-89849333D01*
X104663904Y-89849333D01*
X104625809Y-89868380D01*
X104606761Y-89887428D01*
X104587714Y-89925523D01*
X104587714Y-90020761D01*
X104606761Y-90058857D01*
X104625809Y-90077904D01*
X104663904Y-90096952D01*
X104778190Y-90096952D01*
X104816285Y-90077904D01*
X104835333Y-90058857D01*
%TO.C,R4*%
X104968666Y-88572952D02*
X105102000Y-88382476D01*
X105197238Y-88572952D02*
X105197238Y-88172952D01*
X105044857Y-88172952D01*
X105006761Y-88192000D01*
X104987714Y-88211047D01*
X104968666Y-88249142D01*
X104968666Y-88306285D01*
X104987714Y-88344380D01*
X105006761Y-88363428D01*
X105044857Y-88382476D01*
X105197238Y-88382476D01*
X104625809Y-88306285D02*
X104625809Y-88572952D01*
X104721047Y-88153904D02*
X104816285Y-88439619D01*
X104568666Y-88439619D01*
%TO.C,R5*%
X104968666Y-87048952D02*
X105102000Y-86858476D01*
X105197238Y-87048952D02*
X105197238Y-86648952D01*
X105044857Y-86648952D01*
X105006761Y-86668000D01*
X104987714Y-86687047D01*
X104968666Y-86725142D01*
X104968666Y-86782285D01*
X104987714Y-86820380D01*
X105006761Y-86839428D01*
X105044857Y-86858476D01*
X105197238Y-86858476D01*
X104606761Y-86648952D02*
X104797238Y-86648952D01*
X104816285Y-86839428D01*
X104797238Y-86820380D01*
X104759142Y-86801333D01*
X104663904Y-86801333D01*
X104625809Y-86820380D01*
X104606761Y-86839428D01*
X104587714Y-86877523D01*
X104587714Y-86972761D01*
X104606761Y-87010857D01*
X104625809Y-87029904D01*
X104663904Y-87048952D01*
X104759142Y-87048952D01*
X104797238Y-87029904D01*
X104816285Y-87010857D01*
%TO.C,R6*%
X104968666Y-85524952D02*
X105102000Y-85334476D01*
X105197238Y-85524952D02*
X105197238Y-85124952D01*
X105044857Y-85124952D01*
X105006761Y-85144000D01*
X104987714Y-85163047D01*
X104968666Y-85201142D01*
X104968666Y-85258285D01*
X104987714Y-85296380D01*
X105006761Y-85315428D01*
X105044857Y-85334476D01*
X105197238Y-85334476D01*
X104625809Y-85124952D02*
X104702000Y-85124952D01*
X104740095Y-85144000D01*
X104759142Y-85163047D01*
X104797238Y-85220190D01*
X104816285Y-85296380D01*
X104816285Y-85448761D01*
X104797238Y-85486857D01*
X104778190Y-85505904D01*
X104740095Y-85524952D01*
X104663904Y-85524952D01*
X104625809Y-85505904D01*
X104606761Y-85486857D01*
X104587714Y-85448761D01*
X104587714Y-85353523D01*
X104606761Y-85315428D01*
X104625809Y-85296380D01*
X104663904Y-85277333D01*
X104740095Y-85277333D01*
X104778190Y-85296380D01*
X104797238Y-85315428D01*
X104816285Y-85353523D01*
%TO.C,R7*%
X104968666Y-83350952D02*
X105102000Y-83160476D01*
X105197238Y-83350952D02*
X105197238Y-82950952D01*
X105044857Y-82950952D01*
X105006761Y-82970000D01*
X104987714Y-82989047D01*
X104968666Y-83027142D01*
X104968666Y-83084285D01*
X104987714Y-83122380D01*
X105006761Y-83141428D01*
X105044857Y-83160476D01*
X105197238Y-83160476D01*
X104835333Y-82950952D02*
X104568666Y-82950952D01*
X104740095Y-83350952D01*
%TO.C,R8*%
X105159665Y-81761953D02*
X105292999Y-81571477D01*
X105388237Y-81761953D02*
X105388237Y-81361953D01*
X105235856Y-81361953D01*
X105197760Y-81381001D01*
X105178713Y-81400048D01*
X105159665Y-81438143D01*
X105159665Y-81495286D01*
X105178713Y-81533381D01*
X105197760Y-81552429D01*
X105235856Y-81571477D01*
X105388237Y-81571477D01*
X104931094Y-81533381D02*
X104969189Y-81514334D01*
X104988237Y-81495286D01*
X105007284Y-81457191D01*
X105007284Y-81438143D01*
X104988237Y-81400048D01*
X104969189Y-81381001D01*
X104931094Y-81361953D01*
X104854903Y-81361953D01*
X104816808Y-81381001D01*
X104797760Y-81400048D01*
X104778713Y-81438143D01*
X104778713Y-81457191D01*
X104797760Y-81495286D01*
X104816808Y-81514334D01*
X104854903Y-81533381D01*
X104931094Y-81533381D01*
X104969189Y-81552429D01*
X104988237Y-81571477D01*
X105007284Y-81609572D01*
X105007284Y-81685762D01*
X104988237Y-81723858D01*
X104969189Y-81742905D01*
X104931094Y-81761953D01*
X104854903Y-81761953D01*
X104816808Y-81742905D01*
X104797760Y-81723858D01*
X104778713Y-81685762D01*
X104778713Y-81609572D01*
X104797760Y-81571477D01*
X104816808Y-81552429D01*
X104854903Y-81533381D01*
%TO.C,U1*%
D14*
X100746666Y-99463333D02*
X100746666Y-100256666D01*
X100700000Y-100350000D01*
X100653333Y-100396666D01*
X100560000Y-100443333D01*
X100373333Y-100443333D01*
X100280000Y-100396666D01*
X100233333Y-100350000D01*
X100186666Y-100256666D01*
X100186666Y-99463333D01*
X99206666Y-100443333D02*
X99766666Y-100443333D01*
X99486666Y-100443333D02*
X99486666Y-99463333D01*
X99580000Y-99603333D01*
X99673333Y-99696666D01*
X99766666Y-99743333D01*
%TO.C,C1*%
D15*
X92891666Y-83492857D02*
X92910714Y-83511904D01*
X92967857Y-83530952D01*
X93005952Y-83530952D01*
X93063095Y-83511904D01*
X93101190Y-83473809D01*
X93120238Y-83435714D01*
X93139285Y-83359523D01*
X93139285Y-83302380D01*
X93120238Y-83226190D01*
X93101190Y-83188095D01*
X93063095Y-83150000D01*
X93005952Y-83130952D01*
X92967857Y-83130952D01*
X92910714Y-83150000D01*
X92891666Y-83169047D01*
X92510714Y-83530952D02*
X92739285Y-83530952D01*
X92625000Y-83530952D02*
X92625000Y-83130952D01*
X92663095Y-83188095D01*
X92701190Y-83226190D01*
X92739285Y-83245238D01*
%TO.C,C5*%
X99066666Y-82442857D02*
X99085714Y-82461904D01*
X99142857Y-82480952D01*
X99180952Y-82480952D01*
X99238095Y-82461904D01*
X99276190Y-82423809D01*
X99295238Y-82385714D01*
X99314285Y-82309523D01*
X99314285Y-82252380D01*
X99295238Y-82176190D01*
X99276190Y-82138095D01*
X99238095Y-82100000D01*
X99180952Y-82080952D01*
X99142857Y-82080952D01*
X99085714Y-82100000D01*
X99066666Y-82119047D01*
X98704761Y-82080952D02*
X98895238Y-82080952D01*
X98914285Y-82271428D01*
X98895238Y-82252380D01*
X98857142Y-82233333D01*
X98761904Y-82233333D01*
X98723809Y-82252380D01*
X98704761Y-82271428D01*
X98685714Y-82309523D01*
X98685714Y-82404761D01*
X98704761Y-82442857D01*
X98723809Y-82461904D01*
X98761904Y-82480952D01*
X98857142Y-82480952D01*
X98895238Y-82461904D01*
X98914285Y-82442857D01*
%TO.C,C6*%
X99066666Y-83967857D02*
X99085714Y-83986904D01*
X99142857Y-84005952D01*
X99180952Y-84005952D01*
X99238095Y-83986904D01*
X99276190Y-83948809D01*
X99295238Y-83910714D01*
X99314285Y-83834523D01*
X99314285Y-83777380D01*
X99295238Y-83701190D01*
X99276190Y-83663095D01*
X99238095Y-83625000D01*
X99180952Y-83605952D01*
X99142857Y-83605952D01*
X99085714Y-83625000D01*
X99066666Y-83644047D01*
X98723809Y-83605952D02*
X98800000Y-83605952D01*
X98838095Y-83625000D01*
X98857142Y-83644047D01*
X98895238Y-83701190D01*
X98914285Y-83777380D01*
X98914285Y-83929761D01*
X98895238Y-83967857D01*
X98876190Y-83986904D01*
X98838095Y-84005952D01*
X98761904Y-84005952D01*
X98723809Y-83986904D01*
X98704761Y-83967857D01*
X98685714Y-83929761D01*
X98685714Y-83834523D01*
X98704761Y-83796428D01*
X98723809Y-83777380D01*
X98761904Y-83758333D01*
X98838095Y-83758333D01*
X98876190Y-83777380D01*
X98895238Y-83796428D01*
X98914285Y-83834523D01*
%TO.C,R9*%
X109680952Y-82383333D02*
X109490476Y-82250000D01*
X109680952Y-82154761D02*
X109280952Y-82154761D01*
X109280952Y-82307142D01*
X109300000Y-82345238D01*
X109319047Y-82364285D01*
X109357142Y-82383333D01*
X109414285Y-82383333D01*
X109452380Y-82364285D01*
X109471428Y-82345238D01*
X109490476Y-82307142D01*
X109490476Y-82154761D01*
X109680952Y-82573809D02*
X109680952Y-82650000D01*
X109661904Y-82688095D01*
X109642857Y-82707142D01*
X109585714Y-82745238D01*
X109509523Y-82764285D01*
X109357142Y-82764285D01*
X109319047Y-82745238D01*
X109300000Y-82726190D01*
X109280952Y-82688095D01*
X109280952Y-82611904D01*
X109300000Y-82573809D01*
X109319047Y-82554761D01*
X109357142Y-82535714D01*
X109452380Y-82535714D01*
X109490476Y-82554761D01*
X109509523Y-82573809D01*
X109528571Y-82611904D01*
X109528571Y-82688095D01*
X109509523Y-82726190D01*
X109490476Y-82745238D01*
X109452380Y-82764285D01*
%TO.C,R10*%
X105507142Y-35305952D02*
X105640476Y-35115476D01*
X105735714Y-35305952D02*
X105735714Y-34905952D01*
X105583333Y-34905952D01*
X105545238Y-34925000D01*
X105526190Y-34944047D01*
X105507142Y-34982142D01*
X105507142Y-35039285D01*
X105526190Y-35077380D01*
X105545238Y-35096428D01*
X105583333Y-35115476D01*
X105735714Y-35115476D01*
X105126190Y-35305952D02*
X105354761Y-35305952D01*
X105240476Y-35305952D02*
X105240476Y-34905952D01*
X105278571Y-34963095D01*
X105316666Y-35001190D01*
X105354761Y-35020238D01*
X104878571Y-34905952D02*
X104840476Y-34905952D01*
X104802380Y-34925000D01*
X104783333Y-34944047D01*
X104764285Y-34982142D01*
X104745238Y-35058333D01*
X104745238Y-35153571D01*
X104764285Y-35229761D01*
X104783333Y-35267857D01*
X104802380Y-35286904D01*
X104840476Y-35305952D01*
X104878571Y-35305952D01*
X104916666Y-35286904D01*
X104935714Y-35267857D01*
X104954761Y-35229761D01*
X104973809Y-35153571D01*
X104973809Y-35058333D01*
X104954761Y-34982142D01*
X104935714Y-34944047D01*
X104916666Y-34925000D01*
X104878571Y-34905952D01*
%TO.C,R11*%
X100180952Y-70242857D02*
X99990476Y-70109523D01*
X100180952Y-70014285D02*
X99780952Y-70014285D01*
X99780952Y-70166666D01*
X99800000Y-70204761D01*
X99819047Y-70223809D01*
X99857142Y-70242857D01*
X99914285Y-70242857D01*
X99952380Y-70223809D01*
X99971428Y-70204761D01*
X99990476Y-70166666D01*
X99990476Y-70014285D01*
X100180952Y-70623809D02*
X100180952Y-70395238D01*
X100180952Y-70509523D02*
X99780952Y-70509523D01*
X99838095Y-70471428D01*
X99876190Y-70433333D01*
X99895238Y-70395238D01*
X100180952Y-71004761D02*
X100180952Y-70776190D01*
X100180952Y-70890476D02*
X99780952Y-70890476D01*
X99838095Y-70852380D01*
X99876190Y-70814285D01*
X99895238Y-70776190D01*
%TD*%
M02*
