%TF.GenerationSoftware,KiCad,Pcbnew,5.1.7-a382d34a8~88~ubuntu18.04.1*%
%TF.CreationDate,2021-10-27T00:47:39-07:00*%
%TF.ProjectId,cv-extractor,63762d65-7874-4726-9163-746f722e6b69,rev?*%
%TF.SameCoordinates,Original*%
%TF.FileFunction,Copper,L1,Top*%
%TF.FilePolarity,Positive*%
%FSLAX46Y46*%
G04 Gerber Fmt 4.6, Leading zero omitted, Abs format (unit mm)*
G04 Created by KiCad (PCBNEW 5.1.7-a382d34a8~88~ubuntu18.04.1) date 2021-10-27 00:47:39*
%MOMM*%
%LPD*%
G01*
G04 APERTURE LIST*
%TA.AperFunction,ComponentPad*%
%ADD10C,3.500000*%
%TD*%
%TA.AperFunction,ComponentPad*%
%ADD11R,2.000000X1.000000*%
%TD*%
%TA.AperFunction,ComponentPad*%
%ADD12R,2.000000X3.700000*%
%TD*%
%TA.AperFunction,ComponentPad*%
%ADD13C,1.500000*%
%TD*%
%TA.AperFunction,ComponentPad*%
%ADD14C,1.600200*%
%TD*%
%TA.AperFunction,ViaPad*%
%ADD15C,0.800000*%
%TD*%
%TA.AperFunction,Conductor*%
%ADD16C,0.250000*%
%TD*%
%TA.AperFunction,Conductor*%
%ADD17C,0.254000*%
%TD*%
%TA.AperFunction,Conductor*%
%ADD18C,0.100000*%
%TD*%
G04 APERTURE END LIST*
D10*
%TO.P,J2,*%
%TO.N,*%
X100000000Y-62750000D03*
D11*
%TO.P,J2,3*%
%TO.N,Net-(J2-Pad2)*%
X100000000Y-67670000D03*
%TO.P,J2,2*%
X100000000Y-59370000D03*
%TO.P,J2,1*%
%TO.N,GND*%
X100000000Y-56270000D03*
%TD*%
D12*
%TO.P,RV1,*%
%TO.N,*%
X107650000Y-30200000D03*
D13*
%TO.P,RV1,6*%
%TO.N,Net-(C1-Pad2)*%
X105000000Y-40200000D03*
%TO.P,RV1,3*%
%TO.N,Net-(C5-Pad1)*%
X103000000Y-40200000D03*
%TO.P,RV1,2*%
%TO.N,Net-(R7-Pad1)*%
X101000000Y-40200000D03*
%TO.P,RV1,1*%
X99000000Y-40200000D03*
%TO.P,RV1,4*%
%TO.N,Net-(R8-Pad1)*%
X97000000Y-40200000D03*
%TO.P,RV1,5*%
%TO.N,Net-(C1-Pad2)*%
X95000000Y-40200000D03*
D12*
%TO.P,RV1,*%
%TO.N,*%
X92350000Y-30200000D03*
%TD*%
D10*
%TO.P,J1,*%
%TO.N,*%
X100000000Y-49000000D03*
D11*
%TO.P,J1,3*%
%TO.N,Net-(J1-Pad2)*%
X100000000Y-53920000D03*
%TO.P,J1,2*%
X100000000Y-45620000D03*
%TO.P,J1,1*%
%TO.N,GND*%
X100000000Y-42520000D03*
%TD*%
D14*
%TO.P,J3,10*%
%TO.N,+12V*%
X105080000Y-116270000D03*
%TO.P,J3,9*%
X105080000Y-113730000D03*
%TO.P,J3,8*%
%TO.N,GND*%
X102540000Y-116270000D03*
%TO.P,J3,7*%
X102540000Y-113730000D03*
%TO.P,J3,6*%
X100000000Y-116270000D03*
%TO.P,J3,5*%
X100000000Y-113730000D03*
%TO.P,J3,4*%
X97460000Y-116270000D03*
%TO.P,J3,3*%
X97460000Y-113730000D03*
%TO.P,J3,2*%
%TO.N,-12V*%
X94920000Y-116270000D03*
%TO.P,J3,1*%
X94920000Y-113730000D03*
%TD*%
D15*
%TO.N,GND*%
X107775000Y-104775000D03*
X105400000Y-96750000D03*
X96325000Y-84000000D03*
X100600000Y-88225000D03*
X94750000Y-93825000D03*
X101050000Y-101250000D03*
X114000000Y-103250000D03*
%TO.N,Net-(J1-Pad2)*%
X100800000Y-98725000D03*
X109500000Y-74250000D03*
X107681794Y-79931794D03*
%TO.N,Net-(R3-Pad1)*%
X98987500Y-94987500D03*
X99115000Y-102540000D03*
%TO.N,Net-(C5-Pad1)*%
X99750000Y-82250000D03*
X103593205Y-78406795D03*
%TO.N,Net-(J2-Pad2)*%
X93750000Y-60000000D03*
%TO.N,Net-(JP1-Pad1)*%
X93750000Y-70250000D03*
X102475000Y-95353500D03*
X110200000Y-92050000D03*
%TO.N,Net-(JP1-Pad2)*%
X105689500Y-89916000D03*
X108300000Y-89300000D03*
%TO.N,Net-(JP2-Pad2)*%
X93500000Y-65500000D03*
X109500000Y-83250000D03*
%TO.N,Net-(JP2-Pad1)*%
X97650000Y-91625000D03*
X97650000Y-104900000D03*
%TD*%
D16*
%TO.N,Net-(C1-Pad2)*%
X103924999Y-39124999D02*
X95975001Y-39124999D01*
X105000000Y-40200000D02*
X103924999Y-39124999D01*
X95975001Y-39124999D02*
X95050000Y-40050000D01*
%TO.N,Net-(J1-Pad2)*%
X101175001Y-98349999D02*
X100800000Y-98725000D01*
X101175001Y-94076999D02*
X101175001Y-98349999D01*
X101175001Y-94076999D02*
X101175001Y-93357497D01*
X101175001Y-93357497D02*
X104318206Y-90214292D01*
X104318206Y-58568206D02*
X99750000Y-54000000D01*
X104318206Y-66931794D02*
X104318206Y-69068206D01*
X104318206Y-66931794D02*
X104318206Y-58568206D01*
X104318206Y-69068206D02*
X109500000Y-74250000D01*
X109500000Y-74250000D02*
X109500000Y-74250000D01*
X104318206Y-79931794D02*
X107681794Y-79931794D01*
X104318206Y-90214292D02*
X104318206Y-79931794D01*
X107681794Y-79931794D02*
X107681794Y-79931794D01*
%TO.N,Net-(R3-Pad1)*%
X99115000Y-95115000D02*
X98987500Y-94987500D01*
X99115000Y-102540000D02*
X99115000Y-95115000D01*
%TO.N,Net-(C5-Pad1)*%
X103593205Y-78406795D02*
X99750000Y-82250000D01*
%TO.N,Net-(J2-Pad2)*%
X93750000Y-60000000D02*
X99250000Y-60000000D01*
X99250000Y-60000000D02*
X99750000Y-59500000D01*
%TO.N,Net-(JP1-Pad1)*%
X106896500Y-95353500D02*
X110200000Y-92050000D01*
X110200000Y-92050000D02*
X110200000Y-92050000D01*
X102475000Y-95353500D02*
X106896500Y-95353500D01*
X109000000Y-88926998D02*
X109000000Y-89000000D01*
X98377000Y-70250000D02*
X107333793Y-79206793D01*
X93750000Y-70250000D02*
X98377000Y-70250000D01*
X107333793Y-79206793D02*
X108029795Y-79206793D01*
X108029795Y-79206793D02*
X108406795Y-79583793D01*
X108406795Y-79583793D02*
X108406795Y-88333793D01*
X108406795Y-88333793D02*
X109000000Y-88926998D01*
X109025001Y-90875001D02*
X110200000Y-92050000D01*
X109025001Y-88951999D02*
X109025001Y-90875001D01*
X109000000Y-88926998D02*
X109025001Y-88951999D01*
%TO.N,Net-(JP1-Pad2)*%
X105689500Y-89916000D02*
X107684000Y-89916000D01*
X107684000Y-89916000D02*
X108300000Y-89300000D01*
X108300000Y-89300000D02*
X108300000Y-89300000D01*
%TO.N,Net-(JP2-Pad2)*%
X109500000Y-83250000D02*
X109500000Y-83500000D01*
X99286501Y-70463499D02*
X94323002Y-65500000D01*
X94323002Y-65500000D02*
X93500000Y-65500000D01*
X103713499Y-70463499D02*
X99286501Y-70463499D01*
X109500000Y-76250000D02*
X103713499Y-70463499D01*
X109500000Y-83250000D02*
X109500000Y-76250000D01*
%TO.N,Net-(JP2-Pad1)*%
X97525000Y-91750000D02*
X97650000Y-91625000D01*
X97650000Y-104900000D02*
X97650000Y-104900000D01*
X97650000Y-104900000D02*
X97525000Y-104775000D01*
X97525000Y-104775000D02*
X97525000Y-91750000D01*
%TD*%
D17*
%TO.N,GND*%
X114340001Y-119340000D02*
X85660000Y-119340000D01*
X85660000Y-113588655D01*
X93484900Y-113588655D01*
X93484900Y-113871345D01*
X93540050Y-114148603D01*
X93648231Y-114409775D01*
X93805285Y-114644823D01*
X94005177Y-114844715D01*
X94237578Y-115000000D01*
X94005177Y-115155285D01*
X93805285Y-115355177D01*
X93648231Y-115590225D01*
X93540050Y-115851397D01*
X93484900Y-116128655D01*
X93484900Y-116411345D01*
X93540050Y-116688603D01*
X93648231Y-116949775D01*
X93805285Y-117184823D01*
X94005177Y-117384715D01*
X94240225Y-117541769D01*
X94501397Y-117649950D01*
X94778655Y-117705100D01*
X95061345Y-117705100D01*
X95338603Y-117649950D01*
X95599775Y-117541769D01*
X95834823Y-117384715D01*
X95956764Y-117262774D01*
X96646831Y-117262774D01*
X96718426Y-117506754D01*
X96973954Y-117627664D01*
X97248161Y-117696400D01*
X97530508Y-117710320D01*
X97810147Y-117668889D01*
X98076328Y-117573700D01*
X98201574Y-117506754D01*
X98273169Y-117262774D01*
X99186831Y-117262774D01*
X99258426Y-117506754D01*
X99513954Y-117627664D01*
X99788161Y-117696400D01*
X100070508Y-117710320D01*
X100350147Y-117668889D01*
X100616328Y-117573700D01*
X100741574Y-117506754D01*
X100813169Y-117262774D01*
X101726831Y-117262774D01*
X101798426Y-117506754D01*
X102053954Y-117627664D01*
X102328161Y-117696400D01*
X102610508Y-117710320D01*
X102890147Y-117668889D01*
X103156328Y-117573700D01*
X103281574Y-117506754D01*
X103353169Y-117262774D01*
X102540000Y-116449605D01*
X101726831Y-117262774D01*
X100813169Y-117262774D01*
X100000000Y-116449605D01*
X99186831Y-117262774D01*
X98273169Y-117262774D01*
X97460000Y-116449605D01*
X96646831Y-117262774D01*
X95956764Y-117262774D01*
X96034715Y-117184823D01*
X96190905Y-116951068D01*
X96223246Y-117011574D01*
X96467226Y-117083169D01*
X97280395Y-116270000D01*
X97639605Y-116270000D01*
X98452774Y-117083169D01*
X98696754Y-117011574D01*
X98727976Y-116945590D01*
X98763246Y-117011574D01*
X99007226Y-117083169D01*
X99820395Y-116270000D01*
X100179605Y-116270000D01*
X100992774Y-117083169D01*
X101236754Y-117011574D01*
X101267976Y-116945590D01*
X101303246Y-117011574D01*
X101547226Y-117083169D01*
X102360395Y-116270000D01*
X101547226Y-115456831D01*
X101303246Y-115528426D01*
X101272024Y-115594410D01*
X101236754Y-115528426D01*
X100992774Y-115456831D01*
X100179605Y-116270000D01*
X99820395Y-116270000D01*
X99007226Y-115456831D01*
X98763246Y-115528426D01*
X98732024Y-115594410D01*
X98696754Y-115528426D01*
X98452774Y-115456831D01*
X97639605Y-116270000D01*
X97280395Y-116270000D01*
X96467226Y-115456831D01*
X96223246Y-115528426D01*
X96192812Y-115592744D01*
X96191769Y-115590225D01*
X96034715Y-115355177D01*
X95834823Y-115155285D01*
X95602422Y-115000000D01*
X95834823Y-114844715D01*
X95956764Y-114722774D01*
X96646831Y-114722774D01*
X96718426Y-114966754D01*
X96784410Y-114997976D01*
X96718426Y-115033246D01*
X96646831Y-115277226D01*
X97460000Y-116090395D01*
X98273169Y-115277226D01*
X98201574Y-115033246D01*
X98135590Y-115002024D01*
X98201574Y-114966754D01*
X98273169Y-114722774D01*
X99186831Y-114722774D01*
X99258426Y-114966754D01*
X99324410Y-114997976D01*
X99258426Y-115033246D01*
X99186831Y-115277226D01*
X100000000Y-116090395D01*
X100813169Y-115277226D01*
X100741574Y-115033246D01*
X100675590Y-115002024D01*
X100741574Y-114966754D01*
X100813169Y-114722774D01*
X101726831Y-114722774D01*
X101798426Y-114966754D01*
X101864410Y-114997976D01*
X101798426Y-115033246D01*
X101726831Y-115277226D01*
X102540000Y-116090395D01*
X103353169Y-115277226D01*
X103281574Y-115033246D01*
X103215590Y-115002024D01*
X103281574Y-114966754D01*
X103353169Y-114722774D01*
X102540000Y-113909605D01*
X101726831Y-114722774D01*
X100813169Y-114722774D01*
X100000000Y-113909605D01*
X99186831Y-114722774D01*
X98273169Y-114722774D01*
X97460000Y-113909605D01*
X96646831Y-114722774D01*
X95956764Y-114722774D01*
X96034715Y-114644823D01*
X96190905Y-114411068D01*
X96223246Y-114471574D01*
X96467226Y-114543169D01*
X97280395Y-113730000D01*
X97639605Y-113730000D01*
X98452774Y-114543169D01*
X98696754Y-114471574D01*
X98727976Y-114405590D01*
X98763246Y-114471574D01*
X99007226Y-114543169D01*
X99820395Y-113730000D01*
X100179605Y-113730000D01*
X100992774Y-114543169D01*
X101236754Y-114471574D01*
X101267976Y-114405590D01*
X101303246Y-114471574D01*
X101547226Y-114543169D01*
X102360395Y-113730000D01*
X102719605Y-113730000D01*
X103532774Y-114543169D01*
X103776754Y-114471574D01*
X103807188Y-114407256D01*
X103808231Y-114409775D01*
X103965285Y-114644823D01*
X104165177Y-114844715D01*
X104397578Y-115000000D01*
X104165177Y-115155285D01*
X103965285Y-115355177D01*
X103809095Y-115588932D01*
X103776754Y-115528426D01*
X103532774Y-115456831D01*
X102719605Y-116270000D01*
X103532774Y-117083169D01*
X103776754Y-117011574D01*
X103807188Y-116947256D01*
X103808231Y-116949775D01*
X103965285Y-117184823D01*
X104165177Y-117384715D01*
X104400225Y-117541769D01*
X104661397Y-117649950D01*
X104938655Y-117705100D01*
X105221345Y-117705100D01*
X105498603Y-117649950D01*
X105759775Y-117541769D01*
X105994823Y-117384715D01*
X106194715Y-117184823D01*
X106351769Y-116949775D01*
X106459950Y-116688603D01*
X106515100Y-116411345D01*
X106515100Y-116128655D01*
X106459950Y-115851397D01*
X106351769Y-115590225D01*
X106194715Y-115355177D01*
X105994823Y-115155285D01*
X105762422Y-115000000D01*
X105994823Y-114844715D01*
X106194715Y-114644823D01*
X106351769Y-114409775D01*
X106459950Y-114148603D01*
X106515100Y-113871345D01*
X106515100Y-113588655D01*
X106459950Y-113311397D01*
X106351769Y-113050225D01*
X106194715Y-112815177D01*
X105994823Y-112615285D01*
X105759775Y-112458231D01*
X105498603Y-112350050D01*
X105221345Y-112294900D01*
X104938655Y-112294900D01*
X104661397Y-112350050D01*
X104400225Y-112458231D01*
X104165177Y-112615285D01*
X103965285Y-112815177D01*
X103809095Y-113048932D01*
X103776754Y-112988426D01*
X103532774Y-112916831D01*
X102719605Y-113730000D01*
X102360395Y-113730000D01*
X101547226Y-112916831D01*
X101303246Y-112988426D01*
X101272024Y-113054410D01*
X101236754Y-112988426D01*
X100992774Y-112916831D01*
X100179605Y-113730000D01*
X99820395Y-113730000D01*
X99007226Y-112916831D01*
X98763246Y-112988426D01*
X98732024Y-113054410D01*
X98696754Y-112988426D01*
X98452774Y-112916831D01*
X97639605Y-113730000D01*
X97280395Y-113730000D01*
X96467226Y-112916831D01*
X96223246Y-112988426D01*
X96192812Y-113052744D01*
X96191769Y-113050225D01*
X96034715Y-112815177D01*
X95956764Y-112737226D01*
X96646831Y-112737226D01*
X97460000Y-113550395D01*
X98273169Y-112737226D01*
X99186831Y-112737226D01*
X100000000Y-113550395D01*
X100813169Y-112737226D01*
X101726831Y-112737226D01*
X102540000Y-113550395D01*
X103353169Y-112737226D01*
X103281574Y-112493246D01*
X103026046Y-112372336D01*
X102751839Y-112303600D01*
X102469492Y-112289680D01*
X102189853Y-112331111D01*
X101923672Y-112426300D01*
X101798426Y-112493246D01*
X101726831Y-112737226D01*
X100813169Y-112737226D01*
X100741574Y-112493246D01*
X100486046Y-112372336D01*
X100211839Y-112303600D01*
X99929492Y-112289680D01*
X99649853Y-112331111D01*
X99383672Y-112426300D01*
X99258426Y-112493246D01*
X99186831Y-112737226D01*
X98273169Y-112737226D01*
X98201574Y-112493246D01*
X97946046Y-112372336D01*
X97671839Y-112303600D01*
X97389492Y-112289680D01*
X97109853Y-112331111D01*
X96843672Y-112426300D01*
X96718426Y-112493246D01*
X96646831Y-112737226D01*
X95956764Y-112737226D01*
X95834823Y-112615285D01*
X95599775Y-112458231D01*
X95338603Y-112350050D01*
X95061345Y-112294900D01*
X94778655Y-112294900D01*
X94501397Y-112350050D01*
X94240225Y-112458231D01*
X94005177Y-112615285D01*
X93805285Y-112815177D01*
X93648231Y-113050225D01*
X93540050Y-113311397D01*
X93484900Y-113588655D01*
X85660000Y-113588655D01*
X85660000Y-65398061D01*
X92465000Y-65398061D01*
X92465000Y-65601939D01*
X92504774Y-65801898D01*
X92582795Y-65990256D01*
X92696063Y-66159774D01*
X92840226Y-66303937D01*
X93009744Y-66417205D01*
X93198102Y-66495226D01*
X93398061Y-66535000D01*
X93601939Y-66535000D01*
X93801898Y-66495226D01*
X93990256Y-66417205D01*
X94095251Y-66347050D01*
X97238200Y-69490000D01*
X94453711Y-69490000D01*
X94409774Y-69446063D01*
X94240256Y-69332795D01*
X94051898Y-69254774D01*
X93851939Y-69215000D01*
X93648061Y-69215000D01*
X93448102Y-69254774D01*
X93259744Y-69332795D01*
X93090226Y-69446063D01*
X92946063Y-69590226D01*
X92832795Y-69759744D01*
X92754774Y-69948102D01*
X92715000Y-70148061D01*
X92715000Y-70351939D01*
X92754774Y-70551898D01*
X92832795Y-70740256D01*
X92946063Y-70909774D01*
X93090226Y-71053937D01*
X93259744Y-71167205D01*
X93448102Y-71245226D01*
X93648061Y-71285000D01*
X93851939Y-71285000D01*
X94051898Y-71245226D01*
X94240256Y-71167205D01*
X94409774Y-71053937D01*
X94453711Y-71010000D01*
X98062199Y-71010000D01*
X106223992Y-79171794D01*
X104355539Y-79171794D01*
X104318206Y-79168117D01*
X104293124Y-79170587D01*
X104397142Y-79066569D01*
X104510410Y-78897051D01*
X104588431Y-78708693D01*
X104628205Y-78508734D01*
X104628205Y-78304856D01*
X104588431Y-78104897D01*
X104510410Y-77916539D01*
X104397142Y-77747021D01*
X104252979Y-77602858D01*
X104083461Y-77489590D01*
X103895103Y-77411569D01*
X103695144Y-77371795D01*
X103491266Y-77371795D01*
X103291307Y-77411569D01*
X103102949Y-77489590D01*
X102933431Y-77602858D01*
X102789268Y-77747021D01*
X102676000Y-77916539D01*
X102597979Y-78104897D01*
X102558205Y-78304856D01*
X102558205Y-78366993D01*
X99710199Y-81215000D01*
X99648061Y-81215000D01*
X99448102Y-81254774D01*
X99259744Y-81332795D01*
X99090226Y-81446063D01*
X98946063Y-81590226D01*
X98832795Y-81759744D01*
X98754774Y-81948102D01*
X98715000Y-82148061D01*
X98715000Y-82351939D01*
X98754774Y-82551898D01*
X98832795Y-82740256D01*
X98946063Y-82909774D01*
X99090226Y-83053937D01*
X99259744Y-83167205D01*
X99448102Y-83245226D01*
X99648061Y-83285000D01*
X99851939Y-83285000D01*
X100051898Y-83245226D01*
X100240256Y-83167205D01*
X100409774Y-83053937D01*
X100553937Y-82909774D01*
X100667205Y-82740256D01*
X100745226Y-82551898D01*
X100785000Y-82351939D01*
X100785000Y-82289801D01*
X103633007Y-79441795D01*
X103695144Y-79441795D01*
X103745368Y-79431805D01*
X103683232Y-79507518D01*
X103612660Y-79639547D01*
X103569203Y-79782808D01*
X103554529Y-79931794D01*
X103558207Y-79969137D01*
X103558206Y-89899490D01*
X100663999Y-92793698D01*
X100635001Y-92817496D01*
X100611203Y-92846494D01*
X100611202Y-92846495D01*
X100540027Y-92933221D01*
X100469455Y-93065251D01*
X100454318Y-93115152D01*
X100425998Y-93208511D01*
X100415001Y-93320164D01*
X100415001Y-93320175D01*
X100411325Y-93357497D01*
X100415001Y-93394819D01*
X100415001Y-94039667D01*
X100415002Y-97764195D01*
X100309744Y-97807795D01*
X100140226Y-97921063D01*
X99996063Y-98065226D01*
X99882795Y-98234744D01*
X99875000Y-98253563D01*
X99875000Y-95522213D01*
X99904705Y-95477756D01*
X99982726Y-95289398D01*
X100022500Y-95089439D01*
X100022500Y-94885561D01*
X99982726Y-94685602D01*
X99904705Y-94497244D01*
X99791437Y-94327726D01*
X99647274Y-94183563D01*
X99477756Y-94070295D01*
X99289398Y-93992274D01*
X99089439Y-93952500D01*
X98885561Y-93952500D01*
X98685602Y-93992274D01*
X98497244Y-94070295D01*
X98327726Y-94183563D01*
X98285000Y-94226289D01*
X98285000Y-92445490D01*
X98309774Y-92428937D01*
X98453937Y-92284774D01*
X98567205Y-92115256D01*
X98645226Y-91926898D01*
X98685000Y-91726939D01*
X98685000Y-91523061D01*
X98645226Y-91323102D01*
X98567205Y-91134744D01*
X98453937Y-90965226D01*
X98309774Y-90821063D01*
X98140256Y-90707795D01*
X97951898Y-90629774D01*
X97751939Y-90590000D01*
X97548061Y-90590000D01*
X97348102Y-90629774D01*
X97159744Y-90707795D01*
X96990226Y-90821063D01*
X96846063Y-90965226D01*
X96732795Y-91134744D01*
X96654774Y-91323102D01*
X96615000Y-91523061D01*
X96615000Y-91726939D01*
X96654774Y-91926898D01*
X96732795Y-92115256D01*
X96765001Y-92163456D01*
X96765000Y-104361546D01*
X96732795Y-104409744D01*
X96654774Y-104598102D01*
X96615000Y-104798061D01*
X96615000Y-105001939D01*
X96654774Y-105201898D01*
X96732795Y-105390256D01*
X96846063Y-105559774D01*
X96990226Y-105703937D01*
X97159744Y-105817205D01*
X97348102Y-105895226D01*
X97548061Y-105935000D01*
X97751939Y-105935000D01*
X97951898Y-105895226D01*
X98140256Y-105817205D01*
X98309774Y-105703937D01*
X98453937Y-105559774D01*
X98567205Y-105390256D01*
X98645226Y-105201898D01*
X98685000Y-105001939D01*
X98685000Y-104798061D01*
X98645226Y-104598102D01*
X98567205Y-104409744D01*
X98453937Y-104240226D01*
X98309774Y-104096063D01*
X98285000Y-104079510D01*
X98285000Y-103160768D01*
X98311063Y-103199774D01*
X98455226Y-103343937D01*
X98624744Y-103457205D01*
X98813102Y-103535226D01*
X99013061Y-103575000D01*
X99216939Y-103575000D01*
X99416898Y-103535226D01*
X99605256Y-103457205D01*
X99774774Y-103343937D01*
X99918937Y-103199774D01*
X100032205Y-103030256D01*
X100110226Y-102841898D01*
X100150000Y-102641939D01*
X100150000Y-102438061D01*
X100110226Y-102238102D01*
X100032205Y-102049744D01*
X99918937Y-101880226D01*
X99875000Y-101836289D01*
X99875000Y-99196437D01*
X99882795Y-99215256D01*
X99996063Y-99384774D01*
X100140226Y-99528937D01*
X100309744Y-99642205D01*
X100498102Y-99720226D01*
X100698061Y-99760000D01*
X100901939Y-99760000D01*
X101101898Y-99720226D01*
X101290256Y-99642205D01*
X101459774Y-99528937D01*
X101603937Y-99384774D01*
X101717205Y-99215256D01*
X101795226Y-99026898D01*
X101835000Y-98826939D01*
X101835000Y-98727457D01*
X101880547Y-98642246D01*
X101924004Y-98498985D01*
X101935001Y-98387332D01*
X101938678Y-98349999D01*
X101935001Y-98312666D01*
X101935001Y-96237468D01*
X101984744Y-96270705D01*
X102173102Y-96348726D01*
X102373061Y-96388500D01*
X102576939Y-96388500D01*
X102776898Y-96348726D01*
X102965256Y-96270705D01*
X103134774Y-96157437D01*
X103178711Y-96113500D01*
X106859178Y-96113500D01*
X106896500Y-96117176D01*
X106933822Y-96113500D01*
X106933833Y-96113500D01*
X107045486Y-96102503D01*
X107188747Y-96059046D01*
X107320776Y-95988474D01*
X107436501Y-95893501D01*
X107460304Y-95864497D01*
X110239802Y-93085000D01*
X110301939Y-93085000D01*
X110501898Y-93045226D01*
X110690256Y-92967205D01*
X110859774Y-92853937D01*
X111003937Y-92709774D01*
X111117205Y-92540256D01*
X111195226Y-92351898D01*
X111235000Y-92151939D01*
X111235000Y-91948061D01*
X111195226Y-91748102D01*
X111117205Y-91559744D01*
X111003937Y-91390226D01*
X110859774Y-91246063D01*
X110690256Y-91132795D01*
X110501898Y-91054774D01*
X110301939Y-91015000D01*
X110239802Y-91015000D01*
X109785001Y-90560200D01*
X109785001Y-88989324D01*
X109788677Y-88951999D01*
X109785001Y-88914674D01*
X109785001Y-88914666D01*
X109774004Y-88803013D01*
X109730547Y-88659752D01*
X109659975Y-88527723D01*
X109565002Y-88411998D01*
X109551271Y-88400729D01*
X109540001Y-88386997D01*
X109511003Y-88363199D01*
X109166795Y-88018992D01*
X109166795Y-84232258D01*
X109198102Y-84245226D01*
X109398061Y-84285000D01*
X109601939Y-84285000D01*
X109801898Y-84245226D01*
X109990256Y-84167205D01*
X110159774Y-84053937D01*
X110303937Y-83909774D01*
X110417205Y-83740256D01*
X110495226Y-83551898D01*
X110535000Y-83351939D01*
X110535000Y-83148061D01*
X110495226Y-82948102D01*
X110417205Y-82759744D01*
X110303937Y-82590226D01*
X110260000Y-82546289D01*
X110260000Y-76287322D01*
X110263676Y-76249999D01*
X110260000Y-76212676D01*
X110260000Y-76212667D01*
X110249003Y-76101014D01*
X110205546Y-75957753D01*
X110134974Y-75825724D01*
X110040001Y-75709999D01*
X110011003Y-75686201D01*
X109608497Y-75283695D01*
X109801898Y-75245226D01*
X109990256Y-75167205D01*
X110159774Y-75053937D01*
X110303937Y-74909774D01*
X110417205Y-74740256D01*
X110495226Y-74551898D01*
X110535000Y-74351939D01*
X110535000Y-74148061D01*
X110495226Y-73948102D01*
X110417205Y-73759744D01*
X110303937Y-73590226D01*
X110159774Y-73446063D01*
X109990256Y-73332795D01*
X109801898Y-73254774D01*
X109601939Y-73215000D01*
X109539802Y-73215000D01*
X105078206Y-68753405D01*
X105078206Y-58605529D01*
X105081882Y-58568206D01*
X105078206Y-58530883D01*
X105078206Y-58530873D01*
X105067209Y-58419220D01*
X105023752Y-58275959D01*
X105000217Y-58231928D01*
X104953180Y-58143929D01*
X104882005Y-58057203D01*
X104858207Y-58028205D01*
X104829209Y-58004407D01*
X101554488Y-54729686D01*
X101589502Y-54664180D01*
X101625812Y-54544482D01*
X101638072Y-54420000D01*
X101638072Y-53420000D01*
X101625812Y-53295518D01*
X101589502Y-53175820D01*
X101530537Y-53065506D01*
X101451185Y-52968815D01*
X101354494Y-52889463D01*
X101244180Y-52830498D01*
X101124482Y-52794188D01*
X101000000Y-52781928D01*
X99000000Y-52781928D01*
X98875518Y-52794188D01*
X98755820Y-52830498D01*
X98645506Y-52889463D01*
X98548815Y-52968815D01*
X98469463Y-53065506D01*
X98410498Y-53175820D01*
X98374188Y-53295518D01*
X98361928Y-53420000D01*
X98361928Y-54420000D01*
X98374188Y-54544482D01*
X98410498Y-54664180D01*
X98469463Y-54774494D01*
X98548815Y-54871185D01*
X98645506Y-54950537D01*
X98755820Y-55009502D01*
X98875518Y-55045812D01*
X99000000Y-55058072D01*
X99733271Y-55058072D01*
X99872998Y-55197799D01*
X99872998Y-55293748D01*
X99714250Y-55135000D01*
X99000000Y-55131928D01*
X98875518Y-55144188D01*
X98755820Y-55180498D01*
X98645506Y-55239463D01*
X98548815Y-55318815D01*
X98469463Y-55415506D01*
X98410498Y-55525820D01*
X98374188Y-55645518D01*
X98361928Y-55770000D01*
X98365000Y-55984250D01*
X98523750Y-56143000D01*
X99873000Y-56143000D01*
X99873000Y-56123000D01*
X100127000Y-56123000D01*
X100127000Y-56143000D01*
X100147000Y-56143000D01*
X100147000Y-56397000D01*
X100127000Y-56397000D01*
X100127000Y-57246250D01*
X100285750Y-57405000D01*
X101000000Y-57408072D01*
X101124482Y-57395812D01*
X101244180Y-57359502D01*
X101354494Y-57300537D01*
X101451185Y-57221185D01*
X101530537Y-57124494D01*
X101589502Y-57014180D01*
X101612748Y-56937549D01*
X103558207Y-58883009D01*
X103558206Y-66894461D01*
X103558206Y-66894462D01*
X103558207Y-69030874D01*
X103554530Y-69068206D01*
X103569204Y-69217191D01*
X103612660Y-69360452D01*
X103683232Y-69492482D01*
X103725885Y-69544454D01*
X103778206Y-69608207D01*
X103807204Y-69632005D01*
X103901543Y-69726344D01*
X103862485Y-69714496D01*
X103750832Y-69703499D01*
X103750821Y-69703499D01*
X103713499Y-69699823D01*
X103676177Y-69703499D01*
X99601303Y-69703499D01*
X97067804Y-67170000D01*
X98361928Y-67170000D01*
X98361928Y-68170000D01*
X98374188Y-68294482D01*
X98410498Y-68414180D01*
X98469463Y-68524494D01*
X98548815Y-68621185D01*
X98645506Y-68700537D01*
X98755820Y-68759502D01*
X98875518Y-68795812D01*
X99000000Y-68808072D01*
X101000000Y-68808072D01*
X101124482Y-68795812D01*
X101244180Y-68759502D01*
X101354494Y-68700537D01*
X101451185Y-68621185D01*
X101530537Y-68524494D01*
X101589502Y-68414180D01*
X101625812Y-68294482D01*
X101638072Y-68170000D01*
X101638072Y-67170000D01*
X101625812Y-67045518D01*
X101589502Y-66925820D01*
X101530537Y-66815506D01*
X101451185Y-66718815D01*
X101354494Y-66639463D01*
X101244180Y-66580498D01*
X101124482Y-66544188D01*
X101000000Y-66531928D01*
X99000000Y-66531928D01*
X98875518Y-66544188D01*
X98755820Y-66580498D01*
X98645506Y-66639463D01*
X98548815Y-66718815D01*
X98469463Y-66815506D01*
X98410498Y-66925820D01*
X98374188Y-67045518D01*
X98361928Y-67170000D01*
X97067804Y-67170000D01*
X94886806Y-64989003D01*
X94863003Y-64959999D01*
X94747278Y-64865026D01*
X94615249Y-64794454D01*
X94471988Y-64750997D01*
X94360335Y-64740000D01*
X94360324Y-64740000D01*
X94323002Y-64736324D01*
X94285680Y-64740000D01*
X94203711Y-64740000D01*
X94159774Y-64696063D01*
X93990256Y-64582795D01*
X93801898Y-64504774D01*
X93601939Y-64465000D01*
X93398061Y-64465000D01*
X93198102Y-64504774D01*
X93009744Y-64582795D01*
X92840226Y-64696063D01*
X92696063Y-64840226D01*
X92582795Y-65009744D01*
X92504774Y-65198102D01*
X92465000Y-65398061D01*
X85660000Y-65398061D01*
X85660000Y-59898061D01*
X92715000Y-59898061D01*
X92715000Y-60101939D01*
X92754774Y-60301898D01*
X92832795Y-60490256D01*
X92946063Y-60659774D01*
X93090226Y-60803937D01*
X93259744Y-60917205D01*
X93448102Y-60995226D01*
X93648061Y-61035000D01*
X93851939Y-61035000D01*
X94051898Y-60995226D01*
X94240256Y-60917205D01*
X94409774Y-60803937D01*
X94453711Y-60760000D01*
X98685359Y-60760000D01*
X98479651Y-60897450D01*
X98147450Y-61229651D01*
X97886440Y-61620279D01*
X97706654Y-62054321D01*
X97615000Y-62515098D01*
X97615000Y-62984902D01*
X97706654Y-63445679D01*
X97886440Y-63879721D01*
X98147450Y-64270349D01*
X98479651Y-64602550D01*
X98870279Y-64863560D01*
X99304321Y-65043346D01*
X99765098Y-65135000D01*
X100234902Y-65135000D01*
X100695679Y-65043346D01*
X101129721Y-64863560D01*
X101520349Y-64602550D01*
X101852550Y-64270349D01*
X102113560Y-63879721D01*
X102293346Y-63445679D01*
X102385000Y-62984902D01*
X102385000Y-62515098D01*
X102293346Y-62054321D01*
X102113560Y-61620279D01*
X101852550Y-61229651D01*
X101520349Y-60897450D01*
X101129721Y-60636440D01*
X100819813Y-60508072D01*
X101000000Y-60508072D01*
X101124482Y-60495812D01*
X101244180Y-60459502D01*
X101354494Y-60400537D01*
X101451185Y-60321185D01*
X101530537Y-60224494D01*
X101589502Y-60114180D01*
X101625812Y-59994482D01*
X101638072Y-59870000D01*
X101638072Y-58870000D01*
X101625812Y-58745518D01*
X101589502Y-58625820D01*
X101530537Y-58515506D01*
X101451185Y-58418815D01*
X101354494Y-58339463D01*
X101244180Y-58280498D01*
X101124482Y-58244188D01*
X101000000Y-58231928D01*
X99000000Y-58231928D01*
X98875518Y-58244188D01*
X98755820Y-58280498D01*
X98645506Y-58339463D01*
X98548815Y-58418815D01*
X98469463Y-58515506D01*
X98410498Y-58625820D01*
X98374188Y-58745518D01*
X98361928Y-58870000D01*
X98361928Y-59240000D01*
X94453711Y-59240000D01*
X94409774Y-59196063D01*
X94240256Y-59082795D01*
X94051898Y-59004774D01*
X93851939Y-58965000D01*
X93648061Y-58965000D01*
X93448102Y-59004774D01*
X93259744Y-59082795D01*
X93090226Y-59196063D01*
X92946063Y-59340226D01*
X92832795Y-59509744D01*
X92754774Y-59698102D01*
X92715000Y-59898061D01*
X85660000Y-59898061D01*
X85660000Y-56770000D01*
X98361928Y-56770000D01*
X98374188Y-56894482D01*
X98410498Y-57014180D01*
X98469463Y-57124494D01*
X98548815Y-57221185D01*
X98645506Y-57300537D01*
X98755820Y-57359502D01*
X98875518Y-57395812D01*
X99000000Y-57408072D01*
X99714250Y-57405000D01*
X99873000Y-57246250D01*
X99873000Y-56397000D01*
X98523750Y-56397000D01*
X98365000Y-56555750D01*
X98361928Y-56770000D01*
X85660000Y-56770000D01*
X85660000Y-48765098D01*
X97615000Y-48765098D01*
X97615000Y-49234902D01*
X97706654Y-49695679D01*
X97886440Y-50129721D01*
X98147450Y-50520349D01*
X98479651Y-50852550D01*
X98870279Y-51113560D01*
X99304321Y-51293346D01*
X99765098Y-51385000D01*
X100234902Y-51385000D01*
X100695679Y-51293346D01*
X101129721Y-51113560D01*
X101520349Y-50852550D01*
X101852550Y-50520349D01*
X102113560Y-50129721D01*
X102293346Y-49695679D01*
X102385000Y-49234902D01*
X102385000Y-48765098D01*
X102293346Y-48304321D01*
X102113560Y-47870279D01*
X101852550Y-47479651D01*
X101520349Y-47147450D01*
X101129721Y-46886440D01*
X100819813Y-46758072D01*
X101000000Y-46758072D01*
X101124482Y-46745812D01*
X101244180Y-46709502D01*
X101354494Y-46650537D01*
X101451185Y-46571185D01*
X101530537Y-46474494D01*
X101589502Y-46364180D01*
X101625812Y-46244482D01*
X101638072Y-46120000D01*
X101638072Y-45120000D01*
X101625812Y-44995518D01*
X101589502Y-44875820D01*
X101530537Y-44765506D01*
X101451185Y-44668815D01*
X101354494Y-44589463D01*
X101244180Y-44530498D01*
X101124482Y-44494188D01*
X101000000Y-44481928D01*
X99000000Y-44481928D01*
X98875518Y-44494188D01*
X98755820Y-44530498D01*
X98645506Y-44589463D01*
X98548815Y-44668815D01*
X98469463Y-44765506D01*
X98410498Y-44875820D01*
X98374188Y-44995518D01*
X98361928Y-45120000D01*
X98361928Y-46120000D01*
X98374188Y-46244482D01*
X98410498Y-46364180D01*
X98469463Y-46474494D01*
X98548815Y-46571185D01*
X98645506Y-46650537D01*
X98755820Y-46709502D01*
X98875518Y-46745812D01*
X99000000Y-46758072D01*
X99180187Y-46758072D01*
X98870279Y-46886440D01*
X98479651Y-47147450D01*
X98147450Y-47479651D01*
X97886440Y-47870279D01*
X97706654Y-48304321D01*
X97615000Y-48765098D01*
X85660000Y-48765098D01*
X85660000Y-43020000D01*
X98361928Y-43020000D01*
X98374188Y-43144482D01*
X98410498Y-43264180D01*
X98469463Y-43374494D01*
X98548815Y-43471185D01*
X98645506Y-43550537D01*
X98755820Y-43609502D01*
X98875518Y-43645812D01*
X99000000Y-43658072D01*
X99714250Y-43655000D01*
X99873000Y-43496250D01*
X99873000Y-42647000D01*
X100127000Y-42647000D01*
X100127000Y-43496250D01*
X100285750Y-43655000D01*
X101000000Y-43658072D01*
X101124482Y-43645812D01*
X101244180Y-43609502D01*
X101354494Y-43550537D01*
X101451185Y-43471185D01*
X101530537Y-43374494D01*
X101589502Y-43264180D01*
X101625812Y-43144482D01*
X101638072Y-43020000D01*
X101635000Y-42805750D01*
X101476250Y-42647000D01*
X100127000Y-42647000D01*
X99873000Y-42647000D01*
X98523750Y-42647000D01*
X98365000Y-42805750D01*
X98361928Y-43020000D01*
X85660000Y-43020000D01*
X85660000Y-40063589D01*
X93615000Y-40063589D01*
X93615000Y-40336411D01*
X93668225Y-40603989D01*
X93772629Y-40856043D01*
X93924201Y-41082886D01*
X94117114Y-41275799D01*
X94343957Y-41427371D01*
X94596011Y-41531775D01*
X94863589Y-41585000D01*
X95136411Y-41585000D01*
X95403989Y-41531775D01*
X95656043Y-41427371D01*
X95882886Y-41275799D01*
X96000000Y-41158685D01*
X96117114Y-41275799D01*
X96343957Y-41427371D01*
X96596011Y-41531775D01*
X96863589Y-41585000D01*
X97136411Y-41585000D01*
X97403989Y-41531775D01*
X97656043Y-41427371D01*
X97882886Y-41275799D01*
X98000000Y-41158685D01*
X98117114Y-41275799D01*
X98343957Y-41427371D01*
X98594640Y-41531207D01*
X98548815Y-41568815D01*
X98469463Y-41665506D01*
X98410498Y-41775820D01*
X98374188Y-41895518D01*
X98361928Y-42020000D01*
X98365000Y-42234250D01*
X98523750Y-42393000D01*
X99873000Y-42393000D01*
X99873000Y-41543750D01*
X99716335Y-41387085D01*
X99882886Y-41275799D01*
X100000000Y-41158685D01*
X100117114Y-41275799D01*
X100283665Y-41387085D01*
X100127000Y-41543750D01*
X100127000Y-42393000D01*
X101476250Y-42393000D01*
X101635000Y-42234250D01*
X101638072Y-42020000D01*
X101625812Y-41895518D01*
X101589502Y-41775820D01*
X101530537Y-41665506D01*
X101451185Y-41568815D01*
X101405360Y-41531207D01*
X101656043Y-41427371D01*
X101882886Y-41275799D01*
X102000000Y-41158685D01*
X102117114Y-41275799D01*
X102343957Y-41427371D01*
X102596011Y-41531775D01*
X102863589Y-41585000D01*
X103136411Y-41585000D01*
X103403989Y-41531775D01*
X103656043Y-41427371D01*
X103882886Y-41275799D01*
X104000000Y-41158685D01*
X104117114Y-41275799D01*
X104343957Y-41427371D01*
X104596011Y-41531775D01*
X104863589Y-41585000D01*
X105136411Y-41585000D01*
X105403989Y-41531775D01*
X105656043Y-41427371D01*
X105882886Y-41275799D01*
X106075799Y-41082886D01*
X106227371Y-40856043D01*
X106331775Y-40603989D01*
X106385000Y-40336411D01*
X106385000Y-40063589D01*
X106331775Y-39796011D01*
X106227371Y-39543957D01*
X106075799Y-39317114D01*
X105882886Y-39124201D01*
X105656043Y-38972629D01*
X105403989Y-38868225D01*
X105136411Y-38815000D01*
X104863589Y-38815000D01*
X104718635Y-38843833D01*
X104488803Y-38614001D01*
X104465000Y-38584998D01*
X104349275Y-38490025D01*
X104217246Y-38419453D01*
X104073985Y-38375996D01*
X103962332Y-38364999D01*
X103962321Y-38364999D01*
X103924999Y-38361323D01*
X103887677Y-38364999D01*
X96012324Y-38364999D01*
X95975001Y-38361323D01*
X95937678Y-38364999D01*
X95937668Y-38364999D01*
X95826015Y-38375996D01*
X95682754Y-38419453D01*
X95550724Y-38490025D01*
X95467084Y-38558667D01*
X95435000Y-38584998D01*
X95411202Y-38613996D01*
X95197956Y-38827242D01*
X95136411Y-38815000D01*
X94863589Y-38815000D01*
X94596011Y-38868225D01*
X94343957Y-38972629D01*
X94117114Y-39124201D01*
X93924201Y-39317114D01*
X93772629Y-39543957D01*
X93668225Y-39796011D01*
X93615000Y-40063589D01*
X85660000Y-40063589D01*
X85660000Y-28350000D01*
X90711928Y-28350000D01*
X90711928Y-32050000D01*
X90724188Y-32174482D01*
X90760498Y-32294180D01*
X90819463Y-32404494D01*
X90898815Y-32501185D01*
X90995506Y-32580537D01*
X91105820Y-32639502D01*
X91225518Y-32675812D01*
X91350000Y-32688072D01*
X93350000Y-32688072D01*
X93474482Y-32675812D01*
X93594180Y-32639502D01*
X93704494Y-32580537D01*
X93801185Y-32501185D01*
X93880537Y-32404494D01*
X93939502Y-32294180D01*
X93975812Y-32174482D01*
X93988072Y-32050000D01*
X93988072Y-28350000D01*
X106011928Y-28350000D01*
X106011928Y-32050000D01*
X106024188Y-32174482D01*
X106060498Y-32294180D01*
X106119463Y-32404494D01*
X106198815Y-32501185D01*
X106295506Y-32580537D01*
X106405820Y-32639502D01*
X106525518Y-32675812D01*
X106650000Y-32688072D01*
X108650000Y-32688072D01*
X108774482Y-32675812D01*
X108894180Y-32639502D01*
X109004494Y-32580537D01*
X109101185Y-32501185D01*
X109180537Y-32404494D01*
X109239502Y-32294180D01*
X109275812Y-32174482D01*
X109288072Y-32050000D01*
X109288072Y-28350000D01*
X109275812Y-28225518D01*
X109239502Y-28105820D01*
X109180537Y-27995506D01*
X109101185Y-27898815D01*
X109004494Y-27819463D01*
X108894180Y-27760498D01*
X108774482Y-27724188D01*
X108650000Y-27711928D01*
X106650000Y-27711928D01*
X106525518Y-27724188D01*
X106405820Y-27760498D01*
X106295506Y-27819463D01*
X106198815Y-27898815D01*
X106119463Y-27995506D01*
X106060498Y-28105820D01*
X106024188Y-28225518D01*
X106011928Y-28350000D01*
X93988072Y-28350000D01*
X93975812Y-28225518D01*
X93939502Y-28105820D01*
X93880537Y-27995506D01*
X93801185Y-27898815D01*
X93704494Y-27819463D01*
X93594180Y-27760498D01*
X93474482Y-27724188D01*
X93350000Y-27711928D01*
X91350000Y-27711928D01*
X91225518Y-27724188D01*
X91105820Y-27760498D01*
X90995506Y-27819463D01*
X90898815Y-27898815D01*
X90819463Y-27995506D01*
X90760498Y-28105820D01*
X90724188Y-28225518D01*
X90711928Y-28350000D01*
X85660000Y-28350000D01*
X85660000Y-20660000D01*
X114340000Y-20660000D01*
X114340001Y-119340000D01*
%TA.AperFunction,Conductor*%
D18*
G36*
X114340001Y-119340000D02*
G01*
X85660000Y-119340000D01*
X85660000Y-113588655D01*
X93484900Y-113588655D01*
X93484900Y-113871345D01*
X93540050Y-114148603D01*
X93648231Y-114409775D01*
X93805285Y-114644823D01*
X94005177Y-114844715D01*
X94237578Y-115000000D01*
X94005177Y-115155285D01*
X93805285Y-115355177D01*
X93648231Y-115590225D01*
X93540050Y-115851397D01*
X93484900Y-116128655D01*
X93484900Y-116411345D01*
X93540050Y-116688603D01*
X93648231Y-116949775D01*
X93805285Y-117184823D01*
X94005177Y-117384715D01*
X94240225Y-117541769D01*
X94501397Y-117649950D01*
X94778655Y-117705100D01*
X95061345Y-117705100D01*
X95338603Y-117649950D01*
X95599775Y-117541769D01*
X95834823Y-117384715D01*
X95956764Y-117262774D01*
X96646831Y-117262774D01*
X96718426Y-117506754D01*
X96973954Y-117627664D01*
X97248161Y-117696400D01*
X97530508Y-117710320D01*
X97810147Y-117668889D01*
X98076328Y-117573700D01*
X98201574Y-117506754D01*
X98273169Y-117262774D01*
X99186831Y-117262774D01*
X99258426Y-117506754D01*
X99513954Y-117627664D01*
X99788161Y-117696400D01*
X100070508Y-117710320D01*
X100350147Y-117668889D01*
X100616328Y-117573700D01*
X100741574Y-117506754D01*
X100813169Y-117262774D01*
X101726831Y-117262774D01*
X101798426Y-117506754D01*
X102053954Y-117627664D01*
X102328161Y-117696400D01*
X102610508Y-117710320D01*
X102890147Y-117668889D01*
X103156328Y-117573700D01*
X103281574Y-117506754D01*
X103353169Y-117262774D01*
X102540000Y-116449605D01*
X101726831Y-117262774D01*
X100813169Y-117262774D01*
X100000000Y-116449605D01*
X99186831Y-117262774D01*
X98273169Y-117262774D01*
X97460000Y-116449605D01*
X96646831Y-117262774D01*
X95956764Y-117262774D01*
X96034715Y-117184823D01*
X96190905Y-116951068D01*
X96223246Y-117011574D01*
X96467226Y-117083169D01*
X97280395Y-116270000D01*
X97639605Y-116270000D01*
X98452774Y-117083169D01*
X98696754Y-117011574D01*
X98727976Y-116945590D01*
X98763246Y-117011574D01*
X99007226Y-117083169D01*
X99820395Y-116270000D01*
X100179605Y-116270000D01*
X100992774Y-117083169D01*
X101236754Y-117011574D01*
X101267976Y-116945590D01*
X101303246Y-117011574D01*
X101547226Y-117083169D01*
X102360395Y-116270000D01*
X101547226Y-115456831D01*
X101303246Y-115528426D01*
X101272024Y-115594410D01*
X101236754Y-115528426D01*
X100992774Y-115456831D01*
X100179605Y-116270000D01*
X99820395Y-116270000D01*
X99007226Y-115456831D01*
X98763246Y-115528426D01*
X98732024Y-115594410D01*
X98696754Y-115528426D01*
X98452774Y-115456831D01*
X97639605Y-116270000D01*
X97280395Y-116270000D01*
X96467226Y-115456831D01*
X96223246Y-115528426D01*
X96192812Y-115592744D01*
X96191769Y-115590225D01*
X96034715Y-115355177D01*
X95834823Y-115155285D01*
X95602422Y-115000000D01*
X95834823Y-114844715D01*
X95956764Y-114722774D01*
X96646831Y-114722774D01*
X96718426Y-114966754D01*
X96784410Y-114997976D01*
X96718426Y-115033246D01*
X96646831Y-115277226D01*
X97460000Y-116090395D01*
X98273169Y-115277226D01*
X98201574Y-115033246D01*
X98135590Y-115002024D01*
X98201574Y-114966754D01*
X98273169Y-114722774D01*
X99186831Y-114722774D01*
X99258426Y-114966754D01*
X99324410Y-114997976D01*
X99258426Y-115033246D01*
X99186831Y-115277226D01*
X100000000Y-116090395D01*
X100813169Y-115277226D01*
X100741574Y-115033246D01*
X100675590Y-115002024D01*
X100741574Y-114966754D01*
X100813169Y-114722774D01*
X101726831Y-114722774D01*
X101798426Y-114966754D01*
X101864410Y-114997976D01*
X101798426Y-115033246D01*
X101726831Y-115277226D01*
X102540000Y-116090395D01*
X103353169Y-115277226D01*
X103281574Y-115033246D01*
X103215590Y-115002024D01*
X103281574Y-114966754D01*
X103353169Y-114722774D01*
X102540000Y-113909605D01*
X101726831Y-114722774D01*
X100813169Y-114722774D01*
X100000000Y-113909605D01*
X99186831Y-114722774D01*
X98273169Y-114722774D01*
X97460000Y-113909605D01*
X96646831Y-114722774D01*
X95956764Y-114722774D01*
X96034715Y-114644823D01*
X96190905Y-114411068D01*
X96223246Y-114471574D01*
X96467226Y-114543169D01*
X97280395Y-113730000D01*
X97639605Y-113730000D01*
X98452774Y-114543169D01*
X98696754Y-114471574D01*
X98727976Y-114405590D01*
X98763246Y-114471574D01*
X99007226Y-114543169D01*
X99820395Y-113730000D01*
X100179605Y-113730000D01*
X100992774Y-114543169D01*
X101236754Y-114471574D01*
X101267976Y-114405590D01*
X101303246Y-114471574D01*
X101547226Y-114543169D01*
X102360395Y-113730000D01*
X102719605Y-113730000D01*
X103532774Y-114543169D01*
X103776754Y-114471574D01*
X103807188Y-114407256D01*
X103808231Y-114409775D01*
X103965285Y-114644823D01*
X104165177Y-114844715D01*
X104397578Y-115000000D01*
X104165177Y-115155285D01*
X103965285Y-115355177D01*
X103809095Y-115588932D01*
X103776754Y-115528426D01*
X103532774Y-115456831D01*
X102719605Y-116270000D01*
X103532774Y-117083169D01*
X103776754Y-117011574D01*
X103807188Y-116947256D01*
X103808231Y-116949775D01*
X103965285Y-117184823D01*
X104165177Y-117384715D01*
X104400225Y-117541769D01*
X104661397Y-117649950D01*
X104938655Y-117705100D01*
X105221345Y-117705100D01*
X105498603Y-117649950D01*
X105759775Y-117541769D01*
X105994823Y-117384715D01*
X106194715Y-117184823D01*
X106351769Y-116949775D01*
X106459950Y-116688603D01*
X106515100Y-116411345D01*
X106515100Y-116128655D01*
X106459950Y-115851397D01*
X106351769Y-115590225D01*
X106194715Y-115355177D01*
X105994823Y-115155285D01*
X105762422Y-115000000D01*
X105994823Y-114844715D01*
X106194715Y-114644823D01*
X106351769Y-114409775D01*
X106459950Y-114148603D01*
X106515100Y-113871345D01*
X106515100Y-113588655D01*
X106459950Y-113311397D01*
X106351769Y-113050225D01*
X106194715Y-112815177D01*
X105994823Y-112615285D01*
X105759775Y-112458231D01*
X105498603Y-112350050D01*
X105221345Y-112294900D01*
X104938655Y-112294900D01*
X104661397Y-112350050D01*
X104400225Y-112458231D01*
X104165177Y-112615285D01*
X103965285Y-112815177D01*
X103809095Y-113048932D01*
X103776754Y-112988426D01*
X103532774Y-112916831D01*
X102719605Y-113730000D01*
X102360395Y-113730000D01*
X101547226Y-112916831D01*
X101303246Y-112988426D01*
X101272024Y-113054410D01*
X101236754Y-112988426D01*
X100992774Y-112916831D01*
X100179605Y-113730000D01*
X99820395Y-113730000D01*
X99007226Y-112916831D01*
X98763246Y-112988426D01*
X98732024Y-113054410D01*
X98696754Y-112988426D01*
X98452774Y-112916831D01*
X97639605Y-113730000D01*
X97280395Y-113730000D01*
X96467226Y-112916831D01*
X96223246Y-112988426D01*
X96192812Y-113052744D01*
X96191769Y-113050225D01*
X96034715Y-112815177D01*
X95956764Y-112737226D01*
X96646831Y-112737226D01*
X97460000Y-113550395D01*
X98273169Y-112737226D01*
X99186831Y-112737226D01*
X100000000Y-113550395D01*
X100813169Y-112737226D01*
X101726831Y-112737226D01*
X102540000Y-113550395D01*
X103353169Y-112737226D01*
X103281574Y-112493246D01*
X103026046Y-112372336D01*
X102751839Y-112303600D01*
X102469492Y-112289680D01*
X102189853Y-112331111D01*
X101923672Y-112426300D01*
X101798426Y-112493246D01*
X101726831Y-112737226D01*
X100813169Y-112737226D01*
X100741574Y-112493246D01*
X100486046Y-112372336D01*
X100211839Y-112303600D01*
X99929492Y-112289680D01*
X99649853Y-112331111D01*
X99383672Y-112426300D01*
X99258426Y-112493246D01*
X99186831Y-112737226D01*
X98273169Y-112737226D01*
X98201574Y-112493246D01*
X97946046Y-112372336D01*
X97671839Y-112303600D01*
X97389492Y-112289680D01*
X97109853Y-112331111D01*
X96843672Y-112426300D01*
X96718426Y-112493246D01*
X96646831Y-112737226D01*
X95956764Y-112737226D01*
X95834823Y-112615285D01*
X95599775Y-112458231D01*
X95338603Y-112350050D01*
X95061345Y-112294900D01*
X94778655Y-112294900D01*
X94501397Y-112350050D01*
X94240225Y-112458231D01*
X94005177Y-112615285D01*
X93805285Y-112815177D01*
X93648231Y-113050225D01*
X93540050Y-113311397D01*
X93484900Y-113588655D01*
X85660000Y-113588655D01*
X85660000Y-65398061D01*
X92465000Y-65398061D01*
X92465000Y-65601939D01*
X92504774Y-65801898D01*
X92582795Y-65990256D01*
X92696063Y-66159774D01*
X92840226Y-66303937D01*
X93009744Y-66417205D01*
X93198102Y-66495226D01*
X93398061Y-66535000D01*
X93601939Y-66535000D01*
X93801898Y-66495226D01*
X93990256Y-66417205D01*
X94095251Y-66347050D01*
X97238200Y-69490000D01*
X94453711Y-69490000D01*
X94409774Y-69446063D01*
X94240256Y-69332795D01*
X94051898Y-69254774D01*
X93851939Y-69215000D01*
X93648061Y-69215000D01*
X93448102Y-69254774D01*
X93259744Y-69332795D01*
X93090226Y-69446063D01*
X92946063Y-69590226D01*
X92832795Y-69759744D01*
X92754774Y-69948102D01*
X92715000Y-70148061D01*
X92715000Y-70351939D01*
X92754774Y-70551898D01*
X92832795Y-70740256D01*
X92946063Y-70909774D01*
X93090226Y-71053937D01*
X93259744Y-71167205D01*
X93448102Y-71245226D01*
X93648061Y-71285000D01*
X93851939Y-71285000D01*
X94051898Y-71245226D01*
X94240256Y-71167205D01*
X94409774Y-71053937D01*
X94453711Y-71010000D01*
X98062199Y-71010000D01*
X106223992Y-79171794D01*
X104355539Y-79171794D01*
X104318206Y-79168117D01*
X104293124Y-79170587D01*
X104397142Y-79066569D01*
X104510410Y-78897051D01*
X104588431Y-78708693D01*
X104628205Y-78508734D01*
X104628205Y-78304856D01*
X104588431Y-78104897D01*
X104510410Y-77916539D01*
X104397142Y-77747021D01*
X104252979Y-77602858D01*
X104083461Y-77489590D01*
X103895103Y-77411569D01*
X103695144Y-77371795D01*
X103491266Y-77371795D01*
X103291307Y-77411569D01*
X103102949Y-77489590D01*
X102933431Y-77602858D01*
X102789268Y-77747021D01*
X102676000Y-77916539D01*
X102597979Y-78104897D01*
X102558205Y-78304856D01*
X102558205Y-78366993D01*
X99710199Y-81215000D01*
X99648061Y-81215000D01*
X99448102Y-81254774D01*
X99259744Y-81332795D01*
X99090226Y-81446063D01*
X98946063Y-81590226D01*
X98832795Y-81759744D01*
X98754774Y-81948102D01*
X98715000Y-82148061D01*
X98715000Y-82351939D01*
X98754774Y-82551898D01*
X98832795Y-82740256D01*
X98946063Y-82909774D01*
X99090226Y-83053937D01*
X99259744Y-83167205D01*
X99448102Y-83245226D01*
X99648061Y-83285000D01*
X99851939Y-83285000D01*
X100051898Y-83245226D01*
X100240256Y-83167205D01*
X100409774Y-83053937D01*
X100553937Y-82909774D01*
X100667205Y-82740256D01*
X100745226Y-82551898D01*
X100785000Y-82351939D01*
X100785000Y-82289801D01*
X103633007Y-79441795D01*
X103695144Y-79441795D01*
X103745368Y-79431805D01*
X103683232Y-79507518D01*
X103612660Y-79639547D01*
X103569203Y-79782808D01*
X103554529Y-79931794D01*
X103558207Y-79969137D01*
X103558206Y-89899490D01*
X100663999Y-92793698D01*
X100635001Y-92817496D01*
X100611203Y-92846494D01*
X100611202Y-92846495D01*
X100540027Y-92933221D01*
X100469455Y-93065251D01*
X100454318Y-93115152D01*
X100425998Y-93208511D01*
X100415001Y-93320164D01*
X100415001Y-93320175D01*
X100411325Y-93357497D01*
X100415001Y-93394819D01*
X100415001Y-94039667D01*
X100415002Y-97764195D01*
X100309744Y-97807795D01*
X100140226Y-97921063D01*
X99996063Y-98065226D01*
X99882795Y-98234744D01*
X99875000Y-98253563D01*
X99875000Y-95522213D01*
X99904705Y-95477756D01*
X99982726Y-95289398D01*
X100022500Y-95089439D01*
X100022500Y-94885561D01*
X99982726Y-94685602D01*
X99904705Y-94497244D01*
X99791437Y-94327726D01*
X99647274Y-94183563D01*
X99477756Y-94070295D01*
X99289398Y-93992274D01*
X99089439Y-93952500D01*
X98885561Y-93952500D01*
X98685602Y-93992274D01*
X98497244Y-94070295D01*
X98327726Y-94183563D01*
X98285000Y-94226289D01*
X98285000Y-92445490D01*
X98309774Y-92428937D01*
X98453937Y-92284774D01*
X98567205Y-92115256D01*
X98645226Y-91926898D01*
X98685000Y-91726939D01*
X98685000Y-91523061D01*
X98645226Y-91323102D01*
X98567205Y-91134744D01*
X98453937Y-90965226D01*
X98309774Y-90821063D01*
X98140256Y-90707795D01*
X97951898Y-90629774D01*
X97751939Y-90590000D01*
X97548061Y-90590000D01*
X97348102Y-90629774D01*
X97159744Y-90707795D01*
X96990226Y-90821063D01*
X96846063Y-90965226D01*
X96732795Y-91134744D01*
X96654774Y-91323102D01*
X96615000Y-91523061D01*
X96615000Y-91726939D01*
X96654774Y-91926898D01*
X96732795Y-92115256D01*
X96765001Y-92163456D01*
X96765000Y-104361546D01*
X96732795Y-104409744D01*
X96654774Y-104598102D01*
X96615000Y-104798061D01*
X96615000Y-105001939D01*
X96654774Y-105201898D01*
X96732795Y-105390256D01*
X96846063Y-105559774D01*
X96990226Y-105703937D01*
X97159744Y-105817205D01*
X97348102Y-105895226D01*
X97548061Y-105935000D01*
X97751939Y-105935000D01*
X97951898Y-105895226D01*
X98140256Y-105817205D01*
X98309774Y-105703937D01*
X98453937Y-105559774D01*
X98567205Y-105390256D01*
X98645226Y-105201898D01*
X98685000Y-105001939D01*
X98685000Y-104798061D01*
X98645226Y-104598102D01*
X98567205Y-104409744D01*
X98453937Y-104240226D01*
X98309774Y-104096063D01*
X98285000Y-104079510D01*
X98285000Y-103160768D01*
X98311063Y-103199774D01*
X98455226Y-103343937D01*
X98624744Y-103457205D01*
X98813102Y-103535226D01*
X99013061Y-103575000D01*
X99216939Y-103575000D01*
X99416898Y-103535226D01*
X99605256Y-103457205D01*
X99774774Y-103343937D01*
X99918937Y-103199774D01*
X100032205Y-103030256D01*
X100110226Y-102841898D01*
X100150000Y-102641939D01*
X100150000Y-102438061D01*
X100110226Y-102238102D01*
X100032205Y-102049744D01*
X99918937Y-101880226D01*
X99875000Y-101836289D01*
X99875000Y-99196437D01*
X99882795Y-99215256D01*
X99996063Y-99384774D01*
X100140226Y-99528937D01*
X100309744Y-99642205D01*
X100498102Y-99720226D01*
X100698061Y-99760000D01*
X100901939Y-99760000D01*
X101101898Y-99720226D01*
X101290256Y-99642205D01*
X101459774Y-99528937D01*
X101603937Y-99384774D01*
X101717205Y-99215256D01*
X101795226Y-99026898D01*
X101835000Y-98826939D01*
X101835000Y-98727457D01*
X101880547Y-98642246D01*
X101924004Y-98498985D01*
X101935001Y-98387332D01*
X101938678Y-98349999D01*
X101935001Y-98312666D01*
X101935001Y-96237468D01*
X101984744Y-96270705D01*
X102173102Y-96348726D01*
X102373061Y-96388500D01*
X102576939Y-96388500D01*
X102776898Y-96348726D01*
X102965256Y-96270705D01*
X103134774Y-96157437D01*
X103178711Y-96113500D01*
X106859178Y-96113500D01*
X106896500Y-96117176D01*
X106933822Y-96113500D01*
X106933833Y-96113500D01*
X107045486Y-96102503D01*
X107188747Y-96059046D01*
X107320776Y-95988474D01*
X107436501Y-95893501D01*
X107460304Y-95864497D01*
X110239802Y-93085000D01*
X110301939Y-93085000D01*
X110501898Y-93045226D01*
X110690256Y-92967205D01*
X110859774Y-92853937D01*
X111003937Y-92709774D01*
X111117205Y-92540256D01*
X111195226Y-92351898D01*
X111235000Y-92151939D01*
X111235000Y-91948061D01*
X111195226Y-91748102D01*
X111117205Y-91559744D01*
X111003937Y-91390226D01*
X110859774Y-91246063D01*
X110690256Y-91132795D01*
X110501898Y-91054774D01*
X110301939Y-91015000D01*
X110239802Y-91015000D01*
X109785001Y-90560200D01*
X109785001Y-88989324D01*
X109788677Y-88951999D01*
X109785001Y-88914674D01*
X109785001Y-88914666D01*
X109774004Y-88803013D01*
X109730547Y-88659752D01*
X109659975Y-88527723D01*
X109565002Y-88411998D01*
X109551271Y-88400729D01*
X109540001Y-88386997D01*
X109511003Y-88363199D01*
X109166795Y-88018992D01*
X109166795Y-84232258D01*
X109198102Y-84245226D01*
X109398061Y-84285000D01*
X109601939Y-84285000D01*
X109801898Y-84245226D01*
X109990256Y-84167205D01*
X110159774Y-84053937D01*
X110303937Y-83909774D01*
X110417205Y-83740256D01*
X110495226Y-83551898D01*
X110535000Y-83351939D01*
X110535000Y-83148061D01*
X110495226Y-82948102D01*
X110417205Y-82759744D01*
X110303937Y-82590226D01*
X110260000Y-82546289D01*
X110260000Y-76287322D01*
X110263676Y-76249999D01*
X110260000Y-76212676D01*
X110260000Y-76212667D01*
X110249003Y-76101014D01*
X110205546Y-75957753D01*
X110134974Y-75825724D01*
X110040001Y-75709999D01*
X110011003Y-75686201D01*
X109608497Y-75283695D01*
X109801898Y-75245226D01*
X109990256Y-75167205D01*
X110159774Y-75053937D01*
X110303937Y-74909774D01*
X110417205Y-74740256D01*
X110495226Y-74551898D01*
X110535000Y-74351939D01*
X110535000Y-74148061D01*
X110495226Y-73948102D01*
X110417205Y-73759744D01*
X110303937Y-73590226D01*
X110159774Y-73446063D01*
X109990256Y-73332795D01*
X109801898Y-73254774D01*
X109601939Y-73215000D01*
X109539802Y-73215000D01*
X105078206Y-68753405D01*
X105078206Y-58605529D01*
X105081882Y-58568206D01*
X105078206Y-58530883D01*
X105078206Y-58530873D01*
X105067209Y-58419220D01*
X105023752Y-58275959D01*
X105000217Y-58231928D01*
X104953180Y-58143929D01*
X104882005Y-58057203D01*
X104858207Y-58028205D01*
X104829209Y-58004407D01*
X101554488Y-54729686D01*
X101589502Y-54664180D01*
X101625812Y-54544482D01*
X101638072Y-54420000D01*
X101638072Y-53420000D01*
X101625812Y-53295518D01*
X101589502Y-53175820D01*
X101530537Y-53065506D01*
X101451185Y-52968815D01*
X101354494Y-52889463D01*
X101244180Y-52830498D01*
X101124482Y-52794188D01*
X101000000Y-52781928D01*
X99000000Y-52781928D01*
X98875518Y-52794188D01*
X98755820Y-52830498D01*
X98645506Y-52889463D01*
X98548815Y-52968815D01*
X98469463Y-53065506D01*
X98410498Y-53175820D01*
X98374188Y-53295518D01*
X98361928Y-53420000D01*
X98361928Y-54420000D01*
X98374188Y-54544482D01*
X98410498Y-54664180D01*
X98469463Y-54774494D01*
X98548815Y-54871185D01*
X98645506Y-54950537D01*
X98755820Y-55009502D01*
X98875518Y-55045812D01*
X99000000Y-55058072D01*
X99733271Y-55058072D01*
X99872998Y-55197799D01*
X99872998Y-55293748D01*
X99714250Y-55135000D01*
X99000000Y-55131928D01*
X98875518Y-55144188D01*
X98755820Y-55180498D01*
X98645506Y-55239463D01*
X98548815Y-55318815D01*
X98469463Y-55415506D01*
X98410498Y-55525820D01*
X98374188Y-55645518D01*
X98361928Y-55770000D01*
X98365000Y-55984250D01*
X98523750Y-56143000D01*
X99873000Y-56143000D01*
X99873000Y-56123000D01*
X100127000Y-56123000D01*
X100127000Y-56143000D01*
X100147000Y-56143000D01*
X100147000Y-56397000D01*
X100127000Y-56397000D01*
X100127000Y-57246250D01*
X100285750Y-57405000D01*
X101000000Y-57408072D01*
X101124482Y-57395812D01*
X101244180Y-57359502D01*
X101354494Y-57300537D01*
X101451185Y-57221185D01*
X101530537Y-57124494D01*
X101589502Y-57014180D01*
X101612748Y-56937549D01*
X103558207Y-58883009D01*
X103558206Y-66894461D01*
X103558206Y-66894462D01*
X103558207Y-69030874D01*
X103554530Y-69068206D01*
X103569204Y-69217191D01*
X103612660Y-69360452D01*
X103683232Y-69492482D01*
X103725885Y-69544454D01*
X103778206Y-69608207D01*
X103807204Y-69632005D01*
X103901543Y-69726344D01*
X103862485Y-69714496D01*
X103750832Y-69703499D01*
X103750821Y-69703499D01*
X103713499Y-69699823D01*
X103676177Y-69703499D01*
X99601303Y-69703499D01*
X97067804Y-67170000D01*
X98361928Y-67170000D01*
X98361928Y-68170000D01*
X98374188Y-68294482D01*
X98410498Y-68414180D01*
X98469463Y-68524494D01*
X98548815Y-68621185D01*
X98645506Y-68700537D01*
X98755820Y-68759502D01*
X98875518Y-68795812D01*
X99000000Y-68808072D01*
X101000000Y-68808072D01*
X101124482Y-68795812D01*
X101244180Y-68759502D01*
X101354494Y-68700537D01*
X101451185Y-68621185D01*
X101530537Y-68524494D01*
X101589502Y-68414180D01*
X101625812Y-68294482D01*
X101638072Y-68170000D01*
X101638072Y-67170000D01*
X101625812Y-67045518D01*
X101589502Y-66925820D01*
X101530537Y-66815506D01*
X101451185Y-66718815D01*
X101354494Y-66639463D01*
X101244180Y-66580498D01*
X101124482Y-66544188D01*
X101000000Y-66531928D01*
X99000000Y-66531928D01*
X98875518Y-66544188D01*
X98755820Y-66580498D01*
X98645506Y-66639463D01*
X98548815Y-66718815D01*
X98469463Y-66815506D01*
X98410498Y-66925820D01*
X98374188Y-67045518D01*
X98361928Y-67170000D01*
X97067804Y-67170000D01*
X94886806Y-64989003D01*
X94863003Y-64959999D01*
X94747278Y-64865026D01*
X94615249Y-64794454D01*
X94471988Y-64750997D01*
X94360335Y-64740000D01*
X94360324Y-64740000D01*
X94323002Y-64736324D01*
X94285680Y-64740000D01*
X94203711Y-64740000D01*
X94159774Y-64696063D01*
X93990256Y-64582795D01*
X93801898Y-64504774D01*
X93601939Y-64465000D01*
X93398061Y-64465000D01*
X93198102Y-64504774D01*
X93009744Y-64582795D01*
X92840226Y-64696063D01*
X92696063Y-64840226D01*
X92582795Y-65009744D01*
X92504774Y-65198102D01*
X92465000Y-65398061D01*
X85660000Y-65398061D01*
X85660000Y-59898061D01*
X92715000Y-59898061D01*
X92715000Y-60101939D01*
X92754774Y-60301898D01*
X92832795Y-60490256D01*
X92946063Y-60659774D01*
X93090226Y-60803937D01*
X93259744Y-60917205D01*
X93448102Y-60995226D01*
X93648061Y-61035000D01*
X93851939Y-61035000D01*
X94051898Y-60995226D01*
X94240256Y-60917205D01*
X94409774Y-60803937D01*
X94453711Y-60760000D01*
X98685359Y-60760000D01*
X98479651Y-60897450D01*
X98147450Y-61229651D01*
X97886440Y-61620279D01*
X97706654Y-62054321D01*
X97615000Y-62515098D01*
X97615000Y-62984902D01*
X97706654Y-63445679D01*
X97886440Y-63879721D01*
X98147450Y-64270349D01*
X98479651Y-64602550D01*
X98870279Y-64863560D01*
X99304321Y-65043346D01*
X99765098Y-65135000D01*
X100234902Y-65135000D01*
X100695679Y-65043346D01*
X101129721Y-64863560D01*
X101520349Y-64602550D01*
X101852550Y-64270349D01*
X102113560Y-63879721D01*
X102293346Y-63445679D01*
X102385000Y-62984902D01*
X102385000Y-62515098D01*
X102293346Y-62054321D01*
X102113560Y-61620279D01*
X101852550Y-61229651D01*
X101520349Y-60897450D01*
X101129721Y-60636440D01*
X100819813Y-60508072D01*
X101000000Y-60508072D01*
X101124482Y-60495812D01*
X101244180Y-60459502D01*
X101354494Y-60400537D01*
X101451185Y-60321185D01*
X101530537Y-60224494D01*
X101589502Y-60114180D01*
X101625812Y-59994482D01*
X101638072Y-59870000D01*
X101638072Y-58870000D01*
X101625812Y-58745518D01*
X101589502Y-58625820D01*
X101530537Y-58515506D01*
X101451185Y-58418815D01*
X101354494Y-58339463D01*
X101244180Y-58280498D01*
X101124482Y-58244188D01*
X101000000Y-58231928D01*
X99000000Y-58231928D01*
X98875518Y-58244188D01*
X98755820Y-58280498D01*
X98645506Y-58339463D01*
X98548815Y-58418815D01*
X98469463Y-58515506D01*
X98410498Y-58625820D01*
X98374188Y-58745518D01*
X98361928Y-58870000D01*
X98361928Y-59240000D01*
X94453711Y-59240000D01*
X94409774Y-59196063D01*
X94240256Y-59082795D01*
X94051898Y-59004774D01*
X93851939Y-58965000D01*
X93648061Y-58965000D01*
X93448102Y-59004774D01*
X93259744Y-59082795D01*
X93090226Y-59196063D01*
X92946063Y-59340226D01*
X92832795Y-59509744D01*
X92754774Y-59698102D01*
X92715000Y-59898061D01*
X85660000Y-59898061D01*
X85660000Y-56770000D01*
X98361928Y-56770000D01*
X98374188Y-56894482D01*
X98410498Y-57014180D01*
X98469463Y-57124494D01*
X98548815Y-57221185D01*
X98645506Y-57300537D01*
X98755820Y-57359502D01*
X98875518Y-57395812D01*
X99000000Y-57408072D01*
X99714250Y-57405000D01*
X99873000Y-57246250D01*
X99873000Y-56397000D01*
X98523750Y-56397000D01*
X98365000Y-56555750D01*
X98361928Y-56770000D01*
X85660000Y-56770000D01*
X85660000Y-48765098D01*
X97615000Y-48765098D01*
X97615000Y-49234902D01*
X97706654Y-49695679D01*
X97886440Y-50129721D01*
X98147450Y-50520349D01*
X98479651Y-50852550D01*
X98870279Y-51113560D01*
X99304321Y-51293346D01*
X99765098Y-51385000D01*
X100234902Y-51385000D01*
X100695679Y-51293346D01*
X101129721Y-51113560D01*
X101520349Y-50852550D01*
X101852550Y-50520349D01*
X102113560Y-50129721D01*
X102293346Y-49695679D01*
X102385000Y-49234902D01*
X102385000Y-48765098D01*
X102293346Y-48304321D01*
X102113560Y-47870279D01*
X101852550Y-47479651D01*
X101520349Y-47147450D01*
X101129721Y-46886440D01*
X100819813Y-46758072D01*
X101000000Y-46758072D01*
X101124482Y-46745812D01*
X101244180Y-46709502D01*
X101354494Y-46650537D01*
X101451185Y-46571185D01*
X101530537Y-46474494D01*
X101589502Y-46364180D01*
X101625812Y-46244482D01*
X101638072Y-46120000D01*
X101638072Y-45120000D01*
X101625812Y-44995518D01*
X101589502Y-44875820D01*
X101530537Y-44765506D01*
X101451185Y-44668815D01*
X101354494Y-44589463D01*
X101244180Y-44530498D01*
X101124482Y-44494188D01*
X101000000Y-44481928D01*
X99000000Y-44481928D01*
X98875518Y-44494188D01*
X98755820Y-44530498D01*
X98645506Y-44589463D01*
X98548815Y-44668815D01*
X98469463Y-44765506D01*
X98410498Y-44875820D01*
X98374188Y-44995518D01*
X98361928Y-45120000D01*
X98361928Y-46120000D01*
X98374188Y-46244482D01*
X98410498Y-46364180D01*
X98469463Y-46474494D01*
X98548815Y-46571185D01*
X98645506Y-46650537D01*
X98755820Y-46709502D01*
X98875518Y-46745812D01*
X99000000Y-46758072D01*
X99180187Y-46758072D01*
X98870279Y-46886440D01*
X98479651Y-47147450D01*
X98147450Y-47479651D01*
X97886440Y-47870279D01*
X97706654Y-48304321D01*
X97615000Y-48765098D01*
X85660000Y-48765098D01*
X85660000Y-43020000D01*
X98361928Y-43020000D01*
X98374188Y-43144482D01*
X98410498Y-43264180D01*
X98469463Y-43374494D01*
X98548815Y-43471185D01*
X98645506Y-43550537D01*
X98755820Y-43609502D01*
X98875518Y-43645812D01*
X99000000Y-43658072D01*
X99714250Y-43655000D01*
X99873000Y-43496250D01*
X99873000Y-42647000D01*
X100127000Y-42647000D01*
X100127000Y-43496250D01*
X100285750Y-43655000D01*
X101000000Y-43658072D01*
X101124482Y-43645812D01*
X101244180Y-43609502D01*
X101354494Y-43550537D01*
X101451185Y-43471185D01*
X101530537Y-43374494D01*
X101589502Y-43264180D01*
X101625812Y-43144482D01*
X101638072Y-43020000D01*
X101635000Y-42805750D01*
X101476250Y-42647000D01*
X100127000Y-42647000D01*
X99873000Y-42647000D01*
X98523750Y-42647000D01*
X98365000Y-42805750D01*
X98361928Y-43020000D01*
X85660000Y-43020000D01*
X85660000Y-40063589D01*
X93615000Y-40063589D01*
X93615000Y-40336411D01*
X93668225Y-40603989D01*
X93772629Y-40856043D01*
X93924201Y-41082886D01*
X94117114Y-41275799D01*
X94343957Y-41427371D01*
X94596011Y-41531775D01*
X94863589Y-41585000D01*
X95136411Y-41585000D01*
X95403989Y-41531775D01*
X95656043Y-41427371D01*
X95882886Y-41275799D01*
X96000000Y-41158685D01*
X96117114Y-41275799D01*
X96343957Y-41427371D01*
X96596011Y-41531775D01*
X96863589Y-41585000D01*
X97136411Y-41585000D01*
X97403989Y-41531775D01*
X97656043Y-41427371D01*
X97882886Y-41275799D01*
X98000000Y-41158685D01*
X98117114Y-41275799D01*
X98343957Y-41427371D01*
X98594640Y-41531207D01*
X98548815Y-41568815D01*
X98469463Y-41665506D01*
X98410498Y-41775820D01*
X98374188Y-41895518D01*
X98361928Y-42020000D01*
X98365000Y-42234250D01*
X98523750Y-42393000D01*
X99873000Y-42393000D01*
X99873000Y-41543750D01*
X99716335Y-41387085D01*
X99882886Y-41275799D01*
X100000000Y-41158685D01*
X100117114Y-41275799D01*
X100283665Y-41387085D01*
X100127000Y-41543750D01*
X100127000Y-42393000D01*
X101476250Y-42393000D01*
X101635000Y-42234250D01*
X101638072Y-42020000D01*
X101625812Y-41895518D01*
X101589502Y-41775820D01*
X101530537Y-41665506D01*
X101451185Y-41568815D01*
X101405360Y-41531207D01*
X101656043Y-41427371D01*
X101882886Y-41275799D01*
X102000000Y-41158685D01*
X102117114Y-41275799D01*
X102343957Y-41427371D01*
X102596011Y-41531775D01*
X102863589Y-41585000D01*
X103136411Y-41585000D01*
X103403989Y-41531775D01*
X103656043Y-41427371D01*
X103882886Y-41275799D01*
X104000000Y-41158685D01*
X104117114Y-41275799D01*
X104343957Y-41427371D01*
X104596011Y-41531775D01*
X104863589Y-41585000D01*
X105136411Y-41585000D01*
X105403989Y-41531775D01*
X105656043Y-41427371D01*
X105882886Y-41275799D01*
X106075799Y-41082886D01*
X106227371Y-40856043D01*
X106331775Y-40603989D01*
X106385000Y-40336411D01*
X106385000Y-40063589D01*
X106331775Y-39796011D01*
X106227371Y-39543957D01*
X106075799Y-39317114D01*
X105882886Y-39124201D01*
X105656043Y-38972629D01*
X105403989Y-38868225D01*
X105136411Y-38815000D01*
X104863589Y-38815000D01*
X104718635Y-38843833D01*
X104488803Y-38614001D01*
X104465000Y-38584998D01*
X104349275Y-38490025D01*
X104217246Y-38419453D01*
X104073985Y-38375996D01*
X103962332Y-38364999D01*
X103962321Y-38364999D01*
X103924999Y-38361323D01*
X103887677Y-38364999D01*
X96012324Y-38364999D01*
X95975001Y-38361323D01*
X95937678Y-38364999D01*
X95937668Y-38364999D01*
X95826015Y-38375996D01*
X95682754Y-38419453D01*
X95550724Y-38490025D01*
X95467084Y-38558667D01*
X95435000Y-38584998D01*
X95411202Y-38613996D01*
X95197956Y-38827242D01*
X95136411Y-38815000D01*
X94863589Y-38815000D01*
X94596011Y-38868225D01*
X94343957Y-38972629D01*
X94117114Y-39124201D01*
X93924201Y-39317114D01*
X93772629Y-39543957D01*
X93668225Y-39796011D01*
X93615000Y-40063589D01*
X85660000Y-40063589D01*
X85660000Y-28350000D01*
X90711928Y-28350000D01*
X90711928Y-32050000D01*
X90724188Y-32174482D01*
X90760498Y-32294180D01*
X90819463Y-32404494D01*
X90898815Y-32501185D01*
X90995506Y-32580537D01*
X91105820Y-32639502D01*
X91225518Y-32675812D01*
X91350000Y-32688072D01*
X93350000Y-32688072D01*
X93474482Y-32675812D01*
X93594180Y-32639502D01*
X93704494Y-32580537D01*
X93801185Y-32501185D01*
X93880537Y-32404494D01*
X93939502Y-32294180D01*
X93975812Y-32174482D01*
X93988072Y-32050000D01*
X93988072Y-28350000D01*
X106011928Y-28350000D01*
X106011928Y-32050000D01*
X106024188Y-32174482D01*
X106060498Y-32294180D01*
X106119463Y-32404494D01*
X106198815Y-32501185D01*
X106295506Y-32580537D01*
X106405820Y-32639502D01*
X106525518Y-32675812D01*
X106650000Y-32688072D01*
X108650000Y-32688072D01*
X108774482Y-32675812D01*
X108894180Y-32639502D01*
X109004494Y-32580537D01*
X109101185Y-32501185D01*
X109180537Y-32404494D01*
X109239502Y-32294180D01*
X109275812Y-32174482D01*
X109288072Y-32050000D01*
X109288072Y-28350000D01*
X109275812Y-28225518D01*
X109239502Y-28105820D01*
X109180537Y-27995506D01*
X109101185Y-27898815D01*
X109004494Y-27819463D01*
X108894180Y-27760498D01*
X108774482Y-27724188D01*
X108650000Y-27711928D01*
X106650000Y-27711928D01*
X106525518Y-27724188D01*
X106405820Y-27760498D01*
X106295506Y-27819463D01*
X106198815Y-27898815D01*
X106119463Y-27995506D01*
X106060498Y-28105820D01*
X106024188Y-28225518D01*
X106011928Y-28350000D01*
X93988072Y-28350000D01*
X93975812Y-28225518D01*
X93939502Y-28105820D01*
X93880537Y-27995506D01*
X93801185Y-27898815D01*
X93704494Y-27819463D01*
X93594180Y-27760498D01*
X93474482Y-27724188D01*
X93350000Y-27711928D01*
X91350000Y-27711928D01*
X91225518Y-27724188D01*
X91105820Y-27760498D01*
X90995506Y-27819463D01*
X90898815Y-27898815D01*
X90819463Y-27995506D01*
X90760498Y-28105820D01*
X90724188Y-28225518D01*
X90711928Y-28350000D01*
X85660000Y-28350000D01*
X85660000Y-20660000D01*
X114340000Y-20660000D01*
X114340001Y-119340000D01*
G37*
%TD.AperFunction*%
%TD*%
M02*
