%TF.GenerationSoftware,KiCad,Pcbnew,5.1.7-a382d34a8~88~ubuntu18.04.1*%
%TF.CreationDate,2022-04-19T18:24:53-07:00*%
%TF.ProjectId,cv-extractor,63762d65-7874-4726-9163-746f722e6b69,rev?*%
%TF.SameCoordinates,Original*%
%TF.FileFunction,Soldermask,Top*%
%TF.FilePolarity,Negative*%
%FSLAX46Y46*%
G04 Gerber Fmt 4.6, Leading zero omitted, Abs format (unit mm)*
G04 Created by KiCad (PCBNEW 5.1.7-a382d34a8~88~ubuntu18.04.1) date 2022-04-19 18:24:53*
%MOMM*%
%LPD*%
G01*
G04 APERTURE LIST*
%ADD10C,3.600000*%
%ADD11C,1.600000*%
%ADD12C,1.700000*%
%ADD13C,1.700200*%
%ADD14C,3.300000*%
G04 APERTURE END LIST*
D10*
%TO.C,J2*%
X100000000Y-103750000D03*
G36*
G01*
X101050000Y-108170000D02*
X101050000Y-109170000D01*
G75*
G02*
X101000000Y-109220000I-50000J0D01*
G01*
X99000000Y-109220000D01*
G75*
G02*
X98950000Y-109170000I0J50000D01*
G01*
X98950000Y-108170000D01*
G75*
G02*
X99000000Y-108120000I50000J0D01*
G01*
X101000000Y-108120000D01*
G75*
G02*
X101050000Y-108170000I0J-50000D01*
G01*
G37*
G36*
G01*
X101050000Y-99870000D02*
X101050000Y-100870000D01*
G75*
G02*
X101000000Y-100920000I-50000J0D01*
G01*
X99000000Y-100920000D01*
G75*
G02*
X98950000Y-100870000I0J50000D01*
G01*
X98950000Y-99870000D01*
G75*
G02*
X99000000Y-99820000I50000J0D01*
G01*
X101000000Y-99820000D01*
G75*
G02*
X101050000Y-99870000I0J-50000D01*
G01*
G37*
G36*
G01*
X101050000Y-96770000D02*
X101050000Y-97770000D01*
G75*
G02*
X101000000Y-97820000I-50000J0D01*
G01*
X99000000Y-97820000D01*
G75*
G02*
X98950000Y-97770000I0J50000D01*
G01*
X98950000Y-96770000D01*
G75*
G02*
X99000000Y-96720000I50000J0D01*
G01*
X101000000Y-96720000D01*
G75*
G02*
X101050000Y-96770000I0J-50000D01*
G01*
G37*
%TD*%
%TO.C,J1*%
X100000000Y-27500000D03*
G36*
G01*
X101050000Y-31920000D02*
X101050000Y-32920000D01*
G75*
G02*
X101000000Y-32970000I-50000J0D01*
G01*
X99000000Y-32970000D01*
G75*
G02*
X98950000Y-32920000I0J50000D01*
G01*
X98950000Y-31920000D01*
G75*
G02*
X99000000Y-31870000I50000J0D01*
G01*
X101000000Y-31870000D01*
G75*
G02*
X101050000Y-31920000I0J-50000D01*
G01*
G37*
G36*
G01*
X101050000Y-23620000D02*
X101050000Y-24620000D01*
G75*
G02*
X101000000Y-24670000I-50000J0D01*
G01*
X99000000Y-24670000D01*
G75*
G02*
X98950000Y-24620000I0J50000D01*
G01*
X98950000Y-23620000D01*
G75*
G02*
X99000000Y-23570000I50000J0D01*
G01*
X101000000Y-23570000D01*
G75*
G02*
X101050000Y-23620000I0J-50000D01*
G01*
G37*
G36*
G01*
X101050000Y-20520000D02*
X101050000Y-21520000D01*
G75*
G02*
X101000000Y-21570000I-50000J0D01*
G01*
X99000000Y-21570000D01*
G75*
G02*
X98950000Y-21520000I0J50000D01*
G01*
X98950000Y-20520000D01*
G75*
G02*
X99000000Y-20470000I50000J0D01*
G01*
X101000000Y-20470000D01*
G75*
G02*
X101050000Y-20520000I0J-50000D01*
G01*
G37*
%TD*%
%TO.C,RV1*%
G36*
G01*
X106600000Y-72400000D02*
X106600000Y-68700000D01*
G75*
G02*
X106650000Y-68650000I50000J0D01*
G01*
X108650000Y-68650000D01*
G75*
G02*
X108700000Y-68700000I0J-50000D01*
G01*
X108700000Y-72400000D01*
G75*
G02*
X108650000Y-72450000I-50000J0D01*
G01*
X106650000Y-72450000D01*
G75*
G02*
X106600000Y-72400000I0J50000D01*
G01*
G37*
D11*
X105000000Y-80550000D03*
X103000000Y-80550000D03*
X101000000Y-80550000D03*
X99000000Y-80550000D03*
X97000000Y-80550000D03*
X95000000Y-80550000D03*
G36*
G01*
X91300000Y-72400000D02*
X91300000Y-68700000D01*
G75*
G02*
X91350000Y-68650000I50000J0D01*
G01*
X93350000Y-68650000D01*
G75*
G02*
X93400000Y-68700000I0J-50000D01*
G01*
X93400000Y-72400000D01*
G75*
G02*
X93350000Y-72450000I-50000J0D01*
G01*
X91350000Y-72450000D01*
G75*
G02*
X91300000Y-72400000I0J50000D01*
G01*
G37*
%TD*%
%TO.C,RV2*%
G36*
G01*
X103500000Y-41450000D02*
X103500000Y-37950000D01*
G75*
G02*
X103550000Y-37900000I50000J0D01*
G01*
X107050000Y-37900000D01*
G75*
G02*
X107100000Y-37950000I0J-50000D01*
G01*
X107100000Y-41450000D01*
G75*
G02*
X107050000Y-41500000I-50000J0D01*
G01*
X103550000Y-41500000D01*
G75*
G02*
X103500000Y-41450000I0J50000D01*
G01*
G37*
D12*
X100000000Y-46700000D03*
X102500000Y-46700000D03*
X97500000Y-46700000D03*
G36*
G01*
X92900000Y-41450000D02*
X92900000Y-37950000D01*
G75*
G02*
X92950000Y-37900000I50000J0D01*
G01*
X96450000Y-37900000D01*
G75*
G02*
X96500000Y-37950000I0J-50000D01*
G01*
X96500000Y-41450000D01*
G75*
G02*
X96450000Y-41500000I-50000J0D01*
G01*
X92950000Y-41500000D01*
G75*
G02*
X92900000Y-41450000I0J50000D01*
G01*
G37*
%TD*%
D13*
%TO.C,J3*%
X105080000Y-116270000D03*
X105080000Y-113730000D03*
X102540000Y-116270000D03*
X102540000Y-113730000D03*
X100000000Y-116270000D03*
X100000000Y-113730000D03*
X97460000Y-116270000D03*
X97460000Y-113730000D03*
X94920000Y-116270000D03*
X94920000Y-113730000D03*
%TD*%
%TO.C,RV3*%
G36*
G01*
X92900000Y-56750000D02*
X92900000Y-53250000D01*
G75*
G02*
X92950000Y-53200000I50000J0D01*
G01*
X96450000Y-53200000D01*
G75*
G02*
X96500000Y-53250000I0J-50000D01*
G01*
X96500000Y-56750000D01*
G75*
G02*
X96450000Y-56800000I-50000J0D01*
G01*
X92950000Y-56800000D01*
G75*
G02*
X92900000Y-56750000I0J50000D01*
G01*
G37*
D12*
X97500000Y-62000000D03*
X102500000Y-62000000D03*
X100000000Y-62000000D03*
G36*
G01*
X103500000Y-56750000D02*
X103500000Y-53250000D01*
G75*
G02*
X103550000Y-53200000I50000J0D01*
G01*
X107050000Y-53200000D01*
G75*
G02*
X107100000Y-53250000I0J-50000D01*
G01*
X107100000Y-56750000D01*
G75*
G02*
X107050000Y-56800000I-50000J0D01*
G01*
X103550000Y-56800000D01*
G75*
G02*
X103500000Y-56750000I0J50000D01*
G01*
G37*
%TD*%
D14*
%TO.C,H1*%
X111500000Y-61000000D03*
%TD*%
%TO.C,H2*%
X88500000Y-61000000D03*
%TD*%
M02*
