%TF.GenerationSoftware,KiCad,Pcbnew,5.1.7-a382d34a8~88~ubuntu18.04.1*%
%TF.CreationDate,2021-10-27T00:47:39-07:00*%
%TF.ProjectId,cv-extractor,63762d65-7874-4726-9163-746f722e6b69,rev?*%
%TF.SameCoordinates,Original*%
%TF.FileFunction,Soldermask,Top*%
%TF.FilePolarity,Negative*%
%FSLAX46Y46*%
G04 Gerber Fmt 4.6, Leading zero omitted, Abs format (unit mm)*
G04 Created by KiCad (PCBNEW 5.1.7-a382d34a8~88~ubuntu18.04.1) date 2021-10-27 00:47:39*
%MOMM*%
%LPD*%
G01*
G04 APERTURE LIST*
%ADD10C,3.600000*%
%ADD11C,1.600000*%
%ADD12C,1.700200*%
G04 APERTURE END LIST*
D10*
%TO.C,J2*%
X100000000Y-62750000D03*
G36*
G01*
X101050000Y-67170000D02*
X101050000Y-68170000D01*
G75*
G02*
X101000000Y-68220000I-50000J0D01*
G01*
X99000000Y-68220000D01*
G75*
G02*
X98950000Y-68170000I0J50000D01*
G01*
X98950000Y-67170000D01*
G75*
G02*
X99000000Y-67120000I50000J0D01*
G01*
X101000000Y-67120000D01*
G75*
G02*
X101050000Y-67170000I0J-50000D01*
G01*
G37*
G36*
G01*
X101050000Y-58870000D02*
X101050000Y-59870000D01*
G75*
G02*
X101000000Y-59920000I-50000J0D01*
G01*
X99000000Y-59920000D01*
G75*
G02*
X98950000Y-59870000I0J50000D01*
G01*
X98950000Y-58870000D01*
G75*
G02*
X99000000Y-58820000I50000J0D01*
G01*
X101000000Y-58820000D01*
G75*
G02*
X101050000Y-58870000I0J-50000D01*
G01*
G37*
G36*
G01*
X101050000Y-55770000D02*
X101050000Y-56770000D01*
G75*
G02*
X101000000Y-56820000I-50000J0D01*
G01*
X99000000Y-56820000D01*
G75*
G02*
X98950000Y-56770000I0J50000D01*
G01*
X98950000Y-55770000D01*
G75*
G02*
X99000000Y-55720000I50000J0D01*
G01*
X101000000Y-55720000D01*
G75*
G02*
X101050000Y-55770000I0J-50000D01*
G01*
G37*
%TD*%
%TO.C,RV1*%
G36*
G01*
X106600000Y-32050000D02*
X106600000Y-28350000D01*
G75*
G02*
X106650000Y-28300000I50000J0D01*
G01*
X108650000Y-28300000D01*
G75*
G02*
X108700000Y-28350000I0J-50000D01*
G01*
X108700000Y-32050000D01*
G75*
G02*
X108650000Y-32100000I-50000J0D01*
G01*
X106650000Y-32100000D01*
G75*
G02*
X106600000Y-32050000I0J50000D01*
G01*
G37*
D11*
X105000000Y-40200000D03*
X103000000Y-40200000D03*
X101000000Y-40200000D03*
X99000000Y-40200000D03*
X97000000Y-40200000D03*
X95000000Y-40200000D03*
G36*
G01*
X91300000Y-32050000D02*
X91300000Y-28350000D01*
G75*
G02*
X91350000Y-28300000I50000J0D01*
G01*
X93350000Y-28300000D01*
G75*
G02*
X93400000Y-28350000I0J-50000D01*
G01*
X93400000Y-32050000D01*
G75*
G02*
X93350000Y-32100000I-50000J0D01*
G01*
X91350000Y-32100000D01*
G75*
G02*
X91300000Y-32050000I0J50000D01*
G01*
G37*
%TD*%
D10*
%TO.C,J1*%
X100000000Y-49000000D03*
G36*
G01*
X101050000Y-53420000D02*
X101050000Y-54420000D01*
G75*
G02*
X101000000Y-54470000I-50000J0D01*
G01*
X99000000Y-54470000D01*
G75*
G02*
X98950000Y-54420000I0J50000D01*
G01*
X98950000Y-53420000D01*
G75*
G02*
X99000000Y-53370000I50000J0D01*
G01*
X101000000Y-53370000D01*
G75*
G02*
X101050000Y-53420000I0J-50000D01*
G01*
G37*
G36*
G01*
X101050000Y-45120000D02*
X101050000Y-46120000D01*
G75*
G02*
X101000000Y-46170000I-50000J0D01*
G01*
X99000000Y-46170000D01*
G75*
G02*
X98950000Y-46120000I0J50000D01*
G01*
X98950000Y-45120000D01*
G75*
G02*
X99000000Y-45070000I50000J0D01*
G01*
X101000000Y-45070000D01*
G75*
G02*
X101050000Y-45120000I0J-50000D01*
G01*
G37*
G36*
G01*
X101050000Y-42020000D02*
X101050000Y-43020000D01*
G75*
G02*
X101000000Y-43070000I-50000J0D01*
G01*
X99000000Y-43070000D01*
G75*
G02*
X98950000Y-43020000I0J50000D01*
G01*
X98950000Y-42020000D01*
G75*
G02*
X99000000Y-41970000I50000J0D01*
G01*
X101000000Y-41970000D01*
G75*
G02*
X101050000Y-42020000I0J-50000D01*
G01*
G37*
%TD*%
D12*
%TO.C,J3*%
X105080000Y-116270000D03*
X105080000Y-113730000D03*
X102540000Y-116270000D03*
X102540000Y-113730000D03*
X100000000Y-116270000D03*
X100000000Y-113730000D03*
X97460000Y-116270000D03*
X97460000Y-113730000D03*
X94920000Y-116270000D03*
X94920000Y-113730000D03*
%TD*%
M02*
