%TF.GenerationSoftware,KiCad,Pcbnew,5.1.7-a382d34a8~88~ubuntu18.04.1*%
%TF.CreationDate,2021-10-27T00:47:39-07:00*%
%TF.ProjectId,cv-extractor,63762d65-7874-4726-9163-746f722e6b69,rev?*%
%TF.SameCoordinates,Original*%
%TF.FileFunction,Soldermask,Bot*%
%TF.FilePolarity,Negative*%
%FSLAX46Y46*%
G04 Gerber Fmt 4.6, Leading zero omitted, Abs format (unit mm)*
G04 Created by KiCad (PCBNEW 5.1.7-a382d34a8~88~ubuntu18.04.1) date 2021-10-27 00:47:39*
%MOMM*%
%LPD*%
G01*
G04 APERTURE LIST*
%ADD10C,3.600000*%
%ADD11C,1.600000*%
%ADD12C,1.700200*%
%ADD13C,0.100000*%
G04 APERTURE END LIST*
D10*
%TO.C,J2*%
X100000000Y-62750000D03*
G36*
G01*
X101050000Y-67170000D02*
X101050000Y-68170000D01*
G75*
G02*
X101000000Y-68220000I-50000J0D01*
G01*
X99000000Y-68220000D01*
G75*
G02*
X98950000Y-68170000I0J50000D01*
G01*
X98950000Y-67170000D01*
G75*
G02*
X99000000Y-67120000I50000J0D01*
G01*
X101000000Y-67120000D01*
G75*
G02*
X101050000Y-67170000I0J-50000D01*
G01*
G37*
G36*
G01*
X101050000Y-58870000D02*
X101050000Y-59870000D01*
G75*
G02*
X101000000Y-59920000I-50000J0D01*
G01*
X99000000Y-59920000D01*
G75*
G02*
X98950000Y-59870000I0J50000D01*
G01*
X98950000Y-58870000D01*
G75*
G02*
X99000000Y-58820000I50000J0D01*
G01*
X101000000Y-58820000D01*
G75*
G02*
X101050000Y-58870000I0J-50000D01*
G01*
G37*
G36*
G01*
X101050000Y-55770000D02*
X101050000Y-56770000D01*
G75*
G02*
X101000000Y-56820000I-50000J0D01*
G01*
X99000000Y-56820000D01*
G75*
G02*
X98950000Y-56770000I0J50000D01*
G01*
X98950000Y-55770000D01*
G75*
G02*
X99000000Y-55720000I50000J0D01*
G01*
X101000000Y-55720000D01*
G75*
G02*
X101050000Y-55770000I0J-50000D01*
G01*
G37*
%TD*%
%TO.C,RV1*%
G36*
G01*
X106600000Y-32050000D02*
X106600000Y-28350000D01*
G75*
G02*
X106650000Y-28300000I50000J0D01*
G01*
X108650000Y-28300000D01*
G75*
G02*
X108700000Y-28350000I0J-50000D01*
G01*
X108700000Y-32050000D01*
G75*
G02*
X108650000Y-32100000I-50000J0D01*
G01*
X106650000Y-32100000D01*
G75*
G02*
X106600000Y-32050000I0J50000D01*
G01*
G37*
D11*
X105000000Y-40200000D03*
X103000000Y-40200000D03*
X101000000Y-40200000D03*
X99000000Y-40200000D03*
X97000000Y-40200000D03*
X95000000Y-40200000D03*
G36*
G01*
X91300000Y-32050000D02*
X91300000Y-28350000D01*
G75*
G02*
X91350000Y-28300000I50000J0D01*
G01*
X93350000Y-28300000D01*
G75*
G02*
X93400000Y-28350000I0J-50000D01*
G01*
X93400000Y-32050000D01*
G75*
G02*
X93350000Y-32100000I-50000J0D01*
G01*
X91350000Y-32100000D01*
G75*
G02*
X91300000Y-32050000I0J50000D01*
G01*
G37*
%TD*%
%TO.C,C7*%
G36*
G01*
X109850000Y-100406375D02*
X109850000Y-99237625D01*
G75*
G02*
X110115625Y-98972000I265625J0D01*
G01*
X113184375Y-98972000D01*
G75*
G02*
X113450000Y-99237625I0J-265625D01*
G01*
X113450000Y-100406375D01*
G75*
G02*
X113184375Y-100672000I-265625J0D01*
G01*
X110115625Y-100672000D01*
G75*
G02*
X109850000Y-100406375I0J265625D01*
G01*
G37*
G36*
G01*
X104450000Y-100406375D02*
X104450000Y-99237625D01*
G75*
G02*
X104715625Y-98972000I265625J0D01*
G01*
X107784375Y-98972000D01*
G75*
G02*
X108050000Y-99237625I0J-265625D01*
G01*
X108050000Y-100406375D01*
G75*
G02*
X107784375Y-100672000I-265625J0D01*
G01*
X104715625Y-100672000D01*
G75*
G02*
X104450000Y-100406375I0J265625D01*
G01*
G37*
%TD*%
%TO.C,C8*%
G36*
G01*
X90900000Y-100109375D02*
X90900000Y-98940625D01*
G75*
G02*
X91165625Y-98675000I265625J0D01*
G01*
X94234375Y-98675000D01*
G75*
G02*
X94500000Y-98940625I0J-265625D01*
G01*
X94500000Y-100109375D01*
G75*
G02*
X94234375Y-100375000I-265625J0D01*
G01*
X91165625Y-100375000D01*
G75*
G02*
X90900000Y-100109375I0J265625D01*
G01*
G37*
G36*
G01*
X85500000Y-100109375D02*
X85500000Y-98940625D01*
G75*
G02*
X85765625Y-98675000I265625J0D01*
G01*
X88834375Y-98675000D01*
G75*
G02*
X89100000Y-98940625I0J-265625D01*
G01*
X89100000Y-100109375D01*
G75*
G02*
X88834375Y-100375000I-265625J0D01*
G01*
X85765625Y-100375000D01*
G75*
G02*
X85500000Y-100109375I0J265625D01*
G01*
G37*
%TD*%
%TO.C,C9*%
G36*
G01*
X104781250Y-102290500D02*
X104218750Y-102290500D01*
G75*
G02*
X103975000Y-102046750I0J243750D01*
G01*
X103975000Y-101559250D01*
G75*
G02*
X104218750Y-101315500I243750J0D01*
G01*
X104781250Y-101315500D01*
G75*
G02*
X105025000Y-101559250I0J-243750D01*
G01*
X105025000Y-102046750D01*
G75*
G02*
X104781250Y-102290500I-243750J0D01*
G01*
G37*
G36*
G01*
X104781250Y-103865500D02*
X104218750Y-103865500D01*
G75*
G02*
X103975000Y-103621750I0J243750D01*
G01*
X103975000Y-103134250D01*
G75*
G02*
X104218750Y-102890500I243750J0D01*
G01*
X104781250Y-102890500D01*
G75*
G02*
X105025000Y-103134250I0J-243750D01*
G01*
X105025000Y-103621750D01*
G75*
G02*
X104781250Y-103865500I-243750J0D01*
G01*
G37*
%TD*%
%TO.C,C10*%
G36*
G01*
X95218750Y-102050000D02*
X95781250Y-102050000D01*
G75*
G02*
X96025000Y-102293750I0J-243750D01*
G01*
X96025000Y-102781250D01*
G75*
G02*
X95781250Y-103025000I-243750J0D01*
G01*
X95218750Y-103025000D01*
G75*
G02*
X94975000Y-102781250I0J243750D01*
G01*
X94975000Y-102293750D01*
G75*
G02*
X95218750Y-102050000I243750J0D01*
G01*
G37*
G36*
G01*
X95218750Y-100475000D02*
X95781250Y-100475000D01*
G75*
G02*
X96025000Y-100718750I0J-243750D01*
G01*
X96025000Y-101206250D01*
G75*
G02*
X95781250Y-101450000I-243750J0D01*
G01*
X95218750Y-101450000D01*
G75*
G02*
X94975000Y-101206250I0J243750D01*
G01*
X94975000Y-100718750D01*
G75*
G02*
X95218750Y-100475000I243750J0D01*
G01*
G37*
%TD*%
D10*
%TO.C,J1*%
X100000000Y-49000000D03*
G36*
G01*
X101050000Y-53420000D02*
X101050000Y-54420000D01*
G75*
G02*
X101000000Y-54470000I-50000J0D01*
G01*
X99000000Y-54470000D01*
G75*
G02*
X98950000Y-54420000I0J50000D01*
G01*
X98950000Y-53420000D01*
G75*
G02*
X99000000Y-53370000I50000J0D01*
G01*
X101000000Y-53370000D01*
G75*
G02*
X101050000Y-53420000I0J-50000D01*
G01*
G37*
G36*
G01*
X101050000Y-45120000D02*
X101050000Y-46120000D01*
G75*
G02*
X101000000Y-46170000I-50000J0D01*
G01*
X99000000Y-46170000D01*
G75*
G02*
X98950000Y-46120000I0J50000D01*
G01*
X98950000Y-45120000D01*
G75*
G02*
X99000000Y-45070000I50000J0D01*
G01*
X101000000Y-45070000D01*
G75*
G02*
X101050000Y-45120000I0J-50000D01*
G01*
G37*
G36*
G01*
X101050000Y-42020000D02*
X101050000Y-43020000D01*
G75*
G02*
X101000000Y-43070000I-50000J0D01*
G01*
X99000000Y-43070000D01*
G75*
G02*
X98950000Y-43020000I0J50000D01*
G01*
X98950000Y-42020000D01*
G75*
G02*
X99000000Y-41970000I50000J0D01*
G01*
X101000000Y-41970000D01*
G75*
G02*
X101050000Y-42020000I0J-50000D01*
G01*
G37*
%TD*%
D12*
%TO.C,J3*%
X105080000Y-116270000D03*
X105080000Y-113730000D03*
X102540000Y-116270000D03*
X102540000Y-113730000D03*
X100000000Y-116270000D03*
X100000000Y-113730000D03*
X97460000Y-116270000D03*
X97460000Y-113730000D03*
X94920000Y-116270000D03*
X94920000Y-113730000D03*
%TD*%
%TO.C,R1*%
G36*
G01*
X104602000Y-93432750D02*
X104602000Y-93995250D01*
G75*
G02*
X104358250Y-94239000I-243750J0D01*
G01*
X103870750Y-94239000D01*
G75*
G02*
X103627000Y-93995250I0J243750D01*
G01*
X103627000Y-93432750D01*
G75*
G02*
X103870750Y-93189000I243750J0D01*
G01*
X104358250Y-93189000D01*
G75*
G02*
X104602000Y-93432750I0J-243750D01*
G01*
G37*
G36*
G01*
X106177000Y-93432750D02*
X106177000Y-93995250D01*
G75*
G02*
X105933250Y-94239000I-243750J0D01*
G01*
X105445750Y-94239000D01*
G75*
G02*
X105202000Y-93995250I0J243750D01*
G01*
X105202000Y-93432750D01*
G75*
G02*
X105445750Y-93189000I243750J0D01*
G01*
X105933250Y-93189000D01*
G75*
G02*
X106177000Y-93432750I0J-243750D01*
G01*
G37*
%TD*%
%TO.C,R2*%
G36*
G01*
X105202000Y-92471250D02*
X105202000Y-91908750D01*
G75*
G02*
X105445750Y-91665000I243750J0D01*
G01*
X105933250Y-91665000D01*
G75*
G02*
X106177000Y-91908750I0J-243750D01*
G01*
X106177000Y-92471250D01*
G75*
G02*
X105933250Y-92715000I-243750J0D01*
G01*
X105445750Y-92715000D01*
G75*
G02*
X105202000Y-92471250I0J243750D01*
G01*
G37*
G36*
G01*
X103627000Y-92471250D02*
X103627000Y-91908750D01*
G75*
G02*
X103870750Y-91665000I243750J0D01*
G01*
X104358250Y-91665000D01*
G75*
G02*
X104602000Y-91908750I0J-243750D01*
G01*
X104602000Y-92471250D01*
G75*
G02*
X104358250Y-92715000I-243750J0D01*
G01*
X103870750Y-92715000D01*
G75*
G02*
X103627000Y-92471250I0J243750D01*
G01*
G37*
%TD*%
%TO.C,R3*%
G36*
G01*
X105202000Y-90197250D02*
X105202000Y-89634750D01*
G75*
G02*
X105445750Y-89391000I243750J0D01*
G01*
X105933250Y-89391000D01*
G75*
G02*
X106177000Y-89634750I0J-243750D01*
G01*
X106177000Y-90197250D01*
G75*
G02*
X105933250Y-90441000I-243750J0D01*
G01*
X105445750Y-90441000D01*
G75*
G02*
X105202000Y-90197250I0J243750D01*
G01*
G37*
G36*
G01*
X103627000Y-90197250D02*
X103627000Y-89634750D01*
G75*
G02*
X103870750Y-89391000I243750J0D01*
G01*
X104358250Y-89391000D01*
G75*
G02*
X104602000Y-89634750I0J-243750D01*
G01*
X104602000Y-90197250D01*
G75*
G02*
X104358250Y-90441000I-243750J0D01*
G01*
X103870750Y-90441000D01*
G75*
G02*
X103627000Y-90197250I0J243750D01*
G01*
G37*
%TD*%
%TO.C,R4*%
G36*
G01*
X105202000Y-88673250D02*
X105202000Y-88110750D01*
G75*
G02*
X105445750Y-87867000I243750J0D01*
G01*
X105933250Y-87867000D01*
G75*
G02*
X106177000Y-88110750I0J-243750D01*
G01*
X106177000Y-88673250D01*
G75*
G02*
X105933250Y-88917000I-243750J0D01*
G01*
X105445750Y-88917000D01*
G75*
G02*
X105202000Y-88673250I0J243750D01*
G01*
G37*
G36*
G01*
X103627000Y-88673250D02*
X103627000Y-88110750D01*
G75*
G02*
X103870750Y-87867000I243750J0D01*
G01*
X104358250Y-87867000D01*
G75*
G02*
X104602000Y-88110750I0J-243750D01*
G01*
X104602000Y-88673250D01*
G75*
G02*
X104358250Y-88917000I-243750J0D01*
G01*
X103870750Y-88917000D01*
G75*
G02*
X103627000Y-88673250I0J243750D01*
G01*
G37*
%TD*%
%TO.C,R5*%
G36*
G01*
X105202000Y-87149250D02*
X105202000Y-86586750D01*
G75*
G02*
X105445750Y-86343000I243750J0D01*
G01*
X105933250Y-86343000D01*
G75*
G02*
X106177000Y-86586750I0J-243750D01*
G01*
X106177000Y-87149250D01*
G75*
G02*
X105933250Y-87393000I-243750J0D01*
G01*
X105445750Y-87393000D01*
G75*
G02*
X105202000Y-87149250I0J243750D01*
G01*
G37*
G36*
G01*
X103627000Y-87149250D02*
X103627000Y-86586750D01*
G75*
G02*
X103870750Y-86343000I243750J0D01*
G01*
X104358250Y-86343000D01*
G75*
G02*
X104602000Y-86586750I0J-243750D01*
G01*
X104602000Y-87149250D01*
G75*
G02*
X104358250Y-87393000I-243750J0D01*
G01*
X103870750Y-87393000D01*
G75*
G02*
X103627000Y-87149250I0J243750D01*
G01*
G37*
%TD*%
%TO.C,R6*%
G36*
G01*
X104602000Y-85062750D02*
X104602000Y-85625250D01*
G75*
G02*
X104358250Y-85869000I-243750J0D01*
G01*
X103870750Y-85869000D01*
G75*
G02*
X103627000Y-85625250I0J243750D01*
G01*
X103627000Y-85062750D01*
G75*
G02*
X103870750Y-84819000I243750J0D01*
G01*
X104358250Y-84819000D01*
G75*
G02*
X104602000Y-85062750I0J-243750D01*
G01*
G37*
G36*
G01*
X106177000Y-85062750D02*
X106177000Y-85625250D01*
G75*
G02*
X105933250Y-85869000I-243750J0D01*
G01*
X105445750Y-85869000D01*
G75*
G02*
X105202000Y-85625250I0J243750D01*
G01*
X105202000Y-85062750D01*
G75*
G02*
X105445750Y-84819000I243750J0D01*
G01*
X105933250Y-84819000D01*
G75*
G02*
X106177000Y-85062750I0J-243750D01*
G01*
G37*
%TD*%
%TO.C,R7*%
G36*
G01*
X105202000Y-83451250D02*
X105202000Y-82888750D01*
G75*
G02*
X105445750Y-82645000I243750J0D01*
G01*
X105933250Y-82645000D01*
G75*
G02*
X106177000Y-82888750I0J-243750D01*
G01*
X106177000Y-83451250D01*
G75*
G02*
X105933250Y-83695000I-243750J0D01*
G01*
X105445750Y-83695000D01*
G75*
G02*
X105202000Y-83451250I0J243750D01*
G01*
G37*
G36*
G01*
X103627000Y-83451250D02*
X103627000Y-82888750D01*
G75*
G02*
X103870750Y-82645000I243750J0D01*
G01*
X104358250Y-82645000D01*
G75*
G02*
X104602000Y-82888750I0J-243750D01*
G01*
X104602000Y-83451250D01*
G75*
G02*
X104358250Y-83695000I-243750J0D01*
G01*
X103870750Y-83695000D01*
G75*
G02*
X103627000Y-83451250I0J243750D01*
G01*
G37*
%TD*%
%TO.C,R8*%
G36*
G01*
X105202000Y-81927250D02*
X105202000Y-81364750D01*
G75*
G02*
X105445750Y-81121000I243750J0D01*
G01*
X105933250Y-81121000D01*
G75*
G02*
X106177000Y-81364750I0J-243750D01*
G01*
X106177000Y-81927250D01*
G75*
G02*
X105933250Y-82171000I-243750J0D01*
G01*
X105445750Y-82171000D01*
G75*
G02*
X105202000Y-81927250I0J243750D01*
G01*
G37*
G36*
G01*
X103627000Y-81927250D02*
X103627000Y-81364750D01*
G75*
G02*
X103870750Y-81121000I243750J0D01*
G01*
X104358250Y-81121000D01*
G75*
G02*
X104602000Y-81364750I0J-243750D01*
G01*
X104602000Y-81927250D01*
G75*
G02*
X104358250Y-82171000I-243750J0D01*
G01*
X103870750Y-82171000D01*
G75*
G02*
X103627000Y-81927250I0J243750D01*
G01*
G37*
%TD*%
%TO.C,U1*%
G36*
G01*
X98550000Y-96015000D02*
X98550000Y-96365000D01*
G75*
G02*
X98375000Y-96540000I-175000J0D01*
G01*
X96675000Y-96540000D01*
G75*
G02*
X96500000Y-96365000I0J175000D01*
G01*
X96500000Y-96015000D01*
G75*
G02*
X96675000Y-95840000I175000J0D01*
G01*
X98375000Y-95840000D01*
G75*
G02*
X98550000Y-96015000I0J-175000D01*
G01*
G37*
G36*
G01*
X98550000Y-97285000D02*
X98550000Y-97635000D01*
G75*
G02*
X98375000Y-97810000I-175000J0D01*
G01*
X96675000Y-97810000D01*
G75*
G02*
X96500000Y-97635000I0J175000D01*
G01*
X96500000Y-97285000D01*
G75*
G02*
X96675000Y-97110000I175000J0D01*
G01*
X98375000Y-97110000D01*
G75*
G02*
X98550000Y-97285000I0J-175000D01*
G01*
G37*
G36*
G01*
X98550000Y-98555000D02*
X98550000Y-98905000D01*
G75*
G02*
X98375000Y-99080000I-175000J0D01*
G01*
X96675000Y-99080000D01*
G75*
G02*
X96500000Y-98905000I0J175000D01*
G01*
X96500000Y-98555000D01*
G75*
G02*
X96675000Y-98380000I175000J0D01*
G01*
X98375000Y-98380000D01*
G75*
G02*
X98550000Y-98555000I0J-175000D01*
G01*
G37*
G36*
G01*
X98550000Y-99825000D02*
X98550000Y-100175000D01*
G75*
G02*
X98375000Y-100350000I-175000J0D01*
G01*
X96675000Y-100350000D01*
G75*
G02*
X96500000Y-100175000I0J175000D01*
G01*
X96500000Y-99825000D01*
G75*
G02*
X96675000Y-99650000I175000J0D01*
G01*
X98375000Y-99650000D01*
G75*
G02*
X98550000Y-99825000I0J-175000D01*
G01*
G37*
G36*
G01*
X98550000Y-101095000D02*
X98550000Y-101445000D01*
G75*
G02*
X98375000Y-101620000I-175000J0D01*
G01*
X96675000Y-101620000D01*
G75*
G02*
X96500000Y-101445000I0J175000D01*
G01*
X96500000Y-101095000D01*
G75*
G02*
X96675000Y-100920000I175000J0D01*
G01*
X98375000Y-100920000D01*
G75*
G02*
X98550000Y-101095000I0J-175000D01*
G01*
G37*
G36*
G01*
X98550000Y-102365000D02*
X98550000Y-102715000D01*
G75*
G02*
X98375000Y-102890000I-175000J0D01*
G01*
X96675000Y-102890000D01*
G75*
G02*
X96500000Y-102715000I0J175000D01*
G01*
X96500000Y-102365000D01*
G75*
G02*
X96675000Y-102190000I175000J0D01*
G01*
X98375000Y-102190000D01*
G75*
G02*
X98550000Y-102365000I0J-175000D01*
G01*
G37*
G36*
G01*
X98550000Y-103635000D02*
X98550000Y-103985000D01*
G75*
G02*
X98375000Y-104160000I-175000J0D01*
G01*
X96675000Y-104160000D01*
G75*
G02*
X96500000Y-103985000I0J175000D01*
G01*
X96500000Y-103635000D01*
G75*
G02*
X96675000Y-103460000I175000J0D01*
G01*
X98375000Y-103460000D01*
G75*
G02*
X98550000Y-103635000I0J-175000D01*
G01*
G37*
G36*
G01*
X103500000Y-103635000D02*
X103500000Y-103985000D01*
G75*
G02*
X103325000Y-104160000I-175000J0D01*
G01*
X101625000Y-104160000D01*
G75*
G02*
X101450000Y-103985000I0J175000D01*
G01*
X101450000Y-103635000D01*
G75*
G02*
X101625000Y-103460000I175000J0D01*
G01*
X103325000Y-103460000D01*
G75*
G02*
X103500000Y-103635000I0J-175000D01*
G01*
G37*
G36*
G01*
X103500000Y-102365000D02*
X103500000Y-102715000D01*
G75*
G02*
X103325000Y-102890000I-175000J0D01*
G01*
X101625000Y-102890000D01*
G75*
G02*
X101450000Y-102715000I0J175000D01*
G01*
X101450000Y-102365000D01*
G75*
G02*
X101625000Y-102190000I175000J0D01*
G01*
X103325000Y-102190000D01*
G75*
G02*
X103500000Y-102365000I0J-175000D01*
G01*
G37*
G36*
G01*
X103500000Y-101095000D02*
X103500000Y-101445000D01*
G75*
G02*
X103325000Y-101620000I-175000J0D01*
G01*
X101625000Y-101620000D01*
G75*
G02*
X101450000Y-101445000I0J175000D01*
G01*
X101450000Y-101095000D01*
G75*
G02*
X101625000Y-100920000I175000J0D01*
G01*
X103325000Y-100920000D01*
G75*
G02*
X103500000Y-101095000I0J-175000D01*
G01*
G37*
G36*
G01*
X103500000Y-99825000D02*
X103500000Y-100175000D01*
G75*
G02*
X103325000Y-100350000I-175000J0D01*
G01*
X101625000Y-100350000D01*
G75*
G02*
X101450000Y-100175000I0J175000D01*
G01*
X101450000Y-99825000D01*
G75*
G02*
X101625000Y-99650000I175000J0D01*
G01*
X103325000Y-99650000D01*
G75*
G02*
X103500000Y-99825000I0J-175000D01*
G01*
G37*
G36*
G01*
X103500000Y-98555000D02*
X103500000Y-98905000D01*
G75*
G02*
X103325000Y-99080000I-175000J0D01*
G01*
X101625000Y-99080000D01*
G75*
G02*
X101450000Y-98905000I0J175000D01*
G01*
X101450000Y-98555000D01*
G75*
G02*
X101625000Y-98380000I175000J0D01*
G01*
X103325000Y-98380000D01*
G75*
G02*
X103500000Y-98555000I0J-175000D01*
G01*
G37*
G36*
G01*
X103500000Y-97285000D02*
X103500000Y-97635000D01*
G75*
G02*
X103325000Y-97810000I-175000J0D01*
G01*
X101625000Y-97810000D01*
G75*
G02*
X101450000Y-97635000I0J175000D01*
G01*
X101450000Y-97285000D01*
G75*
G02*
X101625000Y-97110000I175000J0D01*
G01*
X103325000Y-97110000D01*
G75*
G02*
X103500000Y-97285000I0J-175000D01*
G01*
G37*
G36*
G01*
X103500000Y-96015000D02*
X103500000Y-96365000D01*
G75*
G02*
X103325000Y-96540000I-175000J0D01*
G01*
X101625000Y-96540000D01*
G75*
G02*
X101450000Y-96365000I0J175000D01*
G01*
X101450000Y-96015000D01*
G75*
G02*
X101625000Y-95840000I175000J0D01*
G01*
X103325000Y-95840000D01*
G75*
G02*
X103500000Y-96015000I0J-175000D01*
G01*
G37*
%TD*%
%TO.C,C1*%
G36*
G01*
X94100000Y-83075000D02*
X94100000Y-83625000D01*
G75*
G02*
X93850000Y-83875000I-250000J0D01*
G01*
X93350000Y-83875000D01*
G75*
G02*
X93100000Y-83625000I0J250000D01*
G01*
X93100000Y-83075000D01*
G75*
G02*
X93350000Y-82825000I250000J0D01*
G01*
X93850000Y-82825000D01*
G75*
G02*
X94100000Y-83075000I0J-250000D01*
G01*
G37*
G36*
G01*
X92550000Y-83075000D02*
X92550000Y-83625000D01*
G75*
G02*
X92300000Y-83875000I-250000J0D01*
G01*
X91800000Y-83875000D01*
G75*
G02*
X91550000Y-83625000I0J250000D01*
G01*
X91550000Y-83075000D01*
G75*
G02*
X91800000Y-82825000I250000J0D01*
G01*
X92300000Y-82825000D01*
G75*
G02*
X92550000Y-83075000I0J-250000D01*
G01*
G37*
%TD*%
%TO.C,C5*%
G36*
G01*
X98725000Y-82025000D02*
X98725000Y-82575000D01*
G75*
G02*
X98475000Y-82825000I-250000J0D01*
G01*
X97975000Y-82825000D01*
G75*
G02*
X97725000Y-82575000I0J250000D01*
G01*
X97725000Y-82025000D01*
G75*
G02*
X97975000Y-81775000I250000J0D01*
G01*
X98475000Y-81775000D01*
G75*
G02*
X98725000Y-82025000I0J-250000D01*
G01*
G37*
G36*
G01*
X100275000Y-82025000D02*
X100275000Y-82575000D01*
G75*
G02*
X100025000Y-82825000I-250000J0D01*
G01*
X99525000Y-82825000D01*
G75*
G02*
X99275000Y-82575000I0J250000D01*
G01*
X99275000Y-82025000D01*
G75*
G02*
X99525000Y-81775000I250000J0D01*
G01*
X100025000Y-81775000D01*
G75*
G02*
X100275000Y-82025000I0J-250000D01*
G01*
G37*
%TD*%
%TO.C,C6*%
G36*
G01*
X100275000Y-83550000D02*
X100275000Y-84100000D01*
G75*
G02*
X100025000Y-84350000I-250000J0D01*
G01*
X99525000Y-84350000D01*
G75*
G02*
X99275000Y-84100000I0J250000D01*
G01*
X99275000Y-83550000D01*
G75*
G02*
X99525000Y-83300000I250000J0D01*
G01*
X100025000Y-83300000D01*
G75*
G02*
X100275000Y-83550000I0J-250000D01*
G01*
G37*
G36*
G01*
X98725000Y-83550000D02*
X98725000Y-84100000D01*
G75*
G02*
X98475000Y-84350000I-250000J0D01*
G01*
X97975000Y-84350000D01*
G75*
G02*
X97725000Y-84100000I0J250000D01*
G01*
X97725000Y-83550000D01*
G75*
G02*
X97975000Y-83300000I250000J0D01*
G01*
X98475000Y-83300000D01*
G75*
G02*
X98725000Y-83550000I0J-250000D01*
G01*
G37*
%TD*%
D13*
%TO.C,JP1*%
G36*
X109200961Y-90165245D02*
G01*
X109203806Y-90155866D01*
X109208427Y-90147221D01*
X109214645Y-90139645D01*
X109222221Y-90133427D01*
X109230866Y-90128806D01*
X109240245Y-90125961D01*
X109250000Y-90125000D01*
X110750000Y-90125000D01*
X110759755Y-90125961D01*
X110769134Y-90128806D01*
X110777779Y-90133427D01*
X110785355Y-90139645D01*
X110791573Y-90147221D01*
X110796194Y-90155866D01*
X110799039Y-90165245D01*
X110800000Y-90175000D01*
X110800000Y-90675000D01*
X110799398Y-90681111D01*
X110799398Y-90699534D01*
X110799157Y-90704435D01*
X110794347Y-90753266D01*
X110793627Y-90758119D01*
X110784055Y-90806244D01*
X110782863Y-90811005D01*
X110768619Y-90857960D01*
X110766966Y-90862579D01*
X110748189Y-90907912D01*
X110746091Y-90912349D01*
X110722960Y-90955622D01*
X110720438Y-90959829D01*
X110693178Y-91000628D01*
X110690254Y-91004570D01*
X110659126Y-91042499D01*
X110655831Y-91046134D01*
X110621134Y-91080831D01*
X110617499Y-91084126D01*
X110579570Y-91115254D01*
X110575628Y-91118178D01*
X110534829Y-91145438D01*
X110530622Y-91147960D01*
X110487349Y-91171091D01*
X110482912Y-91173189D01*
X110437579Y-91191966D01*
X110432960Y-91193619D01*
X110386005Y-91207863D01*
X110381244Y-91209055D01*
X110333119Y-91218627D01*
X110328266Y-91219347D01*
X110279435Y-91224157D01*
X110274534Y-91224398D01*
X110256111Y-91224398D01*
X110250000Y-91225000D01*
X109750000Y-91225000D01*
X109743889Y-91224398D01*
X109725466Y-91224398D01*
X109720565Y-91224157D01*
X109671734Y-91219347D01*
X109666881Y-91218627D01*
X109618756Y-91209055D01*
X109613995Y-91207863D01*
X109567040Y-91193619D01*
X109562421Y-91191966D01*
X109517088Y-91173189D01*
X109512651Y-91171091D01*
X109469378Y-91147960D01*
X109465171Y-91145438D01*
X109424372Y-91118178D01*
X109420430Y-91115254D01*
X109382501Y-91084126D01*
X109378866Y-91080831D01*
X109344169Y-91046134D01*
X109340874Y-91042499D01*
X109309746Y-91004570D01*
X109306822Y-91000628D01*
X109279562Y-90959829D01*
X109277040Y-90955622D01*
X109253909Y-90912349D01*
X109251811Y-90907912D01*
X109233034Y-90862579D01*
X109231381Y-90857960D01*
X109217137Y-90811005D01*
X109215945Y-90806244D01*
X109206373Y-90758119D01*
X109205653Y-90753266D01*
X109200843Y-90704435D01*
X109200602Y-90699534D01*
X109200602Y-90681111D01*
X109200000Y-90675000D01*
X109200000Y-90175000D01*
X109200961Y-90165245D01*
G37*
G36*
X109200602Y-89368889D02*
G01*
X109200602Y-89350466D01*
X109200843Y-89345565D01*
X109205653Y-89296734D01*
X109206373Y-89291881D01*
X109215945Y-89243756D01*
X109217137Y-89238995D01*
X109231381Y-89192040D01*
X109233034Y-89187421D01*
X109251811Y-89142088D01*
X109253909Y-89137651D01*
X109277040Y-89094378D01*
X109279562Y-89090171D01*
X109306822Y-89049372D01*
X109309746Y-89045430D01*
X109340874Y-89007501D01*
X109344169Y-89003866D01*
X109378866Y-88969169D01*
X109382501Y-88965874D01*
X109420430Y-88934746D01*
X109424372Y-88931822D01*
X109465171Y-88904562D01*
X109469378Y-88902040D01*
X109512651Y-88878909D01*
X109517088Y-88876811D01*
X109562421Y-88858034D01*
X109567040Y-88856381D01*
X109613995Y-88842137D01*
X109618756Y-88840945D01*
X109666881Y-88831373D01*
X109671734Y-88830653D01*
X109720565Y-88825843D01*
X109725466Y-88825602D01*
X109743889Y-88825602D01*
X109750000Y-88825000D01*
X110250000Y-88825000D01*
X110256111Y-88825602D01*
X110274534Y-88825602D01*
X110279435Y-88825843D01*
X110328266Y-88830653D01*
X110333119Y-88831373D01*
X110381244Y-88840945D01*
X110386005Y-88842137D01*
X110432960Y-88856381D01*
X110437579Y-88858034D01*
X110482912Y-88876811D01*
X110487349Y-88878909D01*
X110530622Y-88902040D01*
X110534829Y-88904562D01*
X110575628Y-88931822D01*
X110579570Y-88934746D01*
X110617499Y-88965874D01*
X110621134Y-88969169D01*
X110655831Y-89003866D01*
X110659126Y-89007501D01*
X110690254Y-89045430D01*
X110693178Y-89049372D01*
X110720438Y-89090171D01*
X110722960Y-89094378D01*
X110746091Y-89137651D01*
X110748189Y-89142088D01*
X110766966Y-89187421D01*
X110768619Y-89192040D01*
X110782863Y-89238995D01*
X110784055Y-89243756D01*
X110793627Y-89291881D01*
X110794347Y-89296734D01*
X110799157Y-89345565D01*
X110799398Y-89350466D01*
X110799398Y-89368889D01*
X110800000Y-89375000D01*
X110800000Y-89875000D01*
X110799039Y-89884755D01*
X110796194Y-89894134D01*
X110791573Y-89902779D01*
X110785355Y-89910355D01*
X110777779Y-89916573D01*
X110769134Y-89921194D01*
X110759755Y-89924039D01*
X110750000Y-89925000D01*
X109250000Y-89925000D01*
X109240245Y-89924039D01*
X109230866Y-89921194D01*
X109222221Y-89916573D01*
X109214645Y-89910355D01*
X109208427Y-89902779D01*
X109203806Y-89894134D01*
X109200961Y-89884755D01*
X109200000Y-89875000D01*
X109200000Y-89375000D01*
X109200602Y-89368889D01*
G37*
%TD*%
%TO.C,JP2*%
G36*
X109225602Y-85018889D02*
G01*
X109225602Y-85000466D01*
X109225843Y-84995565D01*
X109230653Y-84946734D01*
X109231373Y-84941881D01*
X109240945Y-84893756D01*
X109242137Y-84888995D01*
X109256381Y-84842040D01*
X109258034Y-84837421D01*
X109276811Y-84792088D01*
X109278909Y-84787651D01*
X109302040Y-84744378D01*
X109304562Y-84740171D01*
X109331822Y-84699372D01*
X109334746Y-84695430D01*
X109365874Y-84657501D01*
X109369169Y-84653866D01*
X109403866Y-84619169D01*
X109407501Y-84615874D01*
X109445430Y-84584746D01*
X109449372Y-84581822D01*
X109490171Y-84554562D01*
X109494378Y-84552040D01*
X109537651Y-84528909D01*
X109542088Y-84526811D01*
X109587421Y-84508034D01*
X109592040Y-84506381D01*
X109638995Y-84492137D01*
X109643756Y-84490945D01*
X109691881Y-84481373D01*
X109696734Y-84480653D01*
X109745565Y-84475843D01*
X109750466Y-84475602D01*
X109768889Y-84475602D01*
X109775000Y-84475000D01*
X110275000Y-84475000D01*
X110281111Y-84475602D01*
X110299534Y-84475602D01*
X110304435Y-84475843D01*
X110353266Y-84480653D01*
X110358119Y-84481373D01*
X110406244Y-84490945D01*
X110411005Y-84492137D01*
X110457960Y-84506381D01*
X110462579Y-84508034D01*
X110507912Y-84526811D01*
X110512349Y-84528909D01*
X110555622Y-84552040D01*
X110559829Y-84554562D01*
X110600628Y-84581822D01*
X110604570Y-84584746D01*
X110642499Y-84615874D01*
X110646134Y-84619169D01*
X110680831Y-84653866D01*
X110684126Y-84657501D01*
X110715254Y-84695430D01*
X110718178Y-84699372D01*
X110745438Y-84740171D01*
X110747960Y-84744378D01*
X110771091Y-84787651D01*
X110773189Y-84792088D01*
X110791966Y-84837421D01*
X110793619Y-84842040D01*
X110807863Y-84888995D01*
X110809055Y-84893756D01*
X110818627Y-84941881D01*
X110819347Y-84946734D01*
X110824157Y-84995565D01*
X110824398Y-85000466D01*
X110824398Y-85018889D01*
X110825000Y-85025000D01*
X110825000Y-85525000D01*
X110824039Y-85534755D01*
X110821194Y-85544134D01*
X110816573Y-85552779D01*
X110810355Y-85560355D01*
X110802779Y-85566573D01*
X110794134Y-85571194D01*
X110784755Y-85574039D01*
X110775000Y-85575000D01*
X109275000Y-85575000D01*
X109265245Y-85574039D01*
X109255866Y-85571194D01*
X109247221Y-85566573D01*
X109239645Y-85560355D01*
X109233427Y-85552779D01*
X109228806Y-85544134D01*
X109225961Y-85534755D01*
X109225000Y-85525000D01*
X109225000Y-85025000D01*
X109225602Y-85018889D01*
G37*
G36*
X109225961Y-85815245D02*
G01*
X109228806Y-85805866D01*
X109233427Y-85797221D01*
X109239645Y-85789645D01*
X109247221Y-85783427D01*
X109255866Y-85778806D01*
X109265245Y-85775961D01*
X109275000Y-85775000D01*
X110775000Y-85775000D01*
X110784755Y-85775961D01*
X110794134Y-85778806D01*
X110802779Y-85783427D01*
X110810355Y-85789645D01*
X110816573Y-85797221D01*
X110821194Y-85805866D01*
X110824039Y-85815245D01*
X110825000Y-85825000D01*
X110825000Y-86325000D01*
X110824398Y-86331111D01*
X110824398Y-86349534D01*
X110824157Y-86354435D01*
X110819347Y-86403266D01*
X110818627Y-86408119D01*
X110809055Y-86456244D01*
X110807863Y-86461005D01*
X110793619Y-86507960D01*
X110791966Y-86512579D01*
X110773189Y-86557912D01*
X110771091Y-86562349D01*
X110747960Y-86605622D01*
X110745438Y-86609829D01*
X110718178Y-86650628D01*
X110715254Y-86654570D01*
X110684126Y-86692499D01*
X110680831Y-86696134D01*
X110646134Y-86730831D01*
X110642499Y-86734126D01*
X110604570Y-86765254D01*
X110600628Y-86768178D01*
X110559829Y-86795438D01*
X110555622Y-86797960D01*
X110512349Y-86821091D01*
X110507912Y-86823189D01*
X110462579Y-86841966D01*
X110457960Y-86843619D01*
X110411005Y-86857863D01*
X110406244Y-86859055D01*
X110358119Y-86868627D01*
X110353266Y-86869347D01*
X110304435Y-86874157D01*
X110299534Y-86874398D01*
X110281111Y-86874398D01*
X110275000Y-86875000D01*
X109775000Y-86875000D01*
X109768889Y-86874398D01*
X109750466Y-86874398D01*
X109745565Y-86874157D01*
X109696734Y-86869347D01*
X109691881Y-86868627D01*
X109643756Y-86859055D01*
X109638995Y-86857863D01*
X109592040Y-86843619D01*
X109587421Y-86841966D01*
X109542088Y-86823189D01*
X109537651Y-86821091D01*
X109494378Y-86797960D01*
X109490171Y-86795438D01*
X109449372Y-86768178D01*
X109445430Y-86765254D01*
X109407501Y-86734126D01*
X109403866Y-86730831D01*
X109369169Y-86696134D01*
X109365874Y-86692499D01*
X109334746Y-86654570D01*
X109331822Y-86650628D01*
X109304562Y-86609829D01*
X109302040Y-86605622D01*
X109278909Y-86562349D01*
X109276811Y-86557912D01*
X109258034Y-86512579D01*
X109256381Y-86507960D01*
X109242137Y-86461005D01*
X109240945Y-86456244D01*
X109231373Y-86408119D01*
X109230653Y-86403266D01*
X109225843Y-86354435D01*
X109225602Y-86349534D01*
X109225602Y-86331111D01*
X109225000Y-86325000D01*
X109225000Y-85825000D01*
X109225961Y-85815245D01*
G37*
%TD*%
%TO.C,R9*%
G36*
G01*
X109200000Y-82825000D02*
X109800000Y-82825000D01*
G75*
G02*
X110025000Y-83050000I0J-225000D01*
G01*
X110025000Y-83500000D01*
G75*
G02*
X109800000Y-83725000I-225000J0D01*
G01*
X109200000Y-83725000D01*
G75*
G02*
X108975000Y-83500000I0J225000D01*
G01*
X108975000Y-83050000D01*
G75*
G02*
X109200000Y-82825000I225000J0D01*
G01*
G37*
G36*
G01*
X109200000Y-81175000D02*
X109800000Y-81175000D01*
G75*
G02*
X110025000Y-81400000I0J-225000D01*
G01*
X110025000Y-81850000D01*
G75*
G02*
X109800000Y-82075000I-225000J0D01*
G01*
X109200000Y-82075000D01*
G75*
G02*
X108975000Y-81850000I0J225000D01*
G01*
X108975000Y-81400000D01*
G75*
G02*
X109200000Y-81175000I225000J0D01*
G01*
G37*
%TD*%
%TO.C,R10*%
G36*
G01*
X106525000Y-34825000D02*
X106525000Y-35425000D01*
G75*
G02*
X106300000Y-35650000I-225000J0D01*
G01*
X105850000Y-35650000D01*
G75*
G02*
X105625000Y-35425000I0J225000D01*
G01*
X105625000Y-34825000D01*
G75*
G02*
X105850000Y-34600000I225000J0D01*
G01*
X106300000Y-34600000D01*
G75*
G02*
X106525000Y-34825000I0J-225000D01*
G01*
G37*
G36*
G01*
X104875000Y-34825000D02*
X104875000Y-35425000D01*
G75*
G02*
X104650000Y-35650000I-225000J0D01*
G01*
X104200000Y-35650000D01*
G75*
G02*
X103975000Y-35425000I0J225000D01*
G01*
X103975000Y-34825000D01*
G75*
G02*
X104200000Y-34600000I225000J0D01*
G01*
X104650000Y-34600000D01*
G75*
G02*
X104875000Y-34825000I0J-225000D01*
G01*
G37*
%TD*%
%TO.C,R11*%
G36*
G01*
X99700000Y-69225000D02*
X100300000Y-69225000D01*
G75*
G02*
X100525000Y-69450000I0J-225000D01*
G01*
X100525000Y-69900000D01*
G75*
G02*
X100300000Y-70125000I-225000J0D01*
G01*
X99700000Y-70125000D01*
G75*
G02*
X99475000Y-69900000I0J225000D01*
G01*
X99475000Y-69450000D01*
G75*
G02*
X99700000Y-69225000I225000J0D01*
G01*
G37*
G36*
G01*
X99700000Y-70875000D02*
X100300000Y-70875000D01*
G75*
G02*
X100525000Y-71100000I0J-225000D01*
G01*
X100525000Y-71550000D01*
G75*
G02*
X100300000Y-71775000I-225000J0D01*
G01*
X99700000Y-71775000D01*
G75*
G02*
X99475000Y-71550000I0J225000D01*
G01*
X99475000Y-71100000D01*
G75*
G02*
X99700000Y-70875000I225000J0D01*
G01*
G37*
%TD*%
%TO.C,TP1*%
G36*
G01*
X89350000Y-70500000D02*
X89350000Y-67000000D01*
G75*
G02*
X89400000Y-66950000I50000J0D01*
G01*
X94100000Y-66950000D01*
G75*
G02*
X94150000Y-67000000I0J-50000D01*
G01*
X94150000Y-70500000D01*
G75*
G02*
X94100000Y-70550000I-50000J0D01*
G01*
X89400000Y-70550000D01*
G75*
G02*
X89350000Y-70500000I0J50000D01*
G01*
G37*
%TD*%
%TO.C,TP2*%
G36*
G01*
X89350000Y-66250000D02*
X89350000Y-62750000D01*
G75*
G02*
X89400000Y-62700000I50000J0D01*
G01*
X94100000Y-62700000D01*
G75*
G02*
X94150000Y-62750000I0J-50000D01*
G01*
X94150000Y-66250000D01*
G75*
G02*
X94100000Y-66300000I-50000J0D01*
G01*
X89400000Y-66300000D01*
G75*
G02*
X89350000Y-66250000I0J50000D01*
G01*
G37*
%TD*%
%TO.C,TP3*%
G36*
G01*
X89350000Y-62000000D02*
X89350000Y-58500000D01*
G75*
G02*
X89400000Y-58450000I50000J0D01*
G01*
X94100000Y-58450000D01*
G75*
G02*
X94150000Y-58500000I0J-50000D01*
G01*
X94150000Y-62000000D01*
G75*
G02*
X94100000Y-62050000I-50000J0D01*
G01*
X89400000Y-62050000D01*
G75*
G02*
X89350000Y-62000000I0J50000D01*
G01*
G37*
%TD*%
%TO.C,TP4*%
G36*
G01*
X89350000Y-57750000D02*
X89350000Y-54250000D01*
G75*
G02*
X89400000Y-54200000I50000J0D01*
G01*
X94100000Y-54200000D01*
G75*
G02*
X94150000Y-54250000I0J-50000D01*
G01*
X94150000Y-57750000D01*
G75*
G02*
X94100000Y-57800000I-50000J0D01*
G01*
X89400000Y-57800000D01*
G75*
G02*
X89350000Y-57750000I0J50000D01*
G01*
G37*
%TD*%
%TO.C,D1*%
G36*
G01*
X104800000Y-108000000D02*
X104800000Y-107500000D01*
G75*
G02*
X104850000Y-107450000I50000J0D01*
G01*
X105350000Y-107450000D01*
G75*
G02*
X105400000Y-107500000I0J-50000D01*
G01*
X105400000Y-108000000D01*
G75*
G02*
X105350000Y-108050000I-50000J0D01*
G01*
X104850000Y-108050000D01*
G75*
G02*
X104800000Y-108000000I0J50000D01*
G01*
G37*
G36*
G01*
X102600000Y-108000000D02*
X102600000Y-107500000D01*
G75*
G02*
X102650000Y-107450000I50000J0D01*
G01*
X103150000Y-107450000D01*
G75*
G02*
X103200000Y-107500000I0J-50000D01*
G01*
X103200000Y-108000000D01*
G75*
G02*
X103150000Y-108050000I-50000J0D01*
G01*
X102650000Y-108050000D01*
G75*
G02*
X102600000Y-108000000I0J50000D01*
G01*
G37*
%TD*%
%TO.C,D2*%
G36*
G01*
X109850000Y-108000000D02*
X109850000Y-107500000D01*
G75*
G02*
X109900000Y-107450000I50000J0D01*
G01*
X110400000Y-107450000D01*
G75*
G02*
X110450000Y-107500000I0J-50000D01*
G01*
X110450000Y-108000000D01*
G75*
G02*
X110400000Y-108050000I-50000J0D01*
G01*
X109900000Y-108050000D01*
G75*
G02*
X109850000Y-108000000I0J50000D01*
G01*
G37*
G36*
G01*
X112050000Y-108000000D02*
X112050000Y-107500000D01*
G75*
G02*
X112100000Y-107450000I50000J0D01*
G01*
X112600000Y-107450000D01*
G75*
G02*
X112650000Y-107500000I0J-50000D01*
G01*
X112650000Y-108000000D01*
G75*
G02*
X112600000Y-108050000I-50000J0D01*
G01*
X112100000Y-108050000D01*
G75*
G02*
X112050000Y-108000000I0J50000D01*
G01*
G37*
%TD*%
M02*
