%TF.GenerationSoftware,KiCad,Pcbnew,5.1.6-c6e7f7d~87~ubuntu18.04.1*%
%TF.CreationDate,2020-12-29T19:32:25-08:00*%
%TF.ProjectId,cv-extractor,63762d65-7874-4726-9163-746f722e6b69,rev?*%
%TF.SameCoordinates,Original*%
%TF.FileFunction,Soldermask,Bot*%
%TF.FilePolarity,Negative*%
%FSLAX46Y46*%
G04 Gerber Fmt 4.6, Leading zero omitted, Abs format (unit mm)*
G04 Created by KiCad (PCBNEW 5.1.6-c6e7f7d~87~ubuntu18.04.1) date 2020-12-29 19:32:25*
%MOMM*%
%LPD*%
G01*
G04 APERTURE LIST*
%ADD10C,3.300000*%
%ADD11C,3.600000*%
%ADD12R,2.100000X1.100000*%
%ADD13R,2.100000X3.800000*%
%ADD14C,1.600000*%
%ADD15R,2.600000X1.900000*%
%ADD16C,1.700200*%
G04 APERTURE END LIST*
D10*
%TO.C,REF\u002A\u002A*%
X115000000Y-115000000D03*
%TD*%
%TO.C,REF\u002A\u002A*%
X85000000Y-115000000D03*
%TD*%
D11*
%TO.C,J2*%
X115000000Y-70000000D03*
D12*
X115000000Y-74920000D03*
X115000000Y-66620000D03*
X115000000Y-63520000D03*
%TD*%
%TO.C,C3*%
G36*
G01*
X86171000Y-78941000D02*
X86171000Y-80251000D01*
G75*
G02*
X85901000Y-80521000I-270000J0D01*
G01*
X85091000Y-80521000D01*
G75*
G02*
X84821000Y-80251000I0J270000D01*
G01*
X84821000Y-78941000D01*
G75*
G02*
X85091000Y-78671000I270000J0D01*
G01*
X85901000Y-78671000D01*
G75*
G02*
X86171000Y-78941000I0J-270000D01*
G01*
G37*
G36*
G01*
X88971000Y-78941000D02*
X88971000Y-80251000D01*
G75*
G02*
X88701000Y-80521000I-270000J0D01*
G01*
X87891000Y-80521000D01*
G75*
G02*
X87621000Y-80251000I0J270000D01*
G01*
X87621000Y-78941000D01*
G75*
G02*
X87891000Y-78671000I270000J0D01*
G01*
X88701000Y-78671000D01*
G75*
G02*
X88971000Y-78941000I0J-270000D01*
G01*
G37*
%TD*%
D13*
%TO.C,RV1*%
X107650000Y-66200000D03*
D14*
X105000000Y-76200000D03*
X103000000Y-76200000D03*
X101000000Y-76200000D03*
X99000000Y-76200000D03*
X97000000Y-76200000D03*
X95000000Y-76200000D03*
D13*
X92350000Y-66200000D03*
%TD*%
%TO.C,C1*%
G36*
G01*
X91279000Y-92349000D02*
X91279000Y-91039000D01*
G75*
G02*
X91549000Y-90769000I270000J0D01*
G01*
X92359000Y-90769000D01*
G75*
G02*
X92629000Y-91039000I0J-270000D01*
G01*
X92629000Y-92349000D01*
G75*
G02*
X92359000Y-92619000I-270000J0D01*
G01*
X91549000Y-92619000D01*
G75*
G02*
X91279000Y-92349000I0J270000D01*
G01*
G37*
G36*
G01*
X88479000Y-92349000D02*
X88479000Y-91039000D01*
G75*
G02*
X88749000Y-90769000I270000J0D01*
G01*
X89559000Y-90769000D01*
G75*
G02*
X89829000Y-91039000I0J-270000D01*
G01*
X89829000Y-92349000D01*
G75*
G02*
X89559000Y-92619000I-270000J0D01*
G01*
X88749000Y-92619000D01*
G75*
G02*
X88479000Y-92349000I0J270000D01*
G01*
G37*
%TD*%
%TO.C,C2*%
G36*
G01*
X91279000Y-94889000D02*
X91279000Y-93579000D01*
G75*
G02*
X91549000Y-93309000I270000J0D01*
G01*
X92359000Y-93309000D01*
G75*
G02*
X92629000Y-93579000I0J-270000D01*
G01*
X92629000Y-94889000D01*
G75*
G02*
X92359000Y-95159000I-270000J0D01*
G01*
X91549000Y-95159000D01*
G75*
G02*
X91279000Y-94889000I0J270000D01*
G01*
G37*
G36*
G01*
X88479000Y-94889000D02*
X88479000Y-93579000D01*
G75*
G02*
X88749000Y-93309000I270000J0D01*
G01*
X89559000Y-93309000D01*
G75*
G02*
X89829000Y-93579000I0J-270000D01*
G01*
X89829000Y-94889000D01*
G75*
G02*
X89559000Y-95159000I-270000J0D01*
G01*
X88749000Y-95159000D01*
G75*
G02*
X88479000Y-94889000I0J270000D01*
G01*
G37*
%TD*%
%TO.C,C4*%
G36*
G01*
X86171000Y-81331000D02*
X86171000Y-82641000D01*
G75*
G02*
X85901000Y-82911000I-270000J0D01*
G01*
X85091000Y-82911000D01*
G75*
G02*
X84821000Y-82641000I0J270000D01*
G01*
X84821000Y-81331000D01*
G75*
G02*
X85091000Y-81061000I270000J0D01*
G01*
X85901000Y-81061000D01*
G75*
G02*
X86171000Y-81331000I0J-270000D01*
G01*
G37*
G36*
G01*
X88971000Y-81331000D02*
X88971000Y-82641000D01*
G75*
G02*
X88701000Y-82911000I-270000J0D01*
G01*
X87891000Y-82911000D01*
G75*
G02*
X87621000Y-82641000I0J270000D01*
G01*
X87621000Y-81331000D01*
G75*
G02*
X87891000Y-81061000I270000J0D01*
G01*
X88701000Y-81061000D01*
G75*
G02*
X88971000Y-81331000I0J-270000D01*
G01*
G37*
%TD*%
%TO.C,C5*%
G36*
G01*
X86171000Y-83767000D02*
X86171000Y-85077000D01*
G75*
G02*
X85901000Y-85347000I-270000J0D01*
G01*
X85091000Y-85347000D01*
G75*
G02*
X84821000Y-85077000I0J270000D01*
G01*
X84821000Y-83767000D01*
G75*
G02*
X85091000Y-83497000I270000J0D01*
G01*
X85901000Y-83497000D01*
G75*
G02*
X86171000Y-83767000I0J-270000D01*
G01*
G37*
G36*
G01*
X88971000Y-83767000D02*
X88971000Y-85077000D01*
G75*
G02*
X88701000Y-85347000I-270000J0D01*
G01*
X87891000Y-85347000D01*
G75*
G02*
X87621000Y-85077000I0J270000D01*
G01*
X87621000Y-83767000D01*
G75*
G02*
X87891000Y-83497000I270000J0D01*
G01*
X88701000Y-83497000D01*
G75*
G02*
X88971000Y-83767000I0J-270000D01*
G01*
G37*
%TD*%
%TO.C,C6*%
G36*
G01*
X86171000Y-86307000D02*
X86171000Y-87617000D01*
G75*
G02*
X85901000Y-87887000I-270000J0D01*
G01*
X85091000Y-87887000D01*
G75*
G02*
X84821000Y-87617000I0J270000D01*
G01*
X84821000Y-86307000D01*
G75*
G02*
X85091000Y-86037000I270000J0D01*
G01*
X85901000Y-86037000D01*
G75*
G02*
X86171000Y-86307000I0J-270000D01*
G01*
G37*
G36*
G01*
X88971000Y-86307000D02*
X88971000Y-87617000D01*
G75*
G02*
X88701000Y-87887000I-270000J0D01*
G01*
X87891000Y-87887000D01*
G75*
G02*
X87621000Y-87617000I0J270000D01*
G01*
X87621000Y-86307000D01*
G75*
G02*
X87891000Y-86037000I270000J0D01*
G01*
X88701000Y-86037000D01*
G75*
G02*
X88971000Y-86307000I0J-270000D01*
G01*
G37*
%TD*%
%TO.C,C7*%
G36*
G01*
X110120000Y-100406375D02*
X110120000Y-99237625D01*
G75*
G02*
X110385625Y-98972000I265625J0D01*
G01*
X113454375Y-98972000D01*
G75*
G02*
X113720000Y-99237625I0J-265625D01*
G01*
X113720000Y-100406375D01*
G75*
G02*
X113454375Y-100672000I-265625J0D01*
G01*
X110385625Y-100672000D01*
G75*
G02*
X110120000Y-100406375I0J265625D01*
G01*
G37*
G36*
G01*
X104720000Y-100406375D02*
X104720000Y-99237625D01*
G75*
G02*
X104985625Y-98972000I265625J0D01*
G01*
X108054375Y-98972000D01*
G75*
G02*
X108320000Y-99237625I0J-265625D01*
G01*
X108320000Y-100406375D01*
G75*
G02*
X108054375Y-100672000I-265625J0D01*
G01*
X104985625Y-100672000D01*
G75*
G02*
X104720000Y-100406375I0J265625D01*
G01*
G37*
%TD*%
%TO.C,C8*%
G36*
G01*
X90150000Y-100109375D02*
X90150000Y-98940625D01*
G75*
G02*
X90415625Y-98675000I265625J0D01*
G01*
X93484375Y-98675000D01*
G75*
G02*
X93750000Y-98940625I0J-265625D01*
G01*
X93750000Y-100109375D01*
G75*
G02*
X93484375Y-100375000I-265625J0D01*
G01*
X90415625Y-100375000D01*
G75*
G02*
X90150000Y-100109375I0J265625D01*
G01*
G37*
G36*
G01*
X84750000Y-100109375D02*
X84750000Y-98940625D01*
G75*
G02*
X85015625Y-98675000I265625J0D01*
G01*
X88084375Y-98675000D01*
G75*
G02*
X88350000Y-98940625I0J-265625D01*
G01*
X88350000Y-100109375D01*
G75*
G02*
X88084375Y-100375000I-265625J0D01*
G01*
X85015625Y-100375000D01*
G75*
G02*
X84750000Y-100109375I0J265625D01*
G01*
G37*
%TD*%
%TO.C,C9*%
G36*
G01*
X104929250Y-102290500D02*
X104366750Y-102290500D01*
G75*
G02*
X104123000Y-102046750I0J243750D01*
G01*
X104123000Y-101559250D01*
G75*
G02*
X104366750Y-101315500I243750J0D01*
G01*
X104929250Y-101315500D01*
G75*
G02*
X105173000Y-101559250I0J-243750D01*
G01*
X105173000Y-102046750D01*
G75*
G02*
X104929250Y-102290500I-243750J0D01*
G01*
G37*
G36*
G01*
X104929250Y-103865500D02*
X104366750Y-103865500D01*
G75*
G02*
X104123000Y-103621750I0J243750D01*
G01*
X104123000Y-103134250D01*
G75*
G02*
X104366750Y-102890500I243750J0D01*
G01*
X104929250Y-102890500D01*
G75*
G02*
X105173000Y-103134250I0J-243750D01*
G01*
X105173000Y-103621750D01*
G75*
G02*
X104929250Y-103865500I-243750J0D01*
G01*
G37*
%TD*%
%TO.C,C10*%
G36*
G01*
X94493750Y-102050000D02*
X95056250Y-102050000D01*
G75*
G02*
X95300000Y-102293750I0J-243750D01*
G01*
X95300000Y-102781250D01*
G75*
G02*
X95056250Y-103025000I-243750J0D01*
G01*
X94493750Y-103025000D01*
G75*
G02*
X94250000Y-102781250I0J243750D01*
G01*
X94250000Y-102293750D01*
G75*
G02*
X94493750Y-102050000I243750J0D01*
G01*
G37*
G36*
G01*
X94493750Y-100475000D02*
X95056250Y-100475000D01*
G75*
G02*
X95300000Y-100718750I0J-243750D01*
G01*
X95300000Y-101206250D01*
G75*
G02*
X95056250Y-101450000I-243750J0D01*
G01*
X94493750Y-101450000D01*
G75*
G02*
X94250000Y-101206250I0J243750D01*
G01*
X94250000Y-100718750D01*
G75*
G02*
X94493750Y-100475000I243750J0D01*
G01*
G37*
%TD*%
D15*
%TO.C,D1*%
X106750000Y-107750000D03*
X102750000Y-107750000D03*
%TD*%
%TO.C,D2*%
X114000000Y-107750000D03*
X110000000Y-107750000D03*
%TD*%
D11*
%TO.C,J1*%
X85000000Y-70000000D03*
D12*
X85000000Y-74920000D03*
X85000000Y-66620000D03*
X85000000Y-63520000D03*
%TD*%
D16*
%TO.C,X1*%
X105080000Y-116270000D03*
X105080000Y-113730000D03*
X102540000Y-116270000D03*
X102540000Y-113730000D03*
X100000000Y-116270000D03*
X100000000Y-113730000D03*
X97460000Y-116270000D03*
X97460000Y-113730000D03*
X94920000Y-116270000D03*
X94920000Y-113730000D03*
%TD*%
%TO.C,R1*%
G36*
G01*
X104602000Y-93432750D02*
X104602000Y-93995250D01*
G75*
G02*
X104358250Y-94239000I-243750J0D01*
G01*
X103870750Y-94239000D01*
G75*
G02*
X103627000Y-93995250I0J243750D01*
G01*
X103627000Y-93432750D01*
G75*
G02*
X103870750Y-93189000I243750J0D01*
G01*
X104358250Y-93189000D01*
G75*
G02*
X104602000Y-93432750I0J-243750D01*
G01*
G37*
G36*
G01*
X106177000Y-93432750D02*
X106177000Y-93995250D01*
G75*
G02*
X105933250Y-94239000I-243750J0D01*
G01*
X105445750Y-94239000D01*
G75*
G02*
X105202000Y-93995250I0J243750D01*
G01*
X105202000Y-93432750D01*
G75*
G02*
X105445750Y-93189000I243750J0D01*
G01*
X105933250Y-93189000D01*
G75*
G02*
X106177000Y-93432750I0J-243750D01*
G01*
G37*
%TD*%
%TO.C,R2*%
G36*
G01*
X105202000Y-92471250D02*
X105202000Y-91908750D01*
G75*
G02*
X105445750Y-91665000I243750J0D01*
G01*
X105933250Y-91665000D01*
G75*
G02*
X106177000Y-91908750I0J-243750D01*
G01*
X106177000Y-92471250D01*
G75*
G02*
X105933250Y-92715000I-243750J0D01*
G01*
X105445750Y-92715000D01*
G75*
G02*
X105202000Y-92471250I0J243750D01*
G01*
G37*
G36*
G01*
X103627000Y-92471250D02*
X103627000Y-91908750D01*
G75*
G02*
X103870750Y-91665000I243750J0D01*
G01*
X104358250Y-91665000D01*
G75*
G02*
X104602000Y-91908750I0J-243750D01*
G01*
X104602000Y-92471250D01*
G75*
G02*
X104358250Y-92715000I-243750J0D01*
G01*
X103870750Y-92715000D01*
G75*
G02*
X103627000Y-92471250I0J243750D01*
G01*
G37*
%TD*%
%TO.C,R3*%
G36*
G01*
X105202000Y-90197250D02*
X105202000Y-89634750D01*
G75*
G02*
X105445750Y-89391000I243750J0D01*
G01*
X105933250Y-89391000D01*
G75*
G02*
X106177000Y-89634750I0J-243750D01*
G01*
X106177000Y-90197250D01*
G75*
G02*
X105933250Y-90441000I-243750J0D01*
G01*
X105445750Y-90441000D01*
G75*
G02*
X105202000Y-90197250I0J243750D01*
G01*
G37*
G36*
G01*
X103627000Y-90197250D02*
X103627000Y-89634750D01*
G75*
G02*
X103870750Y-89391000I243750J0D01*
G01*
X104358250Y-89391000D01*
G75*
G02*
X104602000Y-89634750I0J-243750D01*
G01*
X104602000Y-90197250D01*
G75*
G02*
X104358250Y-90441000I-243750J0D01*
G01*
X103870750Y-90441000D01*
G75*
G02*
X103627000Y-90197250I0J243750D01*
G01*
G37*
%TD*%
%TO.C,R4*%
G36*
G01*
X105202000Y-88673250D02*
X105202000Y-88110750D01*
G75*
G02*
X105445750Y-87867000I243750J0D01*
G01*
X105933250Y-87867000D01*
G75*
G02*
X106177000Y-88110750I0J-243750D01*
G01*
X106177000Y-88673250D01*
G75*
G02*
X105933250Y-88917000I-243750J0D01*
G01*
X105445750Y-88917000D01*
G75*
G02*
X105202000Y-88673250I0J243750D01*
G01*
G37*
G36*
G01*
X103627000Y-88673250D02*
X103627000Y-88110750D01*
G75*
G02*
X103870750Y-87867000I243750J0D01*
G01*
X104358250Y-87867000D01*
G75*
G02*
X104602000Y-88110750I0J-243750D01*
G01*
X104602000Y-88673250D01*
G75*
G02*
X104358250Y-88917000I-243750J0D01*
G01*
X103870750Y-88917000D01*
G75*
G02*
X103627000Y-88673250I0J243750D01*
G01*
G37*
%TD*%
%TO.C,R5*%
G36*
G01*
X105202000Y-87149250D02*
X105202000Y-86586750D01*
G75*
G02*
X105445750Y-86343000I243750J0D01*
G01*
X105933250Y-86343000D01*
G75*
G02*
X106177000Y-86586750I0J-243750D01*
G01*
X106177000Y-87149250D01*
G75*
G02*
X105933250Y-87393000I-243750J0D01*
G01*
X105445750Y-87393000D01*
G75*
G02*
X105202000Y-87149250I0J243750D01*
G01*
G37*
G36*
G01*
X103627000Y-87149250D02*
X103627000Y-86586750D01*
G75*
G02*
X103870750Y-86343000I243750J0D01*
G01*
X104358250Y-86343000D01*
G75*
G02*
X104602000Y-86586750I0J-243750D01*
G01*
X104602000Y-87149250D01*
G75*
G02*
X104358250Y-87393000I-243750J0D01*
G01*
X103870750Y-87393000D01*
G75*
G02*
X103627000Y-87149250I0J243750D01*
G01*
G37*
%TD*%
%TO.C,R6*%
G36*
G01*
X104602000Y-85062750D02*
X104602000Y-85625250D01*
G75*
G02*
X104358250Y-85869000I-243750J0D01*
G01*
X103870750Y-85869000D01*
G75*
G02*
X103627000Y-85625250I0J243750D01*
G01*
X103627000Y-85062750D01*
G75*
G02*
X103870750Y-84819000I243750J0D01*
G01*
X104358250Y-84819000D01*
G75*
G02*
X104602000Y-85062750I0J-243750D01*
G01*
G37*
G36*
G01*
X106177000Y-85062750D02*
X106177000Y-85625250D01*
G75*
G02*
X105933250Y-85869000I-243750J0D01*
G01*
X105445750Y-85869000D01*
G75*
G02*
X105202000Y-85625250I0J243750D01*
G01*
X105202000Y-85062750D01*
G75*
G02*
X105445750Y-84819000I243750J0D01*
G01*
X105933250Y-84819000D01*
G75*
G02*
X106177000Y-85062750I0J-243750D01*
G01*
G37*
%TD*%
%TO.C,R7*%
G36*
G01*
X105202000Y-83451250D02*
X105202000Y-82888750D01*
G75*
G02*
X105445750Y-82645000I243750J0D01*
G01*
X105933250Y-82645000D01*
G75*
G02*
X106177000Y-82888750I0J-243750D01*
G01*
X106177000Y-83451250D01*
G75*
G02*
X105933250Y-83695000I-243750J0D01*
G01*
X105445750Y-83695000D01*
G75*
G02*
X105202000Y-83451250I0J243750D01*
G01*
G37*
G36*
G01*
X103627000Y-83451250D02*
X103627000Y-82888750D01*
G75*
G02*
X103870750Y-82645000I243750J0D01*
G01*
X104358250Y-82645000D01*
G75*
G02*
X104602000Y-82888750I0J-243750D01*
G01*
X104602000Y-83451250D01*
G75*
G02*
X104358250Y-83695000I-243750J0D01*
G01*
X103870750Y-83695000D01*
G75*
G02*
X103627000Y-83451250I0J243750D01*
G01*
G37*
%TD*%
%TO.C,R8*%
G36*
G01*
X105202000Y-81927250D02*
X105202000Y-81364750D01*
G75*
G02*
X105445750Y-81121000I243750J0D01*
G01*
X105933250Y-81121000D01*
G75*
G02*
X106177000Y-81364750I0J-243750D01*
G01*
X106177000Y-81927250D01*
G75*
G02*
X105933250Y-82171000I-243750J0D01*
G01*
X105445750Y-82171000D01*
G75*
G02*
X105202000Y-81927250I0J243750D01*
G01*
G37*
G36*
G01*
X103627000Y-81927250D02*
X103627000Y-81364750D01*
G75*
G02*
X103870750Y-81121000I243750J0D01*
G01*
X104358250Y-81121000D01*
G75*
G02*
X104602000Y-81364750I0J-243750D01*
G01*
X104602000Y-81927250D01*
G75*
G02*
X104358250Y-82171000I-243750J0D01*
G01*
X103870750Y-82171000D01*
G75*
G02*
X103627000Y-81927250I0J243750D01*
G01*
G37*
%TD*%
%TO.C,U1*%
G36*
G01*
X98550000Y-96015000D02*
X98550000Y-96365000D01*
G75*
G02*
X98375000Y-96540000I-175000J0D01*
G01*
X96675000Y-96540000D01*
G75*
G02*
X96500000Y-96365000I0J175000D01*
G01*
X96500000Y-96015000D01*
G75*
G02*
X96675000Y-95840000I175000J0D01*
G01*
X98375000Y-95840000D01*
G75*
G02*
X98550000Y-96015000I0J-175000D01*
G01*
G37*
G36*
G01*
X98550000Y-97285000D02*
X98550000Y-97635000D01*
G75*
G02*
X98375000Y-97810000I-175000J0D01*
G01*
X96675000Y-97810000D01*
G75*
G02*
X96500000Y-97635000I0J175000D01*
G01*
X96500000Y-97285000D01*
G75*
G02*
X96675000Y-97110000I175000J0D01*
G01*
X98375000Y-97110000D01*
G75*
G02*
X98550000Y-97285000I0J-175000D01*
G01*
G37*
G36*
G01*
X98550000Y-98555000D02*
X98550000Y-98905000D01*
G75*
G02*
X98375000Y-99080000I-175000J0D01*
G01*
X96675000Y-99080000D01*
G75*
G02*
X96500000Y-98905000I0J175000D01*
G01*
X96500000Y-98555000D01*
G75*
G02*
X96675000Y-98380000I175000J0D01*
G01*
X98375000Y-98380000D01*
G75*
G02*
X98550000Y-98555000I0J-175000D01*
G01*
G37*
G36*
G01*
X98550000Y-99825000D02*
X98550000Y-100175000D01*
G75*
G02*
X98375000Y-100350000I-175000J0D01*
G01*
X96675000Y-100350000D01*
G75*
G02*
X96500000Y-100175000I0J175000D01*
G01*
X96500000Y-99825000D01*
G75*
G02*
X96675000Y-99650000I175000J0D01*
G01*
X98375000Y-99650000D01*
G75*
G02*
X98550000Y-99825000I0J-175000D01*
G01*
G37*
G36*
G01*
X98550000Y-101095000D02*
X98550000Y-101445000D01*
G75*
G02*
X98375000Y-101620000I-175000J0D01*
G01*
X96675000Y-101620000D01*
G75*
G02*
X96500000Y-101445000I0J175000D01*
G01*
X96500000Y-101095000D01*
G75*
G02*
X96675000Y-100920000I175000J0D01*
G01*
X98375000Y-100920000D01*
G75*
G02*
X98550000Y-101095000I0J-175000D01*
G01*
G37*
G36*
G01*
X98550000Y-102365000D02*
X98550000Y-102715000D01*
G75*
G02*
X98375000Y-102890000I-175000J0D01*
G01*
X96675000Y-102890000D01*
G75*
G02*
X96500000Y-102715000I0J175000D01*
G01*
X96500000Y-102365000D01*
G75*
G02*
X96675000Y-102190000I175000J0D01*
G01*
X98375000Y-102190000D01*
G75*
G02*
X98550000Y-102365000I0J-175000D01*
G01*
G37*
G36*
G01*
X98550000Y-103635000D02*
X98550000Y-103985000D01*
G75*
G02*
X98375000Y-104160000I-175000J0D01*
G01*
X96675000Y-104160000D01*
G75*
G02*
X96500000Y-103985000I0J175000D01*
G01*
X96500000Y-103635000D01*
G75*
G02*
X96675000Y-103460000I175000J0D01*
G01*
X98375000Y-103460000D01*
G75*
G02*
X98550000Y-103635000I0J-175000D01*
G01*
G37*
G36*
G01*
X103500000Y-103635000D02*
X103500000Y-103985000D01*
G75*
G02*
X103325000Y-104160000I-175000J0D01*
G01*
X101625000Y-104160000D01*
G75*
G02*
X101450000Y-103985000I0J175000D01*
G01*
X101450000Y-103635000D01*
G75*
G02*
X101625000Y-103460000I175000J0D01*
G01*
X103325000Y-103460000D01*
G75*
G02*
X103500000Y-103635000I0J-175000D01*
G01*
G37*
G36*
G01*
X103500000Y-102365000D02*
X103500000Y-102715000D01*
G75*
G02*
X103325000Y-102890000I-175000J0D01*
G01*
X101625000Y-102890000D01*
G75*
G02*
X101450000Y-102715000I0J175000D01*
G01*
X101450000Y-102365000D01*
G75*
G02*
X101625000Y-102190000I175000J0D01*
G01*
X103325000Y-102190000D01*
G75*
G02*
X103500000Y-102365000I0J-175000D01*
G01*
G37*
G36*
G01*
X103500000Y-101095000D02*
X103500000Y-101445000D01*
G75*
G02*
X103325000Y-101620000I-175000J0D01*
G01*
X101625000Y-101620000D01*
G75*
G02*
X101450000Y-101445000I0J175000D01*
G01*
X101450000Y-101095000D01*
G75*
G02*
X101625000Y-100920000I175000J0D01*
G01*
X103325000Y-100920000D01*
G75*
G02*
X103500000Y-101095000I0J-175000D01*
G01*
G37*
G36*
G01*
X103500000Y-99825000D02*
X103500000Y-100175000D01*
G75*
G02*
X103325000Y-100350000I-175000J0D01*
G01*
X101625000Y-100350000D01*
G75*
G02*
X101450000Y-100175000I0J175000D01*
G01*
X101450000Y-99825000D01*
G75*
G02*
X101625000Y-99650000I175000J0D01*
G01*
X103325000Y-99650000D01*
G75*
G02*
X103500000Y-99825000I0J-175000D01*
G01*
G37*
G36*
G01*
X103500000Y-98555000D02*
X103500000Y-98905000D01*
G75*
G02*
X103325000Y-99080000I-175000J0D01*
G01*
X101625000Y-99080000D01*
G75*
G02*
X101450000Y-98905000I0J175000D01*
G01*
X101450000Y-98555000D01*
G75*
G02*
X101625000Y-98380000I175000J0D01*
G01*
X103325000Y-98380000D01*
G75*
G02*
X103500000Y-98555000I0J-175000D01*
G01*
G37*
G36*
G01*
X103500000Y-97285000D02*
X103500000Y-97635000D01*
G75*
G02*
X103325000Y-97810000I-175000J0D01*
G01*
X101625000Y-97810000D01*
G75*
G02*
X101450000Y-97635000I0J175000D01*
G01*
X101450000Y-97285000D01*
G75*
G02*
X101625000Y-97110000I175000J0D01*
G01*
X103325000Y-97110000D01*
G75*
G02*
X103500000Y-97285000I0J-175000D01*
G01*
G37*
G36*
G01*
X103500000Y-96015000D02*
X103500000Y-96365000D01*
G75*
G02*
X103325000Y-96540000I-175000J0D01*
G01*
X101625000Y-96540000D01*
G75*
G02*
X101450000Y-96365000I0J175000D01*
G01*
X101450000Y-96015000D01*
G75*
G02*
X101625000Y-95840000I175000J0D01*
G01*
X103325000Y-95840000D01*
G75*
G02*
X103500000Y-96015000I0J-175000D01*
G01*
G37*
%TD*%
M02*
