%TF.GenerationSoftware,KiCad,Pcbnew,5.1.7-a382d34a8~88~ubuntu18.04.1*%
%TF.CreationDate,2022-04-19T18:24:53-07:00*%
%TF.ProjectId,cv-extractor,63762d65-7874-4726-9163-746f722e6b69,rev?*%
%TF.SameCoordinates,Original*%
%TF.FileFunction,Legend,Bot*%
%TF.FilePolarity,Positive*%
%FSLAX46Y46*%
G04 Gerber Fmt 4.6, Leading zero omitted, Abs format (unit mm)*
G04 Created by KiCad (PCBNEW 5.1.7-a382d34a8~88~ubuntu18.04.1) date 2022-04-19 18:24:53*
%MOMM*%
%LPD*%
G01*
G04 APERTURE LIST*
%ADD10C,0.300000*%
%ADD11C,0.120000*%
%ADD12C,0.100000*%
%ADD13C,0.152400*%
%ADD14C,0.150000*%
%ADD15C,0.060000*%
G04 APERTURE END LIST*
D10*
X109285714Y-25678571D02*
X109357142Y-25607142D01*
X109428571Y-25392857D01*
X109428571Y-25250000D01*
X109357142Y-25035714D01*
X109214285Y-24892857D01*
X109071428Y-24821428D01*
X108785714Y-24750000D01*
X108571428Y-24750000D01*
X108285714Y-24821428D01*
X108142857Y-24892857D01*
X108000000Y-25035714D01*
X107928571Y-25250000D01*
X107928571Y-25392857D01*
X108000000Y-25607142D01*
X108071428Y-25678571D01*
X107928571Y-26107142D02*
X109428571Y-26607142D01*
X107928571Y-27107142D01*
X108642857Y-28750000D02*
X108642857Y-29250000D01*
X109428571Y-29464285D02*
X109428571Y-28750000D01*
X107928571Y-28750000D01*
X107928571Y-29464285D01*
X109428571Y-29964285D02*
X108428571Y-30750000D01*
X108428571Y-29964285D02*
X109428571Y-30750000D01*
X108428571Y-31107142D02*
X108428571Y-31678571D01*
X107928571Y-31321428D02*
X109214285Y-31321428D01*
X109357142Y-31392857D01*
X109428571Y-31535714D01*
X109428571Y-31678571D01*
X109428571Y-32178571D02*
X108428571Y-32178571D01*
X108714285Y-32178571D02*
X108571428Y-32250000D01*
X108500000Y-32321428D01*
X108428571Y-32464285D01*
X108428571Y-32607142D01*
X109428571Y-33750000D02*
X108642857Y-33750000D01*
X108500000Y-33678571D01*
X108428571Y-33535714D01*
X108428571Y-33250000D01*
X108500000Y-33107142D01*
X109357142Y-33750000D02*
X109428571Y-33607142D01*
X109428571Y-33250000D01*
X109357142Y-33107142D01*
X109214285Y-33035714D01*
X109071428Y-33035714D01*
X108928571Y-33107142D01*
X108857142Y-33250000D01*
X108857142Y-33607142D01*
X108785714Y-33750000D01*
X109357142Y-35107142D02*
X109428571Y-34964285D01*
X109428571Y-34678571D01*
X109357142Y-34535714D01*
X109285714Y-34464285D01*
X109142857Y-34392857D01*
X108714285Y-34392857D01*
X108571428Y-34464285D01*
X108500000Y-34535714D01*
X108428571Y-34678571D01*
X108428571Y-34964285D01*
X108500000Y-35107142D01*
X108428571Y-35535714D02*
X108428571Y-36107142D01*
X107928571Y-35750000D02*
X109214285Y-35750000D01*
X109357142Y-35821428D01*
X109428571Y-35964285D01*
X109428571Y-36107142D01*
X109428571Y-36821428D02*
X109357142Y-36678571D01*
X109285714Y-36607142D01*
X109142857Y-36535714D01*
X108714285Y-36535714D01*
X108571428Y-36607142D01*
X108500000Y-36678571D01*
X108428571Y-36821428D01*
X108428571Y-37035714D01*
X108500000Y-37178571D01*
X108571428Y-37250000D01*
X108714285Y-37321428D01*
X109142857Y-37321428D01*
X109285714Y-37250000D01*
X109357142Y-37178571D01*
X109428571Y-37035714D01*
X109428571Y-36821428D01*
X109428571Y-37964285D02*
X108428571Y-37964285D01*
X108714285Y-37964285D02*
X108571428Y-38035714D01*
X108500000Y-38107142D01*
X108428571Y-38250000D01*
X108428571Y-38392857D01*
X110478571Y-22142857D02*
X111978571Y-22642857D01*
X110478571Y-23142857D01*
X110978571Y-24285714D02*
X111978571Y-24285714D01*
X110407142Y-23928571D02*
X111478571Y-23571428D01*
X111478571Y-24500000D01*
X110621428Y-26142857D02*
X110550000Y-26214285D01*
X110478571Y-26357142D01*
X110478571Y-26714285D01*
X110550000Y-26857142D01*
X110621428Y-26928571D01*
X110764285Y-27000000D01*
X110907142Y-27000000D01*
X111121428Y-26928571D01*
X111978571Y-26071428D01*
X111978571Y-27000000D01*
X110478571Y-27928571D02*
X110478571Y-28071428D01*
X110550000Y-28214285D01*
X110621428Y-28285714D01*
X110764285Y-28357142D01*
X111050000Y-28428571D01*
X111407142Y-28428571D01*
X111692857Y-28357142D01*
X111835714Y-28285714D01*
X111907142Y-28214285D01*
X111978571Y-28071428D01*
X111978571Y-27928571D01*
X111907142Y-27785714D01*
X111835714Y-27714285D01*
X111692857Y-27642857D01*
X111407142Y-27571428D01*
X111050000Y-27571428D01*
X110764285Y-27642857D01*
X110621428Y-27714285D01*
X110550000Y-27785714D01*
X110478571Y-27928571D01*
X110621428Y-29000000D02*
X110550000Y-29071428D01*
X110478571Y-29214285D01*
X110478571Y-29571428D01*
X110550000Y-29714285D01*
X110621428Y-29785714D01*
X110764285Y-29857142D01*
X110907142Y-29857142D01*
X111121428Y-29785714D01*
X111978571Y-28928571D01*
X111978571Y-29857142D01*
X110621428Y-30428571D02*
X110550000Y-30500000D01*
X110478571Y-30642857D01*
X110478571Y-31000000D01*
X110550000Y-31142857D01*
X110621428Y-31214285D01*
X110764285Y-31285714D01*
X110907142Y-31285714D01*
X111121428Y-31214285D01*
X111978571Y-30357142D01*
X111978571Y-31285714D01*
X111407142Y-31928571D02*
X111407142Y-33071428D01*
X110478571Y-34071428D02*
X110478571Y-34214285D01*
X110550000Y-34357142D01*
X110621428Y-34428571D01*
X110764285Y-34500000D01*
X111050000Y-34571428D01*
X111407142Y-34571428D01*
X111692857Y-34500000D01*
X111835714Y-34428571D01*
X111907142Y-34357142D01*
X111978571Y-34214285D01*
X111978571Y-34071428D01*
X111907142Y-33928571D01*
X111835714Y-33857142D01*
X111692857Y-33785714D01*
X111407142Y-33714285D01*
X111050000Y-33714285D01*
X110764285Y-33785714D01*
X110621428Y-33857142D01*
X110550000Y-33928571D01*
X110478571Y-34071428D01*
X110978571Y-35857142D02*
X111978571Y-35857142D01*
X110407142Y-35500000D02*
X111478571Y-35142857D01*
X111478571Y-36071428D01*
X111407142Y-36642857D02*
X111407142Y-37785714D01*
X110621428Y-38428571D02*
X110550000Y-38500000D01*
X110478571Y-38642857D01*
X110478571Y-39000000D01*
X110550000Y-39142857D01*
X110621428Y-39214285D01*
X110764285Y-39285714D01*
X110907142Y-39285714D01*
X111121428Y-39214285D01*
X111978571Y-38357142D01*
X111978571Y-39285714D01*
X110478571Y-40214285D02*
X110478571Y-40357142D01*
X110550000Y-40500000D01*
X110621428Y-40571428D01*
X110764285Y-40642857D01*
X111050000Y-40714285D01*
X111407142Y-40714285D01*
X111692857Y-40642857D01*
X111835714Y-40571428D01*
X111907142Y-40500000D01*
X111978571Y-40357142D01*
X111978571Y-40214285D01*
X111907142Y-40071428D01*
X111835714Y-40000000D01*
X111692857Y-39928571D01*
X111407142Y-39857142D01*
X111050000Y-39857142D01*
X110764285Y-39928571D01*
X110621428Y-40000000D01*
X110550000Y-40071428D01*
X110478571Y-40214285D01*
X114528571Y-24321428D02*
X113028571Y-24321428D01*
X114528571Y-25178571D02*
X113671428Y-24535714D01*
X113028571Y-25178571D02*
X113885714Y-24321428D01*
X113528571Y-25821428D02*
X114528571Y-25821428D01*
X113671428Y-25821428D02*
X113600000Y-25892857D01*
X113528571Y-26035714D01*
X113528571Y-26250000D01*
X113600000Y-26392857D01*
X113742857Y-26464285D01*
X114528571Y-26464285D01*
X114528571Y-27392857D02*
X114457142Y-27250000D01*
X114385714Y-27178571D01*
X114242857Y-27107142D01*
X113814285Y-27107142D01*
X113671428Y-27178571D01*
X113600000Y-27250000D01*
X113528571Y-27392857D01*
X113528571Y-27607142D01*
X113600000Y-27750000D01*
X113671428Y-27821428D01*
X113814285Y-27892857D01*
X114242857Y-27892857D01*
X114385714Y-27821428D01*
X114457142Y-27750000D01*
X114528571Y-27607142D01*
X114528571Y-27392857D01*
X114528571Y-28535714D02*
X113028571Y-28535714D01*
X113600000Y-28535714D02*
X113528571Y-28678571D01*
X113528571Y-28964285D01*
X113600000Y-29107142D01*
X113671428Y-29178571D01*
X113814285Y-29250000D01*
X114242857Y-29250000D01*
X114385714Y-29178571D01*
X114457142Y-29107142D01*
X114528571Y-28964285D01*
X114528571Y-28678571D01*
X114457142Y-28535714D01*
X113742857Y-31535714D02*
X113742857Y-31035714D01*
X114528571Y-31035714D02*
X113028571Y-31035714D01*
X113028571Y-31750000D01*
X114528571Y-32535714D02*
X114457142Y-32392857D01*
X114385714Y-32321428D01*
X114242857Y-32250000D01*
X113814285Y-32250000D01*
X113671428Y-32321428D01*
X113600000Y-32392857D01*
X113528571Y-32535714D01*
X113528571Y-32750000D01*
X113600000Y-32892857D01*
X113671428Y-32964285D01*
X113814285Y-33035714D01*
X114242857Y-33035714D01*
X114385714Y-32964285D01*
X114457142Y-32892857D01*
X114528571Y-32750000D01*
X114528571Y-32535714D01*
X113528571Y-33678571D02*
X114528571Y-33678571D01*
X113671428Y-33678571D02*
X113600000Y-33750000D01*
X113528571Y-33892857D01*
X113528571Y-34107142D01*
X113600000Y-34250000D01*
X113742857Y-34321428D01*
X114528571Y-34321428D01*
X114528571Y-35678571D02*
X113028571Y-35678571D01*
X114457142Y-35678571D02*
X114528571Y-35535714D01*
X114528571Y-35250000D01*
X114457142Y-35107142D01*
X114385714Y-35035714D01*
X114242857Y-34964285D01*
X113814285Y-34964285D01*
X113671428Y-35035714D01*
X113600000Y-35107142D01*
X113528571Y-35250000D01*
X113528571Y-35535714D01*
X113600000Y-35678571D01*
X114528571Y-36607142D02*
X114457142Y-36464285D01*
X114314285Y-36392857D01*
X113028571Y-36392857D01*
X114457142Y-37750000D02*
X114528571Y-37607142D01*
X114528571Y-37321428D01*
X114457142Y-37178571D01*
X114314285Y-37107142D01*
X113742857Y-37107142D01*
X113600000Y-37178571D01*
X113528571Y-37321428D01*
X113528571Y-37607142D01*
X113600000Y-37750000D01*
X113742857Y-37821428D01*
X113885714Y-37821428D01*
X114028571Y-37107142D01*
X114528571Y-38464285D02*
X113528571Y-38464285D01*
X113814285Y-38464285D02*
X113671428Y-38535714D01*
X113600000Y-38607142D01*
X113528571Y-38750000D01*
X113528571Y-38892857D01*
D11*
%TO.C,D1*%
X102650000Y-85475000D02*
X102650000Y-83775000D01*
D12*
X104350000Y-84625000D02*
X104600000Y-84625000D01*
X104350000Y-84275000D02*
X103850000Y-84625000D01*
X104350000Y-84975000D02*
X104350000Y-84275000D01*
X103850000Y-84625000D02*
X104350000Y-84975000D01*
X103850000Y-84625000D02*
X103650000Y-84625000D01*
X103850000Y-84975000D02*
X103850000Y-84275000D01*
X103250000Y-83925000D02*
X103250000Y-85325000D01*
X105050000Y-83925000D02*
X103250000Y-83925000D01*
X105050000Y-85325000D02*
X105050000Y-83925000D01*
X103250000Y-85325000D02*
X105050000Y-85325000D01*
D11*
X102650000Y-83775000D02*
X105200000Y-83775000D01*
X102650000Y-85475000D02*
X105200000Y-85475000D01*
%TO.C,D2*%
X105975000Y-85450000D02*
X105975000Y-83750000D01*
D12*
X107675000Y-84600000D02*
X107925000Y-84600000D01*
X107675000Y-84250000D02*
X107175000Y-84600000D01*
X107675000Y-84950000D02*
X107675000Y-84250000D01*
X107175000Y-84600000D02*
X107675000Y-84950000D01*
X107175000Y-84600000D02*
X106975000Y-84600000D01*
X107175000Y-84950000D02*
X107175000Y-84250000D01*
X106575000Y-83900000D02*
X106575000Y-85300000D01*
X108375000Y-83900000D02*
X106575000Y-83900000D01*
X108375000Y-85300000D02*
X108375000Y-83900000D01*
X106575000Y-85300000D02*
X108375000Y-85300000D01*
D11*
X105975000Y-83750000D02*
X108525000Y-83750000D01*
X105975000Y-85450000D02*
X108525000Y-85450000D01*
%TO.C,TP4*%
X86200000Y-38600000D02*
X86200000Y-40800000D01*
X90800000Y-38600000D02*
X86200000Y-38600000D01*
X90800000Y-40800000D02*
X90800000Y-38600000D01*
X86200000Y-40800000D02*
X90800000Y-40800000D01*
%TO.C,TP2*%
X86200000Y-53700000D02*
X86200000Y-55900000D01*
X90800000Y-53700000D02*
X86200000Y-53700000D01*
X90800000Y-55900000D02*
X90800000Y-53700000D01*
X86200000Y-55900000D02*
X90800000Y-55900000D01*
%TO.C,TP3*%
X86200000Y-50700000D02*
X86200000Y-52900000D01*
X90800000Y-50700000D02*
X86200000Y-50700000D01*
X90800000Y-52900000D02*
X90800000Y-50700000D01*
X86200000Y-52900000D02*
X90800000Y-52900000D01*
%TO.C,TP1*%
X86200000Y-45600000D02*
X86200000Y-47800000D01*
X90800000Y-45600000D02*
X86200000Y-45600000D01*
X90800000Y-47800000D02*
X90800000Y-45600000D01*
X86200000Y-47800000D02*
X90800000Y-47800000D01*
D12*
%TO.C,C6*%
X101125000Y-73500000D02*
X101125000Y-72700000D01*
X101125000Y-72700000D02*
X99525000Y-72700000D01*
X99525000Y-72700000D02*
X99525000Y-73500000D01*
X99525000Y-73500000D02*
X101125000Y-73500000D01*
D11*
X100465580Y-72590000D02*
X100184420Y-72590000D01*
X100465580Y-73610000D02*
X100184420Y-73610000D01*
D12*
%TO.C,C1*%
X105100000Y-78300000D02*
X105100000Y-79100000D01*
X105100000Y-79100000D02*
X106700000Y-79100000D01*
X106700000Y-79100000D02*
X106700000Y-78300000D01*
X106700000Y-78300000D02*
X105100000Y-78300000D01*
D11*
X105759420Y-79210000D02*
X106040580Y-79210000D01*
X105759420Y-78190000D02*
X106040580Y-78190000D01*
D12*
%TO.C,C8*%
X97025000Y-96725000D02*
G75*
G03*
X97025000Y-96725000I-3150000J0D01*
G01*
X97175000Y-100025000D02*
X97175000Y-93425000D01*
X91575000Y-100025000D02*
X97175000Y-100025000D01*
X91575000Y-93425000D02*
X97175000Y-93425000D01*
X90575000Y-99025000D02*
X90575000Y-94425000D01*
X90575000Y-99025000D02*
X91575000Y-100025000D01*
X90575000Y-94425000D02*
X91575000Y-93425000D01*
X91170162Y-98055000D02*
X91800162Y-98055000D01*
X91485162Y-98370000D02*
X91485162Y-97740000D01*
D11*
X97285000Y-93315000D02*
X97285000Y-95665000D01*
X97285000Y-100135000D02*
X97285000Y-97785000D01*
X91529437Y-100135000D02*
X97285000Y-100135000D01*
X91529437Y-93315000D02*
X97285000Y-93315000D01*
X90465000Y-94379437D02*
X90465000Y-95665000D01*
X90465000Y-99070563D02*
X90465000Y-97785000D01*
X90465000Y-99070563D02*
X91529437Y-100135000D01*
X90465000Y-94379437D02*
X91529437Y-93315000D01*
X89437500Y-98572500D02*
X90225000Y-98572500D01*
X89831250Y-98966250D02*
X89831250Y-98178750D01*
D12*
%TO.C,C9*%
X101575000Y-85225000D02*
X101575000Y-84425000D01*
X101575000Y-84425000D02*
X99975000Y-84425000D01*
X99975000Y-84425000D02*
X99975000Y-85225000D01*
X99975000Y-85225000D02*
X101575000Y-85225000D01*
D11*
X100915580Y-84315000D02*
X100634420Y-84315000D01*
X100915580Y-85335000D02*
X100634420Y-85335000D01*
D12*
%TO.C,C10*%
X100700000Y-93525000D02*
X100700000Y-94325000D01*
X100700000Y-94325000D02*
X102300000Y-94325000D01*
X102300000Y-94325000D02*
X102300000Y-93525000D01*
X102300000Y-93525000D02*
X100700000Y-93525000D01*
D11*
X101359420Y-94435000D02*
X101640580Y-94435000D01*
X101359420Y-93415000D02*
X101640580Y-93415000D01*
%TO.C,J3*%
X95936000Y-112460000D02*
X95682000Y-112460000D01*
X95936000Y-117286000D02*
X95936000Y-112460000D01*
X93904000Y-117286000D02*
X95936000Y-117286000D01*
X93904000Y-112460000D02*
X93904000Y-117286000D01*
X95682000Y-112460000D02*
X93904000Y-112460000D01*
X99238000Y-111698000D02*
X99238000Y-110428000D01*
X101016000Y-111698000D02*
X99238000Y-111698000D01*
X101016000Y-110428000D02*
X101016000Y-111698000D01*
X99238000Y-111698000D02*
X99238000Y-110428000D01*
X101016000Y-111698000D02*
X99238000Y-111698000D01*
X101016000Y-110428000D02*
X101016000Y-111698000D01*
D13*
X94920000Y-110326400D02*
X95555000Y-109056400D01*
X95555000Y-109056400D02*
X94285000Y-109056400D01*
X94285000Y-109056400D02*
X94920000Y-110326400D01*
X94920000Y-110326400D02*
X95555000Y-109056400D01*
X95555000Y-109056400D02*
X94285000Y-109056400D01*
X94285000Y-109056400D02*
X94920000Y-110326400D01*
X110312400Y-119546600D02*
X89687600Y-119546600D01*
X89687600Y-119546600D02*
X89687600Y-110453400D01*
X89687600Y-110453400D02*
X110312400Y-110453400D01*
X110312400Y-110453400D02*
X110312400Y-119546600D01*
X110185400Y-119419600D02*
X89814600Y-119419600D01*
X89814600Y-119419600D02*
X89814600Y-110580400D01*
X89814600Y-110580400D02*
X110185400Y-110580400D01*
X110185400Y-110580400D02*
X110185400Y-119419600D01*
D12*
%TO.C,R1*%
X111450000Y-86337500D02*
X111450000Y-87162500D01*
X111450000Y-87162500D02*
X113050000Y-87162500D01*
X113050000Y-87162500D02*
X113050000Y-86337500D01*
X113050000Y-86337500D02*
X111450000Y-86337500D01*
D11*
X112012742Y-87272500D02*
X112487258Y-87272500D01*
X112012742Y-86227500D02*
X112487258Y-86227500D01*
D12*
%TO.C,R2*%
X113050000Y-88912500D02*
X113050000Y-88087500D01*
X113050000Y-88087500D02*
X111450000Y-88087500D01*
X111450000Y-88087500D02*
X111450000Y-88912500D01*
X111450000Y-88912500D02*
X113050000Y-88912500D01*
D11*
X112487258Y-87977500D02*
X112012742Y-87977500D01*
X112487258Y-89022500D02*
X112012742Y-89022500D01*
D12*
%TO.C,R3*%
X113050000Y-90662500D02*
X113050000Y-89837500D01*
X113050000Y-89837500D02*
X111450000Y-89837500D01*
X111450000Y-89837500D02*
X111450000Y-90662500D01*
X111450000Y-90662500D02*
X113050000Y-90662500D01*
D11*
X112487258Y-89727500D02*
X112012742Y-89727500D01*
X112487258Y-90772500D02*
X112012742Y-90772500D01*
D12*
%TO.C,R4*%
X113050000Y-92412500D02*
X113050000Y-91587500D01*
X113050000Y-91587500D02*
X111450000Y-91587500D01*
X111450000Y-91587500D02*
X111450000Y-92412500D01*
X111450000Y-92412500D02*
X113050000Y-92412500D01*
D11*
X112487258Y-91477500D02*
X112012742Y-91477500D01*
X112487258Y-92522500D02*
X112012742Y-92522500D01*
D12*
%TO.C,R5*%
X113050000Y-94162500D02*
X113050000Y-93337500D01*
X113050000Y-93337500D02*
X111450000Y-93337500D01*
X111450000Y-93337500D02*
X111450000Y-94162500D01*
X111450000Y-94162500D02*
X113050000Y-94162500D01*
D11*
X112487258Y-93227500D02*
X112012742Y-93227500D01*
X112487258Y-94272500D02*
X112012742Y-94272500D01*
D12*
%TO.C,R6*%
X111450000Y-95087500D02*
X111450000Y-95912500D01*
X111450000Y-95912500D02*
X113050000Y-95912500D01*
X113050000Y-95912500D02*
X113050000Y-95087500D01*
X113050000Y-95087500D02*
X111450000Y-95087500D01*
D11*
X112012742Y-96022500D02*
X112487258Y-96022500D01*
X112012742Y-94977500D02*
X112487258Y-94977500D01*
D12*
%TO.C,R7*%
X99575000Y-76037500D02*
X99575000Y-76862500D01*
X99575000Y-76862500D02*
X101175000Y-76862500D01*
X101175000Y-76862500D02*
X101175000Y-76037500D01*
X101175000Y-76037500D02*
X99575000Y-76037500D01*
D11*
X100137742Y-76972500D02*
X100612258Y-76972500D01*
X100137742Y-75927500D02*
X100612258Y-75927500D01*
D12*
%TO.C,R8*%
X99575000Y-77612500D02*
X99575000Y-78437500D01*
X99575000Y-78437500D02*
X101175000Y-78437500D01*
X101175000Y-78437500D02*
X101175000Y-77612500D01*
X101175000Y-77612500D02*
X99575000Y-77612500D01*
D11*
X100137742Y-78547500D02*
X100612258Y-78547500D01*
X100137742Y-77502500D02*
X100612258Y-77502500D01*
%TO.C,U1*%
X104185000Y-89425000D02*
X104185000Y-91375000D01*
X104185000Y-89425000D02*
X104185000Y-87475000D01*
X95315000Y-89425000D02*
X95315000Y-91375000D01*
X95315000Y-89425000D02*
X95315000Y-85975000D01*
D12*
X95425000Y-88450000D02*
X95425000Y-91375000D01*
X95425000Y-91375000D02*
X104075000Y-91375000D01*
X104075000Y-91375000D02*
X104075000Y-87475000D01*
X104075000Y-87475000D02*
X96400000Y-87475000D01*
X96400000Y-87475000D02*
X95425000Y-88450000D01*
%TO.C,C5*%
X101125000Y-75175000D02*
X101125000Y-74375000D01*
X101125000Y-74375000D02*
X99525000Y-74375000D01*
X99525000Y-74375000D02*
X99525000Y-75175000D01*
X99525000Y-75175000D02*
X101125000Y-75175000D01*
D11*
X100465580Y-74265000D02*
X100184420Y-74265000D01*
X100465580Y-75285000D02*
X100184420Y-75285000D01*
%TO.C,JP1*%
X105450000Y-88450000D02*
X105450000Y-89050000D01*
X107550000Y-87750000D02*
X106150000Y-87750000D01*
X108250000Y-89050000D02*
X108250000Y-88450000D01*
X106150000Y-89750000D02*
X107550000Y-89750000D01*
X105450000Y-89050000D02*
G75*
G03*
X106150000Y-89750000I700000J0D01*
G01*
X106150000Y-87750000D02*
G75*
G03*
X105450000Y-88450000I0J-700000D01*
G01*
X108250000Y-88450000D02*
G75*
G03*
X107550000Y-87750000I-700000J0D01*
G01*
X107550000Y-89750000D02*
G75*
G03*
X108250000Y-89050000I0J700000D01*
G01*
%TO.C,JP2*%
X108650000Y-76800000D02*
X108650000Y-76200000D01*
X106550000Y-77500000D02*
X107950000Y-77500000D01*
X105850000Y-76200000D02*
X105850000Y-76800000D01*
X107950000Y-75500000D02*
X106550000Y-75500000D01*
X108650000Y-76200000D02*
G75*
G03*
X107950000Y-75500000I-700000J0D01*
G01*
X107950000Y-77500000D02*
G75*
G03*
X108650000Y-76800000I0J700000D01*
G01*
X105850000Y-76800000D02*
G75*
G03*
X106550000Y-77500000I700000J0D01*
G01*
X106550000Y-75500000D02*
G75*
G03*
X105850000Y-76200000I0J-700000D01*
G01*
D12*
%TO.C,R12*%
X106075000Y-47137500D02*
X106075000Y-46312500D01*
X106075000Y-46312500D02*
X104475000Y-46312500D01*
X104475000Y-46312500D02*
X104475000Y-47137500D01*
X104475000Y-47137500D02*
X106075000Y-47137500D01*
D11*
X105512258Y-46202500D02*
X105037742Y-46202500D01*
X105512258Y-47247500D02*
X105037742Y-47247500D01*
%TO.C,R9*%
X94512742Y-61377500D02*
X94987258Y-61377500D01*
X94512742Y-62422500D02*
X94987258Y-62422500D01*
D12*
X95550000Y-61487500D02*
X93950000Y-61487500D01*
X95550000Y-62312500D02*
X95550000Y-61487500D01*
X93950000Y-62312500D02*
X95550000Y-62312500D01*
X93950000Y-61487500D02*
X93950000Y-62312500D01*
%TO.C,RD1*%
X97762500Y-23425000D02*
X96937500Y-23425000D01*
X96937500Y-23425000D02*
X96937500Y-25025000D01*
X96937500Y-25025000D02*
X97762500Y-25025000D01*
X97762500Y-25025000D02*
X97762500Y-23425000D01*
D11*
X96827500Y-23987742D02*
X96827500Y-24462258D01*
X97872500Y-23987742D02*
X97872500Y-24462258D01*
%TO.C,C7*%
X94768750Y-81608750D02*
X94768750Y-82396250D01*
X95162500Y-82002500D02*
X94375000Y-82002500D01*
X94135000Y-86195563D02*
X93070563Y-87260000D01*
X94135000Y-81504437D02*
X93070563Y-80440000D01*
X94135000Y-81504437D02*
X94135000Y-82790000D01*
X94135000Y-86195563D02*
X94135000Y-84910000D01*
X93070563Y-87260000D02*
X87315000Y-87260000D01*
X93070563Y-80440000D02*
X87315000Y-80440000D01*
X87315000Y-80440000D02*
X87315000Y-82790000D01*
X87315000Y-87260000D02*
X87315000Y-84910000D01*
D12*
X93114838Y-82205000D02*
X93114838Y-82835000D01*
X93429838Y-82520000D02*
X92799838Y-82520000D01*
X94025000Y-86150000D02*
X93025000Y-87150000D01*
X94025000Y-81550000D02*
X93025000Y-80550000D01*
X94025000Y-81550000D02*
X94025000Y-86150000D01*
X93025000Y-87150000D02*
X87425000Y-87150000D01*
X93025000Y-80550000D02*
X87425000Y-80550000D01*
X87425000Y-80550000D02*
X87425000Y-87150000D01*
X93875000Y-83850000D02*
G75*
G03*
X93875000Y-83850000I-3150000J0D01*
G01*
%TO.C,D1*%
D14*
X104888095Y-86927380D02*
X104888095Y-85927380D01*
X104650000Y-85927380D01*
X104507142Y-85975000D01*
X104411904Y-86070238D01*
X104364285Y-86165476D01*
X104316666Y-86355952D01*
X104316666Y-86498809D01*
X104364285Y-86689285D01*
X104411904Y-86784523D01*
X104507142Y-86879761D01*
X104650000Y-86927380D01*
X104888095Y-86927380D01*
X103364285Y-86927380D02*
X103935714Y-86927380D01*
X103650000Y-86927380D02*
X103650000Y-85927380D01*
X103745238Y-86070238D01*
X103840476Y-86165476D01*
X103935714Y-86213095D01*
X104888095Y-86927380D02*
X104888095Y-85927380D01*
X104650000Y-85927380D01*
X104507142Y-85975000D01*
X104411904Y-86070238D01*
X104364285Y-86165476D01*
X104316666Y-86355952D01*
X104316666Y-86498809D01*
X104364285Y-86689285D01*
X104411904Y-86784523D01*
X104507142Y-86879761D01*
X104650000Y-86927380D01*
X104888095Y-86927380D01*
X103364285Y-86927380D02*
X103935714Y-86927380D01*
X103650000Y-86927380D02*
X103650000Y-85927380D01*
X103745238Y-86070238D01*
X103840476Y-86165476D01*
X103935714Y-86213095D01*
%TO.C,D2*%
X108213095Y-86902380D02*
X108213095Y-85902380D01*
X107975000Y-85902380D01*
X107832142Y-85950000D01*
X107736904Y-86045238D01*
X107689285Y-86140476D01*
X107641666Y-86330952D01*
X107641666Y-86473809D01*
X107689285Y-86664285D01*
X107736904Y-86759523D01*
X107832142Y-86854761D01*
X107975000Y-86902380D01*
X108213095Y-86902380D01*
X107260714Y-85997619D02*
X107213095Y-85950000D01*
X107117857Y-85902380D01*
X106879761Y-85902380D01*
X106784523Y-85950000D01*
X106736904Y-85997619D01*
X106689285Y-86092857D01*
X106689285Y-86188095D01*
X106736904Y-86330952D01*
X107308333Y-86902380D01*
X106689285Y-86902380D01*
X108213095Y-86902380D02*
X108213095Y-85902380D01*
X107975000Y-85902380D01*
X107832142Y-85950000D01*
X107736904Y-86045238D01*
X107689285Y-86140476D01*
X107641666Y-86330952D01*
X107641666Y-86473809D01*
X107689285Y-86664285D01*
X107736904Y-86759523D01*
X107832142Y-86854761D01*
X107975000Y-86902380D01*
X108213095Y-86902380D01*
X107260714Y-85997619D02*
X107213095Y-85950000D01*
X107117857Y-85902380D01*
X106879761Y-85902380D01*
X106784523Y-85950000D01*
X106736904Y-85997619D01*
X106689285Y-86092857D01*
X106689285Y-86188095D01*
X106736904Y-86330952D01*
X107308333Y-86902380D01*
X106689285Y-86902380D01*
%TO.C,TP4*%
X89261904Y-36900000D02*
X89357142Y-36852380D01*
X89500000Y-36852380D01*
X89642857Y-36900000D01*
X89738095Y-36995238D01*
X89785714Y-37090476D01*
X89833333Y-37280952D01*
X89833333Y-37423809D01*
X89785714Y-37614285D01*
X89738095Y-37709523D01*
X89642857Y-37804761D01*
X89500000Y-37852380D01*
X89404761Y-37852380D01*
X89261904Y-37804761D01*
X89214285Y-37757142D01*
X89214285Y-37423809D01*
X89404761Y-37423809D01*
X88785714Y-37852380D02*
X88785714Y-36852380D01*
X88214285Y-37852380D01*
X88214285Y-36852380D01*
X87738095Y-37852380D02*
X87738095Y-36852380D01*
X87500000Y-36852380D01*
X87357142Y-36900000D01*
X87261904Y-36995238D01*
X87214285Y-37090476D01*
X87166666Y-37280952D01*
X87166666Y-37423809D01*
X87214285Y-37614285D01*
X87261904Y-37709523D01*
X87357142Y-37804761D01*
X87500000Y-37852380D01*
X87738095Y-37852380D01*
%TO.C,TP2*%
X91966666Y-53804761D02*
X91966666Y-54280952D01*
X92252380Y-53709523D02*
X91252380Y-54042857D01*
X92252380Y-54376190D01*
X92252380Y-54709523D02*
X91252380Y-54709523D01*
X91633333Y-54709523D02*
X91585714Y-54804761D01*
X91585714Y-54995238D01*
X91633333Y-55090476D01*
X91680952Y-55138095D01*
X91776190Y-55185714D01*
X92061904Y-55185714D01*
X92157142Y-55138095D01*
X92204761Y-55090476D01*
X92252380Y-54995238D01*
X92252380Y-54804761D01*
X92204761Y-54709523D01*
X92204761Y-55566666D02*
X92252380Y-55661904D01*
X92252380Y-55852380D01*
X92204761Y-55947619D01*
X92109523Y-55995238D01*
X92061904Y-55995238D01*
X91966666Y-55947619D01*
X91919047Y-55852380D01*
X91919047Y-55709523D01*
X91871428Y-55614285D01*
X91776190Y-55566666D01*
X91728571Y-55566666D01*
X91633333Y-55614285D01*
X91585714Y-55709523D01*
X91585714Y-55852380D01*
X91633333Y-55947619D01*
%TO.C,TP3*%
X90523809Y-49152380D02*
X90333333Y-49152380D01*
X90238095Y-49200000D01*
X90142857Y-49295238D01*
X90095238Y-49485714D01*
X90095238Y-49819047D01*
X90142857Y-50009523D01*
X90238095Y-50104761D01*
X90333333Y-50152380D01*
X90523809Y-50152380D01*
X90619047Y-50104761D01*
X90714285Y-50009523D01*
X90761904Y-49819047D01*
X90761904Y-49485714D01*
X90714285Y-49295238D01*
X90619047Y-49200000D01*
X90523809Y-49152380D01*
X89238095Y-49485714D02*
X89238095Y-50152380D01*
X89666666Y-49485714D02*
X89666666Y-50009523D01*
X89619047Y-50104761D01*
X89523809Y-50152380D01*
X89380952Y-50152380D01*
X89285714Y-50104761D01*
X89238095Y-50057142D01*
X88904761Y-49485714D02*
X88523809Y-49485714D01*
X88761904Y-49152380D02*
X88761904Y-50009523D01*
X88714285Y-50104761D01*
X88619047Y-50152380D01*
X88523809Y-50152380D01*
X88190476Y-49485714D02*
X88190476Y-50485714D01*
X88190476Y-49533333D02*
X88095238Y-49485714D01*
X87904761Y-49485714D01*
X87809523Y-49533333D01*
X87761904Y-49580952D01*
X87714285Y-49676190D01*
X87714285Y-49961904D01*
X87761904Y-50057142D01*
X87809523Y-50104761D01*
X87904761Y-50152380D01*
X88095238Y-50152380D01*
X88190476Y-50104761D01*
X86857142Y-49485714D02*
X86857142Y-50152380D01*
X87285714Y-49485714D02*
X87285714Y-50009523D01*
X87238095Y-50104761D01*
X87142857Y-50152380D01*
X87000000Y-50152380D01*
X86904761Y-50104761D01*
X86857142Y-50057142D01*
X86523809Y-49485714D02*
X86142857Y-49485714D01*
X86380952Y-49152380D02*
X86380952Y-50009523D01*
X86333333Y-50104761D01*
X86238095Y-50152380D01*
X86142857Y-50152380D01*
%TO.C,TP1*%
X90142857Y-44952380D02*
X90142857Y-43952380D01*
X89666666Y-44285714D02*
X89666666Y-44952380D01*
X89666666Y-44380952D02*
X89619047Y-44333333D01*
X89523809Y-44285714D01*
X89380952Y-44285714D01*
X89285714Y-44333333D01*
X89238095Y-44428571D01*
X89238095Y-44952380D01*
X88761904Y-44285714D02*
X88761904Y-45285714D01*
X88761904Y-44333333D02*
X88666666Y-44285714D01*
X88476190Y-44285714D01*
X88380952Y-44333333D01*
X88333333Y-44380952D01*
X88285714Y-44476190D01*
X88285714Y-44761904D01*
X88333333Y-44857142D01*
X88380952Y-44904761D01*
X88476190Y-44952380D01*
X88666666Y-44952380D01*
X88761904Y-44904761D01*
X87428571Y-44285714D02*
X87428571Y-44952380D01*
X87857142Y-44285714D02*
X87857142Y-44809523D01*
X87809523Y-44904761D01*
X87714285Y-44952380D01*
X87571428Y-44952380D01*
X87476190Y-44904761D01*
X87428571Y-44857142D01*
X87095238Y-44285714D02*
X86714285Y-44285714D01*
X86952380Y-43952380D02*
X86952380Y-44809523D01*
X86904761Y-44904761D01*
X86809523Y-44952380D01*
X86714285Y-44952380D01*
%TO.C,C6*%
X102966666Y-73682142D02*
X103014285Y-73729761D01*
X103157142Y-73777380D01*
X103252380Y-73777380D01*
X103395238Y-73729761D01*
X103490476Y-73634523D01*
X103538095Y-73539285D01*
X103585714Y-73348809D01*
X103585714Y-73205952D01*
X103538095Y-73015476D01*
X103490476Y-72920238D01*
X103395238Y-72825000D01*
X103252380Y-72777380D01*
X103157142Y-72777380D01*
X103014285Y-72825000D01*
X102966666Y-72872619D01*
X102109523Y-72777380D02*
X102300000Y-72777380D01*
X102395238Y-72825000D01*
X102442857Y-72872619D01*
X102538095Y-73015476D01*
X102585714Y-73205952D01*
X102585714Y-73586904D01*
X102538095Y-73682142D01*
X102490476Y-73729761D01*
X102395238Y-73777380D01*
X102204761Y-73777380D01*
X102109523Y-73729761D01*
X102061904Y-73682142D01*
X102014285Y-73586904D01*
X102014285Y-73348809D01*
X102061904Y-73253571D01*
X102109523Y-73205952D01*
X102204761Y-73158333D01*
X102395238Y-73158333D01*
X102490476Y-73205952D01*
X102538095Y-73253571D01*
X102585714Y-73348809D01*
D15*
X100391666Y-73242857D02*
X100410714Y-73261904D01*
X100467857Y-73280952D01*
X100505952Y-73280952D01*
X100563095Y-73261904D01*
X100601190Y-73223809D01*
X100620238Y-73185714D01*
X100639285Y-73109523D01*
X100639285Y-73052380D01*
X100620238Y-72976190D01*
X100601190Y-72938095D01*
X100563095Y-72900000D01*
X100505952Y-72880952D01*
X100467857Y-72880952D01*
X100410714Y-72900000D01*
X100391666Y-72919047D01*
X100048809Y-72880952D02*
X100125000Y-72880952D01*
X100163095Y-72900000D01*
X100182142Y-72919047D01*
X100220238Y-72976190D01*
X100239285Y-73052380D01*
X100239285Y-73204761D01*
X100220238Y-73242857D01*
X100201190Y-73261904D01*
X100163095Y-73280952D01*
X100086904Y-73280952D01*
X100048809Y-73261904D01*
X100029761Y-73242857D01*
X100010714Y-73204761D01*
X100010714Y-73109523D01*
X100029761Y-73071428D01*
X100048809Y-73052380D01*
X100086904Y-73033333D01*
X100163095Y-73033333D01*
X100201190Y-73052380D01*
X100220238Y-73071428D01*
X100239285Y-73109523D01*
%TO.C,C1*%
D14*
X109266666Y-79057142D02*
X109314285Y-79104761D01*
X109457142Y-79152380D01*
X109552380Y-79152380D01*
X109695238Y-79104761D01*
X109790476Y-79009523D01*
X109838095Y-78914285D01*
X109885714Y-78723809D01*
X109885714Y-78580952D01*
X109838095Y-78390476D01*
X109790476Y-78295238D01*
X109695238Y-78200000D01*
X109552380Y-78152380D01*
X109457142Y-78152380D01*
X109314285Y-78200000D01*
X109266666Y-78247619D01*
X108314285Y-79152380D02*
X108885714Y-79152380D01*
X108600000Y-79152380D02*
X108600000Y-78152380D01*
X108695238Y-78295238D01*
X108790476Y-78390476D01*
X108885714Y-78438095D01*
D15*
X105966666Y-78842857D02*
X105985714Y-78861904D01*
X106042857Y-78880952D01*
X106080952Y-78880952D01*
X106138095Y-78861904D01*
X106176190Y-78823809D01*
X106195238Y-78785714D01*
X106214285Y-78709523D01*
X106214285Y-78652380D01*
X106195238Y-78576190D01*
X106176190Y-78538095D01*
X106138095Y-78500000D01*
X106080952Y-78480952D01*
X106042857Y-78480952D01*
X105985714Y-78500000D01*
X105966666Y-78519047D01*
X105585714Y-78880952D02*
X105814285Y-78880952D01*
X105700000Y-78880952D02*
X105700000Y-78480952D01*
X105738095Y-78538095D01*
X105776190Y-78576190D01*
X105814285Y-78595238D01*
%TO.C,C8*%
D14*
X94041666Y-101432142D02*
X94089285Y-101479761D01*
X94232142Y-101527380D01*
X94327380Y-101527380D01*
X94470238Y-101479761D01*
X94565476Y-101384523D01*
X94613095Y-101289285D01*
X94660714Y-101098809D01*
X94660714Y-100955952D01*
X94613095Y-100765476D01*
X94565476Y-100670238D01*
X94470238Y-100575000D01*
X94327380Y-100527380D01*
X94232142Y-100527380D01*
X94089285Y-100575000D01*
X94041666Y-100622619D01*
X93470238Y-100955952D02*
X93565476Y-100908333D01*
X93613095Y-100860714D01*
X93660714Y-100765476D01*
X93660714Y-100717857D01*
X93613095Y-100622619D01*
X93565476Y-100575000D01*
X93470238Y-100527380D01*
X93279761Y-100527380D01*
X93184523Y-100575000D01*
X93136904Y-100622619D01*
X93089285Y-100717857D01*
X93089285Y-100765476D01*
X93136904Y-100860714D01*
X93184523Y-100908333D01*
X93279761Y-100955952D01*
X93470238Y-100955952D01*
X93565476Y-101003571D01*
X93613095Y-101051190D01*
X93660714Y-101146428D01*
X93660714Y-101336904D01*
X93613095Y-101432142D01*
X93565476Y-101479761D01*
X93470238Y-101527380D01*
X93279761Y-101527380D01*
X93184523Y-101479761D01*
X93136904Y-101432142D01*
X93089285Y-101336904D01*
X93089285Y-101146428D01*
X93136904Y-101051190D01*
X93184523Y-101003571D01*
X93279761Y-100955952D01*
X94041666Y-97082142D02*
X94089285Y-97129761D01*
X94232142Y-97177380D01*
X94327380Y-97177380D01*
X94470238Y-97129761D01*
X94565476Y-97034523D01*
X94613095Y-96939285D01*
X94660714Y-96748809D01*
X94660714Y-96605952D01*
X94613095Y-96415476D01*
X94565476Y-96320238D01*
X94470238Y-96225000D01*
X94327380Y-96177380D01*
X94232142Y-96177380D01*
X94089285Y-96225000D01*
X94041666Y-96272619D01*
X93470238Y-96605952D02*
X93565476Y-96558333D01*
X93613095Y-96510714D01*
X93660714Y-96415476D01*
X93660714Y-96367857D01*
X93613095Y-96272619D01*
X93565476Y-96225000D01*
X93470238Y-96177380D01*
X93279761Y-96177380D01*
X93184523Y-96225000D01*
X93136904Y-96272619D01*
X93089285Y-96367857D01*
X93089285Y-96415476D01*
X93136904Y-96510714D01*
X93184523Y-96558333D01*
X93279761Y-96605952D01*
X93470238Y-96605952D01*
X93565476Y-96653571D01*
X93613095Y-96701190D01*
X93660714Y-96796428D01*
X93660714Y-96986904D01*
X93613095Y-97082142D01*
X93565476Y-97129761D01*
X93470238Y-97177380D01*
X93279761Y-97177380D01*
X93184523Y-97129761D01*
X93136904Y-97082142D01*
X93089285Y-96986904D01*
X93089285Y-96796428D01*
X93136904Y-96701190D01*
X93184523Y-96653571D01*
X93279761Y-96605952D01*
%TO.C,C9*%
X101091666Y-83657142D02*
X101139285Y-83704761D01*
X101282142Y-83752380D01*
X101377380Y-83752380D01*
X101520238Y-83704761D01*
X101615476Y-83609523D01*
X101663095Y-83514285D01*
X101710714Y-83323809D01*
X101710714Y-83180952D01*
X101663095Y-82990476D01*
X101615476Y-82895238D01*
X101520238Y-82800000D01*
X101377380Y-82752380D01*
X101282142Y-82752380D01*
X101139285Y-82800000D01*
X101091666Y-82847619D01*
X100615476Y-83752380D02*
X100425000Y-83752380D01*
X100329761Y-83704761D01*
X100282142Y-83657142D01*
X100186904Y-83514285D01*
X100139285Y-83323809D01*
X100139285Y-82942857D01*
X100186904Y-82847619D01*
X100234523Y-82800000D01*
X100329761Y-82752380D01*
X100520238Y-82752380D01*
X100615476Y-82800000D01*
X100663095Y-82847619D01*
X100710714Y-82942857D01*
X100710714Y-83180952D01*
X100663095Y-83276190D01*
X100615476Y-83323809D01*
X100520238Y-83371428D01*
X100329761Y-83371428D01*
X100234523Y-83323809D01*
X100186904Y-83276190D01*
X100139285Y-83180952D01*
D15*
X100841666Y-84967857D02*
X100860714Y-84986904D01*
X100917857Y-85005952D01*
X100955952Y-85005952D01*
X101013095Y-84986904D01*
X101051190Y-84948809D01*
X101070238Y-84910714D01*
X101089285Y-84834523D01*
X101089285Y-84777380D01*
X101070238Y-84701190D01*
X101051190Y-84663095D01*
X101013095Y-84625000D01*
X100955952Y-84605952D01*
X100917857Y-84605952D01*
X100860714Y-84625000D01*
X100841666Y-84644047D01*
X100651190Y-85005952D02*
X100575000Y-85005952D01*
X100536904Y-84986904D01*
X100517857Y-84967857D01*
X100479761Y-84910714D01*
X100460714Y-84834523D01*
X100460714Y-84682142D01*
X100479761Y-84644047D01*
X100498809Y-84625000D01*
X100536904Y-84605952D01*
X100613095Y-84605952D01*
X100651190Y-84625000D01*
X100670238Y-84644047D01*
X100689285Y-84682142D01*
X100689285Y-84777380D01*
X100670238Y-84815476D01*
X100651190Y-84834523D01*
X100613095Y-84853571D01*
X100536904Y-84853571D01*
X100498809Y-84834523D01*
X100479761Y-84815476D01*
X100460714Y-84777380D01*
%TO.C,C10*%
D14*
X103428857Y-95329857D02*
X103381238Y-95377476D01*
X103333619Y-95520333D01*
X103333619Y-95615571D01*
X103381238Y-95758428D01*
X103476476Y-95853666D01*
X103571714Y-95901285D01*
X103762190Y-95948904D01*
X103905047Y-95948904D01*
X104095523Y-95901285D01*
X104190761Y-95853666D01*
X104286000Y-95758428D01*
X104333619Y-95615571D01*
X104333619Y-95520333D01*
X104286000Y-95377476D01*
X104238380Y-95329857D01*
X103333619Y-94377476D02*
X103333619Y-94948904D01*
X103333619Y-94663190D02*
X104333619Y-94663190D01*
X104190761Y-94758428D01*
X104095523Y-94853666D01*
X104047904Y-94948904D01*
X104333619Y-93758428D02*
X104333619Y-93663190D01*
X104286000Y-93567952D01*
X104238380Y-93520333D01*
X104143142Y-93472714D01*
X103952666Y-93425095D01*
X103714571Y-93425095D01*
X103524095Y-93472714D01*
X103428857Y-93520333D01*
X103381238Y-93567952D01*
X103333619Y-93663190D01*
X103333619Y-93758428D01*
X103381238Y-93853666D01*
X103428857Y-93901285D01*
X103524095Y-93948904D01*
X103714571Y-93996523D01*
X103952666Y-93996523D01*
X104143142Y-93948904D01*
X104238380Y-93901285D01*
X104286000Y-93853666D01*
X104333619Y-93758428D01*
D15*
X101757142Y-94067857D02*
X101776190Y-94086904D01*
X101833333Y-94105952D01*
X101871428Y-94105952D01*
X101928571Y-94086904D01*
X101966666Y-94048809D01*
X101985714Y-94010714D01*
X102004761Y-93934523D01*
X102004761Y-93877380D01*
X101985714Y-93801190D01*
X101966666Y-93763095D01*
X101928571Y-93725000D01*
X101871428Y-93705952D01*
X101833333Y-93705952D01*
X101776190Y-93725000D01*
X101757142Y-93744047D01*
X101376190Y-94105952D02*
X101604761Y-94105952D01*
X101490476Y-94105952D02*
X101490476Y-93705952D01*
X101528571Y-93763095D01*
X101566666Y-93801190D01*
X101604761Y-93820238D01*
X101128571Y-93705952D02*
X101090476Y-93705952D01*
X101052380Y-93725000D01*
X101033333Y-93744047D01*
X101014285Y-93782142D01*
X100995238Y-93858333D01*
X100995238Y-93953571D01*
X101014285Y-94029761D01*
X101033333Y-94067857D01*
X101052380Y-94086904D01*
X101090476Y-94105952D01*
X101128571Y-94105952D01*
X101166666Y-94086904D01*
X101185714Y-94067857D01*
X101204761Y-94029761D01*
X101223809Y-93953571D01*
X101223809Y-93858333D01*
X101204761Y-93782142D01*
X101185714Y-93744047D01*
X101166666Y-93725000D01*
X101128571Y-93705952D01*
%TO.C,J3*%
D14*
X94920000Y-113182380D02*
X94920000Y-113420476D01*
X95158095Y-113325238D02*
X94920000Y-113420476D01*
X94681904Y-113325238D01*
X95062857Y-113610952D02*
X94920000Y-113420476D01*
X94777142Y-113610952D01*
X94920000Y-113182380D02*
X94920000Y-113420476D01*
X95158095Y-113325238D02*
X94920000Y-113420476D01*
X94681904Y-113325238D01*
X95062857Y-113610952D02*
X94920000Y-113420476D01*
X94777142Y-113610952D01*
%TO.C,R1*%
X109876666Y-87202380D02*
X110210000Y-86726190D01*
X110448095Y-87202380D02*
X110448095Y-86202380D01*
X110067142Y-86202380D01*
X109971904Y-86250000D01*
X109924285Y-86297619D01*
X109876666Y-86392857D01*
X109876666Y-86535714D01*
X109924285Y-86630952D01*
X109971904Y-86678571D01*
X110067142Y-86726190D01*
X110448095Y-86726190D01*
X108924285Y-87202380D02*
X109495714Y-87202380D01*
X109210000Y-87202380D02*
X109210000Y-86202380D01*
X109305238Y-86345238D01*
X109400476Y-86440476D01*
X109495714Y-86488095D01*
D15*
X112316666Y-86930952D02*
X112450000Y-86740476D01*
X112545238Y-86930952D02*
X112545238Y-86530952D01*
X112392857Y-86530952D01*
X112354761Y-86550000D01*
X112335714Y-86569047D01*
X112316666Y-86607142D01*
X112316666Y-86664285D01*
X112335714Y-86702380D01*
X112354761Y-86721428D01*
X112392857Y-86740476D01*
X112545238Y-86740476D01*
X111935714Y-86930952D02*
X112164285Y-86930952D01*
X112050000Y-86930952D02*
X112050000Y-86530952D01*
X112088095Y-86588095D01*
X112126190Y-86626190D01*
X112164285Y-86645238D01*
%TO.C,R2*%
D14*
X109876666Y-88952380D02*
X110210000Y-88476190D01*
X110448095Y-88952380D02*
X110448095Y-87952380D01*
X110067142Y-87952380D01*
X109971904Y-88000000D01*
X109924285Y-88047619D01*
X109876666Y-88142857D01*
X109876666Y-88285714D01*
X109924285Y-88380952D01*
X109971904Y-88428571D01*
X110067142Y-88476190D01*
X110448095Y-88476190D01*
X109495714Y-88047619D02*
X109448095Y-88000000D01*
X109352857Y-87952380D01*
X109114761Y-87952380D01*
X109019523Y-88000000D01*
X108971904Y-88047619D01*
X108924285Y-88142857D01*
X108924285Y-88238095D01*
X108971904Y-88380952D01*
X109543333Y-88952380D01*
X108924285Y-88952380D01*
D15*
X112316666Y-88680952D02*
X112450000Y-88490476D01*
X112545238Y-88680952D02*
X112545238Y-88280952D01*
X112392857Y-88280952D01*
X112354761Y-88300000D01*
X112335714Y-88319047D01*
X112316666Y-88357142D01*
X112316666Y-88414285D01*
X112335714Y-88452380D01*
X112354761Y-88471428D01*
X112392857Y-88490476D01*
X112545238Y-88490476D01*
X112164285Y-88319047D02*
X112145238Y-88300000D01*
X112107142Y-88280952D01*
X112011904Y-88280952D01*
X111973809Y-88300000D01*
X111954761Y-88319047D01*
X111935714Y-88357142D01*
X111935714Y-88395238D01*
X111954761Y-88452380D01*
X112183333Y-88680952D01*
X111935714Y-88680952D01*
%TO.C,R3*%
D14*
X109622666Y-90702380D02*
X109956000Y-90226190D01*
X110194095Y-90702380D02*
X110194095Y-89702380D01*
X109813142Y-89702380D01*
X109717904Y-89750000D01*
X109670285Y-89797619D01*
X109622666Y-89892857D01*
X109622666Y-90035714D01*
X109670285Y-90130952D01*
X109717904Y-90178571D01*
X109813142Y-90226190D01*
X110194095Y-90226190D01*
X109289333Y-89702380D02*
X108670285Y-89702380D01*
X109003619Y-90083333D01*
X108860761Y-90083333D01*
X108765523Y-90130952D01*
X108717904Y-90178571D01*
X108670285Y-90273809D01*
X108670285Y-90511904D01*
X108717904Y-90607142D01*
X108765523Y-90654761D01*
X108860761Y-90702380D01*
X109146476Y-90702380D01*
X109241714Y-90654761D01*
X109289333Y-90607142D01*
D15*
X112316666Y-90430952D02*
X112450000Y-90240476D01*
X112545238Y-90430952D02*
X112545238Y-90030952D01*
X112392857Y-90030952D01*
X112354761Y-90050000D01*
X112335714Y-90069047D01*
X112316666Y-90107142D01*
X112316666Y-90164285D01*
X112335714Y-90202380D01*
X112354761Y-90221428D01*
X112392857Y-90240476D01*
X112545238Y-90240476D01*
X112183333Y-90030952D02*
X111935714Y-90030952D01*
X112069047Y-90183333D01*
X112011904Y-90183333D01*
X111973809Y-90202380D01*
X111954761Y-90221428D01*
X111935714Y-90259523D01*
X111935714Y-90354761D01*
X111954761Y-90392857D01*
X111973809Y-90411904D01*
X112011904Y-90430952D01*
X112126190Y-90430952D01*
X112164285Y-90411904D01*
X112183333Y-90392857D01*
%TO.C,R4*%
D14*
X109622666Y-92452380D02*
X109956000Y-91976190D01*
X110194095Y-92452380D02*
X110194095Y-91452380D01*
X109813142Y-91452380D01*
X109717904Y-91500000D01*
X109670285Y-91547619D01*
X109622666Y-91642857D01*
X109622666Y-91785714D01*
X109670285Y-91880952D01*
X109717904Y-91928571D01*
X109813142Y-91976190D01*
X110194095Y-91976190D01*
X108765523Y-91785714D02*
X108765523Y-92452380D01*
X109003619Y-91404761D02*
X109241714Y-92119047D01*
X108622666Y-92119047D01*
D15*
X112316666Y-92180952D02*
X112450000Y-91990476D01*
X112545238Y-92180952D02*
X112545238Y-91780952D01*
X112392857Y-91780952D01*
X112354761Y-91800000D01*
X112335714Y-91819047D01*
X112316666Y-91857142D01*
X112316666Y-91914285D01*
X112335714Y-91952380D01*
X112354761Y-91971428D01*
X112392857Y-91990476D01*
X112545238Y-91990476D01*
X111973809Y-91914285D02*
X111973809Y-92180952D01*
X112069047Y-91761904D02*
X112164285Y-92047619D01*
X111916666Y-92047619D01*
%TO.C,R5*%
D14*
X109739667Y-94275379D02*
X110073001Y-93799189D01*
X110311096Y-94275379D02*
X110311096Y-93275379D01*
X109930143Y-93275379D01*
X109834905Y-93322999D01*
X109787286Y-93370618D01*
X109739667Y-93465856D01*
X109739667Y-93608713D01*
X109787286Y-93703951D01*
X109834905Y-93751570D01*
X109930143Y-93799189D01*
X110311096Y-93799189D01*
X108834905Y-93275379D02*
X109311096Y-93275379D01*
X109358715Y-93751570D01*
X109311096Y-93703951D01*
X109215858Y-93656332D01*
X108977762Y-93656332D01*
X108882524Y-93703951D01*
X108834905Y-93751570D01*
X108787286Y-93846808D01*
X108787286Y-94084903D01*
X108834905Y-94180141D01*
X108882524Y-94227760D01*
X108977762Y-94275379D01*
X109215858Y-94275379D01*
X109311096Y-94227760D01*
X109358715Y-94180141D01*
D15*
X112316666Y-93930952D02*
X112450000Y-93740476D01*
X112545238Y-93930952D02*
X112545238Y-93530952D01*
X112392857Y-93530952D01*
X112354761Y-93550000D01*
X112335714Y-93569047D01*
X112316666Y-93607142D01*
X112316666Y-93664285D01*
X112335714Y-93702380D01*
X112354761Y-93721428D01*
X112392857Y-93740476D01*
X112545238Y-93740476D01*
X111954761Y-93530952D02*
X112145238Y-93530952D01*
X112164285Y-93721428D01*
X112145238Y-93702380D01*
X112107142Y-93683333D01*
X112011904Y-93683333D01*
X111973809Y-93702380D01*
X111954761Y-93721428D01*
X111935714Y-93759523D01*
X111935714Y-93854761D01*
X111954761Y-93892857D01*
X111973809Y-93911904D01*
X112011904Y-93930952D01*
X112107142Y-93930952D01*
X112145238Y-93911904D01*
X112164285Y-93892857D01*
%TO.C,R6*%
D14*
X109876666Y-95952380D02*
X110210000Y-95476190D01*
X110448095Y-95952380D02*
X110448095Y-94952380D01*
X110067142Y-94952380D01*
X109971904Y-95000000D01*
X109924285Y-95047619D01*
X109876666Y-95142857D01*
X109876666Y-95285714D01*
X109924285Y-95380952D01*
X109971904Y-95428571D01*
X110067142Y-95476190D01*
X110448095Y-95476190D01*
X109019523Y-94952380D02*
X109210000Y-94952380D01*
X109305238Y-95000000D01*
X109352857Y-95047619D01*
X109448095Y-95190476D01*
X109495714Y-95380952D01*
X109495714Y-95761904D01*
X109448095Y-95857142D01*
X109400476Y-95904761D01*
X109305238Y-95952380D01*
X109114761Y-95952380D01*
X109019523Y-95904761D01*
X108971904Y-95857142D01*
X108924285Y-95761904D01*
X108924285Y-95523809D01*
X108971904Y-95428571D01*
X109019523Y-95380952D01*
X109114761Y-95333333D01*
X109305238Y-95333333D01*
X109400476Y-95380952D01*
X109448095Y-95428571D01*
X109495714Y-95523809D01*
D15*
X112316666Y-95680952D02*
X112450000Y-95490476D01*
X112545238Y-95680952D02*
X112545238Y-95280952D01*
X112392857Y-95280952D01*
X112354761Y-95300000D01*
X112335714Y-95319047D01*
X112316666Y-95357142D01*
X112316666Y-95414285D01*
X112335714Y-95452380D01*
X112354761Y-95471428D01*
X112392857Y-95490476D01*
X112545238Y-95490476D01*
X111973809Y-95280952D02*
X112050000Y-95280952D01*
X112088095Y-95300000D01*
X112107142Y-95319047D01*
X112145238Y-95376190D01*
X112164285Y-95452380D01*
X112164285Y-95604761D01*
X112145238Y-95642857D01*
X112126190Y-95661904D01*
X112088095Y-95680952D01*
X112011904Y-95680952D01*
X111973809Y-95661904D01*
X111954761Y-95642857D01*
X111935714Y-95604761D01*
X111935714Y-95509523D01*
X111954761Y-95471428D01*
X111973809Y-95452380D01*
X112011904Y-95433333D01*
X112088095Y-95433333D01*
X112126190Y-95452380D01*
X112145238Y-95471428D01*
X112164285Y-95509523D01*
%TO.C,R7*%
D14*
X103081666Y-76902380D02*
X103415000Y-76426190D01*
X103653095Y-76902380D02*
X103653095Y-75902380D01*
X103272142Y-75902380D01*
X103176904Y-75950000D01*
X103129285Y-75997619D01*
X103081666Y-76092857D01*
X103081666Y-76235714D01*
X103129285Y-76330952D01*
X103176904Y-76378571D01*
X103272142Y-76426190D01*
X103653095Y-76426190D01*
X102748333Y-75902380D02*
X102081666Y-75902380D01*
X102510238Y-76902380D01*
D15*
X100441666Y-76630952D02*
X100575000Y-76440476D01*
X100670238Y-76630952D02*
X100670238Y-76230952D01*
X100517857Y-76230952D01*
X100479761Y-76250000D01*
X100460714Y-76269047D01*
X100441666Y-76307142D01*
X100441666Y-76364285D01*
X100460714Y-76402380D01*
X100479761Y-76421428D01*
X100517857Y-76440476D01*
X100670238Y-76440476D01*
X100308333Y-76230952D02*
X100041666Y-76230952D01*
X100213095Y-76630952D01*
%TO.C,R8*%
D14*
X103081666Y-78477380D02*
X103415000Y-78001190D01*
X103653095Y-78477380D02*
X103653095Y-77477380D01*
X103272142Y-77477380D01*
X103176904Y-77525000D01*
X103129285Y-77572619D01*
X103081666Y-77667857D01*
X103081666Y-77810714D01*
X103129285Y-77905952D01*
X103176904Y-77953571D01*
X103272142Y-78001190D01*
X103653095Y-78001190D01*
X102510238Y-77905952D02*
X102605476Y-77858333D01*
X102653095Y-77810714D01*
X102700714Y-77715476D01*
X102700714Y-77667857D01*
X102653095Y-77572619D01*
X102605476Y-77525000D01*
X102510238Y-77477380D01*
X102319761Y-77477380D01*
X102224523Y-77525000D01*
X102176904Y-77572619D01*
X102129285Y-77667857D01*
X102129285Y-77715476D01*
X102176904Y-77810714D01*
X102224523Y-77858333D01*
X102319761Y-77905952D01*
X102510238Y-77905952D01*
X102605476Y-77953571D01*
X102653095Y-78001190D01*
X102700714Y-78096428D01*
X102700714Y-78286904D01*
X102653095Y-78382142D01*
X102605476Y-78429761D01*
X102510238Y-78477380D01*
X102319761Y-78477380D01*
X102224523Y-78429761D01*
X102176904Y-78382142D01*
X102129285Y-78286904D01*
X102129285Y-78096428D01*
X102176904Y-78001190D01*
X102224523Y-77953571D01*
X102319761Y-77905952D01*
D15*
X100632665Y-78140953D02*
X100765999Y-77950477D01*
X100861237Y-78140953D02*
X100861237Y-77740953D01*
X100708856Y-77740953D01*
X100670760Y-77760001D01*
X100651713Y-77779048D01*
X100632665Y-77817143D01*
X100632665Y-77874286D01*
X100651713Y-77912381D01*
X100670760Y-77931429D01*
X100708856Y-77950477D01*
X100861237Y-77950477D01*
X100404094Y-77912381D02*
X100442189Y-77893334D01*
X100461237Y-77874286D01*
X100480284Y-77836191D01*
X100480284Y-77817143D01*
X100461237Y-77779048D01*
X100442189Y-77760001D01*
X100404094Y-77740953D01*
X100327903Y-77740953D01*
X100289808Y-77760001D01*
X100270760Y-77779048D01*
X100251713Y-77817143D01*
X100251713Y-77836191D01*
X100270760Y-77874286D01*
X100289808Y-77893334D01*
X100327903Y-77912381D01*
X100404094Y-77912381D01*
X100442189Y-77931429D01*
X100461237Y-77950477D01*
X100480284Y-77988572D01*
X100480284Y-78064762D01*
X100461237Y-78102858D01*
X100442189Y-78121905D01*
X100404094Y-78140953D01*
X100327903Y-78140953D01*
X100289808Y-78121905D01*
X100270760Y-78102858D01*
X100251713Y-78064762D01*
X100251713Y-77988572D01*
X100270760Y-77950477D01*
X100289808Y-77931429D01*
X100327903Y-77912381D01*
%TO.C,U1*%
D14*
X93922380Y-88663095D02*
X94731904Y-88663095D01*
X94827142Y-88710714D01*
X94874761Y-88758333D01*
X94922380Y-88853571D01*
X94922380Y-89044047D01*
X94874761Y-89139285D01*
X94827142Y-89186904D01*
X94731904Y-89234523D01*
X93922380Y-89234523D01*
X94922380Y-90234523D02*
X94922380Y-89663095D01*
X94922380Y-89948809D02*
X93922380Y-89948809D01*
X94065238Y-89853571D01*
X94160476Y-89758333D01*
X94208095Y-89663095D01*
X99213333Y-88678333D02*
X100006666Y-88678333D01*
X100100000Y-88725000D01*
X100146666Y-88771666D01*
X100193333Y-88865000D01*
X100193333Y-89051666D01*
X100146666Y-89145000D01*
X100100000Y-89191666D01*
X100006666Y-89238333D01*
X99213333Y-89238333D01*
X100193333Y-90218333D02*
X100193333Y-89658333D01*
X100193333Y-89938333D02*
X99213333Y-89938333D01*
X99353333Y-89845000D01*
X99446666Y-89751666D01*
X99493333Y-89658333D01*
%TO.C,C5*%
X102966666Y-75457142D02*
X103014285Y-75504761D01*
X103157142Y-75552380D01*
X103252380Y-75552380D01*
X103395238Y-75504761D01*
X103490476Y-75409523D01*
X103538095Y-75314285D01*
X103585714Y-75123809D01*
X103585714Y-74980952D01*
X103538095Y-74790476D01*
X103490476Y-74695238D01*
X103395238Y-74600000D01*
X103252380Y-74552380D01*
X103157142Y-74552380D01*
X103014285Y-74600000D01*
X102966666Y-74647619D01*
X102061904Y-74552380D02*
X102538095Y-74552380D01*
X102585714Y-75028571D01*
X102538095Y-74980952D01*
X102442857Y-74933333D01*
X102204761Y-74933333D01*
X102109523Y-74980952D01*
X102061904Y-75028571D01*
X102014285Y-75123809D01*
X102014285Y-75361904D01*
X102061904Y-75457142D01*
X102109523Y-75504761D01*
X102204761Y-75552380D01*
X102442857Y-75552380D01*
X102538095Y-75504761D01*
X102585714Y-75457142D01*
D15*
X100391666Y-74917857D02*
X100410714Y-74936904D01*
X100467857Y-74955952D01*
X100505952Y-74955952D01*
X100563095Y-74936904D01*
X100601190Y-74898809D01*
X100620238Y-74860714D01*
X100639285Y-74784523D01*
X100639285Y-74727380D01*
X100620238Y-74651190D01*
X100601190Y-74613095D01*
X100563095Y-74575000D01*
X100505952Y-74555952D01*
X100467857Y-74555952D01*
X100410714Y-74575000D01*
X100391666Y-74594047D01*
X100029761Y-74555952D02*
X100220238Y-74555952D01*
X100239285Y-74746428D01*
X100220238Y-74727380D01*
X100182142Y-74708333D01*
X100086904Y-74708333D01*
X100048809Y-74727380D01*
X100029761Y-74746428D01*
X100010714Y-74784523D01*
X100010714Y-74879761D01*
X100029761Y-74917857D01*
X100048809Y-74936904D01*
X100086904Y-74955952D01*
X100182142Y-74955952D01*
X100220238Y-74936904D01*
X100239285Y-74917857D01*
%TO.C,JP1*%
D14*
X107683333Y-90002380D02*
X107683333Y-90716666D01*
X107730952Y-90859523D01*
X107826190Y-90954761D01*
X107969047Y-91002380D01*
X108064285Y-91002380D01*
X107207142Y-91002380D02*
X107207142Y-90002380D01*
X106826190Y-90002380D01*
X106730952Y-90050000D01*
X106683333Y-90097619D01*
X106635714Y-90192857D01*
X106635714Y-90335714D01*
X106683333Y-90430952D01*
X106730952Y-90478571D01*
X106826190Y-90526190D01*
X107207142Y-90526190D01*
X105683333Y-91002380D02*
X106254761Y-91002380D01*
X105969047Y-91002380D02*
X105969047Y-90002380D01*
X106064285Y-90145238D01*
X106159523Y-90240476D01*
X106254761Y-90288095D01*
%TO.C,JP2*%
X108083333Y-74152380D02*
X108083333Y-74866666D01*
X108130952Y-75009523D01*
X108226190Y-75104761D01*
X108369047Y-75152380D01*
X108464285Y-75152380D01*
X107607142Y-75152380D02*
X107607142Y-74152380D01*
X107226190Y-74152380D01*
X107130952Y-74200000D01*
X107083333Y-74247619D01*
X107035714Y-74342857D01*
X107035714Y-74485714D01*
X107083333Y-74580952D01*
X107130952Y-74628571D01*
X107226190Y-74676190D01*
X107607142Y-74676190D01*
X106654761Y-74247619D02*
X106607142Y-74200000D01*
X106511904Y-74152380D01*
X106273809Y-74152380D01*
X106178571Y-74200000D01*
X106130952Y-74247619D01*
X106083333Y-74342857D01*
X106083333Y-74438095D01*
X106130952Y-74580952D01*
X106702380Y-75152380D01*
X106083333Y-75152380D01*
%TO.C,R12*%
X105917857Y-45747380D02*
X106251190Y-45271190D01*
X106489285Y-45747380D02*
X106489285Y-44747380D01*
X106108333Y-44747380D01*
X106013095Y-44795000D01*
X105965476Y-44842619D01*
X105917857Y-44937857D01*
X105917857Y-45080714D01*
X105965476Y-45175952D01*
X106013095Y-45223571D01*
X106108333Y-45271190D01*
X106489285Y-45271190D01*
X104965476Y-45747380D02*
X105536904Y-45747380D01*
X105251190Y-45747380D02*
X105251190Y-44747380D01*
X105346428Y-44890238D01*
X105441666Y-44985476D01*
X105536904Y-45033095D01*
X104584523Y-44842619D02*
X104536904Y-44795000D01*
X104441666Y-44747380D01*
X104203571Y-44747380D01*
X104108333Y-44795000D01*
X104060714Y-44842619D01*
X104013095Y-44937857D01*
X104013095Y-45033095D01*
X104060714Y-45175952D01*
X104632142Y-45747380D01*
X104013095Y-45747380D01*
D15*
X105532142Y-46905952D02*
X105665476Y-46715476D01*
X105760714Y-46905952D02*
X105760714Y-46505952D01*
X105608333Y-46505952D01*
X105570238Y-46525000D01*
X105551190Y-46544047D01*
X105532142Y-46582142D01*
X105532142Y-46639285D01*
X105551190Y-46677380D01*
X105570238Y-46696428D01*
X105608333Y-46715476D01*
X105760714Y-46715476D01*
X105151190Y-46905952D02*
X105379761Y-46905952D01*
X105265476Y-46905952D02*
X105265476Y-46505952D01*
X105303571Y-46563095D01*
X105341666Y-46601190D01*
X105379761Y-46620238D01*
X104998809Y-46544047D02*
X104979761Y-46525000D01*
X104941666Y-46505952D01*
X104846428Y-46505952D01*
X104808333Y-46525000D01*
X104789285Y-46544047D01*
X104770238Y-46582142D01*
X104770238Y-46620238D01*
X104789285Y-46677380D01*
X105017857Y-46905952D01*
X104770238Y-46905952D01*
%TO.C,R9*%
D14*
X94916666Y-63782380D02*
X95250000Y-63306190D01*
X95488095Y-63782380D02*
X95488095Y-62782380D01*
X95107142Y-62782380D01*
X95011904Y-62830000D01*
X94964285Y-62877619D01*
X94916666Y-62972857D01*
X94916666Y-63115714D01*
X94964285Y-63210952D01*
X95011904Y-63258571D01*
X95107142Y-63306190D01*
X95488095Y-63306190D01*
X94440476Y-63782380D02*
X94250000Y-63782380D01*
X94154761Y-63734761D01*
X94107142Y-63687142D01*
X94011904Y-63544285D01*
X93964285Y-63353809D01*
X93964285Y-62972857D01*
X94011904Y-62877619D01*
X94059523Y-62830000D01*
X94154761Y-62782380D01*
X94345238Y-62782380D01*
X94440476Y-62830000D01*
X94488095Y-62877619D01*
X94535714Y-62972857D01*
X94535714Y-63210952D01*
X94488095Y-63306190D01*
X94440476Y-63353809D01*
X94345238Y-63401428D01*
X94154761Y-63401428D01*
X94059523Y-63353809D01*
X94011904Y-63306190D01*
X93964285Y-63210952D01*
D15*
X94816666Y-62080952D02*
X94950000Y-61890476D01*
X95045238Y-62080952D02*
X95045238Y-61680952D01*
X94892857Y-61680952D01*
X94854761Y-61700000D01*
X94835714Y-61719047D01*
X94816666Y-61757142D01*
X94816666Y-61814285D01*
X94835714Y-61852380D01*
X94854761Y-61871428D01*
X94892857Y-61890476D01*
X95045238Y-61890476D01*
X94626190Y-62080952D02*
X94550000Y-62080952D01*
X94511904Y-62061904D01*
X94492857Y-62042857D01*
X94454761Y-61985714D01*
X94435714Y-61909523D01*
X94435714Y-61757142D01*
X94454761Y-61719047D01*
X94473809Y-61700000D01*
X94511904Y-61680952D01*
X94588095Y-61680952D01*
X94626190Y-61700000D01*
X94645238Y-61719047D01*
X94664285Y-61757142D01*
X94664285Y-61852380D01*
X94645238Y-61890476D01*
X94626190Y-61909523D01*
X94588095Y-61928571D01*
X94511904Y-61928571D01*
X94473809Y-61909523D01*
X94454761Y-61890476D01*
X94435714Y-61852380D01*
%TO.C,RD1*%
D14*
X96372380Y-23558333D02*
X95896190Y-23225000D01*
X96372380Y-22986904D02*
X95372380Y-22986904D01*
X95372380Y-23367857D01*
X95420000Y-23463095D01*
X95467619Y-23510714D01*
X95562857Y-23558333D01*
X95705714Y-23558333D01*
X95800952Y-23510714D01*
X95848571Y-23463095D01*
X95896190Y-23367857D01*
X95896190Y-22986904D01*
X96372380Y-23986904D02*
X95372380Y-23986904D01*
X95372380Y-24225000D01*
X95420000Y-24367857D01*
X95515238Y-24463095D01*
X95610476Y-24510714D01*
X95800952Y-24558333D01*
X95943809Y-24558333D01*
X96134285Y-24510714D01*
X96229523Y-24463095D01*
X96324761Y-24367857D01*
X96372380Y-24225000D01*
X96372380Y-23986904D01*
X96372380Y-25510714D02*
X96372380Y-24939285D01*
X96372380Y-25225000D02*
X95372380Y-25225000D01*
X95515238Y-25129761D01*
X95610476Y-25034523D01*
X95658095Y-24939285D01*
D15*
X97530952Y-23958333D02*
X97340476Y-23825000D01*
X97530952Y-23729761D02*
X97130952Y-23729761D01*
X97130952Y-23882142D01*
X97150000Y-23920238D01*
X97169047Y-23939285D01*
X97207142Y-23958333D01*
X97264285Y-23958333D01*
X97302380Y-23939285D01*
X97321428Y-23920238D01*
X97340476Y-23882142D01*
X97340476Y-23729761D01*
X97530952Y-24129761D02*
X97130952Y-24129761D01*
X97130952Y-24225000D01*
X97150000Y-24282142D01*
X97188095Y-24320238D01*
X97226190Y-24339285D01*
X97302380Y-24358333D01*
X97359523Y-24358333D01*
X97435714Y-24339285D01*
X97473809Y-24320238D01*
X97511904Y-24282142D01*
X97530952Y-24225000D01*
X97530952Y-24129761D01*
X97530952Y-24739285D02*
X97530952Y-24510714D01*
X97530952Y-24625000D02*
X97130952Y-24625000D01*
X97188095Y-24586904D01*
X97226190Y-24548809D01*
X97245238Y-24510714D01*
%TO.C,C7*%
D14*
X90891666Y-79857142D02*
X90939285Y-79904761D01*
X91082142Y-79952380D01*
X91177380Y-79952380D01*
X91320238Y-79904761D01*
X91415476Y-79809523D01*
X91463095Y-79714285D01*
X91510714Y-79523809D01*
X91510714Y-79380952D01*
X91463095Y-79190476D01*
X91415476Y-79095238D01*
X91320238Y-79000000D01*
X91177380Y-78952380D01*
X91082142Y-78952380D01*
X90939285Y-79000000D01*
X90891666Y-79047619D01*
X90558333Y-78952380D02*
X89891666Y-78952380D01*
X90320238Y-79952380D01*
X90891666Y-84207142D02*
X90939285Y-84254761D01*
X91082142Y-84302380D01*
X91177380Y-84302380D01*
X91320238Y-84254761D01*
X91415476Y-84159523D01*
X91463095Y-84064285D01*
X91510714Y-83873809D01*
X91510714Y-83730952D01*
X91463095Y-83540476D01*
X91415476Y-83445238D01*
X91320238Y-83350000D01*
X91177380Y-83302380D01*
X91082142Y-83302380D01*
X90939285Y-83350000D01*
X90891666Y-83397619D01*
X90558333Y-83302380D02*
X89891666Y-83302380D01*
X90320238Y-84302380D01*
%TD*%
M02*
