%TF.GenerationSoftware,KiCad,Pcbnew,5.1.6-c6e7f7d~87~ubuntu18.04.1*%
%TF.CreationDate,2020-12-29T19:32:25-08:00*%
%TF.ProjectId,cv-extractor,63762d65-7874-4726-9163-746f722e6b69,rev?*%
%TF.SameCoordinates,Original*%
%TF.FileFunction,Legend,Bot*%
%TF.FilePolarity,Positive*%
%FSLAX46Y46*%
G04 Gerber Fmt 4.6, Leading zero omitted, Abs format (unit mm)*
G04 Created by KiCad (PCBNEW 5.1.6-c6e7f7d~87~ubuntu18.04.1) date 2020-12-29 19:32:25*
%MOMM*%
%LPD*%
G01*
G04 APERTURE LIST*
%ADD10C,0.300000*%
%ADD11C,0.120000*%
%ADD12C,0.152400*%
%ADD13C,0.150000*%
G04 APERTURE END LIST*
D10*
X105851428Y-58165714D02*
X105922857Y-58237142D01*
X106137142Y-58308571D01*
X106280000Y-58308571D01*
X106494285Y-58237142D01*
X106637142Y-58094285D01*
X106708571Y-57951428D01*
X106780000Y-57665714D01*
X106780000Y-57451428D01*
X106708571Y-57165714D01*
X106637142Y-57022857D01*
X106494285Y-56880000D01*
X106280000Y-56808571D01*
X106137142Y-56808571D01*
X105922857Y-56880000D01*
X105851428Y-56951428D01*
X105422857Y-56808571D02*
X104922857Y-58308571D01*
X104422857Y-56808571D01*
X102780000Y-57522857D02*
X102280000Y-57522857D01*
X102065714Y-58308571D02*
X102780000Y-58308571D01*
X102780000Y-56808571D01*
X102065714Y-56808571D01*
X101565714Y-58308571D02*
X100780000Y-57308571D01*
X101565714Y-57308571D02*
X100780000Y-58308571D01*
X100422857Y-57308571D02*
X99851428Y-57308571D01*
X100208571Y-56808571D02*
X100208571Y-58094285D01*
X100137142Y-58237142D01*
X99994285Y-58308571D01*
X99851428Y-58308571D01*
X99351428Y-58308571D02*
X99351428Y-57308571D01*
X99351428Y-57594285D02*
X99280000Y-57451428D01*
X99208571Y-57380000D01*
X99065714Y-57308571D01*
X98922857Y-57308571D01*
X97780000Y-58308571D02*
X97780000Y-57522857D01*
X97851428Y-57380000D01*
X97994285Y-57308571D01*
X98280000Y-57308571D01*
X98422857Y-57380000D01*
X97780000Y-58237142D02*
X97922857Y-58308571D01*
X98280000Y-58308571D01*
X98422857Y-58237142D01*
X98494285Y-58094285D01*
X98494285Y-57951428D01*
X98422857Y-57808571D01*
X98280000Y-57737142D01*
X97922857Y-57737142D01*
X97780000Y-57665714D01*
X96422857Y-58237142D02*
X96565714Y-58308571D01*
X96851428Y-58308571D01*
X96994285Y-58237142D01*
X97065714Y-58165714D01*
X97137142Y-58022857D01*
X97137142Y-57594285D01*
X97065714Y-57451428D01*
X96994285Y-57380000D01*
X96851428Y-57308571D01*
X96565714Y-57308571D01*
X96422857Y-57380000D01*
X95994285Y-57308571D02*
X95422857Y-57308571D01*
X95780000Y-56808571D02*
X95780000Y-58094285D01*
X95708571Y-58237142D01*
X95565714Y-58308571D01*
X95422857Y-58308571D01*
X94708571Y-58308571D02*
X94851428Y-58237142D01*
X94922857Y-58165714D01*
X94994285Y-58022857D01*
X94994285Y-57594285D01*
X94922857Y-57451428D01*
X94851428Y-57380000D01*
X94708571Y-57308571D01*
X94494285Y-57308571D01*
X94351428Y-57380000D01*
X94280000Y-57451428D01*
X94208571Y-57594285D01*
X94208571Y-58022857D01*
X94280000Y-58165714D01*
X94351428Y-58237142D01*
X94494285Y-58308571D01*
X94708571Y-58308571D01*
X93565714Y-58308571D02*
X93565714Y-57308571D01*
X93565714Y-57594285D02*
X93494285Y-57451428D01*
X93422857Y-57380000D01*
X93280000Y-57308571D01*
X93137142Y-57308571D01*
X109387142Y-59358571D02*
X108887142Y-60858571D01*
X108387142Y-59358571D01*
X107101428Y-60858571D02*
X107958571Y-60858571D01*
X107530000Y-60858571D02*
X107530000Y-59358571D01*
X107672857Y-59572857D01*
X107815714Y-59715714D01*
X107958571Y-59787142D01*
X105387142Y-59501428D02*
X105315714Y-59430000D01*
X105172857Y-59358571D01*
X104815714Y-59358571D01*
X104672857Y-59430000D01*
X104601428Y-59501428D01*
X104530000Y-59644285D01*
X104530000Y-59787142D01*
X104601428Y-60001428D01*
X105458571Y-60858571D01*
X104530000Y-60858571D01*
X103601428Y-59358571D02*
X103458571Y-59358571D01*
X103315714Y-59430000D01*
X103244285Y-59501428D01*
X103172857Y-59644285D01*
X103101428Y-59930000D01*
X103101428Y-60287142D01*
X103172857Y-60572857D01*
X103244285Y-60715714D01*
X103315714Y-60787142D01*
X103458571Y-60858571D01*
X103601428Y-60858571D01*
X103744285Y-60787142D01*
X103815714Y-60715714D01*
X103887142Y-60572857D01*
X103958571Y-60287142D01*
X103958571Y-59930000D01*
X103887142Y-59644285D01*
X103815714Y-59501428D01*
X103744285Y-59430000D01*
X103601428Y-59358571D01*
X102530000Y-59501428D02*
X102458571Y-59430000D01*
X102315714Y-59358571D01*
X101958571Y-59358571D01*
X101815714Y-59430000D01*
X101744285Y-59501428D01*
X101672857Y-59644285D01*
X101672857Y-59787142D01*
X101744285Y-60001428D01*
X102601428Y-60858571D01*
X101672857Y-60858571D01*
X100744285Y-59358571D02*
X100601428Y-59358571D01*
X100458571Y-59430000D01*
X100387142Y-59501428D01*
X100315714Y-59644285D01*
X100244285Y-59930000D01*
X100244285Y-60287142D01*
X100315714Y-60572857D01*
X100387142Y-60715714D01*
X100458571Y-60787142D01*
X100601428Y-60858571D01*
X100744285Y-60858571D01*
X100887142Y-60787142D01*
X100958571Y-60715714D01*
X101030000Y-60572857D01*
X101101428Y-60287142D01*
X101101428Y-59930000D01*
X101030000Y-59644285D01*
X100958571Y-59501428D01*
X100887142Y-59430000D01*
X100744285Y-59358571D01*
X99601428Y-60287142D02*
X98458571Y-60287142D01*
X96958571Y-60858571D02*
X97815714Y-60858571D01*
X97387142Y-60858571D02*
X97387142Y-59358571D01*
X97530000Y-59572857D01*
X97672857Y-59715714D01*
X97815714Y-59787142D01*
X96387142Y-59501428D02*
X96315714Y-59430000D01*
X96172857Y-59358571D01*
X95815714Y-59358571D01*
X95672857Y-59430000D01*
X95601428Y-59501428D01*
X95530000Y-59644285D01*
X95530000Y-59787142D01*
X95601428Y-60001428D01*
X96458571Y-60858571D01*
X95530000Y-60858571D01*
X94887142Y-60287142D02*
X93744285Y-60287142D01*
X93101428Y-59501428D02*
X93030000Y-59430000D01*
X92887142Y-59358571D01*
X92530000Y-59358571D01*
X92387142Y-59430000D01*
X92315714Y-59501428D01*
X92244285Y-59644285D01*
X92244285Y-59787142D01*
X92315714Y-60001428D01*
X93172857Y-60858571D01*
X92244285Y-60858571D01*
X91530000Y-60858571D02*
X91244285Y-60858571D01*
X91101428Y-60787142D01*
X91030000Y-60715714D01*
X90887142Y-60501428D01*
X90815714Y-60215714D01*
X90815714Y-59644285D01*
X90887142Y-59501428D01*
X90958571Y-59430000D01*
X91101428Y-59358571D01*
X91387142Y-59358571D01*
X91530000Y-59430000D01*
X91601428Y-59501428D01*
X91672857Y-59644285D01*
X91672857Y-60001428D01*
X91601428Y-60144285D01*
X91530000Y-60215714D01*
X91387142Y-60287142D01*
X91101428Y-60287142D01*
X90958571Y-60215714D01*
X90887142Y-60144285D01*
X90815714Y-60001428D01*
X107208571Y-63408571D02*
X107208571Y-61908571D01*
X106351428Y-63408571D02*
X106994285Y-62551428D01*
X106351428Y-61908571D02*
X107208571Y-62765714D01*
X105708571Y-62408571D02*
X105708571Y-63408571D01*
X105708571Y-62551428D02*
X105637142Y-62480000D01*
X105494285Y-62408571D01*
X105280000Y-62408571D01*
X105137142Y-62480000D01*
X105065714Y-62622857D01*
X105065714Y-63408571D01*
X104137142Y-63408571D02*
X104280000Y-63337142D01*
X104351428Y-63265714D01*
X104422857Y-63122857D01*
X104422857Y-62694285D01*
X104351428Y-62551428D01*
X104280000Y-62480000D01*
X104137142Y-62408571D01*
X103922857Y-62408571D01*
X103780000Y-62480000D01*
X103708571Y-62551428D01*
X103637142Y-62694285D01*
X103637142Y-63122857D01*
X103708571Y-63265714D01*
X103780000Y-63337142D01*
X103922857Y-63408571D01*
X104137142Y-63408571D01*
X102994285Y-63408571D02*
X102994285Y-61908571D01*
X102994285Y-62480000D02*
X102851428Y-62408571D01*
X102565714Y-62408571D01*
X102422857Y-62480000D01*
X102351428Y-62551428D01*
X102280000Y-62694285D01*
X102280000Y-63122857D01*
X102351428Y-63265714D01*
X102422857Y-63337142D01*
X102565714Y-63408571D01*
X102851428Y-63408571D01*
X102994285Y-63337142D01*
X99994285Y-62622857D02*
X100494285Y-62622857D01*
X100494285Y-63408571D02*
X100494285Y-61908571D01*
X99780000Y-61908571D01*
X98994285Y-63408571D02*
X99137142Y-63337142D01*
X99208571Y-63265714D01*
X99280000Y-63122857D01*
X99280000Y-62694285D01*
X99208571Y-62551428D01*
X99137142Y-62480000D01*
X98994285Y-62408571D01*
X98780000Y-62408571D01*
X98637142Y-62480000D01*
X98565714Y-62551428D01*
X98494285Y-62694285D01*
X98494285Y-63122857D01*
X98565714Y-63265714D01*
X98637142Y-63337142D01*
X98780000Y-63408571D01*
X98994285Y-63408571D01*
X97851428Y-62408571D02*
X97851428Y-63408571D01*
X97851428Y-62551428D02*
X97780000Y-62480000D01*
X97637142Y-62408571D01*
X97422857Y-62408571D01*
X97280000Y-62480000D01*
X97208571Y-62622857D01*
X97208571Y-63408571D01*
X95851428Y-63408571D02*
X95851428Y-61908571D01*
X95851428Y-63337142D02*
X95994285Y-63408571D01*
X96280000Y-63408571D01*
X96422857Y-63337142D01*
X96494285Y-63265714D01*
X96565714Y-63122857D01*
X96565714Y-62694285D01*
X96494285Y-62551428D01*
X96422857Y-62480000D01*
X96280000Y-62408571D01*
X95994285Y-62408571D01*
X95851428Y-62480000D01*
X94922857Y-63408571D02*
X95065714Y-63337142D01*
X95137142Y-63194285D01*
X95137142Y-61908571D01*
X93780000Y-63337142D02*
X93922857Y-63408571D01*
X94208571Y-63408571D01*
X94351428Y-63337142D01*
X94422857Y-63194285D01*
X94422857Y-62622857D01*
X94351428Y-62480000D01*
X94208571Y-62408571D01*
X93922857Y-62408571D01*
X93780000Y-62480000D01*
X93708571Y-62622857D01*
X93708571Y-62765714D01*
X94422857Y-62908571D01*
X93065714Y-63408571D02*
X93065714Y-62408571D01*
X93065714Y-62694285D02*
X92994285Y-62551428D01*
X92922857Y-62480000D01*
X92780000Y-62408571D01*
X92637142Y-62408571D01*
D11*
%TO.C,C3*%
X87498064Y-78686000D02*
X86293936Y-78686000D01*
X87498064Y-80506000D02*
X86293936Y-80506000D01*
%TO.C,C1*%
X89951936Y-92604000D02*
X91156064Y-92604000D01*
X89951936Y-90784000D02*
X91156064Y-90784000D01*
%TO.C,C2*%
X89951936Y-95144000D02*
X91156064Y-95144000D01*
X89951936Y-93324000D02*
X91156064Y-93324000D01*
%TO.C,C4*%
X87498064Y-81076000D02*
X86293936Y-81076000D01*
X87498064Y-82896000D02*
X86293936Y-82896000D01*
%TO.C,C5*%
X87498064Y-83512000D02*
X86293936Y-83512000D01*
X87498064Y-85332000D02*
X86293936Y-85332000D01*
%TO.C,C6*%
X87498064Y-86052000D02*
X86293936Y-86052000D01*
X87498064Y-87872000D02*
X86293936Y-87872000D01*
%TO.C,C7*%
X112630000Y-96412000D02*
X112630000Y-98762000D01*
X112630000Y-103232000D02*
X112630000Y-100882000D01*
X106874437Y-103232000D02*
X112630000Y-103232000D01*
X106874437Y-96412000D02*
X112630000Y-96412000D01*
X105810000Y-97476437D02*
X105810000Y-98762000D01*
X105810000Y-102167563D02*
X105810000Y-100882000D01*
X105810000Y-102167563D02*
X106874437Y-103232000D01*
X105810000Y-97476437D02*
X106874437Y-96412000D01*
X104782500Y-101669500D02*
X105570000Y-101669500D01*
X105176250Y-102063250D02*
X105176250Y-101275750D01*
%TO.C,C8*%
X92660000Y-96115000D02*
X92660000Y-98465000D01*
X92660000Y-102935000D02*
X92660000Y-100585000D01*
X86904437Y-102935000D02*
X92660000Y-102935000D01*
X86904437Y-96115000D02*
X92660000Y-96115000D01*
X85840000Y-97179437D02*
X85840000Y-98465000D01*
X85840000Y-101870563D02*
X85840000Y-100585000D01*
X85840000Y-101870563D02*
X86904437Y-102935000D01*
X85840000Y-97179437D02*
X86904437Y-96115000D01*
X84812500Y-101372500D02*
X85600000Y-101372500D01*
X85206250Y-101766250D02*
X85206250Y-100978750D01*
%TO.C,C9*%
X105158000Y-102753279D02*
X105158000Y-102427721D01*
X104138000Y-102753279D02*
X104138000Y-102427721D01*
%TO.C,C10*%
X94265000Y-101587221D02*
X94265000Y-101912779D01*
X95285000Y-101587221D02*
X95285000Y-101912779D01*
%TO.C,D1*%
X101350000Y-109400000D02*
X101350000Y-106100000D01*
X101350000Y-106100000D02*
X106750000Y-106100000D01*
X101350000Y-109400000D02*
X106750000Y-109400000D01*
%TO.C,D2*%
X108600000Y-109400000D02*
X108600000Y-106100000D01*
X108600000Y-106100000D02*
X114000000Y-106100000D01*
X108600000Y-109400000D02*
X114000000Y-109400000D01*
%TO.C,X1*%
X95936000Y-112460000D02*
X95682000Y-112460000D01*
X95936000Y-117286000D02*
X95936000Y-112460000D01*
X93904000Y-117286000D02*
X95936000Y-117286000D01*
X93904000Y-112460000D02*
X93904000Y-117286000D01*
X95682000Y-112460000D02*
X93904000Y-112460000D01*
X99238000Y-111698000D02*
X99238000Y-110428000D01*
X101016000Y-111698000D02*
X99238000Y-111698000D01*
X101016000Y-110428000D02*
X101016000Y-111698000D01*
D12*
X94920000Y-110326400D02*
X95555000Y-109056400D01*
X95555000Y-109056400D02*
X94285000Y-109056400D01*
X94285000Y-109056400D02*
X94920000Y-110326400D01*
X110312400Y-119546600D02*
X89687600Y-119546600D01*
X89687600Y-119546600D02*
X89687600Y-110453400D01*
X89687600Y-110453400D02*
X110312400Y-110453400D01*
X110312400Y-110453400D02*
X110312400Y-119546600D01*
D11*
%TO.C,R1*%
X105064779Y-93204000D02*
X104739221Y-93204000D01*
X105064779Y-94224000D02*
X104739221Y-94224000D01*
%TO.C,R2*%
X104739221Y-92700000D02*
X105064779Y-92700000D01*
X104739221Y-91680000D02*
X105064779Y-91680000D01*
%TO.C,R3*%
X104739221Y-90426000D02*
X105064779Y-90426000D01*
X104739221Y-89406000D02*
X105064779Y-89406000D01*
%TO.C,R4*%
X104739221Y-88902000D02*
X105064779Y-88902000D01*
X104739221Y-87882000D02*
X105064779Y-87882000D01*
%TO.C,R5*%
X104739221Y-87378000D02*
X105064779Y-87378000D01*
X104739221Y-86358000D02*
X105064779Y-86358000D01*
%TO.C,R6*%
X105064779Y-84834000D02*
X104739221Y-84834000D01*
X105064779Y-85854000D02*
X104739221Y-85854000D01*
%TO.C,R7*%
X104739221Y-83680000D02*
X105064779Y-83680000D01*
X104739221Y-82660000D02*
X105064779Y-82660000D01*
%TO.C,R8*%
X104739221Y-82156000D02*
X105064779Y-82156000D01*
X104739221Y-81136000D02*
X105064779Y-81136000D01*
%TO.C,U1*%
X100000000Y-104435000D02*
X98050000Y-104435000D01*
X100000000Y-104435000D02*
X101950000Y-104435000D01*
X100000000Y-95565000D02*
X98050000Y-95565000D01*
X100000000Y-95565000D02*
X103450000Y-95565000D01*
%TO.C,C3*%
D13*
X84075142Y-79429333D02*
X84122761Y-79381714D01*
X84170380Y-79238857D01*
X84170380Y-79143619D01*
X84122761Y-79000761D01*
X84027523Y-78905523D01*
X83932285Y-78857904D01*
X83741809Y-78810285D01*
X83598952Y-78810285D01*
X83408476Y-78857904D01*
X83313238Y-78905523D01*
X83218000Y-79000761D01*
X83170380Y-79143619D01*
X83170380Y-79238857D01*
X83218000Y-79381714D01*
X83265619Y-79429333D01*
X83170380Y-79762666D02*
X83170380Y-80381714D01*
X83551333Y-80048380D01*
X83551333Y-80191238D01*
X83598952Y-80286476D01*
X83646571Y-80334095D01*
X83741809Y-80381714D01*
X83979904Y-80381714D01*
X84075142Y-80334095D01*
X84122761Y-80286476D01*
X84170380Y-80191238D01*
X84170380Y-79905523D01*
X84122761Y-79810285D01*
X84075142Y-79762666D01*
%TO.C,C1*%
X93880141Y-91781333D02*
X93927760Y-91733714D01*
X93975379Y-91590857D01*
X93975379Y-91495619D01*
X93927760Y-91352761D01*
X93832522Y-91257523D01*
X93737284Y-91209904D01*
X93546808Y-91162285D01*
X93403951Y-91162285D01*
X93213475Y-91209904D01*
X93118237Y-91257523D01*
X93022999Y-91352761D01*
X92975379Y-91495619D01*
X92975379Y-91590857D01*
X93022999Y-91733714D01*
X93070618Y-91781333D01*
X93975379Y-92733714D02*
X93975379Y-92162285D01*
X93975379Y-92448000D02*
X92975379Y-92448000D01*
X93118237Y-92352761D01*
X93213475Y-92257523D01*
X93261094Y-92162285D01*
%TO.C,C2*%
X93959142Y-94067333D02*
X94006761Y-94019714D01*
X94054380Y-93876857D01*
X94054380Y-93781619D01*
X94006761Y-93638761D01*
X93911523Y-93543523D01*
X93816285Y-93495904D01*
X93625809Y-93448285D01*
X93482952Y-93448285D01*
X93292476Y-93495904D01*
X93197238Y-93543523D01*
X93102000Y-93638761D01*
X93054380Y-93781619D01*
X93054380Y-93876857D01*
X93102000Y-94019714D01*
X93149619Y-94067333D01*
X93149619Y-94448285D02*
X93102000Y-94495904D01*
X93054380Y-94591142D01*
X93054380Y-94829238D01*
X93102000Y-94924476D01*
X93149619Y-94972095D01*
X93244857Y-95019714D01*
X93340095Y-95019714D01*
X93482952Y-94972095D01*
X94054380Y-94400666D01*
X94054380Y-95019714D01*
%TO.C,C4*%
X84205142Y-81819333D02*
X84252761Y-81771714D01*
X84300380Y-81628857D01*
X84300380Y-81533619D01*
X84252761Y-81390761D01*
X84157523Y-81295523D01*
X84062285Y-81247904D01*
X83871809Y-81200285D01*
X83728952Y-81200285D01*
X83538476Y-81247904D01*
X83443238Y-81295523D01*
X83348000Y-81390761D01*
X83300380Y-81533619D01*
X83300380Y-81628857D01*
X83348000Y-81771714D01*
X83395619Y-81819333D01*
X83633714Y-82676476D02*
X84300380Y-82676476D01*
X83252761Y-82438380D02*
X83967047Y-82200285D01*
X83967047Y-82819333D01*
%TO.C,C5*%
X84205142Y-84255333D02*
X84252761Y-84207714D01*
X84300380Y-84064857D01*
X84300380Y-83969619D01*
X84252761Y-83826761D01*
X84157523Y-83731523D01*
X84062285Y-83683904D01*
X83871809Y-83636285D01*
X83728952Y-83636285D01*
X83538476Y-83683904D01*
X83443238Y-83731523D01*
X83348000Y-83826761D01*
X83300380Y-83969619D01*
X83300380Y-84064857D01*
X83348000Y-84207714D01*
X83395619Y-84255333D01*
X83300380Y-85160095D02*
X83300380Y-84683904D01*
X83776571Y-84636285D01*
X83728952Y-84683904D01*
X83681333Y-84779142D01*
X83681333Y-85017238D01*
X83728952Y-85112476D01*
X83776571Y-85160095D01*
X83871809Y-85207714D01*
X84109904Y-85207714D01*
X84205142Y-85160095D01*
X84252761Y-85112476D01*
X84300380Y-85017238D01*
X84300380Y-84779142D01*
X84252761Y-84683904D01*
X84205142Y-84636285D01*
%TO.C,C6*%
X84075142Y-87049333D02*
X84122761Y-87001714D01*
X84170380Y-86858857D01*
X84170380Y-86763619D01*
X84122761Y-86620761D01*
X84027523Y-86525523D01*
X83932285Y-86477904D01*
X83741809Y-86430285D01*
X83598952Y-86430285D01*
X83408476Y-86477904D01*
X83313238Y-86525523D01*
X83218000Y-86620761D01*
X83170380Y-86763619D01*
X83170380Y-86858857D01*
X83218000Y-87001714D01*
X83265619Y-87049333D01*
X83170380Y-87906476D02*
X83170380Y-87716000D01*
X83218000Y-87620761D01*
X83265619Y-87573142D01*
X83408476Y-87477904D01*
X83598952Y-87430285D01*
X83979904Y-87430285D01*
X84075142Y-87477904D01*
X84122761Y-87525523D01*
X84170380Y-87620761D01*
X84170380Y-87811238D01*
X84122761Y-87906476D01*
X84075142Y-87954095D01*
X83979904Y-88001714D01*
X83741809Y-88001714D01*
X83646571Y-87954095D01*
X83598952Y-87906476D01*
X83551333Y-87811238D01*
X83551333Y-87620761D01*
X83598952Y-87525523D01*
X83646571Y-87477904D01*
X83741809Y-87430285D01*
%TO.C,C7*%
X113958666Y-97131142D02*
X114006285Y-97178761D01*
X114149142Y-97226380D01*
X114244380Y-97226380D01*
X114387238Y-97178761D01*
X114482476Y-97083523D01*
X114530095Y-96988285D01*
X114577714Y-96797809D01*
X114577714Y-96654952D01*
X114530095Y-96464476D01*
X114482476Y-96369238D01*
X114387238Y-96274000D01*
X114244380Y-96226380D01*
X114149142Y-96226380D01*
X114006285Y-96274000D01*
X113958666Y-96321619D01*
X113625333Y-96226380D02*
X112958666Y-96226380D01*
X113387238Y-97226380D01*
%TO.C,C8*%
X89416666Y-104232142D02*
X89464285Y-104279761D01*
X89607142Y-104327380D01*
X89702380Y-104327380D01*
X89845238Y-104279761D01*
X89940476Y-104184523D01*
X89988095Y-104089285D01*
X90035714Y-103898809D01*
X90035714Y-103755952D01*
X89988095Y-103565476D01*
X89940476Y-103470238D01*
X89845238Y-103375000D01*
X89702380Y-103327380D01*
X89607142Y-103327380D01*
X89464285Y-103375000D01*
X89416666Y-103422619D01*
X88845238Y-103755952D02*
X88940476Y-103708333D01*
X88988095Y-103660714D01*
X89035714Y-103565476D01*
X89035714Y-103517857D01*
X88988095Y-103422619D01*
X88940476Y-103375000D01*
X88845238Y-103327380D01*
X88654761Y-103327380D01*
X88559523Y-103375000D01*
X88511904Y-103422619D01*
X88464285Y-103517857D01*
X88464285Y-103565476D01*
X88511904Y-103660714D01*
X88559523Y-103708333D01*
X88654761Y-103755952D01*
X88845238Y-103755952D01*
X88940476Y-103803571D01*
X88988095Y-103851190D01*
X89035714Y-103946428D01*
X89035714Y-104136904D01*
X88988095Y-104232142D01*
X88940476Y-104279761D01*
X88845238Y-104327380D01*
X88654761Y-104327380D01*
X88559523Y-104279761D01*
X88511904Y-104232142D01*
X88464285Y-104136904D01*
X88464285Y-103946428D01*
X88511904Y-103851190D01*
X88559523Y-103803571D01*
X88654761Y-103755952D01*
%TO.C,C9*%
X105068666Y-105259142D02*
X105116285Y-105306761D01*
X105259142Y-105354380D01*
X105354380Y-105354380D01*
X105497238Y-105306761D01*
X105592476Y-105211523D01*
X105640095Y-105116285D01*
X105687714Y-104925809D01*
X105687714Y-104782952D01*
X105640095Y-104592476D01*
X105592476Y-104497238D01*
X105497238Y-104402000D01*
X105354380Y-104354380D01*
X105259142Y-104354380D01*
X105116285Y-104402000D01*
X105068666Y-104449619D01*
X104592476Y-105354380D02*
X104402000Y-105354380D01*
X104306761Y-105306761D01*
X104259142Y-105259142D01*
X104163904Y-105116285D01*
X104116285Y-104925809D01*
X104116285Y-104544857D01*
X104163904Y-104449619D01*
X104211523Y-104402000D01*
X104306761Y-104354380D01*
X104497238Y-104354380D01*
X104592476Y-104402000D01*
X104640095Y-104449619D01*
X104687714Y-104544857D01*
X104687714Y-104782952D01*
X104640095Y-104878190D01*
X104592476Y-104925809D01*
X104497238Y-104973428D01*
X104306761Y-104973428D01*
X104211523Y-104925809D01*
X104163904Y-104878190D01*
X104116285Y-104782952D01*
%TO.C,C10*%
X94655857Y-104393142D02*
X94703476Y-104440761D01*
X94846333Y-104488380D01*
X94941571Y-104488380D01*
X95084428Y-104440761D01*
X95179666Y-104345523D01*
X95227285Y-104250285D01*
X95274904Y-104059809D01*
X95274904Y-103916952D01*
X95227285Y-103726476D01*
X95179666Y-103631238D01*
X95084428Y-103536000D01*
X94941571Y-103488380D01*
X94846333Y-103488380D01*
X94703476Y-103536000D01*
X94655857Y-103583619D01*
X93703476Y-104488380D02*
X94274904Y-104488380D01*
X93989190Y-104488380D02*
X93989190Y-103488380D01*
X94084428Y-103631238D01*
X94179666Y-103726476D01*
X94274904Y-103774095D01*
X93084428Y-103488380D02*
X92989190Y-103488380D01*
X92893952Y-103536000D01*
X92846333Y-103583619D01*
X92798714Y-103678857D01*
X92751095Y-103869333D01*
X92751095Y-104107428D01*
X92798714Y-104297904D01*
X92846333Y-104393142D01*
X92893952Y-104440761D01*
X92989190Y-104488380D01*
X93084428Y-104488380D01*
X93179666Y-104440761D01*
X93227285Y-104393142D01*
X93274904Y-104297904D01*
X93322523Y-104107428D01*
X93322523Y-103869333D01*
X93274904Y-103678857D01*
X93227285Y-103583619D01*
X93179666Y-103536000D01*
X93084428Y-103488380D01*
%TO.C,D1*%
X100912095Y-108256380D02*
X100912095Y-107256380D01*
X100674000Y-107256380D01*
X100531142Y-107304000D01*
X100435904Y-107399238D01*
X100388285Y-107494476D01*
X100340666Y-107684952D01*
X100340666Y-107827809D01*
X100388285Y-108018285D01*
X100435904Y-108113523D01*
X100531142Y-108208761D01*
X100674000Y-108256380D01*
X100912095Y-108256380D01*
X99388285Y-108256380D02*
X99959714Y-108256380D01*
X99674000Y-108256380D02*
X99674000Y-107256380D01*
X99769238Y-107399238D01*
X99864476Y-107494476D01*
X99959714Y-107542095D01*
%TO.C,D2*%
X117256095Y-108022380D02*
X117256095Y-107022380D01*
X117018000Y-107022380D01*
X116875142Y-107070000D01*
X116779904Y-107165238D01*
X116732285Y-107260476D01*
X116684666Y-107450952D01*
X116684666Y-107593809D01*
X116732285Y-107784285D01*
X116779904Y-107879523D01*
X116875142Y-107974761D01*
X117018000Y-108022380D01*
X117256095Y-108022380D01*
X116303714Y-107117619D02*
X116256095Y-107070000D01*
X116160857Y-107022380D01*
X115922761Y-107022380D01*
X115827523Y-107070000D01*
X115779904Y-107117619D01*
X115732285Y-107212857D01*
X115732285Y-107308095D01*
X115779904Y-107450952D01*
X116351333Y-108022380D01*
X115732285Y-108022380D01*
%TO.C,X1*%
X90869523Y-108932380D02*
X90202857Y-109932380D01*
X90202857Y-108932380D02*
X90869523Y-109932380D01*
X89298095Y-109932380D02*
X89869523Y-109932380D01*
X89583809Y-109932380D02*
X89583809Y-108932380D01*
X89679047Y-109075238D01*
X89774285Y-109170476D01*
X89869523Y-109218095D01*
X94920000Y-113182380D02*
X94920000Y-113420476D01*
X95158095Y-113325238D02*
X94920000Y-113420476D01*
X94681904Y-113325238D01*
X95062857Y-113610952D02*
X94920000Y-113420476D01*
X94777142Y-113610952D01*
%TO.C,R1*%
X107608666Y-94166380D02*
X107942000Y-93690190D01*
X108180095Y-94166380D02*
X108180095Y-93166380D01*
X107799142Y-93166380D01*
X107703904Y-93214000D01*
X107656285Y-93261619D01*
X107608666Y-93356857D01*
X107608666Y-93499714D01*
X107656285Y-93594952D01*
X107703904Y-93642571D01*
X107799142Y-93690190D01*
X108180095Y-93690190D01*
X106656285Y-94166380D02*
X107227714Y-94166380D01*
X106942000Y-94166380D02*
X106942000Y-93166380D01*
X107037238Y-93309238D01*
X107132476Y-93404476D01*
X107227714Y-93452095D01*
%TO.C,R2*%
X107608666Y-92642380D02*
X107942000Y-92166190D01*
X108180095Y-92642380D02*
X108180095Y-91642380D01*
X107799142Y-91642380D01*
X107703904Y-91690000D01*
X107656285Y-91737619D01*
X107608666Y-91832857D01*
X107608666Y-91975714D01*
X107656285Y-92070952D01*
X107703904Y-92118571D01*
X107799142Y-92166190D01*
X108180095Y-92166190D01*
X107227714Y-91737619D02*
X107180095Y-91690000D01*
X107084857Y-91642380D01*
X106846761Y-91642380D01*
X106751523Y-91690000D01*
X106703904Y-91737619D01*
X106656285Y-91832857D01*
X106656285Y-91928095D01*
X106703904Y-92070952D01*
X107275333Y-92642380D01*
X106656285Y-92642380D01*
%TO.C,R3*%
X107862666Y-90368380D02*
X108196000Y-89892190D01*
X108434095Y-90368380D02*
X108434095Y-89368380D01*
X108053142Y-89368380D01*
X107957904Y-89416000D01*
X107910285Y-89463619D01*
X107862666Y-89558857D01*
X107862666Y-89701714D01*
X107910285Y-89796952D01*
X107957904Y-89844571D01*
X108053142Y-89892190D01*
X108434095Y-89892190D01*
X107529333Y-89368380D02*
X106910285Y-89368380D01*
X107243619Y-89749333D01*
X107100761Y-89749333D01*
X107005523Y-89796952D01*
X106957904Y-89844571D01*
X106910285Y-89939809D01*
X106910285Y-90177904D01*
X106957904Y-90273142D01*
X107005523Y-90320761D01*
X107100761Y-90368380D01*
X107386476Y-90368380D01*
X107481714Y-90320761D01*
X107529333Y-90273142D01*
%TO.C,R4*%
X107862666Y-88844380D02*
X108196000Y-88368190D01*
X108434095Y-88844380D02*
X108434095Y-87844380D01*
X108053142Y-87844380D01*
X107957904Y-87892000D01*
X107910285Y-87939619D01*
X107862666Y-88034857D01*
X107862666Y-88177714D01*
X107910285Y-88272952D01*
X107957904Y-88320571D01*
X108053142Y-88368190D01*
X108434095Y-88368190D01*
X107005523Y-88177714D02*
X107005523Y-88844380D01*
X107243619Y-87796761D02*
X107481714Y-88511047D01*
X106862666Y-88511047D01*
%TO.C,R5*%
X107745665Y-87247381D02*
X108078999Y-86771191D01*
X108317094Y-87247381D02*
X108317094Y-86247381D01*
X107936141Y-86247381D01*
X107840903Y-86295001D01*
X107793284Y-86342620D01*
X107745665Y-86437858D01*
X107745665Y-86580715D01*
X107793284Y-86675953D01*
X107840903Y-86723572D01*
X107936141Y-86771191D01*
X108317094Y-86771191D01*
X106840903Y-86247381D02*
X107317094Y-86247381D01*
X107364713Y-86723572D01*
X107317094Y-86675953D01*
X107221856Y-86628334D01*
X106983760Y-86628334D01*
X106888522Y-86675953D01*
X106840903Y-86723572D01*
X106793284Y-86818810D01*
X106793284Y-87056905D01*
X106840903Y-87152143D01*
X106888522Y-87199762D01*
X106983760Y-87247381D01*
X107221856Y-87247381D01*
X107317094Y-87199762D01*
X107364713Y-87152143D01*
%TO.C,R6*%
X107608666Y-85796380D02*
X107942000Y-85320190D01*
X108180095Y-85796380D02*
X108180095Y-84796380D01*
X107799142Y-84796380D01*
X107703904Y-84844000D01*
X107656285Y-84891619D01*
X107608666Y-84986857D01*
X107608666Y-85129714D01*
X107656285Y-85224952D01*
X107703904Y-85272571D01*
X107799142Y-85320190D01*
X108180095Y-85320190D01*
X106751523Y-84796380D02*
X106942000Y-84796380D01*
X107037238Y-84844000D01*
X107084857Y-84891619D01*
X107180095Y-85034476D01*
X107227714Y-85224952D01*
X107227714Y-85605904D01*
X107180095Y-85701142D01*
X107132476Y-85748761D01*
X107037238Y-85796380D01*
X106846761Y-85796380D01*
X106751523Y-85748761D01*
X106703904Y-85701142D01*
X106656285Y-85605904D01*
X106656285Y-85367809D01*
X106703904Y-85272571D01*
X106751523Y-85224952D01*
X106846761Y-85177333D01*
X107037238Y-85177333D01*
X107132476Y-85224952D01*
X107180095Y-85272571D01*
X107227714Y-85367809D01*
%TO.C,R7*%
X107608666Y-83622380D02*
X107942000Y-83146190D01*
X108180095Y-83622380D02*
X108180095Y-82622380D01*
X107799142Y-82622380D01*
X107703904Y-82670000D01*
X107656285Y-82717619D01*
X107608666Y-82812857D01*
X107608666Y-82955714D01*
X107656285Y-83050952D01*
X107703904Y-83098571D01*
X107799142Y-83146190D01*
X108180095Y-83146190D01*
X107275333Y-82622380D02*
X106608666Y-82622380D01*
X107037238Y-83622380D01*
%TO.C,R8*%
X107608666Y-82098380D02*
X107942000Y-81622190D01*
X108180095Y-82098380D02*
X108180095Y-81098380D01*
X107799142Y-81098380D01*
X107703904Y-81146000D01*
X107656285Y-81193619D01*
X107608666Y-81288857D01*
X107608666Y-81431714D01*
X107656285Y-81526952D01*
X107703904Y-81574571D01*
X107799142Y-81622190D01*
X108180095Y-81622190D01*
X107037238Y-81526952D02*
X107132476Y-81479333D01*
X107180095Y-81431714D01*
X107227714Y-81336476D01*
X107227714Y-81288857D01*
X107180095Y-81193619D01*
X107132476Y-81146000D01*
X107037238Y-81098380D01*
X106846761Y-81098380D01*
X106751523Y-81146000D01*
X106703904Y-81193619D01*
X106656285Y-81288857D01*
X106656285Y-81336476D01*
X106703904Y-81431714D01*
X106751523Y-81479333D01*
X106846761Y-81526952D01*
X107037238Y-81526952D01*
X107132476Y-81574571D01*
X107180095Y-81622190D01*
X107227714Y-81717428D01*
X107227714Y-81907904D01*
X107180095Y-82003142D01*
X107132476Y-82050761D01*
X107037238Y-82098380D01*
X106846761Y-82098380D01*
X106751523Y-82050761D01*
X106703904Y-82003142D01*
X106656285Y-81907904D01*
X106656285Y-81717428D01*
X106703904Y-81622190D01*
X106751523Y-81574571D01*
X106846761Y-81526952D01*
%TO.C,U1*%
X100761904Y-94172380D02*
X100761904Y-94981904D01*
X100714285Y-95077142D01*
X100666666Y-95124761D01*
X100571428Y-95172380D01*
X100380952Y-95172380D01*
X100285714Y-95124761D01*
X100238095Y-95077142D01*
X100190476Y-94981904D01*
X100190476Y-94172380D01*
X99190476Y-95172380D02*
X99761904Y-95172380D01*
X99476190Y-95172380D02*
X99476190Y-94172380D01*
X99571428Y-94315238D01*
X99666666Y-94410476D01*
X99761904Y-94458095D01*
%TD*%
M02*
