%TF.GenerationSoftware,KiCad,Pcbnew,5.1.7-a382d34a8~88~ubuntu18.04.1*%
%TF.CreationDate,2022-04-19T18:24:53-07:00*%
%TF.ProjectId,cv-extractor,63762d65-7874-4726-9163-746f722e6b69,rev?*%
%TF.SameCoordinates,Original*%
%TF.FileFunction,Copper,L2,Bot*%
%TF.FilePolarity,Positive*%
%FSLAX46Y46*%
G04 Gerber Fmt 4.6, Leading zero omitted, Abs format (unit mm)*
G04 Created by KiCad (PCBNEW 5.1.7-a382d34a8~88~ubuntu18.04.1) date 2022-04-19 18:24:53*
%MOMM*%
%LPD*%
G01*
G04 APERTURE LIST*
%TA.AperFunction,ComponentPad*%
%ADD10C,3.500000*%
%TD*%
%TA.AperFunction,ComponentPad*%
%ADD11R,2.000000X1.000000*%
%TD*%
%TA.AperFunction,ComponentPad*%
%ADD12R,2.000000X3.700000*%
%TD*%
%TA.AperFunction,ComponentPad*%
%ADD13C,1.500000*%
%TD*%
%TA.AperFunction,SMDPad,CuDef*%
%ADD14R,0.500000X0.500000*%
%TD*%
%TA.AperFunction,SMDPad,CuDef*%
%ADD15R,4.300000X2.000000*%
%TD*%
%TA.AperFunction,ComponentPad*%
%ADD16R,3.500000X3.500000*%
%TD*%
%TA.AperFunction,ComponentPad*%
%ADD17C,1.600000*%
%TD*%
%TA.AperFunction,ComponentPad*%
%ADD18C,1.600200*%
%TD*%
%TA.AperFunction,SMDPad,CuDef*%
%ADD19C,0.100000*%
%TD*%
%TA.AperFunction,ViaPad*%
%ADD20C,0.800000*%
%TD*%
%TA.AperFunction,Conductor*%
%ADD21C,0.250000*%
%TD*%
%TA.AperFunction,Conductor*%
%ADD22C,0.500000*%
%TD*%
%TA.AperFunction,Conductor*%
%ADD23C,1.000000*%
%TD*%
%TA.AperFunction,Conductor*%
%ADD24C,0.254000*%
%TD*%
%TA.AperFunction,Conductor*%
%ADD25C,0.100000*%
%TD*%
G04 APERTURE END LIST*
D10*
%TO.P,J2,*%
%TO.N,*%
X100000000Y-103750000D03*
D11*
%TO.P,J2,3*%
%TO.N,Net-(C5-Pad2)*%
X100000000Y-108670000D03*
%TO.P,J2,2*%
X100000000Y-100370000D03*
%TO.P,J2,1*%
%TO.N,GND*%
X100000000Y-97270000D03*
%TD*%
D10*
%TO.P,J1,*%
%TO.N,*%
X100000000Y-27500000D03*
D11*
%TO.P,J1,3*%
%TO.N,Net-(J1-Pad2)*%
X100000000Y-32420000D03*
%TO.P,J1,2*%
X100000000Y-24120000D03*
%TO.P,J1,1*%
%TO.N,GND*%
X100000000Y-21020000D03*
%TD*%
D12*
%TO.P,RV1,*%
%TO.N,*%
X107650000Y-70550000D03*
D13*
%TO.P,RV1,6*%
%TO.N,Net-(C1-Pad2)*%
X105000000Y-80550000D03*
%TO.P,RV1,3*%
%TO.N,Net-(C5-Pad1)*%
X103000000Y-80550000D03*
%TO.P,RV1,2*%
%TO.N,Net-(R7-Pad1)*%
X101000000Y-80550000D03*
%TO.P,RV1,1*%
X99000000Y-80550000D03*
%TO.P,RV1,4*%
%TO.N,Net-(R8-Pad1)*%
X97000000Y-80550000D03*
%TO.P,RV1,5*%
%TO.N,Net-(C1-Pad2)*%
X95000000Y-80550000D03*
D12*
%TO.P,RV1,*%
%TO.N,*%
X92350000Y-70550000D03*
%TD*%
D14*
%TO.P,D1,2*%
%TO.N,Net-(D1-Pad2)*%
X105250000Y-84625000D03*
%TO.P,D1,1*%
%TO.N,Net-(D1-Pad1)*%
X103050000Y-84625000D03*
%TD*%
%TO.P,D2,2*%
%TO.N,Net-(D2-Pad2)*%
X108575000Y-84600000D03*
%TO.P,D2,1*%
%TO.N,Net-(D1-Pad2)*%
X106375000Y-84600000D03*
%TD*%
D15*
%TO.P,TP4,1*%
%TO.N,GND*%
X88500000Y-39700000D03*
%TD*%
%TO.P,TP2,1*%
%TO.N,Net-(JP2-Pad2)*%
X88500000Y-54800000D03*
%TD*%
%TO.P,TP3,1*%
%TO.N,Net-(C5-Pad2)*%
X88500000Y-51800000D03*
%TD*%
%TO.P,TP1,1*%
%TO.N,Net-(JP1-Pad1)*%
X88500000Y-46700000D03*
%TD*%
%TO.P,C6,2*%
%TO.N,Net-(C5-Pad2)*%
%TA.AperFunction,SMDPad,CuDef*%
G36*
G01*
X100000000Y-72850000D02*
X100000000Y-73350000D01*
G75*
G02*
X99775000Y-73575000I-225000J0D01*
G01*
X99325000Y-73575000D01*
G75*
G02*
X99100000Y-73350000I0J225000D01*
G01*
X99100000Y-72850000D01*
G75*
G02*
X99325000Y-72625000I225000J0D01*
G01*
X99775000Y-72625000D01*
G75*
G02*
X100000000Y-72850000I0J-225000D01*
G01*
G37*
%TD.AperFunction*%
%TO.P,C6,1*%
%TO.N,Net-(C5-Pad1)*%
%TA.AperFunction,SMDPad,CuDef*%
G36*
G01*
X101550000Y-72850000D02*
X101550000Y-73350000D01*
G75*
G02*
X101325000Y-73575000I-225000J0D01*
G01*
X100875000Y-73575000D01*
G75*
G02*
X100650000Y-73350000I0J225000D01*
G01*
X100650000Y-72850000D01*
G75*
G02*
X100875000Y-72625000I225000J0D01*
G01*
X101325000Y-72625000D01*
G75*
G02*
X101550000Y-72850000I0J-225000D01*
G01*
G37*
%TD.AperFunction*%
%TD*%
%TO.P,C1,2*%
%TO.N,Net-(C1-Pad2)*%
%TA.AperFunction,SMDPad,CuDef*%
G36*
G01*
X106225000Y-78950000D02*
X106225000Y-78450000D01*
G75*
G02*
X106450000Y-78225000I225000J0D01*
G01*
X106900000Y-78225000D01*
G75*
G02*
X107125000Y-78450000I0J-225000D01*
G01*
X107125000Y-78950000D01*
G75*
G02*
X106900000Y-79175000I-225000J0D01*
G01*
X106450000Y-79175000D01*
G75*
G02*
X106225000Y-78950000I0J225000D01*
G01*
G37*
%TD.AperFunction*%
%TO.P,C1,1*%
%TO.N,GND*%
%TA.AperFunction,SMDPad,CuDef*%
G36*
G01*
X104675000Y-78950000D02*
X104675000Y-78450000D01*
G75*
G02*
X104900000Y-78225000I225000J0D01*
G01*
X105350000Y-78225000D01*
G75*
G02*
X105575000Y-78450000I0J-225000D01*
G01*
X105575000Y-78950000D01*
G75*
G02*
X105350000Y-79175000I-225000J0D01*
G01*
X104900000Y-79175000D01*
G75*
G02*
X104675000Y-78950000I0J225000D01*
G01*
G37*
%TD.AperFunction*%
%TD*%
%TO.P,C8,2*%
%TO.N,-12V*%
%TA.AperFunction,SMDPad,CuDef*%
G36*
G01*
X94825000Y-97275000D02*
X94825000Y-96175000D01*
G75*
G02*
X95075000Y-95925000I250000J0D01*
G01*
X98075000Y-95925000D01*
G75*
G02*
X98325000Y-96175000I0J-250000D01*
G01*
X98325000Y-97275000D01*
G75*
G02*
X98075000Y-97525000I-250000J0D01*
G01*
X95075000Y-97525000D01*
G75*
G02*
X94825000Y-97275000I0J250000D01*
G01*
G37*
%TD.AperFunction*%
%TO.P,C8,1*%
%TO.N,GND*%
%TA.AperFunction,SMDPad,CuDef*%
G36*
G01*
X89425000Y-97275000D02*
X89425000Y-96175000D01*
G75*
G02*
X89675000Y-95925000I250000J0D01*
G01*
X92675000Y-95925000D01*
G75*
G02*
X92925000Y-96175000I0J-250000D01*
G01*
X92925000Y-97275000D01*
G75*
G02*
X92675000Y-97525000I-250000J0D01*
G01*
X89675000Y-97525000D01*
G75*
G02*
X89425000Y-97275000I0J250000D01*
G01*
G37*
%TD.AperFunction*%
%TD*%
D16*
%TO.P,RV2,*%
%TO.N,*%
X105300000Y-39700000D03*
D17*
%TO.P,RV2,2*%
%TO.N,Net-(R12-Pad2)*%
X100000000Y-46700000D03*
%TO.P,RV2,3*%
X102500000Y-46700000D03*
%TO.P,RV2,1*%
%TO.N,Net-(JP1-Pad1)*%
X97500000Y-46700000D03*
D16*
%TO.P,RV2,*%
%TO.N,*%
X94700000Y-39700000D03*
%TD*%
%TO.P,C9,2*%
%TO.N,+12V*%
%TA.AperFunction,SMDPad,CuDef*%
G36*
G01*
X100450000Y-84575000D02*
X100450000Y-85075000D01*
G75*
G02*
X100225000Y-85300000I-225000J0D01*
G01*
X99775000Y-85300000D01*
G75*
G02*
X99550000Y-85075000I0J225000D01*
G01*
X99550000Y-84575000D01*
G75*
G02*
X99775000Y-84350000I225000J0D01*
G01*
X100225000Y-84350000D01*
G75*
G02*
X100450000Y-84575000I0J-225000D01*
G01*
G37*
%TD.AperFunction*%
%TO.P,C9,1*%
%TO.N,GND*%
%TA.AperFunction,SMDPad,CuDef*%
G36*
G01*
X102000000Y-84575000D02*
X102000000Y-85075000D01*
G75*
G02*
X101775000Y-85300000I-225000J0D01*
G01*
X101325000Y-85300000D01*
G75*
G02*
X101100000Y-85075000I0J225000D01*
G01*
X101100000Y-84575000D01*
G75*
G02*
X101325000Y-84350000I225000J0D01*
G01*
X101775000Y-84350000D01*
G75*
G02*
X102000000Y-84575000I0J-225000D01*
G01*
G37*
%TD.AperFunction*%
%TD*%
%TO.P,C10,2*%
%TO.N,GND*%
%TA.AperFunction,SMDPad,CuDef*%
G36*
G01*
X101825000Y-94175000D02*
X101825000Y-93675000D01*
G75*
G02*
X102050000Y-93450000I225000J0D01*
G01*
X102500000Y-93450000D01*
G75*
G02*
X102725000Y-93675000I0J-225000D01*
G01*
X102725000Y-94175000D01*
G75*
G02*
X102500000Y-94400000I-225000J0D01*
G01*
X102050000Y-94400000D01*
G75*
G02*
X101825000Y-94175000I0J225000D01*
G01*
G37*
%TD.AperFunction*%
%TO.P,C10,1*%
%TO.N,-12V*%
%TA.AperFunction,SMDPad,CuDef*%
G36*
G01*
X100275000Y-94175000D02*
X100275000Y-93675000D01*
G75*
G02*
X100500000Y-93450000I225000J0D01*
G01*
X100950000Y-93450000D01*
G75*
G02*
X101175000Y-93675000I0J-225000D01*
G01*
X101175000Y-94175000D01*
G75*
G02*
X100950000Y-94400000I-225000J0D01*
G01*
X100500000Y-94400000D01*
G75*
G02*
X100275000Y-94175000I0J225000D01*
G01*
G37*
%TD.AperFunction*%
%TD*%
D18*
%TO.P,J3,10*%
%TO.N,+12V*%
X105080000Y-116270000D03*
%TO.P,J3,9*%
X105080000Y-113730000D03*
%TO.P,J3,8*%
%TO.N,GND*%
X102540000Y-116270000D03*
%TO.P,J3,7*%
X102540000Y-113730000D03*
%TO.P,J3,6*%
X100000000Y-116270000D03*
%TO.P,J3,5*%
X100000000Y-113730000D03*
%TO.P,J3,4*%
X97460000Y-116270000D03*
%TO.P,J3,3*%
X97460000Y-113730000D03*
%TO.P,J3,2*%
%TO.N,-12V*%
X94920000Y-116270000D03*
%TO.P,J3,1*%
X94920000Y-113730000D03*
%TD*%
%TO.P,R1,2*%
%TO.N,Net-(JP1-Pad2)*%
%TA.AperFunction,SMDPad,CuDef*%
G36*
G01*
X112675000Y-87025000D02*
X112675000Y-86475000D01*
G75*
G02*
X112875000Y-86275000I200000J0D01*
G01*
X113275000Y-86275000D01*
G75*
G02*
X113475000Y-86475000I0J-200000D01*
G01*
X113475000Y-87025000D01*
G75*
G02*
X113275000Y-87225000I-200000J0D01*
G01*
X112875000Y-87225000D01*
G75*
G02*
X112675000Y-87025000I0J200000D01*
G01*
G37*
%TD.AperFunction*%
%TO.P,R1,1*%
%TO.N,Net-(D1-Pad1)*%
%TA.AperFunction,SMDPad,CuDef*%
G36*
G01*
X111025000Y-87025000D02*
X111025000Y-86475000D01*
G75*
G02*
X111225000Y-86275000I200000J0D01*
G01*
X111625000Y-86275000D01*
G75*
G02*
X111825000Y-86475000I0J-200000D01*
G01*
X111825000Y-87025000D01*
G75*
G02*
X111625000Y-87225000I-200000J0D01*
G01*
X111225000Y-87225000D01*
G75*
G02*
X111025000Y-87025000I0J200000D01*
G01*
G37*
%TD.AperFunction*%
%TD*%
%TO.P,R2,2*%
%TO.N,Net-(D1-Pad1)*%
%TA.AperFunction,SMDPad,CuDef*%
G36*
G01*
X111825000Y-88225000D02*
X111825000Y-88775000D01*
G75*
G02*
X111625000Y-88975000I-200000J0D01*
G01*
X111225000Y-88975000D01*
G75*
G02*
X111025000Y-88775000I0J200000D01*
G01*
X111025000Y-88225000D01*
G75*
G02*
X111225000Y-88025000I200000J0D01*
G01*
X111625000Y-88025000D01*
G75*
G02*
X111825000Y-88225000I0J-200000D01*
G01*
G37*
%TD.AperFunction*%
%TO.P,R2,1*%
%TO.N,Net-(D2-Pad2)*%
%TA.AperFunction,SMDPad,CuDef*%
G36*
G01*
X113475000Y-88225000D02*
X113475000Y-88775000D01*
G75*
G02*
X113275000Y-88975000I-200000J0D01*
G01*
X112875000Y-88975000D01*
G75*
G02*
X112675000Y-88775000I0J200000D01*
G01*
X112675000Y-88225000D01*
G75*
G02*
X112875000Y-88025000I200000J0D01*
G01*
X113275000Y-88025000D01*
G75*
G02*
X113475000Y-88225000I0J-200000D01*
G01*
G37*
%TD.AperFunction*%
%TD*%
%TO.P,R3,2*%
%TO.N,Net-(JP1-Pad2)*%
%TA.AperFunction,SMDPad,CuDef*%
G36*
G01*
X111825000Y-89975000D02*
X111825000Y-90525000D01*
G75*
G02*
X111625000Y-90725000I-200000J0D01*
G01*
X111225000Y-90725000D01*
G75*
G02*
X111025000Y-90525000I0J200000D01*
G01*
X111025000Y-89975000D01*
G75*
G02*
X111225000Y-89775000I200000J0D01*
G01*
X111625000Y-89775000D01*
G75*
G02*
X111825000Y-89975000I0J-200000D01*
G01*
G37*
%TD.AperFunction*%
%TO.P,R3,1*%
%TO.N,Net-(R3-Pad1)*%
%TA.AperFunction,SMDPad,CuDef*%
G36*
G01*
X113475000Y-89975000D02*
X113475000Y-90525000D01*
G75*
G02*
X113275000Y-90725000I-200000J0D01*
G01*
X112875000Y-90725000D01*
G75*
G02*
X112675000Y-90525000I0J200000D01*
G01*
X112675000Y-89975000D01*
G75*
G02*
X112875000Y-89775000I200000J0D01*
G01*
X113275000Y-89775000D01*
G75*
G02*
X113475000Y-89975000I0J-200000D01*
G01*
G37*
%TD.AperFunction*%
%TD*%
%TO.P,R4,2*%
%TO.N,Net-(D2-Pad2)*%
%TA.AperFunction,SMDPad,CuDef*%
G36*
G01*
X111825000Y-91725000D02*
X111825000Y-92275000D01*
G75*
G02*
X111625000Y-92475000I-200000J0D01*
G01*
X111225000Y-92475000D01*
G75*
G02*
X111025000Y-92275000I0J200000D01*
G01*
X111025000Y-91725000D01*
G75*
G02*
X111225000Y-91525000I200000J0D01*
G01*
X111625000Y-91525000D01*
G75*
G02*
X111825000Y-91725000I0J-200000D01*
G01*
G37*
%TD.AperFunction*%
%TO.P,R4,1*%
%TO.N,Net-(R3-Pad1)*%
%TA.AperFunction,SMDPad,CuDef*%
G36*
G01*
X113475000Y-91725000D02*
X113475000Y-92275000D01*
G75*
G02*
X113275000Y-92475000I-200000J0D01*
G01*
X112875000Y-92475000D01*
G75*
G02*
X112675000Y-92275000I0J200000D01*
G01*
X112675000Y-91725000D01*
G75*
G02*
X112875000Y-91525000I200000J0D01*
G01*
X113275000Y-91525000D01*
G75*
G02*
X113475000Y-91725000I0J-200000D01*
G01*
G37*
%TD.AperFunction*%
%TD*%
%TO.P,R5,2*%
%TO.N,Net-(D2-Pad2)*%
%TA.AperFunction,SMDPad,CuDef*%
G36*
G01*
X111825000Y-93475000D02*
X111825000Y-94025000D01*
G75*
G02*
X111625000Y-94225000I-200000J0D01*
G01*
X111225000Y-94225000D01*
G75*
G02*
X111025000Y-94025000I0J200000D01*
G01*
X111025000Y-93475000D01*
G75*
G02*
X111225000Y-93275000I200000J0D01*
G01*
X111625000Y-93275000D01*
G75*
G02*
X111825000Y-93475000I0J-200000D01*
G01*
G37*
%TD.AperFunction*%
%TO.P,R5,1*%
%TO.N,Net-(R3-Pad1)*%
%TA.AperFunction,SMDPad,CuDef*%
G36*
G01*
X113475000Y-93475000D02*
X113475000Y-94025000D01*
G75*
G02*
X113275000Y-94225000I-200000J0D01*
G01*
X112875000Y-94225000D01*
G75*
G02*
X112675000Y-94025000I0J200000D01*
G01*
X112675000Y-93475000D01*
G75*
G02*
X112875000Y-93275000I200000J0D01*
G01*
X113275000Y-93275000D01*
G75*
G02*
X113475000Y-93475000I0J-200000D01*
G01*
G37*
%TD.AperFunction*%
%TD*%
%TO.P,R6,2*%
%TO.N,Net-(R3-Pad1)*%
%TA.AperFunction,SMDPad,CuDef*%
G36*
G01*
X112675000Y-95775000D02*
X112675000Y-95225000D01*
G75*
G02*
X112875000Y-95025000I200000J0D01*
G01*
X113275000Y-95025000D01*
G75*
G02*
X113475000Y-95225000I0J-200000D01*
G01*
X113475000Y-95775000D01*
G75*
G02*
X113275000Y-95975000I-200000J0D01*
G01*
X112875000Y-95975000D01*
G75*
G02*
X112675000Y-95775000I0J200000D01*
G01*
G37*
%TD.AperFunction*%
%TO.P,R6,1*%
%TO.N,Net-(JP2-Pad1)*%
%TA.AperFunction,SMDPad,CuDef*%
G36*
G01*
X111025000Y-95775000D02*
X111025000Y-95225000D01*
G75*
G02*
X111225000Y-95025000I200000J0D01*
G01*
X111625000Y-95025000D01*
G75*
G02*
X111825000Y-95225000I0J-200000D01*
G01*
X111825000Y-95775000D01*
G75*
G02*
X111625000Y-95975000I-200000J0D01*
G01*
X111225000Y-95975000D01*
G75*
G02*
X111025000Y-95775000I0J200000D01*
G01*
G37*
%TD.AperFunction*%
%TD*%
%TO.P,R7,2*%
%TO.N,Net-(JP2-Pad2)*%
%TA.AperFunction,SMDPad,CuDef*%
G36*
G01*
X100800000Y-76725000D02*
X100800000Y-76175000D01*
G75*
G02*
X101000000Y-75975000I200000J0D01*
G01*
X101400000Y-75975000D01*
G75*
G02*
X101600000Y-76175000I0J-200000D01*
G01*
X101600000Y-76725000D01*
G75*
G02*
X101400000Y-76925000I-200000J0D01*
G01*
X101000000Y-76925000D01*
G75*
G02*
X100800000Y-76725000I0J200000D01*
G01*
G37*
%TD.AperFunction*%
%TO.P,R7,1*%
%TO.N,Net-(R7-Pad1)*%
%TA.AperFunction,SMDPad,CuDef*%
G36*
G01*
X99150000Y-76725000D02*
X99150000Y-76175000D01*
G75*
G02*
X99350000Y-75975000I200000J0D01*
G01*
X99750000Y-75975000D01*
G75*
G02*
X99950000Y-76175000I0J-200000D01*
G01*
X99950000Y-76725000D01*
G75*
G02*
X99750000Y-76925000I-200000J0D01*
G01*
X99350000Y-76925000D01*
G75*
G02*
X99150000Y-76725000I0J200000D01*
G01*
G37*
%TD.AperFunction*%
%TD*%
%TO.P,R8,2*%
%TO.N,Net-(C5-Pad1)*%
%TA.AperFunction,SMDPad,CuDef*%
G36*
G01*
X100800000Y-78300000D02*
X100800000Y-77750000D01*
G75*
G02*
X101000000Y-77550000I200000J0D01*
G01*
X101400000Y-77550000D01*
G75*
G02*
X101600000Y-77750000I0J-200000D01*
G01*
X101600000Y-78300000D01*
G75*
G02*
X101400000Y-78500000I-200000J0D01*
G01*
X101000000Y-78500000D01*
G75*
G02*
X100800000Y-78300000I0J200000D01*
G01*
G37*
%TD.AperFunction*%
%TO.P,R8,1*%
%TO.N,Net-(R8-Pad1)*%
%TA.AperFunction,SMDPad,CuDef*%
G36*
G01*
X99150000Y-78300000D02*
X99150000Y-77750000D01*
G75*
G02*
X99350000Y-77550000I200000J0D01*
G01*
X99750000Y-77550000D01*
G75*
G02*
X99950000Y-77750000I0J-200000D01*
G01*
X99950000Y-78300000D01*
G75*
G02*
X99750000Y-78500000I-200000J0D01*
G01*
X99350000Y-78500000D01*
G75*
G02*
X99150000Y-78300000I0J200000D01*
G01*
G37*
%TD.AperFunction*%
%TD*%
%TO.P,U1,14*%
%TO.N,Net-(C5-Pad2)*%
%TA.AperFunction,SMDPad,CuDef*%
G36*
G01*
X95790000Y-90925000D02*
X96090000Y-90925000D01*
G75*
G02*
X96240000Y-91075000I0J-150000D01*
G01*
X96240000Y-92725000D01*
G75*
G02*
X96090000Y-92875000I-150000J0D01*
G01*
X95790000Y-92875000D01*
G75*
G02*
X95640000Y-92725000I0J150000D01*
G01*
X95640000Y-91075000D01*
G75*
G02*
X95790000Y-90925000I150000J0D01*
G01*
G37*
%TD.AperFunction*%
%TO.P,U1,13*%
%TO.N,Net-(RV3-Pad2)*%
%TA.AperFunction,SMDPad,CuDef*%
G36*
G01*
X97060000Y-90925000D02*
X97360000Y-90925000D01*
G75*
G02*
X97510000Y-91075000I0J-150000D01*
G01*
X97510000Y-92725000D01*
G75*
G02*
X97360000Y-92875000I-150000J0D01*
G01*
X97060000Y-92875000D01*
G75*
G02*
X96910000Y-92725000I0J150000D01*
G01*
X96910000Y-91075000D01*
G75*
G02*
X97060000Y-90925000I150000J0D01*
G01*
G37*
%TD.AperFunction*%
%TO.P,U1,12*%
%TO.N,Net-(C1-Pad2)*%
%TA.AperFunction,SMDPad,CuDef*%
G36*
G01*
X98330000Y-90925000D02*
X98630000Y-90925000D01*
G75*
G02*
X98780000Y-91075000I0J-150000D01*
G01*
X98780000Y-92725000D01*
G75*
G02*
X98630000Y-92875000I-150000J0D01*
G01*
X98330000Y-92875000D01*
G75*
G02*
X98180000Y-92725000I0J150000D01*
G01*
X98180000Y-91075000D01*
G75*
G02*
X98330000Y-90925000I150000J0D01*
G01*
G37*
%TD.AperFunction*%
%TO.P,U1,11*%
%TO.N,-12V*%
%TA.AperFunction,SMDPad,CuDef*%
G36*
G01*
X99600000Y-90925000D02*
X99900000Y-90925000D01*
G75*
G02*
X100050000Y-91075000I0J-150000D01*
G01*
X100050000Y-92725000D01*
G75*
G02*
X99900000Y-92875000I-150000J0D01*
G01*
X99600000Y-92875000D01*
G75*
G02*
X99450000Y-92725000I0J150000D01*
G01*
X99450000Y-91075000D01*
G75*
G02*
X99600000Y-90925000I150000J0D01*
G01*
G37*
%TD.AperFunction*%
%TO.P,U1,10*%
%TO.N,GND*%
%TA.AperFunction,SMDPad,CuDef*%
G36*
G01*
X100870000Y-90925000D02*
X101170000Y-90925000D01*
G75*
G02*
X101320000Y-91075000I0J-150000D01*
G01*
X101320000Y-92725000D01*
G75*
G02*
X101170000Y-92875000I-150000J0D01*
G01*
X100870000Y-92875000D01*
G75*
G02*
X100720000Y-92725000I0J150000D01*
G01*
X100720000Y-91075000D01*
G75*
G02*
X100870000Y-90925000I150000J0D01*
G01*
G37*
%TD.AperFunction*%
%TO.P,U1,9*%
%TO.N,Net-(R3-Pad1)*%
%TA.AperFunction,SMDPad,CuDef*%
G36*
G01*
X102140000Y-90925000D02*
X102440000Y-90925000D01*
G75*
G02*
X102590000Y-91075000I0J-150000D01*
G01*
X102590000Y-92725000D01*
G75*
G02*
X102440000Y-92875000I-150000J0D01*
G01*
X102140000Y-92875000D01*
G75*
G02*
X101990000Y-92725000I0J150000D01*
G01*
X101990000Y-91075000D01*
G75*
G02*
X102140000Y-90925000I150000J0D01*
G01*
G37*
%TD.AperFunction*%
%TO.P,U1,8*%
%TO.N,Net-(JP2-Pad1)*%
%TA.AperFunction,SMDPad,CuDef*%
G36*
G01*
X103410000Y-90925000D02*
X103710000Y-90925000D01*
G75*
G02*
X103860000Y-91075000I0J-150000D01*
G01*
X103860000Y-92725000D01*
G75*
G02*
X103710000Y-92875000I-150000J0D01*
G01*
X103410000Y-92875000D01*
G75*
G02*
X103260000Y-92725000I0J150000D01*
G01*
X103260000Y-91075000D01*
G75*
G02*
X103410000Y-90925000I150000J0D01*
G01*
G37*
%TD.AperFunction*%
%TO.P,U1,7*%
%TO.N,Net-(D1-Pad2)*%
%TA.AperFunction,SMDPad,CuDef*%
G36*
G01*
X103410000Y-85975000D02*
X103710000Y-85975000D01*
G75*
G02*
X103860000Y-86125000I0J-150000D01*
G01*
X103860000Y-87775000D01*
G75*
G02*
X103710000Y-87925000I-150000J0D01*
G01*
X103410000Y-87925000D01*
G75*
G02*
X103260000Y-87775000I0J150000D01*
G01*
X103260000Y-86125000D01*
G75*
G02*
X103410000Y-85975000I150000J0D01*
G01*
G37*
%TD.AperFunction*%
%TO.P,U1,6*%
%TO.N,Net-(D1-Pad1)*%
%TA.AperFunction,SMDPad,CuDef*%
G36*
G01*
X102140000Y-85975000D02*
X102440000Y-85975000D01*
G75*
G02*
X102590000Y-86125000I0J-150000D01*
G01*
X102590000Y-87775000D01*
G75*
G02*
X102440000Y-87925000I-150000J0D01*
G01*
X102140000Y-87925000D01*
G75*
G02*
X101990000Y-87775000I0J150000D01*
G01*
X101990000Y-86125000D01*
G75*
G02*
X102140000Y-85975000I150000J0D01*
G01*
G37*
%TD.AperFunction*%
%TO.P,U1,5*%
%TO.N,GND*%
%TA.AperFunction,SMDPad,CuDef*%
G36*
G01*
X100870000Y-85975000D02*
X101170000Y-85975000D01*
G75*
G02*
X101320000Y-86125000I0J-150000D01*
G01*
X101320000Y-87775000D01*
G75*
G02*
X101170000Y-87925000I-150000J0D01*
G01*
X100870000Y-87925000D01*
G75*
G02*
X100720000Y-87775000I0J150000D01*
G01*
X100720000Y-86125000D01*
G75*
G02*
X100870000Y-85975000I150000J0D01*
G01*
G37*
%TD.AperFunction*%
%TO.P,U1,4*%
%TO.N,+12V*%
%TA.AperFunction,SMDPad,CuDef*%
G36*
G01*
X99600000Y-85975000D02*
X99900000Y-85975000D01*
G75*
G02*
X100050000Y-86125000I0J-150000D01*
G01*
X100050000Y-87775000D01*
G75*
G02*
X99900000Y-87925000I-150000J0D01*
G01*
X99600000Y-87925000D01*
G75*
G02*
X99450000Y-87775000I0J150000D01*
G01*
X99450000Y-86125000D01*
G75*
G02*
X99600000Y-85975000I150000J0D01*
G01*
G37*
%TD.AperFunction*%
%TO.P,U1,3*%
%TO.N,Net-(J1-Pad2)*%
%TA.AperFunction,SMDPad,CuDef*%
G36*
G01*
X98330000Y-85975000D02*
X98630000Y-85975000D01*
G75*
G02*
X98780000Y-86125000I0J-150000D01*
G01*
X98780000Y-87775000D01*
G75*
G02*
X98630000Y-87925000I-150000J0D01*
G01*
X98330000Y-87925000D01*
G75*
G02*
X98180000Y-87775000I0J150000D01*
G01*
X98180000Y-86125000D01*
G75*
G02*
X98330000Y-85975000I150000J0D01*
G01*
G37*
%TD.AperFunction*%
%TO.P,U1,2*%
%TO.N,Net-(R12-Pad2)*%
%TA.AperFunction,SMDPad,CuDef*%
G36*
G01*
X97060000Y-85975000D02*
X97360000Y-85975000D01*
G75*
G02*
X97510000Y-86125000I0J-150000D01*
G01*
X97510000Y-87775000D01*
G75*
G02*
X97360000Y-87925000I-150000J0D01*
G01*
X97060000Y-87925000D01*
G75*
G02*
X96910000Y-87775000I0J150000D01*
G01*
X96910000Y-86125000D01*
G75*
G02*
X97060000Y-85975000I150000J0D01*
G01*
G37*
%TD.AperFunction*%
%TO.P,U1,1*%
%TO.N,Net-(JP1-Pad1)*%
%TA.AperFunction,SMDPad,CuDef*%
G36*
G01*
X95790000Y-85975000D02*
X96090000Y-85975000D01*
G75*
G02*
X96240000Y-86125000I0J-150000D01*
G01*
X96240000Y-87775000D01*
G75*
G02*
X96090000Y-87925000I-150000J0D01*
G01*
X95790000Y-87925000D01*
G75*
G02*
X95640000Y-87775000I0J150000D01*
G01*
X95640000Y-86125000D01*
G75*
G02*
X95790000Y-85975000I150000J0D01*
G01*
G37*
%TD.AperFunction*%
%TD*%
%TO.P,C5,2*%
%TO.N,Net-(C5-Pad2)*%
%TA.AperFunction,SMDPad,CuDef*%
G36*
G01*
X100000000Y-74525000D02*
X100000000Y-75025000D01*
G75*
G02*
X99775000Y-75250000I-225000J0D01*
G01*
X99325000Y-75250000D01*
G75*
G02*
X99100000Y-75025000I0J225000D01*
G01*
X99100000Y-74525000D01*
G75*
G02*
X99325000Y-74300000I225000J0D01*
G01*
X99775000Y-74300000D01*
G75*
G02*
X100000000Y-74525000I0J-225000D01*
G01*
G37*
%TD.AperFunction*%
%TO.P,C5,1*%
%TO.N,Net-(C5-Pad1)*%
%TA.AperFunction,SMDPad,CuDef*%
G36*
G01*
X101550000Y-74525000D02*
X101550000Y-75025000D01*
G75*
G02*
X101325000Y-75250000I-225000J0D01*
G01*
X100875000Y-75250000D01*
G75*
G02*
X100650000Y-75025000I0J225000D01*
G01*
X100650000Y-74525000D01*
G75*
G02*
X100875000Y-74300000I225000J0D01*
G01*
X101325000Y-74300000D01*
G75*
G02*
X101550000Y-74525000I0J-225000D01*
G01*
G37*
%TD.AperFunction*%
%TD*%
%TA.AperFunction,SMDPad,CuDef*%
D19*
%TO.P,JP1,2*%
%TO.N,Net-(JP1-Pad2)*%
G36*
X107500000Y-88000602D02*
G01*
X107524534Y-88000602D01*
X107573365Y-88005412D01*
X107621490Y-88014984D01*
X107668445Y-88029228D01*
X107713778Y-88048005D01*
X107757051Y-88071136D01*
X107797850Y-88098396D01*
X107835779Y-88129524D01*
X107870476Y-88164221D01*
X107901604Y-88202150D01*
X107928864Y-88242949D01*
X107951995Y-88286222D01*
X107970772Y-88331555D01*
X107985016Y-88378510D01*
X107994588Y-88426635D01*
X107999398Y-88475466D01*
X107999398Y-88500000D01*
X108000000Y-88500000D01*
X108000000Y-89000000D01*
X107999398Y-89000000D01*
X107999398Y-89024534D01*
X107994588Y-89073365D01*
X107985016Y-89121490D01*
X107970772Y-89168445D01*
X107951995Y-89213778D01*
X107928864Y-89257051D01*
X107901604Y-89297850D01*
X107870476Y-89335779D01*
X107835779Y-89370476D01*
X107797850Y-89401604D01*
X107757051Y-89428864D01*
X107713778Y-89451995D01*
X107668445Y-89470772D01*
X107621490Y-89485016D01*
X107573365Y-89494588D01*
X107524534Y-89499398D01*
X107500000Y-89499398D01*
X107500000Y-89500000D01*
X107000000Y-89500000D01*
X107000000Y-88000000D01*
X107500000Y-88000000D01*
X107500000Y-88000602D01*
G37*
%TD.AperFunction*%
%TA.AperFunction,SMDPad,CuDef*%
%TO.P,JP1,1*%
%TO.N,Net-(JP1-Pad1)*%
G36*
X106700000Y-89500000D02*
G01*
X106200000Y-89500000D01*
X106200000Y-89499398D01*
X106175466Y-89499398D01*
X106126635Y-89494588D01*
X106078510Y-89485016D01*
X106031555Y-89470772D01*
X105986222Y-89451995D01*
X105942949Y-89428864D01*
X105902150Y-89401604D01*
X105864221Y-89370476D01*
X105829524Y-89335779D01*
X105798396Y-89297850D01*
X105771136Y-89257051D01*
X105748005Y-89213778D01*
X105729228Y-89168445D01*
X105714984Y-89121490D01*
X105705412Y-89073365D01*
X105700602Y-89024534D01*
X105700602Y-89000000D01*
X105700000Y-89000000D01*
X105700000Y-88500000D01*
X105700602Y-88500000D01*
X105700602Y-88475466D01*
X105705412Y-88426635D01*
X105714984Y-88378510D01*
X105729228Y-88331555D01*
X105748005Y-88286222D01*
X105771136Y-88242949D01*
X105798396Y-88202150D01*
X105829524Y-88164221D01*
X105864221Y-88129524D01*
X105902150Y-88098396D01*
X105942949Y-88071136D01*
X105986222Y-88048005D01*
X106031555Y-88029228D01*
X106078510Y-88014984D01*
X106126635Y-88005412D01*
X106175466Y-88000602D01*
X106200000Y-88000602D01*
X106200000Y-88000000D01*
X106700000Y-88000000D01*
X106700000Y-89500000D01*
G37*
%TD.AperFunction*%
%TD*%
%TA.AperFunction,SMDPad,CuDef*%
%TO.P,JP2,2*%
%TO.N,Net-(JP2-Pad2)*%
G36*
X106600000Y-77249398D02*
G01*
X106575466Y-77249398D01*
X106526635Y-77244588D01*
X106478510Y-77235016D01*
X106431555Y-77220772D01*
X106386222Y-77201995D01*
X106342949Y-77178864D01*
X106302150Y-77151604D01*
X106264221Y-77120476D01*
X106229524Y-77085779D01*
X106198396Y-77047850D01*
X106171136Y-77007051D01*
X106148005Y-76963778D01*
X106129228Y-76918445D01*
X106114984Y-76871490D01*
X106105412Y-76823365D01*
X106100602Y-76774534D01*
X106100602Y-76750000D01*
X106100000Y-76750000D01*
X106100000Y-76250000D01*
X106100602Y-76250000D01*
X106100602Y-76225466D01*
X106105412Y-76176635D01*
X106114984Y-76128510D01*
X106129228Y-76081555D01*
X106148005Y-76036222D01*
X106171136Y-75992949D01*
X106198396Y-75952150D01*
X106229524Y-75914221D01*
X106264221Y-75879524D01*
X106302150Y-75848396D01*
X106342949Y-75821136D01*
X106386222Y-75798005D01*
X106431555Y-75779228D01*
X106478510Y-75764984D01*
X106526635Y-75755412D01*
X106575466Y-75750602D01*
X106600000Y-75750602D01*
X106600000Y-75750000D01*
X107100000Y-75750000D01*
X107100000Y-77250000D01*
X106600000Y-77250000D01*
X106600000Y-77249398D01*
G37*
%TD.AperFunction*%
%TA.AperFunction,SMDPad,CuDef*%
%TO.P,JP2,1*%
%TO.N,Net-(JP2-Pad1)*%
G36*
X107400000Y-75750000D02*
G01*
X107900000Y-75750000D01*
X107900000Y-75750602D01*
X107924534Y-75750602D01*
X107973365Y-75755412D01*
X108021490Y-75764984D01*
X108068445Y-75779228D01*
X108113778Y-75798005D01*
X108157051Y-75821136D01*
X108197850Y-75848396D01*
X108235779Y-75879524D01*
X108270476Y-75914221D01*
X108301604Y-75952150D01*
X108328864Y-75992949D01*
X108351995Y-76036222D01*
X108370772Y-76081555D01*
X108385016Y-76128510D01*
X108394588Y-76176635D01*
X108399398Y-76225466D01*
X108399398Y-76250000D01*
X108400000Y-76250000D01*
X108400000Y-76750000D01*
X108399398Y-76750000D01*
X108399398Y-76774534D01*
X108394588Y-76823365D01*
X108385016Y-76871490D01*
X108370772Y-76918445D01*
X108351995Y-76963778D01*
X108328864Y-77007051D01*
X108301604Y-77047850D01*
X108270476Y-77085779D01*
X108235779Y-77120476D01*
X108197850Y-77151604D01*
X108157051Y-77178864D01*
X108113778Y-77201995D01*
X108068445Y-77220772D01*
X108021490Y-77235016D01*
X107973365Y-77244588D01*
X107924534Y-77249398D01*
X107900000Y-77249398D01*
X107900000Y-77250000D01*
X107400000Y-77250000D01*
X107400000Y-75750000D01*
G37*
%TD.AperFunction*%
%TD*%
%TO.P,R12,2*%
%TO.N,Net-(R12-Pad2)*%
%TA.AperFunction,SMDPad,CuDef*%
G36*
G01*
X104850000Y-46450000D02*
X104850000Y-47000000D01*
G75*
G02*
X104650000Y-47200000I-200000J0D01*
G01*
X104250000Y-47200000D01*
G75*
G02*
X104050000Y-47000000I0J200000D01*
G01*
X104050000Y-46450000D01*
G75*
G02*
X104250000Y-46250000I200000J0D01*
G01*
X104650000Y-46250000D01*
G75*
G02*
X104850000Y-46450000I0J-200000D01*
G01*
G37*
%TD.AperFunction*%
%TO.P,R12,1*%
%TO.N,GND*%
%TA.AperFunction,SMDPad,CuDef*%
G36*
G01*
X106500000Y-46450000D02*
X106500000Y-47000000D01*
G75*
G02*
X106300000Y-47200000I-200000J0D01*
G01*
X105900000Y-47200000D01*
G75*
G02*
X105700000Y-47000000I0J200000D01*
G01*
X105700000Y-46450000D01*
G75*
G02*
X105900000Y-46250000I200000J0D01*
G01*
X106300000Y-46250000D01*
G75*
G02*
X106500000Y-46450000I0J-200000D01*
G01*
G37*
%TD.AperFunction*%
%TD*%
%TO.P,R9,2*%
%TO.N,Net-(R9-Pad2)*%
%TA.AperFunction,SMDPad,CuDef*%
G36*
G01*
X95175000Y-62175000D02*
X95175000Y-61625000D01*
G75*
G02*
X95375000Y-61425000I200000J0D01*
G01*
X95775000Y-61425000D01*
G75*
G02*
X95975000Y-61625000I0J-200000D01*
G01*
X95975000Y-62175000D01*
G75*
G02*
X95775000Y-62375000I-200000J0D01*
G01*
X95375000Y-62375000D01*
G75*
G02*
X95175000Y-62175000I0J200000D01*
G01*
G37*
%TD.AperFunction*%
%TO.P,R9,1*%
%TO.N,GND*%
%TA.AperFunction,SMDPad,CuDef*%
G36*
G01*
X93525000Y-62175000D02*
X93525000Y-61625000D01*
G75*
G02*
X93725000Y-61425000I200000J0D01*
G01*
X94125000Y-61425000D01*
G75*
G02*
X94325000Y-61625000I0J-200000D01*
G01*
X94325000Y-62175000D01*
G75*
G02*
X94125000Y-62375000I-200000J0D01*
G01*
X93725000Y-62375000D01*
G75*
G02*
X93525000Y-62175000I0J200000D01*
G01*
G37*
%TD.AperFunction*%
%TD*%
%TO.P,RD1,1*%
%TO.N,GND*%
%TA.AperFunction,SMDPad,CuDef*%
G36*
G01*
X97075000Y-23000000D02*
X97625000Y-23000000D01*
G75*
G02*
X97825000Y-23200000I0J-200000D01*
G01*
X97825000Y-23600000D01*
G75*
G02*
X97625000Y-23800000I-200000J0D01*
G01*
X97075000Y-23800000D01*
G75*
G02*
X96875000Y-23600000I0J200000D01*
G01*
X96875000Y-23200000D01*
G75*
G02*
X97075000Y-23000000I200000J0D01*
G01*
G37*
%TD.AperFunction*%
%TO.P,RD1,2*%
%TO.N,Net-(J1-Pad2)*%
%TA.AperFunction,SMDPad,CuDef*%
G36*
G01*
X97075000Y-24650000D02*
X97625000Y-24650000D01*
G75*
G02*
X97825000Y-24850000I0J-200000D01*
G01*
X97825000Y-25250000D01*
G75*
G02*
X97625000Y-25450000I-200000J0D01*
G01*
X97075000Y-25450000D01*
G75*
G02*
X96875000Y-25250000I0J200000D01*
G01*
X96875000Y-24850000D01*
G75*
G02*
X97075000Y-24650000I200000J0D01*
G01*
G37*
%TD.AperFunction*%
%TD*%
D16*
%TO.P,RV3,*%
%TO.N,*%
X94700000Y-55000000D03*
D17*
%TO.P,RV3,1*%
%TO.N,Net-(R9-Pad2)*%
X97500000Y-62000000D03*
%TO.P,RV3,3*%
%TO.N,Net-(C5-Pad2)*%
X102500000Y-62000000D03*
%TO.P,RV3,2*%
%TO.N,Net-(RV3-Pad2)*%
X100000000Y-62000000D03*
D16*
%TO.P,RV3,*%
%TO.N,*%
X105300000Y-55000000D03*
%TD*%
%TO.P,C7,1*%
%TO.N,+12V*%
%TA.AperFunction,SMDPad,CuDef*%
G36*
G01*
X95175000Y-83300000D02*
X95175000Y-84400000D01*
G75*
G02*
X94925000Y-84650000I-250000J0D01*
G01*
X91925000Y-84650000D01*
G75*
G02*
X91675000Y-84400000I0J250000D01*
G01*
X91675000Y-83300000D01*
G75*
G02*
X91925000Y-83050000I250000J0D01*
G01*
X94925000Y-83050000D01*
G75*
G02*
X95175000Y-83300000I0J-250000D01*
G01*
G37*
%TD.AperFunction*%
%TO.P,C7,2*%
%TO.N,GND*%
%TA.AperFunction,SMDPad,CuDef*%
G36*
G01*
X89775000Y-83300000D02*
X89775000Y-84400000D01*
G75*
G02*
X89525000Y-84650000I-250000J0D01*
G01*
X86525000Y-84650000D01*
G75*
G02*
X86275000Y-84400000I0J250000D01*
G01*
X86275000Y-83300000D01*
G75*
G02*
X86525000Y-83050000I250000J0D01*
G01*
X89525000Y-83050000D01*
G75*
G02*
X89775000Y-83300000I0J-250000D01*
G01*
G37*
%TD.AperFunction*%
%TD*%
D20*
%TO.N,Net-(C1-Pad2)*%
X92750000Y-89250000D03*
%TO.N,GND*%
X101000000Y-88375000D03*
X104400000Y-77400000D03*
X87700000Y-79100000D03*
X102600000Y-65400000D03*
X107600000Y-66300000D03*
X94200000Y-77700000D03*
X96100000Y-83600000D03*
X106800000Y-86700000D03*
X108300000Y-92800000D03*
X96400000Y-95100000D03*
X100700000Y-106900000D03*
X94000000Y-49900000D03*
X101400000Y-49400000D03*
X100300000Y-64400000D03*
X111550000Y-68350000D03*
%TO.N,Net-(R3-Pad1)*%
X110000000Y-91250000D03*
X109750000Y-96500000D03*
%TO.N,+12V*%
X99850000Y-88853002D03*
%TO.N,Net-(C5-Pad2)*%
X89625000Y-90875000D03*
X89625000Y-87375000D03*
X98025000Y-74775000D03*
X92617501Y-73717501D03*
%TO.N,Net-(C5-Pad1)*%
X102550000Y-75050000D03*
%TO.N,Net-(JP1-Pad1)*%
X95103500Y-86950000D03*
X98250000Y-88750000D03*
X111400000Y-80200000D03*
%TO.N,Net-(JP2-Pad2)*%
X102100000Y-70700000D03*
X94200000Y-66100000D03*
%TO.N,Net-(R12-Pad2)*%
X97500000Y-85300000D03*
X113000000Y-83100000D03*
%TO.N,Net-(RV3-Pad2)*%
X91500000Y-90250000D03*
X91500000Y-87250000D03*
%TD*%
D21*
%TO.N,Net-(C1-Pad2)*%
X96483999Y-81625001D02*
X104099999Y-81625001D01*
X95000000Y-80550000D02*
X95408998Y-80550000D01*
X95408998Y-80550000D02*
X96483999Y-81625001D01*
X104099999Y-81625001D02*
X105200000Y-80525000D01*
X105200000Y-80525000D02*
X105275000Y-80525000D01*
X98480000Y-91900000D02*
X98480000Y-92875000D01*
X98480000Y-90925000D02*
X96805000Y-89250000D01*
X98480000Y-91900000D02*
X98480000Y-90925000D01*
X96805000Y-89250000D02*
X92750000Y-89250000D01*
X92750000Y-89250000D02*
X92750000Y-89250000D01*
X105000000Y-80550000D02*
X106800000Y-78750000D01*
X106800000Y-78750000D02*
X106800000Y-78600000D01*
X106800000Y-78600000D02*
X106900000Y-78600000D01*
%TO.N,Net-(D1-Pad1)*%
X102290000Y-86950000D02*
X102290000Y-85535000D01*
X102290000Y-85535000D02*
X103050000Y-84775000D01*
X111425000Y-88500000D02*
X111425000Y-86925000D01*
X111425000Y-86925000D02*
X111250000Y-86750000D01*
X106914997Y-84024999D02*
X103725001Y-84024999D01*
X111425000Y-86750000D02*
X109639998Y-86750000D01*
X109639998Y-86750000D02*
X106914997Y-84024999D01*
X103725001Y-84024999D02*
X103000000Y-84750000D01*
%TO.N,Net-(D1-Pad2)*%
X103560000Y-86950000D02*
X105275000Y-85235000D01*
X105275000Y-85235000D02*
X105275000Y-84700000D01*
X105275000Y-84700000D02*
X105300000Y-84700000D01*
X105300000Y-84700000D02*
X106225000Y-84700000D01*
X106225000Y-84700000D02*
X106275000Y-84650000D01*
%TO.N,Net-(D2-Pad2)*%
X111425000Y-93750000D02*
X111425000Y-92175000D01*
X111425000Y-92175000D02*
X111250000Y-92000000D01*
X112150010Y-89899990D02*
X112150010Y-91099990D01*
X113075000Y-88975000D02*
X112150010Y-89899990D01*
X113075000Y-88500000D02*
X113075000Y-88975000D01*
X112150010Y-91099990D02*
X111875000Y-91375000D01*
X111250000Y-92000000D02*
X111875000Y-91375000D01*
X113800010Y-86257532D02*
X112042478Y-84500000D01*
X113075000Y-88500000D02*
X113800010Y-87774990D01*
X113800010Y-87774990D02*
X113800010Y-86257532D01*
X112042478Y-84500000D02*
X108500000Y-84500000D01*
%TO.N,GND*%
X101020000Y-88455000D02*
X100925000Y-88550000D01*
X101020000Y-86950000D02*
X101020000Y-88455000D01*
D22*
X102287500Y-93721044D02*
X101000000Y-92433544D01*
X102287500Y-93925000D02*
X102287500Y-93721044D01*
X101000000Y-92433544D02*
X101000000Y-91925000D01*
X101020000Y-88355000D02*
X101000000Y-88375000D01*
X101020000Y-86950000D02*
X101020000Y-88355000D01*
D21*
X101020000Y-86950000D02*
X101020000Y-85380000D01*
X101020000Y-85380000D02*
X101500000Y-84900000D01*
%TO.N,Net-(J1-Pad2)*%
X100000000Y-24120000D02*
X98430000Y-24120000D01*
X98430000Y-24120000D02*
X97500000Y-25050000D01*
X97500000Y-25050000D02*
X97500000Y-30150000D01*
X97500000Y-30150000D02*
X99850000Y-32500000D01*
X91250000Y-30150000D02*
X97500000Y-30150000D01*
X85350010Y-85399990D02*
X85350010Y-36049990D01*
X98575000Y-87000000D02*
X98575000Y-87231768D01*
X98575000Y-87231768D02*
X97528384Y-88278384D01*
X87548842Y-87250000D02*
X87200020Y-87250000D01*
X87200020Y-87250000D02*
X85350010Y-85399990D01*
X97528384Y-88278384D02*
X88577226Y-88278384D01*
X85350010Y-36049990D02*
X91250000Y-30150000D01*
X88577226Y-88278384D02*
X87548842Y-87250000D01*
%TO.N,Net-(R3-Pad1)*%
X102250000Y-91940000D02*
X102290000Y-91900000D01*
X102290000Y-91900000D02*
X102290000Y-92276768D01*
X102136990Y-92053010D02*
X102290000Y-91900000D01*
X113075000Y-95500000D02*
X113075000Y-90075000D01*
X113075000Y-90075000D02*
X113000000Y-90150000D01*
X113000000Y-90150000D02*
X113000000Y-90250000D01*
X102615010Y-90599990D02*
X109349990Y-90599990D01*
X102290000Y-91900000D02*
X102290000Y-90925000D01*
X102290000Y-90925000D02*
X102615010Y-90599990D01*
X109349990Y-90599990D02*
X110000000Y-91250000D01*
X110000000Y-91250000D02*
X110000000Y-91250000D01*
X113075000Y-95500000D02*
X112075000Y-96500000D01*
X112075000Y-96500000D02*
X109750000Y-96500000D01*
X109750000Y-96500000D02*
X109750000Y-96500000D01*
%TO.N,+12V*%
X99750000Y-86950000D02*
X99750000Y-87925000D01*
X99750000Y-84875000D02*
X99975000Y-84650000D01*
X99750000Y-85600000D02*
X96975000Y-82825000D01*
X99750000Y-85600000D02*
X99750000Y-84875000D01*
X99750000Y-86950000D02*
X99750000Y-85600000D01*
X96975000Y-82825000D02*
X96925000Y-82775000D01*
X96925000Y-82775000D02*
X93950000Y-82775000D01*
X93950000Y-82775000D02*
X93275000Y-83450000D01*
X93275000Y-83450000D02*
X93250000Y-83450000D01*
D23*
X105080000Y-116270000D02*
X105080000Y-113920000D01*
X99850000Y-88853002D02*
X99850000Y-88853002D01*
X99850000Y-88853002D02*
X99850000Y-87175000D01*
D21*
%TO.N,-12V*%
X99750000Y-92784000D02*
X99750000Y-91900000D01*
X99750000Y-91523232D02*
X99750000Y-91900000D01*
X99800000Y-91850000D02*
X99750000Y-91900000D01*
X99750000Y-92875000D02*
X99750000Y-91900000D01*
X99750000Y-91900000D02*
X99750000Y-92850000D01*
X99750000Y-92850000D02*
X100625000Y-93725000D01*
X99750000Y-91900000D02*
X99750000Y-94125000D01*
X99750000Y-94125000D02*
X97050000Y-96825000D01*
X97050000Y-96825000D02*
X97075000Y-96825000D01*
D23*
X94920000Y-116270000D02*
X94920000Y-113670000D01*
X101560001Y-109870001D02*
X102775000Y-108655002D01*
X94920000Y-113670000D02*
X98719999Y-109870001D01*
X98719999Y-109870001D02*
X101560001Y-109870001D01*
X102775000Y-97284998D02*
X99650000Y-94159998D01*
X102775000Y-108655002D02*
X102775000Y-97284998D01*
X99650000Y-94159998D02*
X99650000Y-92275000D01*
D21*
%TO.N,Net-(R7-Pad1)*%
X100275010Y-77175010D02*
X100275010Y-80075010D01*
X99550000Y-76450000D02*
X100275010Y-77175010D01*
X100275010Y-80075010D02*
X99950020Y-80400000D01*
X99950020Y-80400000D02*
X99225000Y-80400000D01*
X99225000Y-80400000D02*
X100625000Y-80400000D01*
X100625000Y-80400000D02*
X100650000Y-80375000D01*
%TO.N,Net-(R8-Pad1)*%
X99550000Y-78025000D02*
X99125000Y-78025000D01*
X99125000Y-78025000D02*
X96950000Y-80200000D01*
%TO.N,Net-(C5-Pad2)*%
X97924999Y-106594999D02*
X97924999Y-101975001D01*
X100000000Y-108670000D02*
X97924999Y-106594999D01*
X97924999Y-101975001D02*
X99900000Y-100000000D01*
X94499990Y-97513180D02*
X94499990Y-93275010D01*
X100000000Y-100370000D02*
X97356810Y-100370000D01*
X97356810Y-100370000D02*
X94499990Y-97513180D01*
X94499990Y-93275010D02*
X96000000Y-91775000D01*
X95940000Y-91900000D02*
X90650000Y-91900000D01*
X90650000Y-91900000D02*
X89625000Y-90875000D01*
X89625000Y-90875000D02*
X89500000Y-90750000D01*
X89625000Y-87375000D02*
X90100010Y-86899990D01*
X90100010Y-76234992D02*
X92617501Y-73717501D01*
X90100010Y-86899990D02*
X90100010Y-76234992D01*
X102500000Y-63835002D02*
X102500000Y-62000000D01*
X99550000Y-73100000D02*
X99550000Y-74700000D01*
X99550000Y-74775000D02*
X98025000Y-74775000D01*
X98025000Y-74775000D02*
X98025000Y-74775000D01*
X98874999Y-55089997D02*
X98874999Y-66974999D01*
X98874999Y-66974999D02*
X99117501Y-67217501D01*
X95585002Y-51800000D02*
X98874999Y-55089997D01*
X88100000Y-51800000D02*
X95585002Y-51800000D01*
X92617501Y-73717501D02*
X99117501Y-67217501D01*
X99117501Y-67217501D02*
X102500000Y-63835002D01*
%TO.N,Net-(C5-Pad1)*%
X103000000Y-80550000D02*
X101325000Y-78875000D01*
X101325000Y-78875000D02*
X101325000Y-77825000D01*
X101100000Y-73100000D02*
X101100000Y-74650000D01*
X102275000Y-74775000D02*
X102550000Y-75050000D01*
X101100000Y-74775000D02*
X102275000Y-74775000D01*
%TO.N,Net-(JP1-Pad1)*%
X95103500Y-86950000D02*
X95103500Y-86950000D01*
X95103500Y-86950000D02*
X95940000Y-86950000D01*
X106200000Y-88750000D02*
X101698002Y-88750000D01*
X100974001Y-89474001D02*
X100769990Y-89678012D01*
X101698002Y-88750000D02*
X100974001Y-89474001D01*
X100571988Y-89678012D02*
X99178012Y-89678012D01*
X100769990Y-89678012D02*
X100571988Y-89678012D01*
X99178012Y-89678012D02*
X98250000Y-88750000D01*
X98250000Y-88750000D02*
X98250000Y-88750000D01*
X88500000Y-46700000D02*
X97400000Y-46700000D01*
X97400000Y-46700000D02*
X97400000Y-46600000D01*
X109175000Y-77025000D02*
X111400000Y-79250000D01*
X111400000Y-79250000D02*
X111400000Y-80200000D01*
X109175000Y-62960002D02*
X109175000Y-77025000D01*
X97400000Y-51185002D02*
X109175000Y-62960002D01*
X97400000Y-46800000D02*
X97400000Y-51185002D01*
%TO.N,Net-(JP1-Pad2)*%
X112150010Y-87650010D02*
X113000000Y-86800020D01*
X113000000Y-86800020D02*
X113000000Y-86750000D01*
X112150010Y-88992468D02*
X112150010Y-87650010D01*
X111425000Y-89717478D02*
X112150010Y-88992468D01*
X111425000Y-90250000D02*
X111425000Y-89717478D01*
X107500000Y-88750000D02*
X109750000Y-88750000D01*
X109750000Y-88750000D02*
X111250000Y-90250000D01*
%TO.N,Net-(JP2-Pad2)*%
X106450000Y-76450000D02*
X106500000Y-76500000D01*
X101200000Y-76450000D02*
X106350000Y-76450000D01*
X106350000Y-76450000D02*
X106400000Y-76400000D01*
X106400000Y-76400000D02*
X106400000Y-76300000D01*
X106600000Y-76500000D02*
X106600000Y-75200000D01*
X106600000Y-75200000D02*
X102100000Y-70700000D01*
X102100000Y-70700000D02*
X102000000Y-70600000D01*
X94200000Y-66100000D02*
X93364998Y-66100000D01*
X92519999Y-59794999D02*
X88800000Y-56075000D01*
X92519999Y-65255001D02*
X92519999Y-59794999D01*
X88800000Y-56075000D02*
X88800000Y-54800000D01*
X93364998Y-66100000D02*
X92519999Y-65255001D01*
%TO.N,Net-(JP2-Pad1)*%
X103685000Y-91775000D02*
X103560000Y-91900000D01*
X111425000Y-95500000D02*
X107250000Y-95500000D01*
X107250000Y-95500000D02*
X103500000Y-91750000D01*
X112567477Y-97225001D02*
X108975001Y-97225001D01*
X108975001Y-97225001D02*
X107250000Y-95500000D01*
X114250020Y-95542458D02*
X112567477Y-97225001D01*
X114250020Y-86000020D02*
X114250020Y-95542458D01*
X107900000Y-79650000D02*
X114250020Y-86000020D01*
X107900000Y-76500000D02*
X107900000Y-79650000D01*
%TO.N,Net-(R12-Pad2)*%
X97075000Y-86950000D02*
X97125000Y-87000000D01*
X102500000Y-46700000D02*
X100000000Y-46700000D01*
X100000000Y-46700000D02*
X99875000Y-46825000D01*
X104450000Y-46725000D02*
X102700000Y-46725000D01*
X102700000Y-46725000D02*
X102625000Y-46650000D01*
X97210000Y-86950000D02*
X97210000Y-85590000D01*
X97210000Y-85590000D02*
X97500000Y-85300000D01*
X97500000Y-85300000D02*
X97500000Y-85300000D01*
X114649990Y-81450010D02*
X113000000Y-83100000D01*
X102400000Y-46700000D02*
X114649990Y-58949990D01*
X114649990Y-58949990D02*
X114649990Y-81450010D01*
%TO.N,Net-(R9-Pad2)*%
X97500000Y-62000000D02*
X95325000Y-62000000D01*
%TO.N,Net-(RV3-Pad2)*%
X96760001Y-90475001D02*
X91725001Y-90475001D01*
X97210000Y-91900000D02*
X97210000Y-90925000D01*
X97210000Y-90925000D02*
X96760001Y-90475001D01*
X91725001Y-90475001D02*
X91500000Y-90250000D01*
X91500000Y-90250000D02*
X91500000Y-90250000D01*
X91100001Y-86850001D02*
X91100001Y-79149999D01*
X91500000Y-87250000D02*
X91100001Y-86850001D01*
X91100001Y-79149999D02*
X105500000Y-64750000D01*
X105500000Y-64750000D02*
X105500000Y-61250000D01*
X105500000Y-61250000D02*
X103500000Y-59250000D01*
X103500000Y-59250000D02*
X102250000Y-59250000D01*
X102250000Y-59250000D02*
X100000000Y-61500000D01*
X100000000Y-61500000D02*
X100000000Y-61750000D01*
X91100001Y-86850001D02*
X91100001Y-84900001D01*
%TD*%
D24*
%TO.N,GND*%
X86636220Y-87761002D02*
X86660019Y-87790001D01*
X86775744Y-87884974D01*
X86907773Y-87955546D01*
X87051034Y-87999003D01*
X87162687Y-88010000D01*
X87162696Y-88010000D01*
X87200019Y-88013676D01*
X87234337Y-88010296D01*
X88013427Y-88789387D01*
X88037225Y-88818385D01*
X88066223Y-88842183D01*
X88152950Y-88913358D01*
X88284979Y-88983930D01*
X88428240Y-89027387D01*
X88577226Y-89042061D01*
X88614559Y-89038384D01*
X91736816Y-89038384D01*
X91715000Y-89148061D01*
X91715000Y-89237489D01*
X91601939Y-89215000D01*
X91398061Y-89215000D01*
X91198102Y-89254774D01*
X91009744Y-89332795D01*
X90840226Y-89446063D01*
X90696063Y-89590226D01*
X90582795Y-89759744D01*
X90504774Y-89948102D01*
X90465000Y-90148061D01*
X90465000Y-90269198D01*
X90428937Y-90215226D01*
X90284774Y-90071063D01*
X90115256Y-89957795D01*
X89926898Y-89879774D01*
X89726939Y-89840000D01*
X89523061Y-89840000D01*
X89323102Y-89879774D01*
X89134744Y-89957795D01*
X88965226Y-90071063D01*
X88821063Y-90215226D01*
X88707795Y-90384744D01*
X88629774Y-90573102D01*
X88590000Y-90773061D01*
X88590000Y-90976939D01*
X88629774Y-91176898D01*
X88707795Y-91365256D01*
X88821063Y-91534774D01*
X88965226Y-91678937D01*
X89134744Y-91792205D01*
X89323102Y-91870226D01*
X89523061Y-91910000D01*
X89585199Y-91910000D01*
X90086200Y-92411002D01*
X90109999Y-92440001D01*
X90138997Y-92463799D01*
X90225723Y-92534974D01*
X90346021Y-92599275D01*
X90357753Y-92605546D01*
X90501014Y-92649003D01*
X90612667Y-92660000D01*
X90612677Y-92660000D01*
X90650000Y-92663676D01*
X90687323Y-92660000D01*
X94040199Y-92660000D01*
X93988988Y-92711211D01*
X93959990Y-92735009D01*
X93936192Y-92764007D01*
X93936191Y-92764008D01*
X93865016Y-92850734D01*
X93794444Y-92982764D01*
X93774268Y-93049278D01*
X93756965Y-93106322D01*
X93750988Y-93126025D01*
X93736314Y-93275010D01*
X93739991Y-93312342D01*
X93739990Y-97475857D01*
X93736314Y-97513180D01*
X93739990Y-97550502D01*
X93739990Y-97550512D01*
X93750987Y-97662165D01*
X93768969Y-97721444D01*
X93794444Y-97805426D01*
X93865016Y-97937456D01*
X93904036Y-97985001D01*
X93959989Y-98053181D01*
X93988993Y-98076984D01*
X96793011Y-100881003D01*
X96816809Y-100910001D01*
X96845807Y-100933799D01*
X96932534Y-101004974D01*
X97064563Y-101075546D01*
X97207824Y-101119003D01*
X97356810Y-101133677D01*
X97394143Y-101130000D01*
X97695199Y-101130000D01*
X97413997Y-101411202D01*
X97384999Y-101435000D01*
X97361201Y-101463998D01*
X97361200Y-101463999D01*
X97290025Y-101550725D01*
X97219453Y-101682755D01*
X97175997Y-101826016D01*
X97161323Y-101975001D01*
X97165000Y-102012333D01*
X97164999Y-106557676D01*
X97161323Y-106594999D01*
X97164999Y-106632321D01*
X97164999Y-106632331D01*
X97175996Y-106743984D01*
X97219453Y-106887245D01*
X97290025Y-107019275D01*
X97329870Y-107067825D01*
X97384998Y-107135000D01*
X97414002Y-107158803D01*
X98367601Y-108112402D01*
X98361928Y-108170000D01*
X98361928Y-108792550D01*
X98283552Y-108816325D01*
X98086376Y-108921717D01*
X97913550Y-109063552D01*
X97878010Y-109106858D01*
X94667948Y-112316921D01*
X94501397Y-112350050D01*
X94240225Y-112458231D01*
X94005177Y-112615285D01*
X93805285Y-112815177D01*
X93648231Y-113050225D01*
X93540050Y-113311397D01*
X93484900Y-113588655D01*
X93484900Y-113871345D01*
X93540050Y-114148603D01*
X93648231Y-114409775D01*
X93785001Y-114614465D01*
X93785000Y-115385535D01*
X93648231Y-115590225D01*
X93540050Y-115851397D01*
X93484900Y-116128655D01*
X93484900Y-116411345D01*
X93540050Y-116688603D01*
X93648231Y-116949775D01*
X93805285Y-117184823D01*
X94005177Y-117384715D01*
X94240225Y-117541769D01*
X94501397Y-117649950D01*
X94778655Y-117705100D01*
X95061345Y-117705100D01*
X95338603Y-117649950D01*
X95599775Y-117541769D01*
X95834823Y-117384715D01*
X95956764Y-117262774D01*
X96646831Y-117262774D01*
X96718426Y-117506754D01*
X96973954Y-117627664D01*
X97248161Y-117696400D01*
X97530508Y-117710320D01*
X97810147Y-117668889D01*
X98076328Y-117573700D01*
X98201574Y-117506754D01*
X98273169Y-117262774D01*
X99186831Y-117262774D01*
X99258426Y-117506754D01*
X99513954Y-117627664D01*
X99788161Y-117696400D01*
X100070508Y-117710320D01*
X100350147Y-117668889D01*
X100616328Y-117573700D01*
X100741574Y-117506754D01*
X100813169Y-117262774D01*
X101726831Y-117262774D01*
X101798426Y-117506754D01*
X102053954Y-117627664D01*
X102328161Y-117696400D01*
X102610508Y-117710320D01*
X102890147Y-117668889D01*
X103156328Y-117573700D01*
X103281574Y-117506754D01*
X103353169Y-117262774D01*
X102540000Y-116449605D01*
X101726831Y-117262774D01*
X100813169Y-117262774D01*
X100000000Y-116449605D01*
X99186831Y-117262774D01*
X98273169Y-117262774D01*
X97460000Y-116449605D01*
X96646831Y-117262774D01*
X95956764Y-117262774D01*
X96034715Y-117184823D01*
X96190905Y-116951068D01*
X96223246Y-117011574D01*
X96467226Y-117083169D01*
X97280395Y-116270000D01*
X97639605Y-116270000D01*
X98452774Y-117083169D01*
X98696754Y-117011574D01*
X98727976Y-116945590D01*
X98763246Y-117011574D01*
X99007226Y-117083169D01*
X99820395Y-116270000D01*
X100179605Y-116270000D01*
X100992774Y-117083169D01*
X101236754Y-117011574D01*
X101267976Y-116945590D01*
X101303246Y-117011574D01*
X101547226Y-117083169D01*
X102360395Y-116270000D01*
X101547226Y-115456831D01*
X101303246Y-115528426D01*
X101272024Y-115594410D01*
X101236754Y-115528426D01*
X100992774Y-115456831D01*
X100179605Y-116270000D01*
X99820395Y-116270000D01*
X99007226Y-115456831D01*
X98763246Y-115528426D01*
X98732024Y-115594410D01*
X98696754Y-115528426D01*
X98452774Y-115456831D01*
X97639605Y-116270000D01*
X97280395Y-116270000D01*
X96467226Y-115456831D01*
X96223246Y-115528426D01*
X96192812Y-115592744D01*
X96191769Y-115590225D01*
X96055000Y-115385536D01*
X96055000Y-114722774D01*
X96646831Y-114722774D01*
X96718426Y-114966754D01*
X96784410Y-114997976D01*
X96718426Y-115033246D01*
X96646831Y-115277226D01*
X97460000Y-116090395D01*
X98273169Y-115277226D01*
X98201574Y-115033246D01*
X98135590Y-115002024D01*
X98201574Y-114966754D01*
X98273169Y-114722774D01*
X99186831Y-114722774D01*
X99258426Y-114966754D01*
X99324410Y-114997976D01*
X99258426Y-115033246D01*
X99186831Y-115277226D01*
X100000000Y-116090395D01*
X100813169Y-115277226D01*
X100741574Y-115033246D01*
X100675590Y-115002024D01*
X100741574Y-114966754D01*
X100813169Y-114722774D01*
X101726831Y-114722774D01*
X101798426Y-114966754D01*
X101864410Y-114997976D01*
X101798426Y-115033246D01*
X101726831Y-115277226D01*
X102540000Y-116090395D01*
X103353169Y-115277226D01*
X103281574Y-115033246D01*
X103215590Y-115002024D01*
X103281574Y-114966754D01*
X103353169Y-114722774D01*
X102540000Y-113909605D01*
X101726831Y-114722774D01*
X100813169Y-114722774D01*
X100000000Y-113909605D01*
X99186831Y-114722774D01*
X98273169Y-114722774D01*
X97460000Y-113909605D01*
X96646831Y-114722774D01*
X96055000Y-114722774D01*
X96055000Y-114614464D01*
X96190905Y-114411068D01*
X96223246Y-114471574D01*
X96467226Y-114543169D01*
X97280395Y-113730000D01*
X97639605Y-113730000D01*
X98452774Y-114543169D01*
X98696754Y-114471574D01*
X98727976Y-114405590D01*
X98763246Y-114471574D01*
X99007226Y-114543169D01*
X99820395Y-113730000D01*
X100179605Y-113730000D01*
X100992774Y-114543169D01*
X101236754Y-114471574D01*
X101267976Y-114405590D01*
X101303246Y-114471574D01*
X101547226Y-114543169D01*
X102360395Y-113730000D01*
X102719605Y-113730000D01*
X103532774Y-114543169D01*
X103776754Y-114471574D01*
X103807188Y-114407256D01*
X103808231Y-114409775D01*
X103945001Y-114614465D01*
X103945000Y-115385535D01*
X103809095Y-115588932D01*
X103776754Y-115528426D01*
X103532774Y-115456831D01*
X102719605Y-116270000D01*
X103532774Y-117083169D01*
X103776754Y-117011574D01*
X103807188Y-116947256D01*
X103808231Y-116949775D01*
X103965285Y-117184823D01*
X104165177Y-117384715D01*
X104400225Y-117541769D01*
X104661397Y-117649950D01*
X104938655Y-117705100D01*
X105221345Y-117705100D01*
X105498603Y-117649950D01*
X105759775Y-117541769D01*
X105994823Y-117384715D01*
X106194715Y-117184823D01*
X106351769Y-116949775D01*
X106459950Y-116688603D01*
X106515100Y-116411345D01*
X106515100Y-116128655D01*
X106459950Y-115851397D01*
X106351769Y-115590225D01*
X106215000Y-115385536D01*
X106215000Y-114614464D01*
X106351769Y-114409775D01*
X106459950Y-114148603D01*
X106515100Y-113871345D01*
X106515100Y-113588655D01*
X106459950Y-113311397D01*
X106351769Y-113050225D01*
X106194715Y-112815177D01*
X105994823Y-112615285D01*
X105759775Y-112458231D01*
X105498603Y-112350050D01*
X105221345Y-112294900D01*
X104938655Y-112294900D01*
X104661397Y-112350050D01*
X104400225Y-112458231D01*
X104165177Y-112615285D01*
X103965285Y-112815177D01*
X103809095Y-113048932D01*
X103776754Y-112988426D01*
X103532774Y-112916831D01*
X102719605Y-113730000D01*
X102360395Y-113730000D01*
X101547226Y-112916831D01*
X101303246Y-112988426D01*
X101272024Y-113054410D01*
X101236754Y-112988426D01*
X100992774Y-112916831D01*
X100179605Y-113730000D01*
X99820395Y-113730000D01*
X99007226Y-112916831D01*
X98763246Y-112988426D01*
X98732024Y-113054410D01*
X98696754Y-112988426D01*
X98452774Y-112916831D01*
X97639605Y-113730000D01*
X97280395Y-113730000D01*
X97266253Y-113715858D01*
X97445858Y-113536253D01*
X97460000Y-113550395D01*
X98273169Y-112737226D01*
X99186831Y-112737226D01*
X100000000Y-113550395D01*
X100813169Y-112737226D01*
X101726831Y-112737226D01*
X102540000Y-113550395D01*
X103353169Y-112737226D01*
X103281574Y-112493246D01*
X103026046Y-112372336D01*
X102751839Y-112303600D01*
X102469492Y-112289680D01*
X102189853Y-112331111D01*
X101923672Y-112426300D01*
X101798426Y-112493246D01*
X101726831Y-112737226D01*
X100813169Y-112737226D01*
X100741574Y-112493246D01*
X100486046Y-112372336D01*
X100211839Y-112303600D01*
X99929492Y-112289680D01*
X99649853Y-112331111D01*
X99383672Y-112426300D01*
X99258426Y-112493246D01*
X99186831Y-112737226D01*
X98273169Y-112737226D01*
X98201574Y-112493246D01*
X97946046Y-112372336D01*
X97847499Y-112347633D01*
X99190131Y-111005001D01*
X101504250Y-111005001D01*
X101560001Y-111010492D01*
X101615752Y-111005001D01*
X101615753Y-111005001D01*
X101782500Y-110988578D01*
X101996448Y-110923677D01*
X102193624Y-110818285D01*
X102366450Y-110676450D01*
X102401997Y-110633136D01*
X103538140Y-109496994D01*
X103581449Y-109461451D01*
X103723284Y-109288625D01*
X103828676Y-109091449D01*
X103893577Y-108877501D01*
X103910000Y-108710754D01*
X103910000Y-108710753D01*
X103915491Y-108655003D01*
X103910000Y-108599251D01*
X103910000Y-97340739D01*
X103915490Y-97284997D01*
X103910000Y-97229255D01*
X103910000Y-97229246D01*
X103893577Y-97062499D01*
X103828676Y-96848551D01*
X103723284Y-96651375D01*
X103581449Y-96478549D01*
X103538141Y-96443007D01*
X102059692Y-94964558D01*
X102148000Y-94876250D01*
X102148000Y-94052000D01*
X102402000Y-94052000D01*
X102402000Y-94876250D01*
X102560750Y-95035000D01*
X102725000Y-95038072D01*
X102849482Y-95025812D01*
X102969180Y-94989502D01*
X103079494Y-94930537D01*
X103176185Y-94851185D01*
X103255537Y-94754494D01*
X103314502Y-94644180D01*
X103350812Y-94524482D01*
X103363072Y-94400000D01*
X103360000Y-94210750D01*
X103201250Y-94052000D01*
X102402000Y-94052000D01*
X102148000Y-94052000D01*
X102128000Y-94052000D01*
X102128000Y-93798000D01*
X102148000Y-93798000D01*
X102148000Y-93778000D01*
X102402000Y-93778000D01*
X102402000Y-93798000D01*
X103201250Y-93798000D01*
X103360000Y-93639250D01*
X103362125Y-93508357D01*
X103410000Y-93513072D01*
X103710000Y-93513072D01*
X103863745Y-93497929D01*
X104011582Y-93453084D01*
X104087633Y-93412434D01*
X106686200Y-96011002D01*
X106709999Y-96040001D01*
X106739003Y-96063804D01*
X108411202Y-97736004D01*
X108435000Y-97765002D01*
X108550725Y-97859975D01*
X108682754Y-97930547D01*
X108826015Y-97974004D01*
X108937668Y-97985001D01*
X108937678Y-97985001D01*
X108975001Y-97988677D01*
X109012324Y-97985001D01*
X112530155Y-97985001D01*
X112567477Y-97988677D01*
X112604799Y-97985001D01*
X112604810Y-97985001D01*
X112716463Y-97974004D01*
X112859724Y-97930547D01*
X112991753Y-97859975D01*
X113107478Y-97765002D01*
X113131281Y-97735998D01*
X114340001Y-96527279D01*
X114340001Y-116967711D01*
X114292330Y-117453894D01*
X114160512Y-117890497D01*
X113946399Y-118293186D01*
X113658150Y-118646613D01*
X113306739Y-118937327D01*
X112905564Y-119154240D01*
X112469886Y-119289106D01*
X111985664Y-119340000D01*
X88032279Y-119340000D01*
X87546106Y-119292330D01*
X87109503Y-119160512D01*
X86706814Y-118946399D01*
X86353387Y-118658150D01*
X86062673Y-118306739D01*
X85845760Y-117905564D01*
X85710894Y-117469886D01*
X85660000Y-116985664D01*
X85660000Y-97525000D01*
X88786928Y-97525000D01*
X88799188Y-97649482D01*
X88835498Y-97769180D01*
X88894463Y-97879494D01*
X88973815Y-97976185D01*
X89070506Y-98055537D01*
X89180820Y-98114502D01*
X89300518Y-98150812D01*
X89425000Y-98163072D01*
X90889250Y-98160000D01*
X91048000Y-98001250D01*
X91048000Y-96852000D01*
X91302000Y-96852000D01*
X91302000Y-98001250D01*
X91460750Y-98160000D01*
X92925000Y-98163072D01*
X93049482Y-98150812D01*
X93169180Y-98114502D01*
X93279494Y-98055537D01*
X93376185Y-97976185D01*
X93455537Y-97879494D01*
X93514502Y-97769180D01*
X93550812Y-97649482D01*
X93563072Y-97525000D01*
X93560000Y-97010750D01*
X93401250Y-96852000D01*
X91302000Y-96852000D01*
X91048000Y-96852000D01*
X88948750Y-96852000D01*
X88790000Y-97010750D01*
X88786928Y-97525000D01*
X85660000Y-97525000D01*
X85660000Y-95925000D01*
X88786928Y-95925000D01*
X88790000Y-96439250D01*
X88948750Y-96598000D01*
X91048000Y-96598000D01*
X91048000Y-95448750D01*
X91302000Y-95448750D01*
X91302000Y-96598000D01*
X93401250Y-96598000D01*
X93560000Y-96439250D01*
X93563072Y-95925000D01*
X93550812Y-95800518D01*
X93514502Y-95680820D01*
X93455537Y-95570506D01*
X93376185Y-95473815D01*
X93279494Y-95394463D01*
X93169180Y-95335498D01*
X93049482Y-95299188D01*
X92925000Y-95286928D01*
X91460750Y-95290000D01*
X91302000Y-95448750D01*
X91048000Y-95448750D01*
X90889250Y-95290000D01*
X89425000Y-95286928D01*
X89300518Y-95299188D01*
X89180820Y-95335498D01*
X89070506Y-95394463D01*
X88973815Y-95473815D01*
X88894463Y-95570506D01*
X88835498Y-95680820D01*
X88799188Y-95800518D01*
X88786928Y-95925000D01*
X85660000Y-95925000D01*
X85660000Y-86784781D01*
X86636220Y-87761002D01*
%TA.AperFunction,Conductor*%
D25*
G36*
X86636220Y-87761002D02*
G01*
X86660019Y-87790001D01*
X86775744Y-87884974D01*
X86907773Y-87955546D01*
X87051034Y-87999003D01*
X87162687Y-88010000D01*
X87162696Y-88010000D01*
X87200019Y-88013676D01*
X87234337Y-88010296D01*
X88013427Y-88789387D01*
X88037225Y-88818385D01*
X88066223Y-88842183D01*
X88152950Y-88913358D01*
X88284979Y-88983930D01*
X88428240Y-89027387D01*
X88577226Y-89042061D01*
X88614559Y-89038384D01*
X91736816Y-89038384D01*
X91715000Y-89148061D01*
X91715000Y-89237489D01*
X91601939Y-89215000D01*
X91398061Y-89215000D01*
X91198102Y-89254774D01*
X91009744Y-89332795D01*
X90840226Y-89446063D01*
X90696063Y-89590226D01*
X90582795Y-89759744D01*
X90504774Y-89948102D01*
X90465000Y-90148061D01*
X90465000Y-90269198D01*
X90428937Y-90215226D01*
X90284774Y-90071063D01*
X90115256Y-89957795D01*
X89926898Y-89879774D01*
X89726939Y-89840000D01*
X89523061Y-89840000D01*
X89323102Y-89879774D01*
X89134744Y-89957795D01*
X88965226Y-90071063D01*
X88821063Y-90215226D01*
X88707795Y-90384744D01*
X88629774Y-90573102D01*
X88590000Y-90773061D01*
X88590000Y-90976939D01*
X88629774Y-91176898D01*
X88707795Y-91365256D01*
X88821063Y-91534774D01*
X88965226Y-91678937D01*
X89134744Y-91792205D01*
X89323102Y-91870226D01*
X89523061Y-91910000D01*
X89585199Y-91910000D01*
X90086200Y-92411002D01*
X90109999Y-92440001D01*
X90138997Y-92463799D01*
X90225723Y-92534974D01*
X90346021Y-92599275D01*
X90357753Y-92605546D01*
X90501014Y-92649003D01*
X90612667Y-92660000D01*
X90612677Y-92660000D01*
X90650000Y-92663676D01*
X90687323Y-92660000D01*
X94040199Y-92660000D01*
X93988988Y-92711211D01*
X93959990Y-92735009D01*
X93936192Y-92764007D01*
X93936191Y-92764008D01*
X93865016Y-92850734D01*
X93794444Y-92982764D01*
X93774268Y-93049278D01*
X93756965Y-93106322D01*
X93750988Y-93126025D01*
X93736314Y-93275010D01*
X93739991Y-93312342D01*
X93739990Y-97475857D01*
X93736314Y-97513180D01*
X93739990Y-97550502D01*
X93739990Y-97550512D01*
X93750987Y-97662165D01*
X93768969Y-97721444D01*
X93794444Y-97805426D01*
X93865016Y-97937456D01*
X93904036Y-97985001D01*
X93959989Y-98053181D01*
X93988993Y-98076984D01*
X96793011Y-100881003D01*
X96816809Y-100910001D01*
X96845807Y-100933799D01*
X96932534Y-101004974D01*
X97064563Y-101075546D01*
X97207824Y-101119003D01*
X97356810Y-101133677D01*
X97394143Y-101130000D01*
X97695199Y-101130000D01*
X97413997Y-101411202D01*
X97384999Y-101435000D01*
X97361201Y-101463998D01*
X97361200Y-101463999D01*
X97290025Y-101550725D01*
X97219453Y-101682755D01*
X97175997Y-101826016D01*
X97161323Y-101975001D01*
X97165000Y-102012333D01*
X97164999Y-106557676D01*
X97161323Y-106594999D01*
X97164999Y-106632321D01*
X97164999Y-106632331D01*
X97175996Y-106743984D01*
X97219453Y-106887245D01*
X97290025Y-107019275D01*
X97329870Y-107067825D01*
X97384998Y-107135000D01*
X97414002Y-107158803D01*
X98367601Y-108112402D01*
X98361928Y-108170000D01*
X98361928Y-108792550D01*
X98283552Y-108816325D01*
X98086376Y-108921717D01*
X97913550Y-109063552D01*
X97878010Y-109106858D01*
X94667948Y-112316921D01*
X94501397Y-112350050D01*
X94240225Y-112458231D01*
X94005177Y-112615285D01*
X93805285Y-112815177D01*
X93648231Y-113050225D01*
X93540050Y-113311397D01*
X93484900Y-113588655D01*
X93484900Y-113871345D01*
X93540050Y-114148603D01*
X93648231Y-114409775D01*
X93785001Y-114614465D01*
X93785000Y-115385535D01*
X93648231Y-115590225D01*
X93540050Y-115851397D01*
X93484900Y-116128655D01*
X93484900Y-116411345D01*
X93540050Y-116688603D01*
X93648231Y-116949775D01*
X93805285Y-117184823D01*
X94005177Y-117384715D01*
X94240225Y-117541769D01*
X94501397Y-117649950D01*
X94778655Y-117705100D01*
X95061345Y-117705100D01*
X95338603Y-117649950D01*
X95599775Y-117541769D01*
X95834823Y-117384715D01*
X95956764Y-117262774D01*
X96646831Y-117262774D01*
X96718426Y-117506754D01*
X96973954Y-117627664D01*
X97248161Y-117696400D01*
X97530508Y-117710320D01*
X97810147Y-117668889D01*
X98076328Y-117573700D01*
X98201574Y-117506754D01*
X98273169Y-117262774D01*
X99186831Y-117262774D01*
X99258426Y-117506754D01*
X99513954Y-117627664D01*
X99788161Y-117696400D01*
X100070508Y-117710320D01*
X100350147Y-117668889D01*
X100616328Y-117573700D01*
X100741574Y-117506754D01*
X100813169Y-117262774D01*
X101726831Y-117262774D01*
X101798426Y-117506754D01*
X102053954Y-117627664D01*
X102328161Y-117696400D01*
X102610508Y-117710320D01*
X102890147Y-117668889D01*
X103156328Y-117573700D01*
X103281574Y-117506754D01*
X103353169Y-117262774D01*
X102540000Y-116449605D01*
X101726831Y-117262774D01*
X100813169Y-117262774D01*
X100000000Y-116449605D01*
X99186831Y-117262774D01*
X98273169Y-117262774D01*
X97460000Y-116449605D01*
X96646831Y-117262774D01*
X95956764Y-117262774D01*
X96034715Y-117184823D01*
X96190905Y-116951068D01*
X96223246Y-117011574D01*
X96467226Y-117083169D01*
X97280395Y-116270000D01*
X97639605Y-116270000D01*
X98452774Y-117083169D01*
X98696754Y-117011574D01*
X98727976Y-116945590D01*
X98763246Y-117011574D01*
X99007226Y-117083169D01*
X99820395Y-116270000D01*
X100179605Y-116270000D01*
X100992774Y-117083169D01*
X101236754Y-117011574D01*
X101267976Y-116945590D01*
X101303246Y-117011574D01*
X101547226Y-117083169D01*
X102360395Y-116270000D01*
X101547226Y-115456831D01*
X101303246Y-115528426D01*
X101272024Y-115594410D01*
X101236754Y-115528426D01*
X100992774Y-115456831D01*
X100179605Y-116270000D01*
X99820395Y-116270000D01*
X99007226Y-115456831D01*
X98763246Y-115528426D01*
X98732024Y-115594410D01*
X98696754Y-115528426D01*
X98452774Y-115456831D01*
X97639605Y-116270000D01*
X97280395Y-116270000D01*
X96467226Y-115456831D01*
X96223246Y-115528426D01*
X96192812Y-115592744D01*
X96191769Y-115590225D01*
X96055000Y-115385536D01*
X96055000Y-114722774D01*
X96646831Y-114722774D01*
X96718426Y-114966754D01*
X96784410Y-114997976D01*
X96718426Y-115033246D01*
X96646831Y-115277226D01*
X97460000Y-116090395D01*
X98273169Y-115277226D01*
X98201574Y-115033246D01*
X98135590Y-115002024D01*
X98201574Y-114966754D01*
X98273169Y-114722774D01*
X99186831Y-114722774D01*
X99258426Y-114966754D01*
X99324410Y-114997976D01*
X99258426Y-115033246D01*
X99186831Y-115277226D01*
X100000000Y-116090395D01*
X100813169Y-115277226D01*
X100741574Y-115033246D01*
X100675590Y-115002024D01*
X100741574Y-114966754D01*
X100813169Y-114722774D01*
X101726831Y-114722774D01*
X101798426Y-114966754D01*
X101864410Y-114997976D01*
X101798426Y-115033246D01*
X101726831Y-115277226D01*
X102540000Y-116090395D01*
X103353169Y-115277226D01*
X103281574Y-115033246D01*
X103215590Y-115002024D01*
X103281574Y-114966754D01*
X103353169Y-114722774D01*
X102540000Y-113909605D01*
X101726831Y-114722774D01*
X100813169Y-114722774D01*
X100000000Y-113909605D01*
X99186831Y-114722774D01*
X98273169Y-114722774D01*
X97460000Y-113909605D01*
X96646831Y-114722774D01*
X96055000Y-114722774D01*
X96055000Y-114614464D01*
X96190905Y-114411068D01*
X96223246Y-114471574D01*
X96467226Y-114543169D01*
X97280395Y-113730000D01*
X97639605Y-113730000D01*
X98452774Y-114543169D01*
X98696754Y-114471574D01*
X98727976Y-114405590D01*
X98763246Y-114471574D01*
X99007226Y-114543169D01*
X99820395Y-113730000D01*
X100179605Y-113730000D01*
X100992774Y-114543169D01*
X101236754Y-114471574D01*
X101267976Y-114405590D01*
X101303246Y-114471574D01*
X101547226Y-114543169D01*
X102360395Y-113730000D01*
X102719605Y-113730000D01*
X103532774Y-114543169D01*
X103776754Y-114471574D01*
X103807188Y-114407256D01*
X103808231Y-114409775D01*
X103945001Y-114614465D01*
X103945000Y-115385535D01*
X103809095Y-115588932D01*
X103776754Y-115528426D01*
X103532774Y-115456831D01*
X102719605Y-116270000D01*
X103532774Y-117083169D01*
X103776754Y-117011574D01*
X103807188Y-116947256D01*
X103808231Y-116949775D01*
X103965285Y-117184823D01*
X104165177Y-117384715D01*
X104400225Y-117541769D01*
X104661397Y-117649950D01*
X104938655Y-117705100D01*
X105221345Y-117705100D01*
X105498603Y-117649950D01*
X105759775Y-117541769D01*
X105994823Y-117384715D01*
X106194715Y-117184823D01*
X106351769Y-116949775D01*
X106459950Y-116688603D01*
X106515100Y-116411345D01*
X106515100Y-116128655D01*
X106459950Y-115851397D01*
X106351769Y-115590225D01*
X106215000Y-115385536D01*
X106215000Y-114614464D01*
X106351769Y-114409775D01*
X106459950Y-114148603D01*
X106515100Y-113871345D01*
X106515100Y-113588655D01*
X106459950Y-113311397D01*
X106351769Y-113050225D01*
X106194715Y-112815177D01*
X105994823Y-112615285D01*
X105759775Y-112458231D01*
X105498603Y-112350050D01*
X105221345Y-112294900D01*
X104938655Y-112294900D01*
X104661397Y-112350050D01*
X104400225Y-112458231D01*
X104165177Y-112615285D01*
X103965285Y-112815177D01*
X103809095Y-113048932D01*
X103776754Y-112988426D01*
X103532774Y-112916831D01*
X102719605Y-113730000D01*
X102360395Y-113730000D01*
X101547226Y-112916831D01*
X101303246Y-112988426D01*
X101272024Y-113054410D01*
X101236754Y-112988426D01*
X100992774Y-112916831D01*
X100179605Y-113730000D01*
X99820395Y-113730000D01*
X99007226Y-112916831D01*
X98763246Y-112988426D01*
X98732024Y-113054410D01*
X98696754Y-112988426D01*
X98452774Y-112916831D01*
X97639605Y-113730000D01*
X97280395Y-113730000D01*
X97266253Y-113715858D01*
X97445858Y-113536253D01*
X97460000Y-113550395D01*
X98273169Y-112737226D01*
X99186831Y-112737226D01*
X100000000Y-113550395D01*
X100813169Y-112737226D01*
X101726831Y-112737226D01*
X102540000Y-113550395D01*
X103353169Y-112737226D01*
X103281574Y-112493246D01*
X103026046Y-112372336D01*
X102751839Y-112303600D01*
X102469492Y-112289680D01*
X102189853Y-112331111D01*
X101923672Y-112426300D01*
X101798426Y-112493246D01*
X101726831Y-112737226D01*
X100813169Y-112737226D01*
X100741574Y-112493246D01*
X100486046Y-112372336D01*
X100211839Y-112303600D01*
X99929492Y-112289680D01*
X99649853Y-112331111D01*
X99383672Y-112426300D01*
X99258426Y-112493246D01*
X99186831Y-112737226D01*
X98273169Y-112737226D01*
X98201574Y-112493246D01*
X97946046Y-112372336D01*
X97847499Y-112347633D01*
X99190131Y-111005001D01*
X101504250Y-111005001D01*
X101560001Y-111010492D01*
X101615752Y-111005001D01*
X101615753Y-111005001D01*
X101782500Y-110988578D01*
X101996448Y-110923677D01*
X102193624Y-110818285D01*
X102366450Y-110676450D01*
X102401997Y-110633136D01*
X103538140Y-109496994D01*
X103581449Y-109461451D01*
X103723284Y-109288625D01*
X103828676Y-109091449D01*
X103893577Y-108877501D01*
X103910000Y-108710754D01*
X103910000Y-108710753D01*
X103915491Y-108655003D01*
X103910000Y-108599251D01*
X103910000Y-97340739D01*
X103915490Y-97284997D01*
X103910000Y-97229255D01*
X103910000Y-97229246D01*
X103893577Y-97062499D01*
X103828676Y-96848551D01*
X103723284Y-96651375D01*
X103581449Y-96478549D01*
X103538141Y-96443007D01*
X102059692Y-94964558D01*
X102148000Y-94876250D01*
X102148000Y-94052000D01*
X102402000Y-94052000D01*
X102402000Y-94876250D01*
X102560750Y-95035000D01*
X102725000Y-95038072D01*
X102849482Y-95025812D01*
X102969180Y-94989502D01*
X103079494Y-94930537D01*
X103176185Y-94851185D01*
X103255537Y-94754494D01*
X103314502Y-94644180D01*
X103350812Y-94524482D01*
X103363072Y-94400000D01*
X103360000Y-94210750D01*
X103201250Y-94052000D01*
X102402000Y-94052000D01*
X102148000Y-94052000D01*
X102128000Y-94052000D01*
X102128000Y-93798000D01*
X102148000Y-93798000D01*
X102148000Y-93778000D01*
X102402000Y-93778000D01*
X102402000Y-93798000D01*
X103201250Y-93798000D01*
X103360000Y-93639250D01*
X103362125Y-93508357D01*
X103410000Y-93513072D01*
X103710000Y-93513072D01*
X103863745Y-93497929D01*
X104011582Y-93453084D01*
X104087633Y-93412434D01*
X106686200Y-96011002D01*
X106709999Y-96040001D01*
X106739003Y-96063804D01*
X108411202Y-97736004D01*
X108435000Y-97765002D01*
X108550725Y-97859975D01*
X108682754Y-97930547D01*
X108826015Y-97974004D01*
X108937668Y-97985001D01*
X108937678Y-97985001D01*
X108975001Y-97988677D01*
X109012324Y-97985001D01*
X112530155Y-97985001D01*
X112567477Y-97988677D01*
X112604799Y-97985001D01*
X112604810Y-97985001D01*
X112716463Y-97974004D01*
X112859724Y-97930547D01*
X112991753Y-97859975D01*
X113107478Y-97765002D01*
X113131281Y-97735998D01*
X114340001Y-96527279D01*
X114340001Y-116967711D01*
X114292330Y-117453894D01*
X114160512Y-117890497D01*
X113946399Y-118293186D01*
X113658150Y-118646613D01*
X113306739Y-118937327D01*
X112905564Y-119154240D01*
X112469886Y-119289106D01*
X111985664Y-119340000D01*
X88032279Y-119340000D01*
X87546106Y-119292330D01*
X87109503Y-119160512D01*
X86706814Y-118946399D01*
X86353387Y-118658150D01*
X86062673Y-118306739D01*
X85845760Y-117905564D01*
X85710894Y-117469886D01*
X85660000Y-116985664D01*
X85660000Y-97525000D01*
X88786928Y-97525000D01*
X88799188Y-97649482D01*
X88835498Y-97769180D01*
X88894463Y-97879494D01*
X88973815Y-97976185D01*
X89070506Y-98055537D01*
X89180820Y-98114502D01*
X89300518Y-98150812D01*
X89425000Y-98163072D01*
X90889250Y-98160000D01*
X91048000Y-98001250D01*
X91048000Y-96852000D01*
X91302000Y-96852000D01*
X91302000Y-98001250D01*
X91460750Y-98160000D01*
X92925000Y-98163072D01*
X93049482Y-98150812D01*
X93169180Y-98114502D01*
X93279494Y-98055537D01*
X93376185Y-97976185D01*
X93455537Y-97879494D01*
X93514502Y-97769180D01*
X93550812Y-97649482D01*
X93563072Y-97525000D01*
X93560000Y-97010750D01*
X93401250Y-96852000D01*
X91302000Y-96852000D01*
X91048000Y-96852000D01*
X88948750Y-96852000D01*
X88790000Y-97010750D01*
X88786928Y-97525000D01*
X85660000Y-97525000D01*
X85660000Y-95925000D01*
X88786928Y-95925000D01*
X88790000Y-96439250D01*
X88948750Y-96598000D01*
X91048000Y-96598000D01*
X91048000Y-95448750D01*
X91302000Y-95448750D01*
X91302000Y-96598000D01*
X93401250Y-96598000D01*
X93560000Y-96439250D01*
X93563072Y-95925000D01*
X93550812Y-95800518D01*
X93514502Y-95680820D01*
X93455537Y-95570506D01*
X93376185Y-95473815D01*
X93279494Y-95394463D01*
X93169180Y-95335498D01*
X93049482Y-95299188D01*
X92925000Y-95286928D01*
X91460750Y-95290000D01*
X91302000Y-95448750D01*
X91048000Y-95448750D01*
X90889250Y-95290000D01*
X89425000Y-95286928D01*
X89300518Y-95299188D01*
X89180820Y-95335498D01*
X89070506Y-95394463D01*
X88973815Y-95473815D01*
X88894463Y-95570506D01*
X88835498Y-95680820D01*
X88799188Y-95800518D01*
X88786928Y-95925000D01*
X85660000Y-95925000D01*
X85660000Y-86784781D01*
X86636220Y-87761002D01*
G37*
%TD.AperFunction*%
D24*
X101640000Y-108184870D02*
X101638072Y-108186798D01*
X101638072Y-108170000D01*
X101625812Y-108045518D01*
X101589502Y-107925820D01*
X101530537Y-107815506D01*
X101451185Y-107718815D01*
X101354494Y-107639463D01*
X101244180Y-107580498D01*
X101124482Y-107544188D01*
X101000000Y-107531928D01*
X99936730Y-107531928D01*
X98684999Y-106280198D01*
X98684999Y-105739760D01*
X98870279Y-105863560D01*
X99304321Y-106043346D01*
X99765098Y-106135000D01*
X100234902Y-106135000D01*
X100695679Y-106043346D01*
X101129721Y-105863560D01*
X101520349Y-105602550D01*
X101640000Y-105482899D01*
X101640000Y-108184870D01*
%TA.AperFunction,Conductor*%
D25*
G36*
X101640000Y-108184870D02*
G01*
X101638072Y-108186798D01*
X101638072Y-108170000D01*
X101625812Y-108045518D01*
X101589502Y-107925820D01*
X101530537Y-107815506D01*
X101451185Y-107718815D01*
X101354494Y-107639463D01*
X101244180Y-107580498D01*
X101124482Y-107544188D01*
X101000000Y-107531928D01*
X99936730Y-107531928D01*
X98684999Y-106280198D01*
X98684999Y-105739760D01*
X98870279Y-105863560D01*
X99304321Y-106043346D01*
X99765098Y-106135000D01*
X100234902Y-106135000D01*
X100695679Y-106043346D01*
X101129721Y-105863560D01*
X101520349Y-105602550D01*
X101640000Y-105482899D01*
X101640000Y-108184870D01*
G37*
%TD.AperFunction*%
D24*
X100152810Y-96267940D02*
X100127000Y-96293750D01*
X100127000Y-97143000D01*
X100147000Y-97143000D01*
X100147000Y-97397000D01*
X100127000Y-97397000D01*
X100127000Y-98246250D01*
X100285750Y-98405000D01*
X101000000Y-98408072D01*
X101124482Y-98395812D01*
X101244180Y-98359502D01*
X101354494Y-98300537D01*
X101451185Y-98221185D01*
X101530537Y-98124494D01*
X101589502Y-98014180D01*
X101625812Y-97894482D01*
X101638072Y-97770000D01*
X101637828Y-97752958D01*
X101640001Y-97755131D01*
X101640001Y-102017102D01*
X101520349Y-101897450D01*
X101129721Y-101636440D01*
X100819813Y-101508072D01*
X101000000Y-101508072D01*
X101124482Y-101495812D01*
X101244180Y-101459502D01*
X101354494Y-101400537D01*
X101451185Y-101321185D01*
X101530537Y-101224494D01*
X101589502Y-101114180D01*
X101625812Y-100994482D01*
X101638072Y-100870000D01*
X101638072Y-99870000D01*
X101625812Y-99745518D01*
X101589502Y-99625820D01*
X101530537Y-99515506D01*
X101451185Y-99418815D01*
X101354494Y-99339463D01*
X101244180Y-99280498D01*
X101124482Y-99244188D01*
X101000000Y-99231928D01*
X99000000Y-99231928D01*
X98875518Y-99244188D01*
X98755820Y-99280498D01*
X98645506Y-99339463D01*
X98548815Y-99418815D01*
X98469463Y-99515506D01*
X98418954Y-99610000D01*
X97671612Y-99610000D01*
X96224683Y-98163072D01*
X98075000Y-98163072D01*
X98248254Y-98146008D01*
X98414850Y-98095472D01*
X98445261Y-98079217D01*
X98469463Y-98124494D01*
X98548815Y-98221185D01*
X98645506Y-98300537D01*
X98755820Y-98359502D01*
X98875518Y-98395812D01*
X99000000Y-98408072D01*
X99714250Y-98405000D01*
X99873000Y-98246250D01*
X99873000Y-97397000D01*
X99853000Y-97397000D01*
X99853000Y-97143000D01*
X99873000Y-97143000D01*
X99873000Y-96293750D01*
X99714250Y-96135000D01*
X99000000Y-96131928D01*
X98959225Y-96135944D01*
X98946192Y-96003610D01*
X99417336Y-95532465D01*
X100152810Y-96267940D01*
%TA.AperFunction,Conductor*%
D25*
G36*
X100152810Y-96267940D02*
G01*
X100127000Y-96293750D01*
X100127000Y-97143000D01*
X100147000Y-97143000D01*
X100147000Y-97397000D01*
X100127000Y-97397000D01*
X100127000Y-98246250D01*
X100285750Y-98405000D01*
X101000000Y-98408072D01*
X101124482Y-98395812D01*
X101244180Y-98359502D01*
X101354494Y-98300537D01*
X101451185Y-98221185D01*
X101530537Y-98124494D01*
X101589502Y-98014180D01*
X101625812Y-97894482D01*
X101638072Y-97770000D01*
X101637828Y-97752958D01*
X101640001Y-97755131D01*
X101640001Y-102017102D01*
X101520349Y-101897450D01*
X101129721Y-101636440D01*
X100819813Y-101508072D01*
X101000000Y-101508072D01*
X101124482Y-101495812D01*
X101244180Y-101459502D01*
X101354494Y-101400537D01*
X101451185Y-101321185D01*
X101530537Y-101224494D01*
X101589502Y-101114180D01*
X101625812Y-100994482D01*
X101638072Y-100870000D01*
X101638072Y-99870000D01*
X101625812Y-99745518D01*
X101589502Y-99625820D01*
X101530537Y-99515506D01*
X101451185Y-99418815D01*
X101354494Y-99339463D01*
X101244180Y-99280498D01*
X101124482Y-99244188D01*
X101000000Y-99231928D01*
X99000000Y-99231928D01*
X98875518Y-99244188D01*
X98755820Y-99280498D01*
X98645506Y-99339463D01*
X98548815Y-99418815D01*
X98469463Y-99515506D01*
X98418954Y-99610000D01*
X97671612Y-99610000D01*
X96224683Y-98163072D01*
X98075000Y-98163072D01*
X98248254Y-98146008D01*
X98414850Y-98095472D01*
X98445261Y-98079217D01*
X98469463Y-98124494D01*
X98548815Y-98221185D01*
X98645506Y-98300537D01*
X98755820Y-98359502D01*
X98875518Y-98395812D01*
X99000000Y-98408072D01*
X99714250Y-98405000D01*
X99873000Y-98246250D01*
X99873000Y-97397000D01*
X99853000Y-97397000D01*
X99853000Y-97143000D01*
X99873000Y-97143000D01*
X99873000Y-96293750D01*
X99714250Y-96135000D01*
X99000000Y-96131928D01*
X98959225Y-96135944D01*
X98946192Y-96003610D01*
X99417336Y-95532465D01*
X100152810Y-96267940D01*
G37*
%TD.AperFunction*%
D24*
X97892171Y-93380258D02*
X97926582Y-93398651D01*
X97940000Y-93415001D01*
X98055725Y-93509974D01*
X98187754Y-93580546D01*
X98331015Y-93624003D01*
X98480000Y-93638677D01*
X98515000Y-93635230D01*
X98515000Y-94104246D01*
X98509509Y-94159998D01*
X98515000Y-94215749D01*
X98521227Y-94278971D01*
X97513271Y-95286928D01*
X95259990Y-95286928D01*
X95259990Y-93589811D01*
X95428659Y-93421142D01*
X95488418Y-93453084D01*
X95636255Y-93497929D01*
X95790000Y-93513072D01*
X96090000Y-93513072D01*
X96243745Y-93497929D01*
X96391582Y-93453084D01*
X96527829Y-93380258D01*
X96575000Y-93341546D01*
X96622171Y-93380258D01*
X96758418Y-93453084D01*
X96906255Y-93497929D01*
X97060000Y-93513072D01*
X97360000Y-93513072D01*
X97513745Y-93497929D01*
X97661582Y-93453084D01*
X97797829Y-93380258D01*
X97845000Y-93341546D01*
X97892171Y-93380258D01*
%TA.AperFunction,Conductor*%
D25*
G36*
X97892171Y-93380258D02*
G01*
X97926582Y-93398651D01*
X97940000Y-93415001D01*
X98055725Y-93509974D01*
X98187754Y-93580546D01*
X98331015Y-93624003D01*
X98480000Y-93638677D01*
X98515000Y-93635230D01*
X98515000Y-94104246D01*
X98509509Y-94159998D01*
X98515000Y-94215749D01*
X98521227Y-94278971D01*
X97513271Y-95286928D01*
X95259990Y-95286928D01*
X95259990Y-93589811D01*
X95428659Y-93421142D01*
X95488418Y-93453084D01*
X95636255Y-93497929D01*
X95790000Y-93513072D01*
X96090000Y-93513072D01*
X96243745Y-93497929D01*
X96391582Y-93453084D01*
X96527829Y-93380258D01*
X96575000Y-93341546D01*
X96622171Y-93380258D01*
X96758418Y-93453084D01*
X96906255Y-93497929D01*
X97060000Y-93513072D01*
X97360000Y-93513072D01*
X97513745Y-93497929D01*
X97661582Y-93453084D01*
X97797829Y-93380258D01*
X97845000Y-93341546D01*
X97892171Y-93380258D01*
G37*
%TD.AperFunction*%
D24*
X109004774Y-91551898D02*
X109082795Y-91740256D01*
X109196063Y-91909774D01*
X109340226Y-92053937D01*
X109509744Y-92167205D01*
X109698102Y-92245226D01*
X109898061Y-92285000D01*
X110101939Y-92285000D01*
X110301898Y-92245226D01*
X110386928Y-92210005D01*
X110386928Y-92275000D01*
X110403031Y-92438500D01*
X110450722Y-92595716D01*
X110528169Y-92740608D01*
X110632394Y-92867606D01*
X110641404Y-92875000D01*
X110632394Y-92882394D01*
X110528169Y-93009392D01*
X110450722Y-93154284D01*
X110403031Y-93311500D01*
X110386928Y-93475000D01*
X110386928Y-94025000D01*
X110403031Y-94188500D01*
X110450722Y-94345716D01*
X110528169Y-94490608D01*
X110632394Y-94617606D01*
X110641404Y-94625000D01*
X110632394Y-94632394D01*
X110544084Y-94740000D01*
X107564802Y-94740000D01*
X104498072Y-91673271D01*
X104498072Y-91359990D01*
X108966601Y-91359990D01*
X109004774Y-91551898D01*
%TA.AperFunction,Conductor*%
D25*
G36*
X109004774Y-91551898D02*
G01*
X109082795Y-91740256D01*
X109196063Y-91909774D01*
X109340226Y-92053937D01*
X109509744Y-92167205D01*
X109698102Y-92245226D01*
X109898061Y-92285000D01*
X110101939Y-92285000D01*
X110301898Y-92245226D01*
X110386928Y-92210005D01*
X110386928Y-92275000D01*
X110403031Y-92438500D01*
X110450722Y-92595716D01*
X110528169Y-92740608D01*
X110632394Y-92867606D01*
X110641404Y-92875000D01*
X110632394Y-92882394D01*
X110528169Y-93009392D01*
X110450722Y-93154284D01*
X110403031Y-93311500D01*
X110386928Y-93475000D01*
X110386928Y-94025000D01*
X110403031Y-94188500D01*
X110450722Y-94345716D01*
X110528169Y-94490608D01*
X110632394Y-94617606D01*
X110641404Y-94625000D01*
X110632394Y-94632394D01*
X110544084Y-94740000D01*
X107564802Y-94740000D01*
X104498072Y-91673271D01*
X104498072Y-91359990D01*
X108966601Y-91359990D01*
X109004774Y-91551898D01*
G37*
%TD.AperFunction*%
D24*
X101147000Y-91773000D02*
X101167000Y-91773000D01*
X101167000Y-92027000D01*
X101147000Y-92027000D01*
X101147000Y-92047000D01*
X100893000Y-92047000D01*
X100893000Y-92027000D01*
X100873000Y-92027000D01*
X100873000Y-91773000D01*
X100893000Y-91773000D01*
X100893000Y-91753000D01*
X101147000Y-91753000D01*
X101147000Y-91773000D01*
%TA.AperFunction,Conductor*%
D25*
G36*
X101147000Y-91773000D02*
G01*
X101167000Y-91773000D01*
X101167000Y-92027000D01*
X101147000Y-92027000D01*
X101147000Y-92047000D01*
X100893000Y-92047000D01*
X100893000Y-92027000D01*
X100873000Y-92027000D01*
X100873000Y-91773000D01*
X100893000Y-91773000D01*
X100893000Y-91753000D01*
X101147000Y-91753000D01*
X101147000Y-91773000D01*
G37*
%TD.AperFunction*%
D24*
X109076198Y-87261002D02*
X109099997Y-87290001D01*
X109215722Y-87384974D01*
X109347751Y-87455546D01*
X109491012Y-87499003D01*
X109602665Y-87510000D01*
X109602674Y-87510000D01*
X109639997Y-87513676D01*
X109677320Y-87510000D01*
X110544084Y-87510000D01*
X110632394Y-87617606D01*
X110641404Y-87625000D01*
X110632394Y-87632394D01*
X110528169Y-87759392D01*
X110450722Y-87904284D01*
X110403031Y-88061500D01*
X110386928Y-88225000D01*
X110386928Y-88312127D01*
X110313804Y-88239003D01*
X110290001Y-88209999D01*
X110174276Y-88115026D01*
X110042247Y-88044454D01*
X109898986Y-88000997D01*
X109787333Y-87990000D01*
X109787322Y-87990000D01*
X109750000Y-87986324D01*
X109712678Y-87990000D01*
X108514362Y-87990000D01*
X108471498Y-87909808D01*
X108417042Y-87828309D01*
X108337690Y-87731618D01*
X108268382Y-87662310D01*
X108171691Y-87582958D01*
X108090192Y-87528502D01*
X107979875Y-87469536D01*
X107889319Y-87432027D01*
X107769623Y-87395718D01*
X107673490Y-87376596D01*
X107549009Y-87364336D01*
X107524450Y-87364336D01*
X107500000Y-87361928D01*
X107000000Y-87361928D01*
X106875518Y-87374188D01*
X106850000Y-87381929D01*
X106824482Y-87374188D01*
X106700000Y-87361928D01*
X106200000Y-87361928D01*
X106175550Y-87364336D01*
X106150991Y-87364336D01*
X106026510Y-87376596D01*
X105930377Y-87395718D01*
X105810681Y-87432027D01*
X105720125Y-87469536D01*
X105609808Y-87528502D01*
X105528309Y-87582958D01*
X105431618Y-87662310D01*
X105362310Y-87731618D01*
X105282958Y-87828309D01*
X105228502Y-87909808D01*
X105185638Y-87990000D01*
X104464348Y-87990000D01*
X104482929Y-87928745D01*
X104498072Y-87775000D01*
X104498072Y-87086729D01*
X105786004Y-85798798D01*
X105815001Y-85775001D01*
X105909974Y-85659276D01*
X105980546Y-85527247D01*
X105996517Y-85474598D01*
X106000518Y-85475812D01*
X106125000Y-85488072D01*
X106625000Y-85488072D01*
X106749482Y-85475812D01*
X106869180Y-85439502D01*
X106979494Y-85380537D01*
X107076185Y-85301185D01*
X107094304Y-85279107D01*
X109076198Y-87261002D01*
%TA.AperFunction,Conductor*%
D25*
G36*
X109076198Y-87261002D02*
G01*
X109099997Y-87290001D01*
X109215722Y-87384974D01*
X109347751Y-87455546D01*
X109491012Y-87499003D01*
X109602665Y-87510000D01*
X109602674Y-87510000D01*
X109639997Y-87513676D01*
X109677320Y-87510000D01*
X110544084Y-87510000D01*
X110632394Y-87617606D01*
X110641404Y-87625000D01*
X110632394Y-87632394D01*
X110528169Y-87759392D01*
X110450722Y-87904284D01*
X110403031Y-88061500D01*
X110386928Y-88225000D01*
X110386928Y-88312127D01*
X110313804Y-88239003D01*
X110290001Y-88209999D01*
X110174276Y-88115026D01*
X110042247Y-88044454D01*
X109898986Y-88000997D01*
X109787333Y-87990000D01*
X109787322Y-87990000D01*
X109750000Y-87986324D01*
X109712678Y-87990000D01*
X108514362Y-87990000D01*
X108471498Y-87909808D01*
X108417042Y-87828309D01*
X108337690Y-87731618D01*
X108268382Y-87662310D01*
X108171691Y-87582958D01*
X108090192Y-87528502D01*
X107979875Y-87469536D01*
X107889319Y-87432027D01*
X107769623Y-87395718D01*
X107673490Y-87376596D01*
X107549009Y-87364336D01*
X107524450Y-87364336D01*
X107500000Y-87361928D01*
X107000000Y-87361928D01*
X106875518Y-87374188D01*
X106850000Y-87381929D01*
X106824482Y-87374188D01*
X106700000Y-87361928D01*
X106200000Y-87361928D01*
X106175550Y-87364336D01*
X106150991Y-87364336D01*
X106026510Y-87376596D01*
X105930377Y-87395718D01*
X105810681Y-87432027D01*
X105720125Y-87469536D01*
X105609808Y-87528502D01*
X105528309Y-87582958D01*
X105431618Y-87662310D01*
X105362310Y-87731618D01*
X105282958Y-87828309D01*
X105228502Y-87909808D01*
X105185638Y-87990000D01*
X104464348Y-87990000D01*
X104482929Y-87928745D01*
X104498072Y-87775000D01*
X104498072Y-87086729D01*
X105786004Y-85798798D01*
X105815001Y-85775001D01*
X105909974Y-85659276D01*
X105980546Y-85527247D01*
X105996517Y-85474598D01*
X106000518Y-85475812D01*
X106125000Y-85488072D01*
X106625000Y-85488072D01*
X106749482Y-85475812D01*
X106869180Y-85439502D01*
X106979494Y-85380537D01*
X107076185Y-85301185D01*
X107094304Y-85279107D01*
X109076198Y-87261002D01*
G37*
%TD.AperFunction*%
D24*
X97349799Y-84274600D02*
X97198102Y-84304774D01*
X97009744Y-84382795D01*
X96840226Y-84496063D01*
X96696063Y-84640226D01*
X96582795Y-84809744D01*
X96504774Y-84998102D01*
X96465000Y-85198061D01*
X96465000Y-85401939D01*
X96468109Y-85417571D01*
X96462824Y-85434996D01*
X96391582Y-85396916D01*
X96243745Y-85352071D01*
X96090000Y-85336928D01*
X95790000Y-85336928D01*
X95636255Y-85352071D01*
X95488418Y-85396916D01*
X95352171Y-85469742D01*
X95232749Y-85567749D01*
X95134742Y-85687171D01*
X95061916Y-85823418D01*
X95034135Y-85915000D01*
X95001561Y-85915000D01*
X94801602Y-85954774D01*
X94613244Y-86032795D01*
X94443726Y-86146063D01*
X94299563Y-86290226D01*
X94186295Y-86459744D01*
X94108274Y-86648102D01*
X94068500Y-86848061D01*
X94068500Y-87051939D01*
X94108274Y-87251898D01*
X94186295Y-87440256D01*
X94238498Y-87518384D01*
X92501892Y-87518384D01*
X92535000Y-87351939D01*
X92535000Y-87148061D01*
X92495226Y-86948102D01*
X92417205Y-86759744D01*
X92303937Y-86590226D01*
X92159774Y-86446063D01*
X91990256Y-86332795D01*
X91860001Y-86278841D01*
X91860001Y-85281670D01*
X91925000Y-85288072D01*
X94925000Y-85288072D01*
X95098254Y-85271008D01*
X95264850Y-85220472D01*
X95418386Y-85138405D01*
X95552962Y-85027962D01*
X95663405Y-84893386D01*
X95745472Y-84739850D01*
X95796008Y-84573254D01*
X95813072Y-84400000D01*
X95813072Y-83535000D01*
X96610199Y-83535000D01*
X97349799Y-84274600D01*
%TA.AperFunction,Conductor*%
D25*
G36*
X97349799Y-84274600D02*
G01*
X97198102Y-84304774D01*
X97009744Y-84382795D01*
X96840226Y-84496063D01*
X96696063Y-84640226D01*
X96582795Y-84809744D01*
X96504774Y-84998102D01*
X96465000Y-85198061D01*
X96465000Y-85401939D01*
X96468109Y-85417571D01*
X96462824Y-85434996D01*
X96391582Y-85396916D01*
X96243745Y-85352071D01*
X96090000Y-85336928D01*
X95790000Y-85336928D01*
X95636255Y-85352071D01*
X95488418Y-85396916D01*
X95352171Y-85469742D01*
X95232749Y-85567749D01*
X95134742Y-85687171D01*
X95061916Y-85823418D01*
X95034135Y-85915000D01*
X95001561Y-85915000D01*
X94801602Y-85954774D01*
X94613244Y-86032795D01*
X94443726Y-86146063D01*
X94299563Y-86290226D01*
X94186295Y-86459744D01*
X94108274Y-86648102D01*
X94068500Y-86848061D01*
X94068500Y-87051939D01*
X94108274Y-87251898D01*
X94186295Y-87440256D01*
X94238498Y-87518384D01*
X92501892Y-87518384D01*
X92535000Y-87351939D01*
X92535000Y-87148061D01*
X92495226Y-86948102D01*
X92417205Y-86759744D01*
X92303937Y-86590226D01*
X92159774Y-86446063D01*
X91990256Y-86332795D01*
X91860001Y-86278841D01*
X91860001Y-85281670D01*
X91925000Y-85288072D01*
X94925000Y-85288072D01*
X95098254Y-85271008D01*
X95264850Y-85220472D01*
X95418386Y-85138405D01*
X95552962Y-85027962D01*
X95663405Y-84893386D01*
X95745472Y-84739850D01*
X95796008Y-84573254D01*
X95813072Y-84400000D01*
X95813072Y-83535000D01*
X96610199Y-83535000D01*
X97349799Y-84274600D01*
G37*
%TD.AperFunction*%
D24*
X95322129Y-52611928D02*
X92950000Y-52611928D01*
X92825518Y-52624188D01*
X92705820Y-52660498D01*
X92595506Y-52719463D01*
X92498815Y-52798815D01*
X92419463Y-52895506D01*
X92360498Y-53005820D01*
X92324188Y-53125518D01*
X92311928Y-53250000D01*
X92311928Y-56750000D01*
X92324188Y-56874482D01*
X92360498Y-56994180D01*
X92419463Y-57104494D01*
X92498815Y-57201185D01*
X92595506Y-57280537D01*
X92705820Y-57339502D01*
X92825518Y-57375812D01*
X92950000Y-57388072D01*
X96450000Y-57388072D01*
X96574482Y-57375812D01*
X96694180Y-57339502D01*
X96804494Y-57280537D01*
X96901185Y-57201185D01*
X96980537Y-57104494D01*
X97039502Y-56994180D01*
X97075812Y-56874482D01*
X97088072Y-56750000D01*
X97088072Y-54377872D01*
X98114999Y-55404800D01*
X98114999Y-60701509D01*
X97918574Y-60620147D01*
X97641335Y-60565000D01*
X97358665Y-60565000D01*
X97081426Y-60620147D01*
X96820273Y-60728320D01*
X96585241Y-60885363D01*
X96399431Y-61071173D01*
X96367606Y-61032394D01*
X96240608Y-60928169D01*
X96095716Y-60850722D01*
X95938500Y-60803031D01*
X95775000Y-60786928D01*
X95375000Y-60786928D01*
X95211500Y-60803031D01*
X95054284Y-60850722D01*
X94909392Y-60928169D01*
X94807410Y-61011863D01*
X94776185Y-60973815D01*
X94679494Y-60894463D01*
X94569180Y-60835498D01*
X94449482Y-60799188D01*
X94325000Y-60786928D01*
X94210750Y-60790000D01*
X94052000Y-60948750D01*
X94052000Y-61773000D01*
X94072000Y-61773000D01*
X94072000Y-62027000D01*
X94052000Y-62027000D01*
X94052000Y-62851250D01*
X94210750Y-63010000D01*
X94325000Y-63013072D01*
X94449482Y-63000812D01*
X94569180Y-62964502D01*
X94679494Y-62905537D01*
X94776185Y-62826185D01*
X94807410Y-62788137D01*
X94909392Y-62871831D01*
X95054284Y-62949278D01*
X95211500Y-62996969D01*
X95375000Y-63013072D01*
X95775000Y-63013072D01*
X95938500Y-62996969D01*
X96095716Y-62949278D01*
X96240608Y-62871831D01*
X96315572Y-62810309D01*
X96385363Y-62914759D01*
X96585241Y-63114637D01*
X96820273Y-63271680D01*
X97081426Y-63379853D01*
X97358665Y-63435000D01*
X97641335Y-63435000D01*
X97918574Y-63379853D01*
X98115000Y-63298491D01*
X98115000Y-66937667D01*
X98111323Y-66974999D01*
X98115000Y-67012332D01*
X98125997Y-67123985D01*
X98128375Y-67131825D01*
X93988072Y-71272129D01*
X93988072Y-68700000D01*
X93975812Y-68575518D01*
X93939502Y-68455820D01*
X93880537Y-68345506D01*
X93801185Y-68248815D01*
X93704494Y-68169463D01*
X93594180Y-68110498D01*
X93474482Y-68074188D01*
X93350000Y-68061928D01*
X91350000Y-68061928D01*
X91225518Y-68074188D01*
X91105820Y-68110498D01*
X90995506Y-68169463D01*
X90898815Y-68248815D01*
X90819463Y-68345506D01*
X90760498Y-68455820D01*
X90724188Y-68575518D01*
X90711928Y-68700000D01*
X90711928Y-72400000D01*
X90724188Y-72524482D01*
X90760498Y-72644180D01*
X90819463Y-72754494D01*
X90898815Y-72851185D01*
X90995506Y-72930537D01*
X91105820Y-72989502D01*
X91225518Y-73025812D01*
X91350000Y-73038072D01*
X91833219Y-73038072D01*
X91813564Y-73057727D01*
X91700296Y-73227245D01*
X91622275Y-73415603D01*
X91582501Y-73615562D01*
X91582501Y-73677699D01*
X89589008Y-75671193D01*
X89560010Y-75694991D01*
X89536212Y-75723989D01*
X89536211Y-75723990D01*
X89465036Y-75810716D01*
X89394464Y-75942746D01*
X89374745Y-76007753D01*
X89351008Y-76086006D01*
X89343941Y-76157754D01*
X89336334Y-76234992D01*
X89340011Y-76272324D01*
X89340010Y-82412841D01*
X88310750Y-82415000D01*
X88152000Y-82573750D01*
X88152000Y-83723000D01*
X88172000Y-83723000D01*
X88172000Y-83977000D01*
X88152000Y-83977000D01*
X88152000Y-85126250D01*
X88310750Y-85285000D01*
X89340010Y-85287159D01*
X89340010Y-86376411D01*
X89323102Y-86379774D01*
X89134744Y-86457795D01*
X88965226Y-86571063D01*
X88821063Y-86715226D01*
X88707795Y-86884744D01*
X88629774Y-87073102D01*
X88599408Y-87225764D01*
X88112646Y-86739002D01*
X88088843Y-86709999D01*
X87973118Y-86615026D01*
X87841089Y-86544454D01*
X87697828Y-86500997D01*
X87586175Y-86490000D01*
X87586164Y-86490000D01*
X87548842Y-86486324D01*
X87514526Y-86489704D01*
X86312814Y-85287993D01*
X87739250Y-85285000D01*
X87898000Y-85126250D01*
X87898000Y-83977000D01*
X87878000Y-83977000D01*
X87878000Y-83723000D01*
X87898000Y-83723000D01*
X87898000Y-82573750D01*
X87739250Y-82415000D01*
X86275000Y-82411928D01*
X86150518Y-82424188D01*
X86110010Y-82436476D01*
X86110010Y-60779872D01*
X86265000Y-60779872D01*
X86265000Y-61220128D01*
X86350890Y-61651925D01*
X86519369Y-62058669D01*
X86763962Y-62424729D01*
X87075271Y-62736038D01*
X87441331Y-62980631D01*
X87848075Y-63149110D01*
X88279872Y-63235000D01*
X88720128Y-63235000D01*
X89151925Y-63149110D01*
X89558669Y-62980631D01*
X89924729Y-62736038D01*
X90236038Y-62424729D01*
X90480631Y-62058669D01*
X90649110Y-61651925D01*
X90735000Y-61220128D01*
X90735000Y-60779872D01*
X90649110Y-60348075D01*
X90480631Y-59941331D01*
X90236038Y-59575271D01*
X89924729Y-59263962D01*
X89558669Y-59019369D01*
X89151925Y-58850890D01*
X88720128Y-58765000D01*
X88279872Y-58765000D01*
X87848075Y-58850890D01*
X87441331Y-59019369D01*
X87075271Y-59263962D01*
X86763962Y-59575271D01*
X86519369Y-59941331D01*
X86350890Y-60348075D01*
X86265000Y-60779872D01*
X86110010Y-60779872D01*
X86110010Y-56390773D01*
X86225518Y-56425812D01*
X86350000Y-56438072D01*
X88132312Y-56438072D01*
X88165026Y-56499276D01*
X88204871Y-56547826D01*
X88259999Y-56615001D01*
X88289003Y-56638804D01*
X91760000Y-60109802D01*
X91759999Y-65217678D01*
X91756323Y-65255001D01*
X91759999Y-65292323D01*
X91759999Y-65292333D01*
X91770996Y-65403986D01*
X91799819Y-65499003D01*
X91814453Y-65547247D01*
X91885025Y-65679277D01*
X91924870Y-65727827D01*
X91979998Y-65795002D01*
X92009001Y-65818804D01*
X92801199Y-66611003D01*
X92824997Y-66640001D01*
X92853995Y-66663799D01*
X92940721Y-66734974D01*
X93049700Y-66793225D01*
X93072751Y-66805546D01*
X93216012Y-66849003D01*
X93327665Y-66860000D01*
X93327674Y-66860000D01*
X93364997Y-66863676D01*
X93402320Y-66860000D01*
X93496289Y-66860000D01*
X93540226Y-66903937D01*
X93709744Y-67017205D01*
X93898102Y-67095226D01*
X94098061Y-67135000D01*
X94301939Y-67135000D01*
X94501898Y-67095226D01*
X94690256Y-67017205D01*
X94859774Y-66903937D01*
X95003937Y-66759774D01*
X95117205Y-66590256D01*
X95195226Y-66401898D01*
X95235000Y-66201939D01*
X95235000Y-65998061D01*
X95195226Y-65798102D01*
X95117205Y-65609744D01*
X95003937Y-65440226D01*
X94859774Y-65296063D01*
X94690256Y-65182795D01*
X94501898Y-65104774D01*
X94301939Y-65065000D01*
X94098061Y-65065000D01*
X93898102Y-65104774D01*
X93709744Y-65182795D01*
X93597556Y-65257756D01*
X93279999Y-64940200D01*
X93279999Y-62964063D01*
X93280820Y-62964502D01*
X93400518Y-63000812D01*
X93525000Y-63013072D01*
X93639250Y-63010000D01*
X93798000Y-62851250D01*
X93798000Y-62027000D01*
X93778000Y-62027000D01*
X93778000Y-61773000D01*
X93798000Y-61773000D01*
X93798000Y-60948750D01*
X93639250Y-60790000D01*
X93525000Y-60786928D01*
X93400518Y-60799188D01*
X93280820Y-60835498D01*
X93279999Y-60835937D01*
X93279999Y-59832321D01*
X93283675Y-59794998D01*
X93279999Y-59757675D01*
X93279999Y-59757666D01*
X93269002Y-59646013D01*
X93225545Y-59502752D01*
X93218724Y-59489991D01*
X93154973Y-59370722D01*
X93083798Y-59283996D01*
X93060000Y-59254998D01*
X93031002Y-59231200D01*
X90237873Y-56438072D01*
X90650000Y-56438072D01*
X90774482Y-56425812D01*
X90894180Y-56389502D01*
X91004494Y-56330537D01*
X91101185Y-56251185D01*
X91180537Y-56154494D01*
X91239502Y-56044180D01*
X91275812Y-55924482D01*
X91288072Y-55800000D01*
X91288072Y-53800000D01*
X91275812Y-53675518D01*
X91239502Y-53555820D01*
X91180537Y-53445506D01*
X91101185Y-53348815D01*
X91041704Y-53300000D01*
X91101185Y-53251185D01*
X91180537Y-53154494D01*
X91239502Y-53044180D01*
X91275812Y-52924482D01*
X91288072Y-52800000D01*
X91288072Y-52560000D01*
X95270201Y-52560000D01*
X95322129Y-52611928D01*
%TA.AperFunction,Conductor*%
D25*
G36*
X95322129Y-52611928D02*
G01*
X92950000Y-52611928D01*
X92825518Y-52624188D01*
X92705820Y-52660498D01*
X92595506Y-52719463D01*
X92498815Y-52798815D01*
X92419463Y-52895506D01*
X92360498Y-53005820D01*
X92324188Y-53125518D01*
X92311928Y-53250000D01*
X92311928Y-56750000D01*
X92324188Y-56874482D01*
X92360498Y-56994180D01*
X92419463Y-57104494D01*
X92498815Y-57201185D01*
X92595506Y-57280537D01*
X92705820Y-57339502D01*
X92825518Y-57375812D01*
X92950000Y-57388072D01*
X96450000Y-57388072D01*
X96574482Y-57375812D01*
X96694180Y-57339502D01*
X96804494Y-57280537D01*
X96901185Y-57201185D01*
X96980537Y-57104494D01*
X97039502Y-56994180D01*
X97075812Y-56874482D01*
X97088072Y-56750000D01*
X97088072Y-54377872D01*
X98114999Y-55404800D01*
X98114999Y-60701509D01*
X97918574Y-60620147D01*
X97641335Y-60565000D01*
X97358665Y-60565000D01*
X97081426Y-60620147D01*
X96820273Y-60728320D01*
X96585241Y-60885363D01*
X96399431Y-61071173D01*
X96367606Y-61032394D01*
X96240608Y-60928169D01*
X96095716Y-60850722D01*
X95938500Y-60803031D01*
X95775000Y-60786928D01*
X95375000Y-60786928D01*
X95211500Y-60803031D01*
X95054284Y-60850722D01*
X94909392Y-60928169D01*
X94807410Y-61011863D01*
X94776185Y-60973815D01*
X94679494Y-60894463D01*
X94569180Y-60835498D01*
X94449482Y-60799188D01*
X94325000Y-60786928D01*
X94210750Y-60790000D01*
X94052000Y-60948750D01*
X94052000Y-61773000D01*
X94072000Y-61773000D01*
X94072000Y-62027000D01*
X94052000Y-62027000D01*
X94052000Y-62851250D01*
X94210750Y-63010000D01*
X94325000Y-63013072D01*
X94449482Y-63000812D01*
X94569180Y-62964502D01*
X94679494Y-62905537D01*
X94776185Y-62826185D01*
X94807410Y-62788137D01*
X94909392Y-62871831D01*
X95054284Y-62949278D01*
X95211500Y-62996969D01*
X95375000Y-63013072D01*
X95775000Y-63013072D01*
X95938500Y-62996969D01*
X96095716Y-62949278D01*
X96240608Y-62871831D01*
X96315572Y-62810309D01*
X96385363Y-62914759D01*
X96585241Y-63114637D01*
X96820273Y-63271680D01*
X97081426Y-63379853D01*
X97358665Y-63435000D01*
X97641335Y-63435000D01*
X97918574Y-63379853D01*
X98115000Y-63298491D01*
X98115000Y-66937667D01*
X98111323Y-66974999D01*
X98115000Y-67012332D01*
X98125997Y-67123985D01*
X98128375Y-67131825D01*
X93988072Y-71272129D01*
X93988072Y-68700000D01*
X93975812Y-68575518D01*
X93939502Y-68455820D01*
X93880537Y-68345506D01*
X93801185Y-68248815D01*
X93704494Y-68169463D01*
X93594180Y-68110498D01*
X93474482Y-68074188D01*
X93350000Y-68061928D01*
X91350000Y-68061928D01*
X91225518Y-68074188D01*
X91105820Y-68110498D01*
X90995506Y-68169463D01*
X90898815Y-68248815D01*
X90819463Y-68345506D01*
X90760498Y-68455820D01*
X90724188Y-68575518D01*
X90711928Y-68700000D01*
X90711928Y-72400000D01*
X90724188Y-72524482D01*
X90760498Y-72644180D01*
X90819463Y-72754494D01*
X90898815Y-72851185D01*
X90995506Y-72930537D01*
X91105820Y-72989502D01*
X91225518Y-73025812D01*
X91350000Y-73038072D01*
X91833219Y-73038072D01*
X91813564Y-73057727D01*
X91700296Y-73227245D01*
X91622275Y-73415603D01*
X91582501Y-73615562D01*
X91582501Y-73677699D01*
X89589008Y-75671193D01*
X89560010Y-75694991D01*
X89536212Y-75723989D01*
X89536211Y-75723990D01*
X89465036Y-75810716D01*
X89394464Y-75942746D01*
X89374745Y-76007753D01*
X89351008Y-76086006D01*
X89343941Y-76157754D01*
X89336334Y-76234992D01*
X89340011Y-76272324D01*
X89340010Y-82412841D01*
X88310750Y-82415000D01*
X88152000Y-82573750D01*
X88152000Y-83723000D01*
X88172000Y-83723000D01*
X88172000Y-83977000D01*
X88152000Y-83977000D01*
X88152000Y-85126250D01*
X88310750Y-85285000D01*
X89340010Y-85287159D01*
X89340010Y-86376411D01*
X89323102Y-86379774D01*
X89134744Y-86457795D01*
X88965226Y-86571063D01*
X88821063Y-86715226D01*
X88707795Y-86884744D01*
X88629774Y-87073102D01*
X88599408Y-87225764D01*
X88112646Y-86739002D01*
X88088843Y-86709999D01*
X87973118Y-86615026D01*
X87841089Y-86544454D01*
X87697828Y-86500997D01*
X87586175Y-86490000D01*
X87586164Y-86490000D01*
X87548842Y-86486324D01*
X87514526Y-86489704D01*
X86312814Y-85287993D01*
X87739250Y-85285000D01*
X87898000Y-85126250D01*
X87898000Y-83977000D01*
X87878000Y-83977000D01*
X87878000Y-83723000D01*
X87898000Y-83723000D01*
X87898000Y-82573750D01*
X87739250Y-82415000D01*
X86275000Y-82411928D01*
X86150518Y-82424188D01*
X86110010Y-82436476D01*
X86110010Y-60779872D01*
X86265000Y-60779872D01*
X86265000Y-61220128D01*
X86350890Y-61651925D01*
X86519369Y-62058669D01*
X86763962Y-62424729D01*
X87075271Y-62736038D01*
X87441331Y-62980631D01*
X87848075Y-63149110D01*
X88279872Y-63235000D01*
X88720128Y-63235000D01*
X89151925Y-63149110D01*
X89558669Y-62980631D01*
X89924729Y-62736038D01*
X90236038Y-62424729D01*
X90480631Y-62058669D01*
X90649110Y-61651925D01*
X90735000Y-61220128D01*
X90735000Y-60779872D01*
X90649110Y-60348075D01*
X90480631Y-59941331D01*
X90236038Y-59575271D01*
X89924729Y-59263962D01*
X89558669Y-59019369D01*
X89151925Y-58850890D01*
X88720128Y-58765000D01*
X88279872Y-58765000D01*
X87848075Y-58850890D01*
X87441331Y-59019369D01*
X87075271Y-59263962D01*
X86763962Y-59575271D01*
X86519369Y-59941331D01*
X86350890Y-60348075D01*
X86265000Y-60779872D01*
X86110010Y-60779872D01*
X86110010Y-56390773D01*
X86225518Y-56425812D01*
X86350000Y-56438072D01*
X88132312Y-56438072D01*
X88165026Y-56499276D01*
X88204871Y-56547826D01*
X88259999Y-56615001D01*
X88289003Y-56638804D01*
X91760000Y-60109802D01*
X91759999Y-65217678D01*
X91756323Y-65255001D01*
X91759999Y-65292323D01*
X91759999Y-65292333D01*
X91770996Y-65403986D01*
X91799819Y-65499003D01*
X91814453Y-65547247D01*
X91885025Y-65679277D01*
X91924870Y-65727827D01*
X91979998Y-65795002D01*
X92009001Y-65818804D01*
X92801199Y-66611003D01*
X92824997Y-66640001D01*
X92853995Y-66663799D01*
X92940721Y-66734974D01*
X93049700Y-66793225D01*
X93072751Y-66805546D01*
X93216012Y-66849003D01*
X93327665Y-66860000D01*
X93327674Y-66860000D01*
X93364997Y-66863676D01*
X93402320Y-66860000D01*
X93496289Y-66860000D01*
X93540226Y-66903937D01*
X93709744Y-67017205D01*
X93898102Y-67095226D01*
X94098061Y-67135000D01*
X94301939Y-67135000D01*
X94501898Y-67095226D01*
X94690256Y-67017205D01*
X94859774Y-66903937D01*
X95003937Y-66759774D01*
X95117205Y-66590256D01*
X95195226Y-66401898D01*
X95235000Y-66201939D01*
X95235000Y-65998061D01*
X95195226Y-65798102D01*
X95117205Y-65609744D01*
X95003937Y-65440226D01*
X94859774Y-65296063D01*
X94690256Y-65182795D01*
X94501898Y-65104774D01*
X94301939Y-65065000D01*
X94098061Y-65065000D01*
X93898102Y-65104774D01*
X93709744Y-65182795D01*
X93597556Y-65257756D01*
X93279999Y-64940200D01*
X93279999Y-62964063D01*
X93280820Y-62964502D01*
X93400518Y-63000812D01*
X93525000Y-63013072D01*
X93639250Y-63010000D01*
X93798000Y-62851250D01*
X93798000Y-62027000D01*
X93778000Y-62027000D01*
X93778000Y-61773000D01*
X93798000Y-61773000D01*
X93798000Y-60948750D01*
X93639250Y-60790000D01*
X93525000Y-60786928D01*
X93400518Y-60799188D01*
X93280820Y-60835498D01*
X93279999Y-60835937D01*
X93279999Y-59832321D01*
X93283675Y-59794998D01*
X93279999Y-59757675D01*
X93279999Y-59757666D01*
X93269002Y-59646013D01*
X93225545Y-59502752D01*
X93218724Y-59489991D01*
X93154973Y-59370722D01*
X93083798Y-59283996D01*
X93060000Y-59254998D01*
X93031002Y-59231200D01*
X90237873Y-56438072D01*
X90650000Y-56438072D01*
X90774482Y-56425812D01*
X90894180Y-56389502D01*
X91004494Y-56330537D01*
X91101185Y-56251185D01*
X91180537Y-56154494D01*
X91239502Y-56044180D01*
X91275812Y-55924482D01*
X91288072Y-55800000D01*
X91288072Y-53800000D01*
X91275812Y-53675518D01*
X91239502Y-53555820D01*
X91180537Y-53445506D01*
X91101185Y-53348815D01*
X91041704Y-53300000D01*
X91101185Y-53251185D01*
X91180537Y-53154494D01*
X91239502Y-53044180D01*
X91275812Y-52924482D01*
X91288072Y-52800000D01*
X91288072Y-52560000D01*
X95270201Y-52560000D01*
X95322129Y-52611928D01*
G37*
%TD.AperFunction*%
D24*
X101147000Y-86823000D02*
X101167000Y-86823000D01*
X101167000Y-87077000D01*
X101147000Y-87077000D01*
X101147000Y-87097000D01*
X100982809Y-87097000D01*
X100968577Y-86952501D01*
X100923226Y-86803000D01*
X101147000Y-86803000D01*
X101147000Y-86823000D01*
%TA.AperFunction,Conductor*%
D25*
G36*
X101147000Y-86823000D02*
G01*
X101167000Y-86823000D01*
X101167000Y-87077000D01*
X101147000Y-87077000D01*
X101147000Y-87097000D01*
X100982809Y-87097000D01*
X100968577Y-86952501D01*
X100923226Y-86803000D01*
X101147000Y-86803000D01*
X101147000Y-86823000D01*
G37*
%TD.AperFunction*%
D24*
X107150998Y-79798986D02*
X107157207Y-79819454D01*
X107194454Y-79942246D01*
X107265026Y-80074276D01*
X107307249Y-80125724D01*
X107360000Y-80190001D01*
X107388998Y-80213799D01*
X110915198Y-83740000D01*
X109001607Y-83740000D01*
X108949482Y-83724188D01*
X108825000Y-83711928D01*
X108325000Y-83711928D01*
X108200518Y-83724188D01*
X108080820Y-83760498D01*
X107970506Y-83819463D01*
X107873815Y-83898815D01*
X107869217Y-83904418D01*
X107478801Y-83514002D01*
X107454998Y-83484998D01*
X107339273Y-83390025D01*
X107207244Y-83319453D01*
X107063983Y-83275996D01*
X106952330Y-83264999D01*
X106952319Y-83264999D01*
X106914997Y-83261323D01*
X106877675Y-83264999D01*
X103762323Y-83264999D01*
X103725000Y-83261323D01*
X103687677Y-83264999D01*
X103687668Y-83264999D01*
X103576015Y-83275996D01*
X103432754Y-83319453D01*
X103300725Y-83390025D01*
X103185000Y-83484998D01*
X103161202Y-83513997D01*
X102938270Y-83736928D01*
X102800000Y-83736928D01*
X102675518Y-83749188D01*
X102555820Y-83785498D01*
X102445506Y-83844463D01*
X102415231Y-83869309D01*
X102354494Y-83819463D01*
X102244180Y-83760498D01*
X102124482Y-83724188D01*
X102000000Y-83711928D01*
X101835750Y-83715000D01*
X101677000Y-83873750D01*
X101677000Y-84698000D01*
X101697000Y-84698000D01*
X101697000Y-84952000D01*
X101677000Y-84952000D01*
X101677000Y-84972000D01*
X101423000Y-84972000D01*
X101423000Y-84952000D01*
X101403000Y-84952000D01*
X101403000Y-84698000D01*
X101423000Y-84698000D01*
X101423000Y-83873750D01*
X101264250Y-83715000D01*
X101100000Y-83711928D01*
X100975518Y-83724188D01*
X100855820Y-83760498D01*
X100745506Y-83819463D01*
X100701351Y-83855700D01*
X100555283Y-83777625D01*
X100393377Y-83728512D01*
X100225000Y-83711928D01*
X99775000Y-83711928D01*
X99606623Y-83728512D01*
X99444717Y-83777625D01*
X99295503Y-83857382D01*
X99178338Y-83953537D01*
X97609802Y-82385001D01*
X104062677Y-82385001D01*
X104099999Y-82388677D01*
X104137321Y-82385001D01*
X104137332Y-82385001D01*
X104248985Y-82374004D01*
X104392246Y-82330547D01*
X104524275Y-82259975D01*
X104640000Y-82165002D01*
X104663803Y-82135999D01*
X104864801Y-81935000D01*
X105136411Y-81935000D01*
X105403989Y-81881775D01*
X105656043Y-81777371D01*
X105882886Y-81625799D01*
X106075799Y-81432886D01*
X106227371Y-81206043D01*
X106331775Y-80953989D01*
X106385000Y-80686411D01*
X106385000Y-80413589D01*
X106356167Y-80268635D01*
X106811730Y-79813072D01*
X106900000Y-79813072D01*
X107068377Y-79796488D01*
X107148362Y-79772225D01*
X107150998Y-79798986D01*
%TA.AperFunction,Conductor*%
D25*
G36*
X107150998Y-79798986D02*
G01*
X107157207Y-79819454D01*
X107194454Y-79942246D01*
X107265026Y-80074276D01*
X107307249Y-80125724D01*
X107360000Y-80190001D01*
X107388998Y-80213799D01*
X110915198Y-83740000D01*
X109001607Y-83740000D01*
X108949482Y-83724188D01*
X108825000Y-83711928D01*
X108325000Y-83711928D01*
X108200518Y-83724188D01*
X108080820Y-83760498D01*
X107970506Y-83819463D01*
X107873815Y-83898815D01*
X107869217Y-83904418D01*
X107478801Y-83514002D01*
X107454998Y-83484998D01*
X107339273Y-83390025D01*
X107207244Y-83319453D01*
X107063983Y-83275996D01*
X106952330Y-83264999D01*
X106952319Y-83264999D01*
X106914997Y-83261323D01*
X106877675Y-83264999D01*
X103762323Y-83264999D01*
X103725000Y-83261323D01*
X103687677Y-83264999D01*
X103687668Y-83264999D01*
X103576015Y-83275996D01*
X103432754Y-83319453D01*
X103300725Y-83390025D01*
X103185000Y-83484998D01*
X103161202Y-83513997D01*
X102938270Y-83736928D01*
X102800000Y-83736928D01*
X102675518Y-83749188D01*
X102555820Y-83785498D01*
X102445506Y-83844463D01*
X102415231Y-83869309D01*
X102354494Y-83819463D01*
X102244180Y-83760498D01*
X102124482Y-83724188D01*
X102000000Y-83711928D01*
X101835750Y-83715000D01*
X101677000Y-83873750D01*
X101677000Y-84698000D01*
X101697000Y-84698000D01*
X101697000Y-84952000D01*
X101677000Y-84952000D01*
X101677000Y-84972000D01*
X101423000Y-84972000D01*
X101423000Y-84952000D01*
X101403000Y-84952000D01*
X101403000Y-84698000D01*
X101423000Y-84698000D01*
X101423000Y-83873750D01*
X101264250Y-83715000D01*
X101100000Y-83711928D01*
X100975518Y-83724188D01*
X100855820Y-83760498D01*
X100745506Y-83819463D01*
X100701351Y-83855700D01*
X100555283Y-83777625D01*
X100393377Y-83728512D01*
X100225000Y-83711928D01*
X99775000Y-83711928D01*
X99606623Y-83728512D01*
X99444717Y-83777625D01*
X99295503Y-83857382D01*
X99178338Y-83953537D01*
X97609802Y-82385001D01*
X104062677Y-82385001D01*
X104099999Y-82388677D01*
X104137321Y-82385001D01*
X104137332Y-82385001D01*
X104248985Y-82374004D01*
X104392246Y-82330547D01*
X104524275Y-82259975D01*
X104640000Y-82165002D01*
X104663803Y-82135999D01*
X104864801Y-81935000D01*
X105136411Y-81935000D01*
X105403989Y-81881775D01*
X105656043Y-81777371D01*
X105882886Y-81625799D01*
X106075799Y-81432886D01*
X106227371Y-81206043D01*
X106331775Y-80953989D01*
X106385000Y-80686411D01*
X106385000Y-80413589D01*
X106356167Y-80268635D01*
X106811730Y-79813072D01*
X106900000Y-79813072D01*
X107068377Y-79796488D01*
X107148362Y-79772225D01*
X107150998Y-79798986D01*
G37*
%TD.AperFunction*%
D24*
X113889990Y-59264792D02*
X113889991Y-81135207D01*
X112960199Y-82065000D01*
X112898061Y-82065000D01*
X112698102Y-82104774D01*
X112509744Y-82182795D01*
X112340226Y-82296063D01*
X112196063Y-82440226D01*
X112082795Y-82609744D01*
X112039374Y-82714572D01*
X108660000Y-79335199D01*
X108660000Y-77594569D01*
X108665365Y-77590166D01*
X110605744Y-79530545D01*
X110596063Y-79540226D01*
X110482795Y-79709744D01*
X110404774Y-79898102D01*
X110365000Y-80098061D01*
X110365000Y-80301939D01*
X110404774Y-80501898D01*
X110482795Y-80690256D01*
X110596063Y-80859774D01*
X110740226Y-81003937D01*
X110909744Y-81117205D01*
X111098102Y-81195226D01*
X111298061Y-81235000D01*
X111501939Y-81235000D01*
X111701898Y-81195226D01*
X111890256Y-81117205D01*
X112059774Y-81003937D01*
X112203937Y-80859774D01*
X112317205Y-80690256D01*
X112395226Y-80501898D01*
X112435000Y-80301939D01*
X112435000Y-80098061D01*
X112395226Y-79898102D01*
X112317205Y-79709744D01*
X112203937Y-79540226D01*
X112160000Y-79496289D01*
X112160000Y-79287322D01*
X112163676Y-79249999D01*
X112160000Y-79212676D01*
X112160000Y-79212667D01*
X112149003Y-79101014D01*
X112105546Y-78957753D01*
X112034974Y-78825724D01*
X111940001Y-78709999D01*
X111911004Y-78686202D01*
X109935000Y-76710199D01*
X109935000Y-62997327D01*
X109938676Y-62960002D01*
X109935000Y-62922677D01*
X109935000Y-62922669D01*
X109924003Y-62811016D01*
X109880546Y-62667755D01*
X109809974Y-62535726D01*
X109715001Y-62420001D01*
X109686004Y-62396204D01*
X108069672Y-60779872D01*
X109265000Y-60779872D01*
X109265000Y-61220128D01*
X109350890Y-61651925D01*
X109519369Y-62058669D01*
X109763962Y-62424729D01*
X110075271Y-62736038D01*
X110441331Y-62980631D01*
X110848075Y-63149110D01*
X111279872Y-63235000D01*
X111720128Y-63235000D01*
X112151925Y-63149110D01*
X112558669Y-62980631D01*
X112924729Y-62736038D01*
X113236038Y-62424729D01*
X113480631Y-62058669D01*
X113649110Y-61651925D01*
X113735000Y-61220128D01*
X113735000Y-60779872D01*
X113649110Y-60348075D01*
X113480631Y-59941331D01*
X113236038Y-59575271D01*
X112924729Y-59263962D01*
X112558669Y-59019369D01*
X112151925Y-58850890D01*
X111720128Y-58765000D01*
X111279872Y-58765000D01*
X110848075Y-58850890D01*
X110441331Y-59019369D01*
X110075271Y-59263962D01*
X109763962Y-59575271D01*
X109519369Y-59941331D01*
X109350890Y-60348075D01*
X109265000Y-60779872D01*
X108069672Y-60779872D01*
X104677872Y-57388072D01*
X107050000Y-57388072D01*
X107174482Y-57375812D01*
X107294180Y-57339502D01*
X107404494Y-57280537D01*
X107501185Y-57201185D01*
X107580537Y-57104494D01*
X107639502Y-56994180D01*
X107675812Y-56874482D01*
X107688072Y-56750000D01*
X107688072Y-53250000D01*
X107675812Y-53125518D01*
X107643196Y-53017997D01*
X113889990Y-59264792D01*
%TA.AperFunction,Conductor*%
D25*
G36*
X113889990Y-59264792D02*
G01*
X113889991Y-81135207D01*
X112960199Y-82065000D01*
X112898061Y-82065000D01*
X112698102Y-82104774D01*
X112509744Y-82182795D01*
X112340226Y-82296063D01*
X112196063Y-82440226D01*
X112082795Y-82609744D01*
X112039374Y-82714572D01*
X108660000Y-79335199D01*
X108660000Y-77594569D01*
X108665365Y-77590166D01*
X110605744Y-79530545D01*
X110596063Y-79540226D01*
X110482795Y-79709744D01*
X110404774Y-79898102D01*
X110365000Y-80098061D01*
X110365000Y-80301939D01*
X110404774Y-80501898D01*
X110482795Y-80690256D01*
X110596063Y-80859774D01*
X110740226Y-81003937D01*
X110909744Y-81117205D01*
X111098102Y-81195226D01*
X111298061Y-81235000D01*
X111501939Y-81235000D01*
X111701898Y-81195226D01*
X111890256Y-81117205D01*
X112059774Y-81003937D01*
X112203937Y-80859774D01*
X112317205Y-80690256D01*
X112395226Y-80501898D01*
X112435000Y-80301939D01*
X112435000Y-80098061D01*
X112395226Y-79898102D01*
X112317205Y-79709744D01*
X112203937Y-79540226D01*
X112160000Y-79496289D01*
X112160000Y-79287322D01*
X112163676Y-79249999D01*
X112160000Y-79212676D01*
X112160000Y-79212667D01*
X112149003Y-79101014D01*
X112105546Y-78957753D01*
X112034974Y-78825724D01*
X111940001Y-78709999D01*
X111911004Y-78686202D01*
X109935000Y-76710199D01*
X109935000Y-62997327D01*
X109938676Y-62960002D01*
X109935000Y-62922677D01*
X109935000Y-62922669D01*
X109924003Y-62811016D01*
X109880546Y-62667755D01*
X109809974Y-62535726D01*
X109715001Y-62420001D01*
X109686004Y-62396204D01*
X108069672Y-60779872D01*
X109265000Y-60779872D01*
X109265000Y-61220128D01*
X109350890Y-61651925D01*
X109519369Y-62058669D01*
X109763962Y-62424729D01*
X110075271Y-62736038D01*
X110441331Y-62980631D01*
X110848075Y-63149110D01*
X111279872Y-63235000D01*
X111720128Y-63235000D01*
X112151925Y-63149110D01*
X112558669Y-62980631D01*
X112924729Y-62736038D01*
X113236038Y-62424729D01*
X113480631Y-62058669D01*
X113649110Y-61651925D01*
X113735000Y-61220128D01*
X113735000Y-60779872D01*
X113649110Y-60348075D01*
X113480631Y-59941331D01*
X113236038Y-59575271D01*
X112924729Y-59263962D01*
X112558669Y-59019369D01*
X112151925Y-58850890D01*
X111720128Y-58765000D01*
X111279872Y-58765000D01*
X110848075Y-58850890D01*
X110441331Y-59019369D01*
X110075271Y-59263962D01*
X109763962Y-59575271D01*
X109519369Y-59941331D01*
X109350890Y-60348075D01*
X109265000Y-60779872D01*
X108069672Y-60779872D01*
X104677872Y-57388072D01*
X107050000Y-57388072D01*
X107174482Y-57375812D01*
X107294180Y-57339502D01*
X107404494Y-57280537D01*
X107501185Y-57201185D01*
X107580537Y-57104494D01*
X107639502Y-56994180D01*
X107675812Y-56874482D01*
X107688072Y-56750000D01*
X107688072Y-53250000D01*
X107675812Y-53125518D01*
X107643196Y-53017997D01*
X113889990Y-59264792D01*
G37*
%TD.AperFunction*%
D24*
X98461928Y-73350000D02*
X98478512Y-73518377D01*
X98527625Y-73680283D01*
X98607382Y-73829497D01*
X98696018Y-73937500D01*
X98674246Y-73964029D01*
X98515256Y-73857795D01*
X98326898Y-73779774D01*
X98126939Y-73740000D01*
X97923061Y-73740000D01*
X97723102Y-73779774D01*
X97534744Y-73857795D01*
X97365226Y-73971063D01*
X97221063Y-74115226D01*
X97107795Y-74284744D01*
X97029774Y-74473102D01*
X96990000Y-74673061D01*
X96990000Y-74876939D01*
X97029774Y-75076898D01*
X97107795Y-75265256D01*
X97221063Y-75434774D01*
X97365226Y-75578937D01*
X97534744Y-75692205D01*
X97723102Y-75770226D01*
X97923061Y-75810000D01*
X98126939Y-75810000D01*
X98326898Y-75770226D01*
X98515256Y-75692205D01*
X98674246Y-75585971D01*
X98714352Y-75634841D01*
X98653169Y-75709392D01*
X98575722Y-75854284D01*
X98528031Y-76011500D01*
X98511928Y-76175000D01*
X98511928Y-76725000D01*
X98528031Y-76888500D01*
X98575722Y-77045716D01*
X98653169Y-77190608D01*
X98691652Y-77237500D01*
X98653169Y-77284392D01*
X98575722Y-77429284D01*
X98545158Y-77530039D01*
X96910199Y-79165000D01*
X96863589Y-79165000D01*
X96596011Y-79218225D01*
X96343957Y-79322629D01*
X96117114Y-79474201D01*
X96000000Y-79591315D01*
X95882886Y-79474201D01*
X95656043Y-79322629D01*
X95403989Y-79218225D01*
X95136411Y-79165000D01*
X94863589Y-79165000D01*
X94596011Y-79218225D01*
X94343957Y-79322629D01*
X94117114Y-79474201D01*
X93924201Y-79667114D01*
X93772629Y-79893957D01*
X93668225Y-80146011D01*
X93615000Y-80413589D01*
X93615000Y-80686411D01*
X93668225Y-80953989D01*
X93772629Y-81206043D01*
X93924201Y-81432886D01*
X94117114Y-81625799D01*
X94343957Y-81777371D01*
X94596011Y-81881775D01*
X94863589Y-81935000D01*
X95136411Y-81935000D01*
X95403989Y-81881775D01*
X95589239Y-81805042D01*
X95799196Y-82015000D01*
X93987322Y-82015000D01*
X93949999Y-82011324D01*
X93912676Y-82015000D01*
X93912667Y-82015000D01*
X93801014Y-82025997D01*
X93672436Y-82065000D01*
X93657753Y-82069454D01*
X93525723Y-82140026D01*
X93464799Y-82190026D01*
X93409999Y-82234999D01*
X93386200Y-82263998D01*
X93238270Y-82411928D01*
X91925000Y-82411928D01*
X91860001Y-82418330D01*
X91860001Y-79464800D01*
X98461928Y-72862873D01*
X98461928Y-73350000D01*
%TA.AperFunction,Conductor*%
D25*
G36*
X98461928Y-73350000D02*
G01*
X98478512Y-73518377D01*
X98527625Y-73680283D01*
X98607382Y-73829497D01*
X98696018Y-73937500D01*
X98674246Y-73964029D01*
X98515256Y-73857795D01*
X98326898Y-73779774D01*
X98126939Y-73740000D01*
X97923061Y-73740000D01*
X97723102Y-73779774D01*
X97534744Y-73857795D01*
X97365226Y-73971063D01*
X97221063Y-74115226D01*
X97107795Y-74284744D01*
X97029774Y-74473102D01*
X96990000Y-74673061D01*
X96990000Y-74876939D01*
X97029774Y-75076898D01*
X97107795Y-75265256D01*
X97221063Y-75434774D01*
X97365226Y-75578937D01*
X97534744Y-75692205D01*
X97723102Y-75770226D01*
X97923061Y-75810000D01*
X98126939Y-75810000D01*
X98326898Y-75770226D01*
X98515256Y-75692205D01*
X98674246Y-75585971D01*
X98714352Y-75634841D01*
X98653169Y-75709392D01*
X98575722Y-75854284D01*
X98528031Y-76011500D01*
X98511928Y-76175000D01*
X98511928Y-76725000D01*
X98528031Y-76888500D01*
X98575722Y-77045716D01*
X98653169Y-77190608D01*
X98691652Y-77237500D01*
X98653169Y-77284392D01*
X98575722Y-77429284D01*
X98545158Y-77530039D01*
X96910199Y-79165000D01*
X96863589Y-79165000D01*
X96596011Y-79218225D01*
X96343957Y-79322629D01*
X96117114Y-79474201D01*
X96000000Y-79591315D01*
X95882886Y-79474201D01*
X95656043Y-79322629D01*
X95403989Y-79218225D01*
X95136411Y-79165000D01*
X94863589Y-79165000D01*
X94596011Y-79218225D01*
X94343957Y-79322629D01*
X94117114Y-79474201D01*
X93924201Y-79667114D01*
X93772629Y-79893957D01*
X93668225Y-80146011D01*
X93615000Y-80413589D01*
X93615000Y-80686411D01*
X93668225Y-80953989D01*
X93772629Y-81206043D01*
X93924201Y-81432886D01*
X94117114Y-81625799D01*
X94343957Y-81777371D01*
X94596011Y-81881775D01*
X94863589Y-81935000D01*
X95136411Y-81935000D01*
X95403989Y-81881775D01*
X95589239Y-81805042D01*
X95799196Y-82015000D01*
X93987322Y-82015000D01*
X93949999Y-82011324D01*
X93912676Y-82015000D01*
X93912667Y-82015000D01*
X93801014Y-82025997D01*
X93672436Y-82065000D01*
X93657753Y-82069454D01*
X93525723Y-82140026D01*
X93464799Y-82190026D01*
X93409999Y-82234999D01*
X93386200Y-82263998D01*
X93238270Y-82411928D01*
X91925000Y-82411928D01*
X91860001Y-82418330D01*
X91860001Y-79464800D01*
X98461928Y-72862873D01*
X98461928Y-73350000D01*
G37*
%TD.AperFunction*%
D24*
X105569536Y-77229875D02*
X105628502Y-77340192D01*
X105682958Y-77421691D01*
X105762310Y-77518382D01*
X105831618Y-77587690D01*
X105928309Y-77667042D01*
X106001389Y-77715873D01*
X105973649Y-77730700D01*
X105929494Y-77694463D01*
X105819180Y-77635498D01*
X105699482Y-77599188D01*
X105575000Y-77586928D01*
X105410750Y-77590000D01*
X105252000Y-77748750D01*
X105252000Y-78573000D01*
X105272000Y-78573000D01*
X105272000Y-78827000D01*
X105252000Y-78827000D01*
X105252000Y-78847000D01*
X104998000Y-78847000D01*
X104998000Y-78827000D01*
X104198750Y-78827000D01*
X104040000Y-78985750D01*
X104036928Y-79175000D01*
X104049188Y-79299482D01*
X104085498Y-79419180D01*
X104115676Y-79475639D01*
X104000000Y-79591315D01*
X103882886Y-79474201D01*
X103656043Y-79322629D01*
X103403989Y-79218225D01*
X103136411Y-79165000D01*
X102863589Y-79165000D01*
X102718635Y-79193833D01*
X102164260Y-78639459D01*
X102174278Y-78620716D01*
X102221969Y-78463500D01*
X102238072Y-78300000D01*
X102238072Y-78225000D01*
X104036928Y-78225000D01*
X104040000Y-78414250D01*
X104198750Y-78573000D01*
X104998000Y-78573000D01*
X104998000Y-77748750D01*
X104839250Y-77590000D01*
X104675000Y-77586928D01*
X104550518Y-77599188D01*
X104430820Y-77635498D01*
X104320506Y-77694463D01*
X104223815Y-77773815D01*
X104144463Y-77870506D01*
X104085498Y-77980820D01*
X104049188Y-78100518D01*
X104036928Y-78225000D01*
X102238072Y-78225000D01*
X102238072Y-77750000D01*
X102221969Y-77586500D01*
X102174278Y-77429284D01*
X102096831Y-77284392D01*
X102058348Y-77237500D01*
X102080916Y-77210000D01*
X105561304Y-77210000D01*
X105569536Y-77229875D01*
%TA.AperFunction,Conductor*%
D25*
G36*
X105569536Y-77229875D02*
G01*
X105628502Y-77340192D01*
X105682958Y-77421691D01*
X105762310Y-77518382D01*
X105831618Y-77587690D01*
X105928309Y-77667042D01*
X106001389Y-77715873D01*
X105973649Y-77730700D01*
X105929494Y-77694463D01*
X105819180Y-77635498D01*
X105699482Y-77599188D01*
X105575000Y-77586928D01*
X105410750Y-77590000D01*
X105252000Y-77748750D01*
X105252000Y-78573000D01*
X105272000Y-78573000D01*
X105272000Y-78827000D01*
X105252000Y-78827000D01*
X105252000Y-78847000D01*
X104998000Y-78847000D01*
X104998000Y-78827000D01*
X104198750Y-78827000D01*
X104040000Y-78985750D01*
X104036928Y-79175000D01*
X104049188Y-79299482D01*
X104085498Y-79419180D01*
X104115676Y-79475639D01*
X104000000Y-79591315D01*
X103882886Y-79474201D01*
X103656043Y-79322629D01*
X103403989Y-79218225D01*
X103136411Y-79165000D01*
X102863589Y-79165000D01*
X102718635Y-79193833D01*
X102164260Y-78639459D01*
X102174278Y-78620716D01*
X102221969Y-78463500D01*
X102238072Y-78300000D01*
X102238072Y-78225000D01*
X104036928Y-78225000D01*
X104040000Y-78414250D01*
X104198750Y-78573000D01*
X104998000Y-78573000D01*
X104998000Y-77748750D01*
X104839250Y-77590000D01*
X104675000Y-77586928D01*
X104550518Y-77599188D01*
X104430820Y-77635498D01*
X104320506Y-77694463D01*
X104223815Y-77773815D01*
X104144463Y-77870506D01*
X104085498Y-77980820D01*
X104049188Y-78100518D01*
X104036928Y-78225000D01*
X102238072Y-78225000D01*
X102238072Y-77750000D01*
X102221969Y-77586500D01*
X102174278Y-77429284D01*
X102096831Y-77284392D01*
X102058348Y-77237500D01*
X102080916Y-77210000D01*
X105561304Y-77210000D01*
X105569536Y-77229875D01*
G37*
%TD.AperFunction*%
D24*
X104740001Y-61564803D02*
X104740000Y-64435198D01*
X90860010Y-78315189D01*
X90860010Y-76549793D01*
X92657303Y-74752501D01*
X92719440Y-74752501D01*
X92919399Y-74712727D01*
X93107757Y-74634706D01*
X93277275Y-74521438D01*
X93421438Y-74377275D01*
X93534706Y-74207757D01*
X93612727Y-74019399D01*
X93652501Y-73819440D01*
X93652501Y-73757302D01*
X99628504Y-67781300D01*
X99657502Y-67757502D01*
X99681305Y-67728498D01*
X103011004Y-64398800D01*
X103040001Y-64375003D01*
X103080443Y-64325724D01*
X103134974Y-64259279D01*
X103205546Y-64127249D01*
X103230661Y-64044454D01*
X103249003Y-63983988D01*
X103260000Y-63872335D01*
X103260000Y-63872325D01*
X103263676Y-63835002D01*
X103260000Y-63797679D01*
X103260000Y-63218043D01*
X103414759Y-63114637D01*
X103614637Y-62914759D01*
X103771680Y-62679727D01*
X103879853Y-62418574D01*
X103935000Y-62141335D01*
X103935000Y-61858665D01*
X103879853Y-61581426D01*
X103771680Y-61320273D01*
X103614637Y-61085241D01*
X103414759Y-60885363D01*
X103179727Y-60728320D01*
X102918574Y-60620147D01*
X102641335Y-60565000D01*
X102358665Y-60565000D01*
X102081426Y-60620147D01*
X101865014Y-60709788D01*
X102564802Y-60010000D01*
X103185199Y-60010000D01*
X104740001Y-61564803D01*
%TA.AperFunction,Conductor*%
D25*
G36*
X104740001Y-61564803D02*
G01*
X104740000Y-64435198D01*
X90860010Y-78315189D01*
X90860010Y-76549793D01*
X92657303Y-74752501D01*
X92719440Y-74752501D01*
X92919399Y-74712727D01*
X93107757Y-74634706D01*
X93277275Y-74521438D01*
X93421438Y-74377275D01*
X93534706Y-74207757D01*
X93612727Y-74019399D01*
X93652501Y-73819440D01*
X93652501Y-73757302D01*
X99628504Y-67781300D01*
X99657502Y-67757502D01*
X99681305Y-67728498D01*
X103011004Y-64398800D01*
X103040001Y-64375003D01*
X103080443Y-64325724D01*
X103134974Y-64259279D01*
X103205546Y-64127249D01*
X103230661Y-64044454D01*
X103249003Y-63983988D01*
X103260000Y-63872335D01*
X103260000Y-63872325D01*
X103263676Y-63835002D01*
X103260000Y-63797679D01*
X103260000Y-63218043D01*
X103414759Y-63114637D01*
X103614637Y-62914759D01*
X103771680Y-62679727D01*
X103879853Y-62418574D01*
X103935000Y-62141335D01*
X103935000Y-61858665D01*
X103879853Y-61581426D01*
X103771680Y-61320273D01*
X103614637Y-61085241D01*
X103414759Y-60885363D01*
X103179727Y-60728320D01*
X102918574Y-60620147D01*
X102641335Y-60565000D01*
X102358665Y-60565000D01*
X102081426Y-60620147D01*
X101865014Y-60709788D01*
X102564802Y-60010000D01*
X103185199Y-60010000D01*
X104740001Y-61564803D01*
G37*
%TD.AperFunction*%
D24*
X108415000Y-63274804D02*
X108415000Y-68061928D01*
X106650000Y-68061928D01*
X106525518Y-68074188D01*
X106405820Y-68110498D01*
X106295506Y-68169463D01*
X106198815Y-68248815D01*
X106119463Y-68345506D01*
X106060498Y-68455820D01*
X106024188Y-68575518D01*
X106011928Y-68700000D01*
X106011928Y-72400000D01*
X106024188Y-72524482D01*
X106060498Y-72644180D01*
X106119463Y-72754494D01*
X106198815Y-72851185D01*
X106295506Y-72930537D01*
X106405820Y-72989502D01*
X106525518Y-73025812D01*
X106650000Y-73038072D01*
X108415001Y-73038072D01*
X108415001Y-75238311D01*
X108379875Y-75219536D01*
X108289319Y-75182027D01*
X108169623Y-75145718D01*
X108073490Y-75126596D01*
X107949009Y-75114336D01*
X107924450Y-75114336D01*
X107900000Y-75111928D01*
X107400000Y-75111928D01*
X107355435Y-75116317D01*
X107349003Y-75051014D01*
X107305546Y-74907753D01*
X107247408Y-74798986D01*
X107234974Y-74775723D01*
X107163799Y-74688997D01*
X107140001Y-74659999D01*
X107111003Y-74636201D01*
X103135000Y-70660199D01*
X103135000Y-70598061D01*
X103095226Y-70398102D01*
X103017205Y-70209744D01*
X102903937Y-70040226D01*
X102759774Y-69896063D01*
X102590256Y-69782795D01*
X102401898Y-69704774D01*
X102201939Y-69665000D01*
X101998061Y-69665000D01*
X101798102Y-69704774D01*
X101609744Y-69782795D01*
X101440226Y-69896063D01*
X101296063Y-70040226D01*
X101182795Y-70209744D01*
X101104774Y-70398102D01*
X101065000Y-70598061D01*
X101065000Y-70801939D01*
X101104774Y-71001898D01*
X101182795Y-71190256D01*
X101296063Y-71359774D01*
X101440226Y-71503937D01*
X101609744Y-71617205D01*
X101798102Y-71695226D01*
X101998061Y-71735000D01*
X102060199Y-71735000D01*
X105784563Y-75459365D01*
X105762310Y-75481618D01*
X105682958Y-75578309D01*
X105628502Y-75659808D01*
X105612364Y-75690000D01*
X103367150Y-75690000D01*
X103467205Y-75540256D01*
X103545226Y-75351898D01*
X103585000Y-75151939D01*
X103585000Y-74948061D01*
X103545226Y-74748102D01*
X103467205Y-74559744D01*
X103353937Y-74390226D01*
X103209774Y-74246063D01*
X103040256Y-74132795D01*
X102851898Y-74054774D01*
X102651939Y-74015000D01*
X102448061Y-74015000D01*
X102403111Y-74023941D01*
X102312333Y-74015000D01*
X102312322Y-74015000D01*
X102275000Y-74011324D01*
X102237678Y-74015000D01*
X102017585Y-74015000D01*
X101953982Y-73937500D01*
X102042618Y-73829497D01*
X102122375Y-73680283D01*
X102171488Y-73518377D01*
X102188072Y-73350000D01*
X102188072Y-72850000D01*
X102171488Y-72681623D01*
X102122375Y-72519717D01*
X102042618Y-72370503D01*
X101935284Y-72239716D01*
X101804497Y-72132382D01*
X101655283Y-72052625D01*
X101493377Y-72003512D01*
X101325000Y-71986928D01*
X100875000Y-71986928D01*
X100706623Y-72003512D01*
X100544717Y-72052625D01*
X100395503Y-72132382D01*
X100325000Y-72190242D01*
X100254497Y-72132382D01*
X100105283Y-72052625D01*
X99943377Y-72003512D01*
X99775000Y-71986928D01*
X99337874Y-71986928D01*
X106011004Y-65313798D01*
X106040001Y-65290001D01*
X106127983Y-65182795D01*
X106134974Y-65174277D01*
X106205546Y-65042247D01*
X106229659Y-64962755D01*
X106249003Y-64898986D01*
X106260000Y-64787333D01*
X106260000Y-64787323D01*
X106263676Y-64750000D01*
X106260000Y-64712677D01*
X106260000Y-61287322D01*
X106263676Y-61249999D01*
X106260000Y-61212676D01*
X106260000Y-61212667D01*
X106249854Y-61109658D01*
X108415000Y-63274804D01*
%TA.AperFunction,Conductor*%
D25*
G36*
X108415000Y-63274804D02*
G01*
X108415000Y-68061928D01*
X106650000Y-68061928D01*
X106525518Y-68074188D01*
X106405820Y-68110498D01*
X106295506Y-68169463D01*
X106198815Y-68248815D01*
X106119463Y-68345506D01*
X106060498Y-68455820D01*
X106024188Y-68575518D01*
X106011928Y-68700000D01*
X106011928Y-72400000D01*
X106024188Y-72524482D01*
X106060498Y-72644180D01*
X106119463Y-72754494D01*
X106198815Y-72851185D01*
X106295506Y-72930537D01*
X106405820Y-72989502D01*
X106525518Y-73025812D01*
X106650000Y-73038072D01*
X108415001Y-73038072D01*
X108415001Y-75238311D01*
X108379875Y-75219536D01*
X108289319Y-75182027D01*
X108169623Y-75145718D01*
X108073490Y-75126596D01*
X107949009Y-75114336D01*
X107924450Y-75114336D01*
X107900000Y-75111928D01*
X107400000Y-75111928D01*
X107355435Y-75116317D01*
X107349003Y-75051014D01*
X107305546Y-74907753D01*
X107247408Y-74798986D01*
X107234974Y-74775723D01*
X107163799Y-74688997D01*
X107140001Y-74659999D01*
X107111003Y-74636201D01*
X103135000Y-70660199D01*
X103135000Y-70598061D01*
X103095226Y-70398102D01*
X103017205Y-70209744D01*
X102903937Y-70040226D01*
X102759774Y-69896063D01*
X102590256Y-69782795D01*
X102401898Y-69704774D01*
X102201939Y-69665000D01*
X101998061Y-69665000D01*
X101798102Y-69704774D01*
X101609744Y-69782795D01*
X101440226Y-69896063D01*
X101296063Y-70040226D01*
X101182795Y-70209744D01*
X101104774Y-70398102D01*
X101065000Y-70598061D01*
X101065000Y-70801939D01*
X101104774Y-71001898D01*
X101182795Y-71190256D01*
X101296063Y-71359774D01*
X101440226Y-71503937D01*
X101609744Y-71617205D01*
X101798102Y-71695226D01*
X101998061Y-71735000D01*
X102060199Y-71735000D01*
X105784563Y-75459365D01*
X105762310Y-75481618D01*
X105682958Y-75578309D01*
X105628502Y-75659808D01*
X105612364Y-75690000D01*
X103367150Y-75690000D01*
X103467205Y-75540256D01*
X103545226Y-75351898D01*
X103585000Y-75151939D01*
X103585000Y-74948061D01*
X103545226Y-74748102D01*
X103467205Y-74559744D01*
X103353937Y-74390226D01*
X103209774Y-74246063D01*
X103040256Y-74132795D01*
X102851898Y-74054774D01*
X102651939Y-74015000D01*
X102448061Y-74015000D01*
X102403111Y-74023941D01*
X102312333Y-74015000D01*
X102312322Y-74015000D01*
X102275000Y-74011324D01*
X102237678Y-74015000D01*
X102017585Y-74015000D01*
X101953982Y-73937500D01*
X102042618Y-73829497D01*
X102122375Y-73680283D01*
X102171488Y-73518377D01*
X102188072Y-73350000D01*
X102188072Y-72850000D01*
X102171488Y-72681623D01*
X102122375Y-72519717D01*
X102042618Y-72370503D01*
X101935284Y-72239716D01*
X101804497Y-72132382D01*
X101655283Y-72052625D01*
X101493377Y-72003512D01*
X101325000Y-71986928D01*
X100875000Y-71986928D01*
X100706623Y-72003512D01*
X100544717Y-72052625D01*
X100395503Y-72132382D01*
X100325000Y-72190242D01*
X100254497Y-72132382D01*
X100105283Y-72052625D01*
X99943377Y-72003512D01*
X99775000Y-71986928D01*
X99337874Y-71986928D01*
X106011004Y-65313798D01*
X106040001Y-65290001D01*
X106127983Y-65182795D01*
X106134974Y-65174277D01*
X106205546Y-65042247D01*
X106229659Y-64962755D01*
X106249003Y-64898986D01*
X106260000Y-64787333D01*
X106260000Y-64787323D01*
X106263676Y-64750000D01*
X106260000Y-64712677D01*
X106260000Y-61287322D01*
X106263676Y-61249999D01*
X106260000Y-61212676D01*
X106260000Y-61212667D01*
X106249854Y-61109658D01*
X108415000Y-63274804D01*
G37*
%TD.AperFunction*%
D24*
X101385363Y-62914759D02*
X101585241Y-63114637D01*
X101740000Y-63218044D01*
X101740000Y-63520200D01*
X99634999Y-65625202D01*
X99634999Y-63390509D01*
X99858665Y-63435000D01*
X100141335Y-63435000D01*
X100418574Y-63379853D01*
X100679727Y-63271680D01*
X100914759Y-63114637D01*
X101114637Y-62914759D01*
X101250000Y-62712173D01*
X101385363Y-62914759D01*
%TA.AperFunction,Conductor*%
D25*
G36*
X101385363Y-62914759D02*
G01*
X101585241Y-63114637D01*
X101740000Y-63218044D01*
X101740000Y-63520200D01*
X99634999Y-65625202D01*
X99634999Y-63390509D01*
X99858665Y-63435000D01*
X100141335Y-63435000D01*
X100418574Y-63379853D01*
X100679727Y-63271680D01*
X100914759Y-63114637D01*
X101114637Y-62914759D01*
X101250000Y-62712173D01*
X101385363Y-62914759D01*
G37*
%TD.AperFunction*%
D24*
X96385363Y-47614759D02*
X96585241Y-47814637D01*
X96640000Y-47851226D01*
X96640001Y-51147670D01*
X96636324Y-51185002D01*
X96650998Y-51333987D01*
X96694454Y-51477248D01*
X96765026Y-51609278D01*
X96836201Y-51696004D01*
X96860000Y-51725003D01*
X96888998Y-51748801D01*
X103640342Y-58500146D01*
X103537333Y-58490000D01*
X103537322Y-58490000D01*
X103500000Y-58486324D01*
X103462678Y-58490000D01*
X102287333Y-58490000D01*
X102250000Y-58486323D01*
X102212667Y-58490000D01*
X102101014Y-58500997D01*
X101957753Y-58544454D01*
X101825724Y-58615026D01*
X101709999Y-58709999D01*
X101686201Y-58738997D01*
X99860199Y-60565000D01*
X99858665Y-60565000D01*
X99634999Y-60609491D01*
X99634999Y-55127319D01*
X99638675Y-55089996D01*
X99634999Y-55052673D01*
X99634999Y-55052664D01*
X99624002Y-54941011D01*
X99580545Y-54797750D01*
X99509973Y-54665721D01*
X99496810Y-54649682D01*
X99438798Y-54578993D01*
X99438794Y-54578989D01*
X99415000Y-54549996D01*
X99386008Y-54526203D01*
X96148806Y-51289003D01*
X96125003Y-51259999D01*
X96009278Y-51165026D01*
X95877249Y-51094454D01*
X95733988Y-51050997D01*
X95622335Y-51040000D01*
X95622324Y-51040000D01*
X95585002Y-51036324D01*
X95547680Y-51040000D01*
X91288072Y-51040000D01*
X91288072Y-50800000D01*
X91275812Y-50675518D01*
X91239502Y-50555820D01*
X91180537Y-50445506D01*
X91101185Y-50348815D01*
X91004494Y-50269463D01*
X90894180Y-50210498D01*
X90774482Y-50174188D01*
X90650000Y-50161928D01*
X86350000Y-50161928D01*
X86225518Y-50174188D01*
X86110010Y-50209227D01*
X86110010Y-48290773D01*
X86225518Y-48325812D01*
X86350000Y-48338072D01*
X90650000Y-48338072D01*
X90774482Y-48325812D01*
X90894180Y-48289502D01*
X91004494Y-48230537D01*
X91101185Y-48151185D01*
X91180537Y-48054494D01*
X91239502Y-47944180D01*
X91275812Y-47824482D01*
X91288072Y-47700000D01*
X91288072Y-47460000D01*
X96281957Y-47460000D01*
X96385363Y-47614759D01*
%TA.AperFunction,Conductor*%
D25*
G36*
X96385363Y-47614759D02*
G01*
X96585241Y-47814637D01*
X96640000Y-47851226D01*
X96640001Y-51147670D01*
X96636324Y-51185002D01*
X96650998Y-51333987D01*
X96694454Y-51477248D01*
X96765026Y-51609278D01*
X96836201Y-51696004D01*
X96860000Y-51725003D01*
X96888998Y-51748801D01*
X103640342Y-58500146D01*
X103537333Y-58490000D01*
X103537322Y-58490000D01*
X103500000Y-58486324D01*
X103462678Y-58490000D01*
X102287333Y-58490000D01*
X102250000Y-58486323D01*
X102212667Y-58490000D01*
X102101014Y-58500997D01*
X101957753Y-58544454D01*
X101825724Y-58615026D01*
X101709999Y-58709999D01*
X101686201Y-58738997D01*
X99860199Y-60565000D01*
X99858665Y-60565000D01*
X99634999Y-60609491D01*
X99634999Y-55127319D01*
X99638675Y-55089996D01*
X99634999Y-55052673D01*
X99634999Y-55052664D01*
X99624002Y-54941011D01*
X99580545Y-54797750D01*
X99509973Y-54665721D01*
X99496810Y-54649682D01*
X99438798Y-54578993D01*
X99438794Y-54578989D01*
X99415000Y-54549996D01*
X99386008Y-54526203D01*
X96148806Y-51289003D01*
X96125003Y-51259999D01*
X96009278Y-51165026D01*
X95877249Y-51094454D01*
X95733988Y-51050997D01*
X95622335Y-51040000D01*
X95622324Y-51040000D01*
X95585002Y-51036324D01*
X95547680Y-51040000D01*
X91288072Y-51040000D01*
X91288072Y-50800000D01*
X91275812Y-50675518D01*
X91239502Y-50555820D01*
X91180537Y-50445506D01*
X91101185Y-50348815D01*
X91004494Y-50269463D01*
X90894180Y-50210498D01*
X90774482Y-50174188D01*
X90650000Y-50161928D01*
X86350000Y-50161928D01*
X86225518Y-50174188D01*
X86110010Y-50209227D01*
X86110010Y-48290773D01*
X86225518Y-48325812D01*
X86350000Y-48338072D01*
X90650000Y-48338072D01*
X90774482Y-48325812D01*
X90894180Y-48289502D01*
X91004494Y-48230537D01*
X91101185Y-48151185D01*
X91180537Y-48054494D01*
X91239502Y-47944180D01*
X91275812Y-47824482D01*
X91288072Y-47700000D01*
X91288072Y-47460000D01*
X96281957Y-47460000D01*
X96385363Y-47614759D01*
G37*
%TD.AperFunction*%
D24*
X98365000Y-20734250D02*
X98523750Y-20893000D01*
X99873000Y-20893000D01*
X99873000Y-20873000D01*
X100127000Y-20873000D01*
X100127000Y-20893000D01*
X101476250Y-20893000D01*
X101635000Y-20734250D01*
X101636065Y-20660000D01*
X111967721Y-20660000D01*
X112453893Y-20707670D01*
X112890498Y-20839489D01*
X113293185Y-21053600D01*
X113646612Y-21341848D01*
X113937327Y-21693261D01*
X114154242Y-22094439D01*
X114289106Y-22530113D01*
X114340000Y-23014344D01*
X114340000Y-57565198D01*
X104612873Y-47838072D01*
X104650000Y-47838072D01*
X104813500Y-47821969D01*
X104970716Y-47774278D01*
X105115608Y-47696831D01*
X105217590Y-47613137D01*
X105248815Y-47651185D01*
X105345506Y-47730537D01*
X105455820Y-47789502D01*
X105575518Y-47825812D01*
X105700000Y-47838072D01*
X105814250Y-47835000D01*
X105973000Y-47676250D01*
X105973000Y-46852000D01*
X106227000Y-46852000D01*
X106227000Y-47676250D01*
X106385750Y-47835000D01*
X106500000Y-47838072D01*
X106624482Y-47825812D01*
X106744180Y-47789502D01*
X106854494Y-47730537D01*
X106951185Y-47651185D01*
X107030537Y-47554494D01*
X107089502Y-47444180D01*
X107125812Y-47324482D01*
X107138072Y-47200000D01*
X107135000Y-47010750D01*
X106976250Y-46852000D01*
X106227000Y-46852000D01*
X105973000Y-46852000D01*
X105953000Y-46852000D01*
X105953000Y-46598000D01*
X105973000Y-46598000D01*
X105973000Y-45773750D01*
X106227000Y-45773750D01*
X106227000Y-46598000D01*
X106976250Y-46598000D01*
X107135000Y-46439250D01*
X107138072Y-46250000D01*
X107125812Y-46125518D01*
X107089502Y-46005820D01*
X107030537Y-45895506D01*
X106951185Y-45798815D01*
X106854494Y-45719463D01*
X106744180Y-45660498D01*
X106624482Y-45624188D01*
X106500000Y-45611928D01*
X106385750Y-45615000D01*
X106227000Y-45773750D01*
X105973000Y-45773750D01*
X105814250Y-45615000D01*
X105700000Y-45611928D01*
X105575518Y-45624188D01*
X105455820Y-45660498D01*
X105345506Y-45719463D01*
X105248815Y-45798815D01*
X105217590Y-45836863D01*
X105115608Y-45753169D01*
X104970716Y-45675722D01*
X104813500Y-45628031D01*
X104650000Y-45611928D01*
X104250000Y-45611928D01*
X104086500Y-45628031D01*
X103929284Y-45675722D01*
X103784392Y-45753169D01*
X103660916Y-45854503D01*
X103614637Y-45785241D01*
X103414759Y-45585363D01*
X103179727Y-45428320D01*
X102918574Y-45320147D01*
X102641335Y-45265000D01*
X102358665Y-45265000D01*
X102081426Y-45320147D01*
X101820273Y-45428320D01*
X101585241Y-45585363D01*
X101385363Y-45785241D01*
X101281957Y-45940000D01*
X101218043Y-45940000D01*
X101114637Y-45785241D01*
X100914759Y-45585363D01*
X100679727Y-45428320D01*
X100418574Y-45320147D01*
X100141335Y-45265000D01*
X99858665Y-45265000D01*
X99581426Y-45320147D01*
X99320273Y-45428320D01*
X99085241Y-45585363D01*
X98885363Y-45785241D01*
X98750000Y-45987827D01*
X98614637Y-45785241D01*
X98414759Y-45585363D01*
X98179727Y-45428320D01*
X97918574Y-45320147D01*
X97641335Y-45265000D01*
X97358665Y-45265000D01*
X97081426Y-45320147D01*
X96820273Y-45428320D01*
X96585241Y-45585363D01*
X96385363Y-45785241D01*
X96281957Y-45940000D01*
X91288072Y-45940000D01*
X91288072Y-45700000D01*
X91275812Y-45575518D01*
X91239502Y-45455820D01*
X91180537Y-45345506D01*
X91101185Y-45248815D01*
X91004494Y-45169463D01*
X90894180Y-45110498D01*
X90774482Y-45074188D01*
X90650000Y-45061928D01*
X86350000Y-45061928D01*
X86225518Y-45074188D01*
X86110010Y-45109227D01*
X86110010Y-41290773D01*
X86225518Y-41325812D01*
X86350000Y-41338072D01*
X88214250Y-41335000D01*
X88373000Y-41176250D01*
X88373000Y-39827000D01*
X88627000Y-39827000D01*
X88627000Y-41176250D01*
X88785750Y-41335000D01*
X90650000Y-41338072D01*
X90774482Y-41325812D01*
X90894180Y-41289502D01*
X91004494Y-41230537D01*
X91101185Y-41151185D01*
X91180537Y-41054494D01*
X91239502Y-40944180D01*
X91275812Y-40824482D01*
X91288072Y-40700000D01*
X91285000Y-39985750D01*
X91126250Y-39827000D01*
X88627000Y-39827000D01*
X88373000Y-39827000D01*
X88353000Y-39827000D01*
X88353000Y-39573000D01*
X88373000Y-39573000D01*
X88373000Y-38223750D01*
X88627000Y-38223750D01*
X88627000Y-39573000D01*
X91126250Y-39573000D01*
X91285000Y-39414250D01*
X91288072Y-38700000D01*
X91275812Y-38575518D01*
X91239502Y-38455820D01*
X91180537Y-38345506D01*
X91101185Y-38248815D01*
X91004494Y-38169463D01*
X90894180Y-38110498D01*
X90774482Y-38074188D01*
X90650000Y-38061928D01*
X88785750Y-38065000D01*
X88627000Y-38223750D01*
X88373000Y-38223750D01*
X88214250Y-38065000D01*
X86350000Y-38061928D01*
X86225518Y-38074188D01*
X86110010Y-38109227D01*
X86110010Y-37950000D01*
X92311928Y-37950000D01*
X92311928Y-41450000D01*
X92324188Y-41574482D01*
X92360498Y-41694180D01*
X92419463Y-41804494D01*
X92498815Y-41901185D01*
X92595506Y-41980537D01*
X92705820Y-42039502D01*
X92825518Y-42075812D01*
X92950000Y-42088072D01*
X96450000Y-42088072D01*
X96574482Y-42075812D01*
X96694180Y-42039502D01*
X96804494Y-41980537D01*
X96901185Y-41901185D01*
X96980537Y-41804494D01*
X97039502Y-41694180D01*
X97075812Y-41574482D01*
X97088072Y-41450000D01*
X97088072Y-37950000D01*
X102911928Y-37950000D01*
X102911928Y-41450000D01*
X102924188Y-41574482D01*
X102960498Y-41694180D01*
X103019463Y-41804494D01*
X103098815Y-41901185D01*
X103195506Y-41980537D01*
X103305820Y-42039502D01*
X103425518Y-42075812D01*
X103550000Y-42088072D01*
X107050000Y-42088072D01*
X107174482Y-42075812D01*
X107294180Y-42039502D01*
X107404494Y-41980537D01*
X107501185Y-41901185D01*
X107580537Y-41804494D01*
X107639502Y-41694180D01*
X107675812Y-41574482D01*
X107688072Y-41450000D01*
X107688072Y-37950000D01*
X107675812Y-37825518D01*
X107639502Y-37705820D01*
X107580537Y-37595506D01*
X107501185Y-37498815D01*
X107404494Y-37419463D01*
X107294180Y-37360498D01*
X107174482Y-37324188D01*
X107050000Y-37311928D01*
X103550000Y-37311928D01*
X103425518Y-37324188D01*
X103305820Y-37360498D01*
X103195506Y-37419463D01*
X103098815Y-37498815D01*
X103019463Y-37595506D01*
X102960498Y-37705820D01*
X102924188Y-37825518D01*
X102911928Y-37950000D01*
X97088072Y-37950000D01*
X97075812Y-37825518D01*
X97039502Y-37705820D01*
X96980537Y-37595506D01*
X96901185Y-37498815D01*
X96804494Y-37419463D01*
X96694180Y-37360498D01*
X96574482Y-37324188D01*
X96450000Y-37311928D01*
X92950000Y-37311928D01*
X92825518Y-37324188D01*
X92705820Y-37360498D01*
X92595506Y-37419463D01*
X92498815Y-37498815D01*
X92419463Y-37595506D01*
X92360498Y-37705820D01*
X92324188Y-37825518D01*
X92311928Y-37950000D01*
X86110010Y-37950000D01*
X86110010Y-36364791D01*
X91564802Y-30910000D01*
X97185199Y-30910000D01*
X98361928Y-32086730D01*
X98361928Y-32920000D01*
X98374188Y-33044482D01*
X98410498Y-33164180D01*
X98469463Y-33274494D01*
X98548815Y-33371185D01*
X98645506Y-33450537D01*
X98755820Y-33509502D01*
X98875518Y-33545812D01*
X99000000Y-33558072D01*
X101000000Y-33558072D01*
X101124482Y-33545812D01*
X101244180Y-33509502D01*
X101354494Y-33450537D01*
X101451185Y-33371185D01*
X101530537Y-33274494D01*
X101589502Y-33164180D01*
X101625812Y-33044482D01*
X101638072Y-32920000D01*
X101638072Y-31920000D01*
X101625812Y-31795518D01*
X101589502Y-31675820D01*
X101530537Y-31565506D01*
X101451185Y-31468815D01*
X101354494Y-31389463D01*
X101244180Y-31330498D01*
X101124482Y-31294188D01*
X101000000Y-31281928D01*
X99706730Y-31281928D01*
X98260000Y-29835199D01*
X98260000Y-29132899D01*
X98479651Y-29352550D01*
X98870279Y-29613560D01*
X99304321Y-29793346D01*
X99765098Y-29885000D01*
X100234902Y-29885000D01*
X100695679Y-29793346D01*
X101129721Y-29613560D01*
X101520349Y-29352550D01*
X101852550Y-29020349D01*
X102113560Y-28629721D01*
X102293346Y-28195679D01*
X102385000Y-27734902D01*
X102385000Y-27265098D01*
X102293346Y-26804321D01*
X102113560Y-26370279D01*
X101852550Y-25979651D01*
X101520349Y-25647450D01*
X101129721Y-25386440D01*
X100819813Y-25258072D01*
X101000000Y-25258072D01*
X101124482Y-25245812D01*
X101244180Y-25209502D01*
X101354494Y-25150537D01*
X101451185Y-25071185D01*
X101530537Y-24974494D01*
X101589502Y-24864180D01*
X101625812Y-24744482D01*
X101638072Y-24620000D01*
X101638072Y-23620000D01*
X101625812Y-23495518D01*
X101589502Y-23375820D01*
X101530537Y-23265506D01*
X101451185Y-23168815D01*
X101354494Y-23089463D01*
X101244180Y-23030498D01*
X101124482Y-22994188D01*
X101000000Y-22981928D01*
X99000000Y-22981928D01*
X98875518Y-22994188D01*
X98755820Y-23030498D01*
X98645506Y-23089463D01*
X98548815Y-23168815D01*
X98469463Y-23265506D01*
X98460000Y-23283210D01*
X98460000Y-23272998D01*
X98301252Y-23272998D01*
X98460000Y-23114250D01*
X98463072Y-23000000D01*
X98450812Y-22875518D01*
X98414502Y-22755820D01*
X98355537Y-22645506D01*
X98276185Y-22548815D01*
X98179494Y-22469463D01*
X98069180Y-22410498D01*
X97949482Y-22374188D01*
X97825000Y-22361928D01*
X97635750Y-22365000D01*
X97477000Y-22523750D01*
X97477000Y-23273000D01*
X97497000Y-23273000D01*
X97497000Y-23527000D01*
X97477000Y-23527000D01*
X97477000Y-23547000D01*
X97223000Y-23547000D01*
X97223000Y-23527000D01*
X96398750Y-23527000D01*
X96240000Y-23685750D01*
X96236928Y-23800000D01*
X96249188Y-23924482D01*
X96285498Y-24044180D01*
X96344463Y-24154494D01*
X96423815Y-24251185D01*
X96461863Y-24282410D01*
X96378169Y-24384392D01*
X96300722Y-24529284D01*
X96253031Y-24686500D01*
X96236928Y-24850000D01*
X96236928Y-25250000D01*
X96253031Y-25413500D01*
X96300722Y-25570716D01*
X96378169Y-25715608D01*
X96482394Y-25842606D01*
X96609392Y-25946831D01*
X96740000Y-26016643D01*
X96740001Y-29390000D01*
X91287323Y-29390000D01*
X91250000Y-29386324D01*
X91212677Y-29390000D01*
X91212667Y-29390000D01*
X91101014Y-29400997D01*
X90957753Y-29444454D01*
X90825723Y-29515026D01*
X90742083Y-29583668D01*
X90709999Y-29609999D01*
X90686201Y-29638997D01*
X85660000Y-34665199D01*
X85660000Y-23032279D01*
X85663165Y-23000000D01*
X96236928Y-23000000D01*
X96240000Y-23114250D01*
X96398750Y-23273000D01*
X97223000Y-23273000D01*
X97223000Y-22523750D01*
X97064250Y-22365000D01*
X96875000Y-22361928D01*
X96750518Y-22374188D01*
X96630820Y-22410498D01*
X96520506Y-22469463D01*
X96423815Y-22548815D01*
X96344463Y-22645506D01*
X96285498Y-22755820D01*
X96249188Y-22875518D01*
X96236928Y-23000000D01*
X85663165Y-23000000D01*
X85707670Y-22546107D01*
X85839489Y-22109502D01*
X86053600Y-21706815D01*
X86205962Y-21520000D01*
X98361928Y-21520000D01*
X98374188Y-21644482D01*
X98410498Y-21764180D01*
X98469463Y-21874494D01*
X98548815Y-21971185D01*
X98645506Y-22050537D01*
X98755820Y-22109502D01*
X98875518Y-22145812D01*
X99000000Y-22158072D01*
X99714250Y-22155000D01*
X99873000Y-21996250D01*
X99873000Y-21147000D01*
X100127000Y-21147000D01*
X100127000Y-21996250D01*
X100285750Y-22155000D01*
X101000000Y-22158072D01*
X101124482Y-22145812D01*
X101244180Y-22109502D01*
X101354494Y-22050537D01*
X101451185Y-21971185D01*
X101530537Y-21874494D01*
X101589502Y-21764180D01*
X101625812Y-21644482D01*
X101638072Y-21520000D01*
X101635000Y-21305750D01*
X101476250Y-21147000D01*
X100127000Y-21147000D01*
X99873000Y-21147000D01*
X98523750Y-21147000D01*
X98365000Y-21305750D01*
X98361928Y-21520000D01*
X86205962Y-21520000D01*
X86341848Y-21353388D01*
X86693261Y-21062673D01*
X87094439Y-20845758D01*
X87530113Y-20710894D01*
X88014344Y-20660000D01*
X98363935Y-20660000D01*
X98365000Y-20734250D01*
%TA.AperFunction,Conductor*%
D25*
G36*
X98365000Y-20734250D02*
G01*
X98523750Y-20893000D01*
X99873000Y-20893000D01*
X99873000Y-20873000D01*
X100127000Y-20873000D01*
X100127000Y-20893000D01*
X101476250Y-20893000D01*
X101635000Y-20734250D01*
X101636065Y-20660000D01*
X111967721Y-20660000D01*
X112453893Y-20707670D01*
X112890498Y-20839489D01*
X113293185Y-21053600D01*
X113646612Y-21341848D01*
X113937327Y-21693261D01*
X114154242Y-22094439D01*
X114289106Y-22530113D01*
X114340000Y-23014344D01*
X114340000Y-57565198D01*
X104612873Y-47838072D01*
X104650000Y-47838072D01*
X104813500Y-47821969D01*
X104970716Y-47774278D01*
X105115608Y-47696831D01*
X105217590Y-47613137D01*
X105248815Y-47651185D01*
X105345506Y-47730537D01*
X105455820Y-47789502D01*
X105575518Y-47825812D01*
X105700000Y-47838072D01*
X105814250Y-47835000D01*
X105973000Y-47676250D01*
X105973000Y-46852000D01*
X106227000Y-46852000D01*
X106227000Y-47676250D01*
X106385750Y-47835000D01*
X106500000Y-47838072D01*
X106624482Y-47825812D01*
X106744180Y-47789502D01*
X106854494Y-47730537D01*
X106951185Y-47651185D01*
X107030537Y-47554494D01*
X107089502Y-47444180D01*
X107125812Y-47324482D01*
X107138072Y-47200000D01*
X107135000Y-47010750D01*
X106976250Y-46852000D01*
X106227000Y-46852000D01*
X105973000Y-46852000D01*
X105953000Y-46852000D01*
X105953000Y-46598000D01*
X105973000Y-46598000D01*
X105973000Y-45773750D01*
X106227000Y-45773750D01*
X106227000Y-46598000D01*
X106976250Y-46598000D01*
X107135000Y-46439250D01*
X107138072Y-46250000D01*
X107125812Y-46125518D01*
X107089502Y-46005820D01*
X107030537Y-45895506D01*
X106951185Y-45798815D01*
X106854494Y-45719463D01*
X106744180Y-45660498D01*
X106624482Y-45624188D01*
X106500000Y-45611928D01*
X106385750Y-45615000D01*
X106227000Y-45773750D01*
X105973000Y-45773750D01*
X105814250Y-45615000D01*
X105700000Y-45611928D01*
X105575518Y-45624188D01*
X105455820Y-45660498D01*
X105345506Y-45719463D01*
X105248815Y-45798815D01*
X105217590Y-45836863D01*
X105115608Y-45753169D01*
X104970716Y-45675722D01*
X104813500Y-45628031D01*
X104650000Y-45611928D01*
X104250000Y-45611928D01*
X104086500Y-45628031D01*
X103929284Y-45675722D01*
X103784392Y-45753169D01*
X103660916Y-45854503D01*
X103614637Y-45785241D01*
X103414759Y-45585363D01*
X103179727Y-45428320D01*
X102918574Y-45320147D01*
X102641335Y-45265000D01*
X102358665Y-45265000D01*
X102081426Y-45320147D01*
X101820273Y-45428320D01*
X101585241Y-45585363D01*
X101385363Y-45785241D01*
X101281957Y-45940000D01*
X101218043Y-45940000D01*
X101114637Y-45785241D01*
X100914759Y-45585363D01*
X100679727Y-45428320D01*
X100418574Y-45320147D01*
X100141335Y-45265000D01*
X99858665Y-45265000D01*
X99581426Y-45320147D01*
X99320273Y-45428320D01*
X99085241Y-45585363D01*
X98885363Y-45785241D01*
X98750000Y-45987827D01*
X98614637Y-45785241D01*
X98414759Y-45585363D01*
X98179727Y-45428320D01*
X97918574Y-45320147D01*
X97641335Y-45265000D01*
X97358665Y-45265000D01*
X97081426Y-45320147D01*
X96820273Y-45428320D01*
X96585241Y-45585363D01*
X96385363Y-45785241D01*
X96281957Y-45940000D01*
X91288072Y-45940000D01*
X91288072Y-45700000D01*
X91275812Y-45575518D01*
X91239502Y-45455820D01*
X91180537Y-45345506D01*
X91101185Y-45248815D01*
X91004494Y-45169463D01*
X90894180Y-45110498D01*
X90774482Y-45074188D01*
X90650000Y-45061928D01*
X86350000Y-45061928D01*
X86225518Y-45074188D01*
X86110010Y-45109227D01*
X86110010Y-41290773D01*
X86225518Y-41325812D01*
X86350000Y-41338072D01*
X88214250Y-41335000D01*
X88373000Y-41176250D01*
X88373000Y-39827000D01*
X88627000Y-39827000D01*
X88627000Y-41176250D01*
X88785750Y-41335000D01*
X90650000Y-41338072D01*
X90774482Y-41325812D01*
X90894180Y-41289502D01*
X91004494Y-41230537D01*
X91101185Y-41151185D01*
X91180537Y-41054494D01*
X91239502Y-40944180D01*
X91275812Y-40824482D01*
X91288072Y-40700000D01*
X91285000Y-39985750D01*
X91126250Y-39827000D01*
X88627000Y-39827000D01*
X88373000Y-39827000D01*
X88353000Y-39827000D01*
X88353000Y-39573000D01*
X88373000Y-39573000D01*
X88373000Y-38223750D01*
X88627000Y-38223750D01*
X88627000Y-39573000D01*
X91126250Y-39573000D01*
X91285000Y-39414250D01*
X91288072Y-38700000D01*
X91275812Y-38575518D01*
X91239502Y-38455820D01*
X91180537Y-38345506D01*
X91101185Y-38248815D01*
X91004494Y-38169463D01*
X90894180Y-38110498D01*
X90774482Y-38074188D01*
X90650000Y-38061928D01*
X88785750Y-38065000D01*
X88627000Y-38223750D01*
X88373000Y-38223750D01*
X88214250Y-38065000D01*
X86350000Y-38061928D01*
X86225518Y-38074188D01*
X86110010Y-38109227D01*
X86110010Y-37950000D01*
X92311928Y-37950000D01*
X92311928Y-41450000D01*
X92324188Y-41574482D01*
X92360498Y-41694180D01*
X92419463Y-41804494D01*
X92498815Y-41901185D01*
X92595506Y-41980537D01*
X92705820Y-42039502D01*
X92825518Y-42075812D01*
X92950000Y-42088072D01*
X96450000Y-42088072D01*
X96574482Y-42075812D01*
X96694180Y-42039502D01*
X96804494Y-41980537D01*
X96901185Y-41901185D01*
X96980537Y-41804494D01*
X97039502Y-41694180D01*
X97075812Y-41574482D01*
X97088072Y-41450000D01*
X97088072Y-37950000D01*
X102911928Y-37950000D01*
X102911928Y-41450000D01*
X102924188Y-41574482D01*
X102960498Y-41694180D01*
X103019463Y-41804494D01*
X103098815Y-41901185D01*
X103195506Y-41980537D01*
X103305820Y-42039502D01*
X103425518Y-42075812D01*
X103550000Y-42088072D01*
X107050000Y-42088072D01*
X107174482Y-42075812D01*
X107294180Y-42039502D01*
X107404494Y-41980537D01*
X107501185Y-41901185D01*
X107580537Y-41804494D01*
X107639502Y-41694180D01*
X107675812Y-41574482D01*
X107688072Y-41450000D01*
X107688072Y-37950000D01*
X107675812Y-37825518D01*
X107639502Y-37705820D01*
X107580537Y-37595506D01*
X107501185Y-37498815D01*
X107404494Y-37419463D01*
X107294180Y-37360498D01*
X107174482Y-37324188D01*
X107050000Y-37311928D01*
X103550000Y-37311928D01*
X103425518Y-37324188D01*
X103305820Y-37360498D01*
X103195506Y-37419463D01*
X103098815Y-37498815D01*
X103019463Y-37595506D01*
X102960498Y-37705820D01*
X102924188Y-37825518D01*
X102911928Y-37950000D01*
X97088072Y-37950000D01*
X97075812Y-37825518D01*
X97039502Y-37705820D01*
X96980537Y-37595506D01*
X96901185Y-37498815D01*
X96804494Y-37419463D01*
X96694180Y-37360498D01*
X96574482Y-37324188D01*
X96450000Y-37311928D01*
X92950000Y-37311928D01*
X92825518Y-37324188D01*
X92705820Y-37360498D01*
X92595506Y-37419463D01*
X92498815Y-37498815D01*
X92419463Y-37595506D01*
X92360498Y-37705820D01*
X92324188Y-37825518D01*
X92311928Y-37950000D01*
X86110010Y-37950000D01*
X86110010Y-36364791D01*
X91564802Y-30910000D01*
X97185199Y-30910000D01*
X98361928Y-32086730D01*
X98361928Y-32920000D01*
X98374188Y-33044482D01*
X98410498Y-33164180D01*
X98469463Y-33274494D01*
X98548815Y-33371185D01*
X98645506Y-33450537D01*
X98755820Y-33509502D01*
X98875518Y-33545812D01*
X99000000Y-33558072D01*
X101000000Y-33558072D01*
X101124482Y-33545812D01*
X101244180Y-33509502D01*
X101354494Y-33450537D01*
X101451185Y-33371185D01*
X101530537Y-33274494D01*
X101589502Y-33164180D01*
X101625812Y-33044482D01*
X101638072Y-32920000D01*
X101638072Y-31920000D01*
X101625812Y-31795518D01*
X101589502Y-31675820D01*
X101530537Y-31565506D01*
X101451185Y-31468815D01*
X101354494Y-31389463D01*
X101244180Y-31330498D01*
X101124482Y-31294188D01*
X101000000Y-31281928D01*
X99706730Y-31281928D01*
X98260000Y-29835199D01*
X98260000Y-29132899D01*
X98479651Y-29352550D01*
X98870279Y-29613560D01*
X99304321Y-29793346D01*
X99765098Y-29885000D01*
X100234902Y-29885000D01*
X100695679Y-29793346D01*
X101129721Y-29613560D01*
X101520349Y-29352550D01*
X101852550Y-29020349D01*
X102113560Y-28629721D01*
X102293346Y-28195679D01*
X102385000Y-27734902D01*
X102385000Y-27265098D01*
X102293346Y-26804321D01*
X102113560Y-26370279D01*
X101852550Y-25979651D01*
X101520349Y-25647450D01*
X101129721Y-25386440D01*
X100819813Y-25258072D01*
X101000000Y-25258072D01*
X101124482Y-25245812D01*
X101244180Y-25209502D01*
X101354494Y-25150537D01*
X101451185Y-25071185D01*
X101530537Y-24974494D01*
X101589502Y-24864180D01*
X101625812Y-24744482D01*
X101638072Y-24620000D01*
X101638072Y-23620000D01*
X101625812Y-23495518D01*
X101589502Y-23375820D01*
X101530537Y-23265506D01*
X101451185Y-23168815D01*
X101354494Y-23089463D01*
X101244180Y-23030498D01*
X101124482Y-22994188D01*
X101000000Y-22981928D01*
X99000000Y-22981928D01*
X98875518Y-22994188D01*
X98755820Y-23030498D01*
X98645506Y-23089463D01*
X98548815Y-23168815D01*
X98469463Y-23265506D01*
X98460000Y-23283210D01*
X98460000Y-23272998D01*
X98301252Y-23272998D01*
X98460000Y-23114250D01*
X98463072Y-23000000D01*
X98450812Y-22875518D01*
X98414502Y-22755820D01*
X98355537Y-22645506D01*
X98276185Y-22548815D01*
X98179494Y-22469463D01*
X98069180Y-22410498D01*
X97949482Y-22374188D01*
X97825000Y-22361928D01*
X97635750Y-22365000D01*
X97477000Y-22523750D01*
X97477000Y-23273000D01*
X97497000Y-23273000D01*
X97497000Y-23527000D01*
X97477000Y-23527000D01*
X97477000Y-23547000D01*
X97223000Y-23547000D01*
X97223000Y-23527000D01*
X96398750Y-23527000D01*
X96240000Y-23685750D01*
X96236928Y-23800000D01*
X96249188Y-23924482D01*
X96285498Y-24044180D01*
X96344463Y-24154494D01*
X96423815Y-24251185D01*
X96461863Y-24282410D01*
X96378169Y-24384392D01*
X96300722Y-24529284D01*
X96253031Y-24686500D01*
X96236928Y-24850000D01*
X96236928Y-25250000D01*
X96253031Y-25413500D01*
X96300722Y-25570716D01*
X96378169Y-25715608D01*
X96482394Y-25842606D01*
X96609392Y-25946831D01*
X96740000Y-26016643D01*
X96740001Y-29390000D01*
X91287323Y-29390000D01*
X91250000Y-29386324D01*
X91212677Y-29390000D01*
X91212667Y-29390000D01*
X91101014Y-29400997D01*
X90957753Y-29444454D01*
X90825723Y-29515026D01*
X90742083Y-29583668D01*
X90709999Y-29609999D01*
X90686201Y-29638997D01*
X85660000Y-34665199D01*
X85660000Y-23032279D01*
X85663165Y-23000000D01*
X96236928Y-23000000D01*
X96240000Y-23114250D01*
X96398750Y-23273000D01*
X97223000Y-23273000D01*
X97223000Y-22523750D01*
X97064250Y-22365000D01*
X96875000Y-22361928D01*
X96750518Y-22374188D01*
X96630820Y-22410498D01*
X96520506Y-22469463D01*
X96423815Y-22548815D01*
X96344463Y-22645506D01*
X96285498Y-22755820D01*
X96249188Y-22875518D01*
X96236928Y-23000000D01*
X85663165Y-23000000D01*
X85707670Y-22546107D01*
X85839489Y-22109502D01*
X86053600Y-21706815D01*
X86205962Y-21520000D01*
X98361928Y-21520000D01*
X98374188Y-21644482D01*
X98410498Y-21764180D01*
X98469463Y-21874494D01*
X98548815Y-21971185D01*
X98645506Y-22050537D01*
X98755820Y-22109502D01*
X98875518Y-22145812D01*
X99000000Y-22158072D01*
X99714250Y-22155000D01*
X99873000Y-21996250D01*
X99873000Y-21147000D01*
X100127000Y-21147000D01*
X100127000Y-21996250D01*
X100285750Y-22155000D01*
X101000000Y-22158072D01*
X101124482Y-22145812D01*
X101244180Y-22109502D01*
X101354494Y-22050537D01*
X101451185Y-21971185D01*
X101530537Y-21874494D01*
X101589502Y-21764180D01*
X101625812Y-21644482D01*
X101638072Y-21520000D01*
X101635000Y-21305750D01*
X101476250Y-21147000D01*
X100127000Y-21147000D01*
X99873000Y-21147000D01*
X98523750Y-21147000D01*
X98365000Y-21305750D01*
X98361928Y-21520000D01*
X86205962Y-21520000D01*
X86341848Y-21353388D01*
X86693261Y-21062673D01*
X87094439Y-20845758D01*
X87530113Y-20710894D01*
X88014344Y-20660000D01*
X98363935Y-20660000D01*
X98365000Y-20734250D01*
G37*
%TD.AperFunction*%
D24*
X98885363Y-47614759D02*
X99085241Y-47814637D01*
X99320273Y-47971680D01*
X99581426Y-48079853D01*
X99858665Y-48135000D01*
X100141335Y-48135000D01*
X100418574Y-48079853D01*
X100679727Y-47971680D01*
X100914759Y-47814637D01*
X101114637Y-47614759D01*
X101218043Y-47460000D01*
X101281957Y-47460000D01*
X101385363Y-47614759D01*
X101585241Y-47814637D01*
X101820273Y-47971680D01*
X102081426Y-48079853D01*
X102358665Y-48135000D01*
X102641335Y-48135000D01*
X102740478Y-48115279D01*
X107282003Y-52656804D01*
X107174482Y-52624188D01*
X107050000Y-52611928D01*
X103550000Y-52611928D01*
X103425518Y-52624188D01*
X103305820Y-52660498D01*
X103195506Y-52719463D01*
X103098815Y-52798815D01*
X103019463Y-52895506D01*
X102960498Y-53005820D01*
X102924188Y-53125518D01*
X102911928Y-53250000D01*
X102911928Y-55622129D01*
X98160000Y-50870201D01*
X98160000Y-47979851D01*
X98179727Y-47971680D01*
X98414759Y-47814637D01*
X98614637Y-47614759D01*
X98750000Y-47412173D01*
X98885363Y-47614759D01*
%TA.AperFunction,Conductor*%
D25*
G36*
X98885363Y-47614759D02*
G01*
X99085241Y-47814637D01*
X99320273Y-47971680D01*
X99581426Y-48079853D01*
X99858665Y-48135000D01*
X100141335Y-48135000D01*
X100418574Y-48079853D01*
X100679727Y-47971680D01*
X100914759Y-47814637D01*
X101114637Y-47614759D01*
X101218043Y-47460000D01*
X101281957Y-47460000D01*
X101385363Y-47614759D01*
X101585241Y-47814637D01*
X101820273Y-47971680D01*
X102081426Y-48079853D01*
X102358665Y-48135000D01*
X102641335Y-48135000D01*
X102740478Y-48115279D01*
X107282003Y-52656804D01*
X107174482Y-52624188D01*
X107050000Y-52611928D01*
X103550000Y-52611928D01*
X103425518Y-52624188D01*
X103305820Y-52660498D01*
X103195506Y-52719463D01*
X103098815Y-52798815D01*
X103019463Y-52895506D01*
X102960498Y-53005820D01*
X102924188Y-53125518D01*
X102911928Y-53250000D01*
X102911928Y-55622129D01*
X98160000Y-50870201D01*
X98160000Y-47979851D01*
X98179727Y-47971680D01*
X98414759Y-47814637D01*
X98614637Y-47614759D01*
X98750000Y-47412173D01*
X98885363Y-47614759D01*
G37*
%TD.AperFunction*%
%TD*%
M02*
