M48
; DRILL file {KiCad 5.1.7-a382d34a8~88~ubuntu18.04.1} date Wed Oct 27 00:47:41 2021
; FORMAT={-:-/ absolute / inch / decimal}
; #@! TF.CreationDate,2021-10-27T00:47:41-07:00
; #@! TF.GenerationSoftware,Kicad,Pcbnew,5.1.7-a382d34a8~88~ubuntu18.04.1
; #@! TF.FileFunction,Plated,1,2,PTH
FMAT,2
INCH
T1C0.0157
T2C0.0197
T3C0.0236
T4C0.0354
T5C0.0430
T6C0.0748
T7C0.1181
%
G90
G05
T1
X3.6811Y-2.5787
X3.6909Y-2.3622
X3.6909Y-2.7657
X3.7303Y-3.6939
X3.7923Y-3.3071
X3.8445Y-3.6073
X3.8445Y-4.1299
X3.8971Y-3.7397
X3.9022Y-4.037
X3.9272Y-3.2382
X3.9606Y-3.4734
X3.9685Y-3.8868
X3.9783Y-3.9862
X4.0344Y-3.7541
X4.0785Y-3.0869
X4.1496Y-3.8091
X4.161Y-3.54
X4.2394Y-3.1469
X4.2431Y-4.125
X4.2638Y-3.5157
X4.311Y-2.9232
X4.311Y-3.2776
X4.3386Y-3.624
X4.4882Y-4.065
T4
X3.7402Y-1.5827
X3.8189Y-1.5827
X3.8976Y-1.5827
X3.9764Y-1.5827
X4.0551Y-1.5827
X4.1339Y-1.5827
T5
X3.737Y-4.4776
X3.737Y-4.5776
X3.837Y-4.4776
X3.837Y-4.5776
X3.937Y-4.4776
X3.937Y-4.5776
X4.037Y-4.4776
X4.037Y-4.5776
X4.137Y-4.4776
X4.137Y-4.5776
T7
X3.937Y-1.9291
X3.937Y-2.4705
T2
G00X3.9606Y-2.1228
M15
G01X3.9134Y-2.1228
M16
G05
G00X3.9606Y-2.6642
M15
G01X3.9134Y-2.6642
M16
G05
T3
G00X3.9547Y-1.674
M15
G01X3.9193Y-1.674
M16
G05
G00X3.9587Y-1.7961
M15
G01X3.9154Y-1.7961
M16
G05
G00X3.9547Y-2.2154
M15
G01X3.9193Y-2.2154
M16
G05
G00X3.9587Y-2.3374
M15
G01X3.9154Y-2.3374
M16
G05
T6
G00X3.6358Y-1.1575
M15
G01X3.6358Y-1.2205
M16
G05
G00X4.2382Y-1.1575
M15
G01X4.2382Y-1.2205
M16
G05
T0
M30
