%TF.GenerationSoftware,KiCad,Pcbnew,5.1.7-a382d34a8~88~ubuntu18.04.1*%
%TF.CreationDate,2022-04-19T18:24:53-07:00*%
%TF.ProjectId,cv-extractor,63762d65-7874-4726-9163-746f722e6b69,rev?*%
%TF.SameCoordinates,Original*%
%TF.FileFunction,Copper,L1,Top*%
%TF.FilePolarity,Positive*%
%FSLAX46Y46*%
G04 Gerber Fmt 4.6, Leading zero omitted, Abs format (unit mm)*
G04 Created by KiCad (PCBNEW 5.1.7-a382d34a8~88~ubuntu18.04.1) date 2022-04-19 18:24:53*
%MOMM*%
%LPD*%
G01*
G04 APERTURE LIST*
%TA.AperFunction,ComponentPad*%
%ADD10C,3.500000*%
%TD*%
%TA.AperFunction,ComponentPad*%
%ADD11R,2.000000X1.000000*%
%TD*%
%TA.AperFunction,ComponentPad*%
%ADD12R,2.000000X3.700000*%
%TD*%
%TA.AperFunction,ComponentPad*%
%ADD13C,1.500000*%
%TD*%
%TA.AperFunction,ComponentPad*%
%ADD14R,3.500000X3.500000*%
%TD*%
%TA.AperFunction,ComponentPad*%
%ADD15C,1.600000*%
%TD*%
%TA.AperFunction,ComponentPad*%
%ADD16C,1.600200*%
%TD*%
%TA.AperFunction,ViaPad*%
%ADD17C,0.800000*%
%TD*%
%TA.AperFunction,Conductor*%
%ADD18C,0.250000*%
%TD*%
%TA.AperFunction,Conductor*%
%ADD19C,1.000000*%
%TD*%
%TA.AperFunction,Conductor*%
%ADD20C,0.254000*%
%TD*%
%TA.AperFunction,Conductor*%
%ADD21C,0.100000*%
%TD*%
G04 APERTURE END LIST*
D10*
%TO.P,J2,*%
%TO.N,*%
X100000000Y-103750000D03*
D11*
%TO.P,J2,3*%
%TO.N,Net-(C5-Pad2)*%
X100000000Y-108670000D03*
%TO.P,J2,2*%
X100000000Y-100370000D03*
%TO.P,J2,1*%
%TO.N,GND*%
X100000000Y-97270000D03*
%TD*%
D10*
%TO.P,J1,*%
%TO.N,*%
X100000000Y-27500000D03*
D11*
%TO.P,J1,3*%
%TO.N,Net-(J1-Pad2)*%
X100000000Y-32420000D03*
%TO.P,J1,2*%
X100000000Y-24120000D03*
%TO.P,J1,1*%
%TO.N,GND*%
X100000000Y-21020000D03*
%TD*%
D12*
%TO.P,RV1,*%
%TO.N,*%
X107650000Y-70550000D03*
D13*
%TO.P,RV1,6*%
%TO.N,Net-(C1-Pad2)*%
X105000000Y-80550000D03*
%TO.P,RV1,3*%
%TO.N,Net-(C5-Pad1)*%
X103000000Y-80550000D03*
%TO.P,RV1,2*%
%TO.N,Net-(R7-Pad1)*%
X101000000Y-80550000D03*
%TO.P,RV1,1*%
X99000000Y-80550000D03*
%TO.P,RV1,4*%
%TO.N,Net-(R8-Pad1)*%
X97000000Y-80550000D03*
%TO.P,RV1,5*%
%TO.N,Net-(C1-Pad2)*%
X95000000Y-80550000D03*
D12*
%TO.P,RV1,*%
%TO.N,*%
X92350000Y-70550000D03*
%TD*%
D14*
%TO.P,RV2,*%
%TO.N,*%
X105300000Y-39700000D03*
D15*
%TO.P,RV2,2*%
%TO.N,Net-(R12-Pad2)*%
X100000000Y-46700000D03*
%TO.P,RV2,3*%
X102500000Y-46700000D03*
%TO.P,RV2,1*%
%TO.N,Net-(JP1-Pad1)*%
X97500000Y-46700000D03*
D14*
%TO.P,RV2,*%
%TO.N,*%
X94700000Y-39700000D03*
%TD*%
D16*
%TO.P,J3,10*%
%TO.N,+12V*%
X105080000Y-116270000D03*
%TO.P,J3,9*%
X105080000Y-113730000D03*
%TO.P,J3,8*%
%TO.N,GND*%
X102540000Y-116270000D03*
%TO.P,J3,7*%
X102540000Y-113730000D03*
%TO.P,J3,6*%
X100000000Y-116270000D03*
%TO.P,J3,5*%
X100000000Y-113730000D03*
%TO.P,J3,4*%
X97460000Y-116270000D03*
%TO.P,J3,3*%
X97460000Y-113730000D03*
%TO.P,J3,2*%
%TO.N,-12V*%
X94920000Y-116270000D03*
%TO.P,J3,1*%
X94920000Y-113730000D03*
%TD*%
D14*
%TO.P,RV3,*%
%TO.N,*%
X94700000Y-55000000D03*
D15*
%TO.P,RV3,1*%
%TO.N,Net-(R9-Pad2)*%
X97500000Y-62000000D03*
%TO.P,RV3,3*%
%TO.N,Net-(C5-Pad2)*%
X102500000Y-62000000D03*
%TO.P,RV3,2*%
%TO.N,Net-(RV3-Pad2)*%
X100000000Y-62000000D03*
D14*
%TO.P,RV3,*%
%TO.N,*%
X105300000Y-55000000D03*
%TD*%
D17*
%TO.N,Net-(C1-Pad2)*%
X92750000Y-89250000D03*
%TO.N,GND*%
X101000000Y-88375000D03*
X104400000Y-77400000D03*
X87700000Y-79100000D03*
X102600000Y-65400000D03*
X107600000Y-66300000D03*
X94200000Y-77700000D03*
X96100000Y-83600000D03*
X106800000Y-86700000D03*
X108300000Y-92800000D03*
X96400000Y-95100000D03*
X100700000Y-106900000D03*
X94000000Y-49900000D03*
X101400000Y-49400000D03*
X100300000Y-64400000D03*
X111550000Y-68350000D03*
%TO.N,Net-(R3-Pad1)*%
X110000000Y-91250000D03*
X109750000Y-96500000D03*
%TO.N,+12V*%
X99850000Y-88853002D03*
%TO.N,Net-(C5-Pad2)*%
X89625000Y-90875000D03*
X89625000Y-87375000D03*
X98025000Y-74775000D03*
X92617501Y-73717501D03*
%TO.N,Net-(C5-Pad1)*%
X102550000Y-75050000D03*
%TO.N,Net-(JP1-Pad1)*%
X95103500Y-86950000D03*
X98250000Y-88750000D03*
X111400000Y-80200000D03*
%TO.N,Net-(JP2-Pad2)*%
X102100000Y-70700000D03*
X94200000Y-66100000D03*
%TO.N,Net-(R12-Pad2)*%
X97500000Y-85300000D03*
X113000000Y-83100000D03*
%TO.N,Net-(RV3-Pad2)*%
X91500000Y-90250000D03*
X91500000Y-87250000D03*
%TD*%
D18*
%TO.N,Net-(C1-Pad2)*%
X92750000Y-89250000D02*
X92750000Y-87000000D01*
X92750000Y-83000000D02*
X95000000Y-80750000D01*
X92750000Y-87000000D02*
X92750000Y-83000000D01*
%TO.N,Net-(R3-Pad1)*%
X109750000Y-91500000D02*
X110000000Y-91250000D01*
X109750000Y-96500000D02*
X109750000Y-91500000D01*
D19*
%TO.N,+12V*%
X105080000Y-113730000D02*
X105080000Y-104670000D01*
X105080000Y-104670000D02*
X106250000Y-103500000D01*
X106250000Y-103500000D02*
X106250000Y-91500000D01*
X106250000Y-91500000D02*
X104500000Y-89750000D01*
X100746998Y-89750000D02*
X99850000Y-88853002D01*
X104500000Y-89750000D02*
X100746998Y-89750000D01*
D18*
%TO.N,Net-(C5-Pad2)*%
X89625000Y-90875000D02*
X89625000Y-87375000D01*
X89625000Y-87375000D02*
X89625000Y-87375000D01*
X98025000Y-74775000D02*
X95275000Y-74775000D01*
X95275000Y-74775000D02*
X94400000Y-73900000D01*
X94400000Y-73900000D02*
X92500000Y-73900000D01*
%TO.N,Net-(C5-Pad1)*%
X103000000Y-80550000D02*
X103000000Y-80600000D01*
X103000000Y-80600000D02*
X103000000Y-75500000D01*
X103000000Y-75500000D02*
X102550000Y-75050000D01*
X102550000Y-75050000D02*
X102500000Y-75000000D01*
%TO.N,Net-(JP1-Pad1)*%
X96903500Y-88750000D02*
X95103500Y-86950000D01*
X98250000Y-88750000D02*
X96903500Y-88750000D01*
X95103500Y-86384315D02*
X99187815Y-82300000D01*
X95103500Y-86950000D02*
X95103500Y-86384315D01*
X99187815Y-82300000D02*
X109600000Y-82300000D01*
X109600000Y-82300000D02*
X111400000Y-80500000D01*
X111400000Y-80500000D02*
X111400000Y-80200000D01*
X111400000Y-80200000D02*
X111400000Y-80200000D01*
%TO.N,Net-(JP2-Pad2)*%
X102100000Y-70700000D02*
X98800000Y-70700000D01*
X98800000Y-70700000D02*
X94200000Y-66100000D01*
X94200000Y-66100000D02*
X94200000Y-66100000D01*
%TO.N,Net-(R12-Pad2)*%
X97500000Y-85300000D02*
X99200000Y-83600000D01*
X99200000Y-83600000D02*
X99700000Y-83100000D01*
X99700000Y-83100000D02*
X112200000Y-83100000D01*
X112200000Y-83100000D02*
X113000000Y-83100000D01*
X113000000Y-83100000D02*
X113100000Y-83100000D01*
%TO.N,Net-(RV3-Pad2)*%
X91500000Y-90250000D02*
X91500000Y-87250000D01*
X91500000Y-87250000D02*
X91500000Y-87000000D01*
%TD*%
D20*
%TO.N,GND*%
X98365000Y-20734250D02*
X98523750Y-20893000D01*
X99873000Y-20893000D01*
X99873000Y-20873000D01*
X100127000Y-20873000D01*
X100127000Y-20893000D01*
X101476250Y-20893000D01*
X101635000Y-20734250D01*
X101636065Y-20660000D01*
X111967721Y-20660000D01*
X112453893Y-20707670D01*
X112890498Y-20839489D01*
X113293185Y-21053600D01*
X113646612Y-21341848D01*
X113937327Y-21693261D01*
X114154242Y-22094439D01*
X114289106Y-22530113D01*
X114340000Y-23014344D01*
X114340001Y-116967711D01*
X114292330Y-117453894D01*
X114160512Y-117890497D01*
X113946399Y-118293186D01*
X113658150Y-118646613D01*
X113306739Y-118937327D01*
X112905564Y-119154240D01*
X112469886Y-119289106D01*
X111985664Y-119340000D01*
X88032279Y-119340000D01*
X87546106Y-119292330D01*
X87109503Y-119160512D01*
X86706814Y-118946399D01*
X86353387Y-118658150D01*
X86062673Y-118306739D01*
X85845760Y-117905564D01*
X85710894Y-117469886D01*
X85660000Y-116985664D01*
X85660000Y-113588655D01*
X93484900Y-113588655D01*
X93484900Y-113871345D01*
X93540050Y-114148603D01*
X93648231Y-114409775D01*
X93805285Y-114644823D01*
X94005177Y-114844715D01*
X94237578Y-115000000D01*
X94005177Y-115155285D01*
X93805285Y-115355177D01*
X93648231Y-115590225D01*
X93540050Y-115851397D01*
X93484900Y-116128655D01*
X93484900Y-116411345D01*
X93540050Y-116688603D01*
X93648231Y-116949775D01*
X93805285Y-117184823D01*
X94005177Y-117384715D01*
X94240225Y-117541769D01*
X94501397Y-117649950D01*
X94778655Y-117705100D01*
X95061345Y-117705100D01*
X95338603Y-117649950D01*
X95599775Y-117541769D01*
X95834823Y-117384715D01*
X95956764Y-117262774D01*
X96646831Y-117262774D01*
X96718426Y-117506754D01*
X96973954Y-117627664D01*
X97248161Y-117696400D01*
X97530508Y-117710320D01*
X97810147Y-117668889D01*
X98076328Y-117573700D01*
X98201574Y-117506754D01*
X98273169Y-117262774D01*
X99186831Y-117262774D01*
X99258426Y-117506754D01*
X99513954Y-117627664D01*
X99788161Y-117696400D01*
X100070508Y-117710320D01*
X100350147Y-117668889D01*
X100616328Y-117573700D01*
X100741574Y-117506754D01*
X100813169Y-117262774D01*
X101726831Y-117262774D01*
X101798426Y-117506754D01*
X102053954Y-117627664D01*
X102328161Y-117696400D01*
X102610508Y-117710320D01*
X102890147Y-117668889D01*
X103156328Y-117573700D01*
X103281574Y-117506754D01*
X103353169Y-117262774D01*
X102540000Y-116449605D01*
X101726831Y-117262774D01*
X100813169Y-117262774D01*
X100000000Y-116449605D01*
X99186831Y-117262774D01*
X98273169Y-117262774D01*
X97460000Y-116449605D01*
X96646831Y-117262774D01*
X95956764Y-117262774D01*
X96034715Y-117184823D01*
X96190905Y-116951068D01*
X96223246Y-117011574D01*
X96467226Y-117083169D01*
X97280395Y-116270000D01*
X97639605Y-116270000D01*
X98452774Y-117083169D01*
X98696754Y-117011574D01*
X98727976Y-116945590D01*
X98763246Y-117011574D01*
X99007226Y-117083169D01*
X99820395Y-116270000D01*
X100179605Y-116270000D01*
X100992774Y-117083169D01*
X101236754Y-117011574D01*
X101267976Y-116945590D01*
X101303246Y-117011574D01*
X101547226Y-117083169D01*
X102360395Y-116270000D01*
X101547226Y-115456831D01*
X101303246Y-115528426D01*
X101272024Y-115594410D01*
X101236754Y-115528426D01*
X100992774Y-115456831D01*
X100179605Y-116270000D01*
X99820395Y-116270000D01*
X99007226Y-115456831D01*
X98763246Y-115528426D01*
X98732024Y-115594410D01*
X98696754Y-115528426D01*
X98452774Y-115456831D01*
X97639605Y-116270000D01*
X97280395Y-116270000D01*
X96467226Y-115456831D01*
X96223246Y-115528426D01*
X96192812Y-115592744D01*
X96191769Y-115590225D01*
X96034715Y-115355177D01*
X95834823Y-115155285D01*
X95602422Y-115000000D01*
X95834823Y-114844715D01*
X95956764Y-114722774D01*
X96646831Y-114722774D01*
X96718426Y-114966754D01*
X96784410Y-114997976D01*
X96718426Y-115033246D01*
X96646831Y-115277226D01*
X97460000Y-116090395D01*
X98273169Y-115277226D01*
X98201574Y-115033246D01*
X98135590Y-115002024D01*
X98201574Y-114966754D01*
X98273169Y-114722774D01*
X99186831Y-114722774D01*
X99258426Y-114966754D01*
X99324410Y-114997976D01*
X99258426Y-115033246D01*
X99186831Y-115277226D01*
X100000000Y-116090395D01*
X100813169Y-115277226D01*
X100741574Y-115033246D01*
X100675590Y-115002024D01*
X100741574Y-114966754D01*
X100813169Y-114722774D01*
X101726831Y-114722774D01*
X101798426Y-114966754D01*
X101864410Y-114997976D01*
X101798426Y-115033246D01*
X101726831Y-115277226D01*
X102540000Y-116090395D01*
X103353169Y-115277226D01*
X103281574Y-115033246D01*
X103215590Y-115002024D01*
X103281574Y-114966754D01*
X103353169Y-114722774D01*
X102540000Y-113909605D01*
X101726831Y-114722774D01*
X100813169Y-114722774D01*
X100000000Y-113909605D01*
X99186831Y-114722774D01*
X98273169Y-114722774D01*
X97460000Y-113909605D01*
X96646831Y-114722774D01*
X95956764Y-114722774D01*
X96034715Y-114644823D01*
X96190905Y-114411068D01*
X96223246Y-114471574D01*
X96467226Y-114543169D01*
X97280395Y-113730000D01*
X97639605Y-113730000D01*
X98452774Y-114543169D01*
X98696754Y-114471574D01*
X98727976Y-114405590D01*
X98763246Y-114471574D01*
X99007226Y-114543169D01*
X99820395Y-113730000D01*
X100179605Y-113730000D01*
X100992774Y-114543169D01*
X101236754Y-114471574D01*
X101267976Y-114405590D01*
X101303246Y-114471574D01*
X101547226Y-114543169D01*
X102360395Y-113730000D01*
X101547226Y-112916831D01*
X101303246Y-112988426D01*
X101272024Y-113054410D01*
X101236754Y-112988426D01*
X100992774Y-112916831D01*
X100179605Y-113730000D01*
X99820395Y-113730000D01*
X99007226Y-112916831D01*
X98763246Y-112988426D01*
X98732024Y-113054410D01*
X98696754Y-112988426D01*
X98452774Y-112916831D01*
X97639605Y-113730000D01*
X97280395Y-113730000D01*
X96467226Y-112916831D01*
X96223246Y-112988426D01*
X96192812Y-113052744D01*
X96191769Y-113050225D01*
X96034715Y-112815177D01*
X95956764Y-112737226D01*
X96646831Y-112737226D01*
X97460000Y-113550395D01*
X98273169Y-112737226D01*
X99186831Y-112737226D01*
X100000000Y-113550395D01*
X100813169Y-112737226D01*
X101726831Y-112737226D01*
X102540000Y-113550395D01*
X103353169Y-112737226D01*
X103281574Y-112493246D01*
X103026046Y-112372336D01*
X102751839Y-112303600D01*
X102469492Y-112289680D01*
X102189853Y-112331111D01*
X101923672Y-112426300D01*
X101798426Y-112493246D01*
X101726831Y-112737226D01*
X100813169Y-112737226D01*
X100741574Y-112493246D01*
X100486046Y-112372336D01*
X100211839Y-112303600D01*
X99929492Y-112289680D01*
X99649853Y-112331111D01*
X99383672Y-112426300D01*
X99258426Y-112493246D01*
X99186831Y-112737226D01*
X98273169Y-112737226D01*
X98201574Y-112493246D01*
X97946046Y-112372336D01*
X97671839Y-112303600D01*
X97389492Y-112289680D01*
X97109853Y-112331111D01*
X96843672Y-112426300D01*
X96718426Y-112493246D01*
X96646831Y-112737226D01*
X95956764Y-112737226D01*
X95834823Y-112615285D01*
X95599775Y-112458231D01*
X95338603Y-112350050D01*
X95061345Y-112294900D01*
X94778655Y-112294900D01*
X94501397Y-112350050D01*
X94240225Y-112458231D01*
X94005177Y-112615285D01*
X93805285Y-112815177D01*
X93648231Y-113050225D01*
X93540050Y-113311397D01*
X93484900Y-113588655D01*
X85660000Y-113588655D01*
X85660000Y-108170000D01*
X98361928Y-108170000D01*
X98361928Y-109170000D01*
X98374188Y-109294482D01*
X98410498Y-109414180D01*
X98469463Y-109524494D01*
X98548815Y-109621185D01*
X98645506Y-109700537D01*
X98755820Y-109759502D01*
X98875518Y-109795812D01*
X99000000Y-109808072D01*
X101000000Y-109808072D01*
X101124482Y-109795812D01*
X101244180Y-109759502D01*
X101354494Y-109700537D01*
X101451185Y-109621185D01*
X101530537Y-109524494D01*
X101589502Y-109414180D01*
X101625812Y-109294482D01*
X101638072Y-109170000D01*
X101638072Y-108170000D01*
X101625812Y-108045518D01*
X101589502Y-107925820D01*
X101530537Y-107815506D01*
X101451185Y-107718815D01*
X101354494Y-107639463D01*
X101244180Y-107580498D01*
X101124482Y-107544188D01*
X101000000Y-107531928D01*
X99000000Y-107531928D01*
X98875518Y-107544188D01*
X98755820Y-107580498D01*
X98645506Y-107639463D01*
X98548815Y-107718815D01*
X98469463Y-107815506D01*
X98410498Y-107925820D01*
X98374188Y-108045518D01*
X98361928Y-108170000D01*
X85660000Y-108170000D01*
X85660000Y-103515098D01*
X97615000Y-103515098D01*
X97615000Y-103984902D01*
X97706654Y-104445679D01*
X97886440Y-104879721D01*
X98147450Y-105270349D01*
X98479651Y-105602550D01*
X98870279Y-105863560D01*
X99304321Y-106043346D01*
X99765098Y-106135000D01*
X100234902Y-106135000D01*
X100695679Y-106043346D01*
X101129721Y-105863560D01*
X101520349Y-105602550D01*
X101852550Y-105270349D01*
X102113560Y-104879721D01*
X102293346Y-104445679D01*
X102385000Y-103984902D01*
X102385000Y-103515098D01*
X102293346Y-103054321D01*
X102113560Y-102620279D01*
X101852550Y-102229651D01*
X101520349Y-101897450D01*
X101129721Y-101636440D01*
X100819813Y-101508072D01*
X101000000Y-101508072D01*
X101124482Y-101495812D01*
X101244180Y-101459502D01*
X101354494Y-101400537D01*
X101451185Y-101321185D01*
X101530537Y-101224494D01*
X101589502Y-101114180D01*
X101625812Y-100994482D01*
X101638072Y-100870000D01*
X101638072Y-99870000D01*
X101625812Y-99745518D01*
X101589502Y-99625820D01*
X101530537Y-99515506D01*
X101451185Y-99418815D01*
X101354494Y-99339463D01*
X101244180Y-99280498D01*
X101124482Y-99244188D01*
X101000000Y-99231928D01*
X99000000Y-99231928D01*
X98875518Y-99244188D01*
X98755820Y-99280498D01*
X98645506Y-99339463D01*
X98548815Y-99418815D01*
X98469463Y-99515506D01*
X98410498Y-99625820D01*
X98374188Y-99745518D01*
X98361928Y-99870000D01*
X98361928Y-100870000D01*
X98374188Y-100994482D01*
X98410498Y-101114180D01*
X98469463Y-101224494D01*
X98548815Y-101321185D01*
X98645506Y-101400537D01*
X98755820Y-101459502D01*
X98875518Y-101495812D01*
X99000000Y-101508072D01*
X99180187Y-101508072D01*
X98870279Y-101636440D01*
X98479651Y-101897450D01*
X98147450Y-102229651D01*
X97886440Y-102620279D01*
X97706654Y-103054321D01*
X97615000Y-103515098D01*
X85660000Y-103515098D01*
X85660000Y-97770000D01*
X98361928Y-97770000D01*
X98374188Y-97894482D01*
X98410498Y-98014180D01*
X98469463Y-98124494D01*
X98548815Y-98221185D01*
X98645506Y-98300537D01*
X98755820Y-98359502D01*
X98875518Y-98395812D01*
X99000000Y-98408072D01*
X99714250Y-98405000D01*
X99873000Y-98246250D01*
X99873000Y-97397000D01*
X100127000Y-97397000D01*
X100127000Y-98246250D01*
X100285750Y-98405000D01*
X101000000Y-98408072D01*
X101124482Y-98395812D01*
X101244180Y-98359502D01*
X101354494Y-98300537D01*
X101451185Y-98221185D01*
X101530537Y-98124494D01*
X101589502Y-98014180D01*
X101625812Y-97894482D01*
X101638072Y-97770000D01*
X101635000Y-97555750D01*
X101476250Y-97397000D01*
X100127000Y-97397000D01*
X99873000Y-97397000D01*
X98523750Y-97397000D01*
X98365000Y-97555750D01*
X98361928Y-97770000D01*
X85660000Y-97770000D01*
X85660000Y-96770000D01*
X98361928Y-96770000D01*
X98365000Y-96984250D01*
X98523750Y-97143000D01*
X99873000Y-97143000D01*
X99873000Y-96293750D01*
X100127000Y-96293750D01*
X100127000Y-97143000D01*
X101476250Y-97143000D01*
X101635000Y-96984250D01*
X101638072Y-96770000D01*
X101625812Y-96645518D01*
X101589502Y-96525820D01*
X101530537Y-96415506D01*
X101451185Y-96318815D01*
X101354494Y-96239463D01*
X101244180Y-96180498D01*
X101124482Y-96144188D01*
X101000000Y-96131928D01*
X100285750Y-96135000D01*
X100127000Y-96293750D01*
X99873000Y-96293750D01*
X99714250Y-96135000D01*
X99000000Y-96131928D01*
X98875518Y-96144188D01*
X98755820Y-96180498D01*
X98645506Y-96239463D01*
X98548815Y-96318815D01*
X98469463Y-96415506D01*
X98410498Y-96525820D01*
X98374188Y-96645518D01*
X98361928Y-96770000D01*
X85660000Y-96770000D01*
X85660000Y-87273061D01*
X88590000Y-87273061D01*
X88590000Y-87476939D01*
X88629774Y-87676898D01*
X88707795Y-87865256D01*
X88821063Y-88034774D01*
X88865001Y-88078712D01*
X88865000Y-90171289D01*
X88821063Y-90215226D01*
X88707795Y-90384744D01*
X88629774Y-90573102D01*
X88590000Y-90773061D01*
X88590000Y-90976939D01*
X88629774Y-91176898D01*
X88707795Y-91365256D01*
X88821063Y-91534774D01*
X88965226Y-91678937D01*
X89134744Y-91792205D01*
X89323102Y-91870226D01*
X89523061Y-91910000D01*
X89726939Y-91910000D01*
X89926898Y-91870226D01*
X90115256Y-91792205D01*
X90284774Y-91678937D01*
X90428937Y-91534774D01*
X90542205Y-91365256D01*
X90620226Y-91176898D01*
X90660000Y-90976939D01*
X90660000Y-90855802D01*
X90696063Y-90909774D01*
X90840226Y-91053937D01*
X91009744Y-91167205D01*
X91198102Y-91245226D01*
X91398061Y-91285000D01*
X91601939Y-91285000D01*
X91801898Y-91245226D01*
X91990256Y-91167205D01*
X92159774Y-91053937D01*
X92303937Y-90909774D01*
X92417205Y-90740256D01*
X92495226Y-90551898D01*
X92535000Y-90351939D01*
X92535000Y-90262511D01*
X92648061Y-90285000D01*
X92851939Y-90285000D01*
X93051898Y-90245226D01*
X93240256Y-90167205D01*
X93409774Y-90053937D01*
X93553937Y-89909774D01*
X93667205Y-89740256D01*
X93745226Y-89551898D01*
X93785000Y-89351939D01*
X93785000Y-89148061D01*
X93745226Y-88948102D01*
X93667205Y-88759744D01*
X93553937Y-88590226D01*
X93510000Y-88546289D01*
X93510000Y-83314801D01*
X94889802Y-81935000D01*
X95136411Y-81935000D01*
X95403989Y-81881775D01*
X95656043Y-81777371D01*
X95882886Y-81625799D01*
X96000000Y-81508685D01*
X96117114Y-81625799D01*
X96343957Y-81777371D01*
X96596011Y-81881775D01*
X96863589Y-81935000D01*
X97136411Y-81935000D01*
X97403989Y-81881775D01*
X97656043Y-81777371D01*
X97882886Y-81625799D01*
X98000000Y-81508685D01*
X98117114Y-81625799D01*
X98343957Y-81777371D01*
X98550210Y-81862803D01*
X94592498Y-85820516D01*
X94563500Y-85844314D01*
X94539702Y-85873312D01*
X94539701Y-85873313D01*
X94468526Y-85960039D01*
X94444202Y-86005546D01*
X94397954Y-86092068D01*
X94354513Y-86235276D01*
X94299563Y-86290226D01*
X94186295Y-86459744D01*
X94108274Y-86648102D01*
X94068500Y-86848061D01*
X94068500Y-87051939D01*
X94108274Y-87251898D01*
X94186295Y-87440256D01*
X94299563Y-87609774D01*
X94443726Y-87753937D01*
X94613244Y-87867205D01*
X94801602Y-87945226D01*
X95001561Y-87985000D01*
X95063698Y-87985000D01*
X96339705Y-89261008D01*
X96363499Y-89290001D01*
X96392492Y-89313795D01*
X96392496Y-89313799D01*
X96463185Y-89371811D01*
X96479224Y-89384974D01*
X96611253Y-89455546D01*
X96754514Y-89499003D01*
X96866167Y-89510000D01*
X96866176Y-89510000D01*
X96903499Y-89513676D01*
X96940822Y-89510000D01*
X97546289Y-89510000D01*
X97590226Y-89553937D01*
X97759744Y-89667205D01*
X97948102Y-89745226D01*
X98148061Y-89785000D01*
X98351939Y-89785000D01*
X98551898Y-89745226D01*
X98740256Y-89667205D01*
X98909774Y-89553937D01*
X98935690Y-89528021D01*
X99008012Y-89616145D01*
X99905006Y-90513140D01*
X99940549Y-90556449D01*
X100084120Y-90674275D01*
X100113375Y-90698284D01*
X100310551Y-90803676D01*
X100524499Y-90868577D01*
X100746998Y-90890491D01*
X100802750Y-90885000D01*
X104029869Y-90885000D01*
X105115001Y-91970134D01*
X105115000Y-103029868D01*
X104316860Y-103828009D01*
X104273552Y-103863551D01*
X104131717Y-104036377D01*
X104079738Y-104133623D01*
X104026324Y-104233554D01*
X103961423Y-104447502D01*
X103939509Y-104670000D01*
X103945001Y-104725761D01*
X103945000Y-112845536D01*
X103809095Y-113048932D01*
X103776754Y-112988426D01*
X103532774Y-112916831D01*
X102719605Y-113730000D01*
X103532774Y-114543169D01*
X103776754Y-114471574D01*
X103807188Y-114407256D01*
X103808231Y-114409775D01*
X103965285Y-114644823D01*
X104165177Y-114844715D01*
X104397578Y-115000000D01*
X104165177Y-115155285D01*
X103965285Y-115355177D01*
X103809095Y-115588932D01*
X103776754Y-115528426D01*
X103532774Y-115456831D01*
X102719605Y-116270000D01*
X103532774Y-117083169D01*
X103776754Y-117011574D01*
X103807188Y-116947256D01*
X103808231Y-116949775D01*
X103965285Y-117184823D01*
X104165177Y-117384715D01*
X104400225Y-117541769D01*
X104661397Y-117649950D01*
X104938655Y-117705100D01*
X105221345Y-117705100D01*
X105498603Y-117649950D01*
X105759775Y-117541769D01*
X105994823Y-117384715D01*
X106194715Y-117184823D01*
X106351769Y-116949775D01*
X106459950Y-116688603D01*
X106515100Y-116411345D01*
X106515100Y-116128655D01*
X106459950Y-115851397D01*
X106351769Y-115590225D01*
X106194715Y-115355177D01*
X105994823Y-115155285D01*
X105762422Y-115000000D01*
X105994823Y-114844715D01*
X106194715Y-114644823D01*
X106351769Y-114409775D01*
X106459950Y-114148603D01*
X106515100Y-113871345D01*
X106515100Y-113588655D01*
X106459950Y-113311397D01*
X106351769Y-113050225D01*
X106215000Y-112845536D01*
X106215000Y-105140131D01*
X107013140Y-104341992D01*
X107056449Y-104306449D01*
X107198284Y-104133623D01*
X107303676Y-103936447D01*
X107368577Y-103722499D01*
X107385000Y-103555752D01*
X107385000Y-103555751D01*
X107390491Y-103500000D01*
X107385000Y-103444248D01*
X107385000Y-96398061D01*
X108715000Y-96398061D01*
X108715000Y-96601939D01*
X108754774Y-96801898D01*
X108832795Y-96990256D01*
X108946063Y-97159774D01*
X109090226Y-97303937D01*
X109259744Y-97417205D01*
X109448102Y-97495226D01*
X109648061Y-97535000D01*
X109851939Y-97535000D01*
X110051898Y-97495226D01*
X110240256Y-97417205D01*
X110409774Y-97303937D01*
X110553937Y-97159774D01*
X110667205Y-96990256D01*
X110745226Y-96801898D01*
X110785000Y-96601939D01*
X110785000Y-96398061D01*
X110745226Y-96198102D01*
X110667205Y-96009744D01*
X110553937Y-95840226D01*
X110510000Y-95796289D01*
X110510000Y-92154013D01*
X110659774Y-92053937D01*
X110803937Y-91909774D01*
X110917205Y-91740256D01*
X110995226Y-91551898D01*
X111035000Y-91351939D01*
X111035000Y-91148061D01*
X110995226Y-90948102D01*
X110917205Y-90759744D01*
X110803937Y-90590226D01*
X110659774Y-90446063D01*
X110490256Y-90332795D01*
X110301898Y-90254774D01*
X110101939Y-90215000D01*
X109898061Y-90215000D01*
X109698102Y-90254774D01*
X109509744Y-90332795D01*
X109340226Y-90446063D01*
X109196063Y-90590226D01*
X109082795Y-90759744D01*
X109004774Y-90948102D01*
X108965000Y-91148061D01*
X108965000Y-91351939D01*
X108989015Y-91472674D01*
X108986324Y-91500000D01*
X108990001Y-91537332D01*
X108990000Y-95796289D01*
X108946063Y-95840226D01*
X108832795Y-96009744D01*
X108754774Y-96198102D01*
X108715000Y-96398061D01*
X107385000Y-96398061D01*
X107385000Y-91555752D01*
X107390491Y-91500000D01*
X107368577Y-91277501D01*
X107303676Y-91063553D01*
X107198284Y-90866377D01*
X107091989Y-90736856D01*
X107091987Y-90736854D01*
X107056449Y-90693551D01*
X107013146Y-90658013D01*
X105341995Y-88986864D01*
X105306449Y-88943551D01*
X105133623Y-88801716D01*
X104936447Y-88696324D01*
X104722499Y-88631423D01*
X104555752Y-88615000D01*
X104555751Y-88615000D01*
X104500000Y-88609509D01*
X104444249Y-88615000D01*
X101217130Y-88615000D01*
X100613143Y-88011014D01*
X100483622Y-87904719D01*
X100286446Y-87799326D01*
X100072498Y-87734425D01*
X99850000Y-87712511D01*
X99627502Y-87734425D01*
X99413554Y-87799326D01*
X99216378Y-87904719D01*
X99043552Y-88046554D01*
X99028548Y-88064837D01*
X98909774Y-87946063D01*
X98740256Y-87832795D01*
X98551898Y-87754774D01*
X98351939Y-87715000D01*
X98148061Y-87715000D01*
X97948102Y-87754774D01*
X97759744Y-87832795D01*
X97590226Y-87946063D01*
X97546289Y-87990000D01*
X97218303Y-87990000D01*
X96138500Y-86910198D01*
X96138500Y-86848061D01*
X96098726Y-86648102D01*
X96044771Y-86517845D01*
X96658724Y-85903892D01*
X96696063Y-85959774D01*
X96840226Y-86103937D01*
X97009744Y-86217205D01*
X97198102Y-86295226D01*
X97398061Y-86335000D01*
X97601939Y-86335000D01*
X97801898Y-86295226D01*
X97990256Y-86217205D01*
X98159774Y-86103937D01*
X98303937Y-85959774D01*
X98417205Y-85790256D01*
X98495226Y-85601898D01*
X98535000Y-85401939D01*
X98535000Y-85339801D01*
X99763799Y-84111003D01*
X99763804Y-84110997D01*
X100014801Y-83860000D01*
X112296289Y-83860000D01*
X112340226Y-83903937D01*
X112509744Y-84017205D01*
X112698102Y-84095226D01*
X112898061Y-84135000D01*
X113101939Y-84135000D01*
X113301898Y-84095226D01*
X113490256Y-84017205D01*
X113659774Y-83903937D01*
X113803937Y-83759774D01*
X113917205Y-83590256D01*
X113995226Y-83401898D01*
X114035000Y-83201939D01*
X114035000Y-82998061D01*
X113995226Y-82798102D01*
X113917205Y-82609744D01*
X113803937Y-82440226D01*
X113659774Y-82296063D01*
X113490256Y-82182795D01*
X113301898Y-82104774D01*
X113101939Y-82065000D01*
X112898061Y-82065000D01*
X112698102Y-82104774D01*
X112509744Y-82182795D01*
X112340226Y-82296063D01*
X112296289Y-82340000D01*
X110634802Y-82340000D01*
X111834505Y-81140298D01*
X111890256Y-81117205D01*
X112059774Y-81003937D01*
X112203937Y-80859774D01*
X112317205Y-80690256D01*
X112395226Y-80501898D01*
X112435000Y-80301939D01*
X112435000Y-80098061D01*
X112395226Y-79898102D01*
X112317205Y-79709744D01*
X112203937Y-79540226D01*
X112059774Y-79396063D01*
X111890256Y-79282795D01*
X111701898Y-79204774D01*
X111501939Y-79165000D01*
X111298061Y-79165000D01*
X111098102Y-79204774D01*
X110909744Y-79282795D01*
X110740226Y-79396063D01*
X110596063Y-79540226D01*
X110482795Y-79709744D01*
X110404774Y-79898102D01*
X110365000Y-80098061D01*
X110365000Y-80301939D01*
X110391257Y-80433941D01*
X109285199Y-81540000D01*
X105968685Y-81540000D01*
X106075799Y-81432886D01*
X106227371Y-81206043D01*
X106331775Y-80953989D01*
X106385000Y-80686411D01*
X106385000Y-80413589D01*
X106331775Y-80146011D01*
X106227371Y-79893957D01*
X106075799Y-79667114D01*
X105882886Y-79474201D01*
X105656043Y-79322629D01*
X105403989Y-79218225D01*
X105136411Y-79165000D01*
X104863589Y-79165000D01*
X104596011Y-79218225D01*
X104343957Y-79322629D01*
X104117114Y-79474201D01*
X104000000Y-79591315D01*
X103882886Y-79474201D01*
X103760000Y-79392091D01*
X103760000Y-75537322D01*
X103763676Y-75499999D01*
X103760000Y-75462676D01*
X103760000Y-75462667D01*
X103749003Y-75351014D01*
X103705546Y-75207753D01*
X103700859Y-75198985D01*
X103634974Y-75075723D01*
X103600031Y-75033146D01*
X103585000Y-75014830D01*
X103585000Y-74948061D01*
X103545226Y-74748102D01*
X103467205Y-74559744D01*
X103353937Y-74390226D01*
X103209774Y-74246063D01*
X103040256Y-74132795D01*
X102851898Y-74054774D01*
X102651939Y-74015000D01*
X102448061Y-74015000D01*
X102248102Y-74054774D01*
X102059744Y-74132795D01*
X101890226Y-74246063D01*
X101746063Y-74390226D01*
X101632795Y-74559744D01*
X101554774Y-74748102D01*
X101515000Y-74948061D01*
X101515000Y-75151939D01*
X101554774Y-75351898D01*
X101632795Y-75540256D01*
X101746063Y-75709774D01*
X101890226Y-75853937D01*
X102059744Y-75967205D01*
X102240001Y-76041870D01*
X102240000Y-79392091D01*
X102117114Y-79474201D01*
X102000000Y-79591315D01*
X101882886Y-79474201D01*
X101656043Y-79322629D01*
X101403989Y-79218225D01*
X101136411Y-79165000D01*
X100863589Y-79165000D01*
X100596011Y-79218225D01*
X100343957Y-79322629D01*
X100117114Y-79474201D01*
X100000000Y-79591315D01*
X99882886Y-79474201D01*
X99656043Y-79322629D01*
X99403989Y-79218225D01*
X99136411Y-79165000D01*
X98863589Y-79165000D01*
X98596011Y-79218225D01*
X98343957Y-79322629D01*
X98117114Y-79474201D01*
X98000000Y-79591315D01*
X97882886Y-79474201D01*
X97656043Y-79322629D01*
X97403989Y-79218225D01*
X97136411Y-79165000D01*
X96863589Y-79165000D01*
X96596011Y-79218225D01*
X96343957Y-79322629D01*
X96117114Y-79474201D01*
X96000000Y-79591315D01*
X95882886Y-79474201D01*
X95656043Y-79322629D01*
X95403989Y-79218225D01*
X95136411Y-79165000D01*
X94863589Y-79165000D01*
X94596011Y-79218225D01*
X94343957Y-79322629D01*
X94117114Y-79474201D01*
X93924201Y-79667114D01*
X93772629Y-79893957D01*
X93668225Y-80146011D01*
X93615000Y-80413589D01*
X93615000Y-80686411D01*
X93668225Y-80953989D01*
X93683744Y-80991455D01*
X92238998Y-82436201D01*
X92210000Y-82459999D01*
X92186202Y-82488997D01*
X92186201Y-82488998D01*
X92115026Y-82575724D01*
X92044454Y-82707754D01*
X92017048Y-82798102D01*
X92000998Y-82851014D01*
X91992729Y-82934974D01*
X91986324Y-83000000D01*
X91990001Y-83037332D01*
X91990000Y-86332689D01*
X91801898Y-86254774D01*
X91601939Y-86215000D01*
X91398061Y-86215000D01*
X91198102Y-86254774D01*
X91009744Y-86332795D01*
X90840226Y-86446063D01*
X90696063Y-86590226D01*
X90582795Y-86759744D01*
X90535299Y-86874409D01*
X90428937Y-86715226D01*
X90284774Y-86571063D01*
X90115256Y-86457795D01*
X89926898Y-86379774D01*
X89726939Y-86340000D01*
X89523061Y-86340000D01*
X89323102Y-86379774D01*
X89134744Y-86457795D01*
X88965226Y-86571063D01*
X88821063Y-86715226D01*
X88707795Y-86884744D01*
X88629774Y-87073102D01*
X88590000Y-87273061D01*
X85660000Y-87273061D01*
X85660000Y-68700000D01*
X90711928Y-68700000D01*
X90711928Y-72400000D01*
X90724188Y-72524482D01*
X90760498Y-72644180D01*
X90819463Y-72754494D01*
X90898815Y-72851185D01*
X90995506Y-72930537D01*
X91105820Y-72989502D01*
X91225518Y-73025812D01*
X91350000Y-73038072D01*
X91833219Y-73038072D01*
X91813564Y-73057727D01*
X91700296Y-73227245D01*
X91622275Y-73415603D01*
X91582501Y-73615562D01*
X91582501Y-73819440D01*
X91622275Y-74019399D01*
X91700296Y-74207757D01*
X91813564Y-74377275D01*
X91957727Y-74521438D01*
X92127245Y-74634706D01*
X92315603Y-74712727D01*
X92515562Y-74752501D01*
X92719440Y-74752501D01*
X92919399Y-74712727D01*
X93046692Y-74660000D01*
X94085199Y-74660000D01*
X94711201Y-75286003D01*
X94734999Y-75315001D01*
X94850724Y-75409974D01*
X94982753Y-75480546D01*
X95126014Y-75524003D01*
X95237667Y-75535000D01*
X95237677Y-75535000D01*
X95275000Y-75538676D01*
X95312323Y-75535000D01*
X97321289Y-75535000D01*
X97365226Y-75578937D01*
X97534744Y-75692205D01*
X97723102Y-75770226D01*
X97923061Y-75810000D01*
X98126939Y-75810000D01*
X98326898Y-75770226D01*
X98515256Y-75692205D01*
X98684774Y-75578937D01*
X98828937Y-75434774D01*
X98942205Y-75265256D01*
X99020226Y-75076898D01*
X99060000Y-74876939D01*
X99060000Y-74673061D01*
X99020226Y-74473102D01*
X98942205Y-74284744D01*
X98828937Y-74115226D01*
X98684774Y-73971063D01*
X98515256Y-73857795D01*
X98326898Y-73779774D01*
X98126939Y-73740000D01*
X97923061Y-73740000D01*
X97723102Y-73779774D01*
X97534744Y-73857795D01*
X97365226Y-73971063D01*
X97321289Y-74015000D01*
X95589802Y-74015000D01*
X94963803Y-73389002D01*
X94940001Y-73359999D01*
X94824276Y-73265026D01*
X94692247Y-73194454D01*
X94548986Y-73150997D01*
X94437333Y-73140000D01*
X94437322Y-73140000D01*
X94400000Y-73136324D01*
X94362678Y-73140000D01*
X93476411Y-73140000D01*
X93421438Y-73057727D01*
X93397140Y-73033429D01*
X93474482Y-73025812D01*
X93594180Y-72989502D01*
X93704494Y-72930537D01*
X93801185Y-72851185D01*
X93880537Y-72754494D01*
X93939502Y-72644180D01*
X93975812Y-72524482D01*
X93988072Y-72400000D01*
X93988072Y-68700000D01*
X93975812Y-68575518D01*
X93939502Y-68455820D01*
X93880537Y-68345506D01*
X93801185Y-68248815D01*
X93704494Y-68169463D01*
X93594180Y-68110498D01*
X93474482Y-68074188D01*
X93350000Y-68061928D01*
X91350000Y-68061928D01*
X91225518Y-68074188D01*
X91105820Y-68110498D01*
X90995506Y-68169463D01*
X90898815Y-68248815D01*
X90819463Y-68345506D01*
X90760498Y-68455820D01*
X90724188Y-68575518D01*
X90711928Y-68700000D01*
X85660000Y-68700000D01*
X85660000Y-65998061D01*
X93165000Y-65998061D01*
X93165000Y-66201939D01*
X93204774Y-66401898D01*
X93282795Y-66590256D01*
X93396063Y-66759774D01*
X93540226Y-66903937D01*
X93709744Y-67017205D01*
X93898102Y-67095226D01*
X94098061Y-67135000D01*
X94160199Y-67135000D01*
X98236205Y-71211008D01*
X98259999Y-71240001D01*
X98288992Y-71263795D01*
X98288996Y-71263799D01*
X98359685Y-71321811D01*
X98375724Y-71334974D01*
X98507753Y-71405546D01*
X98651014Y-71449003D01*
X98762667Y-71460000D01*
X98762676Y-71460000D01*
X98799999Y-71463676D01*
X98837322Y-71460000D01*
X101396289Y-71460000D01*
X101440226Y-71503937D01*
X101609744Y-71617205D01*
X101798102Y-71695226D01*
X101998061Y-71735000D01*
X102201939Y-71735000D01*
X102401898Y-71695226D01*
X102590256Y-71617205D01*
X102759774Y-71503937D01*
X102903937Y-71359774D01*
X103017205Y-71190256D01*
X103095226Y-71001898D01*
X103135000Y-70801939D01*
X103135000Y-70598061D01*
X103095226Y-70398102D01*
X103017205Y-70209744D01*
X102903937Y-70040226D01*
X102759774Y-69896063D01*
X102590256Y-69782795D01*
X102401898Y-69704774D01*
X102201939Y-69665000D01*
X101998061Y-69665000D01*
X101798102Y-69704774D01*
X101609744Y-69782795D01*
X101440226Y-69896063D01*
X101396289Y-69940000D01*
X99114803Y-69940000D01*
X97874803Y-68700000D01*
X106011928Y-68700000D01*
X106011928Y-72400000D01*
X106024188Y-72524482D01*
X106060498Y-72644180D01*
X106119463Y-72754494D01*
X106198815Y-72851185D01*
X106295506Y-72930537D01*
X106405820Y-72989502D01*
X106525518Y-73025812D01*
X106650000Y-73038072D01*
X108650000Y-73038072D01*
X108774482Y-73025812D01*
X108894180Y-72989502D01*
X109004494Y-72930537D01*
X109101185Y-72851185D01*
X109180537Y-72754494D01*
X109239502Y-72644180D01*
X109275812Y-72524482D01*
X109288072Y-72400000D01*
X109288072Y-68700000D01*
X109275812Y-68575518D01*
X109239502Y-68455820D01*
X109180537Y-68345506D01*
X109101185Y-68248815D01*
X109004494Y-68169463D01*
X108894180Y-68110498D01*
X108774482Y-68074188D01*
X108650000Y-68061928D01*
X106650000Y-68061928D01*
X106525518Y-68074188D01*
X106405820Y-68110498D01*
X106295506Y-68169463D01*
X106198815Y-68248815D01*
X106119463Y-68345506D01*
X106060498Y-68455820D01*
X106024188Y-68575518D01*
X106011928Y-68700000D01*
X97874803Y-68700000D01*
X95235000Y-66060199D01*
X95235000Y-65998061D01*
X95195226Y-65798102D01*
X95117205Y-65609744D01*
X95003937Y-65440226D01*
X94859774Y-65296063D01*
X94690256Y-65182795D01*
X94501898Y-65104774D01*
X94301939Y-65065000D01*
X94098061Y-65065000D01*
X93898102Y-65104774D01*
X93709744Y-65182795D01*
X93540226Y-65296063D01*
X93396063Y-65440226D01*
X93282795Y-65609744D01*
X93204774Y-65798102D01*
X93165000Y-65998061D01*
X85660000Y-65998061D01*
X85660000Y-60779872D01*
X86265000Y-60779872D01*
X86265000Y-61220128D01*
X86350890Y-61651925D01*
X86519369Y-62058669D01*
X86763962Y-62424729D01*
X87075271Y-62736038D01*
X87441331Y-62980631D01*
X87848075Y-63149110D01*
X88279872Y-63235000D01*
X88720128Y-63235000D01*
X89151925Y-63149110D01*
X89558669Y-62980631D01*
X89924729Y-62736038D01*
X90236038Y-62424729D01*
X90480631Y-62058669D01*
X90563475Y-61858665D01*
X96065000Y-61858665D01*
X96065000Y-62141335D01*
X96120147Y-62418574D01*
X96228320Y-62679727D01*
X96385363Y-62914759D01*
X96585241Y-63114637D01*
X96820273Y-63271680D01*
X97081426Y-63379853D01*
X97358665Y-63435000D01*
X97641335Y-63435000D01*
X97918574Y-63379853D01*
X98179727Y-63271680D01*
X98414759Y-63114637D01*
X98614637Y-62914759D01*
X98750000Y-62712173D01*
X98885363Y-62914759D01*
X99085241Y-63114637D01*
X99320273Y-63271680D01*
X99581426Y-63379853D01*
X99858665Y-63435000D01*
X100141335Y-63435000D01*
X100418574Y-63379853D01*
X100679727Y-63271680D01*
X100914759Y-63114637D01*
X101114637Y-62914759D01*
X101250000Y-62712173D01*
X101385363Y-62914759D01*
X101585241Y-63114637D01*
X101820273Y-63271680D01*
X102081426Y-63379853D01*
X102358665Y-63435000D01*
X102641335Y-63435000D01*
X102918574Y-63379853D01*
X103179727Y-63271680D01*
X103414759Y-63114637D01*
X103614637Y-62914759D01*
X103771680Y-62679727D01*
X103879853Y-62418574D01*
X103935000Y-62141335D01*
X103935000Y-61858665D01*
X103879853Y-61581426D01*
X103771680Y-61320273D01*
X103614637Y-61085241D01*
X103414759Y-60885363D01*
X103256881Y-60779872D01*
X109265000Y-60779872D01*
X109265000Y-61220128D01*
X109350890Y-61651925D01*
X109519369Y-62058669D01*
X109763962Y-62424729D01*
X110075271Y-62736038D01*
X110441331Y-62980631D01*
X110848075Y-63149110D01*
X111279872Y-63235000D01*
X111720128Y-63235000D01*
X112151925Y-63149110D01*
X112558669Y-62980631D01*
X112924729Y-62736038D01*
X113236038Y-62424729D01*
X113480631Y-62058669D01*
X113649110Y-61651925D01*
X113735000Y-61220128D01*
X113735000Y-60779872D01*
X113649110Y-60348075D01*
X113480631Y-59941331D01*
X113236038Y-59575271D01*
X112924729Y-59263962D01*
X112558669Y-59019369D01*
X112151925Y-58850890D01*
X111720128Y-58765000D01*
X111279872Y-58765000D01*
X110848075Y-58850890D01*
X110441331Y-59019369D01*
X110075271Y-59263962D01*
X109763962Y-59575271D01*
X109519369Y-59941331D01*
X109350890Y-60348075D01*
X109265000Y-60779872D01*
X103256881Y-60779872D01*
X103179727Y-60728320D01*
X102918574Y-60620147D01*
X102641335Y-60565000D01*
X102358665Y-60565000D01*
X102081426Y-60620147D01*
X101820273Y-60728320D01*
X101585241Y-60885363D01*
X101385363Y-61085241D01*
X101250000Y-61287827D01*
X101114637Y-61085241D01*
X100914759Y-60885363D01*
X100679727Y-60728320D01*
X100418574Y-60620147D01*
X100141335Y-60565000D01*
X99858665Y-60565000D01*
X99581426Y-60620147D01*
X99320273Y-60728320D01*
X99085241Y-60885363D01*
X98885363Y-61085241D01*
X98750000Y-61287827D01*
X98614637Y-61085241D01*
X98414759Y-60885363D01*
X98179727Y-60728320D01*
X97918574Y-60620147D01*
X97641335Y-60565000D01*
X97358665Y-60565000D01*
X97081426Y-60620147D01*
X96820273Y-60728320D01*
X96585241Y-60885363D01*
X96385363Y-61085241D01*
X96228320Y-61320273D01*
X96120147Y-61581426D01*
X96065000Y-61858665D01*
X90563475Y-61858665D01*
X90649110Y-61651925D01*
X90735000Y-61220128D01*
X90735000Y-60779872D01*
X90649110Y-60348075D01*
X90480631Y-59941331D01*
X90236038Y-59575271D01*
X89924729Y-59263962D01*
X89558669Y-59019369D01*
X89151925Y-58850890D01*
X88720128Y-58765000D01*
X88279872Y-58765000D01*
X87848075Y-58850890D01*
X87441331Y-59019369D01*
X87075271Y-59263962D01*
X86763962Y-59575271D01*
X86519369Y-59941331D01*
X86350890Y-60348075D01*
X86265000Y-60779872D01*
X85660000Y-60779872D01*
X85660000Y-53250000D01*
X92311928Y-53250000D01*
X92311928Y-56750000D01*
X92324188Y-56874482D01*
X92360498Y-56994180D01*
X92419463Y-57104494D01*
X92498815Y-57201185D01*
X92595506Y-57280537D01*
X92705820Y-57339502D01*
X92825518Y-57375812D01*
X92950000Y-57388072D01*
X96450000Y-57388072D01*
X96574482Y-57375812D01*
X96694180Y-57339502D01*
X96804494Y-57280537D01*
X96901185Y-57201185D01*
X96980537Y-57104494D01*
X97039502Y-56994180D01*
X97075812Y-56874482D01*
X97088072Y-56750000D01*
X97088072Y-53250000D01*
X102911928Y-53250000D01*
X102911928Y-56750000D01*
X102924188Y-56874482D01*
X102960498Y-56994180D01*
X103019463Y-57104494D01*
X103098815Y-57201185D01*
X103195506Y-57280537D01*
X103305820Y-57339502D01*
X103425518Y-57375812D01*
X103550000Y-57388072D01*
X107050000Y-57388072D01*
X107174482Y-57375812D01*
X107294180Y-57339502D01*
X107404494Y-57280537D01*
X107501185Y-57201185D01*
X107580537Y-57104494D01*
X107639502Y-56994180D01*
X107675812Y-56874482D01*
X107688072Y-56750000D01*
X107688072Y-53250000D01*
X107675812Y-53125518D01*
X107639502Y-53005820D01*
X107580537Y-52895506D01*
X107501185Y-52798815D01*
X107404494Y-52719463D01*
X107294180Y-52660498D01*
X107174482Y-52624188D01*
X107050000Y-52611928D01*
X103550000Y-52611928D01*
X103425518Y-52624188D01*
X103305820Y-52660498D01*
X103195506Y-52719463D01*
X103098815Y-52798815D01*
X103019463Y-52895506D01*
X102960498Y-53005820D01*
X102924188Y-53125518D01*
X102911928Y-53250000D01*
X97088072Y-53250000D01*
X97075812Y-53125518D01*
X97039502Y-53005820D01*
X96980537Y-52895506D01*
X96901185Y-52798815D01*
X96804494Y-52719463D01*
X96694180Y-52660498D01*
X96574482Y-52624188D01*
X96450000Y-52611928D01*
X92950000Y-52611928D01*
X92825518Y-52624188D01*
X92705820Y-52660498D01*
X92595506Y-52719463D01*
X92498815Y-52798815D01*
X92419463Y-52895506D01*
X92360498Y-53005820D01*
X92324188Y-53125518D01*
X92311928Y-53250000D01*
X85660000Y-53250000D01*
X85660000Y-46558665D01*
X96065000Y-46558665D01*
X96065000Y-46841335D01*
X96120147Y-47118574D01*
X96228320Y-47379727D01*
X96385363Y-47614759D01*
X96585241Y-47814637D01*
X96820273Y-47971680D01*
X97081426Y-48079853D01*
X97358665Y-48135000D01*
X97641335Y-48135000D01*
X97918574Y-48079853D01*
X98179727Y-47971680D01*
X98414759Y-47814637D01*
X98614637Y-47614759D01*
X98750000Y-47412173D01*
X98885363Y-47614759D01*
X99085241Y-47814637D01*
X99320273Y-47971680D01*
X99581426Y-48079853D01*
X99858665Y-48135000D01*
X100141335Y-48135000D01*
X100418574Y-48079853D01*
X100679727Y-47971680D01*
X100914759Y-47814637D01*
X101114637Y-47614759D01*
X101250000Y-47412173D01*
X101385363Y-47614759D01*
X101585241Y-47814637D01*
X101820273Y-47971680D01*
X102081426Y-48079853D01*
X102358665Y-48135000D01*
X102641335Y-48135000D01*
X102918574Y-48079853D01*
X103179727Y-47971680D01*
X103414759Y-47814637D01*
X103614637Y-47614759D01*
X103771680Y-47379727D01*
X103879853Y-47118574D01*
X103935000Y-46841335D01*
X103935000Y-46558665D01*
X103879853Y-46281426D01*
X103771680Y-46020273D01*
X103614637Y-45785241D01*
X103414759Y-45585363D01*
X103179727Y-45428320D01*
X102918574Y-45320147D01*
X102641335Y-45265000D01*
X102358665Y-45265000D01*
X102081426Y-45320147D01*
X101820273Y-45428320D01*
X101585241Y-45585363D01*
X101385363Y-45785241D01*
X101250000Y-45987827D01*
X101114637Y-45785241D01*
X100914759Y-45585363D01*
X100679727Y-45428320D01*
X100418574Y-45320147D01*
X100141335Y-45265000D01*
X99858665Y-45265000D01*
X99581426Y-45320147D01*
X99320273Y-45428320D01*
X99085241Y-45585363D01*
X98885363Y-45785241D01*
X98750000Y-45987827D01*
X98614637Y-45785241D01*
X98414759Y-45585363D01*
X98179727Y-45428320D01*
X97918574Y-45320147D01*
X97641335Y-45265000D01*
X97358665Y-45265000D01*
X97081426Y-45320147D01*
X96820273Y-45428320D01*
X96585241Y-45585363D01*
X96385363Y-45785241D01*
X96228320Y-46020273D01*
X96120147Y-46281426D01*
X96065000Y-46558665D01*
X85660000Y-46558665D01*
X85660000Y-37950000D01*
X92311928Y-37950000D01*
X92311928Y-41450000D01*
X92324188Y-41574482D01*
X92360498Y-41694180D01*
X92419463Y-41804494D01*
X92498815Y-41901185D01*
X92595506Y-41980537D01*
X92705820Y-42039502D01*
X92825518Y-42075812D01*
X92950000Y-42088072D01*
X96450000Y-42088072D01*
X96574482Y-42075812D01*
X96694180Y-42039502D01*
X96804494Y-41980537D01*
X96901185Y-41901185D01*
X96980537Y-41804494D01*
X97039502Y-41694180D01*
X97075812Y-41574482D01*
X97088072Y-41450000D01*
X97088072Y-37950000D01*
X102911928Y-37950000D01*
X102911928Y-41450000D01*
X102924188Y-41574482D01*
X102960498Y-41694180D01*
X103019463Y-41804494D01*
X103098815Y-41901185D01*
X103195506Y-41980537D01*
X103305820Y-42039502D01*
X103425518Y-42075812D01*
X103550000Y-42088072D01*
X107050000Y-42088072D01*
X107174482Y-42075812D01*
X107294180Y-42039502D01*
X107404494Y-41980537D01*
X107501185Y-41901185D01*
X107580537Y-41804494D01*
X107639502Y-41694180D01*
X107675812Y-41574482D01*
X107688072Y-41450000D01*
X107688072Y-37950000D01*
X107675812Y-37825518D01*
X107639502Y-37705820D01*
X107580537Y-37595506D01*
X107501185Y-37498815D01*
X107404494Y-37419463D01*
X107294180Y-37360498D01*
X107174482Y-37324188D01*
X107050000Y-37311928D01*
X103550000Y-37311928D01*
X103425518Y-37324188D01*
X103305820Y-37360498D01*
X103195506Y-37419463D01*
X103098815Y-37498815D01*
X103019463Y-37595506D01*
X102960498Y-37705820D01*
X102924188Y-37825518D01*
X102911928Y-37950000D01*
X97088072Y-37950000D01*
X97075812Y-37825518D01*
X97039502Y-37705820D01*
X96980537Y-37595506D01*
X96901185Y-37498815D01*
X96804494Y-37419463D01*
X96694180Y-37360498D01*
X96574482Y-37324188D01*
X96450000Y-37311928D01*
X92950000Y-37311928D01*
X92825518Y-37324188D01*
X92705820Y-37360498D01*
X92595506Y-37419463D01*
X92498815Y-37498815D01*
X92419463Y-37595506D01*
X92360498Y-37705820D01*
X92324188Y-37825518D01*
X92311928Y-37950000D01*
X85660000Y-37950000D01*
X85660000Y-31920000D01*
X98361928Y-31920000D01*
X98361928Y-32920000D01*
X98374188Y-33044482D01*
X98410498Y-33164180D01*
X98469463Y-33274494D01*
X98548815Y-33371185D01*
X98645506Y-33450537D01*
X98755820Y-33509502D01*
X98875518Y-33545812D01*
X99000000Y-33558072D01*
X101000000Y-33558072D01*
X101124482Y-33545812D01*
X101244180Y-33509502D01*
X101354494Y-33450537D01*
X101451185Y-33371185D01*
X101530537Y-33274494D01*
X101589502Y-33164180D01*
X101625812Y-33044482D01*
X101638072Y-32920000D01*
X101638072Y-31920000D01*
X101625812Y-31795518D01*
X101589502Y-31675820D01*
X101530537Y-31565506D01*
X101451185Y-31468815D01*
X101354494Y-31389463D01*
X101244180Y-31330498D01*
X101124482Y-31294188D01*
X101000000Y-31281928D01*
X99000000Y-31281928D01*
X98875518Y-31294188D01*
X98755820Y-31330498D01*
X98645506Y-31389463D01*
X98548815Y-31468815D01*
X98469463Y-31565506D01*
X98410498Y-31675820D01*
X98374188Y-31795518D01*
X98361928Y-31920000D01*
X85660000Y-31920000D01*
X85660000Y-27265098D01*
X97615000Y-27265098D01*
X97615000Y-27734902D01*
X97706654Y-28195679D01*
X97886440Y-28629721D01*
X98147450Y-29020349D01*
X98479651Y-29352550D01*
X98870279Y-29613560D01*
X99304321Y-29793346D01*
X99765098Y-29885000D01*
X100234902Y-29885000D01*
X100695679Y-29793346D01*
X101129721Y-29613560D01*
X101520349Y-29352550D01*
X101852550Y-29020349D01*
X102113560Y-28629721D01*
X102293346Y-28195679D01*
X102385000Y-27734902D01*
X102385000Y-27265098D01*
X102293346Y-26804321D01*
X102113560Y-26370279D01*
X101852550Y-25979651D01*
X101520349Y-25647450D01*
X101129721Y-25386440D01*
X100819813Y-25258072D01*
X101000000Y-25258072D01*
X101124482Y-25245812D01*
X101244180Y-25209502D01*
X101354494Y-25150537D01*
X101451185Y-25071185D01*
X101530537Y-24974494D01*
X101589502Y-24864180D01*
X101625812Y-24744482D01*
X101638072Y-24620000D01*
X101638072Y-23620000D01*
X101625812Y-23495518D01*
X101589502Y-23375820D01*
X101530537Y-23265506D01*
X101451185Y-23168815D01*
X101354494Y-23089463D01*
X101244180Y-23030498D01*
X101124482Y-22994188D01*
X101000000Y-22981928D01*
X99000000Y-22981928D01*
X98875518Y-22994188D01*
X98755820Y-23030498D01*
X98645506Y-23089463D01*
X98548815Y-23168815D01*
X98469463Y-23265506D01*
X98410498Y-23375820D01*
X98374188Y-23495518D01*
X98361928Y-23620000D01*
X98361928Y-24620000D01*
X98374188Y-24744482D01*
X98410498Y-24864180D01*
X98469463Y-24974494D01*
X98548815Y-25071185D01*
X98645506Y-25150537D01*
X98755820Y-25209502D01*
X98875518Y-25245812D01*
X99000000Y-25258072D01*
X99180187Y-25258072D01*
X98870279Y-25386440D01*
X98479651Y-25647450D01*
X98147450Y-25979651D01*
X97886440Y-26370279D01*
X97706654Y-26804321D01*
X97615000Y-27265098D01*
X85660000Y-27265098D01*
X85660000Y-23032279D01*
X85707670Y-22546107D01*
X85839489Y-22109502D01*
X86053600Y-21706815D01*
X86205962Y-21520000D01*
X98361928Y-21520000D01*
X98374188Y-21644482D01*
X98410498Y-21764180D01*
X98469463Y-21874494D01*
X98548815Y-21971185D01*
X98645506Y-22050537D01*
X98755820Y-22109502D01*
X98875518Y-22145812D01*
X99000000Y-22158072D01*
X99714250Y-22155000D01*
X99873000Y-21996250D01*
X99873000Y-21147000D01*
X100127000Y-21147000D01*
X100127000Y-21996250D01*
X100285750Y-22155000D01*
X101000000Y-22158072D01*
X101124482Y-22145812D01*
X101244180Y-22109502D01*
X101354494Y-22050537D01*
X101451185Y-21971185D01*
X101530537Y-21874494D01*
X101589502Y-21764180D01*
X101625812Y-21644482D01*
X101638072Y-21520000D01*
X101635000Y-21305750D01*
X101476250Y-21147000D01*
X100127000Y-21147000D01*
X99873000Y-21147000D01*
X98523750Y-21147000D01*
X98365000Y-21305750D01*
X98361928Y-21520000D01*
X86205962Y-21520000D01*
X86341848Y-21353388D01*
X86693261Y-21062673D01*
X87094439Y-20845758D01*
X87530113Y-20710894D01*
X88014344Y-20660000D01*
X98363935Y-20660000D01*
X98365000Y-20734250D01*
%TA.AperFunction,Conductor*%
D21*
G36*
X98365000Y-20734250D02*
G01*
X98523750Y-20893000D01*
X99873000Y-20893000D01*
X99873000Y-20873000D01*
X100127000Y-20873000D01*
X100127000Y-20893000D01*
X101476250Y-20893000D01*
X101635000Y-20734250D01*
X101636065Y-20660000D01*
X111967721Y-20660000D01*
X112453893Y-20707670D01*
X112890498Y-20839489D01*
X113293185Y-21053600D01*
X113646612Y-21341848D01*
X113937327Y-21693261D01*
X114154242Y-22094439D01*
X114289106Y-22530113D01*
X114340000Y-23014344D01*
X114340001Y-116967711D01*
X114292330Y-117453894D01*
X114160512Y-117890497D01*
X113946399Y-118293186D01*
X113658150Y-118646613D01*
X113306739Y-118937327D01*
X112905564Y-119154240D01*
X112469886Y-119289106D01*
X111985664Y-119340000D01*
X88032279Y-119340000D01*
X87546106Y-119292330D01*
X87109503Y-119160512D01*
X86706814Y-118946399D01*
X86353387Y-118658150D01*
X86062673Y-118306739D01*
X85845760Y-117905564D01*
X85710894Y-117469886D01*
X85660000Y-116985664D01*
X85660000Y-113588655D01*
X93484900Y-113588655D01*
X93484900Y-113871345D01*
X93540050Y-114148603D01*
X93648231Y-114409775D01*
X93805285Y-114644823D01*
X94005177Y-114844715D01*
X94237578Y-115000000D01*
X94005177Y-115155285D01*
X93805285Y-115355177D01*
X93648231Y-115590225D01*
X93540050Y-115851397D01*
X93484900Y-116128655D01*
X93484900Y-116411345D01*
X93540050Y-116688603D01*
X93648231Y-116949775D01*
X93805285Y-117184823D01*
X94005177Y-117384715D01*
X94240225Y-117541769D01*
X94501397Y-117649950D01*
X94778655Y-117705100D01*
X95061345Y-117705100D01*
X95338603Y-117649950D01*
X95599775Y-117541769D01*
X95834823Y-117384715D01*
X95956764Y-117262774D01*
X96646831Y-117262774D01*
X96718426Y-117506754D01*
X96973954Y-117627664D01*
X97248161Y-117696400D01*
X97530508Y-117710320D01*
X97810147Y-117668889D01*
X98076328Y-117573700D01*
X98201574Y-117506754D01*
X98273169Y-117262774D01*
X99186831Y-117262774D01*
X99258426Y-117506754D01*
X99513954Y-117627664D01*
X99788161Y-117696400D01*
X100070508Y-117710320D01*
X100350147Y-117668889D01*
X100616328Y-117573700D01*
X100741574Y-117506754D01*
X100813169Y-117262774D01*
X101726831Y-117262774D01*
X101798426Y-117506754D01*
X102053954Y-117627664D01*
X102328161Y-117696400D01*
X102610508Y-117710320D01*
X102890147Y-117668889D01*
X103156328Y-117573700D01*
X103281574Y-117506754D01*
X103353169Y-117262774D01*
X102540000Y-116449605D01*
X101726831Y-117262774D01*
X100813169Y-117262774D01*
X100000000Y-116449605D01*
X99186831Y-117262774D01*
X98273169Y-117262774D01*
X97460000Y-116449605D01*
X96646831Y-117262774D01*
X95956764Y-117262774D01*
X96034715Y-117184823D01*
X96190905Y-116951068D01*
X96223246Y-117011574D01*
X96467226Y-117083169D01*
X97280395Y-116270000D01*
X97639605Y-116270000D01*
X98452774Y-117083169D01*
X98696754Y-117011574D01*
X98727976Y-116945590D01*
X98763246Y-117011574D01*
X99007226Y-117083169D01*
X99820395Y-116270000D01*
X100179605Y-116270000D01*
X100992774Y-117083169D01*
X101236754Y-117011574D01*
X101267976Y-116945590D01*
X101303246Y-117011574D01*
X101547226Y-117083169D01*
X102360395Y-116270000D01*
X101547226Y-115456831D01*
X101303246Y-115528426D01*
X101272024Y-115594410D01*
X101236754Y-115528426D01*
X100992774Y-115456831D01*
X100179605Y-116270000D01*
X99820395Y-116270000D01*
X99007226Y-115456831D01*
X98763246Y-115528426D01*
X98732024Y-115594410D01*
X98696754Y-115528426D01*
X98452774Y-115456831D01*
X97639605Y-116270000D01*
X97280395Y-116270000D01*
X96467226Y-115456831D01*
X96223246Y-115528426D01*
X96192812Y-115592744D01*
X96191769Y-115590225D01*
X96034715Y-115355177D01*
X95834823Y-115155285D01*
X95602422Y-115000000D01*
X95834823Y-114844715D01*
X95956764Y-114722774D01*
X96646831Y-114722774D01*
X96718426Y-114966754D01*
X96784410Y-114997976D01*
X96718426Y-115033246D01*
X96646831Y-115277226D01*
X97460000Y-116090395D01*
X98273169Y-115277226D01*
X98201574Y-115033246D01*
X98135590Y-115002024D01*
X98201574Y-114966754D01*
X98273169Y-114722774D01*
X99186831Y-114722774D01*
X99258426Y-114966754D01*
X99324410Y-114997976D01*
X99258426Y-115033246D01*
X99186831Y-115277226D01*
X100000000Y-116090395D01*
X100813169Y-115277226D01*
X100741574Y-115033246D01*
X100675590Y-115002024D01*
X100741574Y-114966754D01*
X100813169Y-114722774D01*
X101726831Y-114722774D01*
X101798426Y-114966754D01*
X101864410Y-114997976D01*
X101798426Y-115033246D01*
X101726831Y-115277226D01*
X102540000Y-116090395D01*
X103353169Y-115277226D01*
X103281574Y-115033246D01*
X103215590Y-115002024D01*
X103281574Y-114966754D01*
X103353169Y-114722774D01*
X102540000Y-113909605D01*
X101726831Y-114722774D01*
X100813169Y-114722774D01*
X100000000Y-113909605D01*
X99186831Y-114722774D01*
X98273169Y-114722774D01*
X97460000Y-113909605D01*
X96646831Y-114722774D01*
X95956764Y-114722774D01*
X96034715Y-114644823D01*
X96190905Y-114411068D01*
X96223246Y-114471574D01*
X96467226Y-114543169D01*
X97280395Y-113730000D01*
X97639605Y-113730000D01*
X98452774Y-114543169D01*
X98696754Y-114471574D01*
X98727976Y-114405590D01*
X98763246Y-114471574D01*
X99007226Y-114543169D01*
X99820395Y-113730000D01*
X100179605Y-113730000D01*
X100992774Y-114543169D01*
X101236754Y-114471574D01*
X101267976Y-114405590D01*
X101303246Y-114471574D01*
X101547226Y-114543169D01*
X102360395Y-113730000D01*
X101547226Y-112916831D01*
X101303246Y-112988426D01*
X101272024Y-113054410D01*
X101236754Y-112988426D01*
X100992774Y-112916831D01*
X100179605Y-113730000D01*
X99820395Y-113730000D01*
X99007226Y-112916831D01*
X98763246Y-112988426D01*
X98732024Y-113054410D01*
X98696754Y-112988426D01*
X98452774Y-112916831D01*
X97639605Y-113730000D01*
X97280395Y-113730000D01*
X96467226Y-112916831D01*
X96223246Y-112988426D01*
X96192812Y-113052744D01*
X96191769Y-113050225D01*
X96034715Y-112815177D01*
X95956764Y-112737226D01*
X96646831Y-112737226D01*
X97460000Y-113550395D01*
X98273169Y-112737226D01*
X99186831Y-112737226D01*
X100000000Y-113550395D01*
X100813169Y-112737226D01*
X101726831Y-112737226D01*
X102540000Y-113550395D01*
X103353169Y-112737226D01*
X103281574Y-112493246D01*
X103026046Y-112372336D01*
X102751839Y-112303600D01*
X102469492Y-112289680D01*
X102189853Y-112331111D01*
X101923672Y-112426300D01*
X101798426Y-112493246D01*
X101726831Y-112737226D01*
X100813169Y-112737226D01*
X100741574Y-112493246D01*
X100486046Y-112372336D01*
X100211839Y-112303600D01*
X99929492Y-112289680D01*
X99649853Y-112331111D01*
X99383672Y-112426300D01*
X99258426Y-112493246D01*
X99186831Y-112737226D01*
X98273169Y-112737226D01*
X98201574Y-112493246D01*
X97946046Y-112372336D01*
X97671839Y-112303600D01*
X97389492Y-112289680D01*
X97109853Y-112331111D01*
X96843672Y-112426300D01*
X96718426Y-112493246D01*
X96646831Y-112737226D01*
X95956764Y-112737226D01*
X95834823Y-112615285D01*
X95599775Y-112458231D01*
X95338603Y-112350050D01*
X95061345Y-112294900D01*
X94778655Y-112294900D01*
X94501397Y-112350050D01*
X94240225Y-112458231D01*
X94005177Y-112615285D01*
X93805285Y-112815177D01*
X93648231Y-113050225D01*
X93540050Y-113311397D01*
X93484900Y-113588655D01*
X85660000Y-113588655D01*
X85660000Y-108170000D01*
X98361928Y-108170000D01*
X98361928Y-109170000D01*
X98374188Y-109294482D01*
X98410498Y-109414180D01*
X98469463Y-109524494D01*
X98548815Y-109621185D01*
X98645506Y-109700537D01*
X98755820Y-109759502D01*
X98875518Y-109795812D01*
X99000000Y-109808072D01*
X101000000Y-109808072D01*
X101124482Y-109795812D01*
X101244180Y-109759502D01*
X101354494Y-109700537D01*
X101451185Y-109621185D01*
X101530537Y-109524494D01*
X101589502Y-109414180D01*
X101625812Y-109294482D01*
X101638072Y-109170000D01*
X101638072Y-108170000D01*
X101625812Y-108045518D01*
X101589502Y-107925820D01*
X101530537Y-107815506D01*
X101451185Y-107718815D01*
X101354494Y-107639463D01*
X101244180Y-107580498D01*
X101124482Y-107544188D01*
X101000000Y-107531928D01*
X99000000Y-107531928D01*
X98875518Y-107544188D01*
X98755820Y-107580498D01*
X98645506Y-107639463D01*
X98548815Y-107718815D01*
X98469463Y-107815506D01*
X98410498Y-107925820D01*
X98374188Y-108045518D01*
X98361928Y-108170000D01*
X85660000Y-108170000D01*
X85660000Y-103515098D01*
X97615000Y-103515098D01*
X97615000Y-103984902D01*
X97706654Y-104445679D01*
X97886440Y-104879721D01*
X98147450Y-105270349D01*
X98479651Y-105602550D01*
X98870279Y-105863560D01*
X99304321Y-106043346D01*
X99765098Y-106135000D01*
X100234902Y-106135000D01*
X100695679Y-106043346D01*
X101129721Y-105863560D01*
X101520349Y-105602550D01*
X101852550Y-105270349D01*
X102113560Y-104879721D01*
X102293346Y-104445679D01*
X102385000Y-103984902D01*
X102385000Y-103515098D01*
X102293346Y-103054321D01*
X102113560Y-102620279D01*
X101852550Y-102229651D01*
X101520349Y-101897450D01*
X101129721Y-101636440D01*
X100819813Y-101508072D01*
X101000000Y-101508072D01*
X101124482Y-101495812D01*
X101244180Y-101459502D01*
X101354494Y-101400537D01*
X101451185Y-101321185D01*
X101530537Y-101224494D01*
X101589502Y-101114180D01*
X101625812Y-100994482D01*
X101638072Y-100870000D01*
X101638072Y-99870000D01*
X101625812Y-99745518D01*
X101589502Y-99625820D01*
X101530537Y-99515506D01*
X101451185Y-99418815D01*
X101354494Y-99339463D01*
X101244180Y-99280498D01*
X101124482Y-99244188D01*
X101000000Y-99231928D01*
X99000000Y-99231928D01*
X98875518Y-99244188D01*
X98755820Y-99280498D01*
X98645506Y-99339463D01*
X98548815Y-99418815D01*
X98469463Y-99515506D01*
X98410498Y-99625820D01*
X98374188Y-99745518D01*
X98361928Y-99870000D01*
X98361928Y-100870000D01*
X98374188Y-100994482D01*
X98410498Y-101114180D01*
X98469463Y-101224494D01*
X98548815Y-101321185D01*
X98645506Y-101400537D01*
X98755820Y-101459502D01*
X98875518Y-101495812D01*
X99000000Y-101508072D01*
X99180187Y-101508072D01*
X98870279Y-101636440D01*
X98479651Y-101897450D01*
X98147450Y-102229651D01*
X97886440Y-102620279D01*
X97706654Y-103054321D01*
X97615000Y-103515098D01*
X85660000Y-103515098D01*
X85660000Y-97770000D01*
X98361928Y-97770000D01*
X98374188Y-97894482D01*
X98410498Y-98014180D01*
X98469463Y-98124494D01*
X98548815Y-98221185D01*
X98645506Y-98300537D01*
X98755820Y-98359502D01*
X98875518Y-98395812D01*
X99000000Y-98408072D01*
X99714250Y-98405000D01*
X99873000Y-98246250D01*
X99873000Y-97397000D01*
X100127000Y-97397000D01*
X100127000Y-98246250D01*
X100285750Y-98405000D01*
X101000000Y-98408072D01*
X101124482Y-98395812D01*
X101244180Y-98359502D01*
X101354494Y-98300537D01*
X101451185Y-98221185D01*
X101530537Y-98124494D01*
X101589502Y-98014180D01*
X101625812Y-97894482D01*
X101638072Y-97770000D01*
X101635000Y-97555750D01*
X101476250Y-97397000D01*
X100127000Y-97397000D01*
X99873000Y-97397000D01*
X98523750Y-97397000D01*
X98365000Y-97555750D01*
X98361928Y-97770000D01*
X85660000Y-97770000D01*
X85660000Y-96770000D01*
X98361928Y-96770000D01*
X98365000Y-96984250D01*
X98523750Y-97143000D01*
X99873000Y-97143000D01*
X99873000Y-96293750D01*
X100127000Y-96293750D01*
X100127000Y-97143000D01*
X101476250Y-97143000D01*
X101635000Y-96984250D01*
X101638072Y-96770000D01*
X101625812Y-96645518D01*
X101589502Y-96525820D01*
X101530537Y-96415506D01*
X101451185Y-96318815D01*
X101354494Y-96239463D01*
X101244180Y-96180498D01*
X101124482Y-96144188D01*
X101000000Y-96131928D01*
X100285750Y-96135000D01*
X100127000Y-96293750D01*
X99873000Y-96293750D01*
X99714250Y-96135000D01*
X99000000Y-96131928D01*
X98875518Y-96144188D01*
X98755820Y-96180498D01*
X98645506Y-96239463D01*
X98548815Y-96318815D01*
X98469463Y-96415506D01*
X98410498Y-96525820D01*
X98374188Y-96645518D01*
X98361928Y-96770000D01*
X85660000Y-96770000D01*
X85660000Y-87273061D01*
X88590000Y-87273061D01*
X88590000Y-87476939D01*
X88629774Y-87676898D01*
X88707795Y-87865256D01*
X88821063Y-88034774D01*
X88865001Y-88078712D01*
X88865000Y-90171289D01*
X88821063Y-90215226D01*
X88707795Y-90384744D01*
X88629774Y-90573102D01*
X88590000Y-90773061D01*
X88590000Y-90976939D01*
X88629774Y-91176898D01*
X88707795Y-91365256D01*
X88821063Y-91534774D01*
X88965226Y-91678937D01*
X89134744Y-91792205D01*
X89323102Y-91870226D01*
X89523061Y-91910000D01*
X89726939Y-91910000D01*
X89926898Y-91870226D01*
X90115256Y-91792205D01*
X90284774Y-91678937D01*
X90428937Y-91534774D01*
X90542205Y-91365256D01*
X90620226Y-91176898D01*
X90660000Y-90976939D01*
X90660000Y-90855802D01*
X90696063Y-90909774D01*
X90840226Y-91053937D01*
X91009744Y-91167205D01*
X91198102Y-91245226D01*
X91398061Y-91285000D01*
X91601939Y-91285000D01*
X91801898Y-91245226D01*
X91990256Y-91167205D01*
X92159774Y-91053937D01*
X92303937Y-90909774D01*
X92417205Y-90740256D01*
X92495226Y-90551898D01*
X92535000Y-90351939D01*
X92535000Y-90262511D01*
X92648061Y-90285000D01*
X92851939Y-90285000D01*
X93051898Y-90245226D01*
X93240256Y-90167205D01*
X93409774Y-90053937D01*
X93553937Y-89909774D01*
X93667205Y-89740256D01*
X93745226Y-89551898D01*
X93785000Y-89351939D01*
X93785000Y-89148061D01*
X93745226Y-88948102D01*
X93667205Y-88759744D01*
X93553937Y-88590226D01*
X93510000Y-88546289D01*
X93510000Y-83314801D01*
X94889802Y-81935000D01*
X95136411Y-81935000D01*
X95403989Y-81881775D01*
X95656043Y-81777371D01*
X95882886Y-81625799D01*
X96000000Y-81508685D01*
X96117114Y-81625799D01*
X96343957Y-81777371D01*
X96596011Y-81881775D01*
X96863589Y-81935000D01*
X97136411Y-81935000D01*
X97403989Y-81881775D01*
X97656043Y-81777371D01*
X97882886Y-81625799D01*
X98000000Y-81508685D01*
X98117114Y-81625799D01*
X98343957Y-81777371D01*
X98550210Y-81862803D01*
X94592498Y-85820516D01*
X94563500Y-85844314D01*
X94539702Y-85873312D01*
X94539701Y-85873313D01*
X94468526Y-85960039D01*
X94444202Y-86005546D01*
X94397954Y-86092068D01*
X94354513Y-86235276D01*
X94299563Y-86290226D01*
X94186295Y-86459744D01*
X94108274Y-86648102D01*
X94068500Y-86848061D01*
X94068500Y-87051939D01*
X94108274Y-87251898D01*
X94186295Y-87440256D01*
X94299563Y-87609774D01*
X94443726Y-87753937D01*
X94613244Y-87867205D01*
X94801602Y-87945226D01*
X95001561Y-87985000D01*
X95063698Y-87985000D01*
X96339705Y-89261008D01*
X96363499Y-89290001D01*
X96392492Y-89313795D01*
X96392496Y-89313799D01*
X96463185Y-89371811D01*
X96479224Y-89384974D01*
X96611253Y-89455546D01*
X96754514Y-89499003D01*
X96866167Y-89510000D01*
X96866176Y-89510000D01*
X96903499Y-89513676D01*
X96940822Y-89510000D01*
X97546289Y-89510000D01*
X97590226Y-89553937D01*
X97759744Y-89667205D01*
X97948102Y-89745226D01*
X98148061Y-89785000D01*
X98351939Y-89785000D01*
X98551898Y-89745226D01*
X98740256Y-89667205D01*
X98909774Y-89553937D01*
X98935690Y-89528021D01*
X99008012Y-89616145D01*
X99905006Y-90513140D01*
X99940549Y-90556449D01*
X100084120Y-90674275D01*
X100113375Y-90698284D01*
X100310551Y-90803676D01*
X100524499Y-90868577D01*
X100746998Y-90890491D01*
X100802750Y-90885000D01*
X104029869Y-90885000D01*
X105115001Y-91970134D01*
X105115000Y-103029868D01*
X104316860Y-103828009D01*
X104273552Y-103863551D01*
X104131717Y-104036377D01*
X104079738Y-104133623D01*
X104026324Y-104233554D01*
X103961423Y-104447502D01*
X103939509Y-104670000D01*
X103945001Y-104725761D01*
X103945000Y-112845536D01*
X103809095Y-113048932D01*
X103776754Y-112988426D01*
X103532774Y-112916831D01*
X102719605Y-113730000D01*
X103532774Y-114543169D01*
X103776754Y-114471574D01*
X103807188Y-114407256D01*
X103808231Y-114409775D01*
X103965285Y-114644823D01*
X104165177Y-114844715D01*
X104397578Y-115000000D01*
X104165177Y-115155285D01*
X103965285Y-115355177D01*
X103809095Y-115588932D01*
X103776754Y-115528426D01*
X103532774Y-115456831D01*
X102719605Y-116270000D01*
X103532774Y-117083169D01*
X103776754Y-117011574D01*
X103807188Y-116947256D01*
X103808231Y-116949775D01*
X103965285Y-117184823D01*
X104165177Y-117384715D01*
X104400225Y-117541769D01*
X104661397Y-117649950D01*
X104938655Y-117705100D01*
X105221345Y-117705100D01*
X105498603Y-117649950D01*
X105759775Y-117541769D01*
X105994823Y-117384715D01*
X106194715Y-117184823D01*
X106351769Y-116949775D01*
X106459950Y-116688603D01*
X106515100Y-116411345D01*
X106515100Y-116128655D01*
X106459950Y-115851397D01*
X106351769Y-115590225D01*
X106194715Y-115355177D01*
X105994823Y-115155285D01*
X105762422Y-115000000D01*
X105994823Y-114844715D01*
X106194715Y-114644823D01*
X106351769Y-114409775D01*
X106459950Y-114148603D01*
X106515100Y-113871345D01*
X106515100Y-113588655D01*
X106459950Y-113311397D01*
X106351769Y-113050225D01*
X106215000Y-112845536D01*
X106215000Y-105140131D01*
X107013140Y-104341992D01*
X107056449Y-104306449D01*
X107198284Y-104133623D01*
X107303676Y-103936447D01*
X107368577Y-103722499D01*
X107385000Y-103555752D01*
X107385000Y-103555751D01*
X107390491Y-103500000D01*
X107385000Y-103444248D01*
X107385000Y-96398061D01*
X108715000Y-96398061D01*
X108715000Y-96601939D01*
X108754774Y-96801898D01*
X108832795Y-96990256D01*
X108946063Y-97159774D01*
X109090226Y-97303937D01*
X109259744Y-97417205D01*
X109448102Y-97495226D01*
X109648061Y-97535000D01*
X109851939Y-97535000D01*
X110051898Y-97495226D01*
X110240256Y-97417205D01*
X110409774Y-97303937D01*
X110553937Y-97159774D01*
X110667205Y-96990256D01*
X110745226Y-96801898D01*
X110785000Y-96601939D01*
X110785000Y-96398061D01*
X110745226Y-96198102D01*
X110667205Y-96009744D01*
X110553937Y-95840226D01*
X110510000Y-95796289D01*
X110510000Y-92154013D01*
X110659774Y-92053937D01*
X110803937Y-91909774D01*
X110917205Y-91740256D01*
X110995226Y-91551898D01*
X111035000Y-91351939D01*
X111035000Y-91148061D01*
X110995226Y-90948102D01*
X110917205Y-90759744D01*
X110803937Y-90590226D01*
X110659774Y-90446063D01*
X110490256Y-90332795D01*
X110301898Y-90254774D01*
X110101939Y-90215000D01*
X109898061Y-90215000D01*
X109698102Y-90254774D01*
X109509744Y-90332795D01*
X109340226Y-90446063D01*
X109196063Y-90590226D01*
X109082795Y-90759744D01*
X109004774Y-90948102D01*
X108965000Y-91148061D01*
X108965000Y-91351939D01*
X108989015Y-91472674D01*
X108986324Y-91500000D01*
X108990001Y-91537332D01*
X108990000Y-95796289D01*
X108946063Y-95840226D01*
X108832795Y-96009744D01*
X108754774Y-96198102D01*
X108715000Y-96398061D01*
X107385000Y-96398061D01*
X107385000Y-91555752D01*
X107390491Y-91500000D01*
X107368577Y-91277501D01*
X107303676Y-91063553D01*
X107198284Y-90866377D01*
X107091989Y-90736856D01*
X107091987Y-90736854D01*
X107056449Y-90693551D01*
X107013146Y-90658013D01*
X105341995Y-88986864D01*
X105306449Y-88943551D01*
X105133623Y-88801716D01*
X104936447Y-88696324D01*
X104722499Y-88631423D01*
X104555752Y-88615000D01*
X104555751Y-88615000D01*
X104500000Y-88609509D01*
X104444249Y-88615000D01*
X101217130Y-88615000D01*
X100613143Y-88011014D01*
X100483622Y-87904719D01*
X100286446Y-87799326D01*
X100072498Y-87734425D01*
X99850000Y-87712511D01*
X99627502Y-87734425D01*
X99413554Y-87799326D01*
X99216378Y-87904719D01*
X99043552Y-88046554D01*
X99028548Y-88064837D01*
X98909774Y-87946063D01*
X98740256Y-87832795D01*
X98551898Y-87754774D01*
X98351939Y-87715000D01*
X98148061Y-87715000D01*
X97948102Y-87754774D01*
X97759744Y-87832795D01*
X97590226Y-87946063D01*
X97546289Y-87990000D01*
X97218303Y-87990000D01*
X96138500Y-86910198D01*
X96138500Y-86848061D01*
X96098726Y-86648102D01*
X96044771Y-86517845D01*
X96658724Y-85903892D01*
X96696063Y-85959774D01*
X96840226Y-86103937D01*
X97009744Y-86217205D01*
X97198102Y-86295226D01*
X97398061Y-86335000D01*
X97601939Y-86335000D01*
X97801898Y-86295226D01*
X97990256Y-86217205D01*
X98159774Y-86103937D01*
X98303937Y-85959774D01*
X98417205Y-85790256D01*
X98495226Y-85601898D01*
X98535000Y-85401939D01*
X98535000Y-85339801D01*
X99763799Y-84111003D01*
X99763804Y-84110997D01*
X100014801Y-83860000D01*
X112296289Y-83860000D01*
X112340226Y-83903937D01*
X112509744Y-84017205D01*
X112698102Y-84095226D01*
X112898061Y-84135000D01*
X113101939Y-84135000D01*
X113301898Y-84095226D01*
X113490256Y-84017205D01*
X113659774Y-83903937D01*
X113803937Y-83759774D01*
X113917205Y-83590256D01*
X113995226Y-83401898D01*
X114035000Y-83201939D01*
X114035000Y-82998061D01*
X113995226Y-82798102D01*
X113917205Y-82609744D01*
X113803937Y-82440226D01*
X113659774Y-82296063D01*
X113490256Y-82182795D01*
X113301898Y-82104774D01*
X113101939Y-82065000D01*
X112898061Y-82065000D01*
X112698102Y-82104774D01*
X112509744Y-82182795D01*
X112340226Y-82296063D01*
X112296289Y-82340000D01*
X110634802Y-82340000D01*
X111834505Y-81140298D01*
X111890256Y-81117205D01*
X112059774Y-81003937D01*
X112203937Y-80859774D01*
X112317205Y-80690256D01*
X112395226Y-80501898D01*
X112435000Y-80301939D01*
X112435000Y-80098061D01*
X112395226Y-79898102D01*
X112317205Y-79709744D01*
X112203937Y-79540226D01*
X112059774Y-79396063D01*
X111890256Y-79282795D01*
X111701898Y-79204774D01*
X111501939Y-79165000D01*
X111298061Y-79165000D01*
X111098102Y-79204774D01*
X110909744Y-79282795D01*
X110740226Y-79396063D01*
X110596063Y-79540226D01*
X110482795Y-79709744D01*
X110404774Y-79898102D01*
X110365000Y-80098061D01*
X110365000Y-80301939D01*
X110391257Y-80433941D01*
X109285199Y-81540000D01*
X105968685Y-81540000D01*
X106075799Y-81432886D01*
X106227371Y-81206043D01*
X106331775Y-80953989D01*
X106385000Y-80686411D01*
X106385000Y-80413589D01*
X106331775Y-80146011D01*
X106227371Y-79893957D01*
X106075799Y-79667114D01*
X105882886Y-79474201D01*
X105656043Y-79322629D01*
X105403989Y-79218225D01*
X105136411Y-79165000D01*
X104863589Y-79165000D01*
X104596011Y-79218225D01*
X104343957Y-79322629D01*
X104117114Y-79474201D01*
X104000000Y-79591315D01*
X103882886Y-79474201D01*
X103760000Y-79392091D01*
X103760000Y-75537322D01*
X103763676Y-75499999D01*
X103760000Y-75462676D01*
X103760000Y-75462667D01*
X103749003Y-75351014D01*
X103705546Y-75207753D01*
X103700859Y-75198985D01*
X103634974Y-75075723D01*
X103600031Y-75033146D01*
X103585000Y-75014830D01*
X103585000Y-74948061D01*
X103545226Y-74748102D01*
X103467205Y-74559744D01*
X103353937Y-74390226D01*
X103209774Y-74246063D01*
X103040256Y-74132795D01*
X102851898Y-74054774D01*
X102651939Y-74015000D01*
X102448061Y-74015000D01*
X102248102Y-74054774D01*
X102059744Y-74132795D01*
X101890226Y-74246063D01*
X101746063Y-74390226D01*
X101632795Y-74559744D01*
X101554774Y-74748102D01*
X101515000Y-74948061D01*
X101515000Y-75151939D01*
X101554774Y-75351898D01*
X101632795Y-75540256D01*
X101746063Y-75709774D01*
X101890226Y-75853937D01*
X102059744Y-75967205D01*
X102240001Y-76041870D01*
X102240000Y-79392091D01*
X102117114Y-79474201D01*
X102000000Y-79591315D01*
X101882886Y-79474201D01*
X101656043Y-79322629D01*
X101403989Y-79218225D01*
X101136411Y-79165000D01*
X100863589Y-79165000D01*
X100596011Y-79218225D01*
X100343957Y-79322629D01*
X100117114Y-79474201D01*
X100000000Y-79591315D01*
X99882886Y-79474201D01*
X99656043Y-79322629D01*
X99403989Y-79218225D01*
X99136411Y-79165000D01*
X98863589Y-79165000D01*
X98596011Y-79218225D01*
X98343957Y-79322629D01*
X98117114Y-79474201D01*
X98000000Y-79591315D01*
X97882886Y-79474201D01*
X97656043Y-79322629D01*
X97403989Y-79218225D01*
X97136411Y-79165000D01*
X96863589Y-79165000D01*
X96596011Y-79218225D01*
X96343957Y-79322629D01*
X96117114Y-79474201D01*
X96000000Y-79591315D01*
X95882886Y-79474201D01*
X95656043Y-79322629D01*
X95403989Y-79218225D01*
X95136411Y-79165000D01*
X94863589Y-79165000D01*
X94596011Y-79218225D01*
X94343957Y-79322629D01*
X94117114Y-79474201D01*
X93924201Y-79667114D01*
X93772629Y-79893957D01*
X93668225Y-80146011D01*
X93615000Y-80413589D01*
X93615000Y-80686411D01*
X93668225Y-80953989D01*
X93683744Y-80991455D01*
X92238998Y-82436201D01*
X92210000Y-82459999D01*
X92186202Y-82488997D01*
X92186201Y-82488998D01*
X92115026Y-82575724D01*
X92044454Y-82707754D01*
X92017048Y-82798102D01*
X92000998Y-82851014D01*
X91992729Y-82934974D01*
X91986324Y-83000000D01*
X91990001Y-83037332D01*
X91990000Y-86332689D01*
X91801898Y-86254774D01*
X91601939Y-86215000D01*
X91398061Y-86215000D01*
X91198102Y-86254774D01*
X91009744Y-86332795D01*
X90840226Y-86446063D01*
X90696063Y-86590226D01*
X90582795Y-86759744D01*
X90535299Y-86874409D01*
X90428937Y-86715226D01*
X90284774Y-86571063D01*
X90115256Y-86457795D01*
X89926898Y-86379774D01*
X89726939Y-86340000D01*
X89523061Y-86340000D01*
X89323102Y-86379774D01*
X89134744Y-86457795D01*
X88965226Y-86571063D01*
X88821063Y-86715226D01*
X88707795Y-86884744D01*
X88629774Y-87073102D01*
X88590000Y-87273061D01*
X85660000Y-87273061D01*
X85660000Y-68700000D01*
X90711928Y-68700000D01*
X90711928Y-72400000D01*
X90724188Y-72524482D01*
X90760498Y-72644180D01*
X90819463Y-72754494D01*
X90898815Y-72851185D01*
X90995506Y-72930537D01*
X91105820Y-72989502D01*
X91225518Y-73025812D01*
X91350000Y-73038072D01*
X91833219Y-73038072D01*
X91813564Y-73057727D01*
X91700296Y-73227245D01*
X91622275Y-73415603D01*
X91582501Y-73615562D01*
X91582501Y-73819440D01*
X91622275Y-74019399D01*
X91700296Y-74207757D01*
X91813564Y-74377275D01*
X91957727Y-74521438D01*
X92127245Y-74634706D01*
X92315603Y-74712727D01*
X92515562Y-74752501D01*
X92719440Y-74752501D01*
X92919399Y-74712727D01*
X93046692Y-74660000D01*
X94085199Y-74660000D01*
X94711201Y-75286003D01*
X94734999Y-75315001D01*
X94850724Y-75409974D01*
X94982753Y-75480546D01*
X95126014Y-75524003D01*
X95237667Y-75535000D01*
X95237677Y-75535000D01*
X95275000Y-75538676D01*
X95312323Y-75535000D01*
X97321289Y-75535000D01*
X97365226Y-75578937D01*
X97534744Y-75692205D01*
X97723102Y-75770226D01*
X97923061Y-75810000D01*
X98126939Y-75810000D01*
X98326898Y-75770226D01*
X98515256Y-75692205D01*
X98684774Y-75578937D01*
X98828937Y-75434774D01*
X98942205Y-75265256D01*
X99020226Y-75076898D01*
X99060000Y-74876939D01*
X99060000Y-74673061D01*
X99020226Y-74473102D01*
X98942205Y-74284744D01*
X98828937Y-74115226D01*
X98684774Y-73971063D01*
X98515256Y-73857795D01*
X98326898Y-73779774D01*
X98126939Y-73740000D01*
X97923061Y-73740000D01*
X97723102Y-73779774D01*
X97534744Y-73857795D01*
X97365226Y-73971063D01*
X97321289Y-74015000D01*
X95589802Y-74015000D01*
X94963803Y-73389002D01*
X94940001Y-73359999D01*
X94824276Y-73265026D01*
X94692247Y-73194454D01*
X94548986Y-73150997D01*
X94437333Y-73140000D01*
X94437322Y-73140000D01*
X94400000Y-73136324D01*
X94362678Y-73140000D01*
X93476411Y-73140000D01*
X93421438Y-73057727D01*
X93397140Y-73033429D01*
X93474482Y-73025812D01*
X93594180Y-72989502D01*
X93704494Y-72930537D01*
X93801185Y-72851185D01*
X93880537Y-72754494D01*
X93939502Y-72644180D01*
X93975812Y-72524482D01*
X93988072Y-72400000D01*
X93988072Y-68700000D01*
X93975812Y-68575518D01*
X93939502Y-68455820D01*
X93880537Y-68345506D01*
X93801185Y-68248815D01*
X93704494Y-68169463D01*
X93594180Y-68110498D01*
X93474482Y-68074188D01*
X93350000Y-68061928D01*
X91350000Y-68061928D01*
X91225518Y-68074188D01*
X91105820Y-68110498D01*
X90995506Y-68169463D01*
X90898815Y-68248815D01*
X90819463Y-68345506D01*
X90760498Y-68455820D01*
X90724188Y-68575518D01*
X90711928Y-68700000D01*
X85660000Y-68700000D01*
X85660000Y-65998061D01*
X93165000Y-65998061D01*
X93165000Y-66201939D01*
X93204774Y-66401898D01*
X93282795Y-66590256D01*
X93396063Y-66759774D01*
X93540226Y-66903937D01*
X93709744Y-67017205D01*
X93898102Y-67095226D01*
X94098061Y-67135000D01*
X94160199Y-67135000D01*
X98236205Y-71211008D01*
X98259999Y-71240001D01*
X98288992Y-71263795D01*
X98288996Y-71263799D01*
X98359685Y-71321811D01*
X98375724Y-71334974D01*
X98507753Y-71405546D01*
X98651014Y-71449003D01*
X98762667Y-71460000D01*
X98762676Y-71460000D01*
X98799999Y-71463676D01*
X98837322Y-71460000D01*
X101396289Y-71460000D01*
X101440226Y-71503937D01*
X101609744Y-71617205D01*
X101798102Y-71695226D01*
X101998061Y-71735000D01*
X102201939Y-71735000D01*
X102401898Y-71695226D01*
X102590256Y-71617205D01*
X102759774Y-71503937D01*
X102903937Y-71359774D01*
X103017205Y-71190256D01*
X103095226Y-71001898D01*
X103135000Y-70801939D01*
X103135000Y-70598061D01*
X103095226Y-70398102D01*
X103017205Y-70209744D01*
X102903937Y-70040226D01*
X102759774Y-69896063D01*
X102590256Y-69782795D01*
X102401898Y-69704774D01*
X102201939Y-69665000D01*
X101998061Y-69665000D01*
X101798102Y-69704774D01*
X101609744Y-69782795D01*
X101440226Y-69896063D01*
X101396289Y-69940000D01*
X99114803Y-69940000D01*
X97874803Y-68700000D01*
X106011928Y-68700000D01*
X106011928Y-72400000D01*
X106024188Y-72524482D01*
X106060498Y-72644180D01*
X106119463Y-72754494D01*
X106198815Y-72851185D01*
X106295506Y-72930537D01*
X106405820Y-72989502D01*
X106525518Y-73025812D01*
X106650000Y-73038072D01*
X108650000Y-73038072D01*
X108774482Y-73025812D01*
X108894180Y-72989502D01*
X109004494Y-72930537D01*
X109101185Y-72851185D01*
X109180537Y-72754494D01*
X109239502Y-72644180D01*
X109275812Y-72524482D01*
X109288072Y-72400000D01*
X109288072Y-68700000D01*
X109275812Y-68575518D01*
X109239502Y-68455820D01*
X109180537Y-68345506D01*
X109101185Y-68248815D01*
X109004494Y-68169463D01*
X108894180Y-68110498D01*
X108774482Y-68074188D01*
X108650000Y-68061928D01*
X106650000Y-68061928D01*
X106525518Y-68074188D01*
X106405820Y-68110498D01*
X106295506Y-68169463D01*
X106198815Y-68248815D01*
X106119463Y-68345506D01*
X106060498Y-68455820D01*
X106024188Y-68575518D01*
X106011928Y-68700000D01*
X97874803Y-68700000D01*
X95235000Y-66060199D01*
X95235000Y-65998061D01*
X95195226Y-65798102D01*
X95117205Y-65609744D01*
X95003937Y-65440226D01*
X94859774Y-65296063D01*
X94690256Y-65182795D01*
X94501898Y-65104774D01*
X94301939Y-65065000D01*
X94098061Y-65065000D01*
X93898102Y-65104774D01*
X93709744Y-65182795D01*
X93540226Y-65296063D01*
X93396063Y-65440226D01*
X93282795Y-65609744D01*
X93204774Y-65798102D01*
X93165000Y-65998061D01*
X85660000Y-65998061D01*
X85660000Y-60779872D01*
X86265000Y-60779872D01*
X86265000Y-61220128D01*
X86350890Y-61651925D01*
X86519369Y-62058669D01*
X86763962Y-62424729D01*
X87075271Y-62736038D01*
X87441331Y-62980631D01*
X87848075Y-63149110D01*
X88279872Y-63235000D01*
X88720128Y-63235000D01*
X89151925Y-63149110D01*
X89558669Y-62980631D01*
X89924729Y-62736038D01*
X90236038Y-62424729D01*
X90480631Y-62058669D01*
X90563475Y-61858665D01*
X96065000Y-61858665D01*
X96065000Y-62141335D01*
X96120147Y-62418574D01*
X96228320Y-62679727D01*
X96385363Y-62914759D01*
X96585241Y-63114637D01*
X96820273Y-63271680D01*
X97081426Y-63379853D01*
X97358665Y-63435000D01*
X97641335Y-63435000D01*
X97918574Y-63379853D01*
X98179727Y-63271680D01*
X98414759Y-63114637D01*
X98614637Y-62914759D01*
X98750000Y-62712173D01*
X98885363Y-62914759D01*
X99085241Y-63114637D01*
X99320273Y-63271680D01*
X99581426Y-63379853D01*
X99858665Y-63435000D01*
X100141335Y-63435000D01*
X100418574Y-63379853D01*
X100679727Y-63271680D01*
X100914759Y-63114637D01*
X101114637Y-62914759D01*
X101250000Y-62712173D01*
X101385363Y-62914759D01*
X101585241Y-63114637D01*
X101820273Y-63271680D01*
X102081426Y-63379853D01*
X102358665Y-63435000D01*
X102641335Y-63435000D01*
X102918574Y-63379853D01*
X103179727Y-63271680D01*
X103414759Y-63114637D01*
X103614637Y-62914759D01*
X103771680Y-62679727D01*
X103879853Y-62418574D01*
X103935000Y-62141335D01*
X103935000Y-61858665D01*
X103879853Y-61581426D01*
X103771680Y-61320273D01*
X103614637Y-61085241D01*
X103414759Y-60885363D01*
X103256881Y-60779872D01*
X109265000Y-60779872D01*
X109265000Y-61220128D01*
X109350890Y-61651925D01*
X109519369Y-62058669D01*
X109763962Y-62424729D01*
X110075271Y-62736038D01*
X110441331Y-62980631D01*
X110848075Y-63149110D01*
X111279872Y-63235000D01*
X111720128Y-63235000D01*
X112151925Y-63149110D01*
X112558669Y-62980631D01*
X112924729Y-62736038D01*
X113236038Y-62424729D01*
X113480631Y-62058669D01*
X113649110Y-61651925D01*
X113735000Y-61220128D01*
X113735000Y-60779872D01*
X113649110Y-60348075D01*
X113480631Y-59941331D01*
X113236038Y-59575271D01*
X112924729Y-59263962D01*
X112558669Y-59019369D01*
X112151925Y-58850890D01*
X111720128Y-58765000D01*
X111279872Y-58765000D01*
X110848075Y-58850890D01*
X110441331Y-59019369D01*
X110075271Y-59263962D01*
X109763962Y-59575271D01*
X109519369Y-59941331D01*
X109350890Y-60348075D01*
X109265000Y-60779872D01*
X103256881Y-60779872D01*
X103179727Y-60728320D01*
X102918574Y-60620147D01*
X102641335Y-60565000D01*
X102358665Y-60565000D01*
X102081426Y-60620147D01*
X101820273Y-60728320D01*
X101585241Y-60885363D01*
X101385363Y-61085241D01*
X101250000Y-61287827D01*
X101114637Y-61085241D01*
X100914759Y-60885363D01*
X100679727Y-60728320D01*
X100418574Y-60620147D01*
X100141335Y-60565000D01*
X99858665Y-60565000D01*
X99581426Y-60620147D01*
X99320273Y-60728320D01*
X99085241Y-60885363D01*
X98885363Y-61085241D01*
X98750000Y-61287827D01*
X98614637Y-61085241D01*
X98414759Y-60885363D01*
X98179727Y-60728320D01*
X97918574Y-60620147D01*
X97641335Y-60565000D01*
X97358665Y-60565000D01*
X97081426Y-60620147D01*
X96820273Y-60728320D01*
X96585241Y-60885363D01*
X96385363Y-61085241D01*
X96228320Y-61320273D01*
X96120147Y-61581426D01*
X96065000Y-61858665D01*
X90563475Y-61858665D01*
X90649110Y-61651925D01*
X90735000Y-61220128D01*
X90735000Y-60779872D01*
X90649110Y-60348075D01*
X90480631Y-59941331D01*
X90236038Y-59575271D01*
X89924729Y-59263962D01*
X89558669Y-59019369D01*
X89151925Y-58850890D01*
X88720128Y-58765000D01*
X88279872Y-58765000D01*
X87848075Y-58850890D01*
X87441331Y-59019369D01*
X87075271Y-59263962D01*
X86763962Y-59575271D01*
X86519369Y-59941331D01*
X86350890Y-60348075D01*
X86265000Y-60779872D01*
X85660000Y-60779872D01*
X85660000Y-53250000D01*
X92311928Y-53250000D01*
X92311928Y-56750000D01*
X92324188Y-56874482D01*
X92360498Y-56994180D01*
X92419463Y-57104494D01*
X92498815Y-57201185D01*
X92595506Y-57280537D01*
X92705820Y-57339502D01*
X92825518Y-57375812D01*
X92950000Y-57388072D01*
X96450000Y-57388072D01*
X96574482Y-57375812D01*
X96694180Y-57339502D01*
X96804494Y-57280537D01*
X96901185Y-57201185D01*
X96980537Y-57104494D01*
X97039502Y-56994180D01*
X97075812Y-56874482D01*
X97088072Y-56750000D01*
X97088072Y-53250000D01*
X102911928Y-53250000D01*
X102911928Y-56750000D01*
X102924188Y-56874482D01*
X102960498Y-56994180D01*
X103019463Y-57104494D01*
X103098815Y-57201185D01*
X103195506Y-57280537D01*
X103305820Y-57339502D01*
X103425518Y-57375812D01*
X103550000Y-57388072D01*
X107050000Y-57388072D01*
X107174482Y-57375812D01*
X107294180Y-57339502D01*
X107404494Y-57280537D01*
X107501185Y-57201185D01*
X107580537Y-57104494D01*
X107639502Y-56994180D01*
X107675812Y-56874482D01*
X107688072Y-56750000D01*
X107688072Y-53250000D01*
X107675812Y-53125518D01*
X107639502Y-53005820D01*
X107580537Y-52895506D01*
X107501185Y-52798815D01*
X107404494Y-52719463D01*
X107294180Y-52660498D01*
X107174482Y-52624188D01*
X107050000Y-52611928D01*
X103550000Y-52611928D01*
X103425518Y-52624188D01*
X103305820Y-52660498D01*
X103195506Y-52719463D01*
X103098815Y-52798815D01*
X103019463Y-52895506D01*
X102960498Y-53005820D01*
X102924188Y-53125518D01*
X102911928Y-53250000D01*
X97088072Y-53250000D01*
X97075812Y-53125518D01*
X97039502Y-53005820D01*
X96980537Y-52895506D01*
X96901185Y-52798815D01*
X96804494Y-52719463D01*
X96694180Y-52660498D01*
X96574482Y-52624188D01*
X96450000Y-52611928D01*
X92950000Y-52611928D01*
X92825518Y-52624188D01*
X92705820Y-52660498D01*
X92595506Y-52719463D01*
X92498815Y-52798815D01*
X92419463Y-52895506D01*
X92360498Y-53005820D01*
X92324188Y-53125518D01*
X92311928Y-53250000D01*
X85660000Y-53250000D01*
X85660000Y-46558665D01*
X96065000Y-46558665D01*
X96065000Y-46841335D01*
X96120147Y-47118574D01*
X96228320Y-47379727D01*
X96385363Y-47614759D01*
X96585241Y-47814637D01*
X96820273Y-47971680D01*
X97081426Y-48079853D01*
X97358665Y-48135000D01*
X97641335Y-48135000D01*
X97918574Y-48079853D01*
X98179727Y-47971680D01*
X98414759Y-47814637D01*
X98614637Y-47614759D01*
X98750000Y-47412173D01*
X98885363Y-47614759D01*
X99085241Y-47814637D01*
X99320273Y-47971680D01*
X99581426Y-48079853D01*
X99858665Y-48135000D01*
X100141335Y-48135000D01*
X100418574Y-48079853D01*
X100679727Y-47971680D01*
X100914759Y-47814637D01*
X101114637Y-47614759D01*
X101250000Y-47412173D01*
X101385363Y-47614759D01*
X101585241Y-47814637D01*
X101820273Y-47971680D01*
X102081426Y-48079853D01*
X102358665Y-48135000D01*
X102641335Y-48135000D01*
X102918574Y-48079853D01*
X103179727Y-47971680D01*
X103414759Y-47814637D01*
X103614637Y-47614759D01*
X103771680Y-47379727D01*
X103879853Y-47118574D01*
X103935000Y-46841335D01*
X103935000Y-46558665D01*
X103879853Y-46281426D01*
X103771680Y-46020273D01*
X103614637Y-45785241D01*
X103414759Y-45585363D01*
X103179727Y-45428320D01*
X102918574Y-45320147D01*
X102641335Y-45265000D01*
X102358665Y-45265000D01*
X102081426Y-45320147D01*
X101820273Y-45428320D01*
X101585241Y-45585363D01*
X101385363Y-45785241D01*
X101250000Y-45987827D01*
X101114637Y-45785241D01*
X100914759Y-45585363D01*
X100679727Y-45428320D01*
X100418574Y-45320147D01*
X100141335Y-45265000D01*
X99858665Y-45265000D01*
X99581426Y-45320147D01*
X99320273Y-45428320D01*
X99085241Y-45585363D01*
X98885363Y-45785241D01*
X98750000Y-45987827D01*
X98614637Y-45785241D01*
X98414759Y-45585363D01*
X98179727Y-45428320D01*
X97918574Y-45320147D01*
X97641335Y-45265000D01*
X97358665Y-45265000D01*
X97081426Y-45320147D01*
X96820273Y-45428320D01*
X96585241Y-45585363D01*
X96385363Y-45785241D01*
X96228320Y-46020273D01*
X96120147Y-46281426D01*
X96065000Y-46558665D01*
X85660000Y-46558665D01*
X85660000Y-37950000D01*
X92311928Y-37950000D01*
X92311928Y-41450000D01*
X92324188Y-41574482D01*
X92360498Y-41694180D01*
X92419463Y-41804494D01*
X92498815Y-41901185D01*
X92595506Y-41980537D01*
X92705820Y-42039502D01*
X92825518Y-42075812D01*
X92950000Y-42088072D01*
X96450000Y-42088072D01*
X96574482Y-42075812D01*
X96694180Y-42039502D01*
X96804494Y-41980537D01*
X96901185Y-41901185D01*
X96980537Y-41804494D01*
X97039502Y-41694180D01*
X97075812Y-41574482D01*
X97088072Y-41450000D01*
X97088072Y-37950000D01*
X102911928Y-37950000D01*
X102911928Y-41450000D01*
X102924188Y-41574482D01*
X102960498Y-41694180D01*
X103019463Y-41804494D01*
X103098815Y-41901185D01*
X103195506Y-41980537D01*
X103305820Y-42039502D01*
X103425518Y-42075812D01*
X103550000Y-42088072D01*
X107050000Y-42088072D01*
X107174482Y-42075812D01*
X107294180Y-42039502D01*
X107404494Y-41980537D01*
X107501185Y-41901185D01*
X107580537Y-41804494D01*
X107639502Y-41694180D01*
X107675812Y-41574482D01*
X107688072Y-41450000D01*
X107688072Y-37950000D01*
X107675812Y-37825518D01*
X107639502Y-37705820D01*
X107580537Y-37595506D01*
X107501185Y-37498815D01*
X107404494Y-37419463D01*
X107294180Y-37360498D01*
X107174482Y-37324188D01*
X107050000Y-37311928D01*
X103550000Y-37311928D01*
X103425518Y-37324188D01*
X103305820Y-37360498D01*
X103195506Y-37419463D01*
X103098815Y-37498815D01*
X103019463Y-37595506D01*
X102960498Y-37705820D01*
X102924188Y-37825518D01*
X102911928Y-37950000D01*
X97088072Y-37950000D01*
X97075812Y-37825518D01*
X97039502Y-37705820D01*
X96980537Y-37595506D01*
X96901185Y-37498815D01*
X96804494Y-37419463D01*
X96694180Y-37360498D01*
X96574482Y-37324188D01*
X96450000Y-37311928D01*
X92950000Y-37311928D01*
X92825518Y-37324188D01*
X92705820Y-37360498D01*
X92595506Y-37419463D01*
X92498815Y-37498815D01*
X92419463Y-37595506D01*
X92360498Y-37705820D01*
X92324188Y-37825518D01*
X92311928Y-37950000D01*
X85660000Y-37950000D01*
X85660000Y-31920000D01*
X98361928Y-31920000D01*
X98361928Y-32920000D01*
X98374188Y-33044482D01*
X98410498Y-33164180D01*
X98469463Y-33274494D01*
X98548815Y-33371185D01*
X98645506Y-33450537D01*
X98755820Y-33509502D01*
X98875518Y-33545812D01*
X99000000Y-33558072D01*
X101000000Y-33558072D01*
X101124482Y-33545812D01*
X101244180Y-33509502D01*
X101354494Y-33450537D01*
X101451185Y-33371185D01*
X101530537Y-33274494D01*
X101589502Y-33164180D01*
X101625812Y-33044482D01*
X101638072Y-32920000D01*
X101638072Y-31920000D01*
X101625812Y-31795518D01*
X101589502Y-31675820D01*
X101530537Y-31565506D01*
X101451185Y-31468815D01*
X101354494Y-31389463D01*
X101244180Y-31330498D01*
X101124482Y-31294188D01*
X101000000Y-31281928D01*
X99000000Y-31281928D01*
X98875518Y-31294188D01*
X98755820Y-31330498D01*
X98645506Y-31389463D01*
X98548815Y-31468815D01*
X98469463Y-31565506D01*
X98410498Y-31675820D01*
X98374188Y-31795518D01*
X98361928Y-31920000D01*
X85660000Y-31920000D01*
X85660000Y-27265098D01*
X97615000Y-27265098D01*
X97615000Y-27734902D01*
X97706654Y-28195679D01*
X97886440Y-28629721D01*
X98147450Y-29020349D01*
X98479651Y-29352550D01*
X98870279Y-29613560D01*
X99304321Y-29793346D01*
X99765098Y-29885000D01*
X100234902Y-29885000D01*
X100695679Y-29793346D01*
X101129721Y-29613560D01*
X101520349Y-29352550D01*
X101852550Y-29020349D01*
X102113560Y-28629721D01*
X102293346Y-28195679D01*
X102385000Y-27734902D01*
X102385000Y-27265098D01*
X102293346Y-26804321D01*
X102113560Y-26370279D01*
X101852550Y-25979651D01*
X101520349Y-25647450D01*
X101129721Y-25386440D01*
X100819813Y-25258072D01*
X101000000Y-25258072D01*
X101124482Y-25245812D01*
X101244180Y-25209502D01*
X101354494Y-25150537D01*
X101451185Y-25071185D01*
X101530537Y-24974494D01*
X101589502Y-24864180D01*
X101625812Y-24744482D01*
X101638072Y-24620000D01*
X101638072Y-23620000D01*
X101625812Y-23495518D01*
X101589502Y-23375820D01*
X101530537Y-23265506D01*
X101451185Y-23168815D01*
X101354494Y-23089463D01*
X101244180Y-23030498D01*
X101124482Y-22994188D01*
X101000000Y-22981928D01*
X99000000Y-22981928D01*
X98875518Y-22994188D01*
X98755820Y-23030498D01*
X98645506Y-23089463D01*
X98548815Y-23168815D01*
X98469463Y-23265506D01*
X98410498Y-23375820D01*
X98374188Y-23495518D01*
X98361928Y-23620000D01*
X98361928Y-24620000D01*
X98374188Y-24744482D01*
X98410498Y-24864180D01*
X98469463Y-24974494D01*
X98548815Y-25071185D01*
X98645506Y-25150537D01*
X98755820Y-25209502D01*
X98875518Y-25245812D01*
X99000000Y-25258072D01*
X99180187Y-25258072D01*
X98870279Y-25386440D01*
X98479651Y-25647450D01*
X98147450Y-25979651D01*
X97886440Y-26370279D01*
X97706654Y-26804321D01*
X97615000Y-27265098D01*
X85660000Y-27265098D01*
X85660000Y-23032279D01*
X85707670Y-22546107D01*
X85839489Y-22109502D01*
X86053600Y-21706815D01*
X86205962Y-21520000D01*
X98361928Y-21520000D01*
X98374188Y-21644482D01*
X98410498Y-21764180D01*
X98469463Y-21874494D01*
X98548815Y-21971185D01*
X98645506Y-22050537D01*
X98755820Y-22109502D01*
X98875518Y-22145812D01*
X99000000Y-22158072D01*
X99714250Y-22155000D01*
X99873000Y-21996250D01*
X99873000Y-21147000D01*
X100127000Y-21147000D01*
X100127000Y-21996250D01*
X100285750Y-22155000D01*
X101000000Y-22158072D01*
X101124482Y-22145812D01*
X101244180Y-22109502D01*
X101354494Y-22050537D01*
X101451185Y-21971185D01*
X101530537Y-21874494D01*
X101589502Y-21764180D01*
X101625812Y-21644482D01*
X101638072Y-21520000D01*
X101635000Y-21305750D01*
X101476250Y-21147000D01*
X100127000Y-21147000D01*
X99873000Y-21147000D01*
X98523750Y-21147000D01*
X98365000Y-21305750D01*
X98361928Y-21520000D01*
X86205962Y-21520000D01*
X86341848Y-21353388D01*
X86693261Y-21062673D01*
X87094439Y-20845758D01*
X87530113Y-20710894D01*
X88014344Y-20660000D01*
X98363935Y-20660000D01*
X98365000Y-20734250D01*
G37*
%TD.AperFunction*%
%TD*%
M02*
