%TF.GenerationSoftware,KiCad,Pcbnew,5.1.7-a382d34a8~88~ubuntu18.04.1*%
%TF.CreationDate,2021-10-27T00:47:39-07:00*%
%TF.ProjectId,cv-extractor,63762d65-7874-4726-9163-746f722e6b69,rev?*%
%TF.SameCoordinates,Original*%
%TF.FileFunction,Copper,L2,Bot*%
%TF.FilePolarity,Positive*%
%FSLAX46Y46*%
G04 Gerber Fmt 4.6, Leading zero omitted, Abs format (unit mm)*
G04 Created by KiCad (PCBNEW 5.1.7-a382d34a8~88~ubuntu18.04.1) date 2021-10-27 00:47:39*
%MOMM*%
%LPD*%
G01*
G04 APERTURE LIST*
%TA.AperFunction,ComponentPad*%
%ADD10C,3.500000*%
%TD*%
%TA.AperFunction,ComponentPad*%
%ADD11R,2.000000X1.000000*%
%TD*%
%TA.AperFunction,ComponentPad*%
%ADD12R,2.000000X3.700000*%
%TD*%
%TA.AperFunction,ComponentPad*%
%ADD13C,1.500000*%
%TD*%
%TA.AperFunction,ComponentPad*%
%ADD14C,1.600200*%
%TD*%
%TA.AperFunction,SMDPad,CuDef*%
%ADD15C,0.100000*%
%TD*%
%TA.AperFunction,SMDPad,CuDef*%
%ADD16R,4.700000X3.500000*%
%TD*%
%TA.AperFunction,SMDPad,CuDef*%
%ADD17R,0.500000X0.500000*%
%TD*%
%TA.AperFunction,ViaPad*%
%ADD18C,0.800000*%
%TD*%
%TA.AperFunction,Conductor*%
%ADD19C,0.250000*%
%TD*%
%TA.AperFunction,Conductor*%
%ADD20C,0.500000*%
%TD*%
%TA.AperFunction,Conductor*%
%ADD21C,0.254000*%
%TD*%
%TA.AperFunction,Conductor*%
%ADD22C,0.100000*%
%TD*%
G04 APERTURE END LIST*
D10*
%TO.P,J2,*%
%TO.N,*%
X100000000Y-62750000D03*
D11*
%TO.P,J2,3*%
%TO.N,Net-(J2-Pad2)*%
X100000000Y-67670000D03*
%TO.P,J2,2*%
X100000000Y-59370000D03*
%TO.P,J2,1*%
%TO.N,GND*%
X100000000Y-56270000D03*
%TD*%
D12*
%TO.P,RV1,*%
%TO.N,*%
X107650000Y-30200000D03*
D13*
%TO.P,RV1,6*%
%TO.N,Net-(C1-Pad2)*%
X105000000Y-40200000D03*
%TO.P,RV1,3*%
%TO.N,Net-(C5-Pad1)*%
X103000000Y-40200000D03*
%TO.P,RV1,2*%
%TO.N,Net-(R7-Pad1)*%
X101000000Y-40200000D03*
%TO.P,RV1,1*%
X99000000Y-40200000D03*
%TO.P,RV1,4*%
%TO.N,Net-(R8-Pad1)*%
X97000000Y-40200000D03*
%TO.P,RV1,5*%
%TO.N,Net-(C1-Pad2)*%
X95000000Y-40200000D03*
D12*
%TO.P,RV1,*%
%TO.N,*%
X92350000Y-30200000D03*
%TD*%
%TO.P,C7,2*%
%TO.N,GND*%
%TA.AperFunction,SMDPad,CuDef*%
G36*
G01*
X109900000Y-100372000D02*
X109900000Y-99272000D01*
G75*
G02*
X110150000Y-99022000I250000J0D01*
G01*
X113150000Y-99022000D01*
G75*
G02*
X113400000Y-99272000I0J-250000D01*
G01*
X113400000Y-100372000D01*
G75*
G02*
X113150000Y-100622000I-250000J0D01*
G01*
X110150000Y-100622000D01*
G75*
G02*
X109900000Y-100372000I0J250000D01*
G01*
G37*
%TD.AperFunction*%
%TO.P,C7,1*%
%TO.N,+12V*%
%TA.AperFunction,SMDPad,CuDef*%
G36*
G01*
X104500000Y-100372000D02*
X104500000Y-99272000D01*
G75*
G02*
X104750000Y-99022000I250000J0D01*
G01*
X107750000Y-99022000D01*
G75*
G02*
X108000000Y-99272000I0J-250000D01*
G01*
X108000000Y-100372000D01*
G75*
G02*
X107750000Y-100622000I-250000J0D01*
G01*
X104750000Y-100622000D01*
G75*
G02*
X104500000Y-100372000I0J250000D01*
G01*
G37*
%TD.AperFunction*%
%TD*%
%TO.P,C8,2*%
%TO.N,-12V*%
%TA.AperFunction,SMDPad,CuDef*%
G36*
G01*
X90950000Y-100075000D02*
X90950000Y-98975000D01*
G75*
G02*
X91200000Y-98725000I250000J0D01*
G01*
X94200000Y-98725000D01*
G75*
G02*
X94450000Y-98975000I0J-250000D01*
G01*
X94450000Y-100075000D01*
G75*
G02*
X94200000Y-100325000I-250000J0D01*
G01*
X91200000Y-100325000D01*
G75*
G02*
X90950000Y-100075000I0J250000D01*
G01*
G37*
%TD.AperFunction*%
%TO.P,C8,1*%
%TO.N,GND*%
%TA.AperFunction,SMDPad,CuDef*%
G36*
G01*
X85550000Y-100075000D02*
X85550000Y-98975000D01*
G75*
G02*
X85800000Y-98725000I250000J0D01*
G01*
X88800000Y-98725000D01*
G75*
G02*
X89050000Y-98975000I0J-250000D01*
G01*
X89050000Y-100075000D01*
G75*
G02*
X88800000Y-100325000I-250000J0D01*
G01*
X85800000Y-100325000D01*
G75*
G02*
X85550000Y-100075000I0J250000D01*
G01*
G37*
%TD.AperFunction*%
%TD*%
%TO.P,C9,2*%
%TO.N,+12V*%
%TA.AperFunction,SMDPad,CuDef*%
G36*
G01*
X104756250Y-102240500D02*
X104243750Y-102240500D01*
G75*
G02*
X104025000Y-102021750I0J218750D01*
G01*
X104025000Y-101584250D01*
G75*
G02*
X104243750Y-101365500I218750J0D01*
G01*
X104756250Y-101365500D01*
G75*
G02*
X104975000Y-101584250I0J-218750D01*
G01*
X104975000Y-102021750D01*
G75*
G02*
X104756250Y-102240500I-218750J0D01*
G01*
G37*
%TD.AperFunction*%
%TO.P,C9,1*%
%TO.N,GND*%
%TA.AperFunction,SMDPad,CuDef*%
G36*
G01*
X104756250Y-103815500D02*
X104243750Y-103815500D01*
G75*
G02*
X104025000Y-103596750I0J218750D01*
G01*
X104025000Y-103159250D01*
G75*
G02*
X104243750Y-102940500I218750J0D01*
G01*
X104756250Y-102940500D01*
G75*
G02*
X104975000Y-103159250I0J-218750D01*
G01*
X104975000Y-103596750D01*
G75*
G02*
X104756250Y-103815500I-218750J0D01*
G01*
G37*
%TD.AperFunction*%
%TD*%
%TO.P,C10,2*%
%TO.N,GND*%
%TA.AperFunction,SMDPad,CuDef*%
G36*
G01*
X95243750Y-102100000D02*
X95756250Y-102100000D01*
G75*
G02*
X95975000Y-102318750I0J-218750D01*
G01*
X95975000Y-102756250D01*
G75*
G02*
X95756250Y-102975000I-218750J0D01*
G01*
X95243750Y-102975000D01*
G75*
G02*
X95025000Y-102756250I0J218750D01*
G01*
X95025000Y-102318750D01*
G75*
G02*
X95243750Y-102100000I218750J0D01*
G01*
G37*
%TD.AperFunction*%
%TO.P,C10,1*%
%TO.N,-12V*%
%TA.AperFunction,SMDPad,CuDef*%
G36*
G01*
X95243750Y-100525000D02*
X95756250Y-100525000D01*
G75*
G02*
X95975000Y-100743750I0J-218750D01*
G01*
X95975000Y-101181250D01*
G75*
G02*
X95756250Y-101400000I-218750J0D01*
G01*
X95243750Y-101400000D01*
G75*
G02*
X95025000Y-101181250I0J218750D01*
G01*
X95025000Y-100743750D01*
G75*
G02*
X95243750Y-100525000I218750J0D01*
G01*
G37*
%TD.AperFunction*%
%TD*%
D10*
%TO.P,J1,*%
%TO.N,*%
X100000000Y-49000000D03*
D11*
%TO.P,J1,3*%
%TO.N,Net-(J1-Pad2)*%
X100000000Y-53920000D03*
%TO.P,J1,2*%
X100000000Y-45620000D03*
%TO.P,J1,1*%
%TO.N,GND*%
X100000000Y-42520000D03*
%TD*%
D14*
%TO.P,J3,10*%
%TO.N,+12V*%
X105080000Y-116270000D03*
%TO.P,J3,9*%
X105080000Y-113730000D03*
%TO.P,J3,8*%
%TO.N,GND*%
X102540000Y-116270000D03*
%TO.P,J3,7*%
X102540000Y-113730000D03*
%TO.P,J3,6*%
X100000000Y-116270000D03*
%TO.P,J3,5*%
X100000000Y-113730000D03*
%TO.P,J3,4*%
X97460000Y-116270000D03*
%TO.P,J3,3*%
X97460000Y-113730000D03*
%TO.P,J3,2*%
%TO.N,-12V*%
X94920000Y-116270000D03*
%TO.P,J3,1*%
X94920000Y-113730000D03*
%TD*%
%TO.P,R1,2*%
%TO.N,Net-(JP1-Pad2)*%
%TA.AperFunction,SMDPad,CuDef*%
G36*
G01*
X104552000Y-93457750D02*
X104552000Y-93970250D01*
G75*
G02*
X104333250Y-94189000I-218750J0D01*
G01*
X103895750Y-94189000D01*
G75*
G02*
X103677000Y-93970250I0J218750D01*
G01*
X103677000Y-93457750D01*
G75*
G02*
X103895750Y-93239000I218750J0D01*
G01*
X104333250Y-93239000D01*
G75*
G02*
X104552000Y-93457750I0J-218750D01*
G01*
G37*
%TD.AperFunction*%
%TO.P,R1,1*%
%TO.N,Net-(D1-Pad1)*%
%TA.AperFunction,SMDPad,CuDef*%
G36*
G01*
X106127000Y-93457750D02*
X106127000Y-93970250D01*
G75*
G02*
X105908250Y-94189000I-218750J0D01*
G01*
X105470750Y-94189000D01*
G75*
G02*
X105252000Y-93970250I0J218750D01*
G01*
X105252000Y-93457750D01*
G75*
G02*
X105470750Y-93239000I218750J0D01*
G01*
X105908250Y-93239000D01*
G75*
G02*
X106127000Y-93457750I0J-218750D01*
G01*
G37*
%TD.AperFunction*%
%TD*%
%TO.P,R2,2*%
%TO.N,Net-(D1-Pad1)*%
%TA.AperFunction,SMDPad,CuDef*%
G36*
G01*
X105252000Y-92446250D02*
X105252000Y-91933750D01*
G75*
G02*
X105470750Y-91715000I218750J0D01*
G01*
X105908250Y-91715000D01*
G75*
G02*
X106127000Y-91933750I0J-218750D01*
G01*
X106127000Y-92446250D01*
G75*
G02*
X105908250Y-92665000I-218750J0D01*
G01*
X105470750Y-92665000D01*
G75*
G02*
X105252000Y-92446250I0J218750D01*
G01*
G37*
%TD.AperFunction*%
%TO.P,R2,1*%
%TO.N,Net-(D2-Pad2)*%
%TA.AperFunction,SMDPad,CuDef*%
G36*
G01*
X103677000Y-92446250D02*
X103677000Y-91933750D01*
G75*
G02*
X103895750Y-91715000I218750J0D01*
G01*
X104333250Y-91715000D01*
G75*
G02*
X104552000Y-91933750I0J-218750D01*
G01*
X104552000Y-92446250D01*
G75*
G02*
X104333250Y-92665000I-218750J0D01*
G01*
X103895750Y-92665000D01*
G75*
G02*
X103677000Y-92446250I0J218750D01*
G01*
G37*
%TD.AperFunction*%
%TD*%
%TO.P,R3,2*%
%TO.N,Net-(JP1-Pad2)*%
%TA.AperFunction,SMDPad,CuDef*%
G36*
G01*
X105252000Y-90172250D02*
X105252000Y-89659750D01*
G75*
G02*
X105470750Y-89441000I218750J0D01*
G01*
X105908250Y-89441000D01*
G75*
G02*
X106127000Y-89659750I0J-218750D01*
G01*
X106127000Y-90172250D01*
G75*
G02*
X105908250Y-90391000I-218750J0D01*
G01*
X105470750Y-90391000D01*
G75*
G02*
X105252000Y-90172250I0J218750D01*
G01*
G37*
%TD.AperFunction*%
%TO.P,R3,1*%
%TO.N,Net-(R3-Pad1)*%
%TA.AperFunction,SMDPad,CuDef*%
G36*
G01*
X103677000Y-90172250D02*
X103677000Y-89659750D01*
G75*
G02*
X103895750Y-89441000I218750J0D01*
G01*
X104333250Y-89441000D01*
G75*
G02*
X104552000Y-89659750I0J-218750D01*
G01*
X104552000Y-90172250D01*
G75*
G02*
X104333250Y-90391000I-218750J0D01*
G01*
X103895750Y-90391000D01*
G75*
G02*
X103677000Y-90172250I0J218750D01*
G01*
G37*
%TD.AperFunction*%
%TD*%
%TO.P,R4,2*%
%TO.N,Net-(D2-Pad2)*%
%TA.AperFunction,SMDPad,CuDef*%
G36*
G01*
X105252000Y-88648250D02*
X105252000Y-88135750D01*
G75*
G02*
X105470750Y-87917000I218750J0D01*
G01*
X105908250Y-87917000D01*
G75*
G02*
X106127000Y-88135750I0J-218750D01*
G01*
X106127000Y-88648250D01*
G75*
G02*
X105908250Y-88867000I-218750J0D01*
G01*
X105470750Y-88867000D01*
G75*
G02*
X105252000Y-88648250I0J218750D01*
G01*
G37*
%TD.AperFunction*%
%TO.P,R4,1*%
%TO.N,Net-(R3-Pad1)*%
%TA.AperFunction,SMDPad,CuDef*%
G36*
G01*
X103677000Y-88648250D02*
X103677000Y-88135750D01*
G75*
G02*
X103895750Y-87917000I218750J0D01*
G01*
X104333250Y-87917000D01*
G75*
G02*
X104552000Y-88135750I0J-218750D01*
G01*
X104552000Y-88648250D01*
G75*
G02*
X104333250Y-88867000I-218750J0D01*
G01*
X103895750Y-88867000D01*
G75*
G02*
X103677000Y-88648250I0J218750D01*
G01*
G37*
%TD.AperFunction*%
%TD*%
%TO.P,R5,2*%
%TO.N,Net-(D2-Pad2)*%
%TA.AperFunction,SMDPad,CuDef*%
G36*
G01*
X105252000Y-87124250D02*
X105252000Y-86611750D01*
G75*
G02*
X105470750Y-86393000I218750J0D01*
G01*
X105908250Y-86393000D01*
G75*
G02*
X106127000Y-86611750I0J-218750D01*
G01*
X106127000Y-87124250D01*
G75*
G02*
X105908250Y-87343000I-218750J0D01*
G01*
X105470750Y-87343000D01*
G75*
G02*
X105252000Y-87124250I0J218750D01*
G01*
G37*
%TD.AperFunction*%
%TO.P,R5,1*%
%TO.N,Net-(R3-Pad1)*%
%TA.AperFunction,SMDPad,CuDef*%
G36*
G01*
X103677000Y-87124250D02*
X103677000Y-86611750D01*
G75*
G02*
X103895750Y-86393000I218750J0D01*
G01*
X104333250Y-86393000D01*
G75*
G02*
X104552000Y-86611750I0J-218750D01*
G01*
X104552000Y-87124250D01*
G75*
G02*
X104333250Y-87343000I-218750J0D01*
G01*
X103895750Y-87343000D01*
G75*
G02*
X103677000Y-87124250I0J218750D01*
G01*
G37*
%TD.AperFunction*%
%TD*%
%TO.P,R6,2*%
%TO.N,Net-(R3-Pad1)*%
%TA.AperFunction,SMDPad,CuDef*%
G36*
G01*
X104552000Y-85087750D02*
X104552000Y-85600250D01*
G75*
G02*
X104333250Y-85819000I-218750J0D01*
G01*
X103895750Y-85819000D01*
G75*
G02*
X103677000Y-85600250I0J218750D01*
G01*
X103677000Y-85087750D01*
G75*
G02*
X103895750Y-84869000I218750J0D01*
G01*
X104333250Y-84869000D01*
G75*
G02*
X104552000Y-85087750I0J-218750D01*
G01*
G37*
%TD.AperFunction*%
%TO.P,R6,1*%
%TO.N,Net-(JP2-Pad1)*%
%TA.AperFunction,SMDPad,CuDef*%
G36*
G01*
X106127000Y-85087750D02*
X106127000Y-85600250D01*
G75*
G02*
X105908250Y-85819000I-218750J0D01*
G01*
X105470750Y-85819000D01*
G75*
G02*
X105252000Y-85600250I0J218750D01*
G01*
X105252000Y-85087750D01*
G75*
G02*
X105470750Y-84869000I218750J0D01*
G01*
X105908250Y-84869000D01*
G75*
G02*
X106127000Y-85087750I0J-218750D01*
G01*
G37*
%TD.AperFunction*%
%TD*%
%TO.P,R7,2*%
%TO.N,Net-(JP2-Pad2)*%
%TA.AperFunction,SMDPad,CuDef*%
G36*
G01*
X105252000Y-83426250D02*
X105252000Y-82913750D01*
G75*
G02*
X105470750Y-82695000I218750J0D01*
G01*
X105908250Y-82695000D01*
G75*
G02*
X106127000Y-82913750I0J-218750D01*
G01*
X106127000Y-83426250D01*
G75*
G02*
X105908250Y-83645000I-218750J0D01*
G01*
X105470750Y-83645000D01*
G75*
G02*
X105252000Y-83426250I0J218750D01*
G01*
G37*
%TD.AperFunction*%
%TO.P,R7,1*%
%TO.N,Net-(R7-Pad1)*%
%TA.AperFunction,SMDPad,CuDef*%
G36*
G01*
X103677000Y-83426250D02*
X103677000Y-82913750D01*
G75*
G02*
X103895750Y-82695000I218750J0D01*
G01*
X104333250Y-82695000D01*
G75*
G02*
X104552000Y-82913750I0J-218750D01*
G01*
X104552000Y-83426250D01*
G75*
G02*
X104333250Y-83645000I-218750J0D01*
G01*
X103895750Y-83645000D01*
G75*
G02*
X103677000Y-83426250I0J218750D01*
G01*
G37*
%TD.AperFunction*%
%TD*%
%TO.P,R8,2*%
%TO.N,Net-(C5-Pad1)*%
%TA.AperFunction,SMDPad,CuDef*%
G36*
G01*
X105252000Y-81902250D02*
X105252000Y-81389750D01*
G75*
G02*
X105470750Y-81171000I218750J0D01*
G01*
X105908250Y-81171000D01*
G75*
G02*
X106127000Y-81389750I0J-218750D01*
G01*
X106127000Y-81902250D01*
G75*
G02*
X105908250Y-82121000I-218750J0D01*
G01*
X105470750Y-82121000D01*
G75*
G02*
X105252000Y-81902250I0J218750D01*
G01*
G37*
%TD.AperFunction*%
%TO.P,R8,1*%
%TO.N,Net-(R8-Pad1)*%
%TA.AperFunction,SMDPad,CuDef*%
G36*
G01*
X103677000Y-81902250D02*
X103677000Y-81389750D01*
G75*
G02*
X103895750Y-81171000I218750J0D01*
G01*
X104333250Y-81171000D01*
G75*
G02*
X104552000Y-81389750I0J-218750D01*
G01*
X104552000Y-81902250D01*
G75*
G02*
X104333250Y-82121000I-218750J0D01*
G01*
X103895750Y-82121000D01*
G75*
G02*
X103677000Y-81902250I0J218750D01*
G01*
G37*
%TD.AperFunction*%
%TD*%
%TO.P,U1,14*%
%TO.N,Net-(C5-Pad2)*%
%TA.AperFunction,SMDPad,CuDef*%
G36*
G01*
X98500000Y-96040000D02*
X98500000Y-96340000D01*
G75*
G02*
X98350000Y-96490000I-150000J0D01*
G01*
X96700000Y-96490000D01*
G75*
G02*
X96550000Y-96340000I0J150000D01*
G01*
X96550000Y-96040000D01*
G75*
G02*
X96700000Y-95890000I150000J0D01*
G01*
X98350000Y-95890000D01*
G75*
G02*
X98500000Y-96040000I0J-150000D01*
G01*
G37*
%TD.AperFunction*%
%TO.P,U1,13*%
%TA.AperFunction,SMDPad,CuDef*%
G36*
G01*
X98500000Y-97310000D02*
X98500000Y-97610000D01*
G75*
G02*
X98350000Y-97760000I-150000J0D01*
G01*
X96700000Y-97760000D01*
G75*
G02*
X96550000Y-97610000I0J150000D01*
G01*
X96550000Y-97310000D01*
G75*
G02*
X96700000Y-97160000I150000J0D01*
G01*
X98350000Y-97160000D01*
G75*
G02*
X98500000Y-97310000I0J-150000D01*
G01*
G37*
%TD.AperFunction*%
%TO.P,U1,12*%
%TO.N,Net-(C1-Pad2)*%
%TA.AperFunction,SMDPad,CuDef*%
G36*
G01*
X98500000Y-98580000D02*
X98500000Y-98880000D01*
G75*
G02*
X98350000Y-99030000I-150000J0D01*
G01*
X96700000Y-99030000D01*
G75*
G02*
X96550000Y-98880000I0J150000D01*
G01*
X96550000Y-98580000D01*
G75*
G02*
X96700000Y-98430000I150000J0D01*
G01*
X98350000Y-98430000D01*
G75*
G02*
X98500000Y-98580000I0J-150000D01*
G01*
G37*
%TD.AperFunction*%
%TO.P,U1,11*%
%TO.N,-12V*%
%TA.AperFunction,SMDPad,CuDef*%
G36*
G01*
X98500000Y-99850000D02*
X98500000Y-100150000D01*
G75*
G02*
X98350000Y-100300000I-150000J0D01*
G01*
X96700000Y-100300000D01*
G75*
G02*
X96550000Y-100150000I0J150000D01*
G01*
X96550000Y-99850000D01*
G75*
G02*
X96700000Y-99700000I150000J0D01*
G01*
X98350000Y-99700000D01*
G75*
G02*
X98500000Y-99850000I0J-150000D01*
G01*
G37*
%TD.AperFunction*%
%TO.P,U1,10*%
%TO.N,GND*%
%TA.AperFunction,SMDPad,CuDef*%
G36*
G01*
X98500000Y-101120000D02*
X98500000Y-101420000D01*
G75*
G02*
X98350000Y-101570000I-150000J0D01*
G01*
X96700000Y-101570000D01*
G75*
G02*
X96550000Y-101420000I0J150000D01*
G01*
X96550000Y-101120000D01*
G75*
G02*
X96700000Y-100970000I150000J0D01*
G01*
X98350000Y-100970000D01*
G75*
G02*
X98500000Y-101120000I0J-150000D01*
G01*
G37*
%TD.AperFunction*%
%TO.P,U1,9*%
%TO.N,Net-(R3-Pad1)*%
%TA.AperFunction,SMDPad,CuDef*%
G36*
G01*
X98500000Y-102390000D02*
X98500000Y-102690000D01*
G75*
G02*
X98350000Y-102840000I-150000J0D01*
G01*
X96700000Y-102840000D01*
G75*
G02*
X96550000Y-102690000I0J150000D01*
G01*
X96550000Y-102390000D01*
G75*
G02*
X96700000Y-102240000I150000J0D01*
G01*
X98350000Y-102240000D01*
G75*
G02*
X98500000Y-102390000I0J-150000D01*
G01*
G37*
%TD.AperFunction*%
%TO.P,U1,8*%
%TO.N,Net-(JP2-Pad1)*%
%TA.AperFunction,SMDPad,CuDef*%
G36*
G01*
X98500000Y-103660000D02*
X98500000Y-103960000D01*
G75*
G02*
X98350000Y-104110000I-150000J0D01*
G01*
X96700000Y-104110000D01*
G75*
G02*
X96550000Y-103960000I0J150000D01*
G01*
X96550000Y-103660000D01*
G75*
G02*
X96700000Y-103510000I150000J0D01*
G01*
X98350000Y-103510000D01*
G75*
G02*
X98500000Y-103660000I0J-150000D01*
G01*
G37*
%TD.AperFunction*%
%TO.P,U1,7*%
%TO.N,Net-(D1-Pad2)*%
%TA.AperFunction,SMDPad,CuDef*%
G36*
G01*
X103450000Y-103660000D02*
X103450000Y-103960000D01*
G75*
G02*
X103300000Y-104110000I-150000J0D01*
G01*
X101650000Y-104110000D01*
G75*
G02*
X101500000Y-103960000I0J150000D01*
G01*
X101500000Y-103660000D01*
G75*
G02*
X101650000Y-103510000I150000J0D01*
G01*
X103300000Y-103510000D01*
G75*
G02*
X103450000Y-103660000I0J-150000D01*
G01*
G37*
%TD.AperFunction*%
%TO.P,U1,6*%
%TO.N,Net-(D1-Pad1)*%
%TA.AperFunction,SMDPad,CuDef*%
G36*
G01*
X103450000Y-102390000D02*
X103450000Y-102690000D01*
G75*
G02*
X103300000Y-102840000I-150000J0D01*
G01*
X101650000Y-102840000D01*
G75*
G02*
X101500000Y-102690000I0J150000D01*
G01*
X101500000Y-102390000D01*
G75*
G02*
X101650000Y-102240000I150000J0D01*
G01*
X103300000Y-102240000D01*
G75*
G02*
X103450000Y-102390000I0J-150000D01*
G01*
G37*
%TD.AperFunction*%
%TO.P,U1,5*%
%TO.N,GND*%
%TA.AperFunction,SMDPad,CuDef*%
G36*
G01*
X103450000Y-101120000D02*
X103450000Y-101420000D01*
G75*
G02*
X103300000Y-101570000I-150000J0D01*
G01*
X101650000Y-101570000D01*
G75*
G02*
X101500000Y-101420000I0J150000D01*
G01*
X101500000Y-101120000D01*
G75*
G02*
X101650000Y-100970000I150000J0D01*
G01*
X103300000Y-100970000D01*
G75*
G02*
X103450000Y-101120000I0J-150000D01*
G01*
G37*
%TD.AperFunction*%
%TO.P,U1,4*%
%TO.N,+12V*%
%TA.AperFunction,SMDPad,CuDef*%
G36*
G01*
X103450000Y-99850000D02*
X103450000Y-100150000D01*
G75*
G02*
X103300000Y-100300000I-150000J0D01*
G01*
X101650000Y-100300000D01*
G75*
G02*
X101500000Y-100150000I0J150000D01*
G01*
X101500000Y-99850000D01*
G75*
G02*
X101650000Y-99700000I150000J0D01*
G01*
X103300000Y-99700000D01*
G75*
G02*
X103450000Y-99850000I0J-150000D01*
G01*
G37*
%TD.AperFunction*%
%TO.P,U1,3*%
%TO.N,Net-(J1-Pad2)*%
%TA.AperFunction,SMDPad,CuDef*%
G36*
G01*
X103450000Y-98580000D02*
X103450000Y-98880000D01*
G75*
G02*
X103300000Y-99030000I-150000J0D01*
G01*
X101650000Y-99030000D01*
G75*
G02*
X101500000Y-98880000I0J150000D01*
G01*
X101500000Y-98580000D01*
G75*
G02*
X101650000Y-98430000I150000J0D01*
G01*
X103300000Y-98430000D01*
G75*
G02*
X103450000Y-98580000I0J-150000D01*
G01*
G37*
%TD.AperFunction*%
%TO.P,U1,2*%
%TO.N,Net-(JP1-Pad1)*%
%TA.AperFunction,SMDPad,CuDef*%
G36*
G01*
X103450000Y-97310000D02*
X103450000Y-97610000D01*
G75*
G02*
X103300000Y-97760000I-150000J0D01*
G01*
X101650000Y-97760000D01*
G75*
G02*
X101500000Y-97610000I0J150000D01*
G01*
X101500000Y-97310000D01*
G75*
G02*
X101650000Y-97160000I150000J0D01*
G01*
X103300000Y-97160000D01*
G75*
G02*
X103450000Y-97310000I0J-150000D01*
G01*
G37*
%TD.AperFunction*%
%TO.P,U1,1*%
%TA.AperFunction,SMDPad,CuDef*%
G36*
G01*
X103450000Y-96040000D02*
X103450000Y-96340000D01*
G75*
G02*
X103300000Y-96490000I-150000J0D01*
G01*
X101650000Y-96490000D01*
G75*
G02*
X101500000Y-96340000I0J150000D01*
G01*
X101500000Y-96040000D01*
G75*
G02*
X101650000Y-95890000I150000J0D01*
G01*
X103300000Y-95890000D01*
G75*
G02*
X103450000Y-96040000I0J-150000D01*
G01*
G37*
%TD.AperFunction*%
%TD*%
%TO.P,C1,1*%
%TO.N,GND*%
%TA.AperFunction,SMDPad,CuDef*%
G36*
G01*
X94050000Y-83100000D02*
X94050000Y-83600000D01*
G75*
G02*
X93825000Y-83825000I-225000J0D01*
G01*
X93375000Y-83825000D01*
G75*
G02*
X93150000Y-83600000I0J225000D01*
G01*
X93150000Y-83100000D01*
G75*
G02*
X93375000Y-82875000I225000J0D01*
G01*
X93825000Y-82875000D01*
G75*
G02*
X94050000Y-83100000I0J-225000D01*
G01*
G37*
%TD.AperFunction*%
%TO.P,C1,2*%
%TO.N,Net-(C1-Pad2)*%
%TA.AperFunction,SMDPad,CuDef*%
G36*
G01*
X92500000Y-83100000D02*
X92500000Y-83600000D01*
G75*
G02*
X92275000Y-83825000I-225000J0D01*
G01*
X91825000Y-83825000D01*
G75*
G02*
X91600000Y-83600000I0J225000D01*
G01*
X91600000Y-83100000D01*
G75*
G02*
X91825000Y-82875000I225000J0D01*
G01*
X92275000Y-82875000D01*
G75*
G02*
X92500000Y-83100000I0J-225000D01*
G01*
G37*
%TD.AperFunction*%
%TD*%
%TO.P,C5,2*%
%TO.N,Net-(C5-Pad2)*%
%TA.AperFunction,SMDPad,CuDef*%
G36*
G01*
X98675000Y-82050000D02*
X98675000Y-82550000D01*
G75*
G02*
X98450000Y-82775000I-225000J0D01*
G01*
X98000000Y-82775000D01*
G75*
G02*
X97775000Y-82550000I0J225000D01*
G01*
X97775000Y-82050000D01*
G75*
G02*
X98000000Y-81825000I225000J0D01*
G01*
X98450000Y-81825000D01*
G75*
G02*
X98675000Y-82050000I0J-225000D01*
G01*
G37*
%TD.AperFunction*%
%TO.P,C5,1*%
%TO.N,Net-(C5-Pad1)*%
%TA.AperFunction,SMDPad,CuDef*%
G36*
G01*
X100225000Y-82050000D02*
X100225000Y-82550000D01*
G75*
G02*
X100000000Y-82775000I-225000J0D01*
G01*
X99550000Y-82775000D01*
G75*
G02*
X99325000Y-82550000I0J225000D01*
G01*
X99325000Y-82050000D01*
G75*
G02*
X99550000Y-81825000I225000J0D01*
G01*
X100000000Y-81825000D01*
G75*
G02*
X100225000Y-82050000I0J-225000D01*
G01*
G37*
%TD.AperFunction*%
%TD*%
%TO.P,C6,1*%
%TO.N,Net-(C5-Pad1)*%
%TA.AperFunction,SMDPad,CuDef*%
G36*
G01*
X100225000Y-83575000D02*
X100225000Y-84075000D01*
G75*
G02*
X100000000Y-84300000I-225000J0D01*
G01*
X99550000Y-84300000D01*
G75*
G02*
X99325000Y-84075000I0J225000D01*
G01*
X99325000Y-83575000D01*
G75*
G02*
X99550000Y-83350000I225000J0D01*
G01*
X100000000Y-83350000D01*
G75*
G02*
X100225000Y-83575000I0J-225000D01*
G01*
G37*
%TD.AperFunction*%
%TO.P,C6,2*%
%TO.N,Net-(C5-Pad2)*%
%TA.AperFunction,SMDPad,CuDef*%
G36*
G01*
X98675000Y-83575000D02*
X98675000Y-84075000D01*
G75*
G02*
X98450000Y-84300000I-225000J0D01*
G01*
X98000000Y-84300000D01*
G75*
G02*
X97775000Y-84075000I0J225000D01*
G01*
X97775000Y-83575000D01*
G75*
G02*
X98000000Y-83350000I225000J0D01*
G01*
X98450000Y-83350000D01*
G75*
G02*
X98675000Y-83575000I0J-225000D01*
G01*
G37*
%TD.AperFunction*%
%TD*%
%TA.AperFunction,SMDPad,CuDef*%
D15*
%TO.P,JP1,1*%
%TO.N,Net-(JP1-Pad1)*%
G36*
X110750000Y-90175000D02*
G01*
X110750000Y-90675000D01*
X110749398Y-90675000D01*
X110749398Y-90699534D01*
X110744588Y-90748365D01*
X110735016Y-90796490D01*
X110720772Y-90843445D01*
X110701995Y-90888778D01*
X110678864Y-90932051D01*
X110651604Y-90972850D01*
X110620476Y-91010779D01*
X110585779Y-91045476D01*
X110547850Y-91076604D01*
X110507051Y-91103864D01*
X110463778Y-91126995D01*
X110418445Y-91145772D01*
X110371490Y-91160016D01*
X110323365Y-91169588D01*
X110274534Y-91174398D01*
X110250000Y-91174398D01*
X110250000Y-91175000D01*
X109750000Y-91175000D01*
X109750000Y-91174398D01*
X109725466Y-91174398D01*
X109676635Y-91169588D01*
X109628510Y-91160016D01*
X109581555Y-91145772D01*
X109536222Y-91126995D01*
X109492949Y-91103864D01*
X109452150Y-91076604D01*
X109414221Y-91045476D01*
X109379524Y-91010779D01*
X109348396Y-90972850D01*
X109321136Y-90932051D01*
X109298005Y-90888778D01*
X109279228Y-90843445D01*
X109264984Y-90796490D01*
X109255412Y-90748365D01*
X109250602Y-90699534D01*
X109250602Y-90675000D01*
X109250000Y-90675000D01*
X109250000Y-90175000D01*
X110750000Y-90175000D01*
G37*
%TD.AperFunction*%
%TA.AperFunction,SMDPad,CuDef*%
%TO.P,JP1,2*%
%TO.N,Net-(JP1-Pad2)*%
G36*
X109250602Y-89375000D02*
G01*
X109250602Y-89350466D01*
X109255412Y-89301635D01*
X109264984Y-89253510D01*
X109279228Y-89206555D01*
X109298005Y-89161222D01*
X109321136Y-89117949D01*
X109348396Y-89077150D01*
X109379524Y-89039221D01*
X109414221Y-89004524D01*
X109452150Y-88973396D01*
X109492949Y-88946136D01*
X109536222Y-88923005D01*
X109581555Y-88904228D01*
X109628510Y-88889984D01*
X109676635Y-88880412D01*
X109725466Y-88875602D01*
X109750000Y-88875602D01*
X109750000Y-88875000D01*
X110250000Y-88875000D01*
X110250000Y-88875602D01*
X110274534Y-88875602D01*
X110323365Y-88880412D01*
X110371490Y-88889984D01*
X110418445Y-88904228D01*
X110463778Y-88923005D01*
X110507051Y-88946136D01*
X110547850Y-88973396D01*
X110585779Y-89004524D01*
X110620476Y-89039221D01*
X110651604Y-89077150D01*
X110678864Y-89117949D01*
X110701995Y-89161222D01*
X110720772Y-89206555D01*
X110735016Y-89253510D01*
X110744588Y-89301635D01*
X110749398Y-89350466D01*
X110749398Y-89375000D01*
X110750000Y-89375000D01*
X110750000Y-89875000D01*
X109250000Y-89875000D01*
X109250000Y-89375000D01*
X109250602Y-89375000D01*
G37*
%TD.AperFunction*%
%TD*%
%TA.AperFunction,SMDPad,CuDef*%
%TO.P,JP2,2*%
%TO.N,Net-(JP2-Pad2)*%
G36*
X109275602Y-85025000D02*
G01*
X109275602Y-85000466D01*
X109280412Y-84951635D01*
X109289984Y-84903510D01*
X109304228Y-84856555D01*
X109323005Y-84811222D01*
X109346136Y-84767949D01*
X109373396Y-84727150D01*
X109404524Y-84689221D01*
X109439221Y-84654524D01*
X109477150Y-84623396D01*
X109517949Y-84596136D01*
X109561222Y-84573005D01*
X109606555Y-84554228D01*
X109653510Y-84539984D01*
X109701635Y-84530412D01*
X109750466Y-84525602D01*
X109775000Y-84525602D01*
X109775000Y-84525000D01*
X110275000Y-84525000D01*
X110275000Y-84525602D01*
X110299534Y-84525602D01*
X110348365Y-84530412D01*
X110396490Y-84539984D01*
X110443445Y-84554228D01*
X110488778Y-84573005D01*
X110532051Y-84596136D01*
X110572850Y-84623396D01*
X110610779Y-84654524D01*
X110645476Y-84689221D01*
X110676604Y-84727150D01*
X110703864Y-84767949D01*
X110726995Y-84811222D01*
X110745772Y-84856555D01*
X110760016Y-84903510D01*
X110769588Y-84951635D01*
X110774398Y-85000466D01*
X110774398Y-85025000D01*
X110775000Y-85025000D01*
X110775000Y-85525000D01*
X109275000Y-85525000D01*
X109275000Y-85025000D01*
X109275602Y-85025000D01*
G37*
%TD.AperFunction*%
%TA.AperFunction,SMDPad,CuDef*%
%TO.P,JP2,1*%
%TO.N,Net-(JP2-Pad1)*%
G36*
X110775000Y-85825000D02*
G01*
X110775000Y-86325000D01*
X110774398Y-86325000D01*
X110774398Y-86349534D01*
X110769588Y-86398365D01*
X110760016Y-86446490D01*
X110745772Y-86493445D01*
X110726995Y-86538778D01*
X110703864Y-86582051D01*
X110676604Y-86622850D01*
X110645476Y-86660779D01*
X110610779Y-86695476D01*
X110572850Y-86726604D01*
X110532051Y-86753864D01*
X110488778Y-86776995D01*
X110443445Y-86795772D01*
X110396490Y-86810016D01*
X110348365Y-86819588D01*
X110299534Y-86824398D01*
X110275000Y-86824398D01*
X110275000Y-86825000D01*
X109775000Y-86825000D01*
X109775000Y-86824398D01*
X109750466Y-86824398D01*
X109701635Y-86819588D01*
X109653510Y-86810016D01*
X109606555Y-86795772D01*
X109561222Y-86776995D01*
X109517949Y-86753864D01*
X109477150Y-86726604D01*
X109439221Y-86695476D01*
X109404524Y-86660779D01*
X109373396Y-86622850D01*
X109346136Y-86582051D01*
X109323005Y-86538778D01*
X109304228Y-86493445D01*
X109289984Y-86446490D01*
X109280412Y-86398365D01*
X109275602Y-86349534D01*
X109275602Y-86325000D01*
X109275000Y-86325000D01*
X109275000Y-85825000D01*
X110775000Y-85825000D01*
G37*
%TD.AperFunction*%
%TD*%
%TO.P,R9,2*%
%TO.N,Net-(JP2-Pad2)*%
%TA.AperFunction,SMDPad,CuDef*%
G36*
G01*
X109225000Y-82875000D02*
X109775000Y-82875000D01*
G75*
G02*
X109975000Y-83075000I0J-200000D01*
G01*
X109975000Y-83475000D01*
G75*
G02*
X109775000Y-83675000I-200000J0D01*
G01*
X109225000Y-83675000D01*
G75*
G02*
X109025000Y-83475000I0J200000D01*
G01*
X109025000Y-83075000D01*
G75*
G02*
X109225000Y-82875000I200000J0D01*
G01*
G37*
%TD.AperFunction*%
%TO.P,R9,1*%
%TO.N,Net-(C5-Pad1)*%
%TA.AperFunction,SMDPad,CuDef*%
G36*
G01*
X109225000Y-81225000D02*
X109775000Y-81225000D01*
G75*
G02*
X109975000Y-81425000I0J-200000D01*
G01*
X109975000Y-81825000D01*
G75*
G02*
X109775000Y-82025000I-200000J0D01*
G01*
X109225000Y-82025000D01*
G75*
G02*
X109025000Y-81825000I0J200000D01*
G01*
X109025000Y-81425000D01*
G75*
G02*
X109225000Y-81225000I200000J0D01*
G01*
G37*
%TD.AperFunction*%
%TD*%
%TO.P,R10,1*%
%TO.N,Net-(C1-Pad2)*%
%TA.AperFunction,SMDPad,CuDef*%
G36*
G01*
X106475000Y-34850000D02*
X106475000Y-35400000D01*
G75*
G02*
X106275000Y-35600000I-200000J0D01*
G01*
X105875000Y-35600000D01*
G75*
G02*
X105675000Y-35400000I0J200000D01*
G01*
X105675000Y-34850000D01*
G75*
G02*
X105875000Y-34650000I200000J0D01*
G01*
X106275000Y-34650000D01*
G75*
G02*
X106475000Y-34850000I0J-200000D01*
G01*
G37*
%TD.AperFunction*%
%TO.P,R10,2*%
%TO.N,Net-(C5-Pad1)*%
%TA.AperFunction,SMDPad,CuDef*%
G36*
G01*
X104825000Y-34850000D02*
X104825000Y-35400000D01*
G75*
G02*
X104625000Y-35600000I-200000J0D01*
G01*
X104225000Y-35600000D01*
G75*
G02*
X104025000Y-35400000I0J200000D01*
G01*
X104025000Y-34850000D01*
G75*
G02*
X104225000Y-34650000I200000J0D01*
G01*
X104625000Y-34650000D01*
G75*
G02*
X104825000Y-34850000I0J-200000D01*
G01*
G37*
%TD.AperFunction*%
%TD*%
%TO.P,R11,1*%
%TO.N,Net-(J2-Pad2)*%
%TA.AperFunction,SMDPad,CuDef*%
G36*
G01*
X99725000Y-69275000D02*
X100275000Y-69275000D01*
G75*
G02*
X100475000Y-69475000I0J-200000D01*
G01*
X100475000Y-69875000D01*
G75*
G02*
X100275000Y-70075000I-200000J0D01*
G01*
X99725000Y-70075000D01*
G75*
G02*
X99525000Y-69875000I0J200000D01*
G01*
X99525000Y-69475000D01*
G75*
G02*
X99725000Y-69275000I200000J0D01*
G01*
G37*
%TD.AperFunction*%
%TO.P,R11,2*%
%TO.N,Net-(C5-Pad2)*%
%TA.AperFunction,SMDPad,CuDef*%
G36*
G01*
X99725000Y-70925000D02*
X100275000Y-70925000D01*
G75*
G02*
X100475000Y-71125000I0J-200000D01*
G01*
X100475000Y-71525000D01*
G75*
G02*
X100275000Y-71725000I-200000J0D01*
G01*
X99725000Y-71725000D01*
G75*
G02*
X99525000Y-71525000I0J200000D01*
G01*
X99525000Y-71125000D01*
G75*
G02*
X99725000Y-70925000I200000J0D01*
G01*
G37*
%TD.AperFunction*%
%TD*%
D16*
%TO.P,TP1,1*%
%TO.N,Net-(JP1-Pad1)*%
X91750000Y-68750000D03*
%TD*%
%TO.P,TP2,1*%
%TO.N,Net-(JP2-Pad2)*%
X91750000Y-64500000D03*
%TD*%
%TO.P,TP3,1*%
%TO.N,Net-(J2-Pad2)*%
X91750000Y-60250000D03*
%TD*%
%TO.P,TP4,1*%
%TO.N,GND*%
X91750000Y-56000000D03*
%TD*%
D17*
%TO.P,D1,2*%
%TO.N,Net-(D1-Pad2)*%
X105100000Y-107750000D03*
%TO.P,D1,1*%
%TO.N,Net-(D1-Pad1)*%
X102900000Y-107750000D03*
%TD*%
%TO.P,D2,1*%
%TO.N,Net-(D1-Pad2)*%
X110150000Y-107750000D03*
%TO.P,D2,2*%
%TO.N,Net-(D2-Pad2)*%
X112350000Y-107750000D03*
%TD*%
D18*
%TO.N,GND*%
X107775000Y-104775000D03*
X105400000Y-96750000D03*
X96325000Y-84000000D03*
X100600000Y-88225000D03*
X94750000Y-93825000D03*
X101050000Y-101250000D03*
X114000000Y-103250000D03*
%TO.N,Net-(J1-Pad2)*%
X100800000Y-98725000D03*
X109500000Y-74250000D03*
X107681794Y-79931794D03*
%TO.N,Net-(R3-Pad1)*%
X98987500Y-94987500D03*
X99115000Y-102540000D03*
%TO.N,Net-(C5-Pad1)*%
X99750000Y-82250000D03*
X103593205Y-78406795D03*
%TO.N,Net-(J2-Pad2)*%
X93750000Y-60000000D03*
%TO.N,Net-(JP1-Pad1)*%
X93750000Y-70250000D03*
X102475000Y-95353500D03*
X110200000Y-92050000D03*
%TO.N,Net-(JP1-Pad2)*%
X105689500Y-89916000D03*
X108300000Y-89300000D03*
%TO.N,Net-(JP2-Pad2)*%
X93500000Y-65500000D03*
X109500000Y-83250000D03*
%TO.N,Net-(JP2-Pad1)*%
X97650000Y-91625000D03*
X97650000Y-104900000D03*
%TD*%
D19*
%TO.N,Net-(C1-Pad2)*%
X91954000Y-91694000D02*
X91954000Y-94234000D01*
X92054000Y-94234000D02*
X91954000Y-94234000D01*
X97525000Y-98730000D02*
X96550000Y-98730000D01*
X97525000Y-98730000D02*
X96450000Y-98730000D01*
X106075000Y-35125000D02*
X106075000Y-38950000D01*
X106075000Y-38950000D02*
X105000000Y-40025000D01*
X85949990Y-47294010D02*
X85949990Y-88229990D01*
X85949990Y-88229990D02*
X92110000Y-94390000D01*
X93044000Y-40200000D02*
X85949990Y-47294010D01*
X94593991Y-40200000D02*
X93044000Y-40200000D01*
X96450000Y-98730000D02*
X92110000Y-94390000D01*
X92110000Y-94390000D02*
X91954000Y-94234000D01*
X91954000Y-91694000D02*
X91954000Y-83546000D01*
X91954000Y-83546000D02*
X92000000Y-83500000D01*
%TO.N,Net-(D1-Pad1)*%
X105689500Y-93714000D02*
X105689500Y-92190000D01*
X101500000Y-102540000D02*
X102475000Y-102540000D01*
X101174990Y-102865010D02*
X101500000Y-102540000D01*
X101174990Y-106174990D02*
X101174990Y-102865010D01*
X102750000Y-107750000D02*
X101174990Y-106174990D01*
X108750000Y-96024500D02*
X105689500Y-92964000D01*
X107184490Y-102565510D02*
X108750000Y-101000000D01*
X108750000Y-101000000D02*
X108750000Y-96024500D01*
X104018516Y-102565510D02*
X107184490Y-102565510D01*
X103993006Y-102540000D02*
X104018516Y-102565510D01*
X102475000Y-102540000D02*
X103993006Y-102540000D01*
%TO.N,Net-(D1-Pad2)*%
X106750000Y-107750000D02*
X106415000Y-107750000D01*
X106750000Y-107750000D02*
X110000000Y-107750000D01*
X105100000Y-106435000D02*
X104945000Y-106280000D01*
X106415000Y-107750000D02*
X104945000Y-106280000D01*
X105100000Y-107750000D02*
X105100000Y-106435000D01*
X104945000Y-106280000D02*
X102475000Y-103810000D01*
%TO.N,Net-(D2-Pad2)*%
X105689500Y-86868000D02*
X105689500Y-88392000D01*
X104114500Y-91884596D02*
X104114500Y-92190000D01*
X104926990Y-91072106D02*
X104114500Y-91884596D01*
X104926990Y-89154510D02*
X104926990Y-91072106D01*
X105689500Y-88392000D02*
X104926990Y-89154510D01*
X105689500Y-88392000D02*
X105689500Y-88672006D01*
X109258747Y-92241253D02*
X109258747Y-103008747D01*
X109258747Y-103008747D02*
X109625000Y-103375000D01*
X105689500Y-88672006D02*
X109258747Y-92241253D01*
X112350000Y-106100000D02*
X112300000Y-106050000D01*
X112350000Y-107750000D02*
X112350000Y-106100000D01*
X109625000Y-103375000D02*
X112300000Y-106050000D01*
%TO.N,GND*%
X100970000Y-101270000D02*
X100875000Y-101175000D01*
X102475000Y-101270000D02*
X100970000Y-101270000D01*
D20*
X95703956Y-102537500D02*
X96991456Y-101250000D01*
X95500000Y-102537500D02*
X95703956Y-102537500D01*
X96991456Y-101250000D02*
X97500000Y-101250000D01*
X101070000Y-101270000D02*
X101050000Y-101250000D01*
X102475000Y-101270000D02*
X101070000Y-101270000D01*
D19*
%TO.N,Net-(J1-Pad2)*%
X100805000Y-98730000D02*
X100800000Y-98725000D01*
X102475000Y-98730000D02*
X100805000Y-98730000D01*
X97924999Y-47695001D02*
X97924999Y-51924999D01*
X100000000Y-45620000D02*
X97924999Y-47695001D01*
X99920000Y-53920000D02*
X97924999Y-51924999D01*
X100000000Y-53920000D02*
X99920000Y-53920000D01*
X107681794Y-76068206D02*
X109500000Y-74250000D01*
X107681794Y-79931794D02*
X107681794Y-76068206D01*
%TO.N,Net-(R3-Pad1)*%
X104114500Y-86868000D02*
X104114500Y-88392000D01*
X104114500Y-88392000D02*
X104114500Y-89916000D01*
X104114500Y-86868000D02*
X104114500Y-85344000D01*
X97485000Y-102500000D02*
X97525000Y-102540000D01*
X97525000Y-102540000D02*
X97148232Y-102540000D01*
X97371990Y-102386990D02*
X97525000Y-102540000D01*
X104114500Y-89916000D02*
X99965250Y-94065250D01*
X99965250Y-94065250D02*
X99909750Y-94065250D01*
X99909750Y-94065250D02*
X98987500Y-94987500D01*
X98987500Y-94987500D02*
X98950000Y-95025000D01*
X98500000Y-102540000D02*
X97525000Y-102540000D01*
X97525000Y-102540000D02*
X99115000Y-102540000D01*
X99115000Y-102540000D02*
X99115000Y-102540000D01*
%TO.N,+12V*%
X106342000Y-100000000D02*
X106520000Y-99822000D01*
X102475000Y-100000000D02*
X106342000Y-100000000D01*
X104648000Y-101198000D02*
X104648000Y-101803000D01*
X103450000Y-100000000D02*
X104648000Y-101198000D01*
X102475000Y-100000000D02*
X103450000Y-100000000D01*
X101000000Y-100000000D02*
X101000000Y-100000000D01*
X100724981Y-100275019D02*
X101000000Y-100000000D01*
X100724981Y-100275019D02*
X100638591Y-100275019D01*
X105080000Y-116270000D02*
X105080000Y-113730000D01*
X101775000Y-111875000D02*
X103225000Y-111875000D01*
X103225000Y-111875000D02*
X105080000Y-113730000D01*
X100300010Y-110400010D02*
X101775000Y-111875000D01*
X102475000Y-100000000D02*
X101500000Y-100000000D01*
X102475000Y-100000000D02*
X101000000Y-100000000D01*
X100300010Y-100613600D02*
X100300010Y-110400010D01*
X100638591Y-100275019D02*
X100300010Y-100613600D01*
%TO.N,-12V*%
X96641000Y-100000000D02*
X97525000Y-100000000D01*
X97901768Y-100000000D02*
X97525000Y-100000000D01*
X93632000Y-99568000D02*
X95068000Y-99568000D01*
X95500000Y-100000000D02*
X97525000Y-100000000D01*
X95068000Y-99568000D02*
X95500000Y-100000000D01*
X97575000Y-100050000D02*
X97525000Y-100000000D01*
X95500000Y-100000000D02*
X95500000Y-100237500D01*
X96550000Y-100000000D02*
X97525000Y-100000000D01*
X95500000Y-100237500D02*
X95500000Y-101000000D01*
X94920000Y-116270000D02*
X94920000Y-113730000D01*
X94920000Y-113730000D02*
X96224990Y-112425010D01*
X96224990Y-112425010D02*
X96224990Y-111700010D01*
X96224990Y-111700010D02*
X99850000Y-108075000D01*
X99850000Y-100800000D02*
X99850000Y-100800000D01*
X99850000Y-108075000D02*
X99850000Y-100800000D01*
X99850000Y-100800000D02*
X99050000Y-100000000D01*
X99050000Y-100000000D02*
X97525000Y-100000000D01*
%TO.N,Net-(R7-Pad1)*%
X104114500Y-83170000D02*
X104140000Y-83170000D01*
X104926990Y-82357510D02*
X104114500Y-83170000D01*
X104926990Y-80973010D02*
X104926990Y-82357510D01*
X101000000Y-40200000D02*
X101000000Y-41046020D01*
X99000000Y-40200000D02*
X101025000Y-40200000D01*
X102525011Y-78474989D02*
X102476990Y-78523010D01*
X102525011Y-42785671D02*
X102525011Y-78474989D01*
X101000000Y-41260660D02*
X102525011Y-42785671D01*
X101000000Y-40200000D02*
X101000000Y-41260660D01*
X102476990Y-78523010D02*
X104926990Y-80973010D01*
%TO.N,Net-(R8-Pad1)*%
X97000000Y-40200000D02*
X97000000Y-42156000D01*
X97000000Y-42156000D02*
X98247000Y-43403000D01*
X102026981Y-81068981D02*
X102604000Y-81646000D01*
X102075001Y-78288589D02*
X102026981Y-78336609D01*
X99868002Y-43403000D02*
X102075001Y-45609999D01*
X102075001Y-45609999D02*
X102075001Y-78288589D01*
X98247000Y-43403000D02*
X99868002Y-43403000D01*
X102026981Y-78336609D02*
X102026981Y-81068981D01*
X104114500Y-81646000D02*
X102604000Y-81646000D01*
%TO.N,Net-(C5-Pad2)*%
X97525000Y-97460000D02*
X97525000Y-96190000D01*
X100000000Y-71325000D02*
X96675000Y-71325000D01*
X96675000Y-71325000D02*
X96675000Y-81527834D01*
X97447166Y-82300000D02*
X96675000Y-81527834D01*
X98225000Y-82300000D02*
X97447166Y-82300000D01*
X98225000Y-82300000D02*
X98225000Y-83775000D01*
X98225000Y-83775000D02*
X98000000Y-84000000D01*
X93550000Y-84652834D02*
X96675000Y-81527834D01*
X93550000Y-93698002D02*
X93550000Y-84652834D01*
X96041998Y-96190000D02*
X93550000Y-93698002D01*
X97525000Y-96190000D02*
X96041998Y-96190000D01*
%TO.N,Net-(C5-Pad1)*%
X105689500Y-80653090D02*
X105689500Y-80989500D01*
X105689500Y-80845500D02*
X105689500Y-80989500D01*
X105689500Y-80989500D02*
X105689500Y-81646000D01*
X103000000Y-41963590D02*
X103593205Y-42556795D01*
X103000000Y-40200000D02*
X103000000Y-41963590D01*
X103593205Y-78556795D02*
X105689500Y-80653090D01*
X103000000Y-40200000D02*
X101924999Y-39124999D01*
X101924999Y-39124999D02*
X101924999Y-37750001D01*
X101924999Y-37750001D02*
X104475000Y-35200000D01*
X105689500Y-81646000D02*
X109379000Y-81646000D01*
X99796000Y-83996000D02*
X99900000Y-84100000D01*
X103593205Y-78556795D02*
X103593205Y-78406795D01*
X103593205Y-78406795D02*
X103593205Y-42556795D01*
X99775000Y-82300000D02*
X99775000Y-83725000D01*
X99775000Y-83725000D02*
X99750000Y-83750000D01*
%TO.N,Net-(J2-Pad2)*%
X97924999Y-61575001D02*
X97924999Y-65674999D01*
X100000000Y-59500000D02*
X97924999Y-61575001D01*
X97924999Y-65674999D02*
X100000000Y-67750000D01*
X100000000Y-69675000D02*
X100000000Y-67750000D01*
%TO.N,Net-(JP1-Pad1)*%
X102475000Y-95353500D02*
X102475000Y-95353500D01*
X102475000Y-95353500D02*
X102475000Y-96190000D01*
X102475000Y-96190000D02*
X102475000Y-97325000D01*
X102475000Y-97325000D02*
X102425000Y-97375000D01*
X110000000Y-91850000D02*
X110200000Y-92050000D01*
X110000000Y-90675000D02*
X110000000Y-91600000D01*
X110000000Y-91600000D02*
X110000000Y-91850000D01*
%TO.N,Net-(JP1-Pad2)*%
X105689500Y-90196006D02*
X105689500Y-89916000D01*
X105689500Y-89916000D02*
X105689500Y-90946006D01*
X104877010Y-91758496D02*
X104877010Y-93097990D01*
X105689500Y-90946006D02*
X104877010Y-91758496D01*
X104877010Y-93097990D02*
X104075000Y-93900000D01*
X105689500Y-89916000D02*
X105689500Y-89916000D01*
X108300000Y-89300000D02*
X109775000Y-89300000D01*
X109775000Y-89300000D02*
X109950000Y-89475000D01*
%TO.N,Net-(JP2-Pad2)*%
X105689500Y-83170000D02*
X109445000Y-83170000D01*
X109445000Y-83170000D02*
X109675000Y-83400000D01*
X109500000Y-83275000D02*
X109500000Y-84525000D01*
X109500000Y-84525000D02*
X110050000Y-85075000D01*
%TO.N,Net-(JP2-Pad1)*%
X97650000Y-103935000D02*
X97525000Y-103810000D01*
X101849999Y-84350001D02*
X97650000Y-88550000D01*
X97650000Y-88550000D02*
X97650000Y-91625000D01*
X105199998Y-85000000D02*
X104549999Y-84350001D01*
X105500000Y-85000000D02*
X105199998Y-85000000D01*
X110025000Y-86325000D02*
X106825000Y-86325000D01*
X106825000Y-86325000D02*
X105500000Y-85000000D01*
X104549999Y-84350001D02*
X101849999Y-84350001D01*
X97650000Y-104900000D02*
X97650000Y-103935000D01*
%TD*%
D21*
%TO.N,GND*%
X114340001Y-119340000D02*
X85660000Y-119340000D01*
X85660000Y-102975000D01*
X94386928Y-102975000D01*
X94399188Y-103099482D01*
X94435498Y-103219180D01*
X94494463Y-103329494D01*
X94573815Y-103426185D01*
X94670506Y-103505537D01*
X94780820Y-103564502D01*
X94900518Y-103600812D01*
X95025000Y-103613072D01*
X95214250Y-103610000D01*
X95373000Y-103451250D01*
X95373000Y-102664500D01*
X94548750Y-102664500D01*
X94390000Y-102823250D01*
X94386928Y-102975000D01*
X85660000Y-102975000D01*
X85660000Y-100962841D01*
X87014250Y-100960000D01*
X87173000Y-100801250D01*
X87173000Y-99652000D01*
X87427000Y-99652000D01*
X87427000Y-100801250D01*
X87585750Y-100960000D01*
X89050000Y-100963072D01*
X89174482Y-100950812D01*
X89294180Y-100914502D01*
X89404494Y-100855537D01*
X89501185Y-100776185D01*
X89580537Y-100679494D01*
X89639502Y-100569180D01*
X89675812Y-100449482D01*
X89688072Y-100325000D01*
X89685000Y-99810750D01*
X89526250Y-99652000D01*
X87427000Y-99652000D01*
X87173000Y-99652000D01*
X87153000Y-99652000D01*
X87153000Y-99398000D01*
X87173000Y-99398000D01*
X87173000Y-98248750D01*
X87427000Y-98248750D01*
X87427000Y-99398000D01*
X89526250Y-99398000D01*
X89685000Y-99239250D01*
X89688072Y-98725000D01*
X89675812Y-98600518D01*
X89639502Y-98480820D01*
X89580537Y-98370506D01*
X89501185Y-98273815D01*
X89404494Y-98194463D01*
X89294180Y-98135498D01*
X89174482Y-98099188D01*
X89050000Y-98086928D01*
X87585750Y-98090000D01*
X87427000Y-98248750D01*
X87173000Y-98248750D01*
X87014250Y-98090000D01*
X85660000Y-98087159D01*
X85660000Y-89014801D01*
X91390200Y-94745002D01*
X91413999Y-94774001D01*
X91442997Y-94797799D01*
X91598997Y-94953799D01*
X91599003Y-94953804D01*
X95885198Y-99240000D01*
X95814801Y-99240000D01*
X95631804Y-99057003D01*
X95608001Y-99027999D01*
X95492276Y-98933026D01*
X95360247Y-98862454D01*
X95216986Y-98818997D01*
X95105333Y-98808000D01*
X95105322Y-98808000D01*
X95071294Y-98804648D01*
X95071008Y-98801746D01*
X95020472Y-98635150D01*
X94938405Y-98481614D01*
X94827962Y-98347038D01*
X94693386Y-98236595D01*
X94539850Y-98154528D01*
X94373254Y-98103992D01*
X94200000Y-98086928D01*
X91200000Y-98086928D01*
X91026746Y-98103992D01*
X90860150Y-98154528D01*
X90706614Y-98236595D01*
X90572038Y-98347038D01*
X90461595Y-98481614D01*
X90379528Y-98635150D01*
X90328992Y-98801746D01*
X90311928Y-98975000D01*
X90311928Y-100075000D01*
X90328992Y-100248254D01*
X90379528Y-100414850D01*
X90461595Y-100568386D01*
X90572038Y-100702962D01*
X90706614Y-100813405D01*
X90860150Y-100895472D01*
X91026746Y-100946008D01*
X91200000Y-100963072D01*
X94200000Y-100963072D01*
X94373254Y-100946008D01*
X94386928Y-100941860D01*
X94386928Y-101181250D01*
X94403392Y-101348408D01*
X94452150Y-101509142D01*
X94531329Y-101657275D01*
X94549100Y-101678930D01*
X94494463Y-101745506D01*
X94435498Y-101855820D01*
X94399188Y-101975518D01*
X94386928Y-102100000D01*
X94390000Y-102251750D01*
X94548750Y-102410500D01*
X95373000Y-102410500D01*
X95373000Y-102390500D01*
X95627000Y-102390500D01*
X95627000Y-102410500D01*
X95647000Y-102410500D01*
X95647000Y-102664500D01*
X95627000Y-102664500D01*
X95627000Y-103451250D01*
X95785750Y-103610000D01*
X95916643Y-103612125D01*
X95911928Y-103660000D01*
X95911928Y-103960000D01*
X95927071Y-104113745D01*
X95971916Y-104261582D01*
X96044742Y-104397829D01*
X96142749Y-104517251D01*
X96262171Y-104615258D01*
X96398418Y-104688084D01*
X96546255Y-104732929D01*
X96626386Y-104740821D01*
X96615000Y-104798061D01*
X96615000Y-105001939D01*
X96654774Y-105201898D01*
X96732795Y-105390256D01*
X96846063Y-105559774D01*
X96990226Y-105703937D01*
X97159744Y-105817205D01*
X97348102Y-105895226D01*
X97548061Y-105935000D01*
X97751939Y-105935000D01*
X97951898Y-105895226D01*
X98140256Y-105817205D01*
X98309774Y-105703937D01*
X98453937Y-105559774D01*
X98567205Y-105390256D01*
X98645226Y-105201898D01*
X98685000Y-105001939D01*
X98685000Y-104798061D01*
X98662015Y-104682507D01*
X98787829Y-104615258D01*
X98907251Y-104517251D01*
X99005258Y-104397829D01*
X99078084Y-104261582D01*
X99090001Y-104222298D01*
X99090000Y-107760198D01*
X95713988Y-111136211D01*
X95684990Y-111160009D01*
X95661192Y-111189007D01*
X95661191Y-111189008D01*
X95590016Y-111275734D01*
X95519444Y-111407764D01*
X95506413Y-111450724D01*
X95475987Y-111551024D01*
X95464990Y-111662677D01*
X95464990Y-111662688D01*
X95461314Y-111700010D01*
X95464990Y-111737332D01*
X95464990Y-112110208D01*
X95243972Y-112331227D01*
X95061345Y-112294900D01*
X94778655Y-112294900D01*
X94501397Y-112350050D01*
X94240225Y-112458231D01*
X94005177Y-112615285D01*
X93805285Y-112815177D01*
X93648231Y-113050225D01*
X93540050Y-113311397D01*
X93484900Y-113588655D01*
X93484900Y-113871345D01*
X93540050Y-114148603D01*
X93648231Y-114409775D01*
X93805285Y-114644823D01*
X94005177Y-114844715D01*
X94160001Y-114948165D01*
X94160000Y-115051835D01*
X94005177Y-115155285D01*
X93805285Y-115355177D01*
X93648231Y-115590225D01*
X93540050Y-115851397D01*
X93484900Y-116128655D01*
X93484900Y-116411345D01*
X93540050Y-116688603D01*
X93648231Y-116949775D01*
X93805285Y-117184823D01*
X94005177Y-117384715D01*
X94240225Y-117541769D01*
X94501397Y-117649950D01*
X94778655Y-117705100D01*
X95061345Y-117705100D01*
X95338603Y-117649950D01*
X95599775Y-117541769D01*
X95834823Y-117384715D01*
X95956764Y-117262774D01*
X96646831Y-117262774D01*
X96718426Y-117506754D01*
X96973954Y-117627664D01*
X97248161Y-117696400D01*
X97530508Y-117710320D01*
X97810147Y-117668889D01*
X98076328Y-117573700D01*
X98201574Y-117506754D01*
X98273169Y-117262774D01*
X99186831Y-117262774D01*
X99258426Y-117506754D01*
X99513954Y-117627664D01*
X99788161Y-117696400D01*
X100070508Y-117710320D01*
X100350147Y-117668889D01*
X100616328Y-117573700D01*
X100741574Y-117506754D01*
X100813169Y-117262774D01*
X101726831Y-117262774D01*
X101798426Y-117506754D01*
X102053954Y-117627664D01*
X102328161Y-117696400D01*
X102610508Y-117710320D01*
X102890147Y-117668889D01*
X103156328Y-117573700D01*
X103281574Y-117506754D01*
X103353169Y-117262774D01*
X102540000Y-116449605D01*
X101726831Y-117262774D01*
X100813169Y-117262774D01*
X100000000Y-116449605D01*
X99186831Y-117262774D01*
X98273169Y-117262774D01*
X97460000Y-116449605D01*
X96646831Y-117262774D01*
X95956764Y-117262774D01*
X96034715Y-117184823D01*
X96190905Y-116951068D01*
X96223246Y-117011574D01*
X96467226Y-117083169D01*
X97280395Y-116270000D01*
X97639605Y-116270000D01*
X98452774Y-117083169D01*
X98696754Y-117011574D01*
X98727976Y-116945590D01*
X98763246Y-117011574D01*
X99007226Y-117083169D01*
X99820395Y-116270000D01*
X100179605Y-116270000D01*
X100992774Y-117083169D01*
X101236754Y-117011574D01*
X101267976Y-116945590D01*
X101303246Y-117011574D01*
X101547226Y-117083169D01*
X102360395Y-116270000D01*
X101547226Y-115456831D01*
X101303246Y-115528426D01*
X101272024Y-115594410D01*
X101236754Y-115528426D01*
X100992774Y-115456831D01*
X100179605Y-116270000D01*
X99820395Y-116270000D01*
X99007226Y-115456831D01*
X98763246Y-115528426D01*
X98732024Y-115594410D01*
X98696754Y-115528426D01*
X98452774Y-115456831D01*
X97639605Y-116270000D01*
X97280395Y-116270000D01*
X96467226Y-115456831D01*
X96223246Y-115528426D01*
X96192812Y-115592744D01*
X96191769Y-115590225D01*
X96034715Y-115355177D01*
X95834823Y-115155285D01*
X95680000Y-115051836D01*
X95680000Y-114948164D01*
X95834823Y-114844715D01*
X95956764Y-114722774D01*
X96646831Y-114722774D01*
X96718426Y-114966754D01*
X96784410Y-114997976D01*
X96718426Y-115033246D01*
X96646831Y-115277226D01*
X97460000Y-116090395D01*
X98273169Y-115277226D01*
X98201574Y-115033246D01*
X98135590Y-115002024D01*
X98201574Y-114966754D01*
X98273169Y-114722774D01*
X99186831Y-114722774D01*
X99258426Y-114966754D01*
X99324410Y-114997976D01*
X99258426Y-115033246D01*
X99186831Y-115277226D01*
X100000000Y-116090395D01*
X100813169Y-115277226D01*
X100741574Y-115033246D01*
X100675590Y-115002024D01*
X100741574Y-114966754D01*
X100813169Y-114722774D01*
X101726831Y-114722774D01*
X101798426Y-114966754D01*
X101864410Y-114997976D01*
X101798426Y-115033246D01*
X101726831Y-115277226D01*
X102540000Y-116090395D01*
X103353169Y-115277226D01*
X103281574Y-115033246D01*
X103215590Y-115002024D01*
X103281574Y-114966754D01*
X103353169Y-114722774D01*
X102540000Y-113909605D01*
X101726831Y-114722774D01*
X100813169Y-114722774D01*
X100000000Y-113909605D01*
X99186831Y-114722774D01*
X98273169Y-114722774D01*
X97460000Y-113909605D01*
X96646831Y-114722774D01*
X95956764Y-114722774D01*
X96034715Y-114644823D01*
X96190905Y-114411068D01*
X96223246Y-114471574D01*
X96467226Y-114543169D01*
X97280395Y-113730000D01*
X97639605Y-113730000D01*
X98452774Y-114543169D01*
X98696754Y-114471574D01*
X98727976Y-114405590D01*
X98763246Y-114471574D01*
X99007226Y-114543169D01*
X99820395Y-113730000D01*
X100179605Y-113730000D01*
X100992774Y-114543169D01*
X101236754Y-114471574D01*
X101267976Y-114405590D01*
X101303246Y-114471574D01*
X101547226Y-114543169D01*
X102360395Y-113730000D01*
X101547226Y-112916831D01*
X101303246Y-112988426D01*
X101272024Y-113054410D01*
X101236754Y-112988426D01*
X100992774Y-112916831D01*
X100179605Y-113730000D01*
X99820395Y-113730000D01*
X99007226Y-112916831D01*
X98763246Y-112988426D01*
X98732024Y-113054410D01*
X98696754Y-112988426D01*
X98452774Y-112916831D01*
X97639605Y-113730000D01*
X97280395Y-113730000D01*
X97266253Y-113715858D01*
X97445858Y-113536253D01*
X97460000Y-113550395D01*
X98273169Y-112737226D01*
X99186831Y-112737226D01*
X100000000Y-113550395D01*
X100813169Y-112737226D01*
X100741574Y-112493246D01*
X100486046Y-112372336D01*
X100211839Y-112303600D01*
X99929492Y-112289680D01*
X99649853Y-112331111D01*
X99383672Y-112426300D01*
X99258426Y-112493246D01*
X99186831Y-112737226D01*
X98273169Y-112737226D01*
X98201574Y-112493246D01*
X97946046Y-112372336D01*
X97671839Y-112303600D01*
X97389492Y-112289680D01*
X97109853Y-112331111D01*
X96984990Y-112375763D01*
X96984990Y-112014811D01*
X99540011Y-109459791D01*
X99540011Y-110362678D01*
X99536334Y-110400010D01*
X99551008Y-110548995D01*
X99594464Y-110692256D01*
X99665036Y-110824286D01*
X99736211Y-110911012D01*
X99760010Y-110940011D01*
X99789008Y-110963809D01*
X101211200Y-112386002D01*
X101234999Y-112415001D01*
X101350724Y-112509974D01*
X101482753Y-112580546D01*
X101626014Y-112624003D01*
X101737667Y-112635000D01*
X101737677Y-112635000D01*
X101756291Y-112636833D01*
X101726831Y-112737226D01*
X102540000Y-113550395D01*
X102554143Y-113536253D01*
X102733748Y-113715858D01*
X102719605Y-113730000D01*
X103532774Y-114543169D01*
X103776754Y-114471574D01*
X103807188Y-114407256D01*
X103808231Y-114409775D01*
X103965285Y-114644823D01*
X104165177Y-114844715D01*
X104320001Y-114948165D01*
X104320000Y-115051835D01*
X104165177Y-115155285D01*
X103965285Y-115355177D01*
X103809095Y-115588932D01*
X103776754Y-115528426D01*
X103532774Y-115456831D01*
X102719605Y-116270000D01*
X103532774Y-117083169D01*
X103776754Y-117011574D01*
X103807188Y-116947256D01*
X103808231Y-116949775D01*
X103965285Y-117184823D01*
X104165177Y-117384715D01*
X104400225Y-117541769D01*
X104661397Y-117649950D01*
X104938655Y-117705100D01*
X105221345Y-117705100D01*
X105498603Y-117649950D01*
X105759775Y-117541769D01*
X105994823Y-117384715D01*
X106194715Y-117184823D01*
X106351769Y-116949775D01*
X106459950Y-116688603D01*
X106515100Y-116411345D01*
X106515100Y-116128655D01*
X106459950Y-115851397D01*
X106351769Y-115590225D01*
X106194715Y-115355177D01*
X105994823Y-115155285D01*
X105840000Y-115051836D01*
X105840000Y-114948164D01*
X105994823Y-114844715D01*
X106194715Y-114644823D01*
X106351769Y-114409775D01*
X106459950Y-114148603D01*
X106515100Y-113871345D01*
X106515100Y-113588655D01*
X106459950Y-113311397D01*
X106351769Y-113050225D01*
X106194715Y-112815177D01*
X105994823Y-112615285D01*
X105759775Y-112458231D01*
X105498603Y-112350050D01*
X105221345Y-112294900D01*
X104938655Y-112294900D01*
X104756028Y-112331227D01*
X103788804Y-111364003D01*
X103765001Y-111334999D01*
X103649276Y-111240026D01*
X103517247Y-111169454D01*
X103373986Y-111125997D01*
X103262333Y-111115000D01*
X103262322Y-111115000D01*
X103225000Y-111111324D01*
X103187678Y-111115000D01*
X102089802Y-111115000D01*
X101060010Y-110085209D01*
X101060010Y-107134811D01*
X102021403Y-108096205D01*
X102024188Y-108124482D01*
X102060498Y-108244180D01*
X102119463Y-108354494D01*
X102198815Y-108451185D01*
X102295506Y-108530537D01*
X102405820Y-108589502D01*
X102525518Y-108625812D01*
X102650000Y-108638072D01*
X103150000Y-108638072D01*
X103274482Y-108625812D01*
X103394180Y-108589502D01*
X103504494Y-108530537D01*
X103601185Y-108451185D01*
X103680537Y-108354494D01*
X103739502Y-108244180D01*
X103775812Y-108124482D01*
X103788072Y-108000000D01*
X103788072Y-107500000D01*
X103775812Y-107375518D01*
X103739502Y-107255820D01*
X103680537Y-107145506D01*
X103601185Y-107048815D01*
X103504494Y-106969463D01*
X103394180Y-106910498D01*
X103274482Y-106874188D01*
X103150000Y-106861928D01*
X102936730Y-106861928D01*
X101934990Y-105860189D01*
X101934990Y-104748072D01*
X102338271Y-104748072D01*
X104340001Y-106749804D01*
X104340000Y-107120481D01*
X104319463Y-107145506D01*
X104260498Y-107255820D01*
X104224188Y-107375518D01*
X104211928Y-107500000D01*
X104211928Y-108000000D01*
X104224188Y-108124482D01*
X104260498Y-108244180D01*
X104319463Y-108354494D01*
X104398815Y-108451185D01*
X104495506Y-108530537D01*
X104605820Y-108589502D01*
X104725518Y-108625812D01*
X104850000Y-108638072D01*
X105350000Y-108638072D01*
X105474482Y-108625812D01*
X105594180Y-108589502D01*
X105704494Y-108530537D01*
X105801185Y-108451185D01*
X105880537Y-108354494D01*
X105902810Y-108312825D01*
X105903997Y-108313799D01*
X105990723Y-108384974D01*
X106114594Y-108451185D01*
X106122753Y-108455546D01*
X106266014Y-108499003D01*
X106377667Y-108510000D01*
X106377677Y-108510000D01*
X106415000Y-108513676D01*
X106452323Y-108510000D01*
X109520482Y-108510000D01*
X109545506Y-108530537D01*
X109655820Y-108589502D01*
X109775518Y-108625812D01*
X109900000Y-108638072D01*
X110400000Y-108638072D01*
X110524482Y-108625812D01*
X110644180Y-108589502D01*
X110754494Y-108530537D01*
X110851185Y-108451185D01*
X110930537Y-108354494D01*
X110989502Y-108244180D01*
X111025812Y-108124482D01*
X111038072Y-108000000D01*
X111038072Y-107500000D01*
X111025812Y-107375518D01*
X110989502Y-107255820D01*
X110930537Y-107145506D01*
X110851185Y-107048815D01*
X110754494Y-106969463D01*
X110644180Y-106910498D01*
X110524482Y-106874188D01*
X110400000Y-106861928D01*
X109900000Y-106861928D01*
X109775518Y-106874188D01*
X109655820Y-106910498D01*
X109545506Y-106969463D01*
X109520482Y-106990000D01*
X106729802Y-106990000D01*
X105663803Y-105924002D01*
X105640001Y-105894999D01*
X105610998Y-105871197D01*
X105508808Y-105769007D01*
X105508799Y-105768996D01*
X104190684Y-104450883D01*
X104214250Y-104450500D01*
X104373000Y-104291750D01*
X104373000Y-103505000D01*
X104627000Y-103505000D01*
X104627000Y-104291750D01*
X104785750Y-104450500D01*
X104975000Y-104453572D01*
X105099482Y-104441312D01*
X105219180Y-104405002D01*
X105329494Y-104346037D01*
X105426185Y-104266685D01*
X105505537Y-104169994D01*
X105564502Y-104059680D01*
X105600812Y-103939982D01*
X105613072Y-103815500D01*
X105610000Y-103663750D01*
X105451250Y-103505000D01*
X104627000Y-103505000D01*
X104373000Y-103505000D01*
X104353000Y-103505000D01*
X104353000Y-103325510D01*
X107147168Y-103325510D01*
X107184490Y-103329186D01*
X107221812Y-103325510D01*
X107221823Y-103325510D01*
X107333476Y-103314513D01*
X107476737Y-103271056D01*
X107608766Y-103200484D01*
X107724491Y-103105511D01*
X107748293Y-103076508D01*
X108498748Y-102326054D01*
X108498748Y-102971415D01*
X108495071Y-103008747D01*
X108498748Y-103046080D01*
X108509745Y-103157733D01*
X108514975Y-103174974D01*
X108553201Y-103300993D01*
X108623773Y-103433023D01*
X108687542Y-103510725D01*
X108718747Y-103548748D01*
X108747745Y-103572546D01*
X109061201Y-103886002D01*
X111590001Y-106414803D01*
X111590000Y-107120481D01*
X111569463Y-107145506D01*
X111510498Y-107255820D01*
X111474188Y-107375518D01*
X111461928Y-107500000D01*
X111461928Y-108000000D01*
X111474188Y-108124482D01*
X111510498Y-108244180D01*
X111569463Y-108354494D01*
X111648815Y-108451185D01*
X111745506Y-108530537D01*
X111855820Y-108589502D01*
X111975518Y-108625812D01*
X112100000Y-108638072D01*
X112600000Y-108638072D01*
X112724482Y-108625812D01*
X112844180Y-108589502D01*
X112954494Y-108530537D01*
X113051185Y-108451185D01*
X113130537Y-108354494D01*
X113189502Y-108244180D01*
X113225812Y-108124482D01*
X113238072Y-108000000D01*
X113238072Y-107500000D01*
X113225812Y-107375518D01*
X113189502Y-107255820D01*
X113130537Y-107145506D01*
X113110000Y-107120482D01*
X113110000Y-106137325D01*
X113113676Y-106100000D01*
X113110000Y-106062675D01*
X113110000Y-106062667D01*
X113099003Y-105951014D01*
X113055546Y-105807753D01*
X112984974Y-105675724D01*
X112890001Y-105559999D01*
X112861003Y-105536201D01*
X110136002Y-102811201D01*
X110018747Y-102693946D01*
X110018747Y-101259823D01*
X111364250Y-101257000D01*
X111523000Y-101098250D01*
X111523000Y-99949000D01*
X111777000Y-99949000D01*
X111777000Y-101098250D01*
X111935750Y-101257000D01*
X113400000Y-101260072D01*
X113524482Y-101247812D01*
X113644180Y-101211502D01*
X113754494Y-101152537D01*
X113851185Y-101073185D01*
X113930537Y-100976494D01*
X113989502Y-100866180D01*
X114025812Y-100746482D01*
X114038072Y-100622000D01*
X114035000Y-100107750D01*
X113876250Y-99949000D01*
X111777000Y-99949000D01*
X111523000Y-99949000D01*
X111503000Y-99949000D01*
X111503000Y-99695000D01*
X111523000Y-99695000D01*
X111523000Y-98545750D01*
X111777000Y-98545750D01*
X111777000Y-99695000D01*
X113876250Y-99695000D01*
X114035000Y-99536250D01*
X114038072Y-99022000D01*
X114025812Y-98897518D01*
X113989502Y-98777820D01*
X113930537Y-98667506D01*
X113851185Y-98570815D01*
X113754494Y-98491463D01*
X113644180Y-98432498D01*
X113524482Y-98396188D01*
X113400000Y-98383928D01*
X111935750Y-98387000D01*
X111777000Y-98545750D01*
X111523000Y-98545750D01*
X111364250Y-98387000D01*
X110018747Y-98384177D01*
X110018747Y-93069224D01*
X110098061Y-93085000D01*
X110301939Y-93085000D01*
X110501898Y-93045226D01*
X110690256Y-92967205D01*
X110859774Y-92853937D01*
X111003937Y-92709774D01*
X111117205Y-92540256D01*
X111195226Y-92351898D01*
X111235000Y-92151939D01*
X111235000Y-91948061D01*
X111195226Y-91748102D01*
X111117205Y-91559744D01*
X111058775Y-91472297D01*
X111087690Y-91443382D01*
X111167042Y-91346691D01*
X111221498Y-91265192D01*
X111280464Y-91154875D01*
X111317973Y-91064319D01*
X111354282Y-90944623D01*
X111373404Y-90848490D01*
X111385664Y-90724009D01*
X111385664Y-90699450D01*
X111388072Y-90675000D01*
X111388072Y-90175000D01*
X111375812Y-90050518D01*
X111368071Y-90025000D01*
X111375812Y-89999482D01*
X111388072Y-89875000D01*
X111388072Y-89375000D01*
X111385664Y-89350550D01*
X111385664Y-89325991D01*
X111373404Y-89201510D01*
X111354282Y-89105377D01*
X111317973Y-88985681D01*
X111280464Y-88895125D01*
X111221498Y-88784808D01*
X111167042Y-88703309D01*
X111087690Y-88606618D01*
X111018382Y-88537310D01*
X110921691Y-88457958D01*
X110840192Y-88403502D01*
X110729875Y-88344536D01*
X110639319Y-88307027D01*
X110519623Y-88270718D01*
X110423490Y-88251596D01*
X110299009Y-88239336D01*
X110274450Y-88239336D01*
X110250000Y-88236928D01*
X109750000Y-88236928D01*
X109725550Y-88239336D01*
X109700991Y-88239336D01*
X109576510Y-88251596D01*
X109480377Y-88270718D01*
X109360681Y-88307027D01*
X109270125Y-88344536D01*
X109159808Y-88403502D01*
X109078309Y-88457958D01*
X108992275Y-88528564D01*
X108959774Y-88496063D01*
X108790256Y-88382795D01*
X108601898Y-88304774D01*
X108401939Y-88265000D01*
X108198061Y-88265000D01*
X107998102Y-88304774D01*
X107809744Y-88382795D01*
X107640226Y-88496063D01*
X107496063Y-88640226D01*
X107382795Y-88809744D01*
X107304774Y-88998102D01*
X107269207Y-89176912D01*
X106762873Y-88670578D01*
X106765072Y-88648250D01*
X106765072Y-88135750D01*
X106748608Y-87968592D01*
X106699850Y-87807858D01*
X106620671Y-87659725D01*
X106596277Y-87630000D01*
X106620671Y-87600275D01*
X106699850Y-87452142D01*
X106748608Y-87291408D01*
X106765072Y-87124250D01*
X106765072Y-87082775D01*
X106787667Y-87085000D01*
X106787677Y-87085000D01*
X106825000Y-87088676D01*
X106862323Y-87085000D01*
X108930431Y-87085000D01*
X108937310Y-87093382D01*
X109006618Y-87162690D01*
X109103309Y-87242042D01*
X109184808Y-87296498D01*
X109295125Y-87355464D01*
X109385681Y-87392973D01*
X109505377Y-87429282D01*
X109601510Y-87448404D01*
X109725991Y-87460664D01*
X109750550Y-87460664D01*
X109775000Y-87463072D01*
X110275000Y-87463072D01*
X110299450Y-87460664D01*
X110324009Y-87460664D01*
X110448490Y-87448404D01*
X110544623Y-87429282D01*
X110664319Y-87392973D01*
X110754875Y-87355464D01*
X110865192Y-87296498D01*
X110946691Y-87242042D01*
X111043382Y-87162690D01*
X111112690Y-87093382D01*
X111192042Y-86996691D01*
X111246498Y-86915192D01*
X111305464Y-86804875D01*
X111342973Y-86714319D01*
X111379282Y-86594623D01*
X111398404Y-86498490D01*
X111410664Y-86374009D01*
X111410664Y-86349450D01*
X111413072Y-86325000D01*
X111413072Y-85825000D01*
X111400812Y-85700518D01*
X111393071Y-85675000D01*
X111400812Y-85649482D01*
X111413072Y-85525000D01*
X111413072Y-85025000D01*
X111410664Y-85000550D01*
X111410664Y-84975991D01*
X111398404Y-84851510D01*
X111379282Y-84755377D01*
X111342973Y-84635681D01*
X111305464Y-84545125D01*
X111246498Y-84434808D01*
X111192042Y-84353309D01*
X111112690Y-84256618D01*
X111043382Y-84187310D01*
X110946691Y-84107958D01*
X110865192Y-84053502D01*
X110754875Y-83994536D01*
X110664319Y-83957027D01*
X110544623Y-83920718D01*
X110488436Y-83909542D01*
X110549278Y-83795716D01*
X110596969Y-83638500D01*
X110613072Y-83475000D01*
X110613072Y-83075000D01*
X110596969Y-82911500D01*
X110549278Y-82754284D01*
X110471831Y-82609392D01*
X110367606Y-82482394D01*
X110328134Y-82450000D01*
X110367606Y-82417606D01*
X110471831Y-82290608D01*
X110549278Y-82145716D01*
X110596969Y-81988500D01*
X110613072Y-81825000D01*
X110613072Y-81425000D01*
X110596969Y-81261500D01*
X110549278Y-81104284D01*
X110471831Y-80959392D01*
X110367606Y-80832394D01*
X110240608Y-80728169D01*
X110095716Y-80650722D01*
X109938500Y-80603031D01*
X109775000Y-80586928D01*
X109225000Y-80586928D01*
X109061500Y-80603031D01*
X108904284Y-80650722D01*
X108759392Y-80728169D01*
X108632394Y-80832394D01*
X108588401Y-80886000D01*
X108082722Y-80886000D01*
X108172050Y-80848999D01*
X108341568Y-80735731D01*
X108485731Y-80591568D01*
X108598999Y-80422050D01*
X108677020Y-80233692D01*
X108716794Y-80033733D01*
X108716794Y-79829855D01*
X108677020Y-79629896D01*
X108598999Y-79441538D01*
X108485731Y-79272020D01*
X108441794Y-79228083D01*
X108441794Y-76383007D01*
X109539802Y-75285000D01*
X109601939Y-75285000D01*
X109801898Y-75245226D01*
X109990256Y-75167205D01*
X110159774Y-75053937D01*
X110303937Y-74909774D01*
X110417205Y-74740256D01*
X110495226Y-74551898D01*
X110535000Y-74351939D01*
X110535000Y-74148061D01*
X110495226Y-73948102D01*
X110417205Y-73759744D01*
X110303937Y-73590226D01*
X110159774Y-73446063D01*
X109990256Y-73332795D01*
X109801898Y-73254774D01*
X109601939Y-73215000D01*
X109398061Y-73215000D01*
X109198102Y-73254774D01*
X109009744Y-73332795D01*
X108840226Y-73446063D01*
X108696063Y-73590226D01*
X108582795Y-73759744D01*
X108504774Y-73948102D01*
X108465000Y-74148061D01*
X108465000Y-74210198D01*
X107170792Y-75504407D01*
X107141794Y-75528205D01*
X107117996Y-75557203D01*
X107117995Y-75557204D01*
X107046820Y-75643930D01*
X106976248Y-75775960D01*
X106932792Y-75919221D01*
X106918118Y-76068206D01*
X106921795Y-76105538D01*
X106921794Y-79228083D01*
X106877857Y-79272020D01*
X106764589Y-79441538D01*
X106686568Y-79629896D01*
X106646794Y-79829855D01*
X106646794Y-80033733D01*
X106686568Y-80233692D01*
X106764589Y-80422050D01*
X106877857Y-80591568D01*
X107022020Y-80735731D01*
X107191538Y-80848999D01*
X107280866Y-80886000D01*
X106597918Y-80886000D01*
X106514115Y-80783885D01*
X106449500Y-80730857D01*
X106449500Y-80690413D01*
X106453176Y-80653090D01*
X106449500Y-80615767D01*
X106449500Y-80615757D01*
X106438503Y-80504104D01*
X106395046Y-80360843D01*
X106324474Y-80228814D01*
X106229501Y-80113089D01*
X106200504Y-80089292D01*
X104626835Y-78515623D01*
X104628205Y-78508734D01*
X104628205Y-78304856D01*
X104588431Y-78104897D01*
X104510410Y-77916539D01*
X104397142Y-77747021D01*
X104353205Y-77703084D01*
X104353205Y-42594128D01*
X104356882Y-42556795D01*
X104342208Y-42407809D01*
X104298751Y-42264548D01*
X104228179Y-42132519D01*
X104157004Y-42045792D01*
X104133206Y-42016794D01*
X104104207Y-41992995D01*
X103760000Y-41648789D01*
X103760000Y-41357909D01*
X103882886Y-41275799D01*
X104000000Y-41158685D01*
X104117114Y-41275799D01*
X104343957Y-41427371D01*
X104596011Y-41531775D01*
X104863589Y-41585000D01*
X105136411Y-41585000D01*
X105403989Y-41531775D01*
X105656043Y-41427371D01*
X105882886Y-41275799D01*
X106075799Y-41082886D01*
X106227371Y-40856043D01*
X106331775Y-40603989D01*
X106385000Y-40336411D01*
X106385000Y-40063589D01*
X106331775Y-39796011D01*
X106323579Y-39776223D01*
X106586003Y-39513799D01*
X106615001Y-39490001D01*
X106709974Y-39374276D01*
X106780546Y-39242247D01*
X106824003Y-39098986D01*
X106835000Y-38987333D01*
X106838677Y-38950000D01*
X106835000Y-38912667D01*
X106835000Y-36019365D01*
X106867606Y-35992606D01*
X106971831Y-35865608D01*
X107049278Y-35720716D01*
X107096969Y-35563500D01*
X107113072Y-35400000D01*
X107113072Y-34850000D01*
X107096969Y-34686500D01*
X107049278Y-34529284D01*
X106971831Y-34384392D01*
X106867606Y-34257394D01*
X106740608Y-34153169D01*
X106595716Y-34075722D01*
X106438500Y-34028031D01*
X106275000Y-34011928D01*
X105875000Y-34011928D01*
X105711500Y-34028031D01*
X105554284Y-34075722D01*
X105409392Y-34153169D01*
X105282394Y-34257394D01*
X105250000Y-34296866D01*
X105217606Y-34257394D01*
X105090608Y-34153169D01*
X104945716Y-34075722D01*
X104788500Y-34028031D01*
X104625000Y-34011928D01*
X104225000Y-34011928D01*
X104061500Y-34028031D01*
X103904284Y-34075722D01*
X103759392Y-34153169D01*
X103632394Y-34257394D01*
X103528169Y-34384392D01*
X103450722Y-34529284D01*
X103403031Y-34686500D01*
X103386928Y-34850000D01*
X103386928Y-35213270D01*
X101413997Y-37186202D01*
X101384999Y-37210000D01*
X101361201Y-37238998D01*
X101361200Y-37238999D01*
X101290025Y-37325725D01*
X101219453Y-37457755D01*
X101175997Y-37601016D01*
X101161323Y-37750001D01*
X101165000Y-37787333D01*
X101164999Y-38820687D01*
X101136411Y-38815000D01*
X100863589Y-38815000D01*
X100596011Y-38868225D01*
X100343957Y-38972629D01*
X100117114Y-39124201D01*
X100000000Y-39241315D01*
X99882886Y-39124201D01*
X99656043Y-38972629D01*
X99403989Y-38868225D01*
X99136411Y-38815000D01*
X98863589Y-38815000D01*
X98596011Y-38868225D01*
X98343957Y-38972629D01*
X98117114Y-39124201D01*
X98000000Y-39241315D01*
X97882886Y-39124201D01*
X97656043Y-38972629D01*
X97403989Y-38868225D01*
X97136411Y-38815000D01*
X96863589Y-38815000D01*
X96596011Y-38868225D01*
X96343957Y-38972629D01*
X96117114Y-39124201D01*
X96000000Y-39241315D01*
X95882886Y-39124201D01*
X95656043Y-38972629D01*
X95403989Y-38868225D01*
X95136411Y-38815000D01*
X94863589Y-38815000D01*
X94596011Y-38868225D01*
X94343957Y-38972629D01*
X94117114Y-39124201D01*
X93924201Y-39317114D01*
X93842091Y-39440000D01*
X93081322Y-39440000D01*
X93043999Y-39436324D01*
X93006676Y-39440000D01*
X93006667Y-39440000D01*
X92895014Y-39450997D01*
X92766433Y-39490001D01*
X92751753Y-39494454D01*
X92619723Y-39565026D01*
X92536083Y-39633668D01*
X92503999Y-39659999D01*
X92480201Y-39688997D01*
X85660000Y-46509199D01*
X85660000Y-28350000D01*
X90711928Y-28350000D01*
X90711928Y-32050000D01*
X90724188Y-32174482D01*
X90760498Y-32294180D01*
X90819463Y-32404494D01*
X90898815Y-32501185D01*
X90995506Y-32580537D01*
X91105820Y-32639502D01*
X91225518Y-32675812D01*
X91350000Y-32688072D01*
X93350000Y-32688072D01*
X93474482Y-32675812D01*
X93594180Y-32639502D01*
X93704494Y-32580537D01*
X93801185Y-32501185D01*
X93880537Y-32404494D01*
X93939502Y-32294180D01*
X93975812Y-32174482D01*
X93988072Y-32050000D01*
X93988072Y-28350000D01*
X106011928Y-28350000D01*
X106011928Y-32050000D01*
X106024188Y-32174482D01*
X106060498Y-32294180D01*
X106119463Y-32404494D01*
X106198815Y-32501185D01*
X106295506Y-32580537D01*
X106405820Y-32639502D01*
X106525518Y-32675812D01*
X106650000Y-32688072D01*
X108650000Y-32688072D01*
X108774482Y-32675812D01*
X108894180Y-32639502D01*
X109004494Y-32580537D01*
X109101185Y-32501185D01*
X109180537Y-32404494D01*
X109239502Y-32294180D01*
X109275812Y-32174482D01*
X109288072Y-32050000D01*
X109288072Y-28350000D01*
X109275812Y-28225518D01*
X109239502Y-28105820D01*
X109180537Y-27995506D01*
X109101185Y-27898815D01*
X109004494Y-27819463D01*
X108894180Y-27760498D01*
X108774482Y-27724188D01*
X108650000Y-27711928D01*
X106650000Y-27711928D01*
X106525518Y-27724188D01*
X106405820Y-27760498D01*
X106295506Y-27819463D01*
X106198815Y-27898815D01*
X106119463Y-27995506D01*
X106060498Y-28105820D01*
X106024188Y-28225518D01*
X106011928Y-28350000D01*
X93988072Y-28350000D01*
X93975812Y-28225518D01*
X93939502Y-28105820D01*
X93880537Y-27995506D01*
X93801185Y-27898815D01*
X93704494Y-27819463D01*
X93594180Y-27760498D01*
X93474482Y-27724188D01*
X93350000Y-27711928D01*
X91350000Y-27711928D01*
X91225518Y-27724188D01*
X91105820Y-27760498D01*
X90995506Y-27819463D01*
X90898815Y-27898815D01*
X90819463Y-27995506D01*
X90760498Y-28105820D01*
X90724188Y-28225518D01*
X90711928Y-28350000D01*
X85660000Y-28350000D01*
X85660000Y-20660000D01*
X114340000Y-20660000D01*
X114340001Y-119340000D01*
%TA.AperFunction,Conductor*%
D22*
G36*
X114340001Y-119340000D02*
G01*
X85660000Y-119340000D01*
X85660000Y-102975000D01*
X94386928Y-102975000D01*
X94399188Y-103099482D01*
X94435498Y-103219180D01*
X94494463Y-103329494D01*
X94573815Y-103426185D01*
X94670506Y-103505537D01*
X94780820Y-103564502D01*
X94900518Y-103600812D01*
X95025000Y-103613072D01*
X95214250Y-103610000D01*
X95373000Y-103451250D01*
X95373000Y-102664500D01*
X94548750Y-102664500D01*
X94390000Y-102823250D01*
X94386928Y-102975000D01*
X85660000Y-102975000D01*
X85660000Y-100962841D01*
X87014250Y-100960000D01*
X87173000Y-100801250D01*
X87173000Y-99652000D01*
X87427000Y-99652000D01*
X87427000Y-100801250D01*
X87585750Y-100960000D01*
X89050000Y-100963072D01*
X89174482Y-100950812D01*
X89294180Y-100914502D01*
X89404494Y-100855537D01*
X89501185Y-100776185D01*
X89580537Y-100679494D01*
X89639502Y-100569180D01*
X89675812Y-100449482D01*
X89688072Y-100325000D01*
X89685000Y-99810750D01*
X89526250Y-99652000D01*
X87427000Y-99652000D01*
X87173000Y-99652000D01*
X87153000Y-99652000D01*
X87153000Y-99398000D01*
X87173000Y-99398000D01*
X87173000Y-98248750D01*
X87427000Y-98248750D01*
X87427000Y-99398000D01*
X89526250Y-99398000D01*
X89685000Y-99239250D01*
X89688072Y-98725000D01*
X89675812Y-98600518D01*
X89639502Y-98480820D01*
X89580537Y-98370506D01*
X89501185Y-98273815D01*
X89404494Y-98194463D01*
X89294180Y-98135498D01*
X89174482Y-98099188D01*
X89050000Y-98086928D01*
X87585750Y-98090000D01*
X87427000Y-98248750D01*
X87173000Y-98248750D01*
X87014250Y-98090000D01*
X85660000Y-98087159D01*
X85660000Y-89014801D01*
X91390200Y-94745002D01*
X91413999Y-94774001D01*
X91442997Y-94797799D01*
X91598997Y-94953799D01*
X91599003Y-94953804D01*
X95885198Y-99240000D01*
X95814801Y-99240000D01*
X95631804Y-99057003D01*
X95608001Y-99027999D01*
X95492276Y-98933026D01*
X95360247Y-98862454D01*
X95216986Y-98818997D01*
X95105333Y-98808000D01*
X95105322Y-98808000D01*
X95071294Y-98804648D01*
X95071008Y-98801746D01*
X95020472Y-98635150D01*
X94938405Y-98481614D01*
X94827962Y-98347038D01*
X94693386Y-98236595D01*
X94539850Y-98154528D01*
X94373254Y-98103992D01*
X94200000Y-98086928D01*
X91200000Y-98086928D01*
X91026746Y-98103992D01*
X90860150Y-98154528D01*
X90706614Y-98236595D01*
X90572038Y-98347038D01*
X90461595Y-98481614D01*
X90379528Y-98635150D01*
X90328992Y-98801746D01*
X90311928Y-98975000D01*
X90311928Y-100075000D01*
X90328992Y-100248254D01*
X90379528Y-100414850D01*
X90461595Y-100568386D01*
X90572038Y-100702962D01*
X90706614Y-100813405D01*
X90860150Y-100895472D01*
X91026746Y-100946008D01*
X91200000Y-100963072D01*
X94200000Y-100963072D01*
X94373254Y-100946008D01*
X94386928Y-100941860D01*
X94386928Y-101181250D01*
X94403392Y-101348408D01*
X94452150Y-101509142D01*
X94531329Y-101657275D01*
X94549100Y-101678930D01*
X94494463Y-101745506D01*
X94435498Y-101855820D01*
X94399188Y-101975518D01*
X94386928Y-102100000D01*
X94390000Y-102251750D01*
X94548750Y-102410500D01*
X95373000Y-102410500D01*
X95373000Y-102390500D01*
X95627000Y-102390500D01*
X95627000Y-102410500D01*
X95647000Y-102410500D01*
X95647000Y-102664500D01*
X95627000Y-102664500D01*
X95627000Y-103451250D01*
X95785750Y-103610000D01*
X95916643Y-103612125D01*
X95911928Y-103660000D01*
X95911928Y-103960000D01*
X95927071Y-104113745D01*
X95971916Y-104261582D01*
X96044742Y-104397829D01*
X96142749Y-104517251D01*
X96262171Y-104615258D01*
X96398418Y-104688084D01*
X96546255Y-104732929D01*
X96626386Y-104740821D01*
X96615000Y-104798061D01*
X96615000Y-105001939D01*
X96654774Y-105201898D01*
X96732795Y-105390256D01*
X96846063Y-105559774D01*
X96990226Y-105703937D01*
X97159744Y-105817205D01*
X97348102Y-105895226D01*
X97548061Y-105935000D01*
X97751939Y-105935000D01*
X97951898Y-105895226D01*
X98140256Y-105817205D01*
X98309774Y-105703937D01*
X98453937Y-105559774D01*
X98567205Y-105390256D01*
X98645226Y-105201898D01*
X98685000Y-105001939D01*
X98685000Y-104798061D01*
X98662015Y-104682507D01*
X98787829Y-104615258D01*
X98907251Y-104517251D01*
X99005258Y-104397829D01*
X99078084Y-104261582D01*
X99090001Y-104222298D01*
X99090000Y-107760198D01*
X95713988Y-111136211D01*
X95684990Y-111160009D01*
X95661192Y-111189007D01*
X95661191Y-111189008D01*
X95590016Y-111275734D01*
X95519444Y-111407764D01*
X95506413Y-111450724D01*
X95475987Y-111551024D01*
X95464990Y-111662677D01*
X95464990Y-111662688D01*
X95461314Y-111700010D01*
X95464990Y-111737332D01*
X95464990Y-112110208D01*
X95243972Y-112331227D01*
X95061345Y-112294900D01*
X94778655Y-112294900D01*
X94501397Y-112350050D01*
X94240225Y-112458231D01*
X94005177Y-112615285D01*
X93805285Y-112815177D01*
X93648231Y-113050225D01*
X93540050Y-113311397D01*
X93484900Y-113588655D01*
X93484900Y-113871345D01*
X93540050Y-114148603D01*
X93648231Y-114409775D01*
X93805285Y-114644823D01*
X94005177Y-114844715D01*
X94160001Y-114948165D01*
X94160000Y-115051835D01*
X94005177Y-115155285D01*
X93805285Y-115355177D01*
X93648231Y-115590225D01*
X93540050Y-115851397D01*
X93484900Y-116128655D01*
X93484900Y-116411345D01*
X93540050Y-116688603D01*
X93648231Y-116949775D01*
X93805285Y-117184823D01*
X94005177Y-117384715D01*
X94240225Y-117541769D01*
X94501397Y-117649950D01*
X94778655Y-117705100D01*
X95061345Y-117705100D01*
X95338603Y-117649950D01*
X95599775Y-117541769D01*
X95834823Y-117384715D01*
X95956764Y-117262774D01*
X96646831Y-117262774D01*
X96718426Y-117506754D01*
X96973954Y-117627664D01*
X97248161Y-117696400D01*
X97530508Y-117710320D01*
X97810147Y-117668889D01*
X98076328Y-117573700D01*
X98201574Y-117506754D01*
X98273169Y-117262774D01*
X99186831Y-117262774D01*
X99258426Y-117506754D01*
X99513954Y-117627664D01*
X99788161Y-117696400D01*
X100070508Y-117710320D01*
X100350147Y-117668889D01*
X100616328Y-117573700D01*
X100741574Y-117506754D01*
X100813169Y-117262774D01*
X101726831Y-117262774D01*
X101798426Y-117506754D01*
X102053954Y-117627664D01*
X102328161Y-117696400D01*
X102610508Y-117710320D01*
X102890147Y-117668889D01*
X103156328Y-117573700D01*
X103281574Y-117506754D01*
X103353169Y-117262774D01*
X102540000Y-116449605D01*
X101726831Y-117262774D01*
X100813169Y-117262774D01*
X100000000Y-116449605D01*
X99186831Y-117262774D01*
X98273169Y-117262774D01*
X97460000Y-116449605D01*
X96646831Y-117262774D01*
X95956764Y-117262774D01*
X96034715Y-117184823D01*
X96190905Y-116951068D01*
X96223246Y-117011574D01*
X96467226Y-117083169D01*
X97280395Y-116270000D01*
X97639605Y-116270000D01*
X98452774Y-117083169D01*
X98696754Y-117011574D01*
X98727976Y-116945590D01*
X98763246Y-117011574D01*
X99007226Y-117083169D01*
X99820395Y-116270000D01*
X100179605Y-116270000D01*
X100992774Y-117083169D01*
X101236754Y-117011574D01*
X101267976Y-116945590D01*
X101303246Y-117011574D01*
X101547226Y-117083169D01*
X102360395Y-116270000D01*
X101547226Y-115456831D01*
X101303246Y-115528426D01*
X101272024Y-115594410D01*
X101236754Y-115528426D01*
X100992774Y-115456831D01*
X100179605Y-116270000D01*
X99820395Y-116270000D01*
X99007226Y-115456831D01*
X98763246Y-115528426D01*
X98732024Y-115594410D01*
X98696754Y-115528426D01*
X98452774Y-115456831D01*
X97639605Y-116270000D01*
X97280395Y-116270000D01*
X96467226Y-115456831D01*
X96223246Y-115528426D01*
X96192812Y-115592744D01*
X96191769Y-115590225D01*
X96034715Y-115355177D01*
X95834823Y-115155285D01*
X95680000Y-115051836D01*
X95680000Y-114948164D01*
X95834823Y-114844715D01*
X95956764Y-114722774D01*
X96646831Y-114722774D01*
X96718426Y-114966754D01*
X96784410Y-114997976D01*
X96718426Y-115033246D01*
X96646831Y-115277226D01*
X97460000Y-116090395D01*
X98273169Y-115277226D01*
X98201574Y-115033246D01*
X98135590Y-115002024D01*
X98201574Y-114966754D01*
X98273169Y-114722774D01*
X99186831Y-114722774D01*
X99258426Y-114966754D01*
X99324410Y-114997976D01*
X99258426Y-115033246D01*
X99186831Y-115277226D01*
X100000000Y-116090395D01*
X100813169Y-115277226D01*
X100741574Y-115033246D01*
X100675590Y-115002024D01*
X100741574Y-114966754D01*
X100813169Y-114722774D01*
X101726831Y-114722774D01*
X101798426Y-114966754D01*
X101864410Y-114997976D01*
X101798426Y-115033246D01*
X101726831Y-115277226D01*
X102540000Y-116090395D01*
X103353169Y-115277226D01*
X103281574Y-115033246D01*
X103215590Y-115002024D01*
X103281574Y-114966754D01*
X103353169Y-114722774D01*
X102540000Y-113909605D01*
X101726831Y-114722774D01*
X100813169Y-114722774D01*
X100000000Y-113909605D01*
X99186831Y-114722774D01*
X98273169Y-114722774D01*
X97460000Y-113909605D01*
X96646831Y-114722774D01*
X95956764Y-114722774D01*
X96034715Y-114644823D01*
X96190905Y-114411068D01*
X96223246Y-114471574D01*
X96467226Y-114543169D01*
X97280395Y-113730000D01*
X97639605Y-113730000D01*
X98452774Y-114543169D01*
X98696754Y-114471574D01*
X98727976Y-114405590D01*
X98763246Y-114471574D01*
X99007226Y-114543169D01*
X99820395Y-113730000D01*
X100179605Y-113730000D01*
X100992774Y-114543169D01*
X101236754Y-114471574D01*
X101267976Y-114405590D01*
X101303246Y-114471574D01*
X101547226Y-114543169D01*
X102360395Y-113730000D01*
X101547226Y-112916831D01*
X101303246Y-112988426D01*
X101272024Y-113054410D01*
X101236754Y-112988426D01*
X100992774Y-112916831D01*
X100179605Y-113730000D01*
X99820395Y-113730000D01*
X99007226Y-112916831D01*
X98763246Y-112988426D01*
X98732024Y-113054410D01*
X98696754Y-112988426D01*
X98452774Y-112916831D01*
X97639605Y-113730000D01*
X97280395Y-113730000D01*
X97266253Y-113715858D01*
X97445858Y-113536253D01*
X97460000Y-113550395D01*
X98273169Y-112737226D01*
X99186831Y-112737226D01*
X100000000Y-113550395D01*
X100813169Y-112737226D01*
X100741574Y-112493246D01*
X100486046Y-112372336D01*
X100211839Y-112303600D01*
X99929492Y-112289680D01*
X99649853Y-112331111D01*
X99383672Y-112426300D01*
X99258426Y-112493246D01*
X99186831Y-112737226D01*
X98273169Y-112737226D01*
X98201574Y-112493246D01*
X97946046Y-112372336D01*
X97671839Y-112303600D01*
X97389492Y-112289680D01*
X97109853Y-112331111D01*
X96984990Y-112375763D01*
X96984990Y-112014811D01*
X99540011Y-109459791D01*
X99540011Y-110362678D01*
X99536334Y-110400010D01*
X99551008Y-110548995D01*
X99594464Y-110692256D01*
X99665036Y-110824286D01*
X99736211Y-110911012D01*
X99760010Y-110940011D01*
X99789008Y-110963809D01*
X101211200Y-112386002D01*
X101234999Y-112415001D01*
X101350724Y-112509974D01*
X101482753Y-112580546D01*
X101626014Y-112624003D01*
X101737667Y-112635000D01*
X101737677Y-112635000D01*
X101756291Y-112636833D01*
X101726831Y-112737226D01*
X102540000Y-113550395D01*
X102554143Y-113536253D01*
X102733748Y-113715858D01*
X102719605Y-113730000D01*
X103532774Y-114543169D01*
X103776754Y-114471574D01*
X103807188Y-114407256D01*
X103808231Y-114409775D01*
X103965285Y-114644823D01*
X104165177Y-114844715D01*
X104320001Y-114948165D01*
X104320000Y-115051835D01*
X104165177Y-115155285D01*
X103965285Y-115355177D01*
X103809095Y-115588932D01*
X103776754Y-115528426D01*
X103532774Y-115456831D01*
X102719605Y-116270000D01*
X103532774Y-117083169D01*
X103776754Y-117011574D01*
X103807188Y-116947256D01*
X103808231Y-116949775D01*
X103965285Y-117184823D01*
X104165177Y-117384715D01*
X104400225Y-117541769D01*
X104661397Y-117649950D01*
X104938655Y-117705100D01*
X105221345Y-117705100D01*
X105498603Y-117649950D01*
X105759775Y-117541769D01*
X105994823Y-117384715D01*
X106194715Y-117184823D01*
X106351769Y-116949775D01*
X106459950Y-116688603D01*
X106515100Y-116411345D01*
X106515100Y-116128655D01*
X106459950Y-115851397D01*
X106351769Y-115590225D01*
X106194715Y-115355177D01*
X105994823Y-115155285D01*
X105840000Y-115051836D01*
X105840000Y-114948164D01*
X105994823Y-114844715D01*
X106194715Y-114644823D01*
X106351769Y-114409775D01*
X106459950Y-114148603D01*
X106515100Y-113871345D01*
X106515100Y-113588655D01*
X106459950Y-113311397D01*
X106351769Y-113050225D01*
X106194715Y-112815177D01*
X105994823Y-112615285D01*
X105759775Y-112458231D01*
X105498603Y-112350050D01*
X105221345Y-112294900D01*
X104938655Y-112294900D01*
X104756028Y-112331227D01*
X103788804Y-111364003D01*
X103765001Y-111334999D01*
X103649276Y-111240026D01*
X103517247Y-111169454D01*
X103373986Y-111125997D01*
X103262333Y-111115000D01*
X103262322Y-111115000D01*
X103225000Y-111111324D01*
X103187678Y-111115000D01*
X102089802Y-111115000D01*
X101060010Y-110085209D01*
X101060010Y-107134811D01*
X102021403Y-108096205D01*
X102024188Y-108124482D01*
X102060498Y-108244180D01*
X102119463Y-108354494D01*
X102198815Y-108451185D01*
X102295506Y-108530537D01*
X102405820Y-108589502D01*
X102525518Y-108625812D01*
X102650000Y-108638072D01*
X103150000Y-108638072D01*
X103274482Y-108625812D01*
X103394180Y-108589502D01*
X103504494Y-108530537D01*
X103601185Y-108451185D01*
X103680537Y-108354494D01*
X103739502Y-108244180D01*
X103775812Y-108124482D01*
X103788072Y-108000000D01*
X103788072Y-107500000D01*
X103775812Y-107375518D01*
X103739502Y-107255820D01*
X103680537Y-107145506D01*
X103601185Y-107048815D01*
X103504494Y-106969463D01*
X103394180Y-106910498D01*
X103274482Y-106874188D01*
X103150000Y-106861928D01*
X102936730Y-106861928D01*
X101934990Y-105860189D01*
X101934990Y-104748072D01*
X102338271Y-104748072D01*
X104340001Y-106749804D01*
X104340000Y-107120481D01*
X104319463Y-107145506D01*
X104260498Y-107255820D01*
X104224188Y-107375518D01*
X104211928Y-107500000D01*
X104211928Y-108000000D01*
X104224188Y-108124482D01*
X104260498Y-108244180D01*
X104319463Y-108354494D01*
X104398815Y-108451185D01*
X104495506Y-108530537D01*
X104605820Y-108589502D01*
X104725518Y-108625812D01*
X104850000Y-108638072D01*
X105350000Y-108638072D01*
X105474482Y-108625812D01*
X105594180Y-108589502D01*
X105704494Y-108530537D01*
X105801185Y-108451185D01*
X105880537Y-108354494D01*
X105902810Y-108312825D01*
X105903997Y-108313799D01*
X105990723Y-108384974D01*
X106114594Y-108451185D01*
X106122753Y-108455546D01*
X106266014Y-108499003D01*
X106377667Y-108510000D01*
X106377677Y-108510000D01*
X106415000Y-108513676D01*
X106452323Y-108510000D01*
X109520482Y-108510000D01*
X109545506Y-108530537D01*
X109655820Y-108589502D01*
X109775518Y-108625812D01*
X109900000Y-108638072D01*
X110400000Y-108638072D01*
X110524482Y-108625812D01*
X110644180Y-108589502D01*
X110754494Y-108530537D01*
X110851185Y-108451185D01*
X110930537Y-108354494D01*
X110989502Y-108244180D01*
X111025812Y-108124482D01*
X111038072Y-108000000D01*
X111038072Y-107500000D01*
X111025812Y-107375518D01*
X110989502Y-107255820D01*
X110930537Y-107145506D01*
X110851185Y-107048815D01*
X110754494Y-106969463D01*
X110644180Y-106910498D01*
X110524482Y-106874188D01*
X110400000Y-106861928D01*
X109900000Y-106861928D01*
X109775518Y-106874188D01*
X109655820Y-106910498D01*
X109545506Y-106969463D01*
X109520482Y-106990000D01*
X106729802Y-106990000D01*
X105663803Y-105924002D01*
X105640001Y-105894999D01*
X105610998Y-105871197D01*
X105508808Y-105769007D01*
X105508799Y-105768996D01*
X104190684Y-104450883D01*
X104214250Y-104450500D01*
X104373000Y-104291750D01*
X104373000Y-103505000D01*
X104627000Y-103505000D01*
X104627000Y-104291750D01*
X104785750Y-104450500D01*
X104975000Y-104453572D01*
X105099482Y-104441312D01*
X105219180Y-104405002D01*
X105329494Y-104346037D01*
X105426185Y-104266685D01*
X105505537Y-104169994D01*
X105564502Y-104059680D01*
X105600812Y-103939982D01*
X105613072Y-103815500D01*
X105610000Y-103663750D01*
X105451250Y-103505000D01*
X104627000Y-103505000D01*
X104373000Y-103505000D01*
X104353000Y-103505000D01*
X104353000Y-103325510D01*
X107147168Y-103325510D01*
X107184490Y-103329186D01*
X107221812Y-103325510D01*
X107221823Y-103325510D01*
X107333476Y-103314513D01*
X107476737Y-103271056D01*
X107608766Y-103200484D01*
X107724491Y-103105511D01*
X107748293Y-103076508D01*
X108498748Y-102326054D01*
X108498748Y-102971415D01*
X108495071Y-103008747D01*
X108498748Y-103046080D01*
X108509745Y-103157733D01*
X108514975Y-103174974D01*
X108553201Y-103300993D01*
X108623773Y-103433023D01*
X108687542Y-103510725D01*
X108718747Y-103548748D01*
X108747745Y-103572546D01*
X109061201Y-103886002D01*
X111590001Y-106414803D01*
X111590000Y-107120481D01*
X111569463Y-107145506D01*
X111510498Y-107255820D01*
X111474188Y-107375518D01*
X111461928Y-107500000D01*
X111461928Y-108000000D01*
X111474188Y-108124482D01*
X111510498Y-108244180D01*
X111569463Y-108354494D01*
X111648815Y-108451185D01*
X111745506Y-108530537D01*
X111855820Y-108589502D01*
X111975518Y-108625812D01*
X112100000Y-108638072D01*
X112600000Y-108638072D01*
X112724482Y-108625812D01*
X112844180Y-108589502D01*
X112954494Y-108530537D01*
X113051185Y-108451185D01*
X113130537Y-108354494D01*
X113189502Y-108244180D01*
X113225812Y-108124482D01*
X113238072Y-108000000D01*
X113238072Y-107500000D01*
X113225812Y-107375518D01*
X113189502Y-107255820D01*
X113130537Y-107145506D01*
X113110000Y-107120482D01*
X113110000Y-106137325D01*
X113113676Y-106100000D01*
X113110000Y-106062675D01*
X113110000Y-106062667D01*
X113099003Y-105951014D01*
X113055546Y-105807753D01*
X112984974Y-105675724D01*
X112890001Y-105559999D01*
X112861003Y-105536201D01*
X110136002Y-102811201D01*
X110018747Y-102693946D01*
X110018747Y-101259823D01*
X111364250Y-101257000D01*
X111523000Y-101098250D01*
X111523000Y-99949000D01*
X111777000Y-99949000D01*
X111777000Y-101098250D01*
X111935750Y-101257000D01*
X113400000Y-101260072D01*
X113524482Y-101247812D01*
X113644180Y-101211502D01*
X113754494Y-101152537D01*
X113851185Y-101073185D01*
X113930537Y-100976494D01*
X113989502Y-100866180D01*
X114025812Y-100746482D01*
X114038072Y-100622000D01*
X114035000Y-100107750D01*
X113876250Y-99949000D01*
X111777000Y-99949000D01*
X111523000Y-99949000D01*
X111503000Y-99949000D01*
X111503000Y-99695000D01*
X111523000Y-99695000D01*
X111523000Y-98545750D01*
X111777000Y-98545750D01*
X111777000Y-99695000D01*
X113876250Y-99695000D01*
X114035000Y-99536250D01*
X114038072Y-99022000D01*
X114025812Y-98897518D01*
X113989502Y-98777820D01*
X113930537Y-98667506D01*
X113851185Y-98570815D01*
X113754494Y-98491463D01*
X113644180Y-98432498D01*
X113524482Y-98396188D01*
X113400000Y-98383928D01*
X111935750Y-98387000D01*
X111777000Y-98545750D01*
X111523000Y-98545750D01*
X111364250Y-98387000D01*
X110018747Y-98384177D01*
X110018747Y-93069224D01*
X110098061Y-93085000D01*
X110301939Y-93085000D01*
X110501898Y-93045226D01*
X110690256Y-92967205D01*
X110859774Y-92853937D01*
X111003937Y-92709774D01*
X111117205Y-92540256D01*
X111195226Y-92351898D01*
X111235000Y-92151939D01*
X111235000Y-91948061D01*
X111195226Y-91748102D01*
X111117205Y-91559744D01*
X111058775Y-91472297D01*
X111087690Y-91443382D01*
X111167042Y-91346691D01*
X111221498Y-91265192D01*
X111280464Y-91154875D01*
X111317973Y-91064319D01*
X111354282Y-90944623D01*
X111373404Y-90848490D01*
X111385664Y-90724009D01*
X111385664Y-90699450D01*
X111388072Y-90675000D01*
X111388072Y-90175000D01*
X111375812Y-90050518D01*
X111368071Y-90025000D01*
X111375812Y-89999482D01*
X111388072Y-89875000D01*
X111388072Y-89375000D01*
X111385664Y-89350550D01*
X111385664Y-89325991D01*
X111373404Y-89201510D01*
X111354282Y-89105377D01*
X111317973Y-88985681D01*
X111280464Y-88895125D01*
X111221498Y-88784808D01*
X111167042Y-88703309D01*
X111087690Y-88606618D01*
X111018382Y-88537310D01*
X110921691Y-88457958D01*
X110840192Y-88403502D01*
X110729875Y-88344536D01*
X110639319Y-88307027D01*
X110519623Y-88270718D01*
X110423490Y-88251596D01*
X110299009Y-88239336D01*
X110274450Y-88239336D01*
X110250000Y-88236928D01*
X109750000Y-88236928D01*
X109725550Y-88239336D01*
X109700991Y-88239336D01*
X109576510Y-88251596D01*
X109480377Y-88270718D01*
X109360681Y-88307027D01*
X109270125Y-88344536D01*
X109159808Y-88403502D01*
X109078309Y-88457958D01*
X108992275Y-88528564D01*
X108959774Y-88496063D01*
X108790256Y-88382795D01*
X108601898Y-88304774D01*
X108401939Y-88265000D01*
X108198061Y-88265000D01*
X107998102Y-88304774D01*
X107809744Y-88382795D01*
X107640226Y-88496063D01*
X107496063Y-88640226D01*
X107382795Y-88809744D01*
X107304774Y-88998102D01*
X107269207Y-89176912D01*
X106762873Y-88670578D01*
X106765072Y-88648250D01*
X106765072Y-88135750D01*
X106748608Y-87968592D01*
X106699850Y-87807858D01*
X106620671Y-87659725D01*
X106596277Y-87630000D01*
X106620671Y-87600275D01*
X106699850Y-87452142D01*
X106748608Y-87291408D01*
X106765072Y-87124250D01*
X106765072Y-87082775D01*
X106787667Y-87085000D01*
X106787677Y-87085000D01*
X106825000Y-87088676D01*
X106862323Y-87085000D01*
X108930431Y-87085000D01*
X108937310Y-87093382D01*
X109006618Y-87162690D01*
X109103309Y-87242042D01*
X109184808Y-87296498D01*
X109295125Y-87355464D01*
X109385681Y-87392973D01*
X109505377Y-87429282D01*
X109601510Y-87448404D01*
X109725991Y-87460664D01*
X109750550Y-87460664D01*
X109775000Y-87463072D01*
X110275000Y-87463072D01*
X110299450Y-87460664D01*
X110324009Y-87460664D01*
X110448490Y-87448404D01*
X110544623Y-87429282D01*
X110664319Y-87392973D01*
X110754875Y-87355464D01*
X110865192Y-87296498D01*
X110946691Y-87242042D01*
X111043382Y-87162690D01*
X111112690Y-87093382D01*
X111192042Y-86996691D01*
X111246498Y-86915192D01*
X111305464Y-86804875D01*
X111342973Y-86714319D01*
X111379282Y-86594623D01*
X111398404Y-86498490D01*
X111410664Y-86374009D01*
X111410664Y-86349450D01*
X111413072Y-86325000D01*
X111413072Y-85825000D01*
X111400812Y-85700518D01*
X111393071Y-85675000D01*
X111400812Y-85649482D01*
X111413072Y-85525000D01*
X111413072Y-85025000D01*
X111410664Y-85000550D01*
X111410664Y-84975991D01*
X111398404Y-84851510D01*
X111379282Y-84755377D01*
X111342973Y-84635681D01*
X111305464Y-84545125D01*
X111246498Y-84434808D01*
X111192042Y-84353309D01*
X111112690Y-84256618D01*
X111043382Y-84187310D01*
X110946691Y-84107958D01*
X110865192Y-84053502D01*
X110754875Y-83994536D01*
X110664319Y-83957027D01*
X110544623Y-83920718D01*
X110488436Y-83909542D01*
X110549278Y-83795716D01*
X110596969Y-83638500D01*
X110613072Y-83475000D01*
X110613072Y-83075000D01*
X110596969Y-82911500D01*
X110549278Y-82754284D01*
X110471831Y-82609392D01*
X110367606Y-82482394D01*
X110328134Y-82450000D01*
X110367606Y-82417606D01*
X110471831Y-82290608D01*
X110549278Y-82145716D01*
X110596969Y-81988500D01*
X110613072Y-81825000D01*
X110613072Y-81425000D01*
X110596969Y-81261500D01*
X110549278Y-81104284D01*
X110471831Y-80959392D01*
X110367606Y-80832394D01*
X110240608Y-80728169D01*
X110095716Y-80650722D01*
X109938500Y-80603031D01*
X109775000Y-80586928D01*
X109225000Y-80586928D01*
X109061500Y-80603031D01*
X108904284Y-80650722D01*
X108759392Y-80728169D01*
X108632394Y-80832394D01*
X108588401Y-80886000D01*
X108082722Y-80886000D01*
X108172050Y-80848999D01*
X108341568Y-80735731D01*
X108485731Y-80591568D01*
X108598999Y-80422050D01*
X108677020Y-80233692D01*
X108716794Y-80033733D01*
X108716794Y-79829855D01*
X108677020Y-79629896D01*
X108598999Y-79441538D01*
X108485731Y-79272020D01*
X108441794Y-79228083D01*
X108441794Y-76383007D01*
X109539802Y-75285000D01*
X109601939Y-75285000D01*
X109801898Y-75245226D01*
X109990256Y-75167205D01*
X110159774Y-75053937D01*
X110303937Y-74909774D01*
X110417205Y-74740256D01*
X110495226Y-74551898D01*
X110535000Y-74351939D01*
X110535000Y-74148061D01*
X110495226Y-73948102D01*
X110417205Y-73759744D01*
X110303937Y-73590226D01*
X110159774Y-73446063D01*
X109990256Y-73332795D01*
X109801898Y-73254774D01*
X109601939Y-73215000D01*
X109398061Y-73215000D01*
X109198102Y-73254774D01*
X109009744Y-73332795D01*
X108840226Y-73446063D01*
X108696063Y-73590226D01*
X108582795Y-73759744D01*
X108504774Y-73948102D01*
X108465000Y-74148061D01*
X108465000Y-74210198D01*
X107170792Y-75504407D01*
X107141794Y-75528205D01*
X107117996Y-75557203D01*
X107117995Y-75557204D01*
X107046820Y-75643930D01*
X106976248Y-75775960D01*
X106932792Y-75919221D01*
X106918118Y-76068206D01*
X106921795Y-76105538D01*
X106921794Y-79228083D01*
X106877857Y-79272020D01*
X106764589Y-79441538D01*
X106686568Y-79629896D01*
X106646794Y-79829855D01*
X106646794Y-80033733D01*
X106686568Y-80233692D01*
X106764589Y-80422050D01*
X106877857Y-80591568D01*
X107022020Y-80735731D01*
X107191538Y-80848999D01*
X107280866Y-80886000D01*
X106597918Y-80886000D01*
X106514115Y-80783885D01*
X106449500Y-80730857D01*
X106449500Y-80690413D01*
X106453176Y-80653090D01*
X106449500Y-80615767D01*
X106449500Y-80615757D01*
X106438503Y-80504104D01*
X106395046Y-80360843D01*
X106324474Y-80228814D01*
X106229501Y-80113089D01*
X106200504Y-80089292D01*
X104626835Y-78515623D01*
X104628205Y-78508734D01*
X104628205Y-78304856D01*
X104588431Y-78104897D01*
X104510410Y-77916539D01*
X104397142Y-77747021D01*
X104353205Y-77703084D01*
X104353205Y-42594128D01*
X104356882Y-42556795D01*
X104342208Y-42407809D01*
X104298751Y-42264548D01*
X104228179Y-42132519D01*
X104157004Y-42045792D01*
X104133206Y-42016794D01*
X104104207Y-41992995D01*
X103760000Y-41648789D01*
X103760000Y-41357909D01*
X103882886Y-41275799D01*
X104000000Y-41158685D01*
X104117114Y-41275799D01*
X104343957Y-41427371D01*
X104596011Y-41531775D01*
X104863589Y-41585000D01*
X105136411Y-41585000D01*
X105403989Y-41531775D01*
X105656043Y-41427371D01*
X105882886Y-41275799D01*
X106075799Y-41082886D01*
X106227371Y-40856043D01*
X106331775Y-40603989D01*
X106385000Y-40336411D01*
X106385000Y-40063589D01*
X106331775Y-39796011D01*
X106323579Y-39776223D01*
X106586003Y-39513799D01*
X106615001Y-39490001D01*
X106709974Y-39374276D01*
X106780546Y-39242247D01*
X106824003Y-39098986D01*
X106835000Y-38987333D01*
X106838677Y-38950000D01*
X106835000Y-38912667D01*
X106835000Y-36019365D01*
X106867606Y-35992606D01*
X106971831Y-35865608D01*
X107049278Y-35720716D01*
X107096969Y-35563500D01*
X107113072Y-35400000D01*
X107113072Y-34850000D01*
X107096969Y-34686500D01*
X107049278Y-34529284D01*
X106971831Y-34384392D01*
X106867606Y-34257394D01*
X106740608Y-34153169D01*
X106595716Y-34075722D01*
X106438500Y-34028031D01*
X106275000Y-34011928D01*
X105875000Y-34011928D01*
X105711500Y-34028031D01*
X105554284Y-34075722D01*
X105409392Y-34153169D01*
X105282394Y-34257394D01*
X105250000Y-34296866D01*
X105217606Y-34257394D01*
X105090608Y-34153169D01*
X104945716Y-34075722D01*
X104788500Y-34028031D01*
X104625000Y-34011928D01*
X104225000Y-34011928D01*
X104061500Y-34028031D01*
X103904284Y-34075722D01*
X103759392Y-34153169D01*
X103632394Y-34257394D01*
X103528169Y-34384392D01*
X103450722Y-34529284D01*
X103403031Y-34686500D01*
X103386928Y-34850000D01*
X103386928Y-35213270D01*
X101413997Y-37186202D01*
X101384999Y-37210000D01*
X101361201Y-37238998D01*
X101361200Y-37238999D01*
X101290025Y-37325725D01*
X101219453Y-37457755D01*
X101175997Y-37601016D01*
X101161323Y-37750001D01*
X101165000Y-37787333D01*
X101164999Y-38820687D01*
X101136411Y-38815000D01*
X100863589Y-38815000D01*
X100596011Y-38868225D01*
X100343957Y-38972629D01*
X100117114Y-39124201D01*
X100000000Y-39241315D01*
X99882886Y-39124201D01*
X99656043Y-38972629D01*
X99403989Y-38868225D01*
X99136411Y-38815000D01*
X98863589Y-38815000D01*
X98596011Y-38868225D01*
X98343957Y-38972629D01*
X98117114Y-39124201D01*
X98000000Y-39241315D01*
X97882886Y-39124201D01*
X97656043Y-38972629D01*
X97403989Y-38868225D01*
X97136411Y-38815000D01*
X96863589Y-38815000D01*
X96596011Y-38868225D01*
X96343957Y-38972629D01*
X96117114Y-39124201D01*
X96000000Y-39241315D01*
X95882886Y-39124201D01*
X95656043Y-38972629D01*
X95403989Y-38868225D01*
X95136411Y-38815000D01*
X94863589Y-38815000D01*
X94596011Y-38868225D01*
X94343957Y-38972629D01*
X94117114Y-39124201D01*
X93924201Y-39317114D01*
X93842091Y-39440000D01*
X93081322Y-39440000D01*
X93043999Y-39436324D01*
X93006676Y-39440000D01*
X93006667Y-39440000D01*
X92895014Y-39450997D01*
X92766433Y-39490001D01*
X92751753Y-39494454D01*
X92619723Y-39565026D01*
X92536083Y-39633668D01*
X92503999Y-39659999D01*
X92480201Y-39688997D01*
X85660000Y-46509199D01*
X85660000Y-28350000D01*
X90711928Y-28350000D01*
X90711928Y-32050000D01*
X90724188Y-32174482D01*
X90760498Y-32294180D01*
X90819463Y-32404494D01*
X90898815Y-32501185D01*
X90995506Y-32580537D01*
X91105820Y-32639502D01*
X91225518Y-32675812D01*
X91350000Y-32688072D01*
X93350000Y-32688072D01*
X93474482Y-32675812D01*
X93594180Y-32639502D01*
X93704494Y-32580537D01*
X93801185Y-32501185D01*
X93880537Y-32404494D01*
X93939502Y-32294180D01*
X93975812Y-32174482D01*
X93988072Y-32050000D01*
X93988072Y-28350000D01*
X106011928Y-28350000D01*
X106011928Y-32050000D01*
X106024188Y-32174482D01*
X106060498Y-32294180D01*
X106119463Y-32404494D01*
X106198815Y-32501185D01*
X106295506Y-32580537D01*
X106405820Y-32639502D01*
X106525518Y-32675812D01*
X106650000Y-32688072D01*
X108650000Y-32688072D01*
X108774482Y-32675812D01*
X108894180Y-32639502D01*
X109004494Y-32580537D01*
X109101185Y-32501185D01*
X109180537Y-32404494D01*
X109239502Y-32294180D01*
X109275812Y-32174482D01*
X109288072Y-32050000D01*
X109288072Y-28350000D01*
X109275812Y-28225518D01*
X109239502Y-28105820D01*
X109180537Y-27995506D01*
X109101185Y-27898815D01*
X109004494Y-27819463D01*
X108894180Y-27760498D01*
X108774482Y-27724188D01*
X108650000Y-27711928D01*
X106650000Y-27711928D01*
X106525518Y-27724188D01*
X106405820Y-27760498D01*
X106295506Y-27819463D01*
X106198815Y-27898815D01*
X106119463Y-27995506D01*
X106060498Y-28105820D01*
X106024188Y-28225518D01*
X106011928Y-28350000D01*
X93988072Y-28350000D01*
X93975812Y-28225518D01*
X93939502Y-28105820D01*
X93880537Y-27995506D01*
X93801185Y-27898815D01*
X93704494Y-27819463D01*
X93594180Y-27760498D01*
X93474482Y-27724188D01*
X93350000Y-27711928D01*
X91350000Y-27711928D01*
X91225518Y-27724188D01*
X91105820Y-27760498D01*
X90995506Y-27819463D01*
X90898815Y-27898815D01*
X90819463Y-27995506D01*
X90760498Y-28105820D01*
X90724188Y-28225518D01*
X90711928Y-28350000D01*
X85660000Y-28350000D01*
X85660000Y-20660000D01*
X114340000Y-20660000D01*
X114340001Y-119340000D01*
G37*
%TD.AperFunction*%
D21*
X97652000Y-101143000D02*
X97672000Y-101143000D01*
X97672000Y-101397000D01*
X97652000Y-101397000D01*
X97652000Y-101417000D01*
X97398000Y-101417000D01*
X97398000Y-101397000D01*
X97378000Y-101397000D01*
X97378000Y-101143000D01*
X97398000Y-101143000D01*
X97398000Y-101123000D01*
X97652000Y-101123000D01*
X97652000Y-101143000D01*
%TA.AperFunction,Conductor*%
D22*
G36*
X97652000Y-101143000D02*
G01*
X97672000Y-101143000D01*
X97672000Y-101397000D01*
X97652000Y-101397000D01*
X97652000Y-101417000D01*
X97398000Y-101417000D01*
X97398000Y-101397000D01*
X97378000Y-101397000D01*
X97378000Y-101143000D01*
X97398000Y-101143000D01*
X97398000Y-101123000D01*
X97652000Y-101123000D01*
X97652000Y-101143000D01*
G37*
%TD.AperFunction*%
D21*
X102602000Y-101143000D02*
X102622000Y-101143000D01*
X102622000Y-101397000D01*
X102602000Y-101397000D01*
X102602000Y-101417000D01*
X102348000Y-101417000D01*
X102348000Y-101397000D01*
X102328000Y-101397000D01*
X102328000Y-101143000D01*
X102348000Y-101143000D01*
X102348000Y-101123000D01*
X102602000Y-101123000D01*
X102602000Y-101143000D01*
%TA.AperFunction,Conductor*%
D22*
G36*
X102602000Y-101143000D02*
G01*
X102622000Y-101143000D01*
X102622000Y-101397000D01*
X102602000Y-101397000D01*
X102602000Y-101417000D01*
X102348000Y-101417000D01*
X102348000Y-101397000D01*
X102328000Y-101397000D01*
X102328000Y-101143000D01*
X102348000Y-101143000D01*
X102348000Y-101123000D01*
X102602000Y-101123000D01*
X102602000Y-101143000D01*
G37*
%TD.AperFunction*%
D21*
X103038928Y-92446250D02*
X103055392Y-92613408D01*
X103104150Y-92774142D01*
X103183329Y-92922275D01*
X103207723Y-92952000D01*
X103183329Y-92981725D01*
X103104150Y-93129858D01*
X103055392Y-93290592D01*
X103038928Y-93457750D01*
X103038928Y-93970250D01*
X103055392Y-94137408D01*
X103104150Y-94298142D01*
X103183329Y-94446275D01*
X103289885Y-94576115D01*
X103419725Y-94682671D01*
X103567858Y-94761850D01*
X103728592Y-94810608D01*
X103895750Y-94827072D01*
X104333250Y-94827072D01*
X104500408Y-94810608D01*
X104661142Y-94761850D01*
X104809275Y-94682671D01*
X104902000Y-94606574D01*
X104994725Y-94682671D01*
X105142858Y-94761850D01*
X105303592Y-94810608D01*
X105470750Y-94827072D01*
X105908250Y-94827072D01*
X106075408Y-94810608D01*
X106236142Y-94761850D01*
X106351101Y-94700403D01*
X107990001Y-96339303D01*
X107990001Y-98421239D01*
X107923254Y-98400992D01*
X107750000Y-98383928D01*
X104750000Y-98383928D01*
X104576746Y-98400992D01*
X104410150Y-98451528D01*
X104256614Y-98533595D01*
X104122038Y-98644038D01*
X104088072Y-98685426D01*
X104088072Y-98580000D01*
X104072929Y-98426255D01*
X104028084Y-98278418D01*
X103955258Y-98142171D01*
X103916546Y-98095000D01*
X103955258Y-98047829D01*
X104028084Y-97911582D01*
X104072929Y-97763745D01*
X104088072Y-97610000D01*
X104088072Y-97310000D01*
X104072929Y-97156255D01*
X104028084Y-97008418D01*
X103955258Y-96872171D01*
X103916546Y-96825000D01*
X103955258Y-96777829D01*
X104028084Y-96641582D01*
X104072929Y-96493745D01*
X104088072Y-96340000D01*
X104088072Y-96040000D01*
X104072929Y-95886255D01*
X104028084Y-95738418D01*
X103955258Y-95602171D01*
X103857251Y-95482749D01*
X103737829Y-95384742D01*
X103601582Y-95311916D01*
X103510000Y-95284135D01*
X103510000Y-95251561D01*
X103470226Y-95051602D01*
X103392205Y-94863244D01*
X103278937Y-94693726D01*
X103134774Y-94549563D01*
X102965256Y-94436295D01*
X102776898Y-94358274D01*
X102576939Y-94318500D01*
X102373061Y-94318500D01*
X102173102Y-94358274D01*
X101984744Y-94436295D01*
X101815226Y-94549563D01*
X101671063Y-94693726D01*
X101557795Y-94863244D01*
X101479774Y-95051602D01*
X101440000Y-95251561D01*
X101440000Y-95284135D01*
X101348418Y-95311916D01*
X101212171Y-95384742D01*
X101092749Y-95482749D01*
X100994742Y-95602171D01*
X100921916Y-95738418D01*
X100877071Y-95886255D01*
X100861928Y-96040000D01*
X100861928Y-96340000D01*
X100877071Y-96493745D01*
X100921916Y-96641582D01*
X100994742Y-96777829D01*
X101033454Y-96825000D01*
X100994742Y-96872171D01*
X100921916Y-97008418D01*
X100877071Y-97156255D01*
X100861928Y-97310000D01*
X100861928Y-97610000D01*
X100869808Y-97690000D01*
X100698061Y-97690000D01*
X100498102Y-97729774D01*
X100309744Y-97807795D01*
X100140226Y-97921063D01*
X99996063Y-98065226D01*
X99882795Y-98234744D01*
X99804774Y-98423102D01*
X99765000Y-98623061D01*
X99765000Y-98826939D01*
X99804774Y-99026898D01*
X99882795Y-99215256D01*
X99996063Y-99384774D01*
X100140226Y-99528937D01*
X100265536Y-99612666D01*
X100214315Y-99640045D01*
X100098590Y-99735018D01*
X100074787Y-99764022D01*
X99981805Y-99857004D01*
X99613803Y-99489002D01*
X99590001Y-99459999D01*
X99474276Y-99365026D01*
X99342247Y-99294454D01*
X99198986Y-99250997D01*
X99087333Y-99240000D01*
X99087322Y-99240000D01*
X99050000Y-99236324D01*
X99048758Y-99236446D01*
X99078084Y-99181582D01*
X99122929Y-99033745D01*
X99138072Y-98880000D01*
X99138072Y-98580000D01*
X99122929Y-98426255D01*
X99078084Y-98278418D01*
X99005258Y-98142171D01*
X98966546Y-98095000D01*
X99005258Y-98047829D01*
X99078084Y-97911582D01*
X99122929Y-97763745D01*
X99138072Y-97610000D01*
X99138072Y-97310000D01*
X99122929Y-97156255D01*
X99078084Y-97008418D01*
X99005258Y-96872171D01*
X98966546Y-96825000D01*
X99005258Y-96777829D01*
X99078084Y-96641582D01*
X99122929Y-96493745D01*
X99138072Y-96340000D01*
X99138072Y-96040000D01*
X99135447Y-96013349D01*
X99289398Y-95982726D01*
X99477756Y-95904705D01*
X99647274Y-95791437D01*
X99791437Y-95647274D01*
X99904705Y-95477756D01*
X99982726Y-95289398D01*
X100022500Y-95089439D01*
X100022500Y-95027302D01*
X100303707Y-94746096D01*
X100389526Y-94700224D01*
X100505251Y-94605251D01*
X100529054Y-94576247D01*
X103038928Y-92066374D01*
X103038928Y-92446250D01*
%TA.AperFunction,Conductor*%
D22*
G36*
X103038928Y-92446250D02*
G01*
X103055392Y-92613408D01*
X103104150Y-92774142D01*
X103183329Y-92922275D01*
X103207723Y-92952000D01*
X103183329Y-92981725D01*
X103104150Y-93129858D01*
X103055392Y-93290592D01*
X103038928Y-93457750D01*
X103038928Y-93970250D01*
X103055392Y-94137408D01*
X103104150Y-94298142D01*
X103183329Y-94446275D01*
X103289885Y-94576115D01*
X103419725Y-94682671D01*
X103567858Y-94761850D01*
X103728592Y-94810608D01*
X103895750Y-94827072D01*
X104333250Y-94827072D01*
X104500408Y-94810608D01*
X104661142Y-94761850D01*
X104809275Y-94682671D01*
X104902000Y-94606574D01*
X104994725Y-94682671D01*
X105142858Y-94761850D01*
X105303592Y-94810608D01*
X105470750Y-94827072D01*
X105908250Y-94827072D01*
X106075408Y-94810608D01*
X106236142Y-94761850D01*
X106351101Y-94700403D01*
X107990001Y-96339303D01*
X107990001Y-98421239D01*
X107923254Y-98400992D01*
X107750000Y-98383928D01*
X104750000Y-98383928D01*
X104576746Y-98400992D01*
X104410150Y-98451528D01*
X104256614Y-98533595D01*
X104122038Y-98644038D01*
X104088072Y-98685426D01*
X104088072Y-98580000D01*
X104072929Y-98426255D01*
X104028084Y-98278418D01*
X103955258Y-98142171D01*
X103916546Y-98095000D01*
X103955258Y-98047829D01*
X104028084Y-97911582D01*
X104072929Y-97763745D01*
X104088072Y-97610000D01*
X104088072Y-97310000D01*
X104072929Y-97156255D01*
X104028084Y-97008418D01*
X103955258Y-96872171D01*
X103916546Y-96825000D01*
X103955258Y-96777829D01*
X104028084Y-96641582D01*
X104072929Y-96493745D01*
X104088072Y-96340000D01*
X104088072Y-96040000D01*
X104072929Y-95886255D01*
X104028084Y-95738418D01*
X103955258Y-95602171D01*
X103857251Y-95482749D01*
X103737829Y-95384742D01*
X103601582Y-95311916D01*
X103510000Y-95284135D01*
X103510000Y-95251561D01*
X103470226Y-95051602D01*
X103392205Y-94863244D01*
X103278937Y-94693726D01*
X103134774Y-94549563D01*
X102965256Y-94436295D01*
X102776898Y-94358274D01*
X102576939Y-94318500D01*
X102373061Y-94318500D01*
X102173102Y-94358274D01*
X101984744Y-94436295D01*
X101815226Y-94549563D01*
X101671063Y-94693726D01*
X101557795Y-94863244D01*
X101479774Y-95051602D01*
X101440000Y-95251561D01*
X101440000Y-95284135D01*
X101348418Y-95311916D01*
X101212171Y-95384742D01*
X101092749Y-95482749D01*
X100994742Y-95602171D01*
X100921916Y-95738418D01*
X100877071Y-95886255D01*
X100861928Y-96040000D01*
X100861928Y-96340000D01*
X100877071Y-96493745D01*
X100921916Y-96641582D01*
X100994742Y-96777829D01*
X101033454Y-96825000D01*
X100994742Y-96872171D01*
X100921916Y-97008418D01*
X100877071Y-97156255D01*
X100861928Y-97310000D01*
X100861928Y-97610000D01*
X100869808Y-97690000D01*
X100698061Y-97690000D01*
X100498102Y-97729774D01*
X100309744Y-97807795D01*
X100140226Y-97921063D01*
X99996063Y-98065226D01*
X99882795Y-98234744D01*
X99804774Y-98423102D01*
X99765000Y-98623061D01*
X99765000Y-98826939D01*
X99804774Y-99026898D01*
X99882795Y-99215256D01*
X99996063Y-99384774D01*
X100140226Y-99528937D01*
X100265536Y-99612666D01*
X100214315Y-99640045D01*
X100098590Y-99735018D01*
X100074787Y-99764022D01*
X99981805Y-99857004D01*
X99613803Y-99489002D01*
X99590001Y-99459999D01*
X99474276Y-99365026D01*
X99342247Y-99294454D01*
X99198986Y-99250997D01*
X99087333Y-99240000D01*
X99087322Y-99240000D01*
X99050000Y-99236324D01*
X99048758Y-99236446D01*
X99078084Y-99181582D01*
X99122929Y-99033745D01*
X99138072Y-98880000D01*
X99138072Y-98580000D01*
X99122929Y-98426255D01*
X99078084Y-98278418D01*
X99005258Y-98142171D01*
X98966546Y-98095000D01*
X99005258Y-98047829D01*
X99078084Y-97911582D01*
X99122929Y-97763745D01*
X99138072Y-97610000D01*
X99138072Y-97310000D01*
X99122929Y-97156255D01*
X99078084Y-97008418D01*
X99005258Y-96872171D01*
X98966546Y-96825000D01*
X99005258Y-96777829D01*
X99078084Y-96641582D01*
X99122929Y-96493745D01*
X99138072Y-96340000D01*
X99138072Y-96040000D01*
X99135447Y-96013349D01*
X99289398Y-95982726D01*
X99477756Y-95904705D01*
X99647274Y-95791437D01*
X99791437Y-95647274D01*
X99904705Y-95477756D01*
X99982726Y-95289398D01*
X100022500Y-95089439D01*
X100022500Y-95027302D01*
X100303707Y-94746096D01*
X100389526Y-94700224D01*
X100505251Y-94605251D01*
X100529054Y-94576247D01*
X103038928Y-92066374D01*
X103038928Y-92446250D01*
G37*
%TD.AperFunction*%
D21*
X96883367Y-82811002D02*
X96907165Y-82840001D01*
X97022890Y-82934974D01*
X97154919Y-83005546D01*
X97298180Y-83049003D01*
X97298409Y-83049026D01*
X97309467Y-83062500D01*
X97282382Y-83095503D01*
X97202625Y-83244717D01*
X97153512Y-83406623D01*
X97136928Y-83575000D01*
X97136928Y-84075000D01*
X97153512Y-84243377D01*
X97202625Y-84405283D01*
X97282382Y-84554497D01*
X97389716Y-84685284D01*
X97520503Y-84792618D01*
X97669717Y-84872375D01*
X97831623Y-84921488D01*
X98000000Y-84938072D01*
X98450000Y-84938072D01*
X98618377Y-84921488D01*
X98780283Y-84872375D01*
X98929497Y-84792618D01*
X99000000Y-84734758D01*
X99070503Y-84792618D01*
X99219717Y-84872375D01*
X99381623Y-84921488D01*
X99550000Y-84938072D01*
X100000000Y-84938072D01*
X100168377Y-84921488D01*
X100219095Y-84906103D01*
X97139003Y-87986196D01*
X97109999Y-88009999D01*
X97054871Y-88077174D01*
X97015026Y-88125724D01*
X97011669Y-88132005D01*
X96944454Y-88257754D01*
X96900997Y-88401015D01*
X96890000Y-88512668D01*
X96890000Y-88512678D01*
X96886324Y-88550000D01*
X96890000Y-88587323D01*
X96890001Y-90921288D01*
X96846063Y-90965226D01*
X96732795Y-91134744D01*
X96654774Y-91323102D01*
X96615000Y-91523061D01*
X96615000Y-91726939D01*
X96654774Y-91926898D01*
X96732795Y-92115256D01*
X96846063Y-92284774D01*
X96990226Y-92428937D01*
X97159744Y-92542205D01*
X97348102Y-92620226D01*
X97548061Y-92660000D01*
X97751939Y-92660000D01*
X97951898Y-92620226D01*
X98140256Y-92542205D01*
X98309774Y-92428937D01*
X98453937Y-92284774D01*
X98567205Y-92115256D01*
X98645226Y-91926898D01*
X98685000Y-91726939D01*
X98685000Y-91523061D01*
X98645226Y-91323102D01*
X98567205Y-91134744D01*
X98453937Y-90965226D01*
X98410000Y-90921289D01*
X98410000Y-88864801D01*
X102164801Y-85110001D01*
X103038928Y-85110001D01*
X103038928Y-85600250D01*
X103055392Y-85767408D01*
X103104150Y-85928142D01*
X103183329Y-86076275D01*
X103207723Y-86106000D01*
X103183329Y-86135725D01*
X103104150Y-86283858D01*
X103055392Y-86444592D01*
X103038928Y-86611750D01*
X103038928Y-87124250D01*
X103055392Y-87291408D01*
X103104150Y-87452142D01*
X103183329Y-87600275D01*
X103207723Y-87630000D01*
X103183329Y-87659725D01*
X103104150Y-87807858D01*
X103055392Y-87968592D01*
X103038928Y-88135750D01*
X103038928Y-88648250D01*
X103055392Y-88815408D01*
X103104150Y-88976142D01*
X103183329Y-89124275D01*
X103207723Y-89154000D01*
X103183329Y-89183725D01*
X103104150Y-89331858D01*
X103055392Y-89492592D01*
X103038928Y-89659750D01*
X103038928Y-89916770D01*
X99571297Y-93384402D01*
X99485474Y-93430276D01*
X99485472Y-93430277D01*
X99485473Y-93430277D01*
X99398746Y-93501451D01*
X99398742Y-93501455D01*
X99369749Y-93525249D01*
X99345955Y-93554242D01*
X98947698Y-93952500D01*
X98885561Y-93952500D01*
X98685602Y-93992274D01*
X98497244Y-94070295D01*
X98327726Y-94183563D01*
X98183563Y-94327726D01*
X98070295Y-94497244D01*
X97992274Y-94685602D01*
X97952500Y-94885561D01*
X97952500Y-95089439D01*
X97984821Y-95251928D01*
X96700000Y-95251928D01*
X96546255Y-95267071D01*
X96398418Y-95311916D01*
X96294345Y-95367545D01*
X94310000Y-93383201D01*
X94310000Y-84967635D01*
X96675000Y-82602636D01*
X96883367Y-82811002D01*
%TA.AperFunction,Conductor*%
D22*
G36*
X96883367Y-82811002D02*
G01*
X96907165Y-82840001D01*
X97022890Y-82934974D01*
X97154919Y-83005546D01*
X97298180Y-83049003D01*
X97298409Y-83049026D01*
X97309467Y-83062500D01*
X97282382Y-83095503D01*
X97202625Y-83244717D01*
X97153512Y-83406623D01*
X97136928Y-83575000D01*
X97136928Y-84075000D01*
X97153512Y-84243377D01*
X97202625Y-84405283D01*
X97282382Y-84554497D01*
X97389716Y-84685284D01*
X97520503Y-84792618D01*
X97669717Y-84872375D01*
X97831623Y-84921488D01*
X98000000Y-84938072D01*
X98450000Y-84938072D01*
X98618377Y-84921488D01*
X98780283Y-84872375D01*
X98929497Y-84792618D01*
X99000000Y-84734758D01*
X99070503Y-84792618D01*
X99219717Y-84872375D01*
X99381623Y-84921488D01*
X99550000Y-84938072D01*
X100000000Y-84938072D01*
X100168377Y-84921488D01*
X100219095Y-84906103D01*
X97139003Y-87986196D01*
X97109999Y-88009999D01*
X97054871Y-88077174D01*
X97015026Y-88125724D01*
X97011669Y-88132005D01*
X96944454Y-88257754D01*
X96900997Y-88401015D01*
X96890000Y-88512668D01*
X96890000Y-88512678D01*
X96886324Y-88550000D01*
X96890000Y-88587323D01*
X96890001Y-90921288D01*
X96846063Y-90965226D01*
X96732795Y-91134744D01*
X96654774Y-91323102D01*
X96615000Y-91523061D01*
X96615000Y-91726939D01*
X96654774Y-91926898D01*
X96732795Y-92115256D01*
X96846063Y-92284774D01*
X96990226Y-92428937D01*
X97159744Y-92542205D01*
X97348102Y-92620226D01*
X97548061Y-92660000D01*
X97751939Y-92660000D01*
X97951898Y-92620226D01*
X98140256Y-92542205D01*
X98309774Y-92428937D01*
X98453937Y-92284774D01*
X98567205Y-92115256D01*
X98645226Y-91926898D01*
X98685000Y-91726939D01*
X98685000Y-91523061D01*
X98645226Y-91323102D01*
X98567205Y-91134744D01*
X98453937Y-90965226D01*
X98410000Y-90921289D01*
X98410000Y-88864801D01*
X102164801Y-85110001D01*
X103038928Y-85110001D01*
X103038928Y-85600250D01*
X103055392Y-85767408D01*
X103104150Y-85928142D01*
X103183329Y-86076275D01*
X103207723Y-86106000D01*
X103183329Y-86135725D01*
X103104150Y-86283858D01*
X103055392Y-86444592D01*
X103038928Y-86611750D01*
X103038928Y-87124250D01*
X103055392Y-87291408D01*
X103104150Y-87452142D01*
X103183329Y-87600275D01*
X103207723Y-87630000D01*
X103183329Y-87659725D01*
X103104150Y-87807858D01*
X103055392Y-87968592D01*
X103038928Y-88135750D01*
X103038928Y-88648250D01*
X103055392Y-88815408D01*
X103104150Y-88976142D01*
X103183329Y-89124275D01*
X103207723Y-89154000D01*
X103183329Y-89183725D01*
X103104150Y-89331858D01*
X103055392Y-89492592D01*
X103038928Y-89659750D01*
X103038928Y-89916770D01*
X99571297Y-93384402D01*
X99485474Y-93430276D01*
X99485472Y-93430277D01*
X99485473Y-93430277D01*
X99398746Y-93501451D01*
X99398742Y-93501455D01*
X99369749Y-93525249D01*
X99345955Y-93554242D01*
X98947698Y-93952500D01*
X98885561Y-93952500D01*
X98685602Y-93992274D01*
X98497244Y-94070295D01*
X98327726Y-94183563D01*
X98183563Y-94327726D01*
X98070295Y-94497244D01*
X97992274Y-94685602D01*
X97952500Y-94885561D01*
X97952500Y-95089439D01*
X97984821Y-95251928D01*
X96700000Y-95251928D01*
X96546255Y-95267071D01*
X96398418Y-95311916D01*
X96294345Y-95367545D01*
X94310000Y-93383201D01*
X94310000Y-84967635D01*
X96675000Y-82602636D01*
X96883367Y-82811002D01*
G37*
%TD.AperFunction*%
D21*
X93924201Y-41082886D02*
X94117114Y-41275799D01*
X94343957Y-41427371D01*
X94596011Y-41531775D01*
X94863589Y-41585000D01*
X95136411Y-41585000D01*
X95403989Y-41531775D01*
X95656043Y-41427371D01*
X95882886Y-41275799D01*
X96000000Y-41158685D01*
X96117114Y-41275799D01*
X96240001Y-41357909D01*
X96240001Y-42118668D01*
X96236324Y-42156000D01*
X96250998Y-42304985D01*
X96294454Y-42448246D01*
X96365026Y-42580276D01*
X96411321Y-42636686D01*
X96460000Y-42696001D01*
X96488998Y-42719799D01*
X97683200Y-43914002D01*
X97706999Y-43943001D01*
X97822724Y-44037974D01*
X97954753Y-44108546D01*
X98098014Y-44152003D01*
X98209667Y-44163000D01*
X98209676Y-44163000D01*
X98246999Y-44166676D01*
X98284322Y-44163000D01*
X99553201Y-44163000D01*
X99872129Y-44481928D01*
X99000000Y-44481928D01*
X98875518Y-44494188D01*
X98755820Y-44530498D01*
X98645506Y-44589463D01*
X98548815Y-44668815D01*
X98469463Y-44765506D01*
X98410498Y-44875820D01*
X98374188Y-44995518D01*
X98361928Y-45120000D01*
X98361928Y-46120000D01*
X98367601Y-46177598D01*
X97414002Y-47131197D01*
X97384998Y-47155000D01*
X97329870Y-47222175D01*
X97290025Y-47270725D01*
X97277579Y-47294010D01*
X97219453Y-47402755D01*
X97175996Y-47546016D01*
X97164999Y-47657669D01*
X97164999Y-47657679D01*
X97161323Y-47695001D01*
X97164999Y-47732324D01*
X97165000Y-51887667D01*
X97161323Y-51924999D01*
X97175997Y-52073984D01*
X97219453Y-52217245D01*
X97290025Y-52349275D01*
X97361200Y-52436001D01*
X97384999Y-52465000D01*
X97413997Y-52488798D01*
X98361928Y-53436730D01*
X98361928Y-54420000D01*
X98374188Y-54544482D01*
X98410498Y-54664180D01*
X98469463Y-54774494D01*
X98548815Y-54871185D01*
X98645506Y-54950537D01*
X98755820Y-55009502D01*
X98875518Y-55045812D01*
X99000000Y-55058072D01*
X101000000Y-55058072D01*
X101124482Y-55045812D01*
X101244180Y-55009502D01*
X101315001Y-54971647D01*
X101315001Y-55218353D01*
X101244180Y-55180498D01*
X101124482Y-55144188D01*
X101000000Y-55131928D01*
X100285750Y-55135000D01*
X100127000Y-55293750D01*
X100127000Y-56143000D01*
X100147000Y-56143000D01*
X100147000Y-56397000D01*
X100127000Y-56397000D01*
X100127000Y-57246250D01*
X100285750Y-57405000D01*
X101000000Y-57408072D01*
X101124482Y-57395812D01*
X101244180Y-57359502D01*
X101315001Y-57321647D01*
X101315001Y-58318353D01*
X101244180Y-58280498D01*
X101124482Y-58244188D01*
X101000000Y-58231928D01*
X99000000Y-58231928D01*
X98875518Y-58244188D01*
X98755820Y-58280498D01*
X98645506Y-58339463D01*
X98548815Y-58418815D01*
X98469463Y-58515506D01*
X98410498Y-58625820D01*
X98374188Y-58745518D01*
X98361928Y-58870000D01*
X98361928Y-59870000D01*
X98374188Y-59994482D01*
X98387345Y-60037854D01*
X97414002Y-61011197D01*
X97384998Y-61035000D01*
X97329870Y-61102175D01*
X97290025Y-61150725D01*
X97247838Y-61229651D01*
X97219453Y-61282755D01*
X97175996Y-61426016D01*
X97164999Y-61537669D01*
X97164999Y-61537679D01*
X97161323Y-61575001D01*
X97164999Y-61612324D01*
X97165000Y-65637667D01*
X97161323Y-65674999D01*
X97175997Y-65823984D01*
X97219453Y-65967245D01*
X97290025Y-66099275D01*
X97339676Y-66159774D01*
X97384999Y-66215000D01*
X97413997Y-66238798D01*
X98361928Y-67186729D01*
X98361928Y-68170000D01*
X98374188Y-68294482D01*
X98410498Y-68414180D01*
X98469463Y-68524494D01*
X98548815Y-68621185D01*
X98645506Y-68700537D01*
X98755820Y-68759502D01*
X98875518Y-68795812D01*
X99000000Y-68808072D01*
X99222955Y-68808072D01*
X99132394Y-68882394D01*
X99028169Y-69009392D01*
X98950722Y-69154284D01*
X98903031Y-69311500D01*
X98886928Y-69475000D01*
X98886928Y-69875000D01*
X98903031Y-70038500D01*
X98950722Y-70195716D01*
X99028169Y-70340608D01*
X99132394Y-70467606D01*
X99171866Y-70500000D01*
X99132394Y-70532394D01*
X99105635Y-70565000D01*
X96712333Y-70565000D01*
X96675000Y-70561323D01*
X96637667Y-70565000D01*
X96526014Y-70575997D01*
X96382753Y-70619454D01*
X96250724Y-70690026D01*
X96134999Y-70784999D01*
X96040026Y-70900724D01*
X95969454Y-71032753D01*
X95925997Y-71176014D01*
X95911323Y-71325000D01*
X95915000Y-71362333D01*
X95915001Y-81213030D01*
X94589938Y-82538094D01*
X94580537Y-82520506D01*
X94501185Y-82423815D01*
X94404494Y-82344463D01*
X94294180Y-82285498D01*
X94174482Y-82249188D01*
X94050000Y-82236928D01*
X93885750Y-82240000D01*
X93727000Y-82398750D01*
X93727000Y-83223000D01*
X93747000Y-83223000D01*
X93747000Y-83381032D01*
X93631033Y-83497000D01*
X93473000Y-83497000D01*
X93473000Y-83477000D01*
X93453000Y-83477000D01*
X93453000Y-83223000D01*
X93473000Y-83223000D01*
X93473000Y-82398750D01*
X93314250Y-82240000D01*
X93150000Y-82236928D01*
X93025518Y-82249188D01*
X92905820Y-82285498D01*
X92795506Y-82344463D01*
X92751351Y-82380700D01*
X92605283Y-82302625D01*
X92443377Y-82253512D01*
X92275000Y-82236928D01*
X91825000Y-82236928D01*
X91656623Y-82253512D01*
X91494717Y-82302625D01*
X91345503Y-82382382D01*
X91214716Y-82489716D01*
X91107382Y-82620503D01*
X91027625Y-82769717D01*
X90978512Y-82931623D01*
X90961928Y-83100000D01*
X90961928Y-83600000D01*
X90978512Y-83768377D01*
X91027625Y-83930283D01*
X91107382Y-84079497D01*
X91194001Y-84185043D01*
X91194000Y-91656667D01*
X91194000Y-92399199D01*
X86709990Y-87915189D01*
X86709990Y-57750000D01*
X88761928Y-57750000D01*
X88774188Y-57874482D01*
X88810498Y-57994180D01*
X88869463Y-58104494D01*
X88886292Y-58125000D01*
X88869463Y-58145506D01*
X88810498Y-58255820D01*
X88774188Y-58375518D01*
X88761928Y-58500000D01*
X88761928Y-62000000D01*
X88774188Y-62124482D01*
X88810498Y-62244180D01*
X88869463Y-62354494D01*
X88886292Y-62375000D01*
X88869463Y-62395506D01*
X88810498Y-62505820D01*
X88774188Y-62625518D01*
X88761928Y-62750000D01*
X88761928Y-66250000D01*
X88774188Y-66374482D01*
X88810498Y-66494180D01*
X88869463Y-66604494D01*
X88886292Y-66625000D01*
X88869463Y-66645506D01*
X88810498Y-66755820D01*
X88774188Y-66875518D01*
X88761928Y-67000000D01*
X88761928Y-70500000D01*
X88774188Y-70624482D01*
X88810498Y-70744180D01*
X88869463Y-70854494D01*
X88948815Y-70951185D01*
X89045506Y-71030537D01*
X89155820Y-71089502D01*
X89275518Y-71125812D01*
X89400000Y-71138072D01*
X93216143Y-71138072D01*
X93259744Y-71167205D01*
X93448102Y-71245226D01*
X93648061Y-71285000D01*
X93851939Y-71285000D01*
X94051898Y-71245226D01*
X94240256Y-71167205D01*
X94406005Y-71056455D01*
X94454494Y-71030537D01*
X94551185Y-70951185D01*
X94630537Y-70854494D01*
X94689502Y-70744180D01*
X94725812Y-70624482D01*
X94729135Y-70590746D01*
X94745226Y-70551898D01*
X94785000Y-70351939D01*
X94785000Y-70148061D01*
X94745226Y-69948102D01*
X94738072Y-69930831D01*
X94738072Y-67000000D01*
X94725812Y-66875518D01*
X94689502Y-66755820D01*
X94630537Y-66645506D01*
X94613708Y-66625000D01*
X94630537Y-66604494D01*
X94689502Y-66494180D01*
X94725812Y-66374482D01*
X94738072Y-66250000D01*
X94738072Y-62750000D01*
X94725812Y-62625518D01*
X94689502Y-62505820D01*
X94630537Y-62395506D01*
X94613708Y-62375000D01*
X94630537Y-62354494D01*
X94689502Y-62244180D01*
X94725812Y-62124482D01*
X94738072Y-62000000D01*
X94738072Y-60319169D01*
X94745226Y-60301898D01*
X94785000Y-60101939D01*
X94785000Y-59898061D01*
X94745226Y-59698102D01*
X94738072Y-59680831D01*
X94738072Y-58500000D01*
X94725812Y-58375518D01*
X94689502Y-58255820D01*
X94630537Y-58145506D01*
X94613708Y-58125000D01*
X94630537Y-58104494D01*
X94689502Y-57994180D01*
X94725812Y-57874482D01*
X94738072Y-57750000D01*
X94736016Y-56770000D01*
X98361928Y-56770000D01*
X98374188Y-56894482D01*
X98410498Y-57014180D01*
X98469463Y-57124494D01*
X98548815Y-57221185D01*
X98645506Y-57300537D01*
X98755820Y-57359502D01*
X98875518Y-57395812D01*
X99000000Y-57408072D01*
X99714250Y-57405000D01*
X99873000Y-57246250D01*
X99873000Y-56397000D01*
X98523750Y-56397000D01*
X98365000Y-56555750D01*
X98361928Y-56770000D01*
X94736016Y-56770000D01*
X94735000Y-56285750D01*
X94576250Y-56127000D01*
X91877000Y-56127000D01*
X91877000Y-56147000D01*
X91623000Y-56147000D01*
X91623000Y-56127000D01*
X88923750Y-56127000D01*
X88765000Y-56285750D01*
X88761928Y-57750000D01*
X86709990Y-57750000D01*
X86709990Y-54250000D01*
X88761928Y-54250000D01*
X88765000Y-55714250D01*
X88923750Y-55873000D01*
X91623000Y-55873000D01*
X91623000Y-53773750D01*
X91877000Y-53773750D01*
X91877000Y-55873000D01*
X94576250Y-55873000D01*
X94679250Y-55770000D01*
X98361928Y-55770000D01*
X98365000Y-55984250D01*
X98523750Y-56143000D01*
X99873000Y-56143000D01*
X99873000Y-55293750D01*
X99714250Y-55135000D01*
X99000000Y-55131928D01*
X98875518Y-55144188D01*
X98755820Y-55180498D01*
X98645506Y-55239463D01*
X98548815Y-55318815D01*
X98469463Y-55415506D01*
X98410498Y-55525820D01*
X98374188Y-55645518D01*
X98361928Y-55770000D01*
X94679250Y-55770000D01*
X94735000Y-55714250D01*
X94738072Y-54250000D01*
X94725812Y-54125518D01*
X94689502Y-54005820D01*
X94630537Y-53895506D01*
X94551185Y-53798815D01*
X94454494Y-53719463D01*
X94344180Y-53660498D01*
X94224482Y-53624188D01*
X94100000Y-53611928D01*
X92035750Y-53615000D01*
X91877000Y-53773750D01*
X91623000Y-53773750D01*
X91464250Y-53615000D01*
X89400000Y-53611928D01*
X89275518Y-53624188D01*
X89155820Y-53660498D01*
X89045506Y-53719463D01*
X88948815Y-53798815D01*
X88869463Y-53895506D01*
X88810498Y-54005820D01*
X88774188Y-54125518D01*
X88761928Y-54250000D01*
X86709990Y-54250000D01*
X86709990Y-47608811D01*
X93358802Y-40960000D01*
X93842091Y-40960000D01*
X93924201Y-41082886D01*
%TA.AperFunction,Conductor*%
D22*
G36*
X93924201Y-41082886D02*
G01*
X94117114Y-41275799D01*
X94343957Y-41427371D01*
X94596011Y-41531775D01*
X94863589Y-41585000D01*
X95136411Y-41585000D01*
X95403989Y-41531775D01*
X95656043Y-41427371D01*
X95882886Y-41275799D01*
X96000000Y-41158685D01*
X96117114Y-41275799D01*
X96240001Y-41357909D01*
X96240001Y-42118668D01*
X96236324Y-42156000D01*
X96250998Y-42304985D01*
X96294454Y-42448246D01*
X96365026Y-42580276D01*
X96411321Y-42636686D01*
X96460000Y-42696001D01*
X96488998Y-42719799D01*
X97683200Y-43914002D01*
X97706999Y-43943001D01*
X97822724Y-44037974D01*
X97954753Y-44108546D01*
X98098014Y-44152003D01*
X98209667Y-44163000D01*
X98209676Y-44163000D01*
X98246999Y-44166676D01*
X98284322Y-44163000D01*
X99553201Y-44163000D01*
X99872129Y-44481928D01*
X99000000Y-44481928D01*
X98875518Y-44494188D01*
X98755820Y-44530498D01*
X98645506Y-44589463D01*
X98548815Y-44668815D01*
X98469463Y-44765506D01*
X98410498Y-44875820D01*
X98374188Y-44995518D01*
X98361928Y-45120000D01*
X98361928Y-46120000D01*
X98367601Y-46177598D01*
X97414002Y-47131197D01*
X97384998Y-47155000D01*
X97329870Y-47222175D01*
X97290025Y-47270725D01*
X97277579Y-47294010D01*
X97219453Y-47402755D01*
X97175996Y-47546016D01*
X97164999Y-47657669D01*
X97164999Y-47657679D01*
X97161323Y-47695001D01*
X97164999Y-47732324D01*
X97165000Y-51887667D01*
X97161323Y-51924999D01*
X97175997Y-52073984D01*
X97219453Y-52217245D01*
X97290025Y-52349275D01*
X97361200Y-52436001D01*
X97384999Y-52465000D01*
X97413997Y-52488798D01*
X98361928Y-53436730D01*
X98361928Y-54420000D01*
X98374188Y-54544482D01*
X98410498Y-54664180D01*
X98469463Y-54774494D01*
X98548815Y-54871185D01*
X98645506Y-54950537D01*
X98755820Y-55009502D01*
X98875518Y-55045812D01*
X99000000Y-55058072D01*
X101000000Y-55058072D01*
X101124482Y-55045812D01*
X101244180Y-55009502D01*
X101315001Y-54971647D01*
X101315001Y-55218353D01*
X101244180Y-55180498D01*
X101124482Y-55144188D01*
X101000000Y-55131928D01*
X100285750Y-55135000D01*
X100127000Y-55293750D01*
X100127000Y-56143000D01*
X100147000Y-56143000D01*
X100147000Y-56397000D01*
X100127000Y-56397000D01*
X100127000Y-57246250D01*
X100285750Y-57405000D01*
X101000000Y-57408072D01*
X101124482Y-57395812D01*
X101244180Y-57359502D01*
X101315001Y-57321647D01*
X101315001Y-58318353D01*
X101244180Y-58280498D01*
X101124482Y-58244188D01*
X101000000Y-58231928D01*
X99000000Y-58231928D01*
X98875518Y-58244188D01*
X98755820Y-58280498D01*
X98645506Y-58339463D01*
X98548815Y-58418815D01*
X98469463Y-58515506D01*
X98410498Y-58625820D01*
X98374188Y-58745518D01*
X98361928Y-58870000D01*
X98361928Y-59870000D01*
X98374188Y-59994482D01*
X98387345Y-60037854D01*
X97414002Y-61011197D01*
X97384998Y-61035000D01*
X97329870Y-61102175D01*
X97290025Y-61150725D01*
X97247838Y-61229651D01*
X97219453Y-61282755D01*
X97175996Y-61426016D01*
X97164999Y-61537669D01*
X97164999Y-61537679D01*
X97161323Y-61575001D01*
X97164999Y-61612324D01*
X97165000Y-65637667D01*
X97161323Y-65674999D01*
X97175997Y-65823984D01*
X97219453Y-65967245D01*
X97290025Y-66099275D01*
X97339676Y-66159774D01*
X97384999Y-66215000D01*
X97413997Y-66238798D01*
X98361928Y-67186729D01*
X98361928Y-68170000D01*
X98374188Y-68294482D01*
X98410498Y-68414180D01*
X98469463Y-68524494D01*
X98548815Y-68621185D01*
X98645506Y-68700537D01*
X98755820Y-68759502D01*
X98875518Y-68795812D01*
X99000000Y-68808072D01*
X99222955Y-68808072D01*
X99132394Y-68882394D01*
X99028169Y-69009392D01*
X98950722Y-69154284D01*
X98903031Y-69311500D01*
X98886928Y-69475000D01*
X98886928Y-69875000D01*
X98903031Y-70038500D01*
X98950722Y-70195716D01*
X99028169Y-70340608D01*
X99132394Y-70467606D01*
X99171866Y-70500000D01*
X99132394Y-70532394D01*
X99105635Y-70565000D01*
X96712333Y-70565000D01*
X96675000Y-70561323D01*
X96637667Y-70565000D01*
X96526014Y-70575997D01*
X96382753Y-70619454D01*
X96250724Y-70690026D01*
X96134999Y-70784999D01*
X96040026Y-70900724D01*
X95969454Y-71032753D01*
X95925997Y-71176014D01*
X95911323Y-71325000D01*
X95915000Y-71362333D01*
X95915001Y-81213030D01*
X94589938Y-82538094D01*
X94580537Y-82520506D01*
X94501185Y-82423815D01*
X94404494Y-82344463D01*
X94294180Y-82285498D01*
X94174482Y-82249188D01*
X94050000Y-82236928D01*
X93885750Y-82240000D01*
X93727000Y-82398750D01*
X93727000Y-83223000D01*
X93747000Y-83223000D01*
X93747000Y-83381032D01*
X93631033Y-83497000D01*
X93473000Y-83497000D01*
X93473000Y-83477000D01*
X93453000Y-83477000D01*
X93453000Y-83223000D01*
X93473000Y-83223000D01*
X93473000Y-82398750D01*
X93314250Y-82240000D01*
X93150000Y-82236928D01*
X93025518Y-82249188D01*
X92905820Y-82285498D01*
X92795506Y-82344463D01*
X92751351Y-82380700D01*
X92605283Y-82302625D01*
X92443377Y-82253512D01*
X92275000Y-82236928D01*
X91825000Y-82236928D01*
X91656623Y-82253512D01*
X91494717Y-82302625D01*
X91345503Y-82382382D01*
X91214716Y-82489716D01*
X91107382Y-82620503D01*
X91027625Y-82769717D01*
X90978512Y-82931623D01*
X90961928Y-83100000D01*
X90961928Y-83600000D01*
X90978512Y-83768377D01*
X91027625Y-83930283D01*
X91107382Y-84079497D01*
X91194001Y-84185043D01*
X91194000Y-91656667D01*
X91194000Y-92399199D01*
X86709990Y-87915189D01*
X86709990Y-57750000D01*
X88761928Y-57750000D01*
X88774188Y-57874482D01*
X88810498Y-57994180D01*
X88869463Y-58104494D01*
X88886292Y-58125000D01*
X88869463Y-58145506D01*
X88810498Y-58255820D01*
X88774188Y-58375518D01*
X88761928Y-58500000D01*
X88761928Y-62000000D01*
X88774188Y-62124482D01*
X88810498Y-62244180D01*
X88869463Y-62354494D01*
X88886292Y-62375000D01*
X88869463Y-62395506D01*
X88810498Y-62505820D01*
X88774188Y-62625518D01*
X88761928Y-62750000D01*
X88761928Y-66250000D01*
X88774188Y-66374482D01*
X88810498Y-66494180D01*
X88869463Y-66604494D01*
X88886292Y-66625000D01*
X88869463Y-66645506D01*
X88810498Y-66755820D01*
X88774188Y-66875518D01*
X88761928Y-67000000D01*
X88761928Y-70500000D01*
X88774188Y-70624482D01*
X88810498Y-70744180D01*
X88869463Y-70854494D01*
X88948815Y-70951185D01*
X89045506Y-71030537D01*
X89155820Y-71089502D01*
X89275518Y-71125812D01*
X89400000Y-71138072D01*
X93216143Y-71138072D01*
X93259744Y-71167205D01*
X93448102Y-71245226D01*
X93648061Y-71285000D01*
X93851939Y-71285000D01*
X94051898Y-71245226D01*
X94240256Y-71167205D01*
X94406005Y-71056455D01*
X94454494Y-71030537D01*
X94551185Y-70951185D01*
X94630537Y-70854494D01*
X94689502Y-70744180D01*
X94725812Y-70624482D01*
X94729135Y-70590746D01*
X94745226Y-70551898D01*
X94785000Y-70351939D01*
X94785000Y-70148061D01*
X94745226Y-69948102D01*
X94738072Y-69930831D01*
X94738072Y-67000000D01*
X94725812Y-66875518D01*
X94689502Y-66755820D01*
X94630537Y-66645506D01*
X94613708Y-66625000D01*
X94630537Y-66604494D01*
X94689502Y-66494180D01*
X94725812Y-66374482D01*
X94738072Y-66250000D01*
X94738072Y-62750000D01*
X94725812Y-62625518D01*
X94689502Y-62505820D01*
X94630537Y-62395506D01*
X94613708Y-62375000D01*
X94630537Y-62354494D01*
X94689502Y-62244180D01*
X94725812Y-62124482D01*
X94738072Y-62000000D01*
X94738072Y-60319169D01*
X94745226Y-60301898D01*
X94785000Y-60101939D01*
X94785000Y-59898061D01*
X94745226Y-59698102D01*
X94738072Y-59680831D01*
X94738072Y-58500000D01*
X94725812Y-58375518D01*
X94689502Y-58255820D01*
X94630537Y-58145506D01*
X94613708Y-58125000D01*
X94630537Y-58104494D01*
X94689502Y-57994180D01*
X94725812Y-57874482D01*
X94738072Y-57750000D01*
X94736016Y-56770000D01*
X98361928Y-56770000D01*
X98374188Y-56894482D01*
X98410498Y-57014180D01*
X98469463Y-57124494D01*
X98548815Y-57221185D01*
X98645506Y-57300537D01*
X98755820Y-57359502D01*
X98875518Y-57395812D01*
X99000000Y-57408072D01*
X99714250Y-57405000D01*
X99873000Y-57246250D01*
X99873000Y-56397000D01*
X98523750Y-56397000D01*
X98365000Y-56555750D01*
X98361928Y-56770000D01*
X94736016Y-56770000D01*
X94735000Y-56285750D01*
X94576250Y-56127000D01*
X91877000Y-56127000D01*
X91877000Y-56147000D01*
X91623000Y-56147000D01*
X91623000Y-56127000D01*
X88923750Y-56127000D01*
X88765000Y-56285750D01*
X88761928Y-57750000D01*
X86709990Y-57750000D01*
X86709990Y-54250000D01*
X88761928Y-54250000D01*
X88765000Y-55714250D01*
X88923750Y-55873000D01*
X91623000Y-55873000D01*
X91623000Y-53773750D01*
X91877000Y-53773750D01*
X91877000Y-55873000D01*
X94576250Y-55873000D01*
X94679250Y-55770000D01*
X98361928Y-55770000D01*
X98365000Y-55984250D01*
X98523750Y-56143000D01*
X99873000Y-56143000D01*
X99873000Y-55293750D01*
X99714250Y-55135000D01*
X99000000Y-55131928D01*
X98875518Y-55144188D01*
X98755820Y-55180498D01*
X98645506Y-55239463D01*
X98548815Y-55318815D01*
X98469463Y-55415506D01*
X98410498Y-55525820D01*
X98374188Y-55645518D01*
X98361928Y-55770000D01*
X94679250Y-55770000D01*
X94735000Y-55714250D01*
X94738072Y-54250000D01*
X94725812Y-54125518D01*
X94689502Y-54005820D01*
X94630537Y-53895506D01*
X94551185Y-53798815D01*
X94454494Y-53719463D01*
X94344180Y-53660498D01*
X94224482Y-53624188D01*
X94100000Y-53611928D01*
X92035750Y-53615000D01*
X91877000Y-53773750D01*
X91623000Y-53773750D01*
X91464250Y-53615000D01*
X89400000Y-53611928D01*
X89275518Y-53624188D01*
X89155820Y-53660498D01*
X89045506Y-53719463D01*
X88948815Y-53798815D01*
X88869463Y-53895506D01*
X88810498Y-54005820D01*
X88774188Y-54125518D01*
X88761928Y-54250000D01*
X86709990Y-54250000D01*
X86709990Y-47608811D01*
X93358802Y-40960000D01*
X93842091Y-40960000D01*
X93924201Y-41082886D01*
G37*
%TD.AperFunction*%
D21*
X100117114Y-41275799D02*
X100246318Y-41362131D01*
X100250998Y-41409646D01*
X100253350Y-41417400D01*
X100127000Y-41543750D01*
X100127000Y-42393000D01*
X100147000Y-42393000D01*
X100147000Y-42647000D01*
X100127000Y-42647000D01*
X100127000Y-42667000D01*
X100059854Y-42667000D01*
X100016988Y-42653997D01*
X99905335Y-42643000D01*
X99905324Y-42643000D01*
X99868002Y-42639324D01*
X99853000Y-42640802D01*
X99853000Y-42393000D01*
X99873000Y-42393000D01*
X99873000Y-41543750D01*
X99716335Y-41387085D01*
X99882886Y-41275799D01*
X100000000Y-41158685D01*
X100117114Y-41275799D01*
%TA.AperFunction,Conductor*%
D22*
G36*
X100117114Y-41275799D02*
G01*
X100246318Y-41362131D01*
X100250998Y-41409646D01*
X100253350Y-41417400D01*
X100127000Y-41543750D01*
X100127000Y-42393000D01*
X100147000Y-42393000D01*
X100147000Y-42647000D01*
X100127000Y-42647000D01*
X100127000Y-42667000D01*
X100059854Y-42667000D01*
X100016988Y-42653997D01*
X99905335Y-42643000D01*
X99905324Y-42643000D01*
X99868002Y-42639324D01*
X99853000Y-42640802D01*
X99853000Y-42393000D01*
X99873000Y-42393000D01*
X99873000Y-41543750D01*
X99716335Y-41387085D01*
X99882886Y-41275799D01*
X100000000Y-41158685D01*
X100117114Y-41275799D01*
G37*
%TD.AperFunction*%
%TD*%
M02*
