%TF.GenerationSoftware,KiCad,Pcbnew,5.1.6-c6e7f7d~87~ubuntu18.04.1*%
%TF.CreationDate,2020-12-29T19:32:25-08:00*%
%TF.ProjectId,cv-extractor,63762d65-7874-4726-9163-746f722e6b69,rev?*%
%TF.SameCoordinates,Original*%
%TF.FileFunction,Legend,Top*%
%TF.FilePolarity,Positive*%
%FSLAX46Y46*%
G04 Gerber Fmt 4.6, Leading zero omitted, Abs format (unit mm)*
G04 Created by KiCad (PCBNEW 5.1.6-c6e7f7d~87~ubuntu18.04.1) date 2020-12-29 19:32:25*
%MOMM*%
%LPD*%
G01*
G04 APERTURE LIST*
%ADD10C,0.300000*%
%ADD11C,0.150000*%
G04 APERTURE END LIST*
D10*
X102688571Y-81855714D02*
X102617142Y-81927142D01*
X102402857Y-81998571D01*
X102260000Y-81998571D01*
X102045714Y-81927142D01*
X101902857Y-81784285D01*
X101831428Y-81641428D01*
X101760000Y-81355714D01*
X101760000Y-81141428D01*
X101831428Y-80855714D01*
X101902857Y-80712857D01*
X102045714Y-80570000D01*
X102260000Y-80498571D01*
X102402857Y-80498571D01*
X102617142Y-80570000D01*
X102688571Y-80641428D01*
X103117142Y-80498571D02*
X103617142Y-81998571D01*
X104117142Y-80498571D01*
X105760000Y-81212857D02*
X106260000Y-81212857D01*
X106474285Y-81998571D02*
X105760000Y-81998571D01*
X105760000Y-80498571D01*
X106474285Y-80498571D01*
X106974285Y-81998571D02*
X107760000Y-80998571D01*
X106974285Y-80998571D02*
X107760000Y-81998571D01*
X108117142Y-80998571D02*
X108688571Y-80998571D01*
X108331428Y-80498571D02*
X108331428Y-81784285D01*
X108402857Y-81927142D01*
X108545714Y-81998571D01*
X108688571Y-81998571D01*
X109188571Y-81998571D02*
X109188571Y-80998571D01*
X109188571Y-81284285D02*
X109260000Y-81141428D01*
X109331428Y-81070000D01*
X109474285Y-80998571D01*
X109617142Y-80998571D01*
X110760000Y-81998571D02*
X110760000Y-81212857D01*
X110688571Y-81070000D01*
X110545714Y-80998571D01*
X110260000Y-80998571D01*
X110117142Y-81070000D01*
X110760000Y-81927142D02*
X110617142Y-81998571D01*
X110260000Y-81998571D01*
X110117142Y-81927142D01*
X110045714Y-81784285D01*
X110045714Y-81641428D01*
X110117142Y-81498571D01*
X110260000Y-81427142D01*
X110617142Y-81427142D01*
X110760000Y-81355714D01*
X112117142Y-81927142D02*
X111974285Y-81998571D01*
X111688571Y-81998571D01*
X111545714Y-81927142D01*
X111474285Y-81855714D01*
X111402857Y-81712857D01*
X111402857Y-81284285D01*
X111474285Y-81141428D01*
X111545714Y-81070000D01*
X111688571Y-80998571D01*
X111974285Y-80998571D01*
X112117142Y-81070000D01*
X112545714Y-80998571D02*
X113117142Y-80998571D01*
X112760000Y-80498571D02*
X112760000Y-81784285D01*
X112831428Y-81927142D01*
X112974285Y-81998571D01*
X113117142Y-81998571D01*
X113831428Y-81998571D02*
X113688571Y-81927142D01*
X113617142Y-81855714D01*
X113545714Y-81712857D01*
X113545714Y-81284285D01*
X113617142Y-81141428D01*
X113688571Y-81070000D01*
X113831428Y-80998571D01*
X114045714Y-80998571D01*
X114188571Y-81070000D01*
X114260000Y-81141428D01*
X114331428Y-81284285D01*
X114331428Y-81712857D01*
X114260000Y-81855714D01*
X114188571Y-81927142D01*
X114045714Y-81998571D01*
X113831428Y-81998571D01*
X114974285Y-81998571D02*
X114974285Y-80998571D01*
X114974285Y-81284285D02*
X115045714Y-81141428D01*
X115117142Y-81070000D01*
X115260000Y-80998571D01*
X115402857Y-80998571D01*
X99152857Y-83048571D02*
X99652857Y-84548571D01*
X100152857Y-83048571D01*
X101438571Y-84548571D02*
X100581428Y-84548571D01*
X101010000Y-84548571D02*
X101010000Y-83048571D01*
X100867142Y-83262857D01*
X100724285Y-83405714D01*
X100581428Y-83477142D01*
X103152857Y-83191428D02*
X103224285Y-83120000D01*
X103367142Y-83048571D01*
X103724285Y-83048571D01*
X103867142Y-83120000D01*
X103938571Y-83191428D01*
X104010000Y-83334285D01*
X104010000Y-83477142D01*
X103938571Y-83691428D01*
X103081428Y-84548571D01*
X104010000Y-84548571D01*
X104938571Y-83048571D02*
X105081428Y-83048571D01*
X105224285Y-83120000D01*
X105295714Y-83191428D01*
X105367142Y-83334285D01*
X105438571Y-83620000D01*
X105438571Y-83977142D01*
X105367142Y-84262857D01*
X105295714Y-84405714D01*
X105224285Y-84477142D01*
X105081428Y-84548571D01*
X104938571Y-84548571D01*
X104795714Y-84477142D01*
X104724285Y-84405714D01*
X104652857Y-84262857D01*
X104581428Y-83977142D01*
X104581428Y-83620000D01*
X104652857Y-83334285D01*
X104724285Y-83191428D01*
X104795714Y-83120000D01*
X104938571Y-83048571D01*
X106010000Y-83191428D02*
X106081428Y-83120000D01*
X106224285Y-83048571D01*
X106581428Y-83048571D01*
X106724285Y-83120000D01*
X106795714Y-83191428D01*
X106867142Y-83334285D01*
X106867142Y-83477142D01*
X106795714Y-83691428D01*
X105938571Y-84548571D01*
X106867142Y-84548571D01*
X107795714Y-83048571D02*
X107938571Y-83048571D01*
X108081428Y-83120000D01*
X108152857Y-83191428D01*
X108224285Y-83334285D01*
X108295714Y-83620000D01*
X108295714Y-83977142D01*
X108224285Y-84262857D01*
X108152857Y-84405714D01*
X108081428Y-84477142D01*
X107938571Y-84548571D01*
X107795714Y-84548571D01*
X107652857Y-84477142D01*
X107581428Y-84405714D01*
X107510000Y-84262857D01*
X107438571Y-83977142D01*
X107438571Y-83620000D01*
X107510000Y-83334285D01*
X107581428Y-83191428D01*
X107652857Y-83120000D01*
X107795714Y-83048571D01*
X108938571Y-83977142D02*
X110081428Y-83977142D01*
X111581428Y-84548571D02*
X110724285Y-84548571D01*
X111152857Y-84548571D02*
X111152857Y-83048571D01*
X111010000Y-83262857D01*
X110867142Y-83405714D01*
X110724285Y-83477142D01*
X112152857Y-83191428D02*
X112224285Y-83120000D01*
X112367142Y-83048571D01*
X112724285Y-83048571D01*
X112867142Y-83120000D01*
X112938571Y-83191428D01*
X113010000Y-83334285D01*
X113010000Y-83477142D01*
X112938571Y-83691428D01*
X112081428Y-84548571D01*
X113010000Y-84548571D01*
X113652857Y-83977142D02*
X114795714Y-83977142D01*
X115438571Y-83191428D02*
X115510000Y-83120000D01*
X115652857Y-83048571D01*
X116010000Y-83048571D01*
X116152857Y-83120000D01*
X116224285Y-83191428D01*
X116295714Y-83334285D01*
X116295714Y-83477142D01*
X116224285Y-83691428D01*
X115367142Y-84548571D01*
X116295714Y-84548571D01*
X117010000Y-84548571D02*
X117295714Y-84548571D01*
X117438571Y-84477142D01*
X117510000Y-84405714D01*
X117652857Y-84191428D01*
X117724285Y-83905714D01*
X117724285Y-83334285D01*
X117652857Y-83191428D01*
X117581428Y-83120000D01*
X117438571Y-83048571D01*
X117152857Y-83048571D01*
X117010000Y-83120000D01*
X116938571Y-83191428D01*
X116867142Y-83334285D01*
X116867142Y-83691428D01*
X116938571Y-83834285D01*
X117010000Y-83905714D01*
X117152857Y-83977142D01*
X117438571Y-83977142D01*
X117581428Y-83905714D01*
X117652857Y-83834285D01*
X117724285Y-83691428D01*
X101331428Y-87098571D02*
X101331428Y-85598571D01*
X102188571Y-87098571D02*
X101545714Y-86241428D01*
X102188571Y-85598571D02*
X101331428Y-86455714D01*
X102831428Y-86098571D02*
X102831428Y-87098571D01*
X102831428Y-86241428D02*
X102902857Y-86170000D01*
X103045714Y-86098571D01*
X103260000Y-86098571D01*
X103402857Y-86170000D01*
X103474285Y-86312857D01*
X103474285Y-87098571D01*
X104402857Y-87098571D02*
X104260000Y-87027142D01*
X104188571Y-86955714D01*
X104117142Y-86812857D01*
X104117142Y-86384285D01*
X104188571Y-86241428D01*
X104260000Y-86170000D01*
X104402857Y-86098571D01*
X104617142Y-86098571D01*
X104760000Y-86170000D01*
X104831428Y-86241428D01*
X104902857Y-86384285D01*
X104902857Y-86812857D01*
X104831428Y-86955714D01*
X104760000Y-87027142D01*
X104617142Y-87098571D01*
X104402857Y-87098571D01*
X105545714Y-87098571D02*
X105545714Y-85598571D01*
X105545714Y-86170000D02*
X105688571Y-86098571D01*
X105974285Y-86098571D01*
X106117142Y-86170000D01*
X106188571Y-86241428D01*
X106260000Y-86384285D01*
X106260000Y-86812857D01*
X106188571Y-86955714D01*
X106117142Y-87027142D01*
X105974285Y-87098571D01*
X105688571Y-87098571D01*
X105545714Y-87027142D01*
X108545714Y-86312857D02*
X108045714Y-86312857D01*
X108045714Y-87098571D02*
X108045714Y-85598571D01*
X108760000Y-85598571D01*
X109545714Y-87098571D02*
X109402857Y-87027142D01*
X109331428Y-86955714D01*
X109260000Y-86812857D01*
X109260000Y-86384285D01*
X109331428Y-86241428D01*
X109402857Y-86170000D01*
X109545714Y-86098571D01*
X109760000Y-86098571D01*
X109902857Y-86170000D01*
X109974285Y-86241428D01*
X110045714Y-86384285D01*
X110045714Y-86812857D01*
X109974285Y-86955714D01*
X109902857Y-87027142D01*
X109760000Y-87098571D01*
X109545714Y-87098571D01*
X110688571Y-86098571D02*
X110688571Y-87098571D01*
X110688571Y-86241428D02*
X110760000Y-86170000D01*
X110902857Y-86098571D01*
X111117142Y-86098571D01*
X111260000Y-86170000D01*
X111331428Y-86312857D01*
X111331428Y-87098571D01*
X112688571Y-87098571D02*
X112688571Y-85598571D01*
X112688571Y-87027142D02*
X112545714Y-87098571D01*
X112260000Y-87098571D01*
X112117142Y-87027142D01*
X112045714Y-86955714D01*
X111974285Y-86812857D01*
X111974285Y-86384285D01*
X112045714Y-86241428D01*
X112117142Y-86170000D01*
X112260000Y-86098571D01*
X112545714Y-86098571D01*
X112688571Y-86170000D01*
X113617142Y-87098571D02*
X113474285Y-87027142D01*
X113402857Y-86884285D01*
X113402857Y-85598571D01*
X114760000Y-87027142D02*
X114617142Y-87098571D01*
X114331428Y-87098571D01*
X114188571Y-87027142D01*
X114117142Y-86884285D01*
X114117142Y-86312857D01*
X114188571Y-86170000D01*
X114331428Y-86098571D01*
X114617142Y-86098571D01*
X114760000Y-86170000D01*
X114831428Y-86312857D01*
X114831428Y-86455714D01*
X114117142Y-86598571D01*
X115474285Y-87098571D02*
X115474285Y-86098571D01*
X115474285Y-86384285D02*
X115545714Y-86241428D01*
X115617142Y-86170000D01*
X115760000Y-86098571D01*
X115902857Y-86098571D01*
X97371428Y-59060714D02*
X97300000Y-59132142D01*
X97085714Y-59203571D01*
X96942857Y-59203571D01*
X96728571Y-59132142D01*
X96585714Y-58989285D01*
X96514285Y-58846428D01*
X96442857Y-58560714D01*
X96442857Y-58346428D01*
X96514285Y-58060714D01*
X96585714Y-57917857D01*
X96728571Y-57775000D01*
X96942857Y-57703571D01*
X97085714Y-57703571D01*
X97300000Y-57775000D01*
X97371428Y-57846428D01*
X98657142Y-58203571D02*
X98657142Y-59203571D01*
X98014285Y-58203571D02*
X98014285Y-58989285D01*
X98085714Y-59132142D01*
X98228571Y-59203571D01*
X98442857Y-59203571D01*
X98585714Y-59132142D01*
X98657142Y-59060714D01*
X99157142Y-58203571D02*
X99728571Y-58203571D01*
X99371428Y-57703571D02*
X99371428Y-58989285D01*
X99442857Y-59132142D01*
X99585714Y-59203571D01*
X99728571Y-59203571D01*
X100442857Y-59203571D02*
X100300000Y-59132142D01*
X100228571Y-59060714D01*
X100157142Y-58917857D01*
X100157142Y-58489285D01*
X100228571Y-58346428D01*
X100300000Y-58275000D01*
X100442857Y-58203571D01*
X100657142Y-58203571D01*
X100800000Y-58275000D01*
X100871428Y-58346428D01*
X100942857Y-58489285D01*
X100942857Y-58917857D01*
X100871428Y-59060714D01*
X100800000Y-59132142D01*
X100657142Y-59203571D01*
X100442857Y-59203571D01*
X101371428Y-58203571D02*
X101942857Y-58203571D01*
X101585714Y-59203571D02*
X101585714Y-57917857D01*
X101657142Y-57775000D01*
X101800000Y-57703571D01*
X101942857Y-57703571D01*
X102228571Y-58203571D02*
X102800000Y-58203571D01*
X102442857Y-59203571D02*
X102442857Y-57917857D01*
X102514285Y-57775000D01*
X102657142Y-57703571D01*
X102800000Y-57703571D01*
X111839285Y-60153571D02*
X112125000Y-60153571D01*
X112267857Y-60225000D01*
X112410714Y-60367857D01*
X112482142Y-60653571D01*
X112482142Y-61153571D01*
X112410714Y-61439285D01*
X112267857Y-61582142D01*
X112125000Y-61653571D01*
X111839285Y-61653571D01*
X111696428Y-61582142D01*
X111553571Y-61439285D01*
X111482142Y-61153571D01*
X111482142Y-60653571D01*
X111553571Y-60367857D01*
X111696428Y-60225000D01*
X111839285Y-60153571D01*
X113767857Y-60653571D02*
X113767857Y-61653571D01*
X113125000Y-60653571D02*
X113125000Y-61439285D01*
X113196428Y-61582142D01*
X113339285Y-61653571D01*
X113553571Y-61653571D01*
X113696428Y-61582142D01*
X113767857Y-61510714D01*
X114267857Y-60653571D02*
X114839285Y-60653571D01*
X114482142Y-60153571D02*
X114482142Y-61439285D01*
X114553571Y-61582142D01*
X114696428Y-61653571D01*
X114839285Y-61653571D01*
X115339285Y-60653571D02*
X115339285Y-62153571D01*
X115339285Y-60725000D02*
X115482142Y-60653571D01*
X115767857Y-60653571D01*
X115910714Y-60725000D01*
X115982142Y-60796428D01*
X116053571Y-60939285D01*
X116053571Y-61367857D01*
X115982142Y-61510714D01*
X115910714Y-61582142D01*
X115767857Y-61653571D01*
X115482142Y-61653571D01*
X115339285Y-61582142D01*
X117339285Y-60653571D02*
X117339285Y-61653571D01*
X116696428Y-60653571D02*
X116696428Y-61439285D01*
X116767857Y-61582142D01*
X116910714Y-61653571D01*
X117125000Y-61653571D01*
X117267857Y-61582142D01*
X117339285Y-61510714D01*
X117839285Y-60653571D02*
X118410714Y-60653571D01*
X118053571Y-60153571D02*
X118053571Y-61439285D01*
X118125000Y-61582142D01*
X118267857Y-61653571D01*
X118410714Y-61653571D01*
X82185714Y-61228571D02*
X82185714Y-59728571D01*
X82900000Y-60228571D02*
X82900000Y-61228571D01*
X82900000Y-60371428D02*
X82971428Y-60300000D01*
X83114285Y-60228571D01*
X83328571Y-60228571D01*
X83471428Y-60300000D01*
X83542857Y-60442857D01*
X83542857Y-61228571D01*
X84257142Y-60228571D02*
X84257142Y-61728571D01*
X84257142Y-60300000D02*
X84400000Y-60228571D01*
X84685714Y-60228571D01*
X84828571Y-60300000D01*
X84900000Y-60371428D01*
X84971428Y-60514285D01*
X84971428Y-60942857D01*
X84900000Y-61085714D01*
X84828571Y-61157142D01*
X84685714Y-61228571D01*
X84400000Y-61228571D01*
X84257142Y-61157142D01*
X86257142Y-60228571D02*
X86257142Y-61228571D01*
X85614285Y-60228571D02*
X85614285Y-61014285D01*
X85685714Y-61157142D01*
X85828571Y-61228571D01*
X86042857Y-61228571D01*
X86185714Y-61157142D01*
X86257142Y-61085714D01*
X86757142Y-60228571D02*
X87328571Y-60228571D01*
X86971428Y-59728571D02*
X86971428Y-61014285D01*
X87042857Y-61157142D01*
X87185714Y-61228571D01*
X87328571Y-61228571D01*
%TO.C,J2*%
D11*
X117206666Y-76310380D02*
X117206666Y-77024666D01*
X117159047Y-77167523D01*
X117063809Y-77262761D01*
X116920952Y-77310380D01*
X116825714Y-77310380D01*
X117635238Y-76405619D02*
X117682857Y-76358000D01*
X117778095Y-76310380D01*
X118016190Y-76310380D01*
X118111428Y-76358000D01*
X118159047Y-76405619D01*
X118206666Y-76500857D01*
X118206666Y-76596095D01*
X118159047Y-76738952D01*
X117587619Y-77310380D01*
X118206666Y-77310380D01*
%TO.C,RV1*%
X107029761Y-79027380D02*
X106696428Y-78551190D01*
X106458333Y-79027380D02*
X106458333Y-78027380D01*
X106839285Y-78027380D01*
X106934523Y-78075000D01*
X106982142Y-78122619D01*
X107029761Y-78217857D01*
X107029761Y-78360714D01*
X106982142Y-78455952D01*
X106934523Y-78503571D01*
X106839285Y-78551190D01*
X106458333Y-78551190D01*
X107315476Y-78027380D02*
X107648809Y-79027380D01*
X107982142Y-78027380D01*
X108839285Y-79027380D02*
X108267857Y-79027380D01*
X108553571Y-79027380D02*
X108553571Y-78027380D01*
X108458333Y-78170238D01*
X108363095Y-78265476D01*
X108267857Y-78313095D01*
%TO.C,J1*%
X87206666Y-76310380D02*
X87206666Y-77024666D01*
X87159047Y-77167523D01*
X87063809Y-77262761D01*
X86920952Y-77310380D01*
X86825714Y-77310380D01*
X88206666Y-77310380D02*
X87635238Y-77310380D01*
X87920952Y-77310380D02*
X87920952Y-76310380D01*
X87825714Y-76453238D01*
X87730476Y-76548476D01*
X87635238Y-76596095D01*
%TD*%
M02*
