%TF.GenerationSoftware,KiCad,Pcbnew,5.1.6-c6e7f7d~87~ubuntu18.04.1*%
%TF.CreationDate,2020-12-29T19:32:25-08:00*%
%TF.ProjectId,cv-extractor,63762d65-7874-4726-9163-746f722e6b69,rev?*%
%TF.SameCoordinates,Original*%
%TF.FileFunction,Copper,L2,Bot*%
%TF.FilePolarity,Positive*%
%FSLAX46Y46*%
G04 Gerber Fmt 4.6, Leading zero omitted, Abs format (unit mm)*
G04 Created by KiCad (PCBNEW 5.1.6-c6e7f7d~87~ubuntu18.04.1) date 2020-12-29 19:32:25*
%MOMM*%
%LPD*%
G01*
G04 APERTURE LIST*
%TA.AperFunction,ComponentPad*%
%ADD10C,3.500000*%
%TD*%
%TA.AperFunction,ComponentPad*%
%ADD11R,2.000000X1.000000*%
%TD*%
%TA.AperFunction,ComponentPad*%
%ADD12R,2.000000X3.700000*%
%TD*%
%TA.AperFunction,ComponentPad*%
%ADD13C,1.500000*%
%TD*%
%TA.AperFunction,SMDPad,CuDef*%
%ADD14R,2.500000X1.800000*%
%TD*%
%TA.AperFunction,ComponentPad*%
%ADD15C,1.600200*%
%TD*%
%TA.AperFunction,ViaPad*%
%ADD16C,0.800000*%
%TD*%
%TA.AperFunction,Conductor*%
%ADD17C,0.250000*%
%TD*%
%TA.AperFunction,Conductor*%
%ADD18C,0.254000*%
%TD*%
G04 APERTURE END LIST*
D10*
%TO.P,J2,*%
%TO.N,*%
X115000000Y-70000000D03*
D11*
%TO.P,J2,3*%
%TO.N,Net-(C3-Pad2)*%
X115000000Y-74920000D03*
%TO.P,J2,2*%
X115000000Y-66620000D03*
%TO.P,J2,1*%
%TO.N,GND*%
X115000000Y-63520000D03*
%TD*%
%TO.P,C3,2*%
%TO.N,Net-(C3-Pad2)*%
%TA.AperFunction,SMDPad,CuDef*%
G36*
G01*
X86121000Y-78971000D02*
X86121000Y-80221000D01*
G75*
G02*
X85871000Y-80471000I-250000J0D01*
G01*
X85121000Y-80471000D01*
G75*
G02*
X84871000Y-80221000I0J250000D01*
G01*
X84871000Y-78971000D01*
G75*
G02*
X85121000Y-78721000I250000J0D01*
G01*
X85871000Y-78721000D01*
G75*
G02*
X86121000Y-78971000I0J-250000D01*
G01*
G37*
%TD.AperFunction*%
%TO.P,C3,1*%
%TO.N,Net-(C3-Pad1)*%
%TA.AperFunction,SMDPad,CuDef*%
G36*
G01*
X88921000Y-78971000D02*
X88921000Y-80221000D01*
G75*
G02*
X88671000Y-80471000I-250000J0D01*
G01*
X87921000Y-80471000D01*
G75*
G02*
X87671000Y-80221000I0J250000D01*
G01*
X87671000Y-78971000D01*
G75*
G02*
X87921000Y-78721000I250000J0D01*
G01*
X88671000Y-78721000D01*
G75*
G02*
X88921000Y-78971000I0J-250000D01*
G01*
G37*
%TD.AperFunction*%
%TD*%
D12*
%TO.P,RV1,*%
%TO.N,*%
X107650000Y-66200000D03*
D13*
%TO.P,RV1,6*%
%TO.N,Net-(RV1-Pad6)*%
X105000000Y-76200000D03*
%TO.P,RV1,3*%
%TO.N,Net-(C3-Pad1)*%
X103000000Y-76200000D03*
%TO.P,RV1,2*%
%TO.N,Net-(R7-Pad1)*%
X101000000Y-76200000D03*
%TO.P,RV1,1*%
%TO.N,Net-(RV1-Pad1)*%
X99000000Y-76200000D03*
%TO.P,RV1,4*%
%TO.N,Net-(R8-Pad1)*%
X97000000Y-76200000D03*
%TO.P,RV1,5*%
%TO.N,Net-(C1-Pad2)*%
X95000000Y-76200000D03*
D12*
%TO.P,RV1,*%
%TO.N,*%
X92350000Y-66200000D03*
%TD*%
%TO.P,C1,2*%
%TO.N,Net-(C1-Pad2)*%
%TA.AperFunction,SMDPad,CuDef*%
G36*
G01*
X91329000Y-92319000D02*
X91329000Y-91069000D01*
G75*
G02*
X91579000Y-90819000I250000J0D01*
G01*
X92329000Y-90819000D01*
G75*
G02*
X92579000Y-91069000I0J-250000D01*
G01*
X92579000Y-92319000D01*
G75*
G02*
X92329000Y-92569000I-250000J0D01*
G01*
X91579000Y-92569000D01*
G75*
G02*
X91329000Y-92319000I0J250000D01*
G01*
G37*
%TD.AperFunction*%
%TO.P,C1,1*%
%TO.N,GND*%
%TA.AperFunction,SMDPad,CuDef*%
G36*
G01*
X88529000Y-92319000D02*
X88529000Y-91069000D01*
G75*
G02*
X88779000Y-90819000I250000J0D01*
G01*
X89529000Y-90819000D01*
G75*
G02*
X89779000Y-91069000I0J-250000D01*
G01*
X89779000Y-92319000D01*
G75*
G02*
X89529000Y-92569000I-250000J0D01*
G01*
X88779000Y-92569000D01*
G75*
G02*
X88529000Y-92319000I0J250000D01*
G01*
G37*
%TD.AperFunction*%
%TD*%
%TO.P,C2,2*%
%TO.N,Net-(C1-Pad2)*%
%TA.AperFunction,SMDPad,CuDef*%
G36*
G01*
X91329000Y-94859000D02*
X91329000Y-93609000D01*
G75*
G02*
X91579000Y-93359000I250000J0D01*
G01*
X92329000Y-93359000D01*
G75*
G02*
X92579000Y-93609000I0J-250000D01*
G01*
X92579000Y-94859000D01*
G75*
G02*
X92329000Y-95109000I-250000J0D01*
G01*
X91579000Y-95109000D01*
G75*
G02*
X91329000Y-94859000I0J250000D01*
G01*
G37*
%TD.AperFunction*%
%TO.P,C2,1*%
%TO.N,GND*%
%TA.AperFunction,SMDPad,CuDef*%
G36*
G01*
X88529000Y-94859000D02*
X88529000Y-93609000D01*
G75*
G02*
X88779000Y-93359000I250000J0D01*
G01*
X89529000Y-93359000D01*
G75*
G02*
X89779000Y-93609000I0J-250000D01*
G01*
X89779000Y-94859000D01*
G75*
G02*
X89529000Y-95109000I-250000J0D01*
G01*
X88779000Y-95109000D01*
G75*
G02*
X88529000Y-94859000I0J250000D01*
G01*
G37*
%TD.AperFunction*%
%TD*%
%TO.P,C4,2*%
%TO.N,Net-(C3-Pad2)*%
%TA.AperFunction,SMDPad,CuDef*%
G36*
G01*
X86121000Y-81361000D02*
X86121000Y-82611000D01*
G75*
G02*
X85871000Y-82861000I-250000J0D01*
G01*
X85121000Y-82861000D01*
G75*
G02*
X84871000Y-82611000I0J250000D01*
G01*
X84871000Y-81361000D01*
G75*
G02*
X85121000Y-81111000I250000J0D01*
G01*
X85871000Y-81111000D01*
G75*
G02*
X86121000Y-81361000I0J-250000D01*
G01*
G37*
%TD.AperFunction*%
%TO.P,C4,1*%
%TO.N,Net-(C3-Pad1)*%
%TA.AperFunction,SMDPad,CuDef*%
G36*
G01*
X88921000Y-81361000D02*
X88921000Y-82611000D01*
G75*
G02*
X88671000Y-82861000I-250000J0D01*
G01*
X87921000Y-82861000D01*
G75*
G02*
X87671000Y-82611000I0J250000D01*
G01*
X87671000Y-81361000D01*
G75*
G02*
X87921000Y-81111000I250000J0D01*
G01*
X88671000Y-81111000D01*
G75*
G02*
X88921000Y-81361000I0J-250000D01*
G01*
G37*
%TD.AperFunction*%
%TD*%
%TO.P,C5,2*%
%TO.N,Net-(C3-Pad2)*%
%TA.AperFunction,SMDPad,CuDef*%
G36*
G01*
X86121000Y-83797000D02*
X86121000Y-85047000D01*
G75*
G02*
X85871000Y-85297000I-250000J0D01*
G01*
X85121000Y-85297000D01*
G75*
G02*
X84871000Y-85047000I0J250000D01*
G01*
X84871000Y-83797000D01*
G75*
G02*
X85121000Y-83547000I250000J0D01*
G01*
X85871000Y-83547000D01*
G75*
G02*
X86121000Y-83797000I0J-250000D01*
G01*
G37*
%TD.AperFunction*%
%TO.P,C5,1*%
%TO.N,Net-(C3-Pad1)*%
%TA.AperFunction,SMDPad,CuDef*%
G36*
G01*
X88921000Y-83797000D02*
X88921000Y-85047000D01*
G75*
G02*
X88671000Y-85297000I-250000J0D01*
G01*
X87921000Y-85297000D01*
G75*
G02*
X87671000Y-85047000I0J250000D01*
G01*
X87671000Y-83797000D01*
G75*
G02*
X87921000Y-83547000I250000J0D01*
G01*
X88671000Y-83547000D01*
G75*
G02*
X88921000Y-83797000I0J-250000D01*
G01*
G37*
%TD.AperFunction*%
%TD*%
%TO.P,C6,2*%
%TO.N,Net-(C3-Pad2)*%
%TA.AperFunction,SMDPad,CuDef*%
G36*
G01*
X86121000Y-86337000D02*
X86121000Y-87587000D01*
G75*
G02*
X85871000Y-87837000I-250000J0D01*
G01*
X85121000Y-87837000D01*
G75*
G02*
X84871000Y-87587000I0J250000D01*
G01*
X84871000Y-86337000D01*
G75*
G02*
X85121000Y-86087000I250000J0D01*
G01*
X85871000Y-86087000D01*
G75*
G02*
X86121000Y-86337000I0J-250000D01*
G01*
G37*
%TD.AperFunction*%
%TO.P,C6,1*%
%TO.N,Net-(C3-Pad1)*%
%TA.AperFunction,SMDPad,CuDef*%
G36*
G01*
X88921000Y-86337000D02*
X88921000Y-87587000D01*
G75*
G02*
X88671000Y-87837000I-250000J0D01*
G01*
X87921000Y-87837000D01*
G75*
G02*
X87671000Y-87587000I0J250000D01*
G01*
X87671000Y-86337000D01*
G75*
G02*
X87921000Y-86087000I250000J0D01*
G01*
X88671000Y-86087000D01*
G75*
G02*
X88921000Y-86337000I0J-250000D01*
G01*
G37*
%TD.AperFunction*%
%TD*%
%TO.P,C7,2*%
%TO.N,GND*%
%TA.AperFunction,SMDPad,CuDef*%
G36*
G01*
X110170000Y-100372000D02*
X110170000Y-99272000D01*
G75*
G02*
X110420000Y-99022000I250000J0D01*
G01*
X113420000Y-99022000D01*
G75*
G02*
X113670000Y-99272000I0J-250000D01*
G01*
X113670000Y-100372000D01*
G75*
G02*
X113420000Y-100622000I-250000J0D01*
G01*
X110420000Y-100622000D01*
G75*
G02*
X110170000Y-100372000I0J250000D01*
G01*
G37*
%TD.AperFunction*%
%TO.P,C7,1*%
%TO.N,+12V*%
%TA.AperFunction,SMDPad,CuDef*%
G36*
G01*
X104770000Y-100372000D02*
X104770000Y-99272000D01*
G75*
G02*
X105020000Y-99022000I250000J0D01*
G01*
X108020000Y-99022000D01*
G75*
G02*
X108270000Y-99272000I0J-250000D01*
G01*
X108270000Y-100372000D01*
G75*
G02*
X108020000Y-100622000I-250000J0D01*
G01*
X105020000Y-100622000D01*
G75*
G02*
X104770000Y-100372000I0J250000D01*
G01*
G37*
%TD.AperFunction*%
%TD*%
%TO.P,C8,2*%
%TO.N,-12V*%
%TA.AperFunction,SMDPad,CuDef*%
G36*
G01*
X90200000Y-100075000D02*
X90200000Y-98975000D01*
G75*
G02*
X90450000Y-98725000I250000J0D01*
G01*
X93450000Y-98725000D01*
G75*
G02*
X93700000Y-98975000I0J-250000D01*
G01*
X93700000Y-100075000D01*
G75*
G02*
X93450000Y-100325000I-250000J0D01*
G01*
X90450000Y-100325000D01*
G75*
G02*
X90200000Y-100075000I0J250000D01*
G01*
G37*
%TD.AperFunction*%
%TO.P,C8,1*%
%TO.N,GND*%
%TA.AperFunction,SMDPad,CuDef*%
G36*
G01*
X84800000Y-100075000D02*
X84800000Y-98975000D01*
G75*
G02*
X85050000Y-98725000I250000J0D01*
G01*
X88050000Y-98725000D01*
G75*
G02*
X88300000Y-98975000I0J-250000D01*
G01*
X88300000Y-100075000D01*
G75*
G02*
X88050000Y-100325000I-250000J0D01*
G01*
X85050000Y-100325000D01*
G75*
G02*
X84800000Y-100075000I0J250000D01*
G01*
G37*
%TD.AperFunction*%
%TD*%
%TO.P,C9,2*%
%TO.N,+12V*%
%TA.AperFunction,SMDPad,CuDef*%
G36*
G01*
X104904250Y-102240500D02*
X104391750Y-102240500D01*
G75*
G02*
X104173000Y-102021750I0J218750D01*
G01*
X104173000Y-101584250D01*
G75*
G02*
X104391750Y-101365500I218750J0D01*
G01*
X104904250Y-101365500D01*
G75*
G02*
X105123000Y-101584250I0J-218750D01*
G01*
X105123000Y-102021750D01*
G75*
G02*
X104904250Y-102240500I-218750J0D01*
G01*
G37*
%TD.AperFunction*%
%TO.P,C9,1*%
%TO.N,GND*%
%TA.AperFunction,SMDPad,CuDef*%
G36*
G01*
X104904250Y-103815500D02*
X104391750Y-103815500D01*
G75*
G02*
X104173000Y-103596750I0J218750D01*
G01*
X104173000Y-103159250D01*
G75*
G02*
X104391750Y-102940500I218750J0D01*
G01*
X104904250Y-102940500D01*
G75*
G02*
X105123000Y-103159250I0J-218750D01*
G01*
X105123000Y-103596750D01*
G75*
G02*
X104904250Y-103815500I-218750J0D01*
G01*
G37*
%TD.AperFunction*%
%TD*%
%TO.P,C10,2*%
%TO.N,GND*%
%TA.AperFunction,SMDPad,CuDef*%
G36*
G01*
X94518750Y-102100000D02*
X95031250Y-102100000D01*
G75*
G02*
X95250000Y-102318750I0J-218750D01*
G01*
X95250000Y-102756250D01*
G75*
G02*
X95031250Y-102975000I-218750J0D01*
G01*
X94518750Y-102975000D01*
G75*
G02*
X94300000Y-102756250I0J218750D01*
G01*
X94300000Y-102318750D01*
G75*
G02*
X94518750Y-102100000I218750J0D01*
G01*
G37*
%TD.AperFunction*%
%TO.P,C10,1*%
%TO.N,-12V*%
%TA.AperFunction,SMDPad,CuDef*%
G36*
G01*
X94518750Y-100525000D02*
X95031250Y-100525000D01*
G75*
G02*
X95250000Y-100743750I0J-218750D01*
G01*
X95250000Y-101181250D01*
G75*
G02*
X95031250Y-101400000I-218750J0D01*
G01*
X94518750Y-101400000D01*
G75*
G02*
X94300000Y-101181250I0J218750D01*
G01*
X94300000Y-100743750D01*
G75*
G02*
X94518750Y-100525000I218750J0D01*
G01*
G37*
%TD.AperFunction*%
%TD*%
D14*
%TO.P,D1,2*%
%TO.N,Net-(D1-Pad2)*%
X106750000Y-107750000D03*
%TO.P,D1,1*%
%TO.N,Net-(D1-Pad1)*%
X102750000Y-107750000D03*
%TD*%
%TO.P,D2,2*%
%TO.N,Net-(D2-Pad2)*%
X114000000Y-107750000D03*
%TO.P,D2,1*%
%TO.N,Net-(D1-Pad2)*%
X110000000Y-107750000D03*
%TD*%
D10*
%TO.P,J1,*%
%TO.N,*%
X85000000Y-70000000D03*
D11*
%TO.P,J1,3*%
%TO.N,Net-(J1-Pad2)*%
X85000000Y-74920000D03*
%TO.P,J1,2*%
X85000000Y-66620000D03*
%TO.P,J1,1*%
%TO.N,GND*%
X85000000Y-63520000D03*
%TD*%
D15*
%TO.P,X1,10*%
%TO.N,+12V*%
X105080000Y-116270000D03*
%TO.P,X1,9*%
X105080000Y-113730000D03*
%TO.P,X1,8*%
%TO.N,GND*%
X102540000Y-116270000D03*
%TO.P,X1,7*%
X102540000Y-113730000D03*
%TO.P,X1,6*%
X100000000Y-116270000D03*
%TO.P,X1,5*%
X100000000Y-113730000D03*
%TO.P,X1,4*%
X97460000Y-116270000D03*
%TO.P,X1,3*%
X97460000Y-113730000D03*
%TO.P,X1,2*%
%TO.N,-12V*%
X94920000Y-116270000D03*
%TO.P,X1,1*%
X94920000Y-113730000D03*
%TD*%
%TO.P,R1,2*%
%TO.N,Net-(R1-Pad2)*%
%TA.AperFunction,SMDPad,CuDef*%
G36*
G01*
X104552000Y-93457750D02*
X104552000Y-93970250D01*
G75*
G02*
X104333250Y-94189000I-218750J0D01*
G01*
X103895750Y-94189000D01*
G75*
G02*
X103677000Y-93970250I0J218750D01*
G01*
X103677000Y-93457750D01*
G75*
G02*
X103895750Y-93239000I218750J0D01*
G01*
X104333250Y-93239000D01*
G75*
G02*
X104552000Y-93457750I0J-218750D01*
G01*
G37*
%TD.AperFunction*%
%TO.P,R1,1*%
%TO.N,Net-(D1-Pad1)*%
%TA.AperFunction,SMDPad,CuDef*%
G36*
G01*
X106127000Y-93457750D02*
X106127000Y-93970250D01*
G75*
G02*
X105908250Y-94189000I-218750J0D01*
G01*
X105470750Y-94189000D01*
G75*
G02*
X105252000Y-93970250I0J218750D01*
G01*
X105252000Y-93457750D01*
G75*
G02*
X105470750Y-93239000I218750J0D01*
G01*
X105908250Y-93239000D01*
G75*
G02*
X106127000Y-93457750I0J-218750D01*
G01*
G37*
%TD.AperFunction*%
%TD*%
%TO.P,R2,2*%
%TO.N,Net-(D1-Pad1)*%
%TA.AperFunction,SMDPad,CuDef*%
G36*
G01*
X105252000Y-92446250D02*
X105252000Y-91933750D01*
G75*
G02*
X105470750Y-91715000I218750J0D01*
G01*
X105908250Y-91715000D01*
G75*
G02*
X106127000Y-91933750I0J-218750D01*
G01*
X106127000Y-92446250D01*
G75*
G02*
X105908250Y-92665000I-218750J0D01*
G01*
X105470750Y-92665000D01*
G75*
G02*
X105252000Y-92446250I0J218750D01*
G01*
G37*
%TD.AperFunction*%
%TO.P,R2,1*%
%TO.N,Net-(D2-Pad2)*%
%TA.AperFunction,SMDPad,CuDef*%
G36*
G01*
X103677000Y-92446250D02*
X103677000Y-91933750D01*
G75*
G02*
X103895750Y-91715000I218750J0D01*
G01*
X104333250Y-91715000D01*
G75*
G02*
X104552000Y-91933750I0J-218750D01*
G01*
X104552000Y-92446250D01*
G75*
G02*
X104333250Y-92665000I-218750J0D01*
G01*
X103895750Y-92665000D01*
G75*
G02*
X103677000Y-92446250I0J218750D01*
G01*
G37*
%TD.AperFunction*%
%TD*%
%TO.P,R3,2*%
%TO.N,Net-(R1-Pad2)*%
%TA.AperFunction,SMDPad,CuDef*%
G36*
G01*
X105252000Y-90172250D02*
X105252000Y-89659750D01*
G75*
G02*
X105470750Y-89441000I218750J0D01*
G01*
X105908250Y-89441000D01*
G75*
G02*
X106127000Y-89659750I0J-218750D01*
G01*
X106127000Y-90172250D01*
G75*
G02*
X105908250Y-90391000I-218750J0D01*
G01*
X105470750Y-90391000D01*
G75*
G02*
X105252000Y-90172250I0J218750D01*
G01*
G37*
%TD.AperFunction*%
%TO.P,R3,1*%
%TO.N,Net-(R3-Pad1)*%
%TA.AperFunction,SMDPad,CuDef*%
G36*
G01*
X103677000Y-90172250D02*
X103677000Y-89659750D01*
G75*
G02*
X103895750Y-89441000I218750J0D01*
G01*
X104333250Y-89441000D01*
G75*
G02*
X104552000Y-89659750I0J-218750D01*
G01*
X104552000Y-90172250D01*
G75*
G02*
X104333250Y-90391000I-218750J0D01*
G01*
X103895750Y-90391000D01*
G75*
G02*
X103677000Y-90172250I0J218750D01*
G01*
G37*
%TD.AperFunction*%
%TD*%
%TO.P,R4,2*%
%TO.N,Net-(D2-Pad2)*%
%TA.AperFunction,SMDPad,CuDef*%
G36*
G01*
X105252000Y-88648250D02*
X105252000Y-88135750D01*
G75*
G02*
X105470750Y-87917000I218750J0D01*
G01*
X105908250Y-87917000D01*
G75*
G02*
X106127000Y-88135750I0J-218750D01*
G01*
X106127000Y-88648250D01*
G75*
G02*
X105908250Y-88867000I-218750J0D01*
G01*
X105470750Y-88867000D01*
G75*
G02*
X105252000Y-88648250I0J218750D01*
G01*
G37*
%TD.AperFunction*%
%TO.P,R4,1*%
%TO.N,Net-(R3-Pad1)*%
%TA.AperFunction,SMDPad,CuDef*%
G36*
G01*
X103677000Y-88648250D02*
X103677000Y-88135750D01*
G75*
G02*
X103895750Y-87917000I218750J0D01*
G01*
X104333250Y-87917000D01*
G75*
G02*
X104552000Y-88135750I0J-218750D01*
G01*
X104552000Y-88648250D01*
G75*
G02*
X104333250Y-88867000I-218750J0D01*
G01*
X103895750Y-88867000D01*
G75*
G02*
X103677000Y-88648250I0J218750D01*
G01*
G37*
%TD.AperFunction*%
%TD*%
%TO.P,R5,2*%
%TO.N,Net-(D2-Pad2)*%
%TA.AperFunction,SMDPad,CuDef*%
G36*
G01*
X105252000Y-87124250D02*
X105252000Y-86611750D01*
G75*
G02*
X105470750Y-86393000I218750J0D01*
G01*
X105908250Y-86393000D01*
G75*
G02*
X106127000Y-86611750I0J-218750D01*
G01*
X106127000Y-87124250D01*
G75*
G02*
X105908250Y-87343000I-218750J0D01*
G01*
X105470750Y-87343000D01*
G75*
G02*
X105252000Y-87124250I0J218750D01*
G01*
G37*
%TD.AperFunction*%
%TO.P,R5,1*%
%TO.N,Net-(R3-Pad1)*%
%TA.AperFunction,SMDPad,CuDef*%
G36*
G01*
X103677000Y-87124250D02*
X103677000Y-86611750D01*
G75*
G02*
X103895750Y-86393000I218750J0D01*
G01*
X104333250Y-86393000D01*
G75*
G02*
X104552000Y-86611750I0J-218750D01*
G01*
X104552000Y-87124250D01*
G75*
G02*
X104333250Y-87343000I-218750J0D01*
G01*
X103895750Y-87343000D01*
G75*
G02*
X103677000Y-87124250I0J218750D01*
G01*
G37*
%TD.AperFunction*%
%TD*%
%TO.P,R6,2*%
%TO.N,Net-(R3-Pad1)*%
%TA.AperFunction,SMDPad,CuDef*%
G36*
G01*
X104552000Y-85087750D02*
X104552000Y-85600250D01*
G75*
G02*
X104333250Y-85819000I-218750J0D01*
G01*
X103895750Y-85819000D01*
G75*
G02*
X103677000Y-85600250I0J218750D01*
G01*
X103677000Y-85087750D01*
G75*
G02*
X103895750Y-84869000I218750J0D01*
G01*
X104333250Y-84869000D01*
G75*
G02*
X104552000Y-85087750I0J-218750D01*
G01*
G37*
%TD.AperFunction*%
%TO.P,R6,1*%
%TO.N,Net-(R6-Pad1)*%
%TA.AperFunction,SMDPad,CuDef*%
G36*
G01*
X106127000Y-85087750D02*
X106127000Y-85600250D01*
G75*
G02*
X105908250Y-85819000I-218750J0D01*
G01*
X105470750Y-85819000D01*
G75*
G02*
X105252000Y-85600250I0J218750D01*
G01*
X105252000Y-85087750D01*
G75*
G02*
X105470750Y-84869000I218750J0D01*
G01*
X105908250Y-84869000D01*
G75*
G02*
X106127000Y-85087750I0J-218750D01*
G01*
G37*
%TD.AperFunction*%
%TD*%
%TO.P,R7,2*%
%TO.N,Net-(R6-Pad1)*%
%TA.AperFunction,SMDPad,CuDef*%
G36*
G01*
X105252000Y-83426250D02*
X105252000Y-82913750D01*
G75*
G02*
X105470750Y-82695000I218750J0D01*
G01*
X105908250Y-82695000D01*
G75*
G02*
X106127000Y-82913750I0J-218750D01*
G01*
X106127000Y-83426250D01*
G75*
G02*
X105908250Y-83645000I-218750J0D01*
G01*
X105470750Y-83645000D01*
G75*
G02*
X105252000Y-83426250I0J218750D01*
G01*
G37*
%TD.AperFunction*%
%TO.P,R7,1*%
%TO.N,Net-(R7-Pad1)*%
%TA.AperFunction,SMDPad,CuDef*%
G36*
G01*
X103677000Y-83426250D02*
X103677000Y-82913750D01*
G75*
G02*
X103895750Y-82695000I218750J0D01*
G01*
X104333250Y-82695000D01*
G75*
G02*
X104552000Y-82913750I0J-218750D01*
G01*
X104552000Y-83426250D01*
G75*
G02*
X104333250Y-83645000I-218750J0D01*
G01*
X103895750Y-83645000D01*
G75*
G02*
X103677000Y-83426250I0J218750D01*
G01*
G37*
%TD.AperFunction*%
%TD*%
%TO.P,R8,2*%
%TO.N,Net-(C3-Pad1)*%
%TA.AperFunction,SMDPad,CuDef*%
G36*
G01*
X105252000Y-81902250D02*
X105252000Y-81389750D01*
G75*
G02*
X105470750Y-81171000I218750J0D01*
G01*
X105908250Y-81171000D01*
G75*
G02*
X106127000Y-81389750I0J-218750D01*
G01*
X106127000Y-81902250D01*
G75*
G02*
X105908250Y-82121000I-218750J0D01*
G01*
X105470750Y-82121000D01*
G75*
G02*
X105252000Y-81902250I0J218750D01*
G01*
G37*
%TD.AperFunction*%
%TO.P,R8,1*%
%TO.N,Net-(R8-Pad1)*%
%TA.AperFunction,SMDPad,CuDef*%
G36*
G01*
X103677000Y-81902250D02*
X103677000Y-81389750D01*
G75*
G02*
X103895750Y-81171000I218750J0D01*
G01*
X104333250Y-81171000D01*
G75*
G02*
X104552000Y-81389750I0J-218750D01*
G01*
X104552000Y-81902250D01*
G75*
G02*
X104333250Y-82121000I-218750J0D01*
G01*
X103895750Y-82121000D01*
G75*
G02*
X103677000Y-81902250I0J218750D01*
G01*
G37*
%TD.AperFunction*%
%TD*%
%TO.P,U1,14*%
%TO.N,Net-(C3-Pad2)*%
%TA.AperFunction,SMDPad,CuDef*%
G36*
G01*
X98500000Y-96040000D02*
X98500000Y-96340000D01*
G75*
G02*
X98350000Y-96490000I-150000J0D01*
G01*
X96700000Y-96490000D01*
G75*
G02*
X96550000Y-96340000I0J150000D01*
G01*
X96550000Y-96040000D01*
G75*
G02*
X96700000Y-95890000I150000J0D01*
G01*
X98350000Y-95890000D01*
G75*
G02*
X98500000Y-96040000I0J-150000D01*
G01*
G37*
%TD.AperFunction*%
%TO.P,U1,13*%
%TA.AperFunction,SMDPad,CuDef*%
G36*
G01*
X98500000Y-97310000D02*
X98500000Y-97610000D01*
G75*
G02*
X98350000Y-97760000I-150000J0D01*
G01*
X96700000Y-97760000D01*
G75*
G02*
X96550000Y-97610000I0J150000D01*
G01*
X96550000Y-97310000D01*
G75*
G02*
X96700000Y-97160000I150000J0D01*
G01*
X98350000Y-97160000D01*
G75*
G02*
X98500000Y-97310000I0J-150000D01*
G01*
G37*
%TD.AperFunction*%
%TO.P,U1,12*%
%TO.N,Net-(C1-Pad2)*%
%TA.AperFunction,SMDPad,CuDef*%
G36*
G01*
X98500000Y-98580000D02*
X98500000Y-98880000D01*
G75*
G02*
X98350000Y-99030000I-150000J0D01*
G01*
X96700000Y-99030000D01*
G75*
G02*
X96550000Y-98880000I0J150000D01*
G01*
X96550000Y-98580000D01*
G75*
G02*
X96700000Y-98430000I150000J0D01*
G01*
X98350000Y-98430000D01*
G75*
G02*
X98500000Y-98580000I0J-150000D01*
G01*
G37*
%TD.AperFunction*%
%TO.P,U1,11*%
%TO.N,-12V*%
%TA.AperFunction,SMDPad,CuDef*%
G36*
G01*
X98500000Y-99850000D02*
X98500000Y-100150000D01*
G75*
G02*
X98350000Y-100300000I-150000J0D01*
G01*
X96700000Y-100300000D01*
G75*
G02*
X96550000Y-100150000I0J150000D01*
G01*
X96550000Y-99850000D01*
G75*
G02*
X96700000Y-99700000I150000J0D01*
G01*
X98350000Y-99700000D01*
G75*
G02*
X98500000Y-99850000I0J-150000D01*
G01*
G37*
%TD.AperFunction*%
%TO.P,U1,10*%
%TO.N,GND*%
%TA.AperFunction,SMDPad,CuDef*%
G36*
G01*
X98500000Y-101120000D02*
X98500000Y-101420000D01*
G75*
G02*
X98350000Y-101570000I-150000J0D01*
G01*
X96700000Y-101570000D01*
G75*
G02*
X96550000Y-101420000I0J150000D01*
G01*
X96550000Y-101120000D01*
G75*
G02*
X96700000Y-100970000I150000J0D01*
G01*
X98350000Y-100970000D01*
G75*
G02*
X98500000Y-101120000I0J-150000D01*
G01*
G37*
%TD.AperFunction*%
%TO.P,U1,9*%
%TO.N,Net-(R3-Pad1)*%
%TA.AperFunction,SMDPad,CuDef*%
G36*
G01*
X98500000Y-102390000D02*
X98500000Y-102690000D01*
G75*
G02*
X98350000Y-102840000I-150000J0D01*
G01*
X96700000Y-102840000D01*
G75*
G02*
X96550000Y-102690000I0J150000D01*
G01*
X96550000Y-102390000D01*
G75*
G02*
X96700000Y-102240000I150000J0D01*
G01*
X98350000Y-102240000D01*
G75*
G02*
X98500000Y-102390000I0J-150000D01*
G01*
G37*
%TD.AperFunction*%
%TO.P,U1,8*%
%TO.N,Net-(R6-Pad1)*%
%TA.AperFunction,SMDPad,CuDef*%
G36*
G01*
X98500000Y-103660000D02*
X98500000Y-103960000D01*
G75*
G02*
X98350000Y-104110000I-150000J0D01*
G01*
X96700000Y-104110000D01*
G75*
G02*
X96550000Y-103960000I0J150000D01*
G01*
X96550000Y-103660000D01*
G75*
G02*
X96700000Y-103510000I150000J0D01*
G01*
X98350000Y-103510000D01*
G75*
G02*
X98500000Y-103660000I0J-150000D01*
G01*
G37*
%TD.AperFunction*%
%TO.P,U1,7*%
%TO.N,Net-(D1-Pad2)*%
%TA.AperFunction,SMDPad,CuDef*%
G36*
G01*
X103450000Y-103660000D02*
X103450000Y-103960000D01*
G75*
G02*
X103300000Y-104110000I-150000J0D01*
G01*
X101650000Y-104110000D01*
G75*
G02*
X101500000Y-103960000I0J150000D01*
G01*
X101500000Y-103660000D01*
G75*
G02*
X101650000Y-103510000I150000J0D01*
G01*
X103300000Y-103510000D01*
G75*
G02*
X103450000Y-103660000I0J-150000D01*
G01*
G37*
%TD.AperFunction*%
%TO.P,U1,6*%
%TO.N,Net-(D1-Pad1)*%
%TA.AperFunction,SMDPad,CuDef*%
G36*
G01*
X103450000Y-102390000D02*
X103450000Y-102690000D01*
G75*
G02*
X103300000Y-102840000I-150000J0D01*
G01*
X101650000Y-102840000D01*
G75*
G02*
X101500000Y-102690000I0J150000D01*
G01*
X101500000Y-102390000D01*
G75*
G02*
X101650000Y-102240000I150000J0D01*
G01*
X103300000Y-102240000D01*
G75*
G02*
X103450000Y-102390000I0J-150000D01*
G01*
G37*
%TD.AperFunction*%
%TO.P,U1,5*%
%TO.N,GND*%
%TA.AperFunction,SMDPad,CuDef*%
G36*
G01*
X103450000Y-101120000D02*
X103450000Y-101420000D01*
G75*
G02*
X103300000Y-101570000I-150000J0D01*
G01*
X101650000Y-101570000D01*
G75*
G02*
X101500000Y-101420000I0J150000D01*
G01*
X101500000Y-101120000D01*
G75*
G02*
X101650000Y-100970000I150000J0D01*
G01*
X103300000Y-100970000D01*
G75*
G02*
X103450000Y-101120000I0J-150000D01*
G01*
G37*
%TD.AperFunction*%
%TO.P,U1,4*%
%TO.N,+12V*%
%TA.AperFunction,SMDPad,CuDef*%
G36*
G01*
X103450000Y-99850000D02*
X103450000Y-100150000D01*
G75*
G02*
X103300000Y-100300000I-150000J0D01*
G01*
X101650000Y-100300000D01*
G75*
G02*
X101500000Y-100150000I0J150000D01*
G01*
X101500000Y-99850000D01*
G75*
G02*
X101650000Y-99700000I150000J0D01*
G01*
X103300000Y-99700000D01*
G75*
G02*
X103450000Y-99850000I0J-150000D01*
G01*
G37*
%TD.AperFunction*%
%TO.P,U1,3*%
%TO.N,Net-(J1-Pad2)*%
%TA.AperFunction,SMDPad,CuDef*%
G36*
G01*
X103450000Y-98580000D02*
X103450000Y-98880000D01*
G75*
G02*
X103300000Y-99030000I-150000J0D01*
G01*
X101650000Y-99030000D01*
G75*
G02*
X101500000Y-98880000I0J150000D01*
G01*
X101500000Y-98580000D01*
G75*
G02*
X101650000Y-98430000I150000J0D01*
G01*
X103300000Y-98430000D01*
G75*
G02*
X103450000Y-98580000I0J-150000D01*
G01*
G37*
%TD.AperFunction*%
%TO.P,U1,2*%
%TO.N,Net-(R1-Pad2)*%
%TA.AperFunction,SMDPad,CuDef*%
G36*
G01*
X103450000Y-97310000D02*
X103450000Y-97610000D01*
G75*
G02*
X103300000Y-97760000I-150000J0D01*
G01*
X101650000Y-97760000D01*
G75*
G02*
X101500000Y-97610000I0J150000D01*
G01*
X101500000Y-97310000D01*
G75*
G02*
X101650000Y-97160000I150000J0D01*
G01*
X103300000Y-97160000D01*
G75*
G02*
X103450000Y-97310000I0J-150000D01*
G01*
G37*
%TD.AperFunction*%
%TO.P,U1,1*%
%TA.AperFunction,SMDPad,CuDef*%
G36*
G01*
X103450000Y-96040000D02*
X103450000Y-96340000D01*
G75*
G02*
X103300000Y-96490000I-150000J0D01*
G01*
X101650000Y-96490000D01*
G75*
G02*
X101500000Y-96340000I0J150000D01*
G01*
X101500000Y-96040000D01*
G75*
G02*
X101650000Y-95890000I150000J0D01*
G01*
X103300000Y-95890000D01*
G75*
G02*
X103450000Y-96040000I0J-150000D01*
G01*
G37*
%TD.AperFunction*%
%TD*%
D16*
%TO.N,GND*%
X107775000Y-104775000D03*
X105400000Y-96750000D03*
X96325000Y-84000000D03*
X100600000Y-88225000D03*
X100025000Y-78850000D03*
X94750000Y-93825000D03*
X107475000Y-93050000D03*
X101050000Y-101250000D03*
%TO.N,Net-(J1-Pad2)*%
X100800000Y-98725000D03*
%TO.N,Net-(R3-Pad1)*%
X98987500Y-94987500D03*
X99115000Y-102540000D03*
%TO.N,Net-(C3-Pad2)*%
X92950000Y-89700000D03*
X89975000Y-89750000D03*
%TO.N,Net-(R6-Pad1)*%
X97650000Y-91625000D03*
X97650000Y-104900000D03*
%TD*%
D17*
%TO.N,Net-(C1-Pad2)*%
X91954000Y-91694000D02*
X91954000Y-94234000D01*
X92054000Y-94234000D02*
X91954000Y-94234000D01*
X97525000Y-98730000D02*
X96550000Y-98730000D01*
X96450000Y-98730000D02*
X91954000Y-94234000D01*
X97525000Y-98730000D02*
X96450000Y-98730000D01*
X91954000Y-77290000D02*
X93044000Y-76200000D01*
X91954000Y-91694000D02*
X91954000Y-77290000D01*
%TO.N,Net-(D1-Pad1)*%
X105689500Y-93714000D02*
X105689500Y-92190000D01*
X101500000Y-102540000D02*
X102475000Y-102540000D01*
X101174990Y-102865010D02*
X101500000Y-102540000D01*
X101174990Y-106174990D02*
X101174990Y-102865010D01*
X102750000Y-107750000D02*
X101174990Y-106174990D01*
X104166516Y-102565510D02*
X107184490Y-102565510D01*
X102475000Y-102540000D02*
X104141006Y-102540000D01*
X104141006Y-102540000D02*
X104166516Y-102565510D01*
X107184490Y-102565510D02*
X108750000Y-101000000D01*
X108750000Y-96024500D02*
X105689500Y-92964000D01*
X108750000Y-101000000D02*
X108750000Y-96024500D01*
%TO.N,Net-(D1-Pad2)*%
X106415000Y-107750000D02*
X102475000Y-103810000D01*
X106750000Y-107750000D02*
X106415000Y-107750000D01*
X106750000Y-107750000D02*
X110000000Y-107750000D01*
%TO.N,Net-(D2-Pad2)*%
X105689500Y-86868000D02*
X105689500Y-88392000D01*
X104114500Y-91884596D02*
X104114500Y-92190000D01*
X104926990Y-91072106D02*
X104114500Y-91884596D01*
X104926990Y-89154510D02*
X104926990Y-91072106D01*
X105689500Y-88392000D02*
X104926990Y-89154510D01*
X105689500Y-88672006D02*
X109625000Y-92607506D01*
X105689500Y-88392000D02*
X105689500Y-88672006D01*
X109625000Y-103375000D02*
X114000000Y-107750000D01*
X109625000Y-92607506D02*
X109625000Y-103375000D01*
%TO.N,GND*%
X100970000Y-101270000D02*
X100875000Y-101175000D01*
X102475000Y-101270000D02*
X100970000Y-101270000D01*
%TO.N,Net-(J1-Pad2)*%
X100805000Y-98730000D02*
X100800000Y-98725000D01*
X102475000Y-98730000D02*
X100805000Y-98730000D01*
%TO.N,Net-(R1-Pad2)*%
X102475000Y-95353500D02*
X104114500Y-93714000D01*
X102475000Y-97460000D02*
X102475000Y-96190000D01*
X105689500Y-90196006D02*
X105689500Y-89916000D01*
X104926990Y-91708516D02*
X105376999Y-91258507D01*
X105689500Y-90939500D02*
X105689500Y-89916000D01*
X105376999Y-91252001D02*
X105689500Y-90939500D01*
X105376999Y-91258507D02*
X105376999Y-91252001D01*
X104926990Y-92901510D02*
X104926990Y-91708516D01*
X104114500Y-93714000D02*
X104926990Y-92901510D01*
X102475000Y-95353500D02*
X102475000Y-96190000D01*
%TO.N,Net-(R3-Pad1)*%
X104114500Y-86868000D02*
X104114500Y-88392000D01*
X104114500Y-88392000D02*
X104114500Y-89916000D01*
X104114500Y-86868000D02*
X104114500Y-85344000D01*
X97485000Y-102500000D02*
X97525000Y-102540000D01*
X97525000Y-102540000D02*
X97148232Y-102540000D01*
X97371990Y-102386990D02*
X97525000Y-102540000D01*
X104114500Y-89916000D02*
X99965250Y-94065250D01*
X99965250Y-94065250D02*
X99909750Y-94065250D01*
X99909750Y-94065250D02*
X98987500Y-94987500D01*
X98500000Y-102540000D02*
X97525000Y-102540000D01*
X98987500Y-94987500D02*
X98950000Y-95025000D01*
X97525000Y-102540000D02*
X99115000Y-102540000D01*
X99115000Y-102540000D02*
X99115000Y-102540000D01*
%TO.N,Net-(C3-Pad2)*%
X85496000Y-86962000D02*
X85496000Y-84422000D01*
X85496000Y-84422000D02*
X85496000Y-81986000D01*
X85496000Y-81986000D02*
X85496000Y-79596000D01*
X85496000Y-78869190D02*
X85496000Y-79596000D01*
X97525000Y-97460000D02*
X97525000Y-96190000D01*
X97525000Y-96190000D02*
X97525000Y-94725000D01*
X97525000Y-94725000D02*
X97525000Y-94425000D01*
X97525000Y-94425000D02*
X92850000Y-89750000D01*
X88284000Y-89750000D02*
X85496000Y-86962000D01*
X89975000Y-89750000D02*
X88284000Y-89750000D01*
%TO.N,Net-(C1-Pad2)*%
X93044000Y-76200000D02*
X94593991Y-76200000D01*
%TO.N,Net-(C3-Pad1)*%
X88296000Y-86962000D02*
X88296000Y-84422000D01*
X88296000Y-84422000D02*
X88296000Y-81986000D01*
X88296000Y-81986000D02*
X88296000Y-79596000D01*
X105689500Y-80653090D02*
X105689500Y-80989500D01*
X105689500Y-80845500D02*
X105689500Y-80989500D01*
X105689500Y-80989500D02*
X105689500Y-81646000D01*
X91892001Y-75124999D02*
X99968999Y-75124999D01*
X88296000Y-78721000D02*
X91892001Y-75124999D01*
X88296000Y-79596000D02*
X88296000Y-78721000D01*
X103000000Y-77963590D02*
X103593205Y-78556795D01*
X103000000Y-76200000D02*
X103000000Y-77963590D01*
X103593205Y-78556795D02*
X105689500Y-80653090D01*
X101924999Y-75124999D02*
X99968999Y-75124999D01*
X103000000Y-76200000D02*
X101924999Y-75124999D01*
%TO.N,-12V*%
X94920000Y-116270000D02*
X94920000Y-113730000D01*
%TO.N,+12V*%
X105080000Y-116270000D02*
X105080000Y-113730000D01*
X106342000Y-100000000D02*
X106520000Y-99822000D01*
X102475000Y-100000000D02*
X106342000Y-100000000D01*
X104648000Y-101198000D02*
X104648000Y-101803000D01*
X103450000Y-100000000D02*
X104648000Y-101198000D01*
X102475000Y-100000000D02*
X103450000Y-100000000D01*
X102475000Y-100000000D02*
X101500000Y-100000000D01*
X102475000Y-100000000D02*
X101000000Y-100000000D01*
X101000000Y-100000000D02*
X101000000Y-100000000D01*
X100724981Y-100275019D02*
X101000000Y-100000000D01*
X100638591Y-100275019D02*
X100300010Y-100613600D01*
X100724981Y-100275019D02*
X100638591Y-100275019D01*
X100300010Y-110400010D02*
X101775000Y-111875000D01*
X100300010Y-100613600D02*
X100300010Y-110400010D01*
X103225000Y-111875000D02*
X105080000Y-113730000D01*
X101775000Y-111875000D02*
X103225000Y-111875000D01*
%TO.N,-12V*%
X96641000Y-100000000D02*
X97525000Y-100000000D01*
X97901768Y-100000000D02*
X97525000Y-100000000D01*
X93632000Y-99568000D02*
X95068000Y-99568000D01*
X95500000Y-100000000D02*
X97525000Y-100000000D01*
X95068000Y-99568000D02*
X95500000Y-100000000D01*
X97575000Y-100050000D02*
X97525000Y-100000000D01*
X95500000Y-100237500D02*
X94775000Y-100962500D01*
X95500000Y-100000000D02*
X95500000Y-100237500D01*
X96550000Y-100000000D02*
X97525000Y-100000000D01*
X94920000Y-113730000D02*
X96224990Y-112425010D01*
X96224990Y-111700010D02*
X99850000Y-108075000D01*
X96224990Y-112425010D02*
X96224990Y-111700010D01*
X99850000Y-108075000D02*
X99850000Y-100800000D01*
X99850000Y-100800000D02*
X99850000Y-100800000D01*
X99050000Y-100000000D02*
X97525000Y-100000000D01*
X99850000Y-100800000D02*
X99050000Y-100000000D01*
%TO.N,Net-(R6-Pad1)*%
X105689500Y-83170000D02*
X105689500Y-84260500D01*
X105689500Y-84260500D02*
X105689500Y-84694000D01*
X105689500Y-84694000D02*
X105689500Y-85344000D01*
X97650000Y-103935000D02*
X97525000Y-103810000D01*
X97650000Y-104900000D02*
X97650000Y-103935000D01*
X101849999Y-84350001D02*
X97650000Y-88550000D01*
X105689500Y-84260500D02*
X105599999Y-84350001D01*
X105599999Y-84350001D02*
X101849999Y-84350001D01*
X97650000Y-88550000D02*
X97650000Y-91625000D01*
%TO.N,Net-(R7-Pad1)*%
X104114500Y-83170000D02*
X104140000Y-83170000D01*
X104926990Y-82357510D02*
X104114500Y-83170000D01*
X104926990Y-80973010D02*
X104926990Y-82357510D01*
X101000000Y-76200000D02*
X101000000Y-77046020D01*
X101000000Y-77046020D02*
X104926990Y-80973010D01*
%TO.N,Net-(R8-Pad1)*%
X100490000Y-81646000D02*
X100047000Y-81203000D01*
X104114500Y-81646000D02*
X100490000Y-81646000D01*
X97000000Y-76200000D02*
X97000000Y-78156000D01*
X97000000Y-78156000D02*
X98247000Y-79403000D01*
X100047000Y-81203000D02*
X98247000Y-79403000D01*
%TD*%
D18*
%TO.N,GND*%
G36*
X119340001Y-119340000D02*
G01*
X80660000Y-119340000D01*
X80660000Y-114779872D01*
X82765000Y-114779872D01*
X82765000Y-115220128D01*
X82850890Y-115651925D01*
X83019369Y-116058669D01*
X83263962Y-116424729D01*
X83575271Y-116736038D01*
X83941331Y-116980631D01*
X84348075Y-117149110D01*
X84779872Y-117235000D01*
X85220128Y-117235000D01*
X85651925Y-117149110D01*
X86058669Y-116980631D01*
X86424729Y-116736038D01*
X86736038Y-116424729D01*
X86980631Y-116058669D01*
X87149110Y-115651925D01*
X87235000Y-115220128D01*
X87235000Y-114779872D01*
X87149110Y-114348075D01*
X86980631Y-113941331D01*
X86736038Y-113575271D01*
X86424729Y-113263962D01*
X86058669Y-113019369D01*
X85651925Y-112850890D01*
X85220128Y-112765000D01*
X84779872Y-112765000D01*
X84348075Y-112850890D01*
X83941331Y-113019369D01*
X83575271Y-113263962D01*
X83263962Y-113575271D01*
X83019369Y-113941331D01*
X82850890Y-114348075D01*
X82765000Y-114779872D01*
X80660000Y-114779872D01*
X80660000Y-102975000D01*
X93661928Y-102975000D01*
X93674188Y-103099482D01*
X93710498Y-103219180D01*
X93769463Y-103329494D01*
X93848815Y-103426185D01*
X93945506Y-103505537D01*
X94055820Y-103564502D01*
X94175518Y-103600812D01*
X94300000Y-103613072D01*
X94489250Y-103610000D01*
X94648000Y-103451250D01*
X94648000Y-102664500D01*
X94902000Y-102664500D01*
X94902000Y-103451250D01*
X95060750Y-103610000D01*
X95250000Y-103613072D01*
X95374482Y-103600812D01*
X95494180Y-103564502D01*
X95604494Y-103505537D01*
X95701185Y-103426185D01*
X95780537Y-103329494D01*
X95839502Y-103219180D01*
X95875812Y-103099482D01*
X95888072Y-102975000D01*
X95885000Y-102823250D01*
X95726250Y-102664500D01*
X94902000Y-102664500D01*
X94648000Y-102664500D01*
X93823750Y-102664500D01*
X93665000Y-102823250D01*
X93661928Y-102975000D01*
X80660000Y-102975000D01*
X80660000Y-100325000D01*
X84161928Y-100325000D01*
X84174188Y-100449482D01*
X84210498Y-100569180D01*
X84269463Y-100679494D01*
X84348815Y-100776185D01*
X84445506Y-100855537D01*
X84555820Y-100914502D01*
X84675518Y-100950812D01*
X84800000Y-100963072D01*
X86264250Y-100960000D01*
X86423000Y-100801250D01*
X86423000Y-99652000D01*
X86677000Y-99652000D01*
X86677000Y-100801250D01*
X86835750Y-100960000D01*
X88300000Y-100963072D01*
X88424482Y-100950812D01*
X88544180Y-100914502D01*
X88654494Y-100855537D01*
X88751185Y-100776185D01*
X88830537Y-100679494D01*
X88889502Y-100569180D01*
X88925812Y-100449482D01*
X88938072Y-100325000D01*
X88935000Y-99810750D01*
X88776250Y-99652000D01*
X86677000Y-99652000D01*
X86423000Y-99652000D01*
X84323750Y-99652000D01*
X84165000Y-99810750D01*
X84161928Y-100325000D01*
X80660000Y-100325000D01*
X80660000Y-98725000D01*
X84161928Y-98725000D01*
X84165000Y-99239250D01*
X84323750Y-99398000D01*
X86423000Y-99398000D01*
X86423000Y-98248750D01*
X86677000Y-98248750D01*
X86677000Y-99398000D01*
X88776250Y-99398000D01*
X88935000Y-99239250D01*
X88938072Y-98725000D01*
X88925812Y-98600518D01*
X88889502Y-98480820D01*
X88830537Y-98370506D01*
X88751185Y-98273815D01*
X88654494Y-98194463D01*
X88544180Y-98135498D01*
X88424482Y-98099188D01*
X88300000Y-98086928D01*
X86835750Y-98090000D01*
X86677000Y-98248750D01*
X86423000Y-98248750D01*
X86264250Y-98090000D01*
X84800000Y-98086928D01*
X84675518Y-98099188D01*
X84555820Y-98135498D01*
X84445506Y-98194463D01*
X84348815Y-98273815D01*
X84269463Y-98370506D01*
X84210498Y-98480820D01*
X84174188Y-98600518D01*
X84161928Y-98725000D01*
X80660000Y-98725000D01*
X80660000Y-95109000D01*
X87890928Y-95109000D01*
X87903188Y-95233482D01*
X87939498Y-95353180D01*
X87998463Y-95463494D01*
X88077815Y-95560185D01*
X88174506Y-95639537D01*
X88284820Y-95698502D01*
X88404518Y-95734812D01*
X88529000Y-95747072D01*
X88868250Y-95744000D01*
X89027000Y-95585250D01*
X89027000Y-94361000D01*
X89281000Y-94361000D01*
X89281000Y-95585250D01*
X89439750Y-95744000D01*
X89779000Y-95747072D01*
X89903482Y-95734812D01*
X90023180Y-95698502D01*
X90133494Y-95639537D01*
X90230185Y-95560185D01*
X90309537Y-95463494D01*
X90368502Y-95353180D01*
X90404812Y-95233482D01*
X90417072Y-95109000D01*
X90414000Y-94519750D01*
X90255250Y-94361000D01*
X89281000Y-94361000D01*
X89027000Y-94361000D01*
X88052750Y-94361000D01*
X87894000Y-94519750D01*
X87890928Y-95109000D01*
X80660000Y-95109000D01*
X80660000Y-92569000D01*
X87890928Y-92569000D01*
X87903188Y-92693482D01*
X87939498Y-92813180D01*
X87998463Y-92923494D01*
X88031705Y-92964000D01*
X87998463Y-93004506D01*
X87939498Y-93114820D01*
X87903188Y-93234518D01*
X87890928Y-93359000D01*
X87894000Y-93948250D01*
X88052750Y-94107000D01*
X89027000Y-94107000D01*
X89027000Y-91821000D01*
X89281000Y-91821000D01*
X89281000Y-94107000D01*
X90255250Y-94107000D01*
X90414000Y-93948250D01*
X90417072Y-93359000D01*
X90404812Y-93234518D01*
X90368502Y-93114820D01*
X90309537Y-93004506D01*
X90276295Y-92964000D01*
X90309537Y-92923494D01*
X90368502Y-92813180D01*
X90404812Y-92693482D01*
X90417072Y-92569000D01*
X90414000Y-91979750D01*
X90255250Y-91821000D01*
X89281000Y-91821000D01*
X89027000Y-91821000D01*
X88052750Y-91821000D01*
X87894000Y-91979750D01*
X87890928Y-92569000D01*
X80660000Y-92569000D01*
X80660000Y-78971000D01*
X84232928Y-78971000D01*
X84232928Y-80221000D01*
X84249992Y-80394254D01*
X84300528Y-80560850D01*
X84382595Y-80714386D01*
X84445470Y-80791000D01*
X84382595Y-80867614D01*
X84300528Y-81021150D01*
X84249992Y-81187746D01*
X84232928Y-81361000D01*
X84232928Y-82611000D01*
X84249992Y-82784254D01*
X84300528Y-82950850D01*
X84382595Y-83104386D01*
X84464346Y-83204000D01*
X84382595Y-83303614D01*
X84300528Y-83457150D01*
X84249992Y-83623746D01*
X84232928Y-83797000D01*
X84232928Y-85047000D01*
X84249992Y-85220254D01*
X84300528Y-85386850D01*
X84382595Y-85540386D01*
X84493038Y-85674962D01*
X84513799Y-85692000D01*
X84493038Y-85709038D01*
X84382595Y-85843614D01*
X84300528Y-85997150D01*
X84249992Y-86163746D01*
X84232928Y-86337000D01*
X84232928Y-87587000D01*
X84249992Y-87760254D01*
X84300528Y-87926850D01*
X84382595Y-88080386D01*
X84493038Y-88214962D01*
X84627614Y-88325405D01*
X84781150Y-88407472D01*
X84947746Y-88458008D01*
X85121000Y-88475072D01*
X85871000Y-88475072D01*
X85928597Y-88469399D01*
X87720205Y-90261008D01*
X87743999Y-90290001D01*
X87772992Y-90313795D01*
X87772996Y-90313799D01*
X87837288Y-90366561D01*
X87859724Y-90384974D01*
X87991753Y-90455546D01*
X88003013Y-90458962D01*
X87998463Y-90464506D01*
X87939498Y-90574820D01*
X87903188Y-90694518D01*
X87890928Y-90819000D01*
X87894000Y-91408250D01*
X88052750Y-91567000D01*
X89027000Y-91567000D01*
X89027000Y-91547000D01*
X89281000Y-91547000D01*
X89281000Y-91567000D01*
X90255250Y-91567000D01*
X90414000Y-91408250D01*
X90417072Y-90819000D01*
X90404812Y-90694518D01*
X90404199Y-90692496D01*
X90465256Y-90667205D01*
X90634774Y-90553937D01*
X90778937Y-90409774D01*
X90892205Y-90240256D01*
X90970226Y-90051898D01*
X91010000Y-89851939D01*
X91010000Y-89648061D01*
X90970226Y-89448102D01*
X90892205Y-89259744D01*
X90778937Y-89090226D01*
X90634774Y-88946063D01*
X90465256Y-88832795D01*
X90276898Y-88754774D01*
X90076939Y-88715000D01*
X89873061Y-88715000D01*
X89673102Y-88754774D01*
X89484744Y-88832795D01*
X89315226Y-88946063D01*
X89271289Y-88990000D01*
X88598803Y-88990000D01*
X88083874Y-88475072D01*
X88671000Y-88475072D01*
X88844254Y-88458008D01*
X89010850Y-88407472D01*
X89164386Y-88325405D01*
X89298962Y-88214962D01*
X89409405Y-88080386D01*
X89491472Y-87926850D01*
X89542008Y-87760254D01*
X89559072Y-87587000D01*
X89559072Y-86337000D01*
X89542008Y-86163746D01*
X89491472Y-85997150D01*
X89409405Y-85843614D01*
X89298962Y-85709038D01*
X89278201Y-85692000D01*
X89298962Y-85674962D01*
X89409405Y-85540386D01*
X89491472Y-85386850D01*
X89542008Y-85220254D01*
X89559072Y-85047000D01*
X89559072Y-83797000D01*
X89542008Y-83623746D01*
X89491472Y-83457150D01*
X89409405Y-83303614D01*
X89327654Y-83204000D01*
X89409405Y-83104386D01*
X89491472Y-82950850D01*
X89542008Y-82784254D01*
X89559072Y-82611000D01*
X89559072Y-81361000D01*
X89542008Y-81187746D01*
X89491472Y-81021150D01*
X89409405Y-80867614D01*
X89346530Y-80791000D01*
X89409405Y-80714386D01*
X89491472Y-80560850D01*
X89542008Y-80394254D01*
X89559072Y-80221000D01*
X89559072Y-78971000D01*
X89542008Y-78797746D01*
X89491472Y-78631150D01*
X89480736Y-78611065D01*
X92206804Y-75884999D01*
X92284199Y-75884999D01*
X91442998Y-76726201D01*
X91414000Y-76749999D01*
X91390202Y-76778997D01*
X91390201Y-76778998D01*
X91319026Y-76865724D01*
X91248454Y-76997754D01*
X91204998Y-77141015D01*
X91190324Y-77290000D01*
X91194001Y-77327332D01*
X91194000Y-90272661D01*
X91085614Y-90330595D01*
X90951038Y-90441038D01*
X90840595Y-90575614D01*
X90758528Y-90729150D01*
X90707992Y-90895746D01*
X90690928Y-91069000D01*
X90690928Y-92319000D01*
X90707992Y-92492254D01*
X90758528Y-92658850D01*
X90840595Y-92812386D01*
X90951038Y-92946962D01*
X90971799Y-92964000D01*
X90951038Y-92981038D01*
X90840595Y-93115614D01*
X90758528Y-93269150D01*
X90707992Y-93435746D01*
X90690928Y-93609000D01*
X90690928Y-94859000D01*
X90707992Y-95032254D01*
X90758528Y-95198850D01*
X90840595Y-95352386D01*
X90951038Y-95486962D01*
X91085614Y-95597405D01*
X91239150Y-95679472D01*
X91405746Y-95730008D01*
X91579000Y-95747072D01*
X92329000Y-95747072D01*
X92386598Y-95741399D01*
X95885198Y-99240000D01*
X95814801Y-99240000D01*
X95631804Y-99057003D01*
X95608001Y-99027999D01*
X95492276Y-98933026D01*
X95360247Y-98862454D01*
X95216986Y-98818997D01*
X95105333Y-98808000D01*
X95105322Y-98808000D01*
X95068000Y-98804324D01*
X95030678Y-98808000D01*
X94321624Y-98808000D01*
X94321008Y-98801746D01*
X94270472Y-98635150D01*
X94188405Y-98481614D01*
X94077962Y-98347038D01*
X93943386Y-98236595D01*
X93789850Y-98154528D01*
X93623254Y-98103992D01*
X93450000Y-98086928D01*
X90450000Y-98086928D01*
X90276746Y-98103992D01*
X90110150Y-98154528D01*
X89956614Y-98236595D01*
X89822038Y-98347038D01*
X89711595Y-98481614D01*
X89629528Y-98635150D01*
X89578992Y-98801746D01*
X89561928Y-98975000D01*
X89561928Y-100075000D01*
X89578992Y-100248254D01*
X89629528Y-100414850D01*
X89711595Y-100568386D01*
X89822038Y-100702962D01*
X89956614Y-100813405D01*
X90110150Y-100895472D01*
X90276746Y-100946008D01*
X90450000Y-100963072D01*
X93450000Y-100963072D01*
X93623254Y-100946008D01*
X93661928Y-100934276D01*
X93661928Y-101181250D01*
X93678392Y-101348408D01*
X93727150Y-101509142D01*
X93806329Y-101657275D01*
X93824100Y-101678930D01*
X93769463Y-101745506D01*
X93710498Y-101855820D01*
X93674188Y-101975518D01*
X93661928Y-102100000D01*
X93665000Y-102251750D01*
X93823750Y-102410500D01*
X94648000Y-102410500D01*
X94648000Y-102390500D01*
X94902000Y-102390500D01*
X94902000Y-102410500D01*
X95726250Y-102410500D01*
X95885000Y-102251750D01*
X95888072Y-102100000D01*
X95875812Y-101975518D01*
X95839502Y-101855820D01*
X95780537Y-101745506D01*
X95725900Y-101678930D01*
X95743671Y-101657275D01*
X95822850Y-101509142D01*
X95871608Y-101348408D01*
X95888072Y-101181250D01*
X95888072Y-100924230D01*
X95919535Y-100892767D01*
X95911928Y-100970000D01*
X95915000Y-100984250D01*
X96073750Y-101143000D01*
X97398000Y-101143000D01*
X97398000Y-101123000D01*
X97652000Y-101123000D01*
X97652000Y-101143000D01*
X97672000Y-101143000D01*
X97672000Y-101397000D01*
X97652000Y-101397000D01*
X97652000Y-101417000D01*
X97398000Y-101417000D01*
X97398000Y-101397000D01*
X96073750Y-101397000D01*
X95915000Y-101555750D01*
X95911928Y-101570000D01*
X95924188Y-101694482D01*
X95960498Y-101814180D01*
X96019463Y-101924494D01*
X96043730Y-101954064D01*
X95971916Y-102088418D01*
X95927071Y-102236255D01*
X95911928Y-102390000D01*
X95911928Y-102690000D01*
X95927071Y-102843745D01*
X95971916Y-102991582D01*
X96044742Y-103127829D01*
X96083454Y-103175000D01*
X96044742Y-103222171D01*
X95971916Y-103358418D01*
X95927071Y-103506255D01*
X95911928Y-103660000D01*
X95911928Y-103960000D01*
X95927071Y-104113745D01*
X95971916Y-104261582D01*
X96044742Y-104397829D01*
X96142749Y-104517251D01*
X96262171Y-104615258D01*
X96398418Y-104688084D01*
X96546255Y-104732929D01*
X96626386Y-104740821D01*
X96615000Y-104798061D01*
X96615000Y-105001939D01*
X96654774Y-105201898D01*
X96732795Y-105390256D01*
X96846063Y-105559774D01*
X96990226Y-105703937D01*
X97159744Y-105817205D01*
X97348102Y-105895226D01*
X97548061Y-105935000D01*
X97751939Y-105935000D01*
X97951898Y-105895226D01*
X98140256Y-105817205D01*
X98309774Y-105703937D01*
X98453937Y-105559774D01*
X98567205Y-105390256D01*
X98645226Y-105201898D01*
X98685000Y-105001939D01*
X98685000Y-104798061D01*
X98662015Y-104682507D01*
X98787829Y-104615258D01*
X98907251Y-104517251D01*
X99005258Y-104397829D01*
X99078084Y-104261582D01*
X99090001Y-104222298D01*
X99090000Y-107760198D01*
X95713988Y-111136211D01*
X95684990Y-111160009D01*
X95661192Y-111189007D01*
X95661191Y-111189008D01*
X95590016Y-111275734D01*
X95519444Y-111407764D01*
X95506413Y-111450724D01*
X95475987Y-111551024D01*
X95464990Y-111662677D01*
X95464990Y-111662688D01*
X95461314Y-111700010D01*
X95464990Y-111737332D01*
X95464990Y-112110208D01*
X95243972Y-112331227D01*
X95061345Y-112294900D01*
X94778655Y-112294900D01*
X94501397Y-112350050D01*
X94240225Y-112458231D01*
X94005177Y-112615285D01*
X93805285Y-112815177D01*
X93648231Y-113050225D01*
X93540050Y-113311397D01*
X93484900Y-113588655D01*
X93484900Y-113871345D01*
X93540050Y-114148603D01*
X93648231Y-114409775D01*
X93805285Y-114644823D01*
X94005177Y-114844715D01*
X94160001Y-114948165D01*
X94160000Y-115051835D01*
X94005177Y-115155285D01*
X93805285Y-115355177D01*
X93648231Y-115590225D01*
X93540050Y-115851397D01*
X93484900Y-116128655D01*
X93484900Y-116411345D01*
X93540050Y-116688603D01*
X93648231Y-116949775D01*
X93805285Y-117184823D01*
X94005177Y-117384715D01*
X94240225Y-117541769D01*
X94501397Y-117649950D01*
X94778655Y-117705100D01*
X95061345Y-117705100D01*
X95338603Y-117649950D01*
X95599775Y-117541769D01*
X95834823Y-117384715D01*
X95956764Y-117262774D01*
X96646831Y-117262774D01*
X96718426Y-117506754D01*
X96973954Y-117627664D01*
X97248161Y-117696400D01*
X97530508Y-117710320D01*
X97810147Y-117668889D01*
X98076328Y-117573700D01*
X98201574Y-117506754D01*
X98273169Y-117262774D01*
X99186831Y-117262774D01*
X99258426Y-117506754D01*
X99513954Y-117627664D01*
X99788161Y-117696400D01*
X100070508Y-117710320D01*
X100350147Y-117668889D01*
X100616328Y-117573700D01*
X100741574Y-117506754D01*
X100813169Y-117262774D01*
X101726831Y-117262774D01*
X101798426Y-117506754D01*
X102053954Y-117627664D01*
X102328161Y-117696400D01*
X102610508Y-117710320D01*
X102890147Y-117668889D01*
X103156328Y-117573700D01*
X103281574Y-117506754D01*
X103353169Y-117262774D01*
X102540000Y-116449605D01*
X101726831Y-117262774D01*
X100813169Y-117262774D01*
X100000000Y-116449605D01*
X99186831Y-117262774D01*
X98273169Y-117262774D01*
X97460000Y-116449605D01*
X96646831Y-117262774D01*
X95956764Y-117262774D01*
X96034715Y-117184823D01*
X96190905Y-116951068D01*
X96223246Y-117011574D01*
X96467226Y-117083169D01*
X97280395Y-116270000D01*
X97639605Y-116270000D01*
X98452774Y-117083169D01*
X98696754Y-117011574D01*
X98727976Y-116945590D01*
X98763246Y-117011574D01*
X99007226Y-117083169D01*
X99820395Y-116270000D01*
X100179605Y-116270000D01*
X100992774Y-117083169D01*
X101236754Y-117011574D01*
X101267976Y-116945590D01*
X101303246Y-117011574D01*
X101547226Y-117083169D01*
X102360395Y-116270000D01*
X101547226Y-115456831D01*
X101303246Y-115528426D01*
X101272024Y-115594410D01*
X101236754Y-115528426D01*
X100992774Y-115456831D01*
X100179605Y-116270000D01*
X99820395Y-116270000D01*
X99007226Y-115456831D01*
X98763246Y-115528426D01*
X98732024Y-115594410D01*
X98696754Y-115528426D01*
X98452774Y-115456831D01*
X97639605Y-116270000D01*
X97280395Y-116270000D01*
X96467226Y-115456831D01*
X96223246Y-115528426D01*
X96192812Y-115592744D01*
X96191769Y-115590225D01*
X96034715Y-115355177D01*
X95834823Y-115155285D01*
X95680000Y-115051836D01*
X95680000Y-114948164D01*
X95834823Y-114844715D01*
X95956764Y-114722774D01*
X96646831Y-114722774D01*
X96718426Y-114966754D01*
X96784410Y-114997976D01*
X96718426Y-115033246D01*
X96646831Y-115277226D01*
X97460000Y-116090395D01*
X98273169Y-115277226D01*
X98201574Y-115033246D01*
X98135590Y-115002024D01*
X98201574Y-114966754D01*
X98273169Y-114722774D01*
X99186831Y-114722774D01*
X99258426Y-114966754D01*
X99324410Y-114997976D01*
X99258426Y-115033246D01*
X99186831Y-115277226D01*
X100000000Y-116090395D01*
X100813169Y-115277226D01*
X100741574Y-115033246D01*
X100675590Y-115002024D01*
X100741574Y-114966754D01*
X100813169Y-114722774D01*
X101726831Y-114722774D01*
X101798426Y-114966754D01*
X101864410Y-114997976D01*
X101798426Y-115033246D01*
X101726831Y-115277226D01*
X102540000Y-116090395D01*
X103353169Y-115277226D01*
X103281574Y-115033246D01*
X103215590Y-115002024D01*
X103281574Y-114966754D01*
X103353169Y-114722774D01*
X102540000Y-113909605D01*
X101726831Y-114722774D01*
X100813169Y-114722774D01*
X100000000Y-113909605D01*
X99186831Y-114722774D01*
X98273169Y-114722774D01*
X97460000Y-113909605D01*
X96646831Y-114722774D01*
X95956764Y-114722774D01*
X96034715Y-114644823D01*
X96190905Y-114411068D01*
X96223246Y-114471574D01*
X96467226Y-114543169D01*
X97280395Y-113730000D01*
X97639605Y-113730000D01*
X98452774Y-114543169D01*
X98696754Y-114471574D01*
X98727976Y-114405590D01*
X98763246Y-114471574D01*
X99007226Y-114543169D01*
X99820395Y-113730000D01*
X100179605Y-113730000D01*
X100992774Y-114543169D01*
X101236754Y-114471574D01*
X101267976Y-114405590D01*
X101303246Y-114471574D01*
X101547226Y-114543169D01*
X102360395Y-113730000D01*
X101547226Y-112916831D01*
X101303246Y-112988426D01*
X101272024Y-113054410D01*
X101236754Y-112988426D01*
X100992774Y-112916831D01*
X100179605Y-113730000D01*
X99820395Y-113730000D01*
X99007226Y-112916831D01*
X98763246Y-112988426D01*
X98732024Y-113054410D01*
X98696754Y-112988426D01*
X98452774Y-112916831D01*
X97639605Y-113730000D01*
X97280395Y-113730000D01*
X97266253Y-113715858D01*
X97445858Y-113536253D01*
X97460000Y-113550395D01*
X98273169Y-112737226D01*
X99186831Y-112737226D01*
X100000000Y-113550395D01*
X100813169Y-112737226D01*
X100741574Y-112493246D01*
X100486046Y-112372336D01*
X100211839Y-112303600D01*
X99929492Y-112289680D01*
X99649853Y-112331111D01*
X99383672Y-112426300D01*
X99258426Y-112493246D01*
X99186831Y-112737226D01*
X98273169Y-112737226D01*
X98201574Y-112493246D01*
X97946046Y-112372336D01*
X97671839Y-112303600D01*
X97389492Y-112289680D01*
X97109853Y-112331111D01*
X96984990Y-112375763D01*
X96984990Y-112014811D01*
X99540011Y-109459791D01*
X99540011Y-110362678D01*
X99536334Y-110400010D01*
X99551008Y-110548995D01*
X99594464Y-110692256D01*
X99665036Y-110824286D01*
X99736211Y-110911012D01*
X99760010Y-110940011D01*
X99789008Y-110963809D01*
X101211200Y-112386002D01*
X101234999Y-112415001D01*
X101350724Y-112509974D01*
X101482753Y-112580546D01*
X101626014Y-112624003D01*
X101737667Y-112635000D01*
X101737677Y-112635000D01*
X101756291Y-112636833D01*
X101726831Y-112737226D01*
X102540000Y-113550395D01*
X102554143Y-113536253D01*
X102733748Y-113715858D01*
X102719605Y-113730000D01*
X103532774Y-114543169D01*
X103776754Y-114471574D01*
X103807188Y-114407256D01*
X103808231Y-114409775D01*
X103965285Y-114644823D01*
X104165177Y-114844715D01*
X104320001Y-114948165D01*
X104320000Y-115051835D01*
X104165177Y-115155285D01*
X103965285Y-115355177D01*
X103809095Y-115588932D01*
X103776754Y-115528426D01*
X103532774Y-115456831D01*
X102719605Y-116270000D01*
X103532774Y-117083169D01*
X103776754Y-117011574D01*
X103807188Y-116947256D01*
X103808231Y-116949775D01*
X103965285Y-117184823D01*
X104165177Y-117384715D01*
X104400225Y-117541769D01*
X104661397Y-117649950D01*
X104938655Y-117705100D01*
X105221345Y-117705100D01*
X105498603Y-117649950D01*
X105759775Y-117541769D01*
X105994823Y-117384715D01*
X106194715Y-117184823D01*
X106351769Y-116949775D01*
X106459950Y-116688603D01*
X106515100Y-116411345D01*
X106515100Y-116128655D01*
X106459950Y-115851397D01*
X106351769Y-115590225D01*
X106194715Y-115355177D01*
X105994823Y-115155285D01*
X105840000Y-115051836D01*
X105840000Y-114948164D01*
X105994823Y-114844715D01*
X106059666Y-114779872D01*
X112765000Y-114779872D01*
X112765000Y-115220128D01*
X112850890Y-115651925D01*
X113019369Y-116058669D01*
X113263962Y-116424729D01*
X113575271Y-116736038D01*
X113941331Y-116980631D01*
X114348075Y-117149110D01*
X114779872Y-117235000D01*
X115220128Y-117235000D01*
X115651925Y-117149110D01*
X116058669Y-116980631D01*
X116424729Y-116736038D01*
X116736038Y-116424729D01*
X116980631Y-116058669D01*
X117149110Y-115651925D01*
X117235000Y-115220128D01*
X117235000Y-114779872D01*
X117149110Y-114348075D01*
X116980631Y-113941331D01*
X116736038Y-113575271D01*
X116424729Y-113263962D01*
X116058669Y-113019369D01*
X115651925Y-112850890D01*
X115220128Y-112765000D01*
X114779872Y-112765000D01*
X114348075Y-112850890D01*
X113941331Y-113019369D01*
X113575271Y-113263962D01*
X113263962Y-113575271D01*
X113019369Y-113941331D01*
X112850890Y-114348075D01*
X112765000Y-114779872D01*
X106059666Y-114779872D01*
X106194715Y-114644823D01*
X106351769Y-114409775D01*
X106459950Y-114148603D01*
X106515100Y-113871345D01*
X106515100Y-113588655D01*
X106459950Y-113311397D01*
X106351769Y-113050225D01*
X106194715Y-112815177D01*
X105994823Y-112615285D01*
X105759775Y-112458231D01*
X105498603Y-112350050D01*
X105221345Y-112294900D01*
X104938655Y-112294900D01*
X104756028Y-112331227D01*
X103788804Y-111364003D01*
X103765001Y-111334999D01*
X103649276Y-111240026D01*
X103517247Y-111169454D01*
X103373986Y-111125997D01*
X103262333Y-111115000D01*
X103262322Y-111115000D01*
X103225000Y-111111324D01*
X103187678Y-111115000D01*
X102089802Y-111115000D01*
X101060010Y-110085209D01*
X101060010Y-109110372D01*
X101145506Y-109180537D01*
X101255820Y-109239502D01*
X101375518Y-109275812D01*
X101500000Y-109288072D01*
X104000000Y-109288072D01*
X104124482Y-109275812D01*
X104244180Y-109239502D01*
X104354494Y-109180537D01*
X104451185Y-109101185D01*
X104530537Y-109004494D01*
X104589502Y-108894180D01*
X104625812Y-108774482D01*
X104638072Y-108650000D01*
X104638072Y-107047874D01*
X104861928Y-107271730D01*
X104861928Y-108650000D01*
X104874188Y-108774482D01*
X104910498Y-108894180D01*
X104969463Y-109004494D01*
X105048815Y-109101185D01*
X105145506Y-109180537D01*
X105255820Y-109239502D01*
X105375518Y-109275812D01*
X105500000Y-109288072D01*
X108000000Y-109288072D01*
X108124482Y-109275812D01*
X108244180Y-109239502D01*
X108354494Y-109180537D01*
X108375000Y-109163708D01*
X108395506Y-109180537D01*
X108505820Y-109239502D01*
X108625518Y-109275812D01*
X108750000Y-109288072D01*
X111250000Y-109288072D01*
X111374482Y-109275812D01*
X111494180Y-109239502D01*
X111604494Y-109180537D01*
X111701185Y-109101185D01*
X111780537Y-109004494D01*
X111839502Y-108894180D01*
X111875812Y-108774482D01*
X111888072Y-108650000D01*
X111888072Y-106850000D01*
X111875812Y-106725518D01*
X111864968Y-106689769D01*
X112111928Y-106936730D01*
X112111928Y-108650000D01*
X112124188Y-108774482D01*
X112160498Y-108894180D01*
X112219463Y-109004494D01*
X112298815Y-109101185D01*
X112395506Y-109180537D01*
X112505820Y-109239502D01*
X112625518Y-109275812D01*
X112750000Y-109288072D01*
X115250000Y-109288072D01*
X115374482Y-109275812D01*
X115494180Y-109239502D01*
X115604494Y-109180537D01*
X115701185Y-109101185D01*
X115780537Y-109004494D01*
X115839502Y-108894180D01*
X115875812Y-108774482D01*
X115888072Y-108650000D01*
X115888072Y-106850000D01*
X115875812Y-106725518D01*
X115839502Y-106605820D01*
X115780537Y-106495506D01*
X115701185Y-106398815D01*
X115604494Y-106319463D01*
X115494180Y-106260498D01*
X115374482Y-106224188D01*
X115250000Y-106211928D01*
X113536730Y-106211928D01*
X110385000Y-103060199D01*
X110385000Y-101259621D01*
X111634250Y-101257000D01*
X111793000Y-101098250D01*
X111793000Y-99949000D01*
X112047000Y-99949000D01*
X112047000Y-101098250D01*
X112205750Y-101257000D01*
X113670000Y-101260072D01*
X113794482Y-101247812D01*
X113914180Y-101211502D01*
X114024494Y-101152537D01*
X114121185Y-101073185D01*
X114200537Y-100976494D01*
X114259502Y-100866180D01*
X114295812Y-100746482D01*
X114308072Y-100622000D01*
X114305000Y-100107750D01*
X114146250Y-99949000D01*
X112047000Y-99949000D01*
X111793000Y-99949000D01*
X111773000Y-99949000D01*
X111773000Y-99695000D01*
X111793000Y-99695000D01*
X111793000Y-98545750D01*
X112047000Y-98545750D01*
X112047000Y-99695000D01*
X114146250Y-99695000D01*
X114305000Y-99536250D01*
X114308072Y-99022000D01*
X114295812Y-98897518D01*
X114259502Y-98777820D01*
X114200537Y-98667506D01*
X114121185Y-98570815D01*
X114024494Y-98491463D01*
X113914180Y-98432498D01*
X113794482Y-98396188D01*
X113670000Y-98383928D01*
X112205750Y-98387000D01*
X112047000Y-98545750D01*
X111793000Y-98545750D01*
X111634250Y-98387000D01*
X110385000Y-98384379D01*
X110385000Y-92644828D01*
X110388676Y-92607505D01*
X110385000Y-92570182D01*
X110385000Y-92570173D01*
X110374003Y-92458520D01*
X110330546Y-92315259D01*
X110259974Y-92183230D01*
X110234761Y-92152508D01*
X110188799Y-92096502D01*
X110188795Y-92096498D01*
X110165001Y-92067505D01*
X110136009Y-92043712D01*
X106762873Y-88670578D01*
X106765072Y-88648250D01*
X106765072Y-88135750D01*
X106748608Y-87968592D01*
X106699850Y-87807858D01*
X106620671Y-87659725D01*
X106596277Y-87630000D01*
X106620671Y-87600275D01*
X106699850Y-87452142D01*
X106748608Y-87291408D01*
X106765072Y-87124250D01*
X106765072Y-86611750D01*
X106748608Y-86444592D01*
X106699850Y-86283858D01*
X106620671Y-86135725D01*
X106596277Y-86106000D01*
X106620671Y-86076275D01*
X106699850Y-85928142D01*
X106748608Y-85767408D01*
X106765072Y-85600250D01*
X106765072Y-85087750D01*
X106748608Y-84920592D01*
X106699850Y-84759858D01*
X106620671Y-84611725D01*
X106514115Y-84481885D01*
X106449500Y-84428857D01*
X106449500Y-84297833D01*
X106453177Y-84260500D01*
X106449500Y-84223167D01*
X106449500Y-84085143D01*
X106514115Y-84032115D01*
X106620671Y-83902275D01*
X106699850Y-83754142D01*
X106748608Y-83593408D01*
X106765072Y-83426250D01*
X106765072Y-82913750D01*
X106748608Y-82746592D01*
X106699850Y-82585858D01*
X106620671Y-82437725D01*
X106596277Y-82408000D01*
X106620671Y-82378275D01*
X106699850Y-82230142D01*
X106748608Y-82069408D01*
X106765072Y-81902250D01*
X106765072Y-81389750D01*
X106748608Y-81222592D01*
X106699850Y-81061858D01*
X106620671Y-80913725D01*
X106514115Y-80783885D01*
X106449500Y-80730857D01*
X106449500Y-80690413D01*
X106453176Y-80653090D01*
X106449500Y-80615767D01*
X106449500Y-80615757D01*
X106438503Y-80504104D01*
X106395046Y-80360843D01*
X106324474Y-80228814D01*
X106229501Y-80113089D01*
X106200504Y-80089292D01*
X104157008Y-78045797D01*
X104157004Y-78045792D01*
X103760000Y-77648789D01*
X103760000Y-77357909D01*
X103882886Y-77275799D01*
X104000000Y-77158685D01*
X104117114Y-77275799D01*
X104343957Y-77427371D01*
X104596011Y-77531775D01*
X104863589Y-77585000D01*
X105136411Y-77585000D01*
X105403989Y-77531775D01*
X105656043Y-77427371D01*
X105882886Y-77275799D01*
X106075799Y-77082886D01*
X106227371Y-76856043D01*
X106331775Y-76603989D01*
X106385000Y-76336411D01*
X106385000Y-76063589D01*
X106331775Y-75796011D01*
X106227371Y-75543957D01*
X106075799Y-75317114D01*
X105882886Y-75124201D01*
X105656043Y-74972629D01*
X105403989Y-74868225D01*
X105136411Y-74815000D01*
X104863589Y-74815000D01*
X104596011Y-74868225D01*
X104343957Y-74972629D01*
X104117114Y-75124201D01*
X104000000Y-75241315D01*
X103882886Y-75124201D01*
X103656043Y-74972629D01*
X103403989Y-74868225D01*
X103136411Y-74815000D01*
X102863589Y-74815000D01*
X102718635Y-74843833D01*
X102488803Y-74614001D01*
X102465000Y-74584998D01*
X102349275Y-74490025D01*
X102218270Y-74420000D01*
X113361928Y-74420000D01*
X113361928Y-75420000D01*
X113374188Y-75544482D01*
X113410498Y-75664180D01*
X113469463Y-75774494D01*
X113548815Y-75871185D01*
X113645506Y-75950537D01*
X113755820Y-76009502D01*
X113875518Y-76045812D01*
X114000000Y-76058072D01*
X116000000Y-76058072D01*
X116124482Y-76045812D01*
X116244180Y-76009502D01*
X116354494Y-75950537D01*
X116451185Y-75871185D01*
X116530537Y-75774494D01*
X116589502Y-75664180D01*
X116625812Y-75544482D01*
X116638072Y-75420000D01*
X116638072Y-74420000D01*
X116625812Y-74295518D01*
X116589502Y-74175820D01*
X116530537Y-74065506D01*
X116451185Y-73968815D01*
X116354494Y-73889463D01*
X116244180Y-73830498D01*
X116124482Y-73794188D01*
X116000000Y-73781928D01*
X114000000Y-73781928D01*
X113875518Y-73794188D01*
X113755820Y-73830498D01*
X113645506Y-73889463D01*
X113548815Y-73968815D01*
X113469463Y-74065506D01*
X113410498Y-74175820D01*
X113374188Y-74295518D01*
X113361928Y-74420000D01*
X102218270Y-74420000D01*
X102217246Y-74419453D01*
X102073985Y-74375996D01*
X101962332Y-74364999D01*
X101962321Y-74364999D01*
X101924999Y-74361323D01*
X101887677Y-74364999D01*
X91929323Y-74364999D01*
X91892000Y-74361323D01*
X91854677Y-74364999D01*
X91854668Y-74364999D01*
X91743015Y-74375996D01*
X91599754Y-74419453D01*
X91467725Y-74490025D01*
X91467723Y-74490026D01*
X91467724Y-74490026D01*
X91380997Y-74561200D01*
X91380993Y-74561204D01*
X91352000Y-74584998D01*
X91328206Y-74613991D01*
X87852527Y-78089672D01*
X87747746Y-78099992D01*
X87581150Y-78150528D01*
X87427614Y-78232595D01*
X87293038Y-78343038D01*
X87182595Y-78477614D01*
X87100528Y-78631150D01*
X87049992Y-78797746D01*
X87032928Y-78971000D01*
X87032928Y-80221000D01*
X87049992Y-80394254D01*
X87100528Y-80560850D01*
X87182595Y-80714386D01*
X87245470Y-80791000D01*
X87182595Y-80867614D01*
X87100528Y-81021150D01*
X87049992Y-81187746D01*
X87032928Y-81361000D01*
X87032928Y-82611000D01*
X87049992Y-82784254D01*
X87100528Y-82950850D01*
X87182595Y-83104386D01*
X87264346Y-83204000D01*
X87182595Y-83303614D01*
X87100528Y-83457150D01*
X87049992Y-83623746D01*
X87032928Y-83797000D01*
X87032928Y-85047000D01*
X87049992Y-85220254D01*
X87100528Y-85386850D01*
X87182595Y-85540386D01*
X87293038Y-85674962D01*
X87313799Y-85692000D01*
X87293038Y-85709038D01*
X87182595Y-85843614D01*
X87100528Y-85997150D01*
X87049992Y-86163746D01*
X87032928Y-86337000D01*
X87032928Y-87424126D01*
X86759072Y-87150270D01*
X86759072Y-86337000D01*
X86742008Y-86163746D01*
X86691472Y-85997150D01*
X86609405Y-85843614D01*
X86498962Y-85709038D01*
X86478201Y-85692000D01*
X86498962Y-85674962D01*
X86609405Y-85540386D01*
X86691472Y-85386850D01*
X86742008Y-85220254D01*
X86759072Y-85047000D01*
X86759072Y-83797000D01*
X86742008Y-83623746D01*
X86691472Y-83457150D01*
X86609405Y-83303614D01*
X86527654Y-83204000D01*
X86609405Y-83104386D01*
X86691472Y-82950850D01*
X86742008Y-82784254D01*
X86759072Y-82611000D01*
X86759072Y-81361000D01*
X86742008Y-81187746D01*
X86691472Y-81021150D01*
X86609405Y-80867614D01*
X86546530Y-80791000D01*
X86609405Y-80714386D01*
X86691472Y-80560850D01*
X86742008Y-80394254D01*
X86759072Y-80221000D01*
X86759072Y-78971000D01*
X86742008Y-78797746D01*
X86691472Y-78631150D01*
X86609405Y-78477614D01*
X86498962Y-78343038D01*
X86364386Y-78232595D01*
X86210850Y-78150528D01*
X86044254Y-78099992D01*
X85871000Y-78082928D01*
X85121000Y-78082928D01*
X84947746Y-78099992D01*
X84781150Y-78150528D01*
X84627614Y-78232595D01*
X84493038Y-78343038D01*
X84382595Y-78477614D01*
X84300528Y-78631150D01*
X84249992Y-78797746D01*
X84232928Y-78971000D01*
X80660000Y-78971000D01*
X80660000Y-74420000D01*
X83361928Y-74420000D01*
X83361928Y-75420000D01*
X83374188Y-75544482D01*
X83410498Y-75664180D01*
X83469463Y-75774494D01*
X83548815Y-75871185D01*
X83645506Y-75950537D01*
X83755820Y-76009502D01*
X83875518Y-76045812D01*
X84000000Y-76058072D01*
X86000000Y-76058072D01*
X86124482Y-76045812D01*
X86244180Y-76009502D01*
X86354494Y-75950537D01*
X86451185Y-75871185D01*
X86530537Y-75774494D01*
X86589502Y-75664180D01*
X86625812Y-75544482D01*
X86638072Y-75420000D01*
X86638072Y-74420000D01*
X86625812Y-74295518D01*
X86589502Y-74175820D01*
X86530537Y-74065506D01*
X86451185Y-73968815D01*
X86354494Y-73889463D01*
X86244180Y-73830498D01*
X86124482Y-73794188D01*
X86000000Y-73781928D01*
X84000000Y-73781928D01*
X83875518Y-73794188D01*
X83755820Y-73830498D01*
X83645506Y-73889463D01*
X83548815Y-73968815D01*
X83469463Y-74065506D01*
X83410498Y-74175820D01*
X83374188Y-74295518D01*
X83361928Y-74420000D01*
X80660000Y-74420000D01*
X80660000Y-69765098D01*
X82615000Y-69765098D01*
X82615000Y-70234902D01*
X82706654Y-70695679D01*
X82886440Y-71129721D01*
X83147450Y-71520349D01*
X83479651Y-71852550D01*
X83870279Y-72113560D01*
X84304321Y-72293346D01*
X84765098Y-72385000D01*
X85234902Y-72385000D01*
X85695679Y-72293346D01*
X86129721Y-72113560D01*
X86520349Y-71852550D01*
X86852550Y-71520349D01*
X87113560Y-71129721D01*
X87293346Y-70695679D01*
X87385000Y-70234902D01*
X87385000Y-69765098D01*
X112615000Y-69765098D01*
X112615000Y-70234902D01*
X112706654Y-70695679D01*
X112886440Y-71129721D01*
X113147450Y-71520349D01*
X113479651Y-71852550D01*
X113870279Y-72113560D01*
X114304321Y-72293346D01*
X114765098Y-72385000D01*
X115234902Y-72385000D01*
X115695679Y-72293346D01*
X116129721Y-72113560D01*
X116520349Y-71852550D01*
X116852550Y-71520349D01*
X117113560Y-71129721D01*
X117293346Y-70695679D01*
X117385000Y-70234902D01*
X117385000Y-69765098D01*
X117293346Y-69304321D01*
X117113560Y-68870279D01*
X116852550Y-68479651D01*
X116520349Y-68147450D01*
X116129721Y-67886440D01*
X115819813Y-67758072D01*
X116000000Y-67758072D01*
X116124482Y-67745812D01*
X116244180Y-67709502D01*
X116354494Y-67650537D01*
X116451185Y-67571185D01*
X116530537Y-67474494D01*
X116589502Y-67364180D01*
X116625812Y-67244482D01*
X116638072Y-67120000D01*
X116638072Y-66120000D01*
X116625812Y-65995518D01*
X116589502Y-65875820D01*
X116530537Y-65765506D01*
X116451185Y-65668815D01*
X116354494Y-65589463D01*
X116244180Y-65530498D01*
X116124482Y-65494188D01*
X116000000Y-65481928D01*
X114000000Y-65481928D01*
X113875518Y-65494188D01*
X113755820Y-65530498D01*
X113645506Y-65589463D01*
X113548815Y-65668815D01*
X113469463Y-65765506D01*
X113410498Y-65875820D01*
X113374188Y-65995518D01*
X113361928Y-66120000D01*
X113361928Y-67120000D01*
X113374188Y-67244482D01*
X113410498Y-67364180D01*
X113469463Y-67474494D01*
X113548815Y-67571185D01*
X113645506Y-67650537D01*
X113755820Y-67709502D01*
X113875518Y-67745812D01*
X114000000Y-67758072D01*
X114180187Y-67758072D01*
X113870279Y-67886440D01*
X113479651Y-68147450D01*
X113147450Y-68479651D01*
X112886440Y-68870279D01*
X112706654Y-69304321D01*
X112615000Y-69765098D01*
X87385000Y-69765098D01*
X87293346Y-69304321D01*
X87113560Y-68870279D01*
X86852550Y-68479651D01*
X86520349Y-68147450D01*
X86129721Y-67886440D01*
X85819813Y-67758072D01*
X86000000Y-67758072D01*
X86124482Y-67745812D01*
X86244180Y-67709502D01*
X86354494Y-67650537D01*
X86451185Y-67571185D01*
X86530537Y-67474494D01*
X86589502Y-67364180D01*
X86625812Y-67244482D01*
X86638072Y-67120000D01*
X86638072Y-66120000D01*
X86625812Y-65995518D01*
X86589502Y-65875820D01*
X86530537Y-65765506D01*
X86451185Y-65668815D01*
X86354494Y-65589463D01*
X86244180Y-65530498D01*
X86124482Y-65494188D01*
X86000000Y-65481928D01*
X84000000Y-65481928D01*
X83875518Y-65494188D01*
X83755820Y-65530498D01*
X83645506Y-65589463D01*
X83548815Y-65668815D01*
X83469463Y-65765506D01*
X83410498Y-65875820D01*
X83374188Y-65995518D01*
X83361928Y-66120000D01*
X83361928Y-67120000D01*
X83374188Y-67244482D01*
X83410498Y-67364180D01*
X83469463Y-67474494D01*
X83548815Y-67571185D01*
X83645506Y-67650537D01*
X83755820Y-67709502D01*
X83875518Y-67745812D01*
X84000000Y-67758072D01*
X84180187Y-67758072D01*
X83870279Y-67886440D01*
X83479651Y-68147450D01*
X83147450Y-68479651D01*
X82886440Y-68870279D01*
X82706654Y-69304321D01*
X82615000Y-69765098D01*
X80660000Y-69765098D01*
X80660000Y-64020000D01*
X83361928Y-64020000D01*
X83374188Y-64144482D01*
X83410498Y-64264180D01*
X83469463Y-64374494D01*
X83548815Y-64471185D01*
X83645506Y-64550537D01*
X83755820Y-64609502D01*
X83875518Y-64645812D01*
X84000000Y-64658072D01*
X84714250Y-64655000D01*
X84873000Y-64496250D01*
X84873000Y-63647000D01*
X85127000Y-63647000D01*
X85127000Y-64496250D01*
X85285750Y-64655000D01*
X86000000Y-64658072D01*
X86124482Y-64645812D01*
X86244180Y-64609502D01*
X86354494Y-64550537D01*
X86451185Y-64471185D01*
X86530537Y-64374494D01*
X86543629Y-64350000D01*
X90711928Y-64350000D01*
X90711928Y-68050000D01*
X90724188Y-68174482D01*
X90760498Y-68294180D01*
X90819463Y-68404494D01*
X90898815Y-68501185D01*
X90995506Y-68580537D01*
X91105820Y-68639502D01*
X91225518Y-68675812D01*
X91350000Y-68688072D01*
X93350000Y-68688072D01*
X93474482Y-68675812D01*
X93594180Y-68639502D01*
X93704494Y-68580537D01*
X93801185Y-68501185D01*
X93880537Y-68404494D01*
X93939502Y-68294180D01*
X93975812Y-68174482D01*
X93988072Y-68050000D01*
X93988072Y-64350000D01*
X106011928Y-64350000D01*
X106011928Y-68050000D01*
X106024188Y-68174482D01*
X106060498Y-68294180D01*
X106119463Y-68404494D01*
X106198815Y-68501185D01*
X106295506Y-68580537D01*
X106405820Y-68639502D01*
X106525518Y-68675812D01*
X106650000Y-68688072D01*
X108650000Y-68688072D01*
X108774482Y-68675812D01*
X108894180Y-68639502D01*
X109004494Y-68580537D01*
X109101185Y-68501185D01*
X109180537Y-68404494D01*
X109239502Y-68294180D01*
X109275812Y-68174482D01*
X109288072Y-68050000D01*
X109288072Y-64350000D01*
X109275812Y-64225518D01*
X109239502Y-64105820D01*
X109193630Y-64020000D01*
X113361928Y-64020000D01*
X113374188Y-64144482D01*
X113410498Y-64264180D01*
X113469463Y-64374494D01*
X113548815Y-64471185D01*
X113645506Y-64550537D01*
X113755820Y-64609502D01*
X113875518Y-64645812D01*
X114000000Y-64658072D01*
X114714250Y-64655000D01*
X114873000Y-64496250D01*
X114873000Y-63647000D01*
X115127000Y-63647000D01*
X115127000Y-64496250D01*
X115285750Y-64655000D01*
X116000000Y-64658072D01*
X116124482Y-64645812D01*
X116244180Y-64609502D01*
X116354494Y-64550537D01*
X116451185Y-64471185D01*
X116530537Y-64374494D01*
X116589502Y-64264180D01*
X116625812Y-64144482D01*
X116638072Y-64020000D01*
X116635000Y-63805750D01*
X116476250Y-63647000D01*
X115127000Y-63647000D01*
X114873000Y-63647000D01*
X113523750Y-63647000D01*
X113365000Y-63805750D01*
X113361928Y-64020000D01*
X109193630Y-64020000D01*
X109180537Y-63995506D01*
X109101185Y-63898815D01*
X109004494Y-63819463D01*
X108894180Y-63760498D01*
X108774482Y-63724188D01*
X108650000Y-63711928D01*
X106650000Y-63711928D01*
X106525518Y-63724188D01*
X106405820Y-63760498D01*
X106295506Y-63819463D01*
X106198815Y-63898815D01*
X106119463Y-63995506D01*
X106060498Y-64105820D01*
X106024188Y-64225518D01*
X106011928Y-64350000D01*
X93988072Y-64350000D01*
X93975812Y-64225518D01*
X93939502Y-64105820D01*
X93880537Y-63995506D01*
X93801185Y-63898815D01*
X93704494Y-63819463D01*
X93594180Y-63760498D01*
X93474482Y-63724188D01*
X93350000Y-63711928D01*
X91350000Y-63711928D01*
X91225518Y-63724188D01*
X91105820Y-63760498D01*
X90995506Y-63819463D01*
X90898815Y-63898815D01*
X90819463Y-63995506D01*
X90760498Y-64105820D01*
X90724188Y-64225518D01*
X90711928Y-64350000D01*
X86543629Y-64350000D01*
X86589502Y-64264180D01*
X86625812Y-64144482D01*
X86638072Y-64020000D01*
X86635000Y-63805750D01*
X86476250Y-63647000D01*
X85127000Y-63647000D01*
X84873000Y-63647000D01*
X83523750Y-63647000D01*
X83365000Y-63805750D01*
X83361928Y-64020000D01*
X80660000Y-64020000D01*
X80660000Y-63020000D01*
X83361928Y-63020000D01*
X83365000Y-63234250D01*
X83523750Y-63393000D01*
X84873000Y-63393000D01*
X84873000Y-62543750D01*
X85127000Y-62543750D01*
X85127000Y-63393000D01*
X86476250Y-63393000D01*
X86635000Y-63234250D01*
X86638072Y-63020000D01*
X113361928Y-63020000D01*
X113365000Y-63234250D01*
X113523750Y-63393000D01*
X114873000Y-63393000D01*
X114873000Y-62543750D01*
X115127000Y-62543750D01*
X115127000Y-63393000D01*
X116476250Y-63393000D01*
X116635000Y-63234250D01*
X116638072Y-63020000D01*
X116625812Y-62895518D01*
X116589502Y-62775820D01*
X116530537Y-62665506D01*
X116451185Y-62568815D01*
X116354494Y-62489463D01*
X116244180Y-62430498D01*
X116124482Y-62394188D01*
X116000000Y-62381928D01*
X115285750Y-62385000D01*
X115127000Y-62543750D01*
X114873000Y-62543750D01*
X114714250Y-62385000D01*
X114000000Y-62381928D01*
X113875518Y-62394188D01*
X113755820Y-62430498D01*
X113645506Y-62489463D01*
X113548815Y-62568815D01*
X113469463Y-62665506D01*
X113410498Y-62775820D01*
X113374188Y-62895518D01*
X113361928Y-63020000D01*
X86638072Y-63020000D01*
X86625812Y-62895518D01*
X86589502Y-62775820D01*
X86530537Y-62665506D01*
X86451185Y-62568815D01*
X86354494Y-62489463D01*
X86244180Y-62430498D01*
X86124482Y-62394188D01*
X86000000Y-62381928D01*
X85285750Y-62385000D01*
X85127000Y-62543750D01*
X84873000Y-62543750D01*
X84714250Y-62385000D01*
X84000000Y-62381928D01*
X83875518Y-62394188D01*
X83755820Y-62430498D01*
X83645506Y-62489463D01*
X83548815Y-62568815D01*
X83469463Y-62665506D01*
X83410498Y-62775820D01*
X83374188Y-62895518D01*
X83361928Y-63020000D01*
X80660000Y-63020000D01*
X80660000Y-56660000D01*
X119340000Y-56660000D01*
X119340001Y-119340000D01*
G37*
X119340001Y-119340000D02*
X80660000Y-119340000D01*
X80660000Y-114779872D01*
X82765000Y-114779872D01*
X82765000Y-115220128D01*
X82850890Y-115651925D01*
X83019369Y-116058669D01*
X83263962Y-116424729D01*
X83575271Y-116736038D01*
X83941331Y-116980631D01*
X84348075Y-117149110D01*
X84779872Y-117235000D01*
X85220128Y-117235000D01*
X85651925Y-117149110D01*
X86058669Y-116980631D01*
X86424729Y-116736038D01*
X86736038Y-116424729D01*
X86980631Y-116058669D01*
X87149110Y-115651925D01*
X87235000Y-115220128D01*
X87235000Y-114779872D01*
X87149110Y-114348075D01*
X86980631Y-113941331D01*
X86736038Y-113575271D01*
X86424729Y-113263962D01*
X86058669Y-113019369D01*
X85651925Y-112850890D01*
X85220128Y-112765000D01*
X84779872Y-112765000D01*
X84348075Y-112850890D01*
X83941331Y-113019369D01*
X83575271Y-113263962D01*
X83263962Y-113575271D01*
X83019369Y-113941331D01*
X82850890Y-114348075D01*
X82765000Y-114779872D01*
X80660000Y-114779872D01*
X80660000Y-102975000D01*
X93661928Y-102975000D01*
X93674188Y-103099482D01*
X93710498Y-103219180D01*
X93769463Y-103329494D01*
X93848815Y-103426185D01*
X93945506Y-103505537D01*
X94055820Y-103564502D01*
X94175518Y-103600812D01*
X94300000Y-103613072D01*
X94489250Y-103610000D01*
X94648000Y-103451250D01*
X94648000Y-102664500D01*
X94902000Y-102664500D01*
X94902000Y-103451250D01*
X95060750Y-103610000D01*
X95250000Y-103613072D01*
X95374482Y-103600812D01*
X95494180Y-103564502D01*
X95604494Y-103505537D01*
X95701185Y-103426185D01*
X95780537Y-103329494D01*
X95839502Y-103219180D01*
X95875812Y-103099482D01*
X95888072Y-102975000D01*
X95885000Y-102823250D01*
X95726250Y-102664500D01*
X94902000Y-102664500D01*
X94648000Y-102664500D01*
X93823750Y-102664500D01*
X93665000Y-102823250D01*
X93661928Y-102975000D01*
X80660000Y-102975000D01*
X80660000Y-100325000D01*
X84161928Y-100325000D01*
X84174188Y-100449482D01*
X84210498Y-100569180D01*
X84269463Y-100679494D01*
X84348815Y-100776185D01*
X84445506Y-100855537D01*
X84555820Y-100914502D01*
X84675518Y-100950812D01*
X84800000Y-100963072D01*
X86264250Y-100960000D01*
X86423000Y-100801250D01*
X86423000Y-99652000D01*
X86677000Y-99652000D01*
X86677000Y-100801250D01*
X86835750Y-100960000D01*
X88300000Y-100963072D01*
X88424482Y-100950812D01*
X88544180Y-100914502D01*
X88654494Y-100855537D01*
X88751185Y-100776185D01*
X88830537Y-100679494D01*
X88889502Y-100569180D01*
X88925812Y-100449482D01*
X88938072Y-100325000D01*
X88935000Y-99810750D01*
X88776250Y-99652000D01*
X86677000Y-99652000D01*
X86423000Y-99652000D01*
X84323750Y-99652000D01*
X84165000Y-99810750D01*
X84161928Y-100325000D01*
X80660000Y-100325000D01*
X80660000Y-98725000D01*
X84161928Y-98725000D01*
X84165000Y-99239250D01*
X84323750Y-99398000D01*
X86423000Y-99398000D01*
X86423000Y-98248750D01*
X86677000Y-98248750D01*
X86677000Y-99398000D01*
X88776250Y-99398000D01*
X88935000Y-99239250D01*
X88938072Y-98725000D01*
X88925812Y-98600518D01*
X88889502Y-98480820D01*
X88830537Y-98370506D01*
X88751185Y-98273815D01*
X88654494Y-98194463D01*
X88544180Y-98135498D01*
X88424482Y-98099188D01*
X88300000Y-98086928D01*
X86835750Y-98090000D01*
X86677000Y-98248750D01*
X86423000Y-98248750D01*
X86264250Y-98090000D01*
X84800000Y-98086928D01*
X84675518Y-98099188D01*
X84555820Y-98135498D01*
X84445506Y-98194463D01*
X84348815Y-98273815D01*
X84269463Y-98370506D01*
X84210498Y-98480820D01*
X84174188Y-98600518D01*
X84161928Y-98725000D01*
X80660000Y-98725000D01*
X80660000Y-95109000D01*
X87890928Y-95109000D01*
X87903188Y-95233482D01*
X87939498Y-95353180D01*
X87998463Y-95463494D01*
X88077815Y-95560185D01*
X88174506Y-95639537D01*
X88284820Y-95698502D01*
X88404518Y-95734812D01*
X88529000Y-95747072D01*
X88868250Y-95744000D01*
X89027000Y-95585250D01*
X89027000Y-94361000D01*
X89281000Y-94361000D01*
X89281000Y-95585250D01*
X89439750Y-95744000D01*
X89779000Y-95747072D01*
X89903482Y-95734812D01*
X90023180Y-95698502D01*
X90133494Y-95639537D01*
X90230185Y-95560185D01*
X90309537Y-95463494D01*
X90368502Y-95353180D01*
X90404812Y-95233482D01*
X90417072Y-95109000D01*
X90414000Y-94519750D01*
X90255250Y-94361000D01*
X89281000Y-94361000D01*
X89027000Y-94361000D01*
X88052750Y-94361000D01*
X87894000Y-94519750D01*
X87890928Y-95109000D01*
X80660000Y-95109000D01*
X80660000Y-92569000D01*
X87890928Y-92569000D01*
X87903188Y-92693482D01*
X87939498Y-92813180D01*
X87998463Y-92923494D01*
X88031705Y-92964000D01*
X87998463Y-93004506D01*
X87939498Y-93114820D01*
X87903188Y-93234518D01*
X87890928Y-93359000D01*
X87894000Y-93948250D01*
X88052750Y-94107000D01*
X89027000Y-94107000D01*
X89027000Y-91821000D01*
X89281000Y-91821000D01*
X89281000Y-94107000D01*
X90255250Y-94107000D01*
X90414000Y-93948250D01*
X90417072Y-93359000D01*
X90404812Y-93234518D01*
X90368502Y-93114820D01*
X90309537Y-93004506D01*
X90276295Y-92964000D01*
X90309537Y-92923494D01*
X90368502Y-92813180D01*
X90404812Y-92693482D01*
X90417072Y-92569000D01*
X90414000Y-91979750D01*
X90255250Y-91821000D01*
X89281000Y-91821000D01*
X89027000Y-91821000D01*
X88052750Y-91821000D01*
X87894000Y-91979750D01*
X87890928Y-92569000D01*
X80660000Y-92569000D01*
X80660000Y-78971000D01*
X84232928Y-78971000D01*
X84232928Y-80221000D01*
X84249992Y-80394254D01*
X84300528Y-80560850D01*
X84382595Y-80714386D01*
X84445470Y-80791000D01*
X84382595Y-80867614D01*
X84300528Y-81021150D01*
X84249992Y-81187746D01*
X84232928Y-81361000D01*
X84232928Y-82611000D01*
X84249992Y-82784254D01*
X84300528Y-82950850D01*
X84382595Y-83104386D01*
X84464346Y-83204000D01*
X84382595Y-83303614D01*
X84300528Y-83457150D01*
X84249992Y-83623746D01*
X84232928Y-83797000D01*
X84232928Y-85047000D01*
X84249992Y-85220254D01*
X84300528Y-85386850D01*
X84382595Y-85540386D01*
X84493038Y-85674962D01*
X84513799Y-85692000D01*
X84493038Y-85709038D01*
X84382595Y-85843614D01*
X84300528Y-85997150D01*
X84249992Y-86163746D01*
X84232928Y-86337000D01*
X84232928Y-87587000D01*
X84249992Y-87760254D01*
X84300528Y-87926850D01*
X84382595Y-88080386D01*
X84493038Y-88214962D01*
X84627614Y-88325405D01*
X84781150Y-88407472D01*
X84947746Y-88458008D01*
X85121000Y-88475072D01*
X85871000Y-88475072D01*
X85928597Y-88469399D01*
X87720205Y-90261008D01*
X87743999Y-90290001D01*
X87772992Y-90313795D01*
X87772996Y-90313799D01*
X87837288Y-90366561D01*
X87859724Y-90384974D01*
X87991753Y-90455546D01*
X88003013Y-90458962D01*
X87998463Y-90464506D01*
X87939498Y-90574820D01*
X87903188Y-90694518D01*
X87890928Y-90819000D01*
X87894000Y-91408250D01*
X88052750Y-91567000D01*
X89027000Y-91567000D01*
X89027000Y-91547000D01*
X89281000Y-91547000D01*
X89281000Y-91567000D01*
X90255250Y-91567000D01*
X90414000Y-91408250D01*
X90417072Y-90819000D01*
X90404812Y-90694518D01*
X90404199Y-90692496D01*
X90465256Y-90667205D01*
X90634774Y-90553937D01*
X90778937Y-90409774D01*
X90892205Y-90240256D01*
X90970226Y-90051898D01*
X91010000Y-89851939D01*
X91010000Y-89648061D01*
X90970226Y-89448102D01*
X90892205Y-89259744D01*
X90778937Y-89090226D01*
X90634774Y-88946063D01*
X90465256Y-88832795D01*
X90276898Y-88754774D01*
X90076939Y-88715000D01*
X89873061Y-88715000D01*
X89673102Y-88754774D01*
X89484744Y-88832795D01*
X89315226Y-88946063D01*
X89271289Y-88990000D01*
X88598803Y-88990000D01*
X88083874Y-88475072D01*
X88671000Y-88475072D01*
X88844254Y-88458008D01*
X89010850Y-88407472D01*
X89164386Y-88325405D01*
X89298962Y-88214962D01*
X89409405Y-88080386D01*
X89491472Y-87926850D01*
X89542008Y-87760254D01*
X89559072Y-87587000D01*
X89559072Y-86337000D01*
X89542008Y-86163746D01*
X89491472Y-85997150D01*
X89409405Y-85843614D01*
X89298962Y-85709038D01*
X89278201Y-85692000D01*
X89298962Y-85674962D01*
X89409405Y-85540386D01*
X89491472Y-85386850D01*
X89542008Y-85220254D01*
X89559072Y-85047000D01*
X89559072Y-83797000D01*
X89542008Y-83623746D01*
X89491472Y-83457150D01*
X89409405Y-83303614D01*
X89327654Y-83204000D01*
X89409405Y-83104386D01*
X89491472Y-82950850D01*
X89542008Y-82784254D01*
X89559072Y-82611000D01*
X89559072Y-81361000D01*
X89542008Y-81187746D01*
X89491472Y-81021150D01*
X89409405Y-80867614D01*
X89346530Y-80791000D01*
X89409405Y-80714386D01*
X89491472Y-80560850D01*
X89542008Y-80394254D01*
X89559072Y-80221000D01*
X89559072Y-78971000D01*
X89542008Y-78797746D01*
X89491472Y-78631150D01*
X89480736Y-78611065D01*
X92206804Y-75884999D01*
X92284199Y-75884999D01*
X91442998Y-76726201D01*
X91414000Y-76749999D01*
X91390202Y-76778997D01*
X91390201Y-76778998D01*
X91319026Y-76865724D01*
X91248454Y-76997754D01*
X91204998Y-77141015D01*
X91190324Y-77290000D01*
X91194001Y-77327332D01*
X91194000Y-90272661D01*
X91085614Y-90330595D01*
X90951038Y-90441038D01*
X90840595Y-90575614D01*
X90758528Y-90729150D01*
X90707992Y-90895746D01*
X90690928Y-91069000D01*
X90690928Y-92319000D01*
X90707992Y-92492254D01*
X90758528Y-92658850D01*
X90840595Y-92812386D01*
X90951038Y-92946962D01*
X90971799Y-92964000D01*
X90951038Y-92981038D01*
X90840595Y-93115614D01*
X90758528Y-93269150D01*
X90707992Y-93435746D01*
X90690928Y-93609000D01*
X90690928Y-94859000D01*
X90707992Y-95032254D01*
X90758528Y-95198850D01*
X90840595Y-95352386D01*
X90951038Y-95486962D01*
X91085614Y-95597405D01*
X91239150Y-95679472D01*
X91405746Y-95730008D01*
X91579000Y-95747072D01*
X92329000Y-95747072D01*
X92386598Y-95741399D01*
X95885198Y-99240000D01*
X95814801Y-99240000D01*
X95631804Y-99057003D01*
X95608001Y-99027999D01*
X95492276Y-98933026D01*
X95360247Y-98862454D01*
X95216986Y-98818997D01*
X95105333Y-98808000D01*
X95105322Y-98808000D01*
X95068000Y-98804324D01*
X95030678Y-98808000D01*
X94321624Y-98808000D01*
X94321008Y-98801746D01*
X94270472Y-98635150D01*
X94188405Y-98481614D01*
X94077962Y-98347038D01*
X93943386Y-98236595D01*
X93789850Y-98154528D01*
X93623254Y-98103992D01*
X93450000Y-98086928D01*
X90450000Y-98086928D01*
X90276746Y-98103992D01*
X90110150Y-98154528D01*
X89956614Y-98236595D01*
X89822038Y-98347038D01*
X89711595Y-98481614D01*
X89629528Y-98635150D01*
X89578992Y-98801746D01*
X89561928Y-98975000D01*
X89561928Y-100075000D01*
X89578992Y-100248254D01*
X89629528Y-100414850D01*
X89711595Y-100568386D01*
X89822038Y-100702962D01*
X89956614Y-100813405D01*
X90110150Y-100895472D01*
X90276746Y-100946008D01*
X90450000Y-100963072D01*
X93450000Y-100963072D01*
X93623254Y-100946008D01*
X93661928Y-100934276D01*
X93661928Y-101181250D01*
X93678392Y-101348408D01*
X93727150Y-101509142D01*
X93806329Y-101657275D01*
X93824100Y-101678930D01*
X93769463Y-101745506D01*
X93710498Y-101855820D01*
X93674188Y-101975518D01*
X93661928Y-102100000D01*
X93665000Y-102251750D01*
X93823750Y-102410500D01*
X94648000Y-102410500D01*
X94648000Y-102390500D01*
X94902000Y-102390500D01*
X94902000Y-102410500D01*
X95726250Y-102410500D01*
X95885000Y-102251750D01*
X95888072Y-102100000D01*
X95875812Y-101975518D01*
X95839502Y-101855820D01*
X95780537Y-101745506D01*
X95725900Y-101678930D01*
X95743671Y-101657275D01*
X95822850Y-101509142D01*
X95871608Y-101348408D01*
X95888072Y-101181250D01*
X95888072Y-100924230D01*
X95919535Y-100892767D01*
X95911928Y-100970000D01*
X95915000Y-100984250D01*
X96073750Y-101143000D01*
X97398000Y-101143000D01*
X97398000Y-101123000D01*
X97652000Y-101123000D01*
X97652000Y-101143000D01*
X97672000Y-101143000D01*
X97672000Y-101397000D01*
X97652000Y-101397000D01*
X97652000Y-101417000D01*
X97398000Y-101417000D01*
X97398000Y-101397000D01*
X96073750Y-101397000D01*
X95915000Y-101555750D01*
X95911928Y-101570000D01*
X95924188Y-101694482D01*
X95960498Y-101814180D01*
X96019463Y-101924494D01*
X96043730Y-101954064D01*
X95971916Y-102088418D01*
X95927071Y-102236255D01*
X95911928Y-102390000D01*
X95911928Y-102690000D01*
X95927071Y-102843745D01*
X95971916Y-102991582D01*
X96044742Y-103127829D01*
X96083454Y-103175000D01*
X96044742Y-103222171D01*
X95971916Y-103358418D01*
X95927071Y-103506255D01*
X95911928Y-103660000D01*
X95911928Y-103960000D01*
X95927071Y-104113745D01*
X95971916Y-104261582D01*
X96044742Y-104397829D01*
X96142749Y-104517251D01*
X96262171Y-104615258D01*
X96398418Y-104688084D01*
X96546255Y-104732929D01*
X96626386Y-104740821D01*
X96615000Y-104798061D01*
X96615000Y-105001939D01*
X96654774Y-105201898D01*
X96732795Y-105390256D01*
X96846063Y-105559774D01*
X96990226Y-105703937D01*
X97159744Y-105817205D01*
X97348102Y-105895226D01*
X97548061Y-105935000D01*
X97751939Y-105935000D01*
X97951898Y-105895226D01*
X98140256Y-105817205D01*
X98309774Y-105703937D01*
X98453937Y-105559774D01*
X98567205Y-105390256D01*
X98645226Y-105201898D01*
X98685000Y-105001939D01*
X98685000Y-104798061D01*
X98662015Y-104682507D01*
X98787829Y-104615258D01*
X98907251Y-104517251D01*
X99005258Y-104397829D01*
X99078084Y-104261582D01*
X99090001Y-104222298D01*
X99090000Y-107760198D01*
X95713988Y-111136211D01*
X95684990Y-111160009D01*
X95661192Y-111189007D01*
X95661191Y-111189008D01*
X95590016Y-111275734D01*
X95519444Y-111407764D01*
X95506413Y-111450724D01*
X95475987Y-111551024D01*
X95464990Y-111662677D01*
X95464990Y-111662688D01*
X95461314Y-111700010D01*
X95464990Y-111737332D01*
X95464990Y-112110208D01*
X95243972Y-112331227D01*
X95061345Y-112294900D01*
X94778655Y-112294900D01*
X94501397Y-112350050D01*
X94240225Y-112458231D01*
X94005177Y-112615285D01*
X93805285Y-112815177D01*
X93648231Y-113050225D01*
X93540050Y-113311397D01*
X93484900Y-113588655D01*
X93484900Y-113871345D01*
X93540050Y-114148603D01*
X93648231Y-114409775D01*
X93805285Y-114644823D01*
X94005177Y-114844715D01*
X94160001Y-114948165D01*
X94160000Y-115051835D01*
X94005177Y-115155285D01*
X93805285Y-115355177D01*
X93648231Y-115590225D01*
X93540050Y-115851397D01*
X93484900Y-116128655D01*
X93484900Y-116411345D01*
X93540050Y-116688603D01*
X93648231Y-116949775D01*
X93805285Y-117184823D01*
X94005177Y-117384715D01*
X94240225Y-117541769D01*
X94501397Y-117649950D01*
X94778655Y-117705100D01*
X95061345Y-117705100D01*
X95338603Y-117649950D01*
X95599775Y-117541769D01*
X95834823Y-117384715D01*
X95956764Y-117262774D01*
X96646831Y-117262774D01*
X96718426Y-117506754D01*
X96973954Y-117627664D01*
X97248161Y-117696400D01*
X97530508Y-117710320D01*
X97810147Y-117668889D01*
X98076328Y-117573700D01*
X98201574Y-117506754D01*
X98273169Y-117262774D01*
X99186831Y-117262774D01*
X99258426Y-117506754D01*
X99513954Y-117627664D01*
X99788161Y-117696400D01*
X100070508Y-117710320D01*
X100350147Y-117668889D01*
X100616328Y-117573700D01*
X100741574Y-117506754D01*
X100813169Y-117262774D01*
X101726831Y-117262774D01*
X101798426Y-117506754D01*
X102053954Y-117627664D01*
X102328161Y-117696400D01*
X102610508Y-117710320D01*
X102890147Y-117668889D01*
X103156328Y-117573700D01*
X103281574Y-117506754D01*
X103353169Y-117262774D01*
X102540000Y-116449605D01*
X101726831Y-117262774D01*
X100813169Y-117262774D01*
X100000000Y-116449605D01*
X99186831Y-117262774D01*
X98273169Y-117262774D01*
X97460000Y-116449605D01*
X96646831Y-117262774D01*
X95956764Y-117262774D01*
X96034715Y-117184823D01*
X96190905Y-116951068D01*
X96223246Y-117011574D01*
X96467226Y-117083169D01*
X97280395Y-116270000D01*
X97639605Y-116270000D01*
X98452774Y-117083169D01*
X98696754Y-117011574D01*
X98727976Y-116945590D01*
X98763246Y-117011574D01*
X99007226Y-117083169D01*
X99820395Y-116270000D01*
X100179605Y-116270000D01*
X100992774Y-117083169D01*
X101236754Y-117011574D01*
X101267976Y-116945590D01*
X101303246Y-117011574D01*
X101547226Y-117083169D01*
X102360395Y-116270000D01*
X101547226Y-115456831D01*
X101303246Y-115528426D01*
X101272024Y-115594410D01*
X101236754Y-115528426D01*
X100992774Y-115456831D01*
X100179605Y-116270000D01*
X99820395Y-116270000D01*
X99007226Y-115456831D01*
X98763246Y-115528426D01*
X98732024Y-115594410D01*
X98696754Y-115528426D01*
X98452774Y-115456831D01*
X97639605Y-116270000D01*
X97280395Y-116270000D01*
X96467226Y-115456831D01*
X96223246Y-115528426D01*
X96192812Y-115592744D01*
X96191769Y-115590225D01*
X96034715Y-115355177D01*
X95834823Y-115155285D01*
X95680000Y-115051836D01*
X95680000Y-114948164D01*
X95834823Y-114844715D01*
X95956764Y-114722774D01*
X96646831Y-114722774D01*
X96718426Y-114966754D01*
X96784410Y-114997976D01*
X96718426Y-115033246D01*
X96646831Y-115277226D01*
X97460000Y-116090395D01*
X98273169Y-115277226D01*
X98201574Y-115033246D01*
X98135590Y-115002024D01*
X98201574Y-114966754D01*
X98273169Y-114722774D01*
X99186831Y-114722774D01*
X99258426Y-114966754D01*
X99324410Y-114997976D01*
X99258426Y-115033246D01*
X99186831Y-115277226D01*
X100000000Y-116090395D01*
X100813169Y-115277226D01*
X100741574Y-115033246D01*
X100675590Y-115002024D01*
X100741574Y-114966754D01*
X100813169Y-114722774D01*
X101726831Y-114722774D01*
X101798426Y-114966754D01*
X101864410Y-114997976D01*
X101798426Y-115033246D01*
X101726831Y-115277226D01*
X102540000Y-116090395D01*
X103353169Y-115277226D01*
X103281574Y-115033246D01*
X103215590Y-115002024D01*
X103281574Y-114966754D01*
X103353169Y-114722774D01*
X102540000Y-113909605D01*
X101726831Y-114722774D01*
X100813169Y-114722774D01*
X100000000Y-113909605D01*
X99186831Y-114722774D01*
X98273169Y-114722774D01*
X97460000Y-113909605D01*
X96646831Y-114722774D01*
X95956764Y-114722774D01*
X96034715Y-114644823D01*
X96190905Y-114411068D01*
X96223246Y-114471574D01*
X96467226Y-114543169D01*
X97280395Y-113730000D01*
X97639605Y-113730000D01*
X98452774Y-114543169D01*
X98696754Y-114471574D01*
X98727976Y-114405590D01*
X98763246Y-114471574D01*
X99007226Y-114543169D01*
X99820395Y-113730000D01*
X100179605Y-113730000D01*
X100992774Y-114543169D01*
X101236754Y-114471574D01*
X101267976Y-114405590D01*
X101303246Y-114471574D01*
X101547226Y-114543169D01*
X102360395Y-113730000D01*
X101547226Y-112916831D01*
X101303246Y-112988426D01*
X101272024Y-113054410D01*
X101236754Y-112988426D01*
X100992774Y-112916831D01*
X100179605Y-113730000D01*
X99820395Y-113730000D01*
X99007226Y-112916831D01*
X98763246Y-112988426D01*
X98732024Y-113054410D01*
X98696754Y-112988426D01*
X98452774Y-112916831D01*
X97639605Y-113730000D01*
X97280395Y-113730000D01*
X97266253Y-113715858D01*
X97445858Y-113536253D01*
X97460000Y-113550395D01*
X98273169Y-112737226D01*
X99186831Y-112737226D01*
X100000000Y-113550395D01*
X100813169Y-112737226D01*
X100741574Y-112493246D01*
X100486046Y-112372336D01*
X100211839Y-112303600D01*
X99929492Y-112289680D01*
X99649853Y-112331111D01*
X99383672Y-112426300D01*
X99258426Y-112493246D01*
X99186831Y-112737226D01*
X98273169Y-112737226D01*
X98201574Y-112493246D01*
X97946046Y-112372336D01*
X97671839Y-112303600D01*
X97389492Y-112289680D01*
X97109853Y-112331111D01*
X96984990Y-112375763D01*
X96984990Y-112014811D01*
X99540011Y-109459791D01*
X99540011Y-110362678D01*
X99536334Y-110400010D01*
X99551008Y-110548995D01*
X99594464Y-110692256D01*
X99665036Y-110824286D01*
X99736211Y-110911012D01*
X99760010Y-110940011D01*
X99789008Y-110963809D01*
X101211200Y-112386002D01*
X101234999Y-112415001D01*
X101350724Y-112509974D01*
X101482753Y-112580546D01*
X101626014Y-112624003D01*
X101737667Y-112635000D01*
X101737677Y-112635000D01*
X101756291Y-112636833D01*
X101726831Y-112737226D01*
X102540000Y-113550395D01*
X102554143Y-113536253D01*
X102733748Y-113715858D01*
X102719605Y-113730000D01*
X103532774Y-114543169D01*
X103776754Y-114471574D01*
X103807188Y-114407256D01*
X103808231Y-114409775D01*
X103965285Y-114644823D01*
X104165177Y-114844715D01*
X104320001Y-114948165D01*
X104320000Y-115051835D01*
X104165177Y-115155285D01*
X103965285Y-115355177D01*
X103809095Y-115588932D01*
X103776754Y-115528426D01*
X103532774Y-115456831D01*
X102719605Y-116270000D01*
X103532774Y-117083169D01*
X103776754Y-117011574D01*
X103807188Y-116947256D01*
X103808231Y-116949775D01*
X103965285Y-117184823D01*
X104165177Y-117384715D01*
X104400225Y-117541769D01*
X104661397Y-117649950D01*
X104938655Y-117705100D01*
X105221345Y-117705100D01*
X105498603Y-117649950D01*
X105759775Y-117541769D01*
X105994823Y-117384715D01*
X106194715Y-117184823D01*
X106351769Y-116949775D01*
X106459950Y-116688603D01*
X106515100Y-116411345D01*
X106515100Y-116128655D01*
X106459950Y-115851397D01*
X106351769Y-115590225D01*
X106194715Y-115355177D01*
X105994823Y-115155285D01*
X105840000Y-115051836D01*
X105840000Y-114948164D01*
X105994823Y-114844715D01*
X106059666Y-114779872D01*
X112765000Y-114779872D01*
X112765000Y-115220128D01*
X112850890Y-115651925D01*
X113019369Y-116058669D01*
X113263962Y-116424729D01*
X113575271Y-116736038D01*
X113941331Y-116980631D01*
X114348075Y-117149110D01*
X114779872Y-117235000D01*
X115220128Y-117235000D01*
X115651925Y-117149110D01*
X116058669Y-116980631D01*
X116424729Y-116736038D01*
X116736038Y-116424729D01*
X116980631Y-116058669D01*
X117149110Y-115651925D01*
X117235000Y-115220128D01*
X117235000Y-114779872D01*
X117149110Y-114348075D01*
X116980631Y-113941331D01*
X116736038Y-113575271D01*
X116424729Y-113263962D01*
X116058669Y-113019369D01*
X115651925Y-112850890D01*
X115220128Y-112765000D01*
X114779872Y-112765000D01*
X114348075Y-112850890D01*
X113941331Y-113019369D01*
X113575271Y-113263962D01*
X113263962Y-113575271D01*
X113019369Y-113941331D01*
X112850890Y-114348075D01*
X112765000Y-114779872D01*
X106059666Y-114779872D01*
X106194715Y-114644823D01*
X106351769Y-114409775D01*
X106459950Y-114148603D01*
X106515100Y-113871345D01*
X106515100Y-113588655D01*
X106459950Y-113311397D01*
X106351769Y-113050225D01*
X106194715Y-112815177D01*
X105994823Y-112615285D01*
X105759775Y-112458231D01*
X105498603Y-112350050D01*
X105221345Y-112294900D01*
X104938655Y-112294900D01*
X104756028Y-112331227D01*
X103788804Y-111364003D01*
X103765001Y-111334999D01*
X103649276Y-111240026D01*
X103517247Y-111169454D01*
X103373986Y-111125997D01*
X103262333Y-111115000D01*
X103262322Y-111115000D01*
X103225000Y-111111324D01*
X103187678Y-111115000D01*
X102089802Y-111115000D01*
X101060010Y-110085209D01*
X101060010Y-109110372D01*
X101145506Y-109180537D01*
X101255820Y-109239502D01*
X101375518Y-109275812D01*
X101500000Y-109288072D01*
X104000000Y-109288072D01*
X104124482Y-109275812D01*
X104244180Y-109239502D01*
X104354494Y-109180537D01*
X104451185Y-109101185D01*
X104530537Y-109004494D01*
X104589502Y-108894180D01*
X104625812Y-108774482D01*
X104638072Y-108650000D01*
X104638072Y-107047874D01*
X104861928Y-107271730D01*
X104861928Y-108650000D01*
X104874188Y-108774482D01*
X104910498Y-108894180D01*
X104969463Y-109004494D01*
X105048815Y-109101185D01*
X105145506Y-109180537D01*
X105255820Y-109239502D01*
X105375518Y-109275812D01*
X105500000Y-109288072D01*
X108000000Y-109288072D01*
X108124482Y-109275812D01*
X108244180Y-109239502D01*
X108354494Y-109180537D01*
X108375000Y-109163708D01*
X108395506Y-109180537D01*
X108505820Y-109239502D01*
X108625518Y-109275812D01*
X108750000Y-109288072D01*
X111250000Y-109288072D01*
X111374482Y-109275812D01*
X111494180Y-109239502D01*
X111604494Y-109180537D01*
X111701185Y-109101185D01*
X111780537Y-109004494D01*
X111839502Y-108894180D01*
X111875812Y-108774482D01*
X111888072Y-108650000D01*
X111888072Y-106850000D01*
X111875812Y-106725518D01*
X111864968Y-106689769D01*
X112111928Y-106936730D01*
X112111928Y-108650000D01*
X112124188Y-108774482D01*
X112160498Y-108894180D01*
X112219463Y-109004494D01*
X112298815Y-109101185D01*
X112395506Y-109180537D01*
X112505820Y-109239502D01*
X112625518Y-109275812D01*
X112750000Y-109288072D01*
X115250000Y-109288072D01*
X115374482Y-109275812D01*
X115494180Y-109239502D01*
X115604494Y-109180537D01*
X115701185Y-109101185D01*
X115780537Y-109004494D01*
X115839502Y-108894180D01*
X115875812Y-108774482D01*
X115888072Y-108650000D01*
X115888072Y-106850000D01*
X115875812Y-106725518D01*
X115839502Y-106605820D01*
X115780537Y-106495506D01*
X115701185Y-106398815D01*
X115604494Y-106319463D01*
X115494180Y-106260498D01*
X115374482Y-106224188D01*
X115250000Y-106211928D01*
X113536730Y-106211928D01*
X110385000Y-103060199D01*
X110385000Y-101259621D01*
X111634250Y-101257000D01*
X111793000Y-101098250D01*
X111793000Y-99949000D01*
X112047000Y-99949000D01*
X112047000Y-101098250D01*
X112205750Y-101257000D01*
X113670000Y-101260072D01*
X113794482Y-101247812D01*
X113914180Y-101211502D01*
X114024494Y-101152537D01*
X114121185Y-101073185D01*
X114200537Y-100976494D01*
X114259502Y-100866180D01*
X114295812Y-100746482D01*
X114308072Y-100622000D01*
X114305000Y-100107750D01*
X114146250Y-99949000D01*
X112047000Y-99949000D01*
X111793000Y-99949000D01*
X111773000Y-99949000D01*
X111773000Y-99695000D01*
X111793000Y-99695000D01*
X111793000Y-98545750D01*
X112047000Y-98545750D01*
X112047000Y-99695000D01*
X114146250Y-99695000D01*
X114305000Y-99536250D01*
X114308072Y-99022000D01*
X114295812Y-98897518D01*
X114259502Y-98777820D01*
X114200537Y-98667506D01*
X114121185Y-98570815D01*
X114024494Y-98491463D01*
X113914180Y-98432498D01*
X113794482Y-98396188D01*
X113670000Y-98383928D01*
X112205750Y-98387000D01*
X112047000Y-98545750D01*
X111793000Y-98545750D01*
X111634250Y-98387000D01*
X110385000Y-98384379D01*
X110385000Y-92644828D01*
X110388676Y-92607505D01*
X110385000Y-92570182D01*
X110385000Y-92570173D01*
X110374003Y-92458520D01*
X110330546Y-92315259D01*
X110259974Y-92183230D01*
X110234761Y-92152508D01*
X110188799Y-92096502D01*
X110188795Y-92096498D01*
X110165001Y-92067505D01*
X110136009Y-92043712D01*
X106762873Y-88670578D01*
X106765072Y-88648250D01*
X106765072Y-88135750D01*
X106748608Y-87968592D01*
X106699850Y-87807858D01*
X106620671Y-87659725D01*
X106596277Y-87630000D01*
X106620671Y-87600275D01*
X106699850Y-87452142D01*
X106748608Y-87291408D01*
X106765072Y-87124250D01*
X106765072Y-86611750D01*
X106748608Y-86444592D01*
X106699850Y-86283858D01*
X106620671Y-86135725D01*
X106596277Y-86106000D01*
X106620671Y-86076275D01*
X106699850Y-85928142D01*
X106748608Y-85767408D01*
X106765072Y-85600250D01*
X106765072Y-85087750D01*
X106748608Y-84920592D01*
X106699850Y-84759858D01*
X106620671Y-84611725D01*
X106514115Y-84481885D01*
X106449500Y-84428857D01*
X106449500Y-84297833D01*
X106453177Y-84260500D01*
X106449500Y-84223167D01*
X106449500Y-84085143D01*
X106514115Y-84032115D01*
X106620671Y-83902275D01*
X106699850Y-83754142D01*
X106748608Y-83593408D01*
X106765072Y-83426250D01*
X106765072Y-82913750D01*
X106748608Y-82746592D01*
X106699850Y-82585858D01*
X106620671Y-82437725D01*
X106596277Y-82408000D01*
X106620671Y-82378275D01*
X106699850Y-82230142D01*
X106748608Y-82069408D01*
X106765072Y-81902250D01*
X106765072Y-81389750D01*
X106748608Y-81222592D01*
X106699850Y-81061858D01*
X106620671Y-80913725D01*
X106514115Y-80783885D01*
X106449500Y-80730857D01*
X106449500Y-80690413D01*
X106453176Y-80653090D01*
X106449500Y-80615767D01*
X106449500Y-80615757D01*
X106438503Y-80504104D01*
X106395046Y-80360843D01*
X106324474Y-80228814D01*
X106229501Y-80113089D01*
X106200504Y-80089292D01*
X104157008Y-78045797D01*
X104157004Y-78045792D01*
X103760000Y-77648789D01*
X103760000Y-77357909D01*
X103882886Y-77275799D01*
X104000000Y-77158685D01*
X104117114Y-77275799D01*
X104343957Y-77427371D01*
X104596011Y-77531775D01*
X104863589Y-77585000D01*
X105136411Y-77585000D01*
X105403989Y-77531775D01*
X105656043Y-77427371D01*
X105882886Y-77275799D01*
X106075799Y-77082886D01*
X106227371Y-76856043D01*
X106331775Y-76603989D01*
X106385000Y-76336411D01*
X106385000Y-76063589D01*
X106331775Y-75796011D01*
X106227371Y-75543957D01*
X106075799Y-75317114D01*
X105882886Y-75124201D01*
X105656043Y-74972629D01*
X105403989Y-74868225D01*
X105136411Y-74815000D01*
X104863589Y-74815000D01*
X104596011Y-74868225D01*
X104343957Y-74972629D01*
X104117114Y-75124201D01*
X104000000Y-75241315D01*
X103882886Y-75124201D01*
X103656043Y-74972629D01*
X103403989Y-74868225D01*
X103136411Y-74815000D01*
X102863589Y-74815000D01*
X102718635Y-74843833D01*
X102488803Y-74614001D01*
X102465000Y-74584998D01*
X102349275Y-74490025D01*
X102218270Y-74420000D01*
X113361928Y-74420000D01*
X113361928Y-75420000D01*
X113374188Y-75544482D01*
X113410498Y-75664180D01*
X113469463Y-75774494D01*
X113548815Y-75871185D01*
X113645506Y-75950537D01*
X113755820Y-76009502D01*
X113875518Y-76045812D01*
X114000000Y-76058072D01*
X116000000Y-76058072D01*
X116124482Y-76045812D01*
X116244180Y-76009502D01*
X116354494Y-75950537D01*
X116451185Y-75871185D01*
X116530537Y-75774494D01*
X116589502Y-75664180D01*
X116625812Y-75544482D01*
X116638072Y-75420000D01*
X116638072Y-74420000D01*
X116625812Y-74295518D01*
X116589502Y-74175820D01*
X116530537Y-74065506D01*
X116451185Y-73968815D01*
X116354494Y-73889463D01*
X116244180Y-73830498D01*
X116124482Y-73794188D01*
X116000000Y-73781928D01*
X114000000Y-73781928D01*
X113875518Y-73794188D01*
X113755820Y-73830498D01*
X113645506Y-73889463D01*
X113548815Y-73968815D01*
X113469463Y-74065506D01*
X113410498Y-74175820D01*
X113374188Y-74295518D01*
X113361928Y-74420000D01*
X102218270Y-74420000D01*
X102217246Y-74419453D01*
X102073985Y-74375996D01*
X101962332Y-74364999D01*
X101962321Y-74364999D01*
X101924999Y-74361323D01*
X101887677Y-74364999D01*
X91929323Y-74364999D01*
X91892000Y-74361323D01*
X91854677Y-74364999D01*
X91854668Y-74364999D01*
X91743015Y-74375996D01*
X91599754Y-74419453D01*
X91467725Y-74490025D01*
X91467723Y-74490026D01*
X91467724Y-74490026D01*
X91380997Y-74561200D01*
X91380993Y-74561204D01*
X91352000Y-74584998D01*
X91328206Y-74613991D01*
X87852527Y-78089672D01*
X87747746Y-78099992D01*
X87581150Y-78150528D01*
X87427614Y-78232595D01*
X87293038Y-78343038D01*
X87182595Y-78477614D01*
X87100528Y-78631150D01*
X87049992Y-78797746D01*
X87032928Y-78971000D01*
X87032928Y-80221000D01*
X87049992Y-80394254D01*
X87100528Y-80560850D01*
X87182595Y-80714386D01*
X87245470Y-80791000D01*
X87182595Y-80867614D01*
X87100528Y-81021150D01*
X87049992Y-81187746D01*
X87032928Y-81361000D01*
X87032928Y-82611000D01*
X87049992Y-82784254D01*
X87100528Y-82950850D01*
X87182595Y-83104386D01*
X87264346Y-83204000D01*
X87182595Y-83303614D01*
X87100528Y-83457150D01*
X87049992Y-83623746D01*
X87032928Y-83797000D01*
X87032928Y-85047000D01*
X87049992Y-85220254D01*
X87100528Y-85386850D01*
X87182595Y-85540386D01*
X87293038Y-85674962D01*
X87313799Y-85692000D01*
X87293038Y-85709038D01*
X87182595Y-85843614D01*
X87100528Y-85997150D01*
X87049992Y-86163746D01*
X87032928Y-86337000D01*
X87032928Y-87424126D01*
X86759072Y-87150270D01*
X86759072Y-86337000D01*
X86742008Y-86163746D01*
X86691472Y-85997150D01*
X86609405Y-85843614D01*
X86498962Y-85709038D01*
X86478201Y-85692000D01*
X86498962Y-85674962D01*
X86609405Y-85540386D01*
X86691472Y-85386850D01*
X86742008Y-85220254D01*
X86759072Y-85047000D01*
X86759072Y-83797000D01*
X86742008Y-83623746D01*
X86691472Y-83457150D01*
X86609405Y-83303614D01*
X86527654Y-83204000D01*
X86609405Y-83104386D01*
X86691472Y-82950850D01*
X86742008Y-82784254D01*
X86759072Y-82611000D01*
X86759072Y-81361000D01*
X86742008Y-81187746D01*
X86691472Y-81021150D01*
X86609405Y-80867614D01*
X86546530Y-80791000D01*
X86609405Y-80714386D01*
X86691472Y-80560850D01*
X86742008Y-80394254D01*
X86759072Y-80221000D01*
X86759072Y-78971000D01*
X86742008Y-78797746D01*
X86691472Y-78631150D01*
X86609405Y-78477614D01*
X86498962Y-78343038D01*
X86364386Y-78232595D01*
X86210850Y-78150528D01*
X86044254Y-78099992D01*
X85871000Y-78082928D01*
X85121000Y-78082928D01*
X84947746Y-78099992D01*
X84781150Y-78150528D01*
X84627614Y-78232595D01*
X84493038Y-78343038D01*
X84382595Y-78477614D01*
X84300528Y-78631150D01*
X84249992Y-78797746D01*
X84232928Y-78971000D01*
X80660000Y-78971000D01*
X80660000Y-74420000D01*
X83361928Y-74420000D01*
X83361928Y-75420000D01*
X83374188Y-75544482D01*
X83410498Y-75664180D01*
X83469463Y-75774494D01*
X83548815Y-75871185D01*
X83645506Y-75950537D01*
X83755820Y-76009502D01*
X83875518Y-76045812D01*
X84000000Y-76058072D01*
X86000000Y-76058072D01*
X86124482Y-76045812D01*
X86244180Y-76009502D01*
X86354494Y-75950537D01*
X86451185Y-75871185D01*
X86530537Y-75774494D01*
X86589502Y-75664180D01*
X86625812Y-75544482D01*
X86638072Y-75420000D01*
X86638072Y-74420000D01*
X86625812Y-74295518D01*
X86589502Y-74175820D01*
X86530537Y-74065506D01*
X86451185Y-73968815D01*
X86354494Y-73889463D01*
X86244180Y-73830498D01*
X86124482Y-73794188D01*
X86000000Y-73781928D01*
X84000000Y-73781928D01*
X83875518Y-73794188D01*
X83755820Y-73830498D01*
X83645506Y-73889463D01*
X83548815Y-73968815D01*
X83469463Y-74065506D01*
X83410498Y-74175820D01*
X83374188Y-74295518D01*
X83361928Y-74420000D01*
X80660000Y-74420000D01*
X80660000Y-69765098D01*
X82615000Y-69765098D01*
X82615000Y-70234902D01*
X82706654Y-70695679D01*
X82886440Y-71129721D01*
X83147450Y-71520349D01*
X83479651Y-71852550D01*
X83870279Y-72113560D01*
X84304321Y-72293346D01*
X84765098Y-72385000D01*
X85234902Y-72385000D01*
X85695679Y-72293346D01*
X86129721Y-72113560D01*
X86520349Y-71852550D01*
X86852550Y-71520349D01*
X87113560Y-71129721D01*
X87293346Y-70695679D01*
X87385000Y-70234902D01*
X87385000Y-69765098D01*
X112615000Y-69765098D01*
X112615000Y-70234902D01*
X112706654Y-70695679D01*
X112886440Y-71129721D01*
X113147450Y-71520349D01*
X113479651Y-71852550D01*
X113870279Y-72113560D01*
X114304321Y-72293346D01*
X114765098Y-72385000D01*
X115234902Y-72385000D01*
X115695679Y-72293346D01*
X116129721Y-72113560D01*
X116520349Y-71852550D01*
X116852550Y-71520349D01*
X117113560Y-71129721D01*
X117293346Y-70695679D01*
X117385000Y-70234902D01*
X117385000Y-69765098D01*
X117293346Y-69304321D01*
X117113560Y-68870279D01*
X116852550Y-68479651D01*
X116520349Y-68147450D01*
X116129721Y-67886440D01*
X115819813Y-67758072D01*
X116000000Y-67758072D01*
X116124482Y-67745812D01*
X116244180Y-67709502D01*
X116354494Y-67650537D01*
X116451185Y-67571185D01*
X116530537Y-67474494D01*
X116589502Y-67364180D01*
X116625812Y-67244482D01*
X116638072Y-67120000D01*
X116638072Y-66120000D01*
X116625812Y-65995518D01*
X116589502Y-65875820D01*
X116530537Y-65765506D01*
X116451185Y-65668815D01*
X116354494Y-65589463D01*
X116244180Y-65530498D01*
X116124482Y-65494188D01*
X116000000Y-65481928D01*
X114000000Y-65481928D01*
X113875518Y-65494188D01*
X113755820Y-65530498D01*
X113645506Y-65589463D01*
X113548815Y-65668815D01*
X113469463Y-65765506D01*
X113410498Y-65875820D01*
X113374188Y-65995518D01*
X113361928Y-66120000D01*
X113361928Y-67120000D01*
X113374188Y-67244482D01*
X113410498Y-67364180D01*
X113469463Y-67474494D01*
X113548815Y-67571185D01*
X113645506Y-67650537D01*
X113755820Y-67709502D01*
X113875518Y-67745812D01*
X114000000Y-67758072D01*
X114180187Y-67758072D01*
X113870279Y-67886440D01*
X113479651Y-68147450D01*
X113147450Y-68479651D01*
X112886440Y-68870279D01*
X112706654Y-69304321D01*
X112615000Y-69765098D01*
X87385000Y-69765098D01*
X87293346Y-69304321D01*
X87113560Y-68870279D01*
X86852550Y-68479651D01*
X86520349Y-68147450D01*
X86129721Y-67886440D01*
X85819813Y-67758072D01*
X86000000Y-67758072D01*
X86124482Y-67745812D01*
X86244180Y-67709502D01*
X86354494Y-67650537D01*
X86451185Y-67571185D01*
X86530537Y-67474494D01*
X86589502Y-67364180D01*
X86625812Y-67244482D01*
X86638072Y-67120000D01*
X86638072Y-66120000D01*
X86625812Y-65995518D01*
X86589502Y-65875820D01*
X86530537Y-65765506D01*
X86451185Y-65668815D01*
X86354494Y-65589463D01*
X86244180Y-65530498D01*
X86124482Y-65494188D01*
X86000000Y-65481928D01*
X84000000Y-65481928D01*
X83875518Y-65494188D01*
X83755820Y-65530498D01*
X83645506Y-65589463D01*
X83548815Y-65668815D01*
X83469463Y-65765506D01*
X83410498Y-65875820D01*
X83374188Y-65995518D01*
X83361928Y-66120000D01*
X83361928Y-67120000D01*
X83374188Y-67244482D01*
X83410498Y-67364180D01*
X83469463Y-67474494D01*
X83548815Y-67571185D01*
X83645506Y-67650537D01*
X83755820Y-67709502D01*
X83875518Y-67745812D01*
X84000000Y-67758072D01*
X84180187Y-67758072D01*
X83870279Y-67886440D01*
X83479651Y-68147450D01*
X83147450Y-68479651D01*
X82886440Y-68870279D01*
X82706654Y-69304321D01*
X82615000Y-69765098D01*
X80660000Y-69765098D01*
X80660000Y-64020000D01*
X83361928Y-64020000D01*
X83374188Y-64144482D01*
X83410498Y-64264180D01*
X83469463Y-64374494D01*
X83548815Y-64471185D01*
X83645506Y-64550537D01*
X83755820Y-64609502D01*
X83875518Y-64645812D01*
X84000000Y-64658072D01*
X84714250Y-64655000D01*
X84873000Y-64496250D01*
X84873000Y-63647000D01*
X85127000Y-63647000D01*
X85127000Y-64496250D01*
X85285750Y-64655000D01*
X86000000Y-64658072D01*
X86124482Y-64645812D01*
X86244180Y-64609502D01*
X86354494Y-64550537D01*
X86451185Y-64471185D01*
X86530537Y-64374494D01*
X86543629Y-64350000D01*
X90711928Y-64350000D01*
X90711928Y-68050000D01*
X90724188Y-68174482D01*
X90760498Y-68294180D01*
X90819463Y-68404494D01*
X90898815Y-68501185D01*
X90995506Y-68580537D01*
X91105820Y-68639502D01*
X91225518Y-68675812D01*
X91350000Y-68688072D01*
X93350000Y-68688072D01*
X93474482Y-68675812D01*
X93594180Y-68639502D01*
X93704494Y-68580537D01*
X93801185Y-68501185D01*
X93880537Y-68404494D01*
X93939502Y-68294180D01*
X93975812Y-68174482D01*
X93988072Y-68050000D01*
X93988072Y-64350000D01*
X106011928Y-64350000D01*
X106011928Y-68050000D01*
X106024188Y-68174482D01*
X106060498Y-68294180D01*
X106119463Y-68404494D01*
X106198815Y-68501185D01*
X106295506Y-68580537D01*
X106405820Y-68639502D01*
X106525518Y-68675812D01*
X106650000Y-68688072D01*
X108650000Y-68688072D01*
X108774482Y-68675812D01*
X108894180Y-68639502D01*
X109004494Y-68580537D01*
X109101185Y-68501185D01*
X109180537Y-68404494D01*
X109239502Y-68294180D01*
X109275812Y-68174482D01*
X109288072Y-68050000D01*
X109288072Y-64350000D01*
X109275812Y-64225518D01*
X109239502Y-64105820D01*
X109193630Y-64020000D01*
X113361928Y-64020000D01*
X113374188Y-64144482D01*
X113410498Y-64264180D01*
X113469463Y-64374494D01*
X113548815Y-64471185D01*
X113645506Y-64550537D01*
X113755820Y-64609502D01*
X113875518Y-64645812D01*
X114000000Y-64658072D01*
X114714250Y-64655000D01*
X114873000Y-64496250D01*
X114873000Y-63647000D01*
X115127000Y-63647000D01*
X115127000Y-64496250D01*
X115285750Y-64655000D01*
X116000000Y-64658072D01*
X116124482Y-64645812D01*
X116244180Y-64609502D01*
X116354494Y-64550537D01*
X116451185Y-64471185D01*
X116530537Y-64374494D01*
X116589502Y-64264180D01*
X116625812Y-64144482D01*
X116638072Y-64020000D01*
X116635000Y-63805750D01*
X116476250Y-63647000D01*
X115127000Y-63647000D01*
X114873000Y-63647000D01*
X113523750Y-63647000D01*
X113365000Y-63805750D01*
X113361928Y-64020000D01*
X109193630Y-64020000D01*
X109180537Y-63995506D01*
X109101185Y-63898815D01*
X109004494Y-63819463D01*
X108894180Y-63760498D01*
X108774482Y-63724188D01*
X108650000Y-63711928D01*
X106650000Y-63711928D01*
X106525518Y-63724188D01*
X106405820Y-63760498D01*
X106295506Y-63819463D01*
X106198815Y-63898815D01*
X106119463Y-63995506D01*
X106060498Y-64105820D01*
X106024188Y-64225518D01*
X106011928Y-64350000D01*
X93988072Y-64350000D01*
X93975812Y-64225518D01*
X93939502Y-64105820D01*
X93880537Y-63995506D01*
X93801185Y-63898815D01*
X93704494Y-63819463D01*
X93594180Y-63760498D01*
X93474482Y-63724188D01*
X93350000Y-63711928D01*
X91350000Y-63711928D01*
X91225518Y-63724188D01*
X91105820Y-63760498D01*
X90995506Y-63819463D01*
X90898815Y-63898815D01*
X90819463Y-63995506D01*
X90760498Y-64105820D01*
X90724188Y-64225518D01*
X90711928Y-64350000D01*
X86543629Y-64350000D01*
X86589502Y-64264180D01*
X86625812Y-64144482D01*
X86638072Y-64020000D01*
X86635000Y-63805750D01*
X86476250Y-63647000D01*
X85127000Y-63647000D01*
X84873000Y-63647000D01*
X83523750Y-63647000D01*
X83365000Y-63805750D01*
X83361928Y-64020000D01*
X80660000Y-64020000D01*
X80660000Y-63020000D01*
X83361928Y-63020000D01*
X83365000Y-63234250D01*
X83523750Y-63393000D01*
X84873000Y-63393000D01*
X84873000Y-62543750D01*
X85127000Y-62543750D01*
X85127000Y-63393000D01*
X86476250Y-63393000D01*
X86635000Y-63234250D01*
X86638072Y-63020000D01*
X113361928Y-63020000D01*
X113365000Y-63234250D01*
X113523750Y-63393000D01*
X114873000Y-63393000D01*
X114873000Y-62543750D01*
X115127000Y-62543750D01*
X115127000Y-63393000D01*
X116476250Y-63393000D01*
X116635000Y-63234250D01*
X116638072Y-63020000D01*
X116625812Y-62895518D01*
X116589502Y-62775820D01*
X116530537Y-62665506D01*
X116451185Y-62568815D01*
X116354494Y-62489463D01*
X116244180Y-62430498D01*
X116124482Y-62394188D01*
X116000000Y-62381928D01*
X115285750Y-62385000D01*
X115127000Y-62543750D01*
X114873000Y-62543750D01*
X114714250Y-62385000D01*
X114000000Y-62381928D01*
X113875518Y-62394188D01*
X113755820Y-62430498D01*
X113645506Y-62489463D01*
X113548815Y-62568815D01*
X113469463Y-62665506D01*
X113410498Y-62775820D01*
X113374188Y-62895518D01*
X113361928Y-63020000D01*
X86638072Y-63020000D01*
X86625812Y-62895518D01*
X86589502Y-62775820D01*
X86530537Y-62665506D01*
X86451185Y-62568815D01*
X86354494Y-62489463D01*
X86244180Y-62430498D01*
X86124482Y-62394188D01*
X86000000Y-62381928D01*
X85285750Y-62385000D01*
X85127000Y-62543750D01*
X84873000Y-62543750D01*
X84714250Y-62385000D01*
X84000000Y-62381928D01*
X83875518Y-62394188D01*
X83755820Y-62430498D01*
X83645506Y-62489463D01*
X83548815Y-62568815D01*
X83469463Y-62665506D01*
X83410498Y-62775820D01*
X83374188Y-62895518D01*
X83361928Y-63020000D01*
X80660000Y-63020000D01*
X80660000Y-56660000D01*
X119340000Y-56660000D01*
X119340001Y-119340000D01*
G36*
X108865001Y-103337668D02*
G01*
X108861324Y-103375000D01*
X108875998Y-103523985D01*
X108919454Y-103667246D01*
X108990026Y-103799276D01*
X109043965Y-103865000D01*
X109085000Y-103915001D01*
X109113998Y-103938799D01*
X111410231Y-106235032D01*
X111374482Y-106224188D01*
X111250000Y-106211928D01*
X108750000Y-106211928D01*
X108625518Y-106224188D01*
X108505820Y-106260498D01*
X108395506Y-106319463D01*
X108375000Y-106336292D01*
X108354494Y-106319463D01*
X108244180Y-106260498D01*
X108124482Y-106224188D01*
X108000000Y-106211928D01*
X105951730Y-106211928D01*
X104193048Y-104453247D01*
X104362250Y-104450500D01*
X104521000Y-104291750D01*
X104521000Y-103505000D01*
X104775000Y-103505000D01*
X104775000Y-104291750D01*
X104933750Y-104450500D01*
X105123000Y-104453572D01*
X105247482Y-104441312D01*
X105367180Y-104405002D01*
X105477494Y-104346037D01*
X105574185Y-104266685D01*
X105653537Y-104169994D01*
X105712502Y-104059680D01*
X105748812Y-103939982D01*
X105761072Y-103815500D01*
X105758000Y-103663750D01*
X105599250Y-103505000D01*
X104775000Y-103505000D01*
X104521000Y-103505000D01*
X104501000Y-103505000D01*
X104501000Y-103325510D01*
X107147168Y-103325510D01*
X107184490Y-103329186D01*
X107221812Y-103325510D01*
X107221823Y-103325510D01*
X107333476Y-103314513D01*
X107476737Y-103271056D01*
X107608766Y-103200484D01*
X107724491Y-103105511D01*
X107748293Y-103076508D01*
X108865001Y-101959802D01*
X108865001Y-103337668D01*
G37*
X108865001Y-103337668D02*
X108861324Y-103375000D01*
X108875998Y-103523985D01*
X108919454Y-103667246D01*
X108990026Y-103799276D01*
X109043965Y-103865000D01*
X109085000Y-103915001D01*
X109113998Y-103938799D01*
X111410231Y-106235032D01*
X111374482Y-106224188D01*
X111250000Y-106211928D01*
X108750000Y-106211928D01*
X108625518Y-106224188D01*
X108505820Y-106260498D01*
X108395506Y-106319463D01*
X108375000Y-106336292D01*
X108354494Y-106319463D01*
X108244180Y-106260498D01*
X108124482Y-106224188D01*
X108000000Y-106211928D01*
X105951730Y-106211928D01*
X104193048Y-104453247D01*
X104362250Y-104450500D01*
X104521000Y-104291750D01*
X104521000Y-103505000D01*
X104775000Y-103505000D01*
X104775000Y-104291750D01*
X104933750Y-104450500D01*
X105123000Y-104453572D01*
X105247482Y-104441312D01*
X105367180Y-104405002D01*
X105477494Y-104346037D01*
X105574185Y-104266685D01*
X105653537Y-104169994D01*
X105712502Y-104059680D01*
X105748812Y-103939982D01*
X105761072Y-103815500D01*
X105758000Y-103663750D01*
X105599250Y-103505000D01*
X104775000Y-103505000D01*
X104521000Y-103505000D01*
X104501000Y-103505000D01*
X104501000Y-103325510D01*
X107147168Y-103325510D01*
X107184490Y-103329186D01*
X107221812Y-103325510D01*
X107221823Y-103325510D01*
X107333476Y-103314513D01*
X107476737Y-103271056D01*
X107608766Y-103200484D01*
X107724491Y-103105511D01*
X107748293Y-103076508D01*
X108865001Y-101959802D01*
X108865001Y-103337668D01*
G36*
X102602000Y-101143000D02*
G01*
X102622000Y-101143000D01*
X102622000Y-101397000D01*
X102602000Y-101397000D01*
X102602000Y-101417000D01*
X102348000Y-101417000D01*
X102348000Y-101397000D01*
X102328000Y-101397000D01*
X102328000Y-101143000D01*
X102348000Y-101143000D01*
X102348000Y-101123000D01*
X102602000Y-101123000D01*
X102602000Y-101143000D01*
G37*
X102602000Y-101143000D02*
X102622000Y-101143000D01*
X102622000Y-101397000D01*
X102602000Y-101397000D01*
X102602000Y-101417000D01*
X102348000Y-101417000D01*
X102348000Y-101397000D01*
X102328000Y-101397000D01*
X102328000Y-101143000D01*
X102348000Y-101143000D01*
X102348000Y-101123000D01*
X102602000Y-101123000D01*
X102602000Y-101143000D01*
G36*
X104994725Y-94682671D02*
G01*
X105142858Y-94761850D01*
X105303592Y-94810608D01*
X105470750Y-94827072D01*
X105908250Y-94827072D01*
X106075408Y-94810608D01*
X106236142Y-94761850D01*
X106351101Y-94700403D01*
X107990001Y-96339303D01*
X107990001Y-98383928D01*
X105020000Y-98383928D01*
X104846746Y-98400992D01*
X104680150Y-98451528D01*
X104526614Y-98533595D01*
X104392038Y-98644038D01*
X104281595Y-98778614D01*
X104199528Y-98932150D01*
X104148992Y-99098746D01*
X104135080Y-99240000D01*
X103996859Y-99240000D01*
X104028084Y-99181582D01*
X104072929Y-99033745D01*
X104088072Y-98880000D01*
X104088072Y-98580000D01*
X104072929Y-98426255D01*
X104028084Y-98278418D01*
X103955258Y-98142171D01*
X103916546Y-98095000D01*
X103955258Y-98047829D01*
X104028084Y-97911582D01*
X104072929Y-97763745D01*
X104088072Y-97610000D01*
X104088072Y-97310000D01*
X104072929Y-97156255D01*
X104028084Y-97008418D01*
X103955258Y-96872171D01*
X103916546Y-96825000D01*
X103955258Y-96777829D01*
X104028084Y-96641582D01*
X104072929Y-96493745D01*
X104088072Y-96340000D01*
X104088072Y-96040000D01*
X104072929Y-95886255D01*
X104028084Y-95738418D01*
X103955258Y-95602171D01*
X103857251Y-95482749D01*
X103737829Y-95384742D01*
X103601582Y-95311916D01*
X103593759Y-95309543D01*
X104076230Y-94827072D01*
X104333250Y-94827072D01*
X104500408Y-94810608D01*
X104661142Y-94761850D01*
X104809275Y-94682671D01*
X104902000Y-94606574D01*
X104994725Y-94682671D01*
G37*
X104994725Y-94682671D02*
X105142858Y-94761850D01*
X105303592Y-94810608D01*
X105470750Y-94827072D01*
X105908250Y-94827072D01*
X106075408Y-94810608D01*
X106236142Y-94761850D01*
X106351101Y-94700403D01*
X107990001Y-96339303D01*
X107990001Y-98383928D01*
X105020000Y-98383928D01*
X104846746Y-98400992D01*
X104680150Y-98451528D01*
X104526614Y-98533595D01*
X104392038Y-98644038D01*
X104281595Y-98778614D01*
X104199528Y-98932150D01*
X104148992Y-99098746D01*
X104135080Y-99240000D01*
X103996859Y-99240000D01*
X104028084Y-99181582D01*
X104072929Y-99033745D01*
X104088072Y-98880000D01*
X104088072Y-98580000D01*
X104072929Y-98426255D01*
X104028084Y-98278418D01*
X103955258Y-98142171D01*
X103916546Y-98095000D01*
X103955258Y-98047829D01*
X104028084Y-97911582D01*
X104072929Y-97763745D01*
X104088072Y-97610000D01*
X104088072Y-97310000D01*
X104072929Y-97156255D01*
X104028084Y-97008418D01*
X103955258Y-96872171D01*
X103916546Y-96825000D01*
X103955258Y-96777829D01*
X104028084Y-96641582D01*
X104072929Y-96493745D01*
X104088072Y-96340000D01*
X104088072Y-96040000D01*
X104072929Y-95886255D01*
X104028084Y-95738418D01*
X103955258Y-95602171D01*
X103857251Y-95482749D01*
X103737829Y-95384742D01*
X103601582Y-95311916D01*
X103593759Y-95309543D01*
X104076230Y-94827072D01*
X104333250Y-94827072D01*
X104500408Y-94810608D01*
X104661142Y-94761850D01*
X104809275Y-94682671D01*
X104902000Y-94606574D01*
X104994725Y-94682671D01*
G36*
X96765000Y-94739803D02*
G01*
X96765000Y-94762332D01*
X96765001Y-94762342D01*
X96765001Y-95251928D01*
X96700000Y-95251928D01*
X96546255Y-95267071D01*
X96398418Y-95311916D01*
X96262171Y-95384742D01*
X96142749Y-95482749D01*
X96044742Y-95602171D01*
X95971916Y-95738418D01*
X95927071Y-95886255D01*
X95911928Y-96040000D01*
X95911928Y-96340000D01*
X95927071Y-96493745D01*
X95971916Y-96641582D01*
X96044742Y-96777829D01*
X96083454Y-96825000D01*
X96044742Y-96872171D01*
X95971916Y-97008418D01*
X95932653Y-97137852D01*
X93217072Y-94422271D01*
X93217072Y-93609000D01*
X93200008Y-93435746D01*
X93149472Y-93269150D01*
X93067405Y-93115614D01*
X92956962Y-92981038D01*
X92936201Y-92964000D01*
X92956962Y-92946962D01*
X93067405Y-92812386D01*
X93149472Y-92658850D01*
X93200008Y-92492254D01*
X93217072Y-92319000D01*
X93217072Y-91191873D01*
X96765000Y-94739803D01*
G37*
X96765000Y-94739803D02*
X96765000Y-94762332D01*
X96765001Y-94762342D01*
X96765001Y-95251928D01*
X96700000Y-95251928D01*
X96546255Y-95267071D01*
X96398418Y-95311916D01*
X96262171Y-95384742D01*
X96142749Y-95482749D01*
X96044742Y-95602171D01*
X95971916Y-95738418D01*
X95927071Y-95886255D01*
X95911928Y-96040000D01*
X95911928Y-96340000D01*
X95927071Y-96493745D01*
X95971916Y-96641582D01*
X96044742Y-96777829D01*
X96083454Y-96825000D01*
X96044742Y-96872171D01*
X95971916Y-97008418D01*
X95932653Y-97137852D01*
X93217072Y-94422271D01*
X93217072Y-93609000D01*
X93200008Y-93435746D01*
X93149472Y-93269150D01*
X93067405Y-93115614D01*
X92956962Y-92981038D01*
X92936201Y-92964000D01*
X92956962Y-92946962D01*
X93067405Y-92812386D01*
X93149472Y-92658850D01*
X93200008Y-92492254D01*
X93217072Y-92319000D01*
X93217072Y-91191873D01*
X96765000Y-94739803D01*
G36*
X108865000Y-92922309D02*
G01*
X108865000Y-95064698D01*
X106656167Y-92855866D01*
X106699850Y-92774142D01*
X106748608Y-92613408D01*
X106765072Y-92446250D01*
X106765072Y-91933750D01*
X106748608Y-91766592D01*
X106699850Y-91605858D01*
X106620671Y-91457725D01*
X106514115Y-91327885D01*
X106395429Y-91230483D01*
X106438503Y-91088486D01*
X106449500Y-90976833D01*
X106449500Y-90976824D01*
X106453176Y-90939501D01*
X106449500Y-90902178D01*
X106449500Y-90831143D01*
X106514115Y-90778115D01*
X106607282Y-90664590D01*
X108865000Y-92922309D01*
G37*
X108865000Y-92922309D02*
X108865000Y-95064698D01*
X106656167Y-92855866D01*
X106699850Y-92774142D01*
X106748608Y-92613408D01*
X106765072Y-92446250D01*
X106765072Y-91933750D01*
X106748608Y-91766592D01*
X106699850Y-91605858D01*
X106620671Y-91457725D01*
X106514115Y-91327885D01*
X106395429Y-91230483D01*
X106438503Y-91088486D01*
X106449500Y-90976833D01*
X106449500Y-90976824D01*
X106453176Y-90939501D01*
X106449500Y-90902178D01*
X106449500Y-90831143D01*
X106514115Y-90778115D01*
X106607282Y-90664590D01*
X108865000Y-92922309D01*
G36*
X93924201Y-77082886D02*
G01*
X94117114Y-77275799D01*
X94343957Y-77427371D01*
X94596011Y-77531775D01*
X94863589Y-77585000D01*
X95136411Y-77585000D01*
X95403989Y-77531775D01*
X95656043Y-77427371D01*
X95882886Y-77275799D01*
X96000000Y-77158685D01*
X96117114Y-77275799D01*
X96240001Y-77357909D01*
X96240001Y-78118668D01*
X96236324Y-78156000D01*
X96250998Y-78304985D01*
X96294454Y-78448246D01*
X96365026Y-78580276D01*
X96406778Y-78631150D01*
X96460000Y-78696001D01*
X96488998Y-78719799D01*
X97735997Y-79966799D01*
X97736002Y-79966803D01*
X99535996Y-81766799D01*
X99536007Y-81766808D01*
X99926196Y-82156997D01*
X99949999Y-82186001D01*
X100062400Y-82278246D01*
X100065724Y-82280974D01*
X100197753Y-82351546D01*
X100341014Y-82395003D01*
X100490000Y-82409677D01*
X100527333Y-82406000D01*
X103206082Y-82406000D01*
X103207723Y-82408000D01*
X103183329Y-82437725D01*
X103104150Y-82585858D01*
X103055392Y-82746592D01*
X103038928Y-82913750D01*
X103038928Y-83426250D01*
X103055056Y-83590001D01*
X101887332Y-83590001D01*
X101849999Y-83586324D01*
X101812666Y-83590001D01*
X101701013Y-83600998D01*
X101557752Y-83644455D01*
X101425723Y-83715027D01*
X101309998Y-83810000D01*
X101286200Y-83838998D01*
X97139003Y-87986196D01*
X97109999Y-88009999D01*
X97054871Y-88077174D01*
X97015026Y-88125724D01*
X97011669Y-88132005D01*
X96944454Y-88257754D01*
X96900997Y-88401015D01*
X96890000Y-88512668D01*
X96890000Y-88512678D01*
X96886324Y-88550000D01*
X96890000Y-88587323D01*
X96890001Y-90921288D01*
X96846063Y-90965226D01*
X96732795Y-91134744D01*
X96654774Y-91323102D01*
X96615000Y-91523061D01*
X96615000Y-91726939D01*
X96654774Y-91926898D01*
X96732795Y-92115256D01*
X96846063Y-92284774D01*
X96990226Y-92428937D01*
X97159744Y-92542205D01*
X97348102Y-92620226D01*
X97548061Y-92660000D01*
X97751939Y-92660000D01*
X97951898Y-92620226D01*
X98140256Y-92542205D01*
X98309774Y-92428937D01*
X98453937Y-92284774D01*
X98567205Y-92115256D01*
X98645226Y-91926898D01*
X98685000Y-91726939D01*
X98685000Y-91523061D01*
X98645226Y-91323102D01*
X98567205Y-91134744D01*
X98453937Y-90965226D01*
X98410000Y-90921289D01*
X98410000Y-88864801D01*
X102164801Y-85110001D01*
X103038928Y-85110001D01*
X103038928Y-85600250D01*
X103055392Y-85767408D01*
X103104150Y-85928142D01*
X103183329Y-86076275D01*
X103207723Y-86106000D01*
X103183329Y-86135725D01*
X103104150Y-86283858D01*
X103055392Y-86444592D01*
X103038928Y-86611750D01*
X103038928Y-87124250D01*
X103055392Y-87291408D01*
X103104150Y-87452142D01*
X103183329Y-87600275D01*
X103207723Y-87630000D01*
X103183329Y-87659725D01*
X103104150Y-87807858D01*
X103055392Y-87968592D01*
X103038928Y-88135750D01*
X103038928Y-88648250D01*
X103055392Y-88815408D01*
X103104150Y-88976142D01*
X103183329Y-89124275D01*
X103207723Y-89154000D01*
X103183329Y-89183725D01*
X103104150Y-89331858D01*
X103055392Y-89492592D01*
X103038928Y-89659750D01*
X103038928Y-89916770D01*
X99571297Y-93384402D01*
X99485474Y-93430276D01*
X99485472Y-93430277D01*
X99485473Y-93430277D01*
X99398746Y-93501451D01*
X99398742Y-93501455D01*
X99369749Y-93525249D01*
X99345955Y-93554242D01*
X98947698Y-93952500D01*
X98885561Y-93952500D01*
X98685602Y-93992274D01*
X98497244Y-94070295D01*
X98327726Y-94183563D01*
X98264989Y-94246300D01*
X98230546Y-94132753D01*
X98159974Y-94000724D01*
X98134965Y-93970250D01*
X98088799Y-93913996D01*
X98088795Y-93913992D01*
X98065001Y-93884999D01*
X98036008Y-93861205D01*
X93983630Y-89808828D01*
X93985000Y-89801939D01*
X93985000Y-89598061D01*
X93945226Y-89398102D01*
X93867205Y-89209744D01*
X93753937Y-89040226D01*
X93609774Y-88896063D01*
X93440256Y-88782795D01*
X93251898Y-88704774D01*
X93051939Y-88665000D01*
X92848061Y-88665000D01*
X92714000Y-88691666D01*
X92714000Y-77604801D01*
X93358802Y-76960000D01*
X93842091Y-76960000D01*
X93924201Y-77082886D01*
G37*
X93924201Y-77082886D02*
X94117114Y-77275799D01*
X94343957Y-77427371D01*
X94596011Y-77531775D01*
X94863589Y-77585000D01*
X95136411Y-77585000D01*
X95403989Y-77531775D01*
X95656043Y-77427371D01*
X95882886Y-77275799D01*
X96000000Y-77158685D01*
X96117114Y-77275799D01*
X96240001Y-77357909D01*
X96240001Y-78118668D01*
X96236324Y-78156000D01*
X96250998Y-78304985D01*
X96294454Y-78448246D01*
X96365026Y-78580276D01*
X96406778Y-78631150D01*
X96460000Y-78696001D01*
X96488998Y-78719799D01*
X97735997Y-79966799D01*
X97736002Y-79966803D01*
X99535996Y-81766799D01*
X99536007Y-81766808D01*
X99926196Y-82156997D01*
X99949999Y-82186001D01*
X100062400Y-82278246D01*
X100065724Y-82280974D01*
X100197753Y-82351546D01*
X100341014Y-82395003D01*
X100490000Y-82409677D01*
X100527333Y-82406000D01*
X103206082Y-82406000D01*
X103207723Y-82408000D01*
X103183329Y-82437725D01*
X103104150Y-82585858D01*
X103055392Y-82746592D01*
X103038928Y-82913750D01*
X103038928Y-83426250D01*
X103055056Y-83590001D01*
X101887332Y-83590001D01*
X101849999Y-83586324D01*
X101812666Y-83590001D01*
X101701013Y-83600998D01*
X101557752Y-83644455D01*
X101425723Y-83715027D01*
X101309998Y-83810000D01*
X101286200Y-83838998D01*
X97139003Y-87986196D01*
X97109999Y-88009999D01*
X97054871Y-88077174D01*
X97015026Y-88125724D01*
X97011669Y-88132005D01*
X96944454Y-88257754D01*
X96900997Y-88401015D01*
X96890000Y-88512668D01*
X96890000Y-88512678D01*
X96886324Y-88550000D01*
X96890000Y-88587323D01*
X96890001Y-90921288D01*
X96846063Y-90965226D01*
X96732795Y-91134744D01*
X96654774Y-91323102D01*
X96615000Y-91523061D01*
X96615000Y-91726939D01*
X96654774Y-91926898D01*
X96732795Y-92115256D01*
X96846063Y-92284774D01*
X96990226Y-92428937D01*
X97159744Y-92542205D01*
X97348102Y-92620226D01*
X97548061Y-92660000D01*
X97751939Y-92660000D01*
X97951898Y-92620226D01*
X98140256Y-92542205D01*
X98309774Y-92428937D01*
X98453937Y-92284774D01*
X98567205Y-92115256D01*
X98645226Y-91926898D01*
X98685000Y-91726939D01*
X98685000Y-91523061D01*
X98645226Y-91323102D01*
X98567205Y-91134744D01*
X98453937Y-90965226D01*
X98410000Y-90921289D01*
X98410000Y-88864801D01*
X102164801Y-85110001D01*
X103038928Y-85110001D01*
X103038928Y-85600250D01*
X103055392Y-85767408D01*
X103104150Y-85928142D01*
X103183329Y-86076275D01*
X103207723Y-86106000D01*
X103183329Y-86135725D01*
X103104150Y-86283858D01*
X103055392Y-86444592D01*
X103038928Y-86611750D01*
X103038928Y-87124250D01*
X103055392Y-87291408D01*
X103104150Y-87452142D01*
X103183329Y-87600275D01*
X103207723Y-87630000D01*
X103183329Y-87659725D01*
X103104150Y-87807858D01*
X103055392Y-87968592D01*
X103038928Y-88135750D01*
X103038928Y-88648250D01*
X103055392Y-88815408D01*
X103104150Y-88976142D01*
X103183329Y-89124275D01*
X103207723Y-89154000D01*
X103183329Y-89183725D01*
X103104150Y-89331858D01*
X103055392Y-89492592D01*
X103038928Y-89659750D01*
X103038928Y-89916770D01*
X99571297Y-93384402D01*
X99485474Y-93430276D01*
X99485472Y-93430277D01*
X99485473Y-93430277D01*
X99398746Y-93501451D01*
X99398742Y-93501455D01*
X99369749Y-93525249D01*
X99345955Y-93554242D01*
X98947698Y-93952500D01*
X98885561Y-93952500D01*
X98685602Y-93992274D01*
X98497244Y-94070295D01*
X98327726Y-94183563D01*
X98264989Y-94246300D01*
X98230546Y-94132753D01*
X98159974Y-94000724D01*
X98134965Y-93970250D01*
X98088799Y-93913996D01*
X98088795Y-93913992D01*
X98065001Y-93884999D01*
X98036008Y-93861205D01*
X93983630Y-89808828D01*
X93985000Y-89801939D01*
X93985000Y-89598061D01*
X93945226Y-89398102D01*
X93867205Y-89209744D01*
X93753937Y-89040226D01*
X93609774Y-88896063D01*
X93440256Y-88782795D01*
X93251898Y-88704774D01*
X93051939Y-88665000D01*
X92848061Y-88665000D01*
X92714000Y-88691666D01*
X92714000Y-77604801D01*
X93358802Y-76960000D01*
X93842091Y-76960000D01*
X93924201Y-77082886D01*
G36*
X100117114Y-77275799D02*
G01*
X100341040Y-77425422D01*
X100365026Y-77470296D01*
X100436201Y-77557022D01*
X100460000Y-77586021D01*
X100488998Y-77609819D01*
X103508862Y-80629684D01*
X103419725Y-80677329D01*
X103289885Y-80783885D01*
X103206082Y-80886000D01*
X100804801Y-80886000D01*
X100610808Y-80692007D01*
X100610799Y-80691996D01*
X98810803Y-78892002D01*
X98810799Y-78891997D01*
X97760000Y-77841199D01*
X97760000Y-77357909D01*
X97882886Y-77275799D01*
X98000000Y-77158685D01*
X98117114Y-77275799D01*
X98343957Y-77427371D01*
X98596011Y-77531775D01*
X98863589Y-77585000D01*
X99136411Y-77585000D01*
X99403989Y-77531775D01*
X99656043Y-77427371D01*
X99882886Y-77275799D01*
X100000000Y-77158685D01*
X100117114Y-77275799D01*
G37*
X100117114Y-77275799D02*
X100341040Y-77425422D01*
X100365026Y-77470296D01*
X100436201Y-77557022D01*
X100460000Y-77586021D01*
X100488998Y-77609819D01*
X103508862Y-80629684D01*
X103419725Y-80677329D01*
X103289885Y-80783885D01*
X103206082Y-80886000D01*
X100804801Y-80886000D01*
X100610808Y-80692007D01*
X100610799Y-80691996D01*
X98810803Y-78892002D01*
X98810799Y-78891997D01*
X97760000Y-77841199D01*
X97760000Y-77357909D01*
X97882886Y-77275799D01*
X98000000Y-77158685D01*
X98117114Y-77275799D01*
X98343957Y-77427371D01*
X98596011Y-77531775D01*
X98863589Y-77585000D01*
X99136411Y-77585000D01*
X99403989Y-77531775D01*
X99656043Y-77427371D01*
X99882886Y-77275799D01*
X100000000Y-77158685D01*
X100117114Y-77275799D01*
%TD*%
M02*
