%TF.GenerationSoftware,KiCad,Pcbnew,5.1.7-a382d34a8~88~ubuntu18.04.1*%
%TF.CreationDate,2022-04-19T18:24:53-07:00*%
%TF.ProjectId,cv-extractor,63762d65-7874-4726-9163-746f722e6b69,rev?*%
%TF.SameCoordinates,Original*%
%TF.FileFunction,Soldermask,Bot*%
%TF.FilePolarity,Negative*%
%FSLAX46Y46*%
G04 Gerber Fmt 4.6, Leading zero omitted, Abs format (unit mm)*
G04 Created by KiCad (PCBNEW 5.1.7-a382d34a8~88~ubuntu18.04.1) date 2022-04-19 18:24:53*
%MOMM*%
%LPD*%
G01*
G04 APERTURE LIST*
%ADD10C,3.600000*%
%ADD11C,1.600000*%
%ADD12C,1.700000*%
%ADD13C,1.700200*%
%ADD14C,0.100000*%
%ADD15C,3.300000*%
G04 APERTURE END LIST*
D10*
%TO.C,J2*%
X100000000Y-103750000D03*
G36*
G01*
X101050000Y-108170000D02*
X101050000Y-109170000D01*
G75*
G02*
X101000000Y-109220000I-50000J0D01*
G01*
X99000000Y-109220000D01*
G75*
G02*
X98950000Y-109170000I0J50000D01*
G01*
X98950000Y-108170000D01*
G75*
G02*
X99000000Y-108120000I50000J0D01*
G01*
X101000000Y-108120000D01*
G75*
G02*
X101050000Y-108170000I0J-50000D01*
G01*
G37*
G36*
G01*
X101050000Y-99870000D02*
X101050000Y-100870000D01*
G75*
G02*
X101000000Y-100920000I-50000J0D01*
G01*
X99000000Y-100920000D01*
G75*
G02*
X98950000Y-100870000I0J50000D01*
G01*
X98950000Y-99870000D01*
G75*
G02*
X99000000Y-99820000I50000J0D01*
G01*
X101000000Y-99820000D01*
G75*
G02*
X101050000Y-99870000I0J-50000D01*
G01*
G37*
G36*
G01*
X101050000Y-96770000D02*
X101050000Y-97770000D01*
G75*
G02*
X101000000Y-97820000I-50000J0D01*
G01*
X99000000Y-97820000D01*
G75*
G02*
X98950000Y-97770000I0J50000D01*
G01*
X98950000Y-96770000D01*
G75*
G02*
X99000000Y-96720000I50000J0D01*
G01*
X101000000Y-96720000D01*
G75*
G02*
X101050000Y-96770000I0J-50000D01*
G01*
G37*
%TD*%
%TO.C,J1*%
X100000000Y-27500000D03*
G36*
G01*
X101050000Y-31920000D02*
X101050000Y-32920000D01*
G75*
G02*
X101000000Y-32970000I-50000J0D01*
G01*
X99000000Y-32970000D01*
G75*
G02*
X98950000Y-32920000I0J50000D01*
G01*
X98950000Y-31920000D01*
G75*
G02*
X99000000Y-31870000I50000J0D01*
G01*
X101000000Y-31870000D01*
G75*
G02*
X101050000Y-31920000I0J-50000D01*
G01*
G37*
G36*
G01*
X101050000Y-23620000D02*
X101050000Y-24620000D01*
G75*
G02*
X101000000Y-24670000I-50000J0D01*
G01*
X99000000Y-24670000D01*
G75*
G02*
X98950000Y-24620000I0J50000D01*
G01*
X98950000Y-23620000D01*
G75*
G02*
X99000000Y-23570000I50000J0D01*
G01*
X101000000Y-23570000D01*
G75*
G02*
X101050000Y-23620000I0J-50000D01*
G01*
G37*
G36*
G01*
X101050000Y-20520000D02*
X101050000Y-21520000D01*
G75*
G02*
X101000000Y-21570000I-50000J0D01*
G01*
X99000000Y-21570000D01*
G75*
G02*
X98950000Y-21520000I0J50000D01*
G01*
X98950000Y-20520000D01*
G75*
G02*
X99000000Y-20470000I50000J0D01*
G01*
X101000000Y-20470000D01*
G75*
G02*
X101050000Y-20520000I0J-50000D01*
G01*
G37*
%TD*%
%TO.C,RV1*%
G36*
G01*
X106600000Y-72400000D02*
X106600000Y-68700000D01*
G75*
G02*
X106650000Y-68650000I50000J0D01*
G01*
X108650000Y-68650000D01*
G75*
G02*
X108700000Y-68700000I0J-50000D01*
G01*
X108700000Y-72400000D01*
G75*
G02*
X108650000Y-72450000I-50000J0D01*
G01*
X106650000Y-72450000D01*
G75*
G02*
X106600000Y-72400000I0J50000D01*
G01*
G37*
D11*
X105000000Y-80550000D03*
X103000000Y-80550000D03*
X101000000Y-80550000D03*
X99000000Y-80550000D03*
X97000000Y-80550000D03*
X95000000Y-80550000D03*
G36*
G01*
X91300000Y-72400000D02*
X91300000Y-68700000D01*
G75*
G02*
X91350000Y-68650000I50000J0D01*
G01*
X93350000Y-68650000D01*
G75*
G02*
X93400000Y-68700000I0J-50000D01*
G01*
X93400000Y-72400000D01*
G75*
G02*
X93350000Y-72450000I-50000J0D01*
G01*
X91350000Y-72450000D01*
G75*
G02*
X91300000Y-72400000I0J50000D01*
G01*
G37*
%TD*%
%TO.C,D1*%
G36*
G01*
X104950000Y-84875000D02*
X104950000Y-84375000D01*
G75*
G02*
X105000000Y-84325000I50000J0D01*
G01*
X105500000Y-84325000D01*
G75*
G02*
X105550000Y-84375000I0J-50000D01*
G01*
X105550000Y-84875000D01*
G75*
G02*
X105500000Y-84925000I-50000J0D01*
G01*
X105000000Y-84925000D01*
G75*
G02*
X104950000Y-84875000I0J50000D01*
G01*
G37*
G36*
G01*
X102750000Y-84875000D02*
X102750000Y-84375000D01*
G75*
G02*
X102800000Y-84325000I50000J0D01*
G01*
X103300000Y-84325000D01*
G75*
G02*
X103350000Y-84375000I0J-50000D01*
G01*
X103350000Y-84875000D01*
G75*
G02*
X103300000Y-84925000I-50000J0D01*
G01*
X102800000Y-84925000D01*
G75*
G02*
X102750000Y-84875000I0J50000D01*
G01*
G37*
%TD*%
%TO.C,D2*%
G36*
G01*
X108275000Y-84850000D02*
X108275000Y-84350000D01*
G75*
G02*
X108325000Y-84300000I50000J0D01*
G01*
X108825000Y-84300000D01*
G75*
G02*
X108875000Y-84350000I0J-50000D01*
G01*
X108875000Y-84850000D01*
G75*
G02*
X108825000Y-84900000I-50000J0D01*
G01*
X108325000Y-84900000D01*
G75*
G02*
X108275000Y-84850000I0J50000D01*
G01*
G37*
G36*
G01*
X106075000Y-84850000D02*
X106075000Y-84350000D01*
G75*
G02*
X106125000Y-84300000I50000J0D01*
G01*
X106625000Y-84300000D01*
G75*
G02*
X106675000Y-84350000I0J-50000D01*
G01*
X106675000Y-84850000D01*
G75*
G02*
X106625000Y-84900000I-50000J0D01*
G01*
X106125000Y-84900000D01*
G75*
G02*
X106075000Y-84850000I0J50000D01*
G01*
G37*
%TD*%
%TO.C,TP4*%
G36*
G01*
X86300000Y-40700000D02*
X86300000Y-38700000D01*
G75*
G02*
X86350000Y-38650000I50000J0D01*
G01*
X90650000Y-38650000D01*
G75*
G02*
X90700000Y-38700000I0J-50000D01*
G01*
X90700000Y-40700000D01*
G75*
G02*
X90650000Y-40750000I-50000J0D01*
G01*
X86350000Y-40750000D01*
G75*
G02*
X86300000Y-40700000I0J50000D01*
G01*
G37*
%TD*%
%TO.C,TP2*%
G36*
G01*
X86300000Y-55800000D02*
X86300000Y-53800000D01*
G75*
G02*
X86350000Y-53750000I50000J0D01*
G01*
X90650000Y-53750000D01*
G75*
G02*
X90700000Y-53800000I0J-50000D01*
G01*
X90700000Y-55800000D01*
G75*
G02*
X90650000Y-55850000I-50000J0D01*
G01*
X86350000Y-55850000D01*
G75*
G02*
X86300000Y-55800000I0J50000D01*
G01*
G37*
%TD*%
%TO.C,TP3*%
G36*
G01*
X86300000Y-52800000D02*
X86300000Y-50800000D01*
G75*
G02*
X86350000Y-50750000I50000J0D01*
G01*
X90650000Y-50750000D01*
G75*
G02*
X90700000Y-50800000I0J-50000D01*
G01*
X90700000Y-52800000D01*
G75*
G02*
X90650000Y-52850000I-50000J0D01*
G01*
X86350000Y-52850000D01*
G75*
G02*
X86300000Y-52800000I0J50000D01*
G01*
G37*
%TD*%
%TO.C,TP1*%
G36*
G01*
X86300000Y-47700000D02*
X86300000Y-45700000D01*
G75*
G02*
X86350000Y-45650000I50000J0D01*
G01*
X90650000Y-45650000D01*
G75*
G02*
X90700000Y-45700000I0J-50000D01*
G01*
X90700000Y-47700000D01*
G75*
G02*
X90650000Y-47750000I-50000J0D01*
G01*
X86350000Y-47750000D01*
G75*
G02*
X86300000Y-47700000I0J50000D01*
G01*
G37*
%TD*%
%TO.C,C6*%
G36*
G01*
X100050000Y-72825000D02*
X100050000Y-73375000D01*
G75*
G02*
X99800000Y-73625000I-250000J0D01*
G01*
X99300000Y-73625000D01*
G75*
G02*
X99050000Y-73375000I0J250000D01*
G01*
X99050000Y-72825000D01*
G75*
G02*
X99300000Y-72575000I250000J0D01*
G01*
X99800000Y-72575000D01*
G75*
G02*
X100050000Y-72825000I0J-250000D01*
G01*
G37*
G36*
G01*
X101600000Y-72825000D02*
X101600000Y-73375000D01*
G75*
G02*
X101350000Y-73625000I-250000J0D01*
G01*
X100850000Y-73625000D01*
G75*
G02*
X100600000Y-73375000I0J250000D01*
G01*
X100600000Y-72825000D01*
G75*
G02*
X100850000Y-72575000I250000J0D01*
G01*
X101350000Y-72575000D01*
G75*
G02*
X101600000Y-72825000I0J-250000D01*
G01*
G37*
%TD*%
%TO.C,C1*%
G36*
G01*
X106175000Y-78975000D02*
X106175000Y-78425000D01*
G75*
G02*
X106425000Y-78175000I250000J0D01*
G01*
X106925000Y-78175000D01*
G75*
G02*
X107175000Y-78425000I0J-250000D01*
G01*
X107175000Y-78975000D01*
G75*
G02*
X106925000Y-79225000I-250000J0D01*
G01*
X106425000Y-79225000D01*
G75*
G02*
X106175000Y-78975000I0J250000D01*
G01*
G37*
G36*
G01*
X104625000Y-78975000D02*
X104625000Y-78425000D01*
G75*
G02*
X104875000Y-78175000I250000J0D01*
G01*
X105375000Y-78175000D01*
G75*
G02*
X105625000Y-78425000I0J-250000D01*
G01*
X105625000Y-78975000D01*
G75*
G02*
X105375000Y-79225000I-250000J0D01*
G01*
X104875000Y-79225000D01*
G75*
G02*
X104625000Y-78975000I0J250000D01*
G01*
G37*
%TD*%
%TO.C,C8*%
G36*
G01*
X94775000Y-97309375D02*
X94775000Y-96140625D01*
G75*
G02*
X95040625Y-95875000I265625J0D01*
G01*
X98109375Y-95875000D01*
G75*
G02*
X98375000Y-96140625I0J-265625D01*
G01*
X98375000Y-97309375D01*
G75*
G02*
X98109375Y-97575000I-265625J0D01*
G01*
X95040625Y-97575000D01*
G75*
G02*
X94775000Y-97309375I0J265625D01*
G01*
G37*
G36*
G01*
X89375000Y-97309375D02*
X89375000Y-96140625D01*
G75*
G02*
X89640625Y-95875000I265625J0D01*
G01*
X92709375Y-95875000D01*
G75*
G02*
X92975000Y-96140625I0J-265625D01*
G01*
X92975000Y-97309375D01*
G75*
G02*
X92709375Y-97575000I-265625J0D01*
G01*
X89640625Y-97575000D01*
G75*
G02*
X89375000Y-97309375I0J265625D01*
G01*
G37*
%TD*%
%TO.C,RV2*%
G36*
G01*
X103500000Y-41450000D02*
X103500000Y-37950000D01*
G75*
G02*
X103550000Y-37900000I50000J0D01*
G01*
X107050000Y-37900000D01*
G75*
G02*
X107100000Y-37950000I0J-50000D01*
G01*
X107100000Y-41450000D01*
G75*
G02*
X107050000Y-41500000I-50000J0D01*
G01*
X103550000Y-41500000D01*
G75*
G02*
X103500000Y-41450000I0J50000D01*
G01*
G37*
D12*
X100000000Y-46700000D03*
X102500000Y-46700000D03*
X97500000Y-46700000D03*
G36*
G01*
X92900000Y-41450000D02*
X92900000Y-37950000D01*
G75*
G02*
X92950000Y-37900000I50000J0D01*
G01*
X96450000Y-37900000D01*
G75*
G02*
X96500000Y-37950000I0J-50000D01*
G01*
X96500000Y-41450000D01*
G75*
G02*
X96450000Y-41500000I-50000J0D01*
G01*
X92950000Y-41500000D01*
G75*
G02*
X92900000Y-41450000I0J50000D01*
G01*
G37*
%TD*%
%TO.C,C9*%
G36*
G01*
X100500000Y-84550000D02*
X100500000Y-85100000D01*
G75*
G02*
X100250000Y-85350000I-250000J0D01*
G01*
X99750000Y-85350000D01*
G75*
G02*
X99500000Y-85100000I0J250000D01*
G01*
X99500000Y-84550000D01*
G75*
G02*
X99750000Y-84300000I250000J0D01*
G01*
X100250000Y-84300000D01*
G75*
G02*
X100500000Y-84550000I0J-250000D01*
G01*
G37*
G36*
G01*
X102050000Y-84550000D02*
X102050000Y-85100000D01*
G75*
G02*
X101800000Y-85350000I-250000J0D01*
G01*
X101300000Y-85350000D01*
G75*
G02*
X101050000Y-85100000I0J250000D01*
G01*
X101050000Y-84550000D01*
G75*
G02*
X101300000Y-84300000I250000J0D01*
G01*
X101800000Y-84300000D01*
G75*
G02*
X102050000Y-84550000I0J-250000D01*
G01*
G37*
%TD*%
%TO.C,C10*%
G36*
G01*
X101775000Y-94200000D02*
X101775000Y-93650000D01*
G75*
G02*
X102025000Y-93400000I250000J0D01*
G01*
X102525000Y-93400000D01*
G75*
G02*
X102775000Y-93650000I0J-250000D01*
G01*
X102775000Y-94200000D01*
G75*
G02*
X102525000Y-94450000I-250000J0D01*
G01*
X102025000Y-94450000D01*
G75*
G02*
X101775000Y-94200000I0J250000D01*
G01*
G37*
G36*
G01*
X100225000Y-94200000D02*
X100225000Y-93650000D01*
G75*
G02*
X100475000Y-93400000I250000J0D01*
G01*
X100975000Y-93400000D01*
G75*
G02*
X101225000Y-93650000I0J-250000D01*
G01*
X101225000Y-94200000D01*
G75*
G02*
X100975000Y-94450000I-250000J0D01*
G01*
X100475000Y-94450000D01*
G75*
G02*
X100225000Y-94200000I0J250000D01*
G01*
G37*
%TD*%
D13*
%TO.C,J3*%
X105080000Y-116270000D03*
X105080000Y-113730000D03*
X102540000Y-116270000D03*
X102540000Y-113730000D03*
X100000000Y-116270000D03*
X100000000Y-113730000D03*
X97460000Y-116270000D03*
X97460000Y-113730000D03*
X94920000Y-116270000D03*
X94920000Y-113730000D03*
%TD*%
%TO.C,R1*%
G36*
G01*
X112625000Y-87050000D02*
X112625000Y-86450000D01*
G75*
G02*
X112850000Y-86225000I225000J0D01*
G01*
X113300000Y-86225000D01*
G75*
G02*
X113525000Y-86450000I0J-225000D01*
G01*
X113525000Y-87050000D01*
G75*
G02*
X113300000Y-87275000I-225000J0D01*
G01*
X112850000Y-87275000D01*
G75*
G02*
X112625000Y-87050000I0J225000D01*
G01*
G37*
G36*
G01*
X110975000Y-87050000D02*
X110975000Y-86450000D01*
G75*
G02*
X111200000Y-86225000I225000J0D01*
G01*
X111650000Y-86225000D01*
G75*
G02*
X111875000Y-86450000I0J-225000D01*
G01*
X111875000Y-87050000D01*
G75*
G02*
X111650000Y-87275000I-225000J0D01*
G01*
X111200000Y-87275000D01*
G75*
G02*
X110975000Y-87050000I0J225000D01*
G01*
G37*
%TD*%
%TO.C,R2*%
G36*
G01*
X111875000Y-88200000D02*
X111875000Y-88800000D01*
G75*
G02*
X111650000Y-89025000I-225000J0D01*
G01*
X111200000Y-89025000D01*
G75*
G02*
X110975000Y-88800000I0J225000D01*
G01*
X110975000Y-88200000D01*
G75*
G02*
X111200000Y-87975000I225000J0D01*
G01*
X111650000Y-87975000D01*
G75*
G02*
X111875000Y-88200000I0J-225000D01*
G01*
G37*
G36*
G01*
X113525000Y-88200000D02*
X113525000Y-88800000D01*
G75*
G02*
X113300000Y-89025000I-225000J0D01*
G01*
X112850000Y-89025000D01*
G75*
G02*
X112625000Y-88800000I0J225000D01*
G01*
X112625000Y-88200000D01*
G75*
G02*
X112850000Y-87975000I225000J0D01*
G01*
X113300000Y-87975000D01*
G75*
G02*
X113525000Y-88200000I0J-225000D01*
G01*
G37*
%TD*%
%TO.C,R3*%
G36*
G01*
X111875000Y-89950000D02*
X111875000Y-90550000D01*
G75*
G02*
X111650000Y-90775000I-225000J0D01*
G01*
X111200000Y-90775000D01*
G75*
G02*
X110975000Y-90550000I0J225000D01*
G01*
X110975000Y-89950000D01*
G75*
G02*
X111200000Y-89725000I225000J0D01*
G01*
X111650000Y-89725000D01*
G75*
G02*
X111875000Y-89950000I0J-225000D01*
G01*
G37*
G36*
G01*
X113525000Y-89950000D02*
X113525000Y-90550000D01*
G75*
G02*
X113300000Y-90775000I-225000J0D01*
G01*
X112850000Y-90775000D01*
G75*
G02*
X112625000Y-90550000I0J225000D01*
G01*
X112625000Y-89950000D01*
G75*
G02*
X112850000Y-89725000I225000J0D01*
G01*
X113300000Y-89725000D01*
G75*
G02*
X113525000Y-89950000I0J-225000D01*
G01*
G37*
%TD*%
%TO.C,R4*%
G36*
G01*
X111875000Y-91700000D02*
X111875000Y-92300000D01*
G75*
G02*
X111650000Y-92525000I-225000J0D01*
G01*
X111200000Y-92525000D01*
G75*
G02*
X110975000Y-92300000I0J225000D01*
G01*
X110975000Y-91700000D01*
G75*
G02*
X111200000Y-91475000I225000J0D01*
G01*
X111650000Y-91475000D01*
G75*
G02*
X111875000Y-91700000I0J-225000D01*
G01*
G37*
G36*
G01*
X113525000Y-91700000D02*
X113525000Y-92300000D01*
G75*
G02*
X113300000Y-92525000I-225000J0D01*
G01*
X112850000Y-92525000D01*
G75*
G02*
X112625000Y-92300000I0J225000D01*
G01*
X112625000Y-91700000D01*
G75*
G02*
X112850000Y-91475000I225000J0D01*
G01*
X113300000Y-91475000D01*
G75*
G02*
X113525000Y-91700000I0J-225000D01*
G01*
G37*
%TD*%
%TO.C,R5*%
G36*
G01*
X111875000Y-93450000D02*
X111875000Y-94050000D01*
G75*
G02*
X111650000Y-94275000I-225000J0D01*
G01*
X111200000Y-94275000D01*
G75*
G02*
X110975000Y-94050000I0J225000D01*
G01*
X110975000Y-93450000D01*
G75*
G02*
X111200000Y-93225000I225000J0D01*
G01*
X111650000Y-93225000D01*
G75*
G02*
X111875000Y-93450000I0J-225000D01*
G01*
G37*
G36*
G01*
X113525000Y-93450000D02*
X113525000Y-94050000D01*
G75*
G02*
X113300000Y-94275000I-225000J0D01*
G01*
X112850000Y-94275000D01*
G75*
G02*
X112625000Y-94050000I0J225000D01*
G01*
X112625000Y-93450000D01*
G75*
G02*
X112850000Y-93225000I225000J0D01*
G01*
X113300000Y-93225000D01*
G75*
G02*
X113525000Y-93450000I0J-225000D01*
G01*
G37*
%TD*%
%TO.C,R6*%
G36*
G01*
X112625000Y-95800000D02*
X112625000Y-95200000D01*
G75*
G02*
X112850000Y-94975000I225000J0D01*
G01*
X113300000Y-94975000D01*
G75*
G02*
X113525000Y-95200000I0J-225000D01*
G01*
X113525000Y-95800000D01*
G75*
G02*
X113300000Y-96025000I-225000J0D01*
G01*
X112850000Y-96025000D01*
G75*
G02*
X112625000Y-95800000I0J225000D01*
G01*
G37*
G36*
G01*
X110975000Y-95800000D02*
X110975000Y-95200000D01*
G75*
G02*
X111200000Y-94975000I225000J0D01*
G01*
X111650000Y-94975000D01*
G75*
G02*
X111875000Y-95200000I0J-225000D01*
G01*
X111875000Y-95800000D01*
G75*
G02*
X111650000Y-96025000I-225000J0D01*
G01*
X111200000Y-96025000D01*
G75*
G02*
X110975000Y-95800000I0J225000D01*
G01*
G37*
%TD*%
%TO.C,R7*%
G36*
G01*
X100750000Y-76750000D02*
X100750000Y-76150000D01*
G75*
G02*
X100975000Y-75925000I225000J0D01*
G01*
X101425000Y-75925000D01*
G75*
G02*
X101650000Y-76150000I0J-225000D01*
G01*
X101650000Y-76750000D01*
G75*
G02*
X101425000Y-76975000I-225000J0D01*
G01*
X100975000Y-76975000D01*
G75*
G02*
X100750000Y-76750000I0J225000D01*
G01*
G37*
G36*
G01*
X99100000Y-76750000D02*
X99100000Y-76150000D01*
G75*
G02*
X99325000Y-75925000I225000J0D01*
G01*
X99775000Y-75925000D01*
G75*
G02*
X100000000Y-76150000I0J-225000D01*
G01*
X100000000Y-76750000D01*
G75*
G02*
X99775000Y-76975000I-225000J0D01*
G01*
X99325000Y-76975000D01*
G75*
G02*
X99100000Y-76750000I0J225000D01*
G01*
G37*
%TD*%
%TO.C,R8*%
G36*
G01*
X100750000Y-78325000D02*
X100750000Y-77725000D01*
G75*
G02*
X100975000Y-77500000I225000J0D01*
G01*
X101425000Y-77500000D01*
G75*
G02*
X101650000Y-77725000I0J-225000D01*
G01*
X101650000Y-78325000D01*
G75*
G02*
X101425000Y-78550000I-225000J0D01*
G01*
X100975000Y-78550000D01*
G75*
G02*
X100750000Y-78325000I0J225000D01*
G01*
G37*
G36*
G01*
X99100000Y-78325000D02*
X99100000Y-77725000D01*
G75*
G02*
X99325000Y-77500000I225000J0D01*
G01*
X99775000Y-77500000D01*
G75*
G02*
X100000000Y-77725000I0J-225000D01*
G01*
X100000000Y-78325000D01*
G75*
G02*
X99775000Y-78550000I-225000J0D01*
G01*
X99325000Y-78550000D01*
G75*
G02*
X99100000Y-78325000I0J225000D01*
G01*
G37*
%TD*%
%TO.C,U1*%
G36*
G01*
X95765000Y-90875000D02*
X96115000Y-90875000D01*
G75*
G02*
X96290000Y-91050000I0J-175000D01*
G01*
X96290000Y-92750000D01*
G75*
G02*
X96115000Y-92925000I-175000J0D01*
G01*
X95765000Y-92925000D01*
G75*
G02*
X95590000Y-92750000I0J175000D01*
G01*
X95590000Y-91050000D01*
G75*
G02*
X95765000Y-90875000I175000J0D01*
G01*
G37*
G36*
G01*
X97035000Y-90875000D02*
X97385000Y-90875000D01*
G75*
G02*
X97560000Y-91050000I0J-175000D01*
G01*
X97560000Y-92750000D01*
G75*
G02*
X97385000Y-92925000I-175000J0D01*
G01*
X97035000Y-92925000D01*
G75*
G02*
X96860000Y-92750000I0J175000D01*
G01*
X96860000Y-91050000D01*
G75*
G02*
X97035000Y-90875000I175000J0D01*
G01*
G37*
G36*
G01*
X98305000Y-90875000D02*
X98655000Y-90875000D01*
G75*
G02*
X98830000Y-91050000I0J-175000D01*
G01*
X98830000Y-92750000D01*
G75*
G02*
X98655000Y-92925000I-175000J0D01*
G01*
X98305000Y-92925000D01*
G75*
G02*
X98130000Y-92750000I0J175000D01*
G01*
X98130000Y-91050000D01*
G75*
G02*
X98305000Y-90875000I175000J0D01*
G01*
G37*
G36*
G01*
X99575000Y-90875000D02*
X99925000Y-90875000D01*
G75*
G02*
X100100000Y-91050000I0J-175000D01*
G01*
X100100000Y-92750000D01*
G75*
G02*
X99925000Y-92925000I-175000J0D01*
G01*
X99575000Y-92925000D01*
G75*
G02*
X99400000Y-92750000I0J175000D01*
G01*
X99400000Y-91050000D01*
G75*
G02*
X99575000Y-90875000I175000J0D01*
G01*
G37*
G36*
G01*
X100845000Y-90875000D02*
X101195000Y-90875000D01*
G75*
G02*
X101370000Y-91050000I0J-175000D01*
G01*
X101370000Y-92750000D01*
G75*
G02*
X101195000Y-92925000I-175000J0D01*
G01*
X100845000Y-92925000D01*
G75*
G02*
X100670000Y-92750000I0J175000D01*
G01*
X100670000Y-91050000D01*
G75*
G02*
X100845000Y-90875000I175000J0D01*
G01*
G37*
G36*
G01*
X102115000Y-90875000D02*
X102465000Y-90875000D01*
G75*
G02*
X102640000Y-91050000I0J-175000D01*
G01*
X102640000Y-92750000D01*
G75*
G02*
X102465000Y-92925000I-175000J0D01*
G01*
X102115000Y-92925000D01*
G75*
G02*
X101940000Y-92750000I0J175000D01*
G01*
X101940000Y-91050000D01*
G75*
G02*
X102115000Y-90875000I175000J0D01*
G01*
G37*
G36*
G01*
X103385000Y-90875000D02*
X103735000Y-90875000D01*
G75*
G02*
X103910000Y-91050000I0J-175000D01*
G01*
X103910000Y-92750000D01*
G75*
G02*
X103735000Y-92925000I-175000J0D01*
G01*
X103385000Y-92925000D01*
G75*
G02*
X103210000Y-92750000I0J175000D01*
G01*
X103210000Y-91050000D01*
G75*
G02*
X103385000Y-90875000I175000J0D01*
G01*
G37*
G36*
G01*
X103385000Y-85925000D02*
X103735000Y-85925000D01*
G75*
G02*
X103910000Y-86100000I0J-175000D01*
G01*
X103910000Y-87800000D01*
G75*
G02*
X103735000Y-87975000I-175000J0D01*
G01*
X103385000Y-87975000D01*
G75*
G02*
X103210000Y-87800000I0J175000D01*
G01*
X103210000Y-86100000D01*
G75*
G02*
X103385000Y-85925000I175000J0D01*
G01*
G37*
G36*
G01*
X102115000Y-85925000D02*
X102465000Y-85925000D01*
G75*
G02*
X102640000Y-86100000I0J-175000D01*
G01*
X102640000Y-87800000D01*
G75*
G02*
X102465000Y-87975000I-175000J0D01*
G01*
X102115000Y-87975000D01*
G75*
G02*
X101940000Y-87800000I0J175000D01*
G01*
X101940000Y-86100000D01*
G75*
G02*
X102115000Y-85925000I175000J0D01*
G01*
G37*
G36*
G01*
X100845000Y-85925000D02*
X101195000Y-85925000D01*
G75*
G02*
X101370000Y-86100000I0J-175000D01*
G01*
X101370000Y-87800000D01*
G75*
G02*
X101195000Y-87975000I-175000J0D01*
G01*
X100845000Y-87975000D01*
G75*
G02*
X100670000Y-87800000I0J175000D01*
G01*
X100670000Y-86100000D01*
G75*
G02*
X100845000Y-85925000I175000J0D01*
G01*
G37*
G36*
G01*
X99575000Y-85925000D02*
X99925000Y-85925000D01*
G75*
G02*
X100100000Y-86100000I0J-175000D01*
G01*
X100100000Y-87800000D01*
G75*
G02*
X99925000Y-87975000I-175000J0D01*
G01*
X99575000Y-87975000D01*
G75*
G02*
X99400000Y-87800000I0J175000D01*
G01*
X99400000Y-86100000D01*
G75*
G02*
X99575000Y-85925000I175000J0D01*
G01*
G37*
G36*
G01*
X98305000Y-85925000D02*
X98655000Y-85925000D01*
G75*
G02*
X98830000Y-86100000I0J-175000D01*
G01*
X98830000Y-87800000D01*
G75*
G02*
X98655000Y-87975000I-175000J0D01*
G01*
X98305000Y-87975000D01*
G75*
G02*
X98130000Y-87800000I0J175000D01*
G01*
X98130000Y-86100000D01*
G75*
G02*
X98305000Y-85925000I175000J0D01*
G01*
G37*
G36*
G01*
X97035000Y-85925000D02*
X97385000Y-85925000D01*
G75*
G02*
X97560000Y-86100000I0J-175000D01*
G01*
X97560000Y-87800000D01*
G75*
G02*
X97385000Y-87975000I-175000J0D01*
G01*
X97035000Y-87975000D01*
G75*
G02*
X96860000Y-87800000I0J175000D01*
G01*
X96860000Y-86100000D01*
G75*
G02*
X97035000Y-85925000I175000J0D01*
G01*
G37*
G36*
G01*
X95765000Y-85925000D02*
X96115000Y-85925000D01*
G75*
G02*
X96290000Y-86100000I0J-175000D01*
G01*
X96290000Y-87800000D01*
G75*
G02*
X96115000Y-87975000I-175000J0D01*
G01*
X95765000Y-87975000D01*
G75*
G02*
X95590000Y-87800000I0J175000D01*
G01*
X95590000Y-86100000D01*
G75*
G02*
X95765000Y-85925000I175000J0D01*
G01*
G37*
%TD*%
%TO.C,C5*%
G36*
G01*
X100050000Y-74500000D02*
X100050000Y-75050000D01*
G75*
G02*
X99800000Y-75300000I-250000J0D01*
G01*
X99300000Y-75300000D01*
G75*
G02*
X99050000Y-75050000I0J250000D01*
G01*
X99050000Y-74500000D01*
G75*
G02*
X99300000Y-74250000I250000J0D01*
G01*
X99800000Y-74250000D01*
G75*
G02*
X100050000Y-74500000I0J-250000D01*
G01*
G37*
G36*
G01*
X101600000Y-74500000D02*
X101600000Y-75050000D01*
G75*
G02*
X101350000Y-75300000I-250000J0D01*
G01*
X100850000Y-75300000D01*
G75*
G02*
X100600000Y-75050000I0J250000D01*
G01*
X100600000Y-74500000D01*
G75*
G02*
X100850000Y-74250000I250000J0D01*
G01*
X101350000Y-74250000D01*
G75*
G02*
X101600000Y-74500000I0J-250000D01*
G01*
G37*
%TD*%
D14*
%TO.C,JP1*%
G36*
X107506111Y-87950602D02*
G01*
X107524534Y-87950602D01*
X107529435Y-87950843D01*
X107578266Y-87955653D01*
X107583119Y-87956373D01*
X107631244Y-87965945D01*
X107636005Y-87967137D01*
X107682960Y-87981381D01*
X107687579Y-87983034D01*
X107732912Y-88001811D01*
X107737349Y-88003909D01*
X107780622Y-88027040D01*
X107784829Y-88029562D01*
X107825628Y-88056822D01*
X107829570Y-88059746D01*
X107867499Y-88090874D01*
X107871134Y-88094169D01*
X107905831Y-88128866D01*
X107909126Y-88132501D01*
X107940254Y-88170430D01*
X107943178Y-88174372D01*
X107970438Y-88215171D01*
X107972960Y-88219378D01*
X107996091Y-88262651D01*
X107998189Y-88267088D01*
X108016966Y-88312421D01*
X108018619Y-88317040D01*
X108032863Y-88363995D01*
X108034055Y-88368756D01*
X108043627Y-88416881D01*
X108044347Y-88421734D01*
X108049157Y-88470565D01*
X108049398Y-88475466D01*
X108049398Y-88493889D01*
X108050000Y-88500000D01*
X108050000Y-89000000D01*
X108049398Y-89006111D01*
X108049398Y-89024534D01*
X108049157Y-89029435D01*
X108044347Y-89078266D01*
X108043627Y-89083119D01*
X108034055Y-89131244D01*
X108032863Y-89136005D01*
X108018619Y-89182960D01*
X108016966Y-89187579D01*
X107998189Y-89232912D01*
X107996091Y-89237349D01*
X107972960Y-89280622D01*
X107970438Y-89284829D01*
X107943178Y-89325628D01*
X107940254Y-89329570D01*
X107909126Y-89367499D01*
X107905831Y-89371134D01*
X107871134Y-89405831D01*
X107867499Y-89409126D01*
X107829570Y-89440254D01*
X107825628Y-89443178D01*
X107784829Y-89470438D01*
X107780622Y-89472960D01*
X107737349Y-89496091D01*
X107732912Y-89498189D01*
X107687579Y-89516966D01*
X107682960Y-89518619D01*
X107636005Y-89532863D01*
X107631244Y-89534055D01*
X107583119Y-89543627D01*
X107578266Y-89544347D01*
X107529435Y-89549157D01*
X107524534Y-89549398D01*
X107506111Y-89549398D01*
X107500000Y-89550000D01*
X107000000Y-89550000D01*
X106990245Y-89549039D01*
X106980866Y-89546194D01*
X106972221Y-89541573D01*
X106964645Y-89535355D01*
X106958427Y-89527779D01*
X106953806Y-89519134D01*
X106950961Y-89509755D01*
X106950000Y-89500000D01*
X106950000Y-88000000D01*
X106950961Y-87990245D01*
X106953806Y-87980866D01*
X106958427Y-87972221D01*
X106964645Y-87964645D01*
X106972221Y-87958427D01*
X106980866Y-87953806D01*
X106990245Y-87950961D01*
X107000000Y-87950000D01*
X107500000Y-87950000D01*
X107506111Y-87950602D01*
G37*
G36*
X106709755Y-87950961D02*
G01*
X106719134Y-87953806D01*
X106727779Y-87958427D01*
X106735355Y-87964645D01*
X106741573Y-87972221D01*
X106746194Y-87980866D01*
X106749039Y-87990245D01*
X106750000Y-88000000D01*
X106750000Y-89500000D01*
X106749039Y-89509755D01*
X106746194Y-89519134D01*
X106741573Y-89527779D01*
X106735355Y-89535355D01*
X106727779Y-89541573D01*
X106719134Y-89546194D01*
X106709755Y-89549039D01*
X106700000Y-89550000D01*
X106200000Y-89550000D01*
X106193889Y-89549398D01*
X106175466Y-89549398D01*
X106170565Y-89549157D01*
X106121734Y-89544347D01*
X106116881Y-89543627D01*
X106068756Y-89534055D01*
X106063995Y-89532863D01*
X106017040Y-89518619D01*
X106012421Y-89516966D01*
X105967088Y-89498189D01*
X105962651Y-89496091D01*
X105919378Y-89472960D01*
X105915171Y-89470438D01*
X105874372Y-89443178D01*
X105870430Y-89440254D01*
X105832501Y-89409126D01*
X105828866Y-89405831D01*
X105794169Y-89371134D01*
X105790874Y-89367499D01*
X105759746Y-89329570D01*
X105756822Y-89325628D01*
X105729562Y-89284829D01*
X105727040Y-89280622D01*
X105703909Y-89237349D01*
X105701811Y-89232912D01*
X105683034Y-89187579D01*
X105681381Y-89182960D01*
X105667137Y-89136005D01*
X105665945Y-89131244D01*
X105656373Y-89083119D01*
X105655653Y-89078266D01*
X105650843Y-89029435D01*
X105650602Y-89024534D01*
X105650602Y-89006111D01*
X105650000Y-89000000D01*
X105650000Y-88500000D01*
X105650602Y-88493889D01*
X105650602Y-88475466D01*
X105650843Y-88470565D01*
X105655653Y-88421734D01*
X105656373Y-88416881D01*
X105665945Y-88368756D01*
X105667137Y-88363995D01*
X105681381Y-88317040D01*
X105683034Y-88312421D01*
X105701811Y-88267088D01*
X105703909Y-88262651D01*
X105727040Y-88219378D01*
X105729562Y-88215171D01*
X105756822Y-88174372D01*
X105759746Y-88170430D01*
X105790874Y-88132501D01*
X105794169Y-88128866D01*
X105828866Y-88094169D01*
X105832501Y-88090874D01*
X105870430Y-88059746D01*
X105874372Y-88056822D01*
X105915171Y-88029562D01*
X105919378Y-88027040D01*
X105962651Y-88003909D01*
X105967088Y-88001811D01*
X106012421Y-87983034D01*
X106017040Y-87981381D01*
X106063995Y-87967137D01*
X106068756Y-87965945D01*
X106116881Y-87956373D01*
X106121734Y-87955653D01*
X106170565Y-87950843D01*
X106175466Y-87950602D01*
X106193889Y-87950602D01*
X106200000Y-87950000D01*
X106700000Y-87950000D01*
X106709755Y-87950961D01*
G37*
%TD*%
%TO.C,JP2*%
G36*
X106593889Y-77299398D02*
G01*
X106575466Y-77299398D01*
X106570565Y-77299157D01*
X106521734Y-77294347D01*
X106516881Y-77293627D01*
X106468756Y-77284055D01*
X106463995Y-77282863D01*
X106417040Y-77268619D01*
X106412421Y-77266966D01*
X106367088Y-77248189D01*
X106362651Y-77246091D01*
X106319378Y-77222960D01*
X106315171Y-77220438D01*
X106274372Y-77193178D01*
X106270430Y-77190254D01*
X106232501Y-77159126D01*
X106228866Y-77155831D01*
X106194169Y-77121134D01*
X106190874Y-77117499D01*
X106159746Y-77079570D01*
X106156822Y-77075628D01*
X106129562Y-77034829D01*
X106127040Y-77030622D01*
X106103909Y-76987349D01*
X106101811Y-76982912D01*
X106083034Y-76937579D01*
X106081381Y-76932960D01*
X106067137Y-76886005D01*
X106065945Y-76881244D01*
X106056373Y-76833119D01*
X106055653Y-76828266D01*
X106050843Y-76779435D01*
X106050602Y-76774534D01*
X106050602Y-76756111D01*
X106050000Y-76750000D01*
X106050000Y-76250000D01*
X106050602Y-76243889D01*
X106050602Y-76225466D01*
X106050843Y-76220565D01*
X106055653Y-76171734D01*
X106056373Y-76166881D01*
X106065945Y-76118756D01*
X106067137Y-76113995D01*
X106081381Y-76067040D01*
X106083034Y-76062421D01*
X106101811Y-76017088D01*
X106103909Y-76012651D01*
X106127040Y-75969378D01*
X106129562Y-75965171D01*
X106156822Y-75924372D01*
X106159746Y-75920430D01*
X106190874Y-75882501D01*
X106194169Y-75878866D01*
X106228866Y-75844169D01*
X106232501Y-75840874D01*
X106270430Y-75809746D01*
X106274372Y-75806822D01*
X106315171Y-75779562D01*
X106319378Y-75777040D01*
X106362651Y-75753909D01*
X106367088Y-75751811D01*
X106412421Y-75733034D01*
X106417040Y-75731381D01*
X106463995Y-75717137D01*
X106468756Y-75715945D01*
X106516881Y-75706373D01*
X106521734Y-75705653D01*
X106570565Y-75700843D01*
X106575466Y-75700602D01*
X106593889Y-75700602D01*
X106600000Y-75700000D01*
X107100000Y-75700000D01*
X107109755Y-75700961D01*
X107119134Y-75703806D01*
X107127779Y-75708427D01*
X107135355Y-75714645D01*
X107141573Y-75722221D01*
X107146194Y-75730866D01*
X107149039Y-75740245D01*
X107150000Y-75750000D01*
X107150000Y-77250000D01*
X107149039Y-77259755D01*
X107146194Y-77269134D01*
X107141573Y-77277779D01*
X107135355Y-77285355D01*
X107127779Y-77291573D01*
X107119134Y-77296194D01*
X107109755Y-77299039D01*
X107100000Y-77300000D01*
X106600000Y-77300000D01*
X106593889Y-77299398D01*
G37*
G36*
X107390245Y-77299039D02*
G01*
X107380866Y-77296194D01*
X107372221Y-77291573D01*
X107364645Y-77285355D01*
X107358427Y-77277779D01*
X107353806Y-77269134D01*
X107350961Y-77259755D01*
X107350000Y-77250000D01*
X107350000Y-75750000D01*
X107350961Y-75740245D01*
X107353806Y-75730866D01*
X107358427Y-75722221D01*
X107364645Y-75714645D01*
X107372221Y-75708427D01*
X107380866Y-75703806D01*
X107390245Y-75700961D01*
X107400000Y-75700000D01*
X107900000Y-75700000D01*
X107906111Y-75700602D01*
X107924534Y-75700602D01*
X107929435Y-75700843D01*
X107978266Y-75705653D01*
X107983119Y-75706373D01*
X108031244Y-75715945D01*
X108036005Y-75717137D01*
X108082960Y-75731381D01*
X108087579Y-75733034D01*
X108132912Y-75751811D01*
X108137349Y-75753909D01*
X108180622Y-75777040D01*
X108184829Y-75779562D01*
X108225628Y-75806822D01*
X108229570Y-75809746D01*
X108267499Y-75840874D01*
X108271134Y-75844169D01*
X108305831Y-75878866D01*
X108309126Y-75882501D01*
X108340254Y-75920430D01*
X108343178Y-75924372D01*
X108370438Y-75965171D01*
X108372960Y-75969378D01*
X108396091Y-76012651D01*
X108398189Y-76017088D01*
X108416966Y-76062421D01*
X108418619Y-76067040D01*
X108432863Y-76113995D01*
X108434055Y-76118756D01*
X108443627Y-76166881D01*
X108444347Y-76171734D01*
X108449157Y-76220565D01*
X108449398Y-76225466D01*
X108449398Y-76243889D01*
X108450000Y-76250000D01*
X108450000Y-76750000D01*
X108449398Y-76756111D01*
X108449398Y-76774534D01*
X108449157Y-76779435D01*
X108444347Y-76828266D01*
X108443627Y-76833119D01*
X108434055Y-76881244D01*
X108432863Y-76886005D01*
X108418619Y-76932960D01*
X108416966Y-76937579D01*
X108398189Y-76982912D01*
X108396091Y-76987349D01*
X108372960Y-77030622D01*
X108370438Y-77034829D01*
X108343178Y-77075628D01*
X108340254Y-77079570D01*
X108309126Y-77117499D01*
X108305831Y-77121134D01*
X108271134Y-77155831D01*
X108267499Y-77159126D01*
X108229570Y-77190254D01*
X108225628Y-77193178D01*
X108184829Y-77220438D01*
X108180622Y-77222960D01*
X108137349Y-77246091D01*
X108132912Y-77248189D01*
X108087579Y-77266966D01*
X108082960Y-77268619D01*
X108036005Y-77282863D01*
X108031244Y-77284055D01*
X107983119Y-77293627D01*
X107978266Y-77294347D01*
X107929435Y-77299157D01*
X107924534Y-77299398D01*
X107906111Y-77299398D01*
X107900000Y-77300000D01*
X107400000Y-77300000D01*
X107390245Y-77299039D01*
G37*
%TD*%
%TO.C,R12*%
G36*
G01*
X104900000Y-46425000D02*
X104900000Y-47025000D01*
G75*
G02*
X104675000Y-47250000I-225000J0D01*
G01*
X104225000Y-47250000D01*
G75*
G02*
X104000000Y-47025000I0J225000D01*
G01*
X104000000Y-46425000D01*
G75*
G02*
X104225000Y-46200000I225000J0D01*
G01*
X104675000Y-46200000D01*
G75*
G02*
X104900000Y-46425000I0J-225000D01*
G01*
G37*
G36*
G01*
X106550000Y-46425000D02*
X106550000Y-47025000D01*
G75*
G02*
X106325000Y-47250000I-225000J0D01*
G01*
X105875000Y-47250000D01*
G75*
G02*
X105650000Y-47025000I0J225000D01*
G01*
X105650000Y-46425000D01*
G75*
G02*
X105875000Y-46200000I225000J0D01*
G01*
X106325000Y-46200000D01*
G75*
G02*
X106550000Y-46425000I0J-225000D01*
G01*
G37*
%TD*%
%TO.C,R9*%
G36*
G01*
X95125000Y-62200000D02*
X95125000Y-61600000D01*
G75*
G02*
X95350000Y-61375000I225000J0D01*
G01*
X95800000Y-61375000D01*
G75*
G02*
X96025000Y-61600000I0J-225000D01*
G01*
X96025000Y-62200000D01*
G75*
G02*
X95800000Y-62425000I-225000J0D01*
G01*
X95350000Y-62425000D01*
G75*
G02*
X95125000Y-62200000I0J225000D01*
G01*
G37*
G36*
G01*
X93475000Y-62200000D02*
X93475000Y-61600000D01*
G75*
G02*
X93700000Y-61375000I225000J0D01*
G01*
X94150000Y-61375000D01*
G75*
G02*
X94375000Y-61600000I0J-225000D01*
G01*
X94375000Y-62200000D01*
G75*
G02*
X94150000Y-62425000I-225000J0D01*
G01*
X93700000Y-62425000D01*
G75*
G02*
X93475000Y-62200000I0J225000D01*
G01*
G37*
%TD*%
%TO.C,RD1*%
G36*
G01*
X97050000Y-22950000D02*
X97650000Y-22950000D01*
G75*
G02*
X97875000Y-23175000I0J-225000D01*
G01*
X97875000Y-23625000D01*
G75*
G02*
X97650000Y-23850000I-225000J0D01*
G01*
X97050000Y-23850000D01*
G75*
G02*
X96825000Y-23625000I0J225000D01*
G01*
X96825000Y-23175000D01*
G75*
G02*
X97050000Y-22950000I225000J0D01*
G01*
G37*
G36*
G01*
X97050000Y-24600000D02*
X97650000Y-24600000D01*
G75*
G02*
X97875000Y-24825000I0J-225000D01*
G01*
X97875000Y-25275000D01*
G75*
G02*
X97650000Y-25500000I-225000J0D01*
G01*
X97050000Y-25500000D01*
G75*
G02*
X96825000Y-25275000I0J225000D01*
G01*
X96825000Y-24825000D01*
G75*
G02*
X97050000Y-24600000I225000J0D01*
G01*
G37*
%TD*%
%TO.C,RV3*%
G36*
G01*
X92900000Y-56750000D02*
X92900000Y-53250000D01*
G75*
G02*
X92950000Y-53200000I50000J0D01*
G01*
X96450000Y-53200000D01*
G75*
G02*
X96500000Y-53250000I0J-50000D01*
G01*
X96500000Y-56750000D01*
G75*
G02*
X96450000Y-56800000I-50000J0D01*
G01*
X92950000Y-56800000D01*
G75*
G02*
X92900000Y-56750000I0J50000D01*
G01*
G37*
D12*
X97500000Y-62000000D03*
X102500000Y-62000000D03*
X100000000Y-62000000D03*
G36*
G01*
X103500000Y-56750000D02*
X103500000Y-53250000D01*
G75*
G02*
X103550000Y-53200000I50000J0D01*
G01*
X107050000Y-53200000D01*
G75*
G02*
X107100000Y-53250000I0J-50000D01*
G01*
X107100000Y-56750000D01*
G75*
G02*
X107050000Y-56800000I-50000J0D01*
G01*
X103550000Y-56800000D01*
G75*
G02*
X103500000Y-56750000I0J50000D01*
G01*
G37*
%TD*%
%TO.C,C7*%
G36*
G01*
X95225000Y-83265625D02*
X95225000Y-84434375D01*
G75*
G02*
X94959375Y-84700000I-265625J0D01*
G01*
X91890625Y-84700000D01*
G75*
G02*
X91625000Y-84434375I0J265625D01*
G01*
X91625000Y-83265625D01*
G75*
G02*
X91890625Y-83000000I265625J0D01*
G01*
X94959375Y-83000000D01*
G75*
G02*
X95225000Y-83265625I0J-265625D01*
G01*
G37*
G36*
G01*
X89825000Y-83265625D02*
X89825000Y-84434375D01*
G75*
G02*
X89559375Y-84700000I-265625J0D01*
G01*
X86490625Y-84700000D01*
G75*
G02*
X86225000Y-84434375I0J265625D01*
G01*
X86225000Y-83265625D01*
G75*
G02*
X86490625Y-83000000I265625J0D01*
G01*
X89559375Y-83000000D01*
G75*
G02*
X89825000Y-83265625I0J-265625D01*
G01*
G37*
%TD*%
D15*
%TO.C,H1*%
X111500000Y-61000000D03*
%TD*%
%TO.C,H2*%
X88500000Y-61000000D03*
%TD*%
M02*
