%TF.GenerationSoftware,KiCad,Pcbnew,5.1.6-c6e7f7d~87~ubuntu18.04.1*%
%TF.CreationDate,2020-12-29T19:32:25-08:00*%
%TF.ProjectId,cv-extractor,63762d65-7874-4726-9163-746f722e6b69,rev?*%
%TF.SameCoordinates,Original*%
%TF.FileFunction,Paste,Bot*%
%TF.FilePolarity,Positive*%
%FSLAX46Y46*%
G04 Gerber Fmt 4.6, Leading zero omitted, Abs format (unit mm)*
G04 Created by KiCad (PCBNEW 5.1.6-c6e7f7d~87~ubuntu18.04.1) date 2020-12-29 19:32:25*
%MOMM*%
%LPD*%
G01*
G04 APERTURE LIST*
%ADD10R,2.500000X1.800000*%
G04 APERTURE END LIST*
%TO.C,C3*%
G36*
G01*
X86121000Y-78971000D02*
X86121000Y-80221000D01*
G75*
G02*
X85871000Y-80471000I-250000J0D01*
G01*
X85121000Y-80471000D01*
G75*
G02*
X84871000Y-80221000I0J250000D01*
G01*
X84871000Y-78971000D01*
G75*
G02*
X85121000Y-78721000I250000J0D01*
G01*
X85871000Y-78721000D01*
G75*
G02*
X86121000Y-78971000I0J-250000D01*
G01*
G37*
G36*
G01*
X88921000Y-78971000D02*
X88921000Y-80221000D01*
G75*
G02*
X88671000Y-80471000I-250000J0D01*
G01*
X87921000Y-80471000D01*
G75*
G02*
X87671000Y-80221000I0J250000D01*
G01*
X87671000Y-78971000D01*
G75*
G02*
X87921000Y-78721000I250000J0D01*
G01*
X88671000Y-78721000D01*
G75*
G02*
X88921000Y-78971000I0J-250000D01*
G01*
G37*
%TD*%
%TO.C,C1*%
G36*
G01*
X91329000Y-92319000D02*
X91329000Y-91069000D01*
G75*
G02*
X91579000Y-90819000I250000J0D01*
G01*
X92329000Y-90819000D01*
G75*
G02*
X92579000Y-91069000I0J-250000D01*
G01*
X92579000Y-92319000D01*
G75*
G02*
X92329000Y-92569000I-250000J0D01*
G01*
X91579000Y-92569000D01*
G75*
G02*
X91329000Y-92319000I0J250000D01*
G01*
G37*
G36*
G01*
X88529000Y-92319000D02*
X88529000Y-91069000D01*
G75*
G02*
X88779000Y-90819000I250000J0D01*
G01*
X89529000Y-90819000D01*
G75*
G02*
X89779000Y-91069000I0J-250000D01*
G01*
X89779000Y-92319000D01*
G75*
G02*
X89529000Y-92569000I-250000J0D01*
G01*
X88779000Y-92569000D01*
G75*
G02*
X88529000Y-92319000I0J250000D01*
G01*
G37*
%TD*%
%TO.C,C2*%
G36*
G01*
X91329000Y-94859000D02*
X91329000Y-93609000D01*
G75*
G02*
X91579000Y-93359000I250000J0D01*
G01*
X92329000Y-93359000D01*
G75*
G02*
X92579000Y-93609000I0J-250000D01*
G01*
X92579000Y-94859000D01*
G75*
G02*
X92329000Y-95109000I-250000J0D01*
G01*
X91579000Y-95109000D01*
G75*
G02*
X91329000Y-94859000I0J250000D01*
G01*
G37*
G36*
G01*
X88529000Y-94859000D02*
X88529000Y-93609000D01*
G75*
G02*
X88779000Y-93359000I250000J0D01*
G01*
X89529000Y-93359000D01*
G75*
G02*
X89779000Y-93609000I0J-250000D01*
G01*
X89779000Y-94859000D01*
G75*
G02*
X89529000Y-95109000I-250000J0D01*
G01*
X88779000Y-95109000D01*
G75*
G02*
X88529000Y-94859000I0J250000D01*
G01*
G37*
%TD*%
%TO.C,C4*%
G36*
G01*
X86121000Y-81361000D02*
X86121000Y-82611000D01*
G75*
G02*
X85871000Y-82861000I-250000J0D01*
G01*
X85121000Y-82861000D01*
G75*
G02*
X84871000Y-82611000I0J250000D01*
G01*
X84871000Y-81361000D01*
G75*
G02*
X85121000Y-81111000I250000J0D01*
G01*
X85871000Y-81111000D01*
G75*
G02*
X86121000Y-81361000I0J-250000D01*
G01*
G37*
G36*
G01*
X88921000Y-81361000D02*
X88921000Y-82611000D01*
G75*
G02*
X88671000Y-82861000I-250000J0D01*
G01*
X87921000Y-82861000D01*
G75*
G02*
X87671000Y-82611000I0J250000D01*
G01*
X87671000Y-81361000D01*
G75*
G02*
X87921000Y-81111000I250000J0D01*
G01*
X88671000Y-81111000D01*
G75*
G02*
X88921000Y-81361000I0J-250000D01*
G01*
G37*
%TD*%
%TO.C,C5*%
G36*
G01*
X86121000Y-83797000D02*
X86121000Y-85047000D01*
G75*
G02*
X85871000Y-85297000I-250000J0D01*
G01*
X85121000Y-85297000D01*
G75*
G02*
X84871000Y-85047000I0J250000D01*
G01*
X84871000Y-83797000D01*
G75*
G02*
X85121000Y-83547000I250000J0D01*
G01*
X85871000Y-83547000D01*
G75*
G02*
X86121000Y-83797000I0J-250000D01*
G01*
G37*
G36*
G01*
X88921000Y-83797000D02*
X88921000Y-85047000D01*
G75*
G02*
X88671000Y-85297000I-250000J0D01*
G01*
X87921000Y-85297000D01*
G75*
G02*
X87671000Y-85047000I0J250000D01*
G01*
X87671000Y-83797000D01*
G75*
G02*
X87921000Y-83547000I250000J0D01*
G01*
X88671000Y-83547000D01*
G75*
G02*
X88921000Y-83797000I0J-250000D01*
G01*
G37*
%TD*%
%TO.C,C6*%
G36*
G01*
X86121000Y-86337000D02*
X86121000Y-87587000D01*
G75*
G02*
X85871000Y-87837000I-250000J0D01*
G01*
X85121000Y-87837000D01*
G75*
G02*
X84871000Y-87587000I0J250000D01*
G01*
X84871000Y-86337000D01*
G75*
G02*
X85121000Y-86087000I250000J0D01*
G01*
X85871000Y-86087000D01*
G75*
G02*
X86121000Y-86337000I0J-250000D01*
G01*
G37*
G36*
G01*
X88921000Y-86337000D02*
X88921000Y-87587000D01*
G75*
G02*
X88671000Y-87837000I-250000J0D01*
G01*
X87921000Y-87837000D01*
G75*
G02*
X87671000Y-87587000I0J250000D01*
G01*
X87671000Y-86337000D01*
G75*
G02*
X87921000Y-86087000I250000J0D01*
G01*
X88671000Y-86087000D01*
G75*
G02*
X88921000Y-86337000I0J-250000D01*
G01*
G37*
%TD*%
%TO.C,C7*%
G36*
G01*
X110170000Y-100372000D02*
X110170000Y-99272000D01*
G75*
G02*
X110420000Y-99022000I250000J0D01*
G01*
X113420000Y-99022000D01*
G75*
G02*
X113670000Y-99272000I0J-250000D01*
G01*
X113670000Y-100372000D01*
G75*
G02*
X113420000Y-100622000I-250000J0D01*
G01*
X110420000Y-100622000D01*
G75*
G02*
X110170000Y-100372000I0J250000D01*
G01*
G37*
G36*
G01*
X104770000Y-100372000D02*
X104770000Y-99272000D01*
G75*
G02*
X105020000Y-99022000I250000J0D01*
G01*
X108020000Y-99022000D01*
G75*
G02*
X108270000Y-99272000I0J-250000D01*
G01*
X108270000Y-100372000D01*
G75*
G02*
X108020000Y-100622000I-250000J0D01*
G01*
X105020000Y-100622000D01*
G75*
G02*
X104770000Y-100372000I0J250000D01*
G01*
G37*
%TD*%
%TO.C,C8*%
G36*
G01*
X90200000Y-100075000D02*
X90200000Y-98975000D01*
G75*
G02*
X90450000Y-98725000I250000J0D01*
G01*
X93450000Y-98725000D01*
G75*
G02*
X93700000Y-98975000I0J-250000D01*
G01*
X93700000Y-100075000D01*
G75*
G02*
X93450000Y-100325000I-250000J0D01*
G01*
X90450000Y-100325000D01*
G75*
G02*
X90200000Y-100075000I0J250000D01*
G01*
G37*
G36*
G01*
X84800000Y-100075000D02*
X84800000Y-98975000D01*
G75*
G02*
X85050000Y-98725000I250000J0D01*
G01*
X88050000Y-98725000D01*
G75*
G02*
X88300000Y-98975000I0J-250000D01*
G01*
X88300000Y-100075000D01*
G75*
G02*
X88050000Y-100325000I-250000J0D01*
G01*
X85050000Y-100325000D01*
G75*
G02*
X84800000Y-100075000I0J250000D01*
G01*
G37*
%TD*%
%TO.C,C9*%
G36*
G01*
X104904250Y-102240500D02*
X104391750Y-102240500D01*
G75*
G02*
X104173000Y-102021750I0J218750D01*
G01*
X104173000Y-101584250D01*
G75*
G02*
X104391750Y-101365500I218750J0D01*
G01*
X104904250Y-101365500D01*
G75*
G02*
X105123000Y-101584250I0J-218750D01*
G01*
X105123000Y-102021750D01*
G75*
G02*
X104904250Y-102240500I-218750J0D01*
G01*
G37*
G36*
G01*
X104904250Y-103815500D02*
X104391750Y-103815500D01*
G75*
G02*
X104173000Y-103596750I0J218750D01*
G01*
X104173000Y-103159250D01*
G75*
G02*
X104391750Y-102940500I218750J0D01*
G01*
X104904250Y-102940500D01*
G75*
G02*
X105123000Y-103159250I0J-218750D01*
G01*
X105123000Y-103596750D01*
G75*
G02*
X104904250Y-103815500I-218750J0D01*
G01*
G37*
%TD*%
%TO.C,C10*%
G36*
G01*
X94518750Y-102100000D02*
X95031250Y-102100000D01*
G75*
G02*
X95250000Y-102318750I0J-218750D01*
G01*
X95250000Y-102756250D01*
G75*
G02*
X95031250Y-102975000I-218750J0D01*
G01*
X94518750Y-102975000D01*
G75*
G02*
X94300000Y-102756250I0J218750D01*
G01*
X94300000Y-102318750D01*
G75*
G02*
X94518750Y-102100000I218750J0D01*
G01*
G37*
G36*
G01*
X94518750Y-100525000D02*
X95031250Y-100525000D01*
G75*
G02*
X95250000Y-100743750I0J-218750D01*
G01*
X95250000Y-101181250D01*
G75*
G02*
X95031250Y-101400000I-218750J0D01*
G01*
X94518750Y-101400000D01*
G75*
G02*
X94300000Y-101181250I0J218750D01*
G01*
X94300000Y-100743750D01*
G75*
G02*
X94518750Y-100525000I218750J0D01*
G01*
G37*
%TD*%
D10*
%TO.C,D1*%
X106750000Y-107750000D03*
X102750000Y-107750000D03*
%TD*%
%TO.C,D2*%
X114000000Y-107750000D03*
X110000000Y-107750000D03*
%TD*%
%TO.C,R1*%
G36*
G01*
X104552000Y-93457750D02*
X104552000Y-93970250D01*
G75*
G02*
X104333250Y-94189000I-218750J0D01*
G01*
X103895750Y-94189000D01*
G75*
G02*
X103677000Y-93970250I0J218750D01*
G01*
X103677000Y-93457750D01*
G75*
G02*
X103895750Y-93239000I218750J0D01*
G01*
X104333250Y-93239000D01*
G75*
G02*
X104552000Y-93457750I0J-218750D01*
G01*
G37*
G36*
G01*
X106127000Y-93457750D02*
X106127000Y-93970250D01*
G75*
G02*
X105908250Y-94189000I-218750J0D01*
G01*
X105470750Y-94189000D01*
G75*
G02*
X105252000Y-93970250I0J218750D01*
G01*
X105252000Y-93457750D01*
G75*
G02*
X105470750Y-93239000I218750J0D01*
G01*
X105908250Y-93239000D01*
G75*
G02*
X106127000Y-93457750I0J-218750D01*
G01*
G37*
%TD*%
%TO.C,R2*%
G36*
G01*
X105252000Y-92446250D02*
X105252000Y-91933750D01*
G75*
G02*
X105470750Y-91715000I218750J0D01*
G01*
X105908250Y-91715000D01*
G75*
G02*
X106127000Y-91933750I0J-218750D01*
G01*
X106127000Y-92446250D01*
G75*
G02*
X105908250Y-92665000I-218750J0D01*
G01*
X105470750Y-92665000D01*
G75*
G02*
X105252000Y-92446250I0J218750D01*
G01*
G37*
G36*
G01*
X103677000Y-92446250D02*
X103677000Y-91933750D01*
G75*
G02*
X103895750Y-91715000I218750J0D01*
G01*
X104333250Y-91715000D01*
G75*
G02*
X104552000Y-91933750I0J-218750D01*
G01*
X104552000Y-92446250D01*
G75*
G02*
X104333250Y-92665000I-218750J0D01*
G01*
X103895750Y-92665000D01*
G75*
G02*
X103677000Y-92446250I0J218750D01*
G01*
G37*
%TD*%
%TO.C,R3*%
G36*
G01*
X105252000Y-90172250D02*
X105252000Y-89659750D01*
G75*
G02*
X105470750Y-89441000I218750J0D01*
G01*
X105908250Y-89441000D01*
G75*
G02*
X106127000Y-89659750I0J-218750D01*
G01*
X106127000Y-90172250D01*
G75*
G02*
X105908250Y-90391000I-218750J0D01*
G01*
X105470750Y-90391000D01*
G75*
G02*
X105252000Y-90172250I0J218750D01*
G01*
G37*
G36*
G01*
X103677000Y-90172250D02*
X103677000Y-89659750D01*
G75*
G02*
X103895750Y-89441000I218750J0D01*
G01*
X104333250Y-89441000D01*
G75*
G02*
X104552000Y-89659750I0J-218750D01*
G01*
X104552000Y-90172250D01*
G75*
G02*
X104333250Y-90391000I-218750J0D01*
G01*
X103895750Y-90391000D01*
G75*
G02*
X103677000Y-90172250I0J218750D01*
G01*
G37*
%TD*%
%TO.C,R4*%
G36*
G01*
X105252000Y-88648250D02*
X105252000Y-88135750D01*
G75*
G02*
X105470750Y-87917000I218750J0D01*
G01*
X105908250Y-87917000D01*
G75*
G02*
X106127000Y-88135750I0J-218750D01*
G01*
X106127000Y-88648250D01*
G75*
G02*
X105908250Y-88867000I-218750J0D01*
G01*
X105470750Y-88867000D01*
G75*
G02*
X105252000Y-88648250I0J218750D01*
G01*
G37*
G36*
G01*
X103677000Y-88648250D02*
X103677000Y-88135750D01*
G75*
G02*
X103895750Y-87917000I218750J0D01*
G01*
X104333250Y-87917000D01*
G75*
G02*
X104552000Y-88135750I0J-218750D01*
G01*
X104552000Y-88648250D01*
G75*
G02*
X104333250Y-88867000I-218750J0D01*
G01*
X103895750Y-88867000D01*
G75*
G02*
X103677000Y-88648250I0J218750D01*
G01*
G37*
%TD*%
%TO.C,R5*%
G36*
G01*
X105252000Y-87124250D02*
X105252000Y-86611750D01*
G75*
G02*
X105470750Y-86393000I218750J0D01*
G01*
X105908250Y-86393000D01*
G75*
G02*
X106127000Y-86611750I0J-218750D01*
G01*
X106127000Y-87124250D01*
G75*
G02*
X105908250Y-87343000I-218750J0D01*
G01*
X105470750Y-87343000D01*
G75*
G02*
X105252000Y-87124250I0J218750D01*
G01*
G37*
G36*
G01*
X103677000Y-87124250D02*
X103677000Y-86611750D01*
G75*
G02*
X103895750Y-86393000I218750J0D01*
G01*
X104333250Y-86393000D01*
G75*
G02*
X104552000Y-86611750I0J-218750D01*
G01*
X104552000Y-87124250D01*
G75*
G02*
X104333250Y-87343000I-218750J0D01*
G01*
X103895750Y-87343000D01*
G75*
G02*
X103677000Y-87124250I0J218750D01*
G01*
G37*
%TD*%
%TO.C,R6*%
G36*
G01*
X104552000Y-85087750D02*
X104552000Y-85600250D01*
G75*
G02*
X104333250Y-85819000I-218750J0D01*
G01*
X103895750Y-85819000D01*
G75*
G02*
X103677000Y-85600250I0J218750D01*
G01*
X103677000Y-85087750D01*
G75*
G02*
X103895750Y-84869000I218750J0D01*
G01*
X104333250Y-84869000D01*
G75*
G02*
X104552000Y-85087750I0J-218750D01*
G01*
G37*
G36*
G01*
X106127000Y-85087750D02*
X106127000Y-85600250D01*
G75*
G02*
X105908250Y-85819000I-218750J0D01*
G01*
X105470750Y-85819000D01*
G75*
G02*
X105252000Y-85600250I0J218750D01*
G01*
X105252000Y-85087750D01*
G75*
G02*
X105470750Y-84869000I218750J0D01*
G01*
X105908250Y-84869000D01*
G75*
G02*
X106127000Y-85087750I0J-218750D01*
G01*
G37*
%TD*%
%TO.C,R7*%
G36*
G01*
X105252000Y-83426250D02*
X105252000Y-82913750D01*
G75*
G02*
X105470750Y-82695000I218750J0D01*
G01*
X105908250Y-82695000D01*
G75*
G02*
X106127000Y-82913750I0J-218750D01*
G01*
X106127000Y-83426250D01*
G75*
G02*
X105908250Y-83645000I-218750J0D01*
G01*
X105470750Y-83645000D01*
G75*
G02*
X105252000Y-83426250I0J218750D01*
G01*
G37*
G36*
G01*
X103677000Y-83426250D02*
X103677000Y-82913750D01*
G75*
G02*
X103895750Y-82695000I218750J0D01*
G01*
X104333250Y-82695000D01*
G75*
G02*
X104552000Y-82913750I0J-218750D01*
G01*
X104552000Y-83426250D01*
G75*
G02*
X104333250Y-83645000I-218750J0D01*
G01*
X103895750Y-83645000D01*
G75*
G02*
X103677000Y-83426250I0J218750D01*
G01*
G37*
%TD*%
%TO.C,R8*%
G36*
G01*
X105252000Y-81902250D02*
X105252000Y-81389750D01*
G75*
G02*
X105470750Y-81171000I218750J0D01*
G01*
X105908250Y-81171000D01*
G75*
G02*
X106127000Y-81389750I0J-218750D01*
G01*
X106127000Y-81902250D01*
G75*
G02*
X105908250Y-82121000I-218750J0D01*
G01*
X105470750Y-82121000D01*
G75*
G02*
X105252000Y-81902250I0J218750D01*
G01*
G37*
G36*
G01*
X103677000Y-81902250D02*
X103677000Y-81389750D01*
G75*
G02*
X103895750Y-81171000I218750J0D01*
G01*
X104333250Y-81171000D01*
G75*
G02*
X104552000Y-81389750I0J-218750D01*
G01*
X104552000Y-81902250D01*
G75*
G02*
X104333250Y-82121000I-218750J0D01*
G01*
X103895750Y-82121000D01*
G75*
G02*
X103677000Y-81902250I0J218750D01*
G01*
G37*
%TD*%
%TO.C,U1*%
G36*
G01*
X98500000Y-96040000D02*
X98500000Y-96340000D01*
G75*
G02*
X98350000Y-96490000I-150000J0D01*
G01*
X96700000Y-96490000D01*
G75*
G02*
X96550000Y-96340000I0J150000D01*
G01*
X96550000Y-96040000D01*
G75*
G02*
X96700000Y-95890000I150000J0D01*
G01*
X98350000Y-95890000D01*
G75*
G02*
X98500000Y-96040000I0J-150000D01*
G01*
G37*
G36*
G01*
X98500000Y-97310000D02*
X98500000Y-97610000D01*
G75*
G02*
X98350000Y-97760000I-150000J0D01*
G01*
X96700000Y-97760000D01*
G75*
G02*
X96550000Y-97610000I0J150000D01*
G01*
X96550000Y-97310000D01*
G75*
G02*
X96700000Y-97160000I150000J0D01*
G01*
X98350000Y-97160000D01*
G75*
G02*
X98500000Y-97310000I0J-150000D01*
G01*
G37*
G36*
G01*
X98500000Y-98580000D02*
X98500000Y-98880000D01*
G75*
G02*
X98350000Y-99030000I-150000J0D01*
G01*
X96700000Y-99030000D01*
G75*
G02*
X96550000Y-98880000I0J150000D01*
G01*
X96550000Y-98580000D01*
G75*
G02*
X96700000Y-98430000I150000J0D01*
G01*
X98350000Y-98430000D01*
G75*
G02*
X98500000Y-98580000I0J-150000D01*
G01*
G37*
G36*
G01*
X98500000Y-99850000D02*
X98500000Y-100150000D01*
G75*
G02*
X98350000Y-100300000I-150000J0D01*
G01*
X96700000Y-100300000D01*
G75*
G02*
X96550000Y-100150000I0J150000D01*
G01*
X96550000Y-99850000D01*
G75*
G02*
X96700000Y-99700000I150000J0D01*
G01*
X98350000Y-99700000D01*
G75*
G02*
X98500000Y-99850000I0J-150000D01*
G01*
G37*
G36*
G01*
X98500000Y-101120000D02*
X98500000Y-101420000D01*
G75*
G02*
X98350000Y-101570000I-150000J0D01*
G01*
X96700000Y-101570000D01*
G75*
G02*
X96550000Y-101420000I0J150000D01*
G01*
X96550000Y-101120000D01*
G75*
G02*
X96700000Y-100970000I150000J0D01*
G01*
X98350000Y-100970000D01*
G75*
G02*
X98500000Y-101120000I0J-150000D01*
G01*
G37*
G36*
G01*
X98500000Y-102390000D02*
X98500000Y-102690000D01*
G75*
G02*
X98350000Y-102840000I-150000J0D01*
G01*
X96700000Y-102840000D01*
G75*
G02*
X96550000Y-102690000I0J150000D01*
G01*
X96550000Y-102390000D01*
G75*
G02*
X96700000Y-102240000I150000J0D01*
G01*
X98350000Y-102240000D01*
G75*
G02*
X98500000Y-102390000I0J-150000D01*
G01*
G37*
G36*
G01*
X98500000Y-103660000D02*
X98500000Y-103960000D01*
G75*
G02*
X98350000Y-104110000I-150000J0D01*
G01*
X96700000Y-104110000D01*
G75*
G02*
X96550000Y-103960000I0J150000D01*
G01*
X96550000Y-103660000D01*
G75*
G02*
X96700000Y-103510000I150000J0D01*
G01*
X98350000Y-103510000D01*
G75*
G02*
X98500000Y-103660000I0J-150000D01*
G01*
G37*
G36*
G01*
X103450000Y-103660000D02*
X103450000Y-103960000D01*
G75*
G02*
X103300000Y-104110000I-150000J0D01*
G01*
X101650000Y-104110000D01*
G75*
G02*
X101500000Y-103960000I0J150000D01*
G01*
X101500000Y-103660000D01*
G75*
G02*
X101650000Y-103510000I150000J0D01*
G01*
X103300000Y-103510000D01*
G75*
G02*
X103450000Y-103660000I0J-150000D01*
G01*
G37*
G36*
G01*
X103450000Y-102390000D02*
X103450000Y-102690000D01*
G75*
G02*
X103300000Y-102840000I-150000J0D01*
G01*
X101650000Y-102840000D01*
G75*
G02*
X101500000Y-102690000I0J150000D01*
G01*
X101500000Y-102390000D01*
G75*
G02*
X101650000Y-102240000I150000J0D01*
G01*
X103300000Y-102240000D01*
G75*
G02*
X103450000Y-102390000I0J-150000D01*
G01*
G37*
G36*
G01*
X103450000Y-101120000D02*
X103450000Y-101420000D01*
G75*
G02*
X103300000Y-101570000I-150000J0D01*
G01*
X101650000Y-101570000D01*
G75*
G02*
X101500000Y-101420000I0J150000D01*
G01*
X101500000Y-101120000D01*
G75*
G02*
X101650000Y-100970000I150000J0D01*
G01*
X103300000Y-100970000D01*
G75*
G02*
X103450000Y-101120000I0J-150000D01*
G01*
G37*
G36*
G01*
X103450000Y-99850000D02*
X103450000Y-100150000D01*
G75*
G02*
X103300000Y-100300000I-150000J0D01*
G01*
X101650000Y-100300000D01*
G75*
G02*
X101500000Y-100150000I0J150000D01*
G01*
X101500000Y-99850000D01*
G75*
G02*
X101650000Y-99700000I150000J0D01*
G01*
X103300000Y-99700000D01*
G75*
G02*
X103450000Y-99850000I0J-150000D01*
G01*
G37*
G36*
G01*
X103450000Y-98580000D02*
X103450000Y-98880000D01*
G75*
G02*
X103300000Y-99030000I-150000J0D01*
G01*
X101650000Y-99030000D01*
G75*
G02*
X101500000Y-98880000I0J150000D01*
G01*
X101500000Y-98580000D01*
G75*
G02*
X101650000Y-98430000I150000J0D01*
G01*
X103300000Y-98430000D01*
G75*
G02*
X103450000Y-98580000I0J-150000D01*
G01*
G37*
G36*
G01*
X103450000Y-97310000D02*
X103450000Y-97610000D01*
G75*
G02*
X103300000Y-97760000I-150000J0D01*
G01*
X101650000Y-97760000D01*
G75*
G02*
X101500000Y-97610000I0J150000D01*
G01*
X101500000Y-97310000D01*
G75*
G02*
X101650000Y-97160000I150000J0D01*
G01*
X103300000Y-97160000D01*
G75*
G02*
X103450000Y-97310000I0J-150000D01*
G01*
G37*
G36*
G01*
X103450000Y-96040000D02*
X103450000Y-96340000D01*
G75*
G02*
X103300000Y-96490000I-150000J0D01*
G01*
X101650000Y-96490000D01*
G75*
G02*
X101500000Y-96340000I0J150000D01*
G01*
X101500000Y-96040000D01*
G75*
G02*
X101650000Y-95890000I150000J0D01*
G01*
X103300000Y-95890000D01*
G75*
G02*
X103450000Y-96040000I0J-150000D01*
G01*
G37*
%TD*%
M02*
